  0
SECTION
  2
HEADER
  9
$ACADVER
  1
AC1009
  9
$INSBASE
 10
0
 20
0
 30
0
  9
$EXTMIN
 10
0
 20
0
  9
$EXTMAX
 10
2940
 20
2079
  9
$LIMMIN
 10
0
 20
0
  9
$LIMMAX
 10
2940
 20
2079
  9
$LTSCALE
 40
7
  0
ENDSEC
  0
SECTION
  2
TABLES
  0
TABLE
  2
LTYPE
 70
     9
  0
LTYPE
  2
CONTINUOUS
 70
    64
  3
実線
 72
    65
 73
     0
 40
0.0
  0
LTYPE
  2
DASHED1
 70
    64
  3
--  --  --  --  --  --  --  --  
 72
    65
 73
     2
 40
2.5
 49
1.25
 49
-1.25
  0
LTYPE
  2
DASHED2
 70
    64
  3
----    ----    ----    ----    
 72
    65
 73
     2
 40
5.0
 49
2.5
 49
-2.5
  0
LTYPE
  2
DASHED3
 70
    64
  3
------  ------  ------  ------  
 72
    65
 73
     2
 40
5.0
 49
3.75
 49
-1.25
  0
LTYPE
  2
CENTER1
 70
    64
  3
----- - ----- - ----- - ----- - 
 72
    65
 73
     4
 40
10.0
 49
6.25
 49
-1.25
 49
1.25
 49
-1.25
  0
LTYPE
  2
CENTER2
 70
    64
  3
----------  --  ----------  --  
 72
    65
 73
     4
 40
20.0
 49
12.5
 49
-2.5
 49
2.5
 49
-2.5
  0
LTYPE
  2
PHANTOM1
 70
    64
  3
--- - - --- - - --- - - --- - - 
 72
    65
 73
     6
 40
10.0
 49
3.25
 49
-1.25
 49
1.25
 49
-1.25
 49
1.25
 49
-1.25
  0
LTYPE
  2
PHANTOM2
 70
    64
  3
--------  -  -  --------  -  -  
 72
    65
 73
     6
 40
20.0
 49
10.0
 49
-2.5
 49
1.25
 49
-2.5
 49
1.25
 49
-2.5
  0
LTYPE
  2
DOT
 70
    64
  3
-   -   -   -   -   -   -   -   
 72
    65
 73
     2
 40
2.5
 49
0.625
 49
-1.875
  0
LTYPE
  2
DUMMY
 70
    64
  3
ダミー
 72
    65
 73
     0
 40
0.0
  0
LTYPE
  2
RAND1
 70
    64
  3
ランダム線1
 72
    65
 73
     4
 40
10.0
 49
1.0
 49
-2.0
 49
3.0
 49
-4.0
  0
LTYPE
  2
RAND2
 70
    64
  3
ランダム線2
 72
    65
 73
     4
 40
14.0
 49
2.0
 49
-3.0
 49
4.0
 49
-5.0
  0
LTYPE
  2
RAND3
 70
    64
  3
ランダム線3
 72
    65
 73
     4
 40
18.0
 49
3.0
 49
-4.0
 49
5.0
 49
-6.0
  0
LTYPE
  2
RAND4
 70
    64
  3
ランダム線4
 72
    65
 73
     4
 40
22.0
 49
4.0
 49
-5.0
 49
6.0
 49
-7.0
  0
LTYPE
  2
RAND5
 70
    64
  3
ランダム線5
 72
    65
 73
     4
 40
26.0
 49
5.0
 49
-6.0
 49
7.0
 49
-8.0
  0
LTYPE
  2
LONG1
 70
    64
  3
----------  --  ----------  --  
 72
    65
 73
     4
 40
40.0
 49
32.5
 49
-2.5
 49
2.5
 49
-2.5
  0
LTYPE
  2
LONG2
 70
    64
  3
--------  -  -  --------  -  -  
 72
    65
 73
     6
 40
40.0
 49
30.0
 49
-2.5
 49
1.25
 49
-2.5
 49
1.25
 49
-2.5
  0
LTYPE
  2
LONG3
 70
    64
  3
+++++++++++++++..+++++++++++++++
 72
    65
 73
     2
 40
40.0
 49
37.5
 49
-2.5
  0
LTYPE
  2
LONG4
 70
    64
  3
+++++++++++++++..+++++++++++++++
 72
    65
 73
     2
 40
80.0
 49
75.0
 49
-5.0
  0
LTYPE
  2
LONG5
 70
    64
  3
----------  --  ----------  --  
 72
    65
 73
     4
 40
60.0
 49
37.5
 49
-7.5
 49
7.5
 49
-7.5
  0
LTYPE
  2
dashed
 70
   64
  3
-------   -------------   ------
 72
   65
 73
    2
 40
7.5
 49
6
 49
-1.5
  0
LTYPE
  2
dashed_spaced
 70
   64
  3
----        --------        ----
 72
   65
 73
    2
 40
12
 49
6
 49
-6
  0
LTYPE
  2
long_dashed_dotted
 70
   64
  3
------------- --- --------------
 72
   65
 73
    4
 40
15.25
 49
12
 49
-1.5
 49
0.25
 49
-1.5
  0
LTYPE
  2
long_dashed_double-dotted
 70
   64
  3
----------- --- --- ------------
 72
   65
 73
    6
 40
17
 49
12
 49
-1.5
 49
0.25
 49
-1.5
 49
0.25
 49
-1.5
  0
LTYPE
  2
long_dashed_triplicate-dotted
 70
   64
  3
--------- --- --- --- ----------
 72
   65
 73
    8
 40
18.75
 49
12
 49
-1.5
 49
0.25
 49
-1.5
 49
0.25
 49
-1.5
 49
0.25
 49
-1.5
  0
LTYPE
  2
dotted
 70
   64
  3
   -       -       -       -    
 72
   65
 73
    2
 40
1.75
 49
0.25
 49
-1.5
  0
LTYPE
  2
chain
 70
   64
  3
-------------- -- --------------
 72
   65
 73
    4
 40
18.5
 49
12
 49
-1.5
 49
3.5
 49
-1.5
  0
LTYPE
  2
chain_double_dash
 70
   64
  3
------------ -- -- -------------
 72
   65
 73
    6
 40
23.5
 49
12
 49
-1.5
 49
3.5
 49
-1.5
 49
3.5
 49
-1.5
  0
LTYPE
  2
dashed_dotted
 70
   64
  3
-----------     -     ----------
 72
   65
 73
    4
 40
9.25
 49
6
 49
-1.5
 49
0.25
 49
-1.5
  0
LTYPE
  2
double-dashed_dotted
 70
   64
  3
------   -----------   -   -----
 72
   65
 73
    6
 40
16.75
 49
6
 49
-1.5
 49
6
 49
-1.5
 49
0.25
 49
-1.5
  0
LTYPE
  2
dashed_double-dotted
 70
   64
  3
---------    -    -    ---------
 72
   65
 73
    6
 40
11
 49
6
 49
-1.5
 49
0.25
 49
-1.5
 49
0.25
 49
-1.5
  0
LTYPE
  2
double-dashed_double-dotted
 70
   64
  3
-----   ---------   -   -   ----
 72
   65
 73
    8
 40
18.5
 49
6
 49
-1.5
 49
6
 49
-1.5
 49
0.25
 49
-1.5
 49
0.25
 49
-1.5
  0
LTYPE
  2
dashed_triplicate-dotted
 70
   64
  3
-------    -    -    -    ------
 72
   65
 73
    8
 40
12.75
 49
6
 49
-1.5
 49
0.25
 49
-1.5
 49
0.25
 49
-1.5
 49
0.25
 49
-1.5
  0
LTYPE
  2
double-dashed_triplicate-dotted
 70
   64
  3
-----  ---------  -  -  -  -----
 72
   65
 73
   10
 40
20.25
 49
6
 49
-1.5
 49
6
 49
-1.5
 49
0.25
 49
-1.5
 49
0.25
 49
-1.5
 49
0.25
 49
-1.5
  0
LTYPE
  2
undefined
 70
   64
  3
--------------------------------
 72
   65
 73
    0
 40
0
  0
LTYPE
  2
_
 70
   64
  3
                                
 72
   65
 73
    0
 40
0
  0
LTYPE
  2
__18
 70
   64
  3
                                
 72
   65
 73
    0
 40
0
  0
LTYPE
  2
__19
 70
   64
  3
                                
 72
   65
 73
    0
 40
0
  0
LTYPE
  2
__20
 70
   64
  3
                                
 72
   65
 73
    0
 40
0
  0
LTYPE
  2
__21
 70
   64
  3
                                
 72
   65
 73
    0
 40
0
  0
LTYPE
  2
__22
 70
   64
  3
                                
 72
   65
 73
    0
 40
0
  0
LTYPE
  2
__23
 70
   64
  3
                                
 72
   65
 73
    0
 40
0
  0
LTYPE
  2
__24
 70
   64
  3
                                
 72
   65
 73
    0
 40
0
  0
LTYPE
  2
__25
 70
   64
  3
                                
 72
   65
 73
    0
 40
0
  0
LTYPE
  2
__26
 70
   64
  3
                                
 72
   65
 73
    0
 40
0
  0
LTYPE
  2
__27
 70
   64
  3
                                
 72
   65
 73
    0
 40
0
  0
LTYPE
  2
__28
 70
   64
  3
                                
 72
   65
 73
    0
 40
0
  0
LTYPE
  2
__29
 70
   64
  3
                                
 72
   65
 73
    0
 40
0
  0
LTYPE
  2
__30
 70
   64
  3
                                
 72
   65
 73
    0
 40
0
  0
LTYPE
  2
__31
 70
   64
  3
                                
 72
   65
 73
    0
 40
0
  0
LTYPE
  2
__32
 70
   64
  3
                                
 72
   65
 73
    0
 40
0
  0
ENDTAB
  0
TABLE
  2
STYLE
  5
3
100
AcDbSymbolTable
 70
     1
  0
STYLE
  5
10
100
AcDbSymbolTableRecord
100
AcDbTextStyleTableRecord
  2
STANDARD
 70
     0
 40
0.0
 41
1.0
 50
0.0
 71
     0
 42
0.2
  3
txt
  4
bigfont.shx
  0
STYLE
  5
26
100
AcDbSymbolTableRecord
100
AcDbTextStyleTableRecord
  2
TATEGAKI
 70
    68
 40
0.0
 41
1.0
 50
0.0
 71
     0
 42
1.0
  3
txt
  4
bigfont.shx
  0
ENDTAB
  0
TABLE
  2
LAYER
 70
    4
  0
LAYER
  2
_0-0_
 70
   64
 62
    7
  6
CONTINUOUS
  0
LAYER
  2
_1-0_
 70
   64
 62
    7
  6
CONTINUOUS
  0
LAYER
  2
_1-2_
 70
   64
 62
    7
  6
CONTINUOUS
  0
LAYER
  2
ADD_LINE
 70
   64
 62
    7
  6
CONTINUOUS
  0
ENDTAB
  0
ENDSEC
  0
SECTION
  2
BLOCKS
  0
ENDSEC
  0
SECTION
  2
ENTITIES
  0
TEXT
  8
_1-2_
 62
    7
 10
137.85699460356986
 20
482.24084124830404
 40
40
 41
1
 50
0
  1
収縮チューブ
  0
TEXT
  8
_1-2_
 62
    7
 10
137.85699460356986
 20
536.78629579375843
 40
40
 41
1
 50
0
  1
圧着端子
  0
LINE
  8
_1-2_
  6
CONTINUOUS
 62
    7
 10
2598.1303403377242
 20
1224.1900559621163
 11
2492.3624667427357
 21
1224.1900559621163
  0
LINE
  8
_1-2_
  6
CONTINUOUS
 62
    7
 10
839.97473115760158
 20
1448.3834324072141
 11
2069.7233986568663
 21
1448.3834324072141
  0
LINE
  8
_1-2_
  6
CONTINUOUS
 62
    7
 10
839.97473115760158
 20
1448.3834324072141
 11
839.97473115760158
 21
1368.3834324072138
  0
LINE
  8
_1-2_
  6
CONTINUOUS
 62
    7
 10
589.2284625008848
 20
1434.7336258842729
 11
589.2284625008848
 21
1382.0332389301548
  0
LINE
  8
_1-2_
  6
CONTINUOUS
 62
    7
 10
714.60159682924325
 20
1434.7336258842729
 11
589.2284625008848
 21
1434.7336258842729
  0
LINE
  8
_1-2_
  6
CONTINUOUS
 62
    7
 10
714.60159682924325
 20
1382.0332389301548
 11
589.2284625008848
 21
1382.0332389301548
  0
LINE
  8
_1-2_
  6
CONTINUOUS
 62
    7
 10
714.60159682924325
 20
1448.3834324072141
 11
714.60159682924325
 21
1434.7336258842729
  0
LINE
  8
_1-2_
  6
CONTINUOUS
 62
    7
 10
714.60159682924325
 20
1382.0332389301548
 11
714.60159682924325
 21
1368.3834324072138
  0
LINE
  8
_1-2_
  6
CONTINUOUS
 62
    7
 10
833.14594441678673
 20
1368.3834324072154
 11
839.97473115760022
 21
1375.2122191480289
  0
LINE
  8
_1-2_
  6
CONTINUOUS
 62
    7
 10
819.0038087930543
 20
1368.3834324072168
 11
839.97473115759908
 21
1389.3543547717611
  0
LINE
  8
_1-2_
  6
CONTINUOUS
 62
    7
 10
804.86167316931687
 20
1368.3834324072125
 11
839.97473115760317
 21
1403.4964903954988
  0
LINE
  8
_1-2_
  6
CONTINUOUS
 62
    7
 10
790.71953754560423
 20
1368.383432407215
 11
839.97473115760067
 21
1417.6386260192112
  0
LINE
  8
_1-2_
  6
CONTINUOUS
 62
    7
 10
776.57740192186679
 20
1368.3834324072109
 11
839.97473115760067
 21
1431.7807616429445
  0
LINE
  8
_1-2_
  6
CONTINUOUS
 62
    7
 10
762.43526629813459
 20
1368.3834324072118
 11
839.97473115760386
 21
1445.922897266681
  0
LINE
  8
_1-2_
  6
CONTINUOUS
 62
    7
 10
748.29313067440239
 20
1368.3834324072131
 11
828.29313067440216
 21
1448.3834324072127
  0
LINE
  8
_1-2_
  6
CONTINUOUS
 62
    7
 10
734.15099505067019
 20
1368.3834324072141
 11
814.15099505066996
 21
1448.3834324072141
  0
LINE
  8
_1-2_
  6
CONTINUOUS
 62
    7
 10
720.00885942693799
 20
1368.3834324072152
 11
800.00885942693776
 21
1448.383432407215
  0
LINE
  8
_1-2_
  6
CONTINUOUS
 62
    7
 10
714.60159682924564
 20
1377.1183054332564
 11
785.86672380320329
 21
1448.3834324072141
  0
LINE
  8
_1-2_
  6
CONTINUOUS
 62
    7
 10
705.37439470240975
 20
1382.0332389301536
 11
771.72458817946801
 21
1448.3834324072122
  0
LINE
  8
_1-2_
  6
CONTINUOUS
 62
    7
 10
691.23225907869721
 20
1382.0332389301566
 11
757.58245255575548
 21
1448.3834324072147
  0
LINE
  8
_1-2_
  6
CONTINUOUS
 62
    7
 10
677.09012345496501
 20
1382.0332389301575
 11
743.44031693202305
 21
1448.3834324072154
  0
LINE
  8
_1-2_
  6
CONTINUOUS
 62
    7
 10
662.94798783122758
 20
1382.0332389301534
 11
729.29818130828562
 21
1448.3834324072116
  0
LINE
  8
_1-2_
  6
CONTINUOUS
 62
    7
 10
648.80585220749526
 20
1382.0332389301545
 11
701.5062391616118
 21
1434.7336258842709
  0
LINE
  8
_1-2_
  6
CONTINUOUS
 62
    7
 10
714.60159682924473
 20
1447.828983551904
 11
715.15604568455342
 21
1448.3834324072127
  0
LINE
  8
_1-2_
  6
CONTINUOUS
 62
    7
 10
634.66371658376306
 20
1382.0332389301557
 11
687.3641035378796
 21
1434.733625884272
  0
LINE
  8
_1-2_
  6
CONTINUOUS
 62
    7
 10
620.52158096002677
 20
1382.0332389301525
 11
673.22196791414569
 21
1434.7336258842715
  0
LINE
  8
_1-2_
  6
CONTINUOUS
 62
    7
 10
606.3794453362932
 20
1382.0332389301525
 11
659.07983229040997
 21
1434.7336258842693
  0
LINE
  8
_1-2_
  6
CONTINUOUS
 62
    7
 10
592.237309712561
 20
1382.0332389301536
 11
644.93769666667743
 21
1434.7336258842702
  0
LINE
  8
_1-2_
  6
CONTINUOUS
 62
    7
 10
589.22846250088526
 20
1393.1665273421929
 11
630.79556104295966
 21
1434.7336258842674
  0
LINE
  8
_1-2_
  6
CONTINUOUS
 62
    7
 10
589.22846250088594
 20
1407.3086629659269
 11
616.65342541922746
 21
1434.7336258842686
  0
LINE
  8
_1-2_
  6
CONTINUOUS
 62
    7
 10
589.2284625008881
 20
1421.4507985896623
 11
602.51128979549526
 21
1434.7336258842697
  0
LINE
  8
_1-2_
  6
CONTINUOUS
 62
    7
 10
833.14594441678673
 20
1368.3834324072154
 11
839.97473115760022
 21
1375.2122191480289
  0
LINE
  8
_1-2_
  6
CONTINUOUS
 62
    7
 10
819.0038087930543
 20
1368.3834324072168
 11
839.97473115759908
 21
1389.3543547717611
  0
LINE
  8
_1-2_
  6
CONTINUOUS
 62
    7
 10
804.86167316931687
 20
1368.3834324072125
 11
839.97473115760317
 21
1403.4964903954988
  0
LINE
  8
_1-2_
  6
CONTINUOUS
 62
    7
 10
790.71953754560423
 20
1368.383432407215
 11
839.97473115760067
 21
1417.6386260192112
  0
LINE
  8
_1-2_
  6
CONTINUOUS
 62
    7
 10
776.57740192186679
 20
1368.3834324072109
 11
839.97473115760067
 21
1431.7807616429445
  0
LINE
  8
_1-2_
  6
CONTINUOUS
 62
    7
 10
762.43526629813459
 20
1368.3834324072118
 11
839.97473115760386
 21
1445.922897266681
  0
LINE
  8
_1-2_
  6
CONTINUOUS
 62
    7
 10
748.29313067440239
 20
1368.3834324072131
 11
828.29313067440216
 21
1448.3834324072127
  0
LINE
  8
_1-2_
  6
CONTINUOUS
 62
    7
 10
734.15099505067019
 20
1368.3834324072141
 11
814.15099505066996
 21
1448.3834324072141
  0
LINE
  8
_1-2_
  6
CONTINUOUS
 62
    7
 10
720.00885942693799
 20
1368.3834324072152
 11
800.00885942693776
 21
1448.383432407215
  0
LINE
  8
_1-2_
  6
CONTINUOUS
 62
    7
 10
714.60159682924564
 20
1377.1183054332564
 11
785.86672380320329
 21
1448.3834324072141
  0
LINE
  8
_1-2_
  6
CONTINUOUS
 62
    7
 10
705.37439470240975
 20
1382.0332389301536
 11
771.72458817946801
 21
1448.3834324072122
  0
LINE
  8
_1-2_
  6
CONTINUOUS
 62
    7
 10
691.23225907869721
 20
1382.0332389301566
 11
757.58245255575548
 21
1448.3834324072147
  0
LINE
  8
_1-2_
  6
CONTINUOUS
 62
    7
 10
677.09012345496501
 20
1382.0332389301575
 11
743.44031693202305
 21
1448.3834324072154
  0
LINE
  8
_1-2_
  6
CONTINUOUS
 62
    7
 10
662.94798783122758
 20
1382.0332389301534
 11
729.29818130828562
 21
1448.3834324072116
  0
LINE
  8
_1-2_
  6
CONTINUOUS
 62
    7
 10
648.80585220749526
 20
1382.0332389301545
 11
701.5062391616118
 21
1434.7336258842709
  0
LINE
  8
_1-2_
  6
CONTINUOUS
 62
    7
 10
714.60159682924473
 20
1447.828983551904
 11
715.15604568455342
 21
1448.3834324072127
  0
LINE
  8
_1-2_
  6
CONTINUOUS
 62
    7
 10
634.66371658376306
 20
1382.0332389301557
 11
687.3641035378796
 21
1434.733625884272
  0
LINE
  8
_1-2_
  6
CONTINUOUS
 62
    7
 10
620.52158096002677
 20
1382.0332389301525
 11
673.22196791414569
 21
1434.7336258842715
  0
LINE
  8
_1-2_
  6
CONTINUOUS
 62
    7
 10
606.3794453362932
 20
1382.0332389301525
 11
659.07983229040997
 21
1434.7336258842693
  0
LINE
  8
_1-2_
  6
CONTINUOUS
 62
    7
 10
592.237309712561
 20
1382.0332389301536
 11
644.93769666667743
 21
1434.7336258842702
  0
LINE
  8
_1-2_
  6
CONTINUOUS
 62
    7
 10
589.22846250088526
 20
1393.1665273421929
 11
630.79556104295966
 21
1434.7336258842674
  0
LINE
  8
_1-2_
  6
CONTINUOUS
 62
    7
 10
589.22846250088594
 20
1407.3086629659269
 11
616.65342541922746
 21
1434.7336258842686
  0
LINE
  8
_1-2_
  6
CONTINUOUS
 62
    7
 10
589.2284625008881
 20
1421.4507985896623
 11
602.51128979549526
 21
1434.7336258842697
  0
LINE
  8
_1-2_
  6
CONTINUOUS
 62
    7
 10
2069.723398656869
 20
1448.3834324072141
 11
2069.723398656869
 21
1368.3834324072138
  0
LINE
  8
_1-2_
  6
CONTINUOUS
 62
    7
 10
2320.4696673135854
 20
1434.7336258842729
 11
2320.4696673135854
 21
1382.0332389301548
  0
LINE
  8
_1-2_
  6
CONTINUOUS
 62
    7
 10
2195.096532985227
 20
1434.7336258842729
 11
2320.4696673135854
 21
1434.7336258842729
  0
LINE
  8
_1-2_
  6
CONTINUOUS
 62
    7
 10
2195.096532985227
 20
1382.0332389301548
 11
2320.4696673135854
 21
1382.0332389301548
  0
LINE
  8
_1-2_
  6
CONTINUOUS
 62
    7
 10
2195.096532985227
 20
1448.3834324072141
 11
2195.096532985227
 21
1434.7336258842729
  0
LINE
  8
_1-2_
  6
CONTINUOUS
 62
    7
 10
2195.096532985227
 20
1382.0332389301548
 11
2195.096532985227
 21
1368.3834324072138
  0
LINE
  8
_1-2_
  6
CONTINUOUS
 62
    7
 10
2076.5521853976834
 20
1368.3834324072154
 11
2069.7233986568699
 21
1375.2122191480289
  0
LINE
  8
_1-2_
  6
CONTINUOUS
 62
    7
 10
2090.6943210214158
 20
1368.3834324072168
 11
2069.7233986568713
 21
1389.3543547717611
  0
LINE
  8
_1-2_
  6
CONTINUOUS
 62
    7
 10
2104.8364566451532
 20
1368.3834324072125
 11
2069.7233986568672
 21
1403.4964903954988
  0
LINE
  8
_1-2_
  6
CONTINUOUS
 62
    7
 10
2118.9785922688661
 20
1368.383432407215
 11
2069.7233986568694
 21
1417.6386260192112
  0
LINE
  8
_1-2_
  6
CONTINUOUS
 62
    7
 10
2133.1207278926036
 20
1368.3834324072109
 11
2069.7233986568694
 21
1431.7807616429445
  0
LINE
  8
_1-2_
  6
CONTINUOUS
 62
    7
 10
2147.2628635163355
 20
1368.3834324072118
 11
2069.7233986568663
 21
1445.922897266681
  0
LINE
  8
_1-2_
  6
CONTINUOUS
 62
    7
 10
2161.404999140068
 20
1368.3834324072131
 11
2081.404999140068
 21
1448.3834324072127
  0
LINE
  8
_1-2_
  6
CONTINUOUS
 62
    7
 10
2175.5471347638004
 20
1368.3834324072141
 11
2095.5471347638004
 21
1448.3834324072141
  0
LINE
  8
_1-2_
  6
CONTINUOUS
 62
    7
 10
2189.6892703875324
 20
1368.3834324072152
 11
2109.6892703875328
 21
1448.383432407215
  0
LINE
  8
_1-2_
  6
CONTINUOUS
 62
    7
 10
2195.0965329852247
 20
1377.1183054332564
 11
2123.8314060112671
 21
1448.3834324072141
  0
LINE
  8
_1-2_
  6
CONTINUOUS
 62
    7
 10
2204.3237351120606
 20
1382.0332389301536
 11
2137.9735416350022
 21
1448.3834324072122
  0
LINE
  8
_1-2_
  6
CONTINUOUS
 62
    7
 10
2218.465870735773
 20
1382.0332389301566
 11
2152.1156772587146
 21
1448.3834324072147
  0
LINE
  8
_1-2_
  6
CONTINUOUS
 62
    7
 10
2232.6080063595055
 20
1382.0332389301575
 11
2166.2578128824471
 21
1448.3834324072154
  0
LINE
  8
_1-2_
  6
CONTINUOUS
 62
    7
 10
2246.7501419832429
 20
1382.0332389301534
 11
2180.399948506185
 21
1448.3834324072116
  0
LINE
  8
_1-2_
  6
CONTINUOUS
 62
    7
 10
2260.8922776069749
 20
1382.0332389301545
 11
2208.1918906528585
 21
1434.7336258842709
  0
LINE
  8
_1-2_
  6
CONTINUOUS
 62
    7
 10
2195.0965329852252
 20
1447.828983551904
 11
2194.5420841299169
 21
1448.3834324072127
  0
LINE
  8
_1-2_
  6
CONTINUOUS
 62
    7
 10
2275.0344132307073
 20
1382.0332389301557
 11
2222.3340262765905
 21
1434.733625884272
  0
LINE
  8
_1-2_
  6
CONTINUOUS
 62
    7
 10
2289.1765488544434
 20
1382.0332389301525
 11
2236.4761619003248
 21
1434.7336258842715
  0
LINE
  8
_1-2_
  6
CONTINUOUS
 62
    7
 10
2303.3186844781771
 20
1382.0332389301525
 11
2250.6182975240604
 21
1434.7336258842693
  0
LINE
  8
_1-2_
  6
CONTINUOUS
 62
    7
 10
2317.4608201019091
 20
1382.0332389301536
 11
2264.7604331477928
 21
1434.7336258842702
  0
LINE
  8
_1-2_
  6
CONTINUOUS
 62
    7
 10
2320.469667313585
 20
1393.1665273421929
 11
2278.9025687715102
 21
1434.7336258842674
  0
LINE
  8
_1-2_
  6
CONTINUOUS
 62
    7
 10
2320.4696673135845
 20
1407.3086629659269
 11
2293.0447043952427
 21
1434.7336258842686
  0
LINE
  8
_1-2_
  6
CONTINUOUS
 62
    7
 10
2320.4696673135822
 20
1421.4507985896623
 11
2307.1868400189751
 21
1434.7336258842697
  0
LINE
  8
_1-2_
  6
CONTINUOUS
 62
    7
 10
2076.5521853976834
 20
1368.3834324072154
 11
2069.7233986568699
 21
1375.2122191480289
  0
LINE
  8
_1-2_
  6
CONTINUOUS
 62
    7
 10
2090.6943210214158
 20
1368.3834324072168
 11
2069.7233986568713
 21
1389.3543547717611
  0
LINE
  8
_1-2_
  6
CONTINUOUS
 62
    7
 10
2104.8364566451532
 20
1368.3834324072125
 11
2069.7233986568672
 21
1403.4964903954988
  0
LINE
  8
_1-2_
  6
CONTINUOUS
 62
    7
 10
2118.9785922688661
 20
1368.383432407215
 11
2069.7233986568694
 21
1417.6386260192112
  0
LINE
  8
_1-2_
  6
CONTINUOUS
 62
    7
 10
2133.1207278926036
 20
1368.3834324072109
 11
2069.7233986568694
 21
1431.7807616429445
  0
LINE
  8
_1-2_
  6
CONTINUOUS
 62
    7
 10
2147.2628635163355
 20
1368.3834324072118
 11
2069.7233986568663
 21
1445.922897266681
  0
LINE
  8
_1-2_
  6
CONTINUOUS
 62
    7
 10
2161.404999140068
 20
1368.3834324072131
 11
2081.404999140068
 21
1448.3834324072127
  0
LINE
  8
_1-2_
  6
CONTINUOUS
 62
    7
 10
2175.5471347638004
 20
1368.3834324072141
 11
2095.5471347638004
 21
1448.3834324072141
  0
LINE
  8
_1-2_
  6
CONTINUOUS
 62
    7
 10
2189.6892703875324
 20
1368.3834324072152
 11
2109.6892703875328
 21
1448.383432407215
  0
LINE
  8
_1-2_
  6
CONTINUOUS
 62
    7
 10
2195.0965329852247
 20
1377.1183054332564
 11
2123.8314060112671
 21
1448.3834324072141
  0
LINE
  8
_1-2_
  6
CONTINUOUS
 62
    7
 10
2204.3237351120606
 20
1382.0332389301536
 11
2137.9735416350022
 21
1448.3834324072122
  0
LINE
  8
_1-2_
  6
CONTINUOUS
 62
    7
 10
2218.465870735773
 20
1382.0332389301566
 11
2152.1156772587146
 21
1448.3834324072147
  0
LINE
  8
_1-2_
  6
CONTINUOUS
 62
    7
 10
2232.6080063595055
 20
1382.0332389301575
 11
2166.2578128824471
 21
1448.3834324072154
  0
LINE
  8
_1-2_
  6
CONTINUOUS
 62
    7
 10
2246.7501419832429
 20
1382.0332389301534
 11
2180.399948506185
 21
1448.3834324072116
  0
LINE
  8
_1-2_
  6
CONTINUOUS
 62
    7
 10
2260.8922776069749
 20
1382.0332389301545
 11
2208.1918906528585
 21
1434.7336258842709
  0
LINE
  8
_1-2_
  6
CONTINUOUS
 62
    7
 10
2195.0965329852252
 20
1447.828983551904
 11
2194.5420841299169
 21
1448.3834324072127
  0
LINE
  8
_1-2_
  6
CONTINUOUS
 62
    7
 10
2275.0344132307073
 20
1382.0332389301557
 11
2222.3340262765905
 21
1434.733625884272
  0
LINE
  8
_1-2_
  6
CONTINUOUS
 62
    7
 10
2289.1765488544434
 20
1382.0332389301525
 11
2236.4761619003248
 21
1434.7336258842715
  0
LINE
  8
_1-2_
  6
CONTINUOUS
 62
    7
 10
2303.3186844781771
 20
1382.0332389301525
 11
2250.6182975240604
 21
1434.7336258842693
  0
LINE
  8
_1-2_
  6
CONTINUOUS
 62
    7
 10
2317.4608201019091
 20
1382.0332389301536
 11
2264.7604331477928
 21
1434.7336258842702
  0
LINE
  8
_1-2_
  6
CONTINUOUS
 62
    7
 10
2320.469667313585
 20
1393.1665273421929
 11
2278.9025687715102
 21
1434.7336258842674
  0
LINE
  8
_1-2_
  6
CONTINUOUS
 62
    7
 10
2320.4696673135845
 20
1407.3086629659269
 11
2293.0447043952427
 21
1434.7336258842686
  0
LINE
  8
_1-2_
  6
CONTINUOUS
 62
    7
 10
2320.4696673135822
 20
1421.4507985896623
 11
2307.1868400189751
 21
1434.7336258842697
  0
LINE
  8
_1-2_
  6
CONTINUOUS
 62
    7
 10
2069.723398656869
 20
1368.3834324072138
 11
2189.6892703875324
 21
1368.3834324072138
  0
LINE
  8
_1-2_
  6
CONTINUOUS
 62
    7
 10
2069.7233986568663
 20
1448.3834324072141
 11
2194.5420841299169
 21
1448.3834324072141
  0
LINE
  8
_1-2_
  6
CONTINUOUS
 62
    7
 10
714.60159682924325
 20
1448.3834324072141
 11
839.97473115760158
 21
1448.3834324072141
  0
LINE
  8
_1-2_
  6
CONTINUOUS
 62
    7
 10
714.60159682924325
 20
1368.3834324072138
 11
839.97473115760158
 21
1368.3834324072138
  0
LINE
  8
_1-2_
  6
CONTINUOUS
 62
    7
 10
590.69022945486734
 20
1407.6476139002982
 11
374.76983144491709
 21
1407.6476139002982
  0
CIRCLE
  8
_1-2_
  6
CONTINUOUS
 62
    7
 10
207.55882601855865
 20
1632.3327000994514
 40
20
  0
ARC
  8
_1-2_
  6
CONTINUOUS
 62
    7
 10
207.55882601855865
 20
1632.3327000994514
 40
30
 50
90
 51
270
  0
LINE
  8
_1-2_
  6
CONTINUOUS
 62
    7
 10
207.55882601855865
 20
1662.3327000994514
 11
257.24373480794497
 21
1652.924708610356
  0
LINE
  8
_1-2_
  6
CONTINUOUS
 62
    7
 10
207.55882601855865
 20
1602.3327000994514
 11
257.24373480794497
 21
1611.740691588547
  0
ARC
  8
_1-2_
  6
CONTINUOUS
 62
    7
 10
369.01160840293346
 20
1656.7472937976272
 40
6.0000000000000009
 50
0
 51
90
  0
LINE
  8
_1-2_
  6
CONTINUOUS
 62
    7
 10
375.01160840293335
 20
1607.918106401276
 11
375.01160840293335
 21
1656.7472937976272
  0
ARC
  8
_1-2_
  6
CONTINUOUS
 62
    7
 10
369.01160840293346
 20
1607.918106401276
 40
6.0000000000000009
 50
270
 51
0
  0
LINE
  8
_1-2_
  6
CONTINUOUS
 62
    7
 10
263.24373480794503
 20
1662.7472937976272
 11
369.01160840293346
 21
1662.7472937976272
  0
ARC
  8
_1-2_
  6
CONTINUOUS
 62
    7
 10
263.24373480794503
 20
1656.7472937976272
 40
6.0000000000000009
 50
90
 51
180
  0
LINE
  8
_1-2_
  6
CONTINUOUS
 62
    7
 10
257.24373480794497
 20
1607.918106401276
 11
257.24373480794497
 21
1656.7472937976272
  0
LINE
  8
_1-2_
  6
CONTINUOUS
 62
    7
 10
263.24373480794503
 20
1601.9181064012755
 11
369.01160840293346
 21
1601.9181064012755
  0
ARC
  8
_1-2_
  6
CONTINUOUS
 62
    7
 10
263.24373480794503
 20
1607.918106401276
 40
6.0000000000000009
 50
180
 51
270
  0
LINE
  8
_1-2_
  6
CONTINUOUS
 62
    7
 10
359.74057162348709
 20
1601.9181064012737
 11
375.01160840293448
 21
1617.1891431807212
  0
LINE
  8
_1-2_
  6
CONTINUOUS
 62
    7
 10
345.59843599975477
 20
1601.9181064012748
 11
375.01160840293528
 21
1631.331278804455
  0
LINE
  8
_1-2_
  6
CONTINUOUS
 62
    7
 10
331.45630037604224
 20
1601.9181064012773
 11
375.01160840293335
 21
1645.4734144281683
  0
LINE
  8
_1-2_
  6
CONTINUOUS
 62
    7
 10
257.24373480794702
 20
1626.7004901993064
 11
293.2905384062646
 21
1662.7472937976245
  0
LINE
  8
_1-2_
  6
CONTINUOUS
 62
    7
 10
257.2437348079456
 20
1640.842625823029
 11
279.14840278254218
 21
1662.7472937976258
  0
LINE
  8
_1-2_
  6
CONTINUOUS
 62
    7
 10
257.24373480794497
 20
1654.9847614467619
 11
265.00626715881003
 21
1662.7472937976268
  0
CIRCLE
  8
_1-2_
  6
CONTINUOUS
 62
    7
 10
207.55882601855865
 20
1406.1608790744494
 40
20
  0
ARC
  8
_1-2_
  6
CONTINUOUS
 62
    7
 10
207.55882601855865
 20
1406.1608790744494
 40
30
 50
90
 51
270
  0
LINE
  8
_1-2_
  6
CONTINUOUS
 62
    7
 10
207.55882601855865
 20
1436.1608790744494
 11
257.24373480794497
 21
1426.7528875853536
  0
LINE
  8
_1-2_
  6
CONTINUOUS
 62
    7
 10
207.55882601855865
 20
1376.1608790744494
 11
257.24373480794497
 21
1385.5688705635448
  0
ARC
  8
_1-2_
  6
CONTINUOUS
 62
    7
 10
369.01160840293346
 20
1430.5754727726251
 40
6.0000000000000009
 50
0
 51
90
  0
LINE
  8
_1-2_
  6
CONTINUOUS
 62
    7
 10
375.01160840293335
 20
1381.746285376274
 11
375.01160840293335
 21
1430.5754727726251
  0
ARC
  8
_1-2_
  6
CONTINUOUS
 62
    7
 10
369.01160840293346
 20
1381.746285376274
 40
6.0000000000000009
 50
270
 51
0
  0
LINE
  8
_1-2_
  6
CONTINUOUS
 62
    7
 10
263.24373480794503
 20
1436.5754727726251
 11
369.01160840293346
 21
1436.5754727726251
  0
ARC
  8
_1-2_
  6
CONTINUOUS
 62
    7
 10
263.24373480794503
 20
1430.5754727726251
 40
6.0000000000000009
 50
90
 51
180
  0
LINE
  8
_1-2_
  6
CONTINUOUS
 62
    7
 10
257.24373480794497
 20
1381.746285376274
 11
257.24373480794497
 21
1430.5754727726251
  0
LINE
  8
_1-2_
  6
CONTINUOUS
 62
    7
 10
263.24373480794503
 20
1375.7462853762736
 11
369.01160840293346
 21
1375.7462853762736
  0
ARC
  8
_1-2_
  6
CONTINUOUS
 62
    7
 10
263.24373480794503
 20
1381.746285376274
 40
6.0000000000000009
 50
180
 51
270
  0
LINE
  8
_1-2_
  6
CONTINUOUS
 62
    7
 10
359.74057162348709
 20
1375.7462853762715
 11
375.01160840293448
 21
1391.0173221557188
  0
LINE
  8
_1-2_
  6
CONTINUOUS
 62
    7
 10
345.59843599975477
 20
1375.7462853762725
 11
375.01160840293528
 21
1405.1594577794531
  0
LINE
  8
_1-2_
  6
CONTINUOUS
 62
    7
 10
331.45630037604224
 20
1375.7462853762754
 11
375.01160840293335
 21
1419.3015934031662
  0
LINE
  8
_1-2_
  6
CONTINUOUS
 62
    7
 10
257.24373480794702
 20
1400.5286691743042
 11
293.2905384062646
 21
1436.5754727726221
  0
LINE
  8
_1-2_
  6
CONTINUOUS
 62
    7
 10
257.2437348079456
 20
1414.6708047980269
 11
279.14840278254218
 21
1436.5754727726239
  0
LINE
  8
_1-2_
  6
CONTINUOUS
 62
    7
 10
257.24373480794497
 20
1428.8129404217598
 11
265.00626715881003
 21
1436.5754727726248
  0
CIRCLE
  8
_1-2_
  6
CONTINUOUS
 62
    7
 10
207.55882601855865
 20
1193.0265507162403
 40
20
  0
ARC
  8
_1-2_
  6
CONTINUOUS
 62
    7
 10
207.55882601855865
 20
1193.0265507162403
 40
30
 50
90
 51
270
  0
LINE
  8
_1-2_
  6
CONTINUOUS
 62
    7
 10
207.55882601855865
 20
1223.0265507162403
 11
257.24373480794497
 21
1213.6185592271449
  0
LINE
  8
_1-2_
  6
CONTINUOUS
 62
    7
 10
207.55882601855865
 20
1163.0265507162403
 11
257.24373480794497
 21
1172.4345422053359
  0
ARC
  8
_1-2_
  6
CONTINUOUS
 62
    7
 10
369.01160840293346
 20
1217.4411444144162
 40
6.0000000000000009
 50
0
 51
90
  0
LINE
  8
_1-2_
  6
CONTINUOUS
 62
    7
 10
375.01160840293335
 20
1168.6119570180647
 11
375.01160840293335
 21
1217.4411444144162
  0
ARC
  8
_1-2_
  6
CONTINUOUS
 62
    7
 10
369.01160840293346
 20
1168.6119570180647
 40
6.0000000000000009
 50
270
 51
0
  0
LINE
  8
_1-2_
  6
CONTINUOUS
 62
    7
 10
263.24373480794503
 20
1223.4411444144162
 11
369.01160840293346
 21
1223.4411444144162
  0
ARC
  8
_1-2_
  6
CONTINUOUS
 62
    7
 10
263.24373480794503
 20
1217.4411444144162
 40
6.0000000000000009
 50
90
 51
180
  0
LINE
  8
_1-2_
  6
CONTINUOUS
 62
    7
 10
257.24373480794497
 20
1168.6119570180647
 11
257.24373480794497
 21
1217.4411444144162
  0
LINE
  8
_1-2_
  6
CONTINUOUS
 62
    7
 10
263.24373480794503
 20
1162.6119570180647
 11
369.01160840293346
 21
1162.6119570180647
  0
ARC
  8
_1-2_
  6
CONTINUOUS
 62
    7
 10
263.24373480794503
 20
1168.6119570180647
 40
6.0000000000000009
 50
180
 51
270
  0
LINE
  8
_1-2_
  6
CONTINUOUS
 62
    7
 10
359.74057162348709
 20
1162.6119570180626
 11
375.01160840293448
 21
1177.8829937975102
  0
LINE
  8
_1-2_
  6
CONTINUOUS
 62
    7
 10
345.59843599975477
 20
1162.6119570180638
 11
375.01160840293528
 21
1192.0251294212442
  0
LINE
  8
_1-2_
  6
CONTINUOUS
 62
    7
 10
331.45630037604224
 20
1162.6119570180661
 11
375.01160840293335
 21
1206.1672650449573
  0
LINE
  8
_1-2_
  6
CONTINUOUS
 62
    7
 10
257.24373480794702
 20
1187.3943408160951
 11
293.2905384062646
 21
1223.441144414413
  0
LINE
  8
_1-2_
  6
CONTINUOUS
 62
    7
 10
257.2437348079456
 20
1201.5364764398182
 11
279.14840278254218
 21
1223.4411444144148
  0
LINE
  8
_1-2_
  6
CONTINUOUS
 62
    7
 10
257.24373480794497
 20
1215.6786120635509
 11
265.00626715881003
 21
1223.4411444144159
  0
LINE
  8
_1-2_
  6
CONTINUOUS
 62
    7
 10
589.2284625008881
 20
1421.4507985896623
 11
376.16286627078756
 21
1636.8018427560194
  0
LINE
  8
_1-2_
  6
CONTINUOUS
 62
    7
 10
589.2284625008848
 20
1393.1665273421927
 11
378.25241850959407
 21
1189.637663651542
  0
LINE
  8
_1-2_
  6
CONTINUOUS
 62
    7
 10
2319.6205777135738
 20
1407.4589737676283
 11
2485.8560669341377
 21
1407.4589737676283
  0
CIRCLE
  8
_1-2_
  6
CONTINUOUS
 62
    7
 10
2653.8152491271103
 20
1633.0816116471517
 40
20
  0
ARC
  8
_1-2_
  6
CONTINUOUS
 62
    7
 10
2653.8152491271103
 20
1633.0816116471517
 40
30
 50
270
 51
90
  0
LINE
  8
_1-2_
  6
CONTINUOUS
 62
    7
 10
2653.8152491271103
 20
1663.0816116471517
 11
2604.1303403377242
 21
1653.6736201580561
  0
LINE
  8
_1-2_
  6
CONTINUOUS
 62
    7
 10
2653.8152491271103
 20
1603.0816116471517
 11
2604.1303403377242
 21
1612.4896031362473
  0
ARC
  8
_1-2_
  6
CONTINUOUS
 62
    7
 10
2492.3624667427357
 20
1657.4962053453273
 40
6.0000000000000009
 50
90
 51
180
  0
LINE
  8
_1-2_
  6
CONTINUOUS
 62
    7
 10
2486.3624667427357
 20
1608.6670179489761
 11
2486.3624667427357
 21
1657.4962053453273
  0
ARC
  8
_1-2_
  6
CONTINUOUS
 62
    7
 10
2492.3624667427357
 20
1608.6670179489761
 40
6.0000000000000009
 50
180
 51
270
  0
LINE
  8
_1-2_
  6
CONTINUOUS
 62
    7
 10
2598.1303403377242
 20
1663.4962053453273
 11
2492.3624667427357
 21
1663.4962053453273
  0
ARC
  8
_1-2_
  6
CONTINUOUS
 62
    7
 10
2598.1303403377242
 20
1657.4962053453273
 40
6.0000000000000009
 50
0
 51
90
  0
LINE
  8
_1-2_
  6
CONTINUOUS
 62
    7
 10
2604.1303403377242
 20
1608.6670179489761
 11
2604.1303403377242
 21
1657.4962053453273
  0
LINE
  8
_1-2_
  6
CONTINUOUS
 62
    7
 10
2598.1303403377242
 20
1602.6670179489761
 11
2492.3624667427357
 21
1602.6670179489761
  0
ARC
  8
_1-2_
  6
CONTINUOUS
 62
    7
 10
2598.1303403377242
 20
1608.6670179489761
 40
6.0000000000000009
 50
270
 51
0
  0
LINE
  8
_1-2_
  6
CONTINUOUS
 62
    7
 10
2501.6335035221823
 20
1602.6670179489743
 11
2486.3624667427348
 21
1617.9380547284213
  0
LINE
  8
_1-2_
  6
CONTINUOUS
 62
    7
 10
2515.7756391459143
 20
1602.6670179489747
 11
2486.3624667427339
 21
1632.0801903521553
  0
LINE
  8
_1-2_
  6
CONTINUOUS
 62
    7
 10
2529.9177747696267
 20
1602.6670179489774
 11
2486.3624667427357
 21
1646.2223259758684
  0
LINE
  8
_1-2_
  6
CONTINUOUS
 62
    7
 10
2604.1303403377224
 20
1613.3072661232827
 11
2553.9414011156764
 21
1663.4962053453278
  0
LINE
  8
_1-2_
  6
CONTINUOUS
 62
    7
 10
2604.1303403377224
 20
1627.4494017470065
 11
2568.0835367394043
 21
1663.4962053453246
  0
LINE
  8
_1-2_
  6
CONTINUOUS
 62
    7
 10
2604.1303403377237
 20
1641.5915373707294
 11
2582.2256723631267
 21
1663.496205345326
  0
LINE
  8
_1-2_
  6
CONTINUOUS
 62
    7
 10
2604.1303403377242
 20
1655.7336729944623
 11
2596.3678079868587
 21
1663.4962053453271
  0
CIRCLE
  8
_1-2_
  6
CONTINUOUS
 62
    7
 10
2653.8152491271103
 20
1406.9097906221496
 40
20
  0
ARC
  8
_1-2_
  6
CONTINUOUS
 62
    7
 10
2653.8152491271103
 20
1406.9097906221496
 40
30
 50
270
 51
90
  0
LINE
  8
_1-2_
  6
CONTINUOUS
 62
    7
 10
2653.8152491271103
 20
1436.9097906221496
 11
2604.1303403377242
 21
1427.5017991330542
  0
LINE
  8
_1-2_
  6
CONTINUOUS
 62
    7
 10
2653.8152491271103
 20
1376.9097906221496
 11
2604.1303403377242
 21
1386.3177821112452
  0
ARC
  8
_1-2_
  6
CONTINUOUS
 62
    7
 10
2492.3624667427357
 20
1431.3243843203254
 40
6.0000000000000009
 50
90
 51
180
  0
LINE
  8
_1-2_
  6
CONTINUOUS
 62
    7
 10
2486.3624667427357
 20
1382.4951969239737
 11
2486.3624667427357
 21
1431.3243843203254
  0
ARC
  8
_1-2_
  6
CONTINUOUS
 62
    7
 10
2492.3624667427357
 20
1382.4951969239737
 40
6.0000000000000009
 50
180
 51
270
  0
LINE
  8
_1-2_
  6
CONTINUOUS
 62
    7
 10
2598.1303403377242
 20
1437.3243843203254
 11
2492.3624667427357
 21
1437.3243843203254
  0
ARC
  8
_1-2_
  6
CONTINUOUS
 62
    7
 10
2598.1303403377242
 20
1431.3243843203254
 40
6.0000000000000009
 50
0
 51
90
  0
LINE
  8
_1-2_
  6
CONTINUOUS
 62
    7
 10
2604.1303403377242
 20
1382.4951969239737
 11
2604.1303403377242
 21
1431.3243843203254
  0
LINE
  8
_1-2_
  6
CONTINUOUS
 62
    7
 10
2598.1303403377242
 20
1376.4951969239737
 11
2492.3624667427357
 21
1376.4951969239737
  0
ARC
  8
_1-2_
  6
CONTINUOUS
 62
    7
 10
2598.1303403377242
 20
1382.4951969239737
 40
6.0000000000000009
 50
270
 51
0
  0
LINE
  8
_1-2_
  6
CONTINUOUS
 62
    7
 10
2501.6335035221823
 20
1376.4951969239719
 11
2486.3624667427348
 21
1391.7662337034194
  0
LINE
  8
_1-2_
  6
CONTINUOUS
 62
    7
 10
2515.7756391459143
 20
1376.495196923973
 11
2486.3624667427339
 21
1405.9083693271532
  0
LINE
  8
_1-2_
  6
CONTINUOUS
 62
    7
 10
2529.9177747696267
 20
1376.4951969239755
 11
2486.3624667427357
 21
1420.0505049508665
  0
LINE
  8
_1-2_
  6
CONTINUOUS
 62
    7
 10
2604.1303403377224
 20
1387.1354450982806
 11
2553.9414011156764
 21
1437.3243843203259
  0
LINE
  8
_1-2_
  6
CONTINUOUS
 62
    7
 10
2604.1303403377224
 20
1401.2775807220046
 11
2568.0835367394043
 21
1437.3243843203222
  0
LINE
  8
_1-2_
  6
CONTINUOUS
 62
    7
 10
2604.1303403377237
 20
1415.4197163457272
 11
2582.2256723631267
 21
1437.324384320324
  0
LINE
  8
_1-2_
  6
CONTINUOUS
 62
    7
 10
2604.1303403377242
 20
1429.5618519694601
 11
2596.3678079868587
 21
1437.324384320325
  0
CIRCLE
  8
_1-2_
  6
CONTINUOUS
 62
    7
 10
2653.8152491271103
 20
1193.7754622639407
 40
20
  0
ARC
  8
_1-2_
  6
CONTINUOUS
 62
    7
 10
2653.8152491271103
 20
1193.7754622639407
 40
30
 50
270
 51
90
  0
LINE
  8
_1-2_
  6
CONTINUOUS
 62
    7
 10
2653.8152491271103
 20
1223.7754622639407
 11
2604.1303403377242
 21
1214.3674707748451
  0
LINE
  8
_1-2_
  6
CONTINUOUS
 62
    7
 10
2653.8152491271103
 20
1163.7754622639407
 11
2604.1303403377242
 21
1173.183453753036
  0
ARC
  8
_1-2_
  6
CONTINUOUS
 62
    7
 10
2492.3624667427357
 20
1218.1900559621163
 40
6.0000000000000009
 50
90
 51
180
  0
LINE
  8
_1-2_
  6
CONTINUOUS
 62
    7
 10
2486.3624667427357
 20
1169.360868565765
 11
2486.3624667427357
 21
1218.1900559621163
  0
ARC
  8
_1-2_
  6
CONTINUOUS
 62
    7
 10
2492.3624667427357
 20
1169.360868565765
 40
6.0000000000000009
 50
180
 51
270
  0
ARC
  8
_1-2_
  6
CONTINUOUS
 62
    7
 10
2598.1303403377242
 20
1218.1900559621163
 40
6.0000000000000009
 50
0
 51
90
  0
LINE
  8
_1-2_
  6
CONTINUOUS
 62
    7
 10
2604.1303403377242
 20
1169.360868565765
 11
2604.1303403377242
 21
1218.1900559621163
  0
LINE
  8
_1-2_
  6
CONTINUOUS
 62
    7
 10
2598.1303403377242
 20
1163.3608685657648
 11
2492.3624667427357
 21
1163.3608685657648
  0
ARC
  8
_1-2_
  6
CONTINUOUS
 62
    7
 10
2598.1303403377242
 20
1169.360868565765
 40
6.0000000000000009
 50
270
 51
0
  0
LINE
  8
_1-2_
  6
CONTINUOUS
 62
    7
 10
2501.6335035221823
 20
1163.3608685657628
 11
2486.3624667427348
 21
1178.6319053452103
  0
LINE
  8
_1-2_
  6
CONTINUOUS
 62
    7
 10
2515.7756391459143
 20
1163.3608685657639
 11
2486.3624667427339
 21
1192.7740409689443
  0
LINE
  8
_1-2_
  6
CONTINUOUS
 62
    7
 10
2529.9177747696267
 20
1163.3608685657664
 11
2486.3624667427357
 21
1206.9161765926574
  0
LINE
  8
_1-2_
  6
CONTINUOUS
 62
    7
 10
2604.1303403377224
 20
1188.1432523637955
 11
2568.0835367394043
 21
1224.1900559621133
  0
LINE
  8
_1-2_
  6
CONTINUOUS
 62
    7
 10
2604.1303403377237
 20
1202.2853879875183
 11
2582.2256723631267
 21
1224.1900559621149
  0
LINE
  8
_1-2_
  6
CONTINUOUS
 62
    7
 10
2604.1303403377242
 20
1216.427523611251
 11
2596.3678079868587
 21
1224.190055962116
  0
LINE
  8
_1-2_
  6
CONTINUOUS
 62
    7
 10
2321.0910033631039
 20
1421.2345403790159
 11
2484.0760779899701
 21
1634.3688687372248
  0
LINE
  8
_1-2_
  6
CONTINUOUS
 62
    7
 10
2321.0910033631039
 20
1391.9808090357324
 11
2486.8621476417111
 21
1189.9907592844888
  0
LINE
  8
_1-2_
  6
CONTINUOUS
 62
    7
 10
1767.2919431088199
 20
1180.9948130895375
 11
1874.2234890826551
 21
1180.9948130895375
  0
LINE
  8
_1-2_
  6
CONTINUOUS
 62
    7
 10
1767.2919431088199
 20
1448.3834324072141
 11
1767.2919431088199
 21
1180.9948130895375
  0
LINE
  8
_1-2_
  6
CONTINUOUS
 62
    7
 10
1874.2234890826551
 20
1448.3834324072141
 11
1874.2234890826551
 21
1180.9948130895375
  0
LINE
  8
_1-2_
  6
CONTINUOUS
 62
    7
 10
1767.2919431088199
 20
1448.3834324072141
 11
1874.2234890826551
 21
1448.3834324072141
  0
LINE
  8
_1-2_
  6
CONTINUOUS
 62
    7
 10
839.97473115760158
 20
1368.3834324072138
 11
1767.2919431088199
 21
1368.3834324072138
  0
LINE
  8
_1-2_
  6
CONTINUOUS
 62
    7
 10
1874.2234890826551
 20
1368.3834324072138
 11
2069.723398656869
 21
1368.3834324072138
  0
LINE
  8
_1-2_
  6
CONTINUOUS
 62
    7
 10
263.24373480794503
 20
1727.8697096780782
 11
839.97473115760158
 21
1727.8697096780782
  0
LINE
  8
_1-2_
  6
CONTINUOUS
 62
    7
 10
714.60159682924325
 20
1521.0040380362871
 11
839.97473115760158
 21
1521.0040380362871
  0
LINE
  8
_1-2_
  6
CONTINUOUS
 62
    7
 10
589.2284625008848
 20
1611.8995604243466
 11
839.97473115760158
 21
1611.8995604243466
  0
LINE
  8
_1-2_
  6
CONTINUOUS
 62
    7
 10
2069.7233986568663
 20
1454.6027113364532
 11
2069.7233986568663
 21
1492.7950828124067
  0
LINE
  8
_1-2_
  6
CONTINUOUS
 62
    7
 10
2069.7233986568663
 20
1492.7950828124067
 11
2069.7233986568663
 21
1540.9708705404332
  0
LINE
  8
_1-2_
  6
CONTINUOUS
 62
    7
 10
839.97473115760158
 20
1460.6972386996374
 11
839.97473115760158
 21
1746.6756798273318
  0
LINE
  8
_1-2_
  6
CONTINUOUS
 62
    7
 10
714.60159682924325
 20
1460.6972386996374
 11
714.60159682924325
 21
1527.2726947527049
  0
LINE
  8
_1-2_
  6
CONTINUOUS
 62
    7
 10
589.2284625008848
 20
1460.6972386996374
 11
589.2284625008848
 21
1636.9741872900181
  0
LINE
  8
_1-2_
  6
CONTINUOUS
 62
    7
 10
2320.469667313585
 20
1611.8995604243466
 11
2069.7233986568685
 21
1611.8995604243466
  0
TEXT
  8
_1-2_
 62
    7
 10
2526.3615331760616
 20
1683.582810838941
 40
40
 41
1
 50
0
  1
15
  0
TEXT
  8
_1-2_
 62
    7
 10
2263.0779510865091
 20
1683.582810838941
 40
40
 41
1
 50
0
  1
50
  0
TEXT
  8
_1-2_
 62
    7
 10
2178.4510854148671
 20
1567.6126615852099
 40
40
 41
1
 50
0
  1
20
  0
TEXT
  8
_1-2_
 62
    7
 10
2109.4958615342703
 20
1479.8514675553592
 40
40
 41
1
 50
0
  1
10
  0
LINE
  8
_1-2_
  6
CONTINUOUS
 62
    7
 10
2544.0599103933596
 20
1163.3608685657673
 11
2530.7328732876226
 21
1176.6879056715038
  0
LINE
  8
_1-2_
  6
CONTINUOUS
 62
    7
 10
2526.1977596237612
 20
1181.223019335366
 11
2486.8534938975699
 21
1220.5672850615565
  0
LINE
  8
_1-2_
  6
CONTINUOUS
 62
    7
 10
2558.2020460170916
 20
1163.3608685657684
 11
2544.875008911356
 21
1176.6879056715038
  0
LINE
  8
_1-2_
  6
CONTINUOUS
 62
    7
 10
2526.1977596237612
 20
1195.3651549590995
 11
2497.3728586207421
 21
1224.1900559621179
  0
LINE
  8
_1-2_
  6
CONTINUOUS
 62
    7
 10
2572.3441816408276
 20
1163.3608685657655
 11
2559.0171445350888
 21
1176.6879056715038
  0
LINE
  8
_1-2_
  6
CONTINUOUS
 62
    7
 10
2526.1977596237612
 20
1209.5072905828326
 11
2511.514994244475
 21
1224.1900559621176
  0
LINE
  8
_1-2_
  6
CONTINUOUS
 62
    7
 10
2586.4863172645614
 20
1163.3608685657653
 11
2566.1977596237602
 21
1183.649426206566
  0
LINE
  8
_1-2_
  6
CONTINUOUS
 62
    7
 10
2533.1592801588231
 20
1216.6879056715038
 11
2525.657129868212
 21
1224.1900559621147
  0
LINE
  8
_1-2_
  6
CONTINUOUS
 62
    7
 10
2600.2438753712486
 20
1163.7454460828112
 11
2566.1977596237602
 21
1197.7915618302995
  0
LINE
  8
_1-2_
  6
CONTINUOUS
 62
    7
 10
2547.3014157825555
 20
1216.6879056715038
 11
2539.7992654919444
 21
1224.1900559621158
  0
LINE
  8
_1-2_
  6
CONTINUOUS
 62
    7
 10
2604.1303403377224
 20
1174.0011167400714
 11
2566.1977596237602
 21
1211.9336974540327
  0
LINE
  8
_1-2_
  6
CONTINUOUS
 62
    7
 10
2561.4435514062893
 20
1216.6879056715038
 11
2553.9414011156764
 21
1224.1900559621167
  0
LINE
  8
_1-2_
  6
CONTINUOUS
 62
    7
 10
2544.0599103933596
 20
1376.4951969239764
 11
2532.796628585209
 21
1387.7584787321271
  0
LINE
  8
_1-2_
  6
CONTINUOUS
 62
    7
 10
2523.5664716193382
 20
1396.9886356979973
 11
2486.8534938975699
 21
1433.7016134197656
  0
LINE
  8
_1-2_
  6
CONTINUOUS
 62
    7
 10
2558.2020460170916
 20
1376.4951969239776
 11
2546.9387642089418
 21
1387.7584787321271
  0
LINE
  8
_1-2_
  6
CONTINUOUS
 62
    7
 10
2523.5664716193382
 20
1411.1307713217307
 11
2497.3728586207421
 21
1437.3243843203268
  0
LINE
  8
_1-2_
  6
CONTINUOUS
 62
    7
 10
2572.3441816408276
 20
1376.4951969239746
 11
2561.0808998326747
 21
1387.7584787321271
  0
LINE
  8
_1-2_
  6
CONTINUOUS
 62
    7
 10
2523.5664716193382
 20
1425.272906945464
 11
2511.514994244475
 21
1437.3243843203268
  0
LINE
  8
_1-2_
  6
CONTINUOUS
 62
    7
 10
2586.4863172645614
 20
1376.4951969239742
 11
2563.5664716193382
 21
1399.4150425691973
  0
LINE
  8
_1-2_
  6
CONTINUOUS
 62
    7
 10
2535.223035456409
 20
1427.7584787321271
 11
2525.657129868212
 21
1437.324384320324
  0
LINE
  8
_1-2_
  6
CONTINUOUS
 62
    7
 10
2600.2438753712486
 20
1376.8797744410199
 11
2563.5664716193382
 21
1413.5571781929311
  0
LINE
  8
_1-2_
  6
CONTINUOUS
 62
    7
 10
2549.3651710801423
 20
1427.7584787321271
 11
2539.7992654919444
 21
1437.3243843203247
  0
LINE
  8
_1-2_
  6
CONTINUOUS
 62
    7
 10
2544.0599103933596
 20
1602.6670179489786
 11
2531.129864756701
 21
1615.597063585637
  0
LINE
  8
_1-2_
  6
CONTINUOUS
 62
    7
 10
2519.8517120836832
 20
1626.8752162586543
 11
2486.8534938975699
 21
1659.8734344447676
  0
LINE
  8
_1-2_
  6
CONTINUOUS
 62
    7
 10
2558.2020460170916
 20
1602.6670179489793
 11
2545.2720003804334
 21
1615.597063585637
  0
LINE
  8
_1-2_
  6
CONTINUOUS
 62
    7
 10
2519.8517120836832
 20
1641.0173518823876
 11
2497.3728586207421
 21
1663.4962053453289
  0
LINE
  8
_1-2_
  6
CONTINUOUS
 62
    7
 10
2572.3441816408276
 20
1602.6670179489765
 11
2559.4141360041667
 21
1615.597063585637
  0
LINE
  8
_1-2_
  6
CONTINUOUS
 62
    7
 10
2519.8517120836832
 20
1655.159487506121
 11
2511.514994244475
 21
1663.4962053453289
  0
LINE
  8
_1-2_
  6
CONTINUOUS
 62
    7
 10
2586.4863172645614
 20
1602.6670179489763
 11
2559.8517120836832
 21
1629.3016231298543
  0
LINE
  8
_1-2_
  6
CONTINUOUS
 62
    7
 10
2533.556271627901
 20
1655.597063585637
 11
2525.657129868212
 21
1663.4962053453257
  0
LINE
  8
_1-2_
  6
CONTINUOUS
 62
    7
 10
2600.2438753712486
 20
1603.051595466022
 11
2559.8517120836832
 21
1643.4437587535881
  0
LINE
  8
_1-2_
  6
CONTINUOUS
 62
    7
 10
2547.6984072516343
 20
1655.597063585637
 11
2539.7992654919444
 21
1663.4962053453269
  0
TEXT
  8
_1-2_
 62
    7
 10
2525.9223192672443
 20
1176.6331724787572
 40
40
 41
1
 50
0
  1
赤
  0
TEXT
  8
_1-2_
 62
    7
 10
2519.5992023415847
 20
1615.9579477792097
 40
40
 41
1
 50
0
  1
白
  0
TEXT
  8
_1-2_
 62
    7
 10
2523.5203374069984
 20
1387.6894139053691
 40
40
 41
1
 50
0
  1
黒
  0
LINE
  8
_1-2_
  6
CONTINUOUS
 62
    7
 10
257.24373480794719
 20
1612.5583545755824
 11
293.62727869506989
 21
1648.941898462705
  0
LINE
  8
_1-2_
  6
CONTINUOUS
 62
    7
 10
296.22802455628562
 20
1651.5426443239205
 11
307.4326740299926
 21
1662.7472937976277
  0
LINE
  8
_1-2_
  6
CONTINUOUS
 62
    7
 10
261.13019977442019
 20
1602.3026839183221
 11
293.62727869506989
 21
1634.7997628389719
  0
LINE
  8
_1-2_
  6
CONTINUOUS
 62
    7
 10
310.37016018001896
 20
1651.5426443239205
 11
321.57480965372474
 21
1662.7472937976265
  0
LINE
  8
_1-2_
  6
CONTINUOUS
 62
    7
 10
274.8877578811078
 20
1601.9181064012762
 11
293.62727869506989
 21
1620.6576272152386
  0
LINE
  8
_1-2_
  6
CONTINUOUS
 62
    7
 10
324.51229580375195
 20
1651.5426443239205
 11
335.71694527745717
 21
1662.7472937976258
  0
LINE
  8
_1-2_
  6
CONTINUOUS
 62
    7
 10
289.02989350484154
 20
1601.9181064012764
 11
298.65443142748563
 21
1611.5426443239205
  0
LINE
  8
_1-2_
  6
CONTINUOUS
 62
    7
 10
333.62727869507
 20
1646.515491591505
 11
349.85908090119369
 21
1662.7472937976286
  0
LINE
  8
_1-2_
  6
CONTINUOUS
 62
    7
 10
303.17202912857732
 20
1601.9181064012794
 11
312.79656705121897
 21
1611.5426443239205
  0
LINE
  8
_1-2_
  6
CONTINUOUS
 62
    7
 10
333.62727869507
 20
1632.3733559677719
 11
364.00121652492703
 21
1662.7472937976288
  0
LINE
  8
_1-2_
  6
CONTINUOUS
 62
    7
 10
317.31416475230992
 20
1601.9181064012782
 11
326.93870267495237
 21
1611.5426443239205
  0
LINE
  8
_1-2_
  6
CONTINUOUS
 62
    7
 10
333.62727869507
 20
1618.2312203440383
 11
374.52058124809923
 21
1659.1245228970679
  0
LINE
  8
_1-2_
  6
CONTINUOUS
 62
    7
 10
257.24373480794719
 20
1386.3865335505802
 11
293.868050146455
 21
1423.0108488890883
  0
LINE
  8
_1-2_
  6
CONTINUOUS
 62
    7
 10
294.38928111964526
 20
1423.5320798622784
 11
307.4326740299926
 21
1436.5754727726257
  0
LINE
  8
_1-2_
  6
CONTINUOUS
 62
    7
 10
261.13019977442019
 20
1376.13086289332
 11
293.868050146455
 21
1408.8687132653549
  0
LINE
  8
_1-2_
  6
CONTINUOUS
 62
    7
 10
308.53141674337837
 20
1423.5320798622784
 11
321.57480965372474
 21
1436.5754727726244
  0
LINE
  8
_1-2_
  6
CONTINUOUS
 62
    7
 10
274.8877578811078
 20
1375.746285376274
 11
293.868050146455
 21
1394.7265776416216
  0
LINE
  8
_1-2_
  6
CONTINUOUS
 62
    7
 10
322.67355236711177
 20
1423.5320798622784
 11
335.71694527745717
 21
1436.5754727726237
  0
LINE
  8
_1-2_
  6
CONTINUOUS
 62
    7
 10
289.02989350484154
 20
1375.746285376274
 11
296.81568799084505
 21
1383.5320798622779
  0
LINE
  8
_1-2_
  6
CONTINUOUS
 62
    7
 10
333.86805014645506
 20
1420.5844420178883
 11
349.85908090119369
 21
1436.5754727726264
  0
LINE
  8
_1-2_
  6
CONTINUOUS
 62
    7
 10
303.17202912857732
 20
1375.7462853762768
 11
310.95782361457844
 21
1383.5320798622784
  0
LINE
  8
_1-2_
  6
CONTINUOUS
 62
    7
 10
333.86805014645506
 20
1406.4423063941549
 11
364.00121652492703
 21
1436.5754727726267
  0
LINE
  8
_1-2_
  6
CONTINUOUS
 62
    7
 10
317.31416475230992
 20
1375.7462853762761
 11
325.09995923831184
 21
1383.5320798622784
  0
LINE
  8
_1-2_
  6
CONTINUOUS
 62
    7
 10
333.86805014645506
 20
1392.3001707704216
 11
374.52058124809923
 21
1432.9527018720655
  0
LINE
  8
_1-2_
  6
CONTINUOUS
 62
    7
 10
257.24373480794719
 20
1173.2522051923713
 11
295.10630332500654
 21
1211.1147737094307
  0
LINE
  8
_1-2_
  6
CONTINUOUS
 62
    7
 10
296.60781806455066
 20
1212.6162884489745
 11
307.4326740299926
 21
1223.4411444144164
  0
LINE
  8
_1-2_
  6
CONTINUOUS
 62
    7
 10
261.13019977442019
 20
1162.9965345351109
 11
295.10630332500654
 21
1196.9726380856976
  0
LINE
  8
_1-2_
  6
CONTINUOUS
 62
    7
 10
310.74995368828382
 20
1212.6162884489745
 11
321.57480965372474
 21
1223.4411444144157
  0
LINE
  8
_1-2_
  6
CONTINUOUS
 62
    7
 10
274.8877578811078
 20
1162.6119570180651
 11
295.10630332500654
 21
1182.830502461964
  0
LINE
  8
_1-2_
  6
CONTINUOUS
 62
    7
 10
324.89208931201722
 20
1212.6162884489745
 11
335.71694527745717
 21
1223.4411444144143
  0
LINE
  8
_1-2_
  6
CONTINUOUS
 62
    7
 10
289.02989350484154
 20
1162.6119570180654
 11
299.03422493575067
 21
1172.6162884489745
  0
LINE
  8
_1-2_
  6
CONTINUOUS
 62
    7
 10
335.10630332500682
 20
1208.6883668382306
 11
349.85908090119369
 21
1223.4411444144175
  0
LINE
  8
_1-2_
  6
CONTINUOUS
 62
    7
 10
303.17202912857732
 20
1162.6119570180683
 11
313.17636055948407
 21
1172.6162884489745
  0
LINE
  8
_1-2_
  6
CONTINUOUS
 62
    7
 10
335.10630332500682
 20
1194.5462312144973
 11
364.00121652492703
 21
1223.4411444144175
  0
LINE
  8
_1-2_
  6
CONTINUOUS
 62
    7
 10
317.31416475230992
 20
1162.6119570180672
 11
327.31849618321763
 21
1172.6162884489745
  0
LINE
  8
_1-2_
  6
CONTINUOUS
 62
    7
 10
335.10630332500682
 20
1180.404095590764
 11
374.52058124809923
 21
1219.8183735138564
  0
TEXT
  8
_1-2_
 62
    7
 10
293.65512490829582
 20
1611.7045576653072
 40
40
 41
1
 50
0
  1
白
  0
TEXT
  8
_1-2_
 62
    7
 10
293.70671879073529
 20
1383.6853942232583
 40
40
 41
1
 50
0
  1
黒
  0
TEXT
  8
_1-2_
 62
    7
 10
295.00086534192951
 20
1172.6148211626353
 40
40
 41
1
 50
0
  1
赤
  0
LINE
  8
_1-2_
  6
CONTINUOUS
 62
    7
 10
2604.1303403377242
 20
1727.8697096780782
 11
2069.7233986568685
 21
1727.8697096780782
  0
LINE
  8
_1-2_
  6
CONTINUOUS
 62
    7
 10
2195.0965329852265
 20
1521.0040380362871
 11
1874.2234890826551
 21
1521.0040380362871
  0
TEXT
  8
_1-2_
 62
    7
 10
1949.2168225927132
 20
1477.4443770867183
 40
40
 41
1
 50
0
  1
30
  0
TEXT
  8
_1-2_
 62
    7
 10
562.00135671223848
 20
1686.8445982033577
 40
40
 41
1
 50
0
  1
50
  0
TEXT
  8
_1-2_
 62
    7
 10
291.75260049333281
 20
1686.8445982033577
 40
40
 41
1
 50
0
  1
15
  0
TEXT
  8
_1-2_
 62
    7
 10
688.76752586646728
 20
1571.2227076560935
 40
40
 41
1
 50
0
  1
20
  0
TEXT
  8
_1-2_
 62
    7
 10
754.24016268238756
 20
1479.2824091486314
 40
40
 41
1
 50
0
  1
10
  0
LINE
  8
_1-2_
  6
CONTINUOUS
 62
    7
 10
209.12822238388028
 20
1163.6729564123127
 11
434.79986417492512
 21
1016.3595235764917
  0
LINE
  8
_1-2_
  6
CONTINUOUS
 62
    7
 10
209.12822238388028
 20
1163.6729564123127
 11
237.63789622769039
 21
1154.3349428484132
  0
LINE
  8
_1-2_
  6
CONTINUOUS
 62
    7
 10
209.12822238388028
 20
1163.6729564123127
 11
229.14931740427883
 21
1141.3311625231868
  0
TEXT
  8
_1-2_
 62
    7
 10
437.93419253313368
 20
978.74758327798418
 40
64
 41
1
 50
0
  1
2
  0
LINE
  8
_1-2_
  6
CONTINUOUS
 62
    7
 10
647.93419253313391
 20
1388.8222101436559
 11
877.78493880179076
 21
1221.658031039178
  0
LINE
  8
_1-2_
  6
CONTINUOUS
 62
    7
 10
647.93419253313391
 20
1388.8222101436559
 11
675.93646576200172
 21
1378.0577921837364
  0
LINE
  8
_1-2_
  6
CONTINUOUS
 62
    7
 10
647.93419253313391
 20
1388.8222101436559
 11
666.80266353308662
 21
1365.4988141189783
  0
TEXT
  8
_1-2_
 62
    7
 10
1278.0647895480593
 20
1246.3408668600737
 40
64
 41
1
 50
0
  1
1
  0
LINE
  8
_1-2_
  6
CONTINUOUS
 62
    7
 10
1077.4677746226862
 20
1386.3408668600732
 11
1267.6170283540296
 21
1279.7737026809691
  0
LINE
  8
_1-2_
  6
CONTINUOUS
 62
    7
 10
1077.4677746226862
 20
1386.3408668600732
 11
1106.542381156401
 21
1378.9471360758439
  0
LINE
  8
_1-2_
  6
CONTINUOUS
 62
    7
 10
1077.4677746226862
 20
1386.3408668600732
 11
1098.9502570938055
 21
1365.4004049053301
  0
LINE
  8
_1-2_
  6
CONTINUOUS
 62
    7
 10
1864.1841925331341
 20
1212.908031039178
 11
2016.7215059659698
 21
1125.1468370093273
  0
LINE
  8
_1-2_
  6
CONTINUOUS
 62
    7
 10
1864.1841925331341
 20
1212.908031039178
 11
1893.1736368704478
 21
1205.1871426826617
  0
LINE
  8
_1-2_
  6
CONTINUOUS
 62
    7
 10
1864.1841925331341
 20
1212.908031039178
 11
1885.4293435925842
 21
1191.7268234139945
  0
LINE
  8
_0-0_
  6
CONTINUOUS
 62
    7
 10
30.037313432835447
 20
2027.3358208955226
 11
30.037313432835447
 21
38.604477611940325
  0
LINE
  8
_0-0_
  6
CONTINUOUS
 62
    7
 10
1230.0373134328354
 20
708.60447761194041
 11
30.037313432835447
 21
708.60447761194041
  0
LINE
  8
_0-0_
  6
CONTINUOUS
 62
    7
 10
1230.0373134328354
 20
708.60447761194041
 11
1230.0373134328354
 21
682.14303482587115
  0
LINE
  8
_0-0_
  6
CONTINUOUS
 62
    7
 10
1230.0373134328354
 20
682.14303482587115
 11
1230.0373134328354
 21
38.604477611940325
  0
LINE
  8
_0-0_
  6
CONTINUOUS
 62
    7
 10
1230.0373134328354
 20
584.05902306648579
 11
30.037313432835447
 21
584.05902306648579
  0
LINE
  8
_0-0_
  6
CONTINUOUS
 62
    7
 10
1230.0373134328354
 20
529.51356852103129
 11
30.037313432835447
 21
529.51356852103129
  0
LINE
  8
_0-0_
  6
CONTINUOUS
 62
    7
 10
1230.0373134328354
 20
474.96811397557678
 11
30.037313432835447
 21
474.96811397557678
  0
LINE
  8
_0-0_
  6
CONTINUOUS
 62
    7
 10
1230.0373134328354
 20
638.60447761194041
 11
30.037313432835447
 21
638.60447761194041
  0
LINE
  8
_0-0_
  6
CONTINUOUS
 62
    7
 10
1230.0373134328354
 20
420.42265943012217
 11
30.037313432835447
 21
420.42265943012217
  0
LINE
  8
_0-0_
  6
CONTINUOUS
 62
    7
 10
1230.0373134328354
 20
365.87720488466761
 11
30.037313432835447
 21
365.87720488466761
  0
LINE
  8
_0-0_
  6
CONTINUOUS
 62
    7
 10
1230.0373134328354
 20
311.33175033921316
 11
30.037313432835447
 21
311.33175033921316
  0
LINE
  8
_0-0_
  6
CONTINUOUS
 62
    7
 10
1230.0373134328354
 20
256.78629579375865
 11
30.037313432835447
 21
256.78629579375865
  0
LINE
  8
_0-0_
  6
CONTINUOUS
 62
    7
 10
1230.0373134328354
 20
202.24084124830412
 11
30.037313432835447
 21
202.24084124830412
  0
LINE
  8
_0-0_
  6
CONTINUOUS
 62
    7
 10
1230.0373134328354
 20
147.69538670284939
 11
30.037313432835447
 21
147.69538670284939
  0
LINE
  8
_0-0_
  6
CONTINUOUS
 62
    7
 10
1230.0373134328354
 20
93.149932157395057
 11
30.037313432835447
 21
93.149932157395057
  0
LINE
  8
_0-0_
  6
CONTINUOUS
 62
    7
 10
1030.0373134328352
 20
708.60447761194041
 11
1030.0373134328352
 21
38.604477611940325
  0
LINE
  8
_0-0_
  6
CONTINUOUS
 62
    7
 10
100.03731343283545
 20
708.60447761194041
 11
100.03731343283545
 21
38.604477611940325
  0
TEXT
  8
_0-0_
 62
    7
 10
55.939054726367431
 20
588.11318407960232
 40
40
 41
1
 50
0
  1
1
  0
TEXT
  8
_0-0_
 62
    7
 10
55.939054726367431
 20
534.82960199005015
 40
40
 41
1
 50
0
  1
2
  0
TEXT
  8
_0-0_
 62
    7
 10
55.939054726367431
 20
481.54601990049787
 40
40
 41
1
 50
0
  1
3
  0
TEXT
  8
_0-0_
 62
    7
 10
52.804726368158271
 20
425.12810945273668
 40
40
 41
1
 50
0
  1
4
  0
TEXT
  8
_0-0_
 62
    7
 10
52.804726368158271
 20
371.8445273631844
 40
40
 41
1
 50
0
  1
5
  0
TEXT
  8
_0-0_
 62
    7
 10
52.804726368158271
 20
318.56094527363234
 40
40
 41
1
 50
0
  1
6
  0
TEXT
  8
_0-0_
 62
    7
 10
49.670398009949309
 20
265.27736318408006
 40
40
 41
1
 50
0
  1
7
  0
TEXT
  8
_0-0_
 62
    7
 10
55.939054726367431
 20
208.85945273631873
 40
40
 41
1
 50
0
  1
8
  0
TEXT
  8
_0-0_
 62
    7
 10
55.939054726367431
 20
155.57587064676648
 40
40
 41
1
 50
0
  1
9
  0
TEXT
  8
_0-0_
 62
    7
 10
40.267412935322625
 20
102.29228855721425
 40
40
 41
1
 50
0
  1
10
  0
TEXT
  8
_0-0_
 62
    7
 10
46.536069651740547
 20
49.008706467662108
 40
40
 41
1
 50
0
  1
11
  0
TEXT
  8
_0-0_
 62
    7
 10
168.77487562189003
 20
650.79975124378143
 40
40
 41
1
 50
0
  1
名称
  0
TEXT
  8
_0-0_
 62
    7
 10
1112.2077114427852
 20
653.93407960199033
 40
40
 41
1
 50
0
  1
数
  0
TEXT
  8
_0-0_
 62
    7
 10
1266.9651741293526
 20
79.046019900497356
 40
40
 41
1
 50
0
  1
装置名称
  0
LINE
  8
_0-0_
  6
CONTINUOUS
 62
    7
 10
1870.667495854063
 20
365.87720488466761
 11
1870.667495854063
 21
147.69538670284939
  0
LINE
  8
_0-0_
  6
CONTINUOUS
 62
    7
 10
1669.1148424543942
 20
365.87720488466761
 11
1669.1148424543942
 21
147.69538670284939
  0
LINE
  8
_0-0_
  6
CONTINUOUS
 62
    7
 10
1230.0373134328354
 20
311.33175033921316
 11
2072.2201492537306
 21
311.33175033921316
  0
LINE
  8
_0-0_
  6
CONTINUOUS
 62
    7
 10
1870.667495854063
 20
256.78629579375865
 11
2072.2201492537306
 21
256.78629579375865
  0
TEXT
  8
_0-0_
 62
    7
 10
1283.3333333333328
 20
152.87686567164167
 40
40
 41
1
 50
0
  1
/  /  /
  0
TEXT
  8
_0-0_
 62
    7
 10
1492.5207296849085
 20
155.19859038142619
 40
40
 41
1
 50
0
  1
/  /  /
  0
TEXT
  8
_0-0_
 62
    7
 10
1688.9386401326694
 20
156.59162520729683
 40
40
 41
1
 50
0
  1
/  /  /
  0
TEXT
  8
_0-0_
 62
    7
 10
2400.9907083239486
 20
273.48090992226798
 40
64
 41
1
 50
0
  1
SMART DIYs
  0
TEXT
  8
_0-0_
 62
    7
 10
2273.5280217567843
 20
235.86896962376056
 40
30
 41
1
 50
0
  1
makind your idea reality.
  0
LINE
  8
_0-0_
  6
CONTINUOUS
 62
    7
 10
2292.4216099421278
 20
332.54697645965109
 11
2257.9439980018292
 21
276.12906601188979
  0
LINE
  8
_0-0_
  6
CONTINUOUS
 62
    7
 10
2328.2607417009258
 20
276.12906601188979
 11
2292.4216099421278
 21
332.54697645965109
  0
LINE
  8
_0-0_
  6
CONTINUOUS
 62
    7
 10
2331.7953526992319
 20
276.15978679737373
 11
2331.814867889886
 21
276.12906601188979
  0
LINE
  8
_0-0_
  6
CONTINUOUS
 62
    7
 10
2257.9439980018292
 20
276.12906601188979
 11
2328.2607417009258
 21
276.12906601188979
  0
LINE
  8
_0-0_
  6
CONTINUOUS
 62
    7
 10
2331.7765788858806
 20
276.12906601188979
 11
2366.2541908261792
 21
332.54697645965109
  0
LINE
  8
_0-0_
  6
CONTINUOUS
 62
    7
 10
2366.2541908261792
 20
332.54697645965109
 11
2389.4697028161836
 21
332.54697645965109
  0
LINE
  8
_0-0_
  6
CONTINUOUS
 62
    7
 10
2354.992090875885
 20
276.12906601188979
 11
2331.7953526992319
 21
276.12906601188979
  0
LINE
  8
_0-0_
  6
CONTINUOUS
 62
    7
 10
2389.4697028161836
 20
332.54697645965109
 11
2354.992090875885
 21
276.12906601188979
  0
SOLID
  8
_0-0_
  6
CONTINUOUS
 62
    7
 10
2257.9439980018292
 20
276.12906601188979
 11
2328.2607417009258
 21
276.12906601188979
 12
2292.4216099421278
 22
332.54697645965109
 13
2292.4216099421278
 23
332.54697645965109
  0
SOLID
  8
_0-0_
  6
CONTINUOUS
 62
    7
 10
2331.7765788858806
 20
276.12906601188979
 11
2366.2541908261792
 21
332.54697645965109
 12
2331.7953526992319
 22
276.12906601188979
 13
2354.992090875885
 23
276.12906601188979
  0
SOLID
  8
_0-0_
  6
CONTINUOUS
 62
    7
 10
2366.2541908261792
 20
332.54697645965109
 11
2389.4697028161836
 21
332.54697645965109
 12
2354.992090875885
 22
276.12906601188979
 13
2354.992090875885
 23
276.12906601188979
  0
LINE
  8
_0-0_
  6
CONTINUOUS
 62
    7
 10
2298.3451535903941
 20
332.54697645965109
 11
2360.3944621845876
 21
332.54697645965109
  0
LINE
  8
_0-0_
  6
CONTINUOUS
 62
    7
 10
2329.9705279929094
 20
282.76235687326857
 11
2298.3451535903941
 21
332.54697645965109
  0
LINE
  8
_0-0_
  6
CONTINUOUS
 62
    7
 10
2360.3944621845876
 20
332.54697645965109
 11
2329.9705279929094
 21
282.76235687326857
  0
SOLID
  8
_0-0_
  6
CONTINUOUS
 62
    7
 10
2298.3451535903941
 20
332.54697645965109
 11
2360.3944621845876
 21
332.54697645965109
 12
2329.9705279929094
 22
282.76235687326857
 13
2329.9705279929094
 23
282.76235687326857
  0
TEXT
  8
_0-0_
 62
    7
 10
1521.1150864334013
 20
315.96847211132297
 40
40
 41
1
 50
0
  1
確認
  0
TEXT
  8
_0-0_
 62
    7
 10
1719.6225491199689
 20
315.96847211132297
 40
40
 41
1
 50
0
  1
承認
  0
TEXT
  8
_0-0_
 62
    7
 10
469.67039800994951
 20
653.93407960199033
 40
40
 41
1
 50
0
  1
部材　　規格    長さ　　　
  0
LINE
  8
_0-0_
  6
CONTINUOUS
 62
    7
 10
388.65671641791062
 20
707.26119402985069
 11
388.65671641791062
 21
38.604477611940325
  0
LINE
  8
_0-0_
  6
CONTINUOUS
 62
    7
 10
2604.6268656716416
 20
202.24084124830412
 11
2604.6268656716416
 21
38.604477611940325
  0
LINE
  8
_0-0_
  6
CONTINUOUS
 62
    7
 10
2717.4626865671644
 20
145.05555555555571
 11
2717.4626865671644
 21
38.604477611940325
  0
TEXT
  8
_0-0_
 62
    7
 10
2638.28861174744
 20
76.349529596342848
 40
40
 41
1
 50
0
  1
頁
  0
LINE
  8
_0-0_
  6
CONTINUOUS
 62
    7
 10
1467.5621890547259
 20
450.60366377986566
 11
1467.5621890547259
 21
38.604477611940325
  0
LINE
  8
_0-0_
  6
CONTINUOUS
 62
    7
 10
2072.2201492537306
 20
450.60366377986566
 11
2072.2201492537306
 21
38.604477611940325
  0
TEXT
  8
_0-0_
 62
    7
 10
1296.204394693201
 20
318.96187273508951
 40
40
 41
1
 50
0
  1
設計
  0
TEXT
  8
_0-0_
 62
    7
 10
1243.9655887230517
 20
385.82754437688061
 40
40
 41
1
 50
0
  1
ハーネス名
  0
TEXT
  8
_0-0_
 62
    7
 10
2416.2043946932008
 20
392.09620109329853
 40
40
 41
1
 50
0
  1
会社名
  0
LINE
  8
_0-0_
  6
CONTINUOUS
 62
    7
 10
30.037313432835447
 20
2027.3358208955226
 11
2695.8899944720838
 21
2027.3358208955226
  0
LINE
  8
_0-0_
  6
CONTINUOUS
 62
    7
 10
2695.8899944720838
 20
2027.3358208955226
 11
2879.248203427308
 21
2027.3358208955226
  0
LINE
  8
_0-0_
  6
CONTINUOUS
 62
    7
 10
2879.248203427308
 20
2027.3358208955226
 11
2879.248203427308
 21
1897.1741293532334
  0
LINE
  8
_0-0_
  6
CONTINUOUS
 62
    7
 10
2879.248203427308
 20
38.604477611940325
 11
30.037313432835447
 21
38.604477611940325
  0
LINE
  8
_0-0_
  6
CONTINUOUS
 62
    7
 10
2879.248203427308
 20
1897.1741293532334
 11
2879.248203427308
 21
38.604477611940325
  0
LINE
  8
_0-0_
  6
CONTINUOUS
 62
    7
 10
1230.0373134328354
 20
450.60366377986566
 11
2879.248203427308
 21
450.60366377986566
  0
LINE
  8
_0-0_
  6
CONTINUOUS
 62
    7
 10
1230.0373134328354
 20
365.87720488466761
 11
2879.248203427308
 21
365.87720488466761
  0
LINE
  8
_0-0_
  6
CONTINUOUS
 62
    7
 10
1230.0373134328354
 20
202.24084124830412
 11
2879.248203427308
 21
202.24084124830412
  0
LINE
  8
_0-0_
  6
CONTINUOUS
 62
    7
 10
1230.0373134328354
 20
147.69538670284939
 11
2879.248203427308
 21
147.69538670284939
  0
CIRCLE
  8
_1-0_
  6
CONTINUOUS
 62
    7
 10
-790.24253731343333
 20
2721.4589552238813
 40
4.2000000000000002
  0
LINE
  8
_0-0_
  6
CONTINUOUS
 62
    7
 10
1601.8573046432616
 20
761.39795340559783
 11
1751.8573046432616
 21
761.39795340559783
  0
LINE
  8
_0-0_
  6
CONTINUOUS
 62
    7
 10
1751.8573046432616
 20
761.39795340559783
 11
1751.8573046432616
 21
701.39795340559783
  0
LINE
  8
_0-0_
  6
CONTINUOUS
 62
    7
 10
1751.8573046432616
 20
701.39795340559783
 11
1601.8573046432616
 21
701.39795340559783
  0
LINE
  8
_0-0_
  6
CONTINUOUS
 62
    7
 10
1601.8573046432616
 20
701.39795340559783
 11
1601.8573046432616
 21
761.39795340559783
  0
LINE
  8
_0-0_
  6
CONTINUOUS
 62
    7
 10
1601.8573046432616
 20
701.39795340559783
 11
1751.8573046432616
 21
701.39795340559783
  0
LINE
  8
_0-0_
  6
CONTINUOUS
 62
    7
 10
1751.8573046432616
 20
701.39795340559783
 11
1751.8573046432616
 21
641.39795340559783
  0
LINE
  8
_0-0_
  6
CONTINUOUS
 62
    7
 10
1751.8573046432616
 20
641.39795340559783
 11
1601.8573046432616
 21
641.39795340559783
  0
LINE
  8
_0-0_
  6
CONTINUOUS
 62
    7
 10
1601.8573046432616
 20
641.39795340559783
 11
1601.8573046432616
 21
701.39795340559783
  0
LINE
  8
_0-0_
  6
CONTINUOUS
 62
    7
 10
1601.8573046432616
 20
641.39795340559783
 11
1751.8573046432616
 21
641.39795340559783
  0
LINE
  8
_0-0_
  6
CONTINUOUS
 62
    7
 10
1751.8573046432616
 20
641.39795340559783
 11
1751.8573046432616
 21
581.39795340559783
  0
LINE
  8
_0-0_
  6
CONTINUOUS
 62
    7
 10
1751.8573046432616
 20
581.39795340559783
 11
1601.8573046432616
 21
581.39795340559783
  0
LINE
  8
_0-0_
  6
CONTINUOUS
 62
    7
 10
1601.8573046432616
 20
581.39795340559783
 11
1601.8573046432616
 21
641.39795340559783
  0
LINE
  8
_0-0_
  6
CONTINUOUS
 62
    7
 10
1601.8573046432616
 20
581.39795340559783
 11
1751.8573046432616
 21
581.39795340559783
  0
LINE
  8
_0-0_
  6
CONTINUOUS
 62
    7
 10
1751.8573046432616
 20
581.39795340559783
 11
1751.8573046432616
 21
521.39795340559783
  0
LINE
  8
_0-0_
  6
CONTINUOUS
 62
    7
 10
1751.8573046432616
 20
521.39795340559783
 11
1601.8573046432616
 21
521.39795340559783
  0
LINE
  8
_0-0_
  6
CONTINUOUS
 62
    7
 10
1601.8573046432616
 20
521.39795340559783
 11
1601.8573046432616
 21
581.39795340559783
  0
TEXT
  8
_0-0_
 62
    7
 10
1614.2582106455268
 20
711.19410289597158
 40
40
 41
1
 50
0
  1
Pin No.
  0
LINE
  8
_0-0_
  6
CONTINUOUS
 62
    7
 10
2481.8576585503965
 20
761.39795340559783
 11
2631.857658550397
 21
761.39795340559783
  0
LINE
  8
_0-0_
  6
CONTINUOUS
 62
    7
 10
2631.857658550397
 20
761.39795340559783
 11
2631.857658550397
 21
701.39795340559783
  0
LINE
  8
_0-0_
  6
CONTINUOUS
 62
    7
 10
2631.857658550397
 20
701.39795340559783
 11
2481.8576585503965
 21
701.39795340559783
  0
LINE
  8
_0-0_
  6
CONTINUOUS
 62
    7
 10
2481.8576585503965
 20
701.39795340559783
 11
2481.8576585503965
 21
761.39795340559783
  0
LINE
  8
_0-0_
  6
CONTINUOUS
 62
    7
 10
2481.8576585503965
 20
701.39795340559783
 11
2631.857658550397
 21
701.39795340559783
  0
LINE
  8
_0-0_
  6
CONTINUOUS
 62
    7
 10
2631.857658550397
 20
701.39795340559783
 11
2631.857658550397
 21
641.39795340559783
  0
LINE
  8
_0-0_
  6
CONTINUOUS
 62
    7
 10
2631.857658550397
 20
641.39795340559783
 11
2481.8576585503965
 21
641.39795340559783
  0
LINE
  8
_0-0_
  6
CONTINUOUS
 62
    7
 10
2481.8576585503965
 20
641.39795340559783
 11
2481.8576585503965
 21
701.39795340559783
  0
LINE
  8
_0-0_
  6
CONTINUOUS
 62
    7
 10
2481.8576585503965
 20
641.39795340559783
 11
2631.857658550397
 21
641.39795340559783
  0
LINE
  8
_0-0_
  6
CONTINUOUS
 62
    7
 10
2631.857658550397
 20
641.39795340559783
 11
2631.857658550397
 21
581.39795340559783
  0
LINE
  8
_0-0_
  6
CONTINUOUS
 62
    7
 10
2631.857658550397
 20
581.39795340559783
 11
2481.8576585503965
 21
581.39795340559783
  0
LINE
  8
_0-0_
  6
CONTINUOUS
 62
    7
 10
2481.8576585503965
 20
581.39795340559783
 11
2481.8576585503965
 21
641.39795340559783
  0
LINE
  8
_0-0_
  6
CONTINUOUS
 62
    7
 10
2481.8576585503965
 20
581.39795340559783
 11
2631.857658550397
 21
581.39795340559783
  0
LINE
  8
_0-0_
  6
CONTINUOUS
 62
    7
 10
2631.857658550397
 20
581.39795340559783
 11
2631.857658550397
 21
521.39795340559783
  0
LINE
  8
_0-0_
  6
CONTINUOUS
 62
    7
 10
2631.857658550397
 20
521.39795340559783
 11
2481.8576585503965
 21
521.39795340559783
  0
LINE
  8
_0-0_
  6
CONTINUOUS
 62
    7
 10
2481.8576585503965
 20
521.39795340559783
 11
2481.8576585503965
 21
581.39795340559783
  0
TEXT
  8
_0-0_
 62
    7
 10
2494.2585645526615
 20
711.19410289597158
 40
40
 41
1
 50
0
  1
Pin No.
  0
TEXT
  8
_1-2_
 62
    7
 10
1625.7502831257079
 20
772.23600550072831
 40
40
 41
1
 50
0
  1
R2-4S
  0
TEXT
  8
_1-2_
 62
    7
 10
2508.1172140430353
 20
767.75129428895025
 40
40
 41
1
 50
0
  1
R2-4S
  0
LINE
  8
_0-0_
  6
CONTINUOUS
 62
    7
 10
1751.8573046432616
 20
671.39795340559795
 11
2481.8576585503965
 21
671.39795340559795
  0
LINE
  8
_0-0_
  6
CONTINUOUS
 62
    7
 10
1751.8573046432616
 20
611.39795340559783
 11
2481.8576585503965
 21
611.39795340559783
  0
LINE
  8
_0-0_
  6
CONTINUOUS
 62
    7
 10
1751.8573046432616
 20
551.39795340559783
 11
2481.8576585503965
 21
551.39795340559783
  0
TEXT
  8
_1-2_
 62
    7
 10
388.96357415219467
 20
529.43329414598611
 40
40
 41
1
 50
0
  1
 R1.25-4S
  0
LINE
  8
_1-2_
  6
CONTINUOUS
 62
    7
 10
263.24373480794503
 20
1671.6259285835513
 11
263.24373480794503
 21
1727.8697096780782
  0
LINE
  8
_1-2_
  6
CONTINUOUS
 62
    7
 10
263.24373480794503
 20
1724.8822197055492
 11
263.24373480794503
 21
1727.8697096780782
  0
LINE
  8
_1-2_
  6
CONTINUOUS
 62
    7
 10
375.01160840293335
 20
1671.6259285835513
 11
375.01160840293335
 21
1787.4219484840485
  0
LINE
  8
_1-2_
  6
CONTINUOUS
 62
    7
 10
2604.1303403377242
 20
1787.4219484840485
 11
2603.0847419711145
 21
1787.4219484840485
  0
LINE
  8
_1-2_
  6
CONTINUOUS
 62
    7
 10
2603.0847419711145
 20
1787.4219484840485
 11
2600.4271353270974
 21
1787.4219484840485
  0
LINE
  8
_1-2_
  6
CONTINUOUS
 62
    7
 10
2604.1303403377242
 20
1677.4302403580123
 11
2604.1303403377242
 21
1787.4219484840485
  0
LINE
  8
_1-2_
  6
CONTINUOUS
 62
    7
 10
2069.7233986568685
 20
1460.6972386996374
 11
2069.7233986568685
 21
1727.8697096780782
  0
LINE
  8
_1-2_
  6
CONTINUOUS
 62
    7
 10
2486.3624667427357
 20
1677.4302403580123
 11
2486.3624667427357
 21
1727.8697096780782
  0
LINE
  8
_1-2_
  6
CONTINUOUS
 62
    7
 10
2320.469667313585
 20
1460.6972386996374
 11
2320.469667313585
 21
1611.8995604243466
  0
LINE
  8
_1-2_
  6
CONTINUOUS
 62
    7
 10
2195.0965329852265
 20
1460.6972386996374
 11
2195.0965329852265
 21
1521.0040380362871
  0
LINE
  8
_1-2_
  6
CONTINUOUS
 62
    7
 10
1874.2234890826551
 20
1454.6027113364532
 11
1874.2234890826551
 21
1521.0040380362871
  0
TEXT
  8
_0-0_
 62
    7
 10
1510.5646359583952
 20
55.807578008915243
 40
64
 41
1
 50
0
  1
FABOOL Laser Co2
  0
TEXT
  8
_0-0_
 62
    7
 10
2170.8529645772787
 20
55.318919791522603
 40
70
 41
1
 50
0
  1
2018/05/06
  0
TEXT
  8
_0-0_
 62
    7
 10
2290.8259251802765
 20
154.70773855156676
 40
40
 41
1
 50
0
  1
日付
  0
TEXT
  8
_1-2_
 62
    7
 10
1953.515812958165
 20
256.97889945278553
 40
40
 41
1
 50
0
  1
2
  0
TEXT
  8
_1-2_
 62
    7
 10
388.65671641791062
 20
474.96811397557667
 40
40
 41
1
 50
0
  1
 8Φ 20mmCUT
  0
TEXT
  8
_1-2_
 62
    7
 10
388.65671641791062
 20
420.42265943012217
 40
40
 41
1
 50
0
  1
 テプラ9mm[AC-DC]
  0
TEXT
  8
_1-2_
 62
    7
 10
137.85699460356986
 20
591.33175033921304
 40
40
 41
1
 50
0
  1
ケーブル
  0
TEXT
  8
_1-2_
 62
    7
 10
137.85699460356986
 20
427.69538670284942
 40
40
 41
1
 50
0
  1
表示
  0
TEXT
  8
_1-2_
 62
    7
 10
877.7849388017903
 20
1190.3147474570885
 40
64
 41
1
 50
0
  1
3
  0
TEXT
  8
_1-2_
 62
    7
 10
2016.7215059659698
 20
1095.8931056660435
 40
64
 41
1
 50
0
  1
4
  0
TEXT
  8
_1-2_
 62
    7
 10
1164.6953937592868
 20
1738.4598811292717
 40
90
 41
1
 50
0
  1
850±15
  0
LINE
  8
_1-2_
  6
CONTINUOUS
 62
    7
 10
375.01160840293335
 20
1787.4219484840485
 11
1135.5460714450437
 21
1787.4219484840485
  0
LINE
  8
_1-2_
  6
CONTINUOUS
 62
    7
 10
2600.4271353270974
 20
1787.4219484840485
 11
1506.2496829020797
 21
1787.4219484840485
  0
TEXT
  8
_1-2_
 62
    7
 10
1120.0373134328356
 20
591.33175033921304
 40
40
 41
1
 50
0
  1
1
  0
TEXT
  8
_1-2_
 62
    7
 10
1120.0373134328356
 20
536.78629579375865
 40
40
 41
1
 50
0
  1
6
  0
TEXT
  8
_1-2_
 62
    7
 10
1120.0373134328356
 20
482.24084124830415
 40
40
 41
1
 50
0
  1
6
  0
TEXT
  8
_1-2_
 62
    7
 10
1120.0373134328356
 20
427.69538670284942
 40
40
 41
1
 50
0
  1
1
  0
TEXT
  8
_0-0_
 62
    7
 10
2728.4554038682877
 20
1613.0816116471515
 40
40
 41
1
 50
0
  1
White
  0
TEXT
  8
_0-0_
 62
    7
 10
2728.4554038682877
 20
1386.9097906221491
 40
40
 41
1
 50
0
  1
Black
  0
TEXT
  8
_0-0_
 62
    7
 10
2748.4554038682877
 20
1173.7754622639404
 40
40
 41
1
 50
0
  1
Red
  0
TEXT
  8
_0-0_
 62
    7
 10
55.890093860989055
 20
1613.0816116471515
 40
40
 41
1
 50
0
  1
White
  0
TEXT
  8
_0-0_
 62
    7
 10
55.890093860989055
 20
1386.9097906221491
 40
40
 41
1
 50
0
  1
Black
  0
TEXT
  8
_0-0_
 62
    7
 10
75.890093860989083
 20
1173.7754622639404
 40
40
 41
1
 50
0
  1
Red
  0
TEXT
  8
_1-2_
 62
    7
 10
2086.8574815968291
 20
671.39795340559795
 40
40
 41
1
 50
0
  1
White
  0
TEXT
  8
_1-2_
 62
    7
 10
2086.8574815968291
 20
611.39795340559783
 40
40
 41
1
 50
0
  1
Black
  0
TEXT
  8
_1-2_
 62
    7
 10
2106.8574815968291
 20
551.39795340559783
 40
40
 41
1
 50
0
  1
Red
  0
TEXT
  8
_0-0_
 62
    7
 10
1491.5501187675891
 20
849.57670166274647
 40
35
 41
1
 50
0
  1
Switching Power Supply
  0
TEXT
  8
_0-0_
 62
    7
 10
2438.4243404363315
 20
849.57670166274647
 40
35
 41
1
 50
0
  1
Terminal block
  0
TEXT
  8
_1-2_
 62
    7
 10
1991.9549830124581
 20
770.41409157094336
 40
40
 41
1
 50
0
  1
VCTF AWG16 3芯
  0
TEXT
  8
_1-2_
 62
    7
 10
390.30577576443852
 20
587.10475651189131
 40
40
 41
1
 50
0
  1
 VCTF AWG16 3芯
  0
TEXT
  8
_0-0_
 62
    7
 10
1666.8573046432616
 20
651.39795340559783
 40
40
 41
1
 50
0
  1
1
  0
TEXT
  8
_0-0_
 62
    7
 10
1666.8573046432616
 20
591.39795340559783
 40
40
 41
1
 50
0
  1
2
  0
TEXT
  8
_0-0_
 62
    7
 10
1666.8573046432616
 20
531.39795340559795
 40
40
 41
1
 50
0
  1
3
  0
TEXT
  8
_0-0_
 62
    7
 10
2546.8576585503965
 20
651.39795340559783
 40
40
 41
1
 50
0
  1
1
  0
TEXT
  8
_0-0_
 62
    7
 10
2546.8576585503965
 20
591.39795340559783
 40
40
 41
1
 50
0
  1
2
  0
TEXT
  8
_0-0_
 62
    7
 10
2546.8576585503965
 20
531.39795340559795
 40
40
 41
1
 50
0
  1
3
  0
TEXT
  8
_0-0_
 62
    7
 10
1931.0945273631837
 20
320.04104477611918
 40
40
 41
1
 50
0
  1
Rev
  0
TEXT
  8
_0-0_
 62
    7
 10
1931.7974263179744
 20
210.06973848069751
 40
40
 41
1
 50
0
  1
Ver.
  0
TEXT
  8
_0-0_
 62
    7
 10
1941.4438225538968
 20
154.96811397557661
 40
40
 41
1
 50
0
  1
5.0
  0
TEXT
  8
_0-0_
 62
    7
 10
1596.1828358208954
 20
389.00000000000011
 40
35
 41
1
 50
0
  1
AC-Laser Cable_ver.5.0
  0
TEXT
  8
_1-2_
 62
    7
 10
1804.5342408099252
 20
1422.3017042571832
 40
35
 41
1
 50
-90
  1
AC-DC Ver.5.0
  0
ENDSEC
  0
EOF
