  0
SECTION
  2
HEADER
  9
$ACADVER
  1
AC1009
  9
$INSBASE
 10
0
 20
0
 30
0
  9
$EXTMIN
 10
0
 20
0
  9
$EXTMAX
 10
2940
 20
2079
  9
$LIMMIN
 10
0
 20
0
  9
$LIMMAX
 10
2940
 20
2079
  9
$LTSCALE
 40
7
  0
ENDSEC
  0
SECTION
  2
TABLES
  0
TABLE
  2
LTYPE
 70
     9
  0
LTYPE
  2
CONTINUOUS
 70
    64
  3
実線
 72
    65
 73
     0
 40
0.0
  0
LTYPE
  2
DASHED1
 70
    64
  3
--  --  --  --  --  --  --  --  
 72
    65
 73
     2
 40
2.5
 49
1.25
 49
-1.25
  0
LTYPE
  2
DASHED2
 70
    64
  3
----    ----    ----    ----    
 72
    65
 73
     2
 40
5.0
 49
2.5
 49
-2.5
  0
LTYPE
  2
DASHED3
 70
    64
  3
------  ------  ------  ------  
 72
    65
 73
     2
 40
5.0
 49
3.75
 49
-1.25
  0
LTYPE
  2
CENTER1
 70
    64
  3
----- - ----- - ----- - ----- - 
 72
    65
 73
     4
 40
10.0
 49
6.25
 49
-1.25
 49
1.25
 49
-1.25
  0
LTYPE
  2
CENTER2
 70
    64
  3
----------  --  ----------  --  
 72
    65
 73
     4
 40
20.0
 49
12.5
 49
-2.5
 49
2.5
 49
-2.5
  0
LTYPE
  2
PHANTOM1
 70
    64
  3
--- - - --- - - --- - - --- - - 
 72
    65
 73
     6
 40
10.0
 49
3.25
 49
-1.25
 49
1.25
 49
-1.25
 49
1.25
 49
-1.25
  0
LTYPE
  2
PHANTOM2
 70
    64
  3
--------  -  -  --------  -  -  
 72
    65
 73
     6
 40
20.0
 49
10.0
 49
-2.5
 49
1.25
 49
-2.5
 49
1.25
 49
-2.5
  0
LTYPE
  2
DOT
 70
    64
  3
-   -   -   -   -   -   -   -   
 72
    65
 73
     2
 40
2.5
 49
0.625
 49
-1.875
  0
LTYPE
  2
DUMMY
 70
    64
  3
ダミー
 72
    65
 73
     0
 40
0.0
  0
LTYPE
  2
RAND1
 70
    64
  3
ランダム線1
 72
    65
 73
     4
 40
10.0
 49
1.0
 49
-2.0
 49
3.0
 49
-4.0
  0
LTYPE
  2
RAND2
 70
    64
  3
ランダム線2
 72
    65
 73
     4
 40
14.0
 49
2.0
 49
-3.0
 49
4.0
 49
-5.0
  0
LTYPE
  2
RAND3
 70
    64
  3
ランダム線3
 72
    65
 73
     4
 40
18.0
 49
3.0
 49
-4.0
 49
5.0
 49
-6.0
  0
LTYPE
  2
RAND4
 70
    64
  3
ランダム線4
 72
    65
 73
     4
 40
22.0
 49
4.0
 49
-5.0
 49
6.0
 49
-7.0
  0
LTYPE
  2
RAND5
 70
    64
  3
ランダム線5
 72
    65
 73
     4
 40
26.0
 49
5.0
 49
-6.0
 49
7.0
 49
-8.0
  0
LTYPE
  2
LONG1
 70
    64
  3
----------  --  ----------  --  
 72
    65
 73
     4
 40
40.0
 49
32.5
 49
-2.5
 49
2.5
 49
-2.5
  0
LTYPE
  2
LONG2
 70
    64
  3
--------  -  -  --------  -  -  
 72
    65
 73
     6
 40
40.0
 49
30.0
 49
-2.5
 49
1.25
 49
-2.5
 49
1.25
 49
-2.5
  0
LTYPE
  2
LONG3
 70
    64
  3
+++++++++++++++..+++++++++++++++
 72
    65
 73
     2
 40
40.0
 49
37.5
 49
-2.5
  0
LTYPE
  2
LONG4
 70
    64
  3
+++++++++++++++..+++++++++++++++
 72
    65
 73
     2
 40
80.0
 49
75.0
 49
-5.0
  0
LTYPE
  2
LONG5
 70
    64
  3
----------  --  ----------  --  
 72
    65
 73
     4
 40
60.0
 49
37.5
 49
-7.5
 49
7.5
 49
-7.5
  0
LTYPE
  2
dashed
 70
   64
  3
-------   -------------   ------
 72
   65
 73
    2
 40
7.5
 49
6
 49
-1.5
  0
LTYPE
  2
dashed_spaced
 70
   64
  3
----        --------        ----
 72
   65
 73
    2
 40
12
 49
6
 49
-6
  0
LTYPE
  2
long_dashed_dotted
 70
   64
  3
------------- --- --------------
 72
   65
 73
    4
 40
15.25
 49
12
 49
-1.5
 49
0.25
 49
-1.5
  0
LTYPE
  2
long_dashed_double-dotted
 70
   64
  3
----------- --- --- ------------
 72
   65
 73
    6
 40
17
 49
12
 49
-1.5
 49
0.25
 49
-1.5
 49
0.25
 49
-1.5
  0
LTYPE
  2
long_dashed_triplicate-dotted
 70
   64
  3
--------- --- --- --- ----------
 72
   65
 73
    8
 40
18.75
 49
12
 49
-1.5
 49
0.25
 49
-1.5
 49
0.25
 49
-1.5
 49
0.25
 49
-1.5
  0
LTYPE
  2
dotted
 70
   64
  3
   -       -       -       -    
 72
   65
 73
    2
 40
1.75
 49
0.25
 49
-1.5
  0
LTYPE
  2
chain
 70
   64
  3
-------------- -- --------------
 72
   65
 73
    4
 40
18.5
 49
12
 49
-1.5
 49
3.5
 49
-1.5
  0
LTYPE
  2
chain_double_dash
 70
   64
  3
------------ -- -- -------------
 72
   65
 73
    6
 40
23.5
 49
12
 49
-1.5
 49
3.5
 49
-1.5
 49
3.5
 49
-1.5
  0
LTYPE
  2
dashed_dotted
 70
   64
  3
-----------     -     ----------
 72
   65
 73
    4
 40
9.25
 49
6
 49
-1.5
 49
0.25
 49
-1.5
  0
LTYPE
  2
double-dashed_dotted
 70
   64
  3
------   -----------   -   -----
 72
   65
 73
    6
 40
16.75
 49
6
 49
-1.5
 49
6
 49
-1.5
 49
0.25
 49
-1.5
  0
LTYPE
  2
dashed_double-dotted
 70
   64
  3
---------    -    -    ---------
 72
   65
 73
    6
 40
11
 49
6
 49
-1.5
 49
0.25
 49
-1.5
 49
0.25
 49
-1.5
  0
LTYPE
  2
double-dashed_double-dotted
 70
   64
  3
-----   ---------   -   -   ----
 72
   65
 73
    8
 40
18.5
 49
6
 49
-1.5
 49
6
 49
-1.5
 49
0.25
 49
-1.5
 49
0.25
 49
-1.5
  0
LTYPE
  2
dashed_triplicate-dotted
 70
   64
  3
-------    -    -    -    ------
 72
   65
 73
    8
 40
12.75
 49
6
 49
-1.5
 49
0.25
 49
-1.5
 49
0.25
 49
-1.5
 49
0.25
 49
-1.5
  0
LTYPE
  2
double-dashed_triplicate-dotted
 70
   64
  3
-----  ---------  -  -  -  -----
 72
   65
 73
   10
 40
20.25
 49
6
 49
-1.5
 49
6
 49
-1.5
 49
0.25
 49
-1.5
 49
0.25
 49
-1.5
 49
0.25
 49
-1.5
  0
LTYPE
  2
undefined
 70
   64
  3
--------------------------------
 72
   65
 73
    0
 40
0
  0
LTYPE
  2
_
 70
   64
  3
                                
 72
   65
 73
    0
 40
0
  0
LTYPE
  2
__18
 70
   64
  3
                                
 72
   65
 73
    0
 40
0
  0
LTYPE
  2
__19
 70
   64
  3
                                
 72
   65
 73
    0
 40
0
  0
LTYPE
  2
__20
 70
   64
  3
                                
 72
   65
 73
    0
 40
0
  0
LTYPE
  2
__21
 70
   64
  3
                                
 72
   65
 73
    0
 40
0
  0
LTYPE
  2
__22
 70
   64
  3
                                
 72
   65
 73
    0
 40
0
  0
LTYPE
  2
__23
 70
   64
  3
                                
 72
   65
 73
    0
 40
0
  0
LTYPE
  2
__24
 70
   64
  3
                                
 72
   65
 73
    0
 40
0
  0
LTYPE
  2
__25
 70
   64
  3
                                
 72
   65
 73
    0
 40
0
  0
LTYPE
  2
__26
 70
   64
  3
                                
 72
   65
 73
    0
 40
0
  0
LTYPE
  2
__27
 70
   64
  3
                                
 72
   65
 73
    0
 40
0
  0
LTYPE
  2
__28
 70
   64
  3
                                
 72
   65
 73
    0
 40
0
  0
LTYPE
  2
__29
 70
   64
  3
                                
 72
   65
 73
    0
 40
0
  0
LTYPE
  2
__30
 70
   64
  3
                                
 72
   65
 73
    0
 40
0
  0
LTYPE
  2
__31
 70
   64
  3
                                
 72
   65
 73
    0
 40
0
  0
LTYPE
  2
__32
 70
   64
  3
                                
 72
   65
 73
    0
 40
0
  0
ENDTAB
  0
TABLE
  2
STYLE
  5
3
100
AcDbSymbolTable
 70
     1
  0
STYLE
  5
10
100
AcDbSymbolTableRecord
100
AcDbTextStyleTableRecord
  2
STANDARD
 70
     0
 40
0.0
 41
1.0
 50
0.0
 71
     0
 42
0.2
  3
txt
  4
bigfont.shx
  0
STYLE
  5
26
100
AcDbSymbolTableRecord
100
AcDbTextStyleTableRecord
  2
TATEGAKI
 70
    68
 40
0.0
 41
1.0
 50
0.0
 71
     0
 42
1.0
  3
txt
  4
bigfont.shx
  0
ENDTAB
  0
TABLE
  2
LAYER
 70
    3
  0
LAYER
  2
_0-0_
 70
   64
 62
    7
  6
CONTINUOUS
  0
LAYER
  2
_1-0_
 70
   64
 62
    7
  6
CONTINUOUS
  0
LAYER
  2
ADD_LINE
 70
   64
 62
    7
  6
CONTINUOUS
  0
ENDTAB
  0
ENDSEC
  0
SECTION
  2
BLOCKS
  0
ENDSEC
  0
SECTION
  2
ENTITIES
  0
LINE
  8
_1-0_
  6
CONTINUOUS
 62
    7
 10
292.44028336585626
 20
1417.2587079262421
 11
307.01531698241064
 21
1417.2587079262421
  0
LINE
  8
_1-0_
  6
CONTINUOUS
 62
    7
 10
2604.0921393198578
 20
1229.6298961444882
 11
2498.3242657248688
 21
1229.6298961444882
  0
LINE
  8
_0-0_
  6
CONTINUOUS
 62
    7
 10
30.037313432835447
 20
2027.3358208955226
 11
30.037313432835447
 21
38.604477611940325
  0
LINE
  8
_0-0_
  6
CONTINUOUS
 62
    7
 10
1230.0373134328354
 20
708.60447761194041
 11
30.037313432835447
 21
708.60447761194041
  0
LINE
  8
_0-0_
  6
CONTINUOUS
 62
    7
 10
1230.0373134328354
 20
708.60447761194041
 11
1230.0373134328354
 21
682.14303482587115
  0
LINE
  8
_0-0_
  6
CONTINUOUS
 62
    7
 10
1230.0373134328354
 20
682.14303482587115
 11
1230.0373134328354
 21
38.604477611940325
  0
LINE
  8
_0-0_
  6
CONTINUOUS
 62
    7
 10
1230.0373134328354
 20
584.05902306648579
 11
30.037313432835447
 21
584.05902306648579
  0
LINE
  8
_0-0_
  6
CONTINUOUS
 62
    7
 10
1230.0373134328354
 20
529.51356852103129
 11
30.037313432835447
 21
529.51356852103129
  0
LINE
  8
_0-0_
  6
CONTINUOUS
 62
    7
 10
1230.0373134328354
 20
474.96811397557678
 11
30.037313432835447
 21
474.96811397557678
  0
LINE
  8
_0-0_
  6
CONTINUOUS
 62
    7
 10
1230.0373134328354
 20
638.60447761194041
 11
30.037313432835447
 21
638.60447761194041
  0
LINE
  8
_0-0_
  6
CONTINUOUS
 62
    7
 10
1230.0373134328354
 20
420.42265943012217
 11
30.037313432835447
 21
420.42265943012217
  0
LINE
  8
_0-0_
  6
CONTINUOUS
 62
    7
 10
1230.0373134328354
 20
365.87720488466761
 11
30.037313432835447
 21
365.87720488466761
  0
LINE
  8
_0-0_
  6
CONTINUOUS
 62
    7
 10
1230.0373134328354
 20
311.33175033921316
 11
30.037313432835447
 21
311.33175033921316
  0
LINE
  8
_0-0_
  6
CONTINUOUS
 62
    7
 10
1230.0373134328354
 20
256.78629579375865
 11
30.037313432835447
 21
256.78629579375865
  0
LINE
  8
_0-0_
  6
CONTINUOUS
 62
    7
 10
1230.0373134328354
 20
202.24084124830412
 11
30.037313432835447
 21
202.24084124830412
  0
LINE
  8
_0-0_
  6
CONTINUOUS
 62
    7
 10
1230.0373134328354
 20
147.69538670284939
 11
30.037313432835447
 21
147.69538670284939
  0
LINE
  8
_0-0_
  6
CONTINUOUS
 62
    7
 10
1230.0373134328354
 20
93.149932157395057
 11
30.037313432835447
 21
93.149932157395057
  0
LINE
  8
_0-0_
  6
CONTINUOUS
 62
    7
 10
1030.0373134328352
 20
708.60447761194041
 11
1030.0373134328352
 21
38.604477611940325
  0
LINE
  8
_0-0_
  6
CONTINUOUS
 62
    7
 10
100.03731343283545
 20
708.60447761194041
 11
100.03731343283545
 21
38.604477611940325
  0
TEXT
  8
_0-0_
 62
    7
 10
55.939054726367431
 20
588.11318407960232
 40
40
 41
1
 50
0
  1
1
  0
TEXT
  8
_0-0_
 62
    7
 10
55.939054726367431
 20
534.82960199005015
 40
40
 41
1
 50
0
  1
2
  0
TEXT
  8
_0-0_
 62
    7
 10
55.939054726367431
 20
481.54601990049787
 40
40
 41
1
 50
0
  1
3
  0
TEXT
  8
_0-0_
 62
    7
 10
52.804726368158271
 20
425.12810945273668
 40
40
 41
1
 50
0
  1
4
  0
TEXT
  8
_0-0_
 62
    7
 10
52.804726368158271
 20
371.8445273631844
 40
40
 41
1
 50
0
  1
5
  0
TEXT
  8
_0-0_
 62
    7
 10
52.804726368158271
 20
318.56094527363234
 40
40
 41
1
 50
0
  1
6
  0
TEXT
  8
_0-0_
 62
    7
 10
49.670398009949309
 20
265.27736318408006
 40
40
 41
1
 50
0
  1
7
  0
TEXT
  8
_0-0_
 62
    7
 10
55.939054726367431
 20
208.85945273631873
 40
40
 41
1
 50
0
  1
8
  0
TEXT
  8
_0-0_
 62
    7
 10
55.939054726367431
 20
155.57587064676648
 40
40
 41
1
 50
0
  1
9
  0
TEXT
  8
_0-0_
 62
    7
 10
40.267412935322625
 20
102.29228855721425
 40
40
 41
1
 50
0
  1
10
  0
TEXT
  8
_0-0_
 62
    7
 10
46.536069651740547
 20
49.008706467662108
 40
40
 41
1
 50
0
  1
11
  0
TEXT
  8
_0-0_
 62
    7
 10
168.77487562189003
 20
650.79975124378143
 40
40
 41
1
 50
0
  1
名称
  0
TEXT
  8
_0-0_
 62
    7
 10
1112.2077114427852
 20
653.93407960199033
 40
40
 41
1
 50
0
  1
数
  0
TEXT
  8
_0-0_
 62
    7
 10
1266.9651741293526
 20
79.046019900497356
 40
40
 41
1
 50
0
  1
装置名称
  0
LINE
  8
_0-0_
  6
CONTINUOUS
 62
    7
 10
1870.667495854063
 20
365.87720488466761
 11
1870.667495854063
 21
147.69538670284939
  0
LINE
  8
_0-0_
  6
CONTINUOUS
 62
    7
 10
1669.1148424543942
 20
365.87720488466761
 11
1669.1148424543942
 21
147.69538670284939
  0
LINE
  8
_0-0_
  6
CONTINUOUS
 62
    7
 10
1230.0373134328354
 20
311.33175033921316
 11
2072.2201492537306
 21
311.33175033921316
  0
TEXT
  8
_0-0_
 62
    7
 10
1931.0945273631837
 20
320.04104477611918
 40
40
 41
1
 50
0
  1
Rev
  0
LINE
  8
_0-0_
  6
CONTINUOUS
 62
    7
 10
1870.667495854063
 20
256.78629579375865
 11
2072.2201492537306
 21
256.78629579375865
  0
TEXT
  8
_0-0_
 62
    7
 10
1283.3333333333328
 20
152.87686567164167
 40
40
 41
1
 50
0
  1
/  /  /
  0
TEXT
  8
_0-0_
 62
    7
 10
1492.5207296849085
 20
155.19859038142619
 40
40
 41
1
 50
0
  1
/  /  /
  0
TEXT
  8
_0-0_
 62
    7
 10
1688.9386401326694
 20
156.59162520729683
 40
40
 41
1
 50
0
  1
/  /  /
  0
TEXT
  8
_0-0_
 62
    7
 10
2400.9907083239486
 20
273.48090992226798
 40
64
 41
1
 50
0
  1
SMART DIYs
  0
TEXT
  8
_0-0_
 62
    7
 10
2273.5280217567843
 20
235.86896962376056
 40
30
 41
1
 50
0
  1
makind your idea reality.
  0
LINE
  8
_0-0_
  6
CONTINUOUS
 62
    7
 10
2292.4216099421278
 20
332.54697645965109
 11
2257.9439980018292
 21
276.12906601188979
  0
LINE
  8
_0-0_
  6
CONTINUOUS
 62
    7
 10
2328.2607417009258
 20
276.12906601188979
 11
2292.4216099421278
 21
332.54697645965109
  0
LINE
  8
_0-0_
  6
CONTINUOUS
 62
    7
 10
2331.7953526992319
 20
276.15978679737373
 11
2331.814867889886
 21
276.12906601188979
  0
LINE
  8
_0-0_
  6
CONTINUOUS
 62
    7
 10
2257.9439980018292
 20
276.12906601188979
 11
2328.2607417009258
 21
276.12906601188979
  0
LINE
  8
_0-0_
  6
CONTINUOUS
 62
    7
 10
2331.7765788858806
 20
276.12906601188979
 11
2366.2541908261792
 21
332.54697645965109
  0
LINE
  8
_0-0_
  6
CONTINUOUS
 62
    7
 10
2366.2541908261792
 20
332.54697645965109
 11
2389.4697028161836
 21
332.54697645965109
  0
LINE
  8
_0-0_
  6
CONTINUOUS
 62
    7
 10
2354.992090875885
 20
276.12906601188979
 11
2331.7953526992319
 21
276.12906601188979
  0
LINE
  8
_0-0_
  6
CONTINUOUS
 62
    7
 10
2389.4697028161836
 20
332.54697645965109
 11
2354.992090875885
 21
276.12906601188979
  0
SOLID
  8
_0-0_
  6
CONTINUOUS
 62
    7
 10
2257.9439980018292
 20
276.12906601188979
 11
2328.2607417009258
 21
276.12906601188979
 12
2292.4216099421278
 22
332.54697645965109
 13
2292.4216099421278
 23
332.54697645965109
  0
SOLID
  8
_0-0_
  6
CONTINUOUS
 62
    7
 10
2331.7765788858806
 20
276.12906601188979
 11
2366.2541908261792
 21
332.54697645965109
 12
2331.7953526992319
 22
276.12906601188979
 13
2354.992090875885
 23
276.12906601188979
  0
SOLID
  8
_0-0_
  6
CONTINUOUS
 62
    7
 10
2366.2541908261792
 20
332.54697645965109
 11
2389.4697028161836
 21
332.54697645965109
 12
2354.992090875885
 22
276.12906601188979
 13
2354.992090875885
 23
276.12906601188979
  0
LINE
  8
_0-0_
  6
CONTINUOUS
 62
    7
 10
2298.3451535903941
 20
332.54697645965109
 11
2360.3944621845876
 21
332.54697645965109
  0
LINE
  8
_0-0_
  6
CONTINUOUS
 62
    7
 10
2329.9705279929094
 20
282.76235687326857
 11
2298.3451535903941
 21
332.54697645965109
  0
LINE
  8
_0-0_
  6
CONTINUOUS
 62
    7
 10
2360.3944621845876
 20
332.54697645965109
 11
2329.9705279929094
 21
282.76235687326857
  0
SOLID
  8
_0-0_
  6
CONTINUOUS
 62
    7
 10
2298.3451535903941
 20
332.54697645965109
 11
2360.3944621845876
 21
332.54697645965109
 12
2329.9705279929094
 22
282.76235687326857
 13
2329.9705279929094
 23
282.76235687326857
  0
TEXT
  8
_0-0_
 62
    7
 10
1521.1150864334013
 20
315.96847211132297
 40
40
 41
1
 50
0
  1
確認
  0
TEXT
  8
_0-0_
 62
    7
 10
1719.6225491199689
 20
315.96847211132297
 40
40
 41
1
 50
0
  1
承認
  0
CIRCLE
  8
_1-0_
  6
CONTINUOUS
 62
    7
 10
-790.24253731343333
 20
2721.4589552238813
 40
4.2000000000000002
  0
LINE
  8
_1-0_
  6
CONTINUOUS
 62
    7
 10
845.93653013973494
 20
1453.8232725895859
 11
2075.6851976389999
 21
1453.8232725895859
  0
LINE
  8
_1-0_
  6
CONTINUOUS
 62
    7
 10
845.93653013973494
 20
1453.8232725895859
 11
845.93653013973494
 21
1373.8232725895859
  0
LINE
  8
_1-0_
  6
CONTINUOUS
 62
    7
 10
595.19026148301828
 20
1440.1734660666448
 11
595.19026148301828
 21
1387.4730791125269
  0
LINE
  8
_1-0_
  6
CONTINUOUS
 62
    7
 10
720.56339581137661
 20
1440.1734660666448
 11
595.19026148301828
 21
1440.1734660666448
  0
LINE
  8
_1-0_
  6
CONTINUOUS
 62
    7
 10
720.56339581137661
 20
1387.4730791125269
 11
595.19026148301828
 21
1387.4730791125269
  0
LINE
  8
_1-0_
  6
CONTINUOUS
 62
    7
 10
720.56339581137661
 20
1453.8232725895859
 11
720.56339581137661
 21
1440.1734660666448
  0
LINE
  8
_1-0_
  6
CONTINUOUS
 62
    7
 10
720.56339581137661
 20
1387.4730791125269
 11
720.56339581137661
 21
1373.8232725895859
  0
LINE
  8
_1-0_
  6
CONTINUOUS
 62
    7
 10
839.10774339891987
 20
1373.8232725895873
 11
845.93653013973358
 21
1380.652059330401
  0
LINE
  8
_1-0_
  6
CONTINUOUS
 62
    7
 10
824.96560777518789
 20
1373.8232725895884
 11
845.93653013973244
 21
1394.7941949541332
  0
LINE
  8
_1-0_
  6
CONTINUOUS
 62
    7
 10
810.82347215145023
 20
1373.8232725895841
 11
845.93653013973653
 21
1408.9363305778706
  0
LINE
  8
_1-0_
  6
CONTINUOUS
 62
    7
 10
796.68133652773759
 20
1373.8232725895868
 11
845.93653013973403
 21
1423.0784662015835
  0
LINE
  8
_1-0_
  6
CONTINUOUS
 62
    7
 10
782.53920090400015
 20
1373.8232725895828
 11
845.93653013973403
 21
1437.2206018253169
  0
LINE
  8
_1-0_
  6
CONTINUOUS
 62
    7
 10
768.39706528026795
 20
1373.8232725895837
 11
845.93653013973721
 21
1451.3627374490529
  0
LINE
  8
_1-0_
  6
CONTINUOUS
 62
    7
 10
754.25492965653575
 20
1373.823272589585
 11
834.25492965653552
 21
1453.8232725895848
  0
LINE
  8
_1-0_
  6
CONTINUOUS
 62
    7
 10
740.11279403280355
 20
1373.8232725895859
 11
820.11279403280332
 21
1453.8232725895859
  0
LINE
  8
_1-0_
  6
CONTINUOUS
 62
    7
 10
725.97065840907135
 20
1373.8232725895871
 11
805.97065840907112
 21
1453.8232725895871
  0
LINE
  8
_1-0_
  6
CONTINUOUS
 62
    7
 10
720.563395811379
 20
1382.5581456156283
 11
791.82852278533665
 21
1453.8232725895859
  0
LINE
  8
_1-0_
  6
CONTINUOUS
 62
    7
 10
711.33619368454322
 20
1387.4730791125257
 11
777.68638716160137
 21
1453.8232725895839
  0
LINE
  8
_1-0_
  6
CONTINUOUS
 62
    7
 10
697.19405806083057
 20
1387.4730791125282
 11
763.54425153788884
 21
1453.8232725895864
  0
LINE
  8
_1-0_
  6
CONTINUOUS
 62
    7
 10
683.05192243709837
 20
1387.4730791125294
 11
749.40211591415641
 21
1453.8232725895878
  0
LINE
  8
_1-0_
  6
CONTINUOUS
 62
    7
 10
668.90978681336094
 20
1387.4730791125253
 11
735.25998029041898
 21
1453.8232725895834
  0
LINE
  8
_1-0_
  6
CONTINUOUS
 62
    7
 10
654.76765118962862
 20
1387.4730791125262
 11
707.46803814374516
 21
1440.1734660666427
  0
LINE
  8
_1-0_
  6
CONTINUOUS
 62
    7
 10
720.56339581137809
 20
1453.2688237342759
 11
721.11784466668678
 21
1453.8232725895846
  0
LINE
  8
_1-0_
  6
CONTINUOUS
 62
    7
 10
640.62551556589642
 20
1387.4730791125276
 11
693.32590252001296
 21
1440.1734660666439
  0
LINE
  8
_1-0_
  6
CONTINUOUS
 62
    7
 10
626.48337994216024
 20
1387.4730791125246
 11
679.18376689627905
 21
1440.1734660666434
  0
LINE
  8
_1-0_
  6
CONTINUOUS
 62
    7
 10
612.34124431842679
 20
1387.4730791125246
 11
665.04163127254333
 21
1440.1734660666411
  0
LINE
  8
_1-0_
  6
CONTINUOUS
 62
    7
 10
598.19910869469459
 20
1387.4730791125257
 11
650.8994956488109
 21
1440.173466066642
  0
LINE
  8
_1-0_
  6
CONTINUOUS
 62
    7
 10
595.19026148301862
 20
1398.6063675245646
 11
636.75736002509313
 21
1440.1734660666393
  0
LINE
  8
_1-0_
  6
CONTINUOUS
 62
    7
 10
595.1902614830193
 20
1412.7485031482988
 11
622.61522440136093
 21
1440.1734660666405
  0
LINE
  8
_1-0_
  6
CONTINUOUS
 62
    7
 10
595.19026148302146
 20
1426.8906387720342
 11
608.47308877762873
 21
1440.1734660666416
  0
LINE
  8
_1-0_
  6
CONTINUOUS
 62
    7
 10
839.10774339891987
 20
1373.8232725895873
 11
845.93653013973358
 21
1380.652059330401
  0
LINE
  8
_1-0_
  6
CONTINUOUS
 62
    7
 10
824.96560777518789
 20
1373.8232725895884
 11
845.93653013973244
 21
1394.7941949541332
  0
LINE
  8
_1-0_
  6
CONTINUOUS
 62
    7
 10
810.82347215145023
 20
1373.8232725895841
 11
845.93653013973653
 21
1408.9363305778706
  0
LINE
  8
_1-0_
  6
CONTINUOUS
 62
    7
 10
796.68133652773759
 20
1373.8232725895868
 11
845.93653013973403
 21
1423.0784662015835
  0
LINE
  8
_1-0_
  6
CONTINUOUS
 62
    7
 10
782.53920090400015
 20
1373.8232725895828
 11
845.93653013973403
 21
1437.2206018253169
  0
LINE
  8
_1-0_
  6
CONTINUOUS
 62
    7
 10
768.39706528026795
 20
1373.8232725895837
 11
845.93653013973721
 21
1451.3627374490529
  0
LINE
  8
_1-0_
  6
CONTINUOUS
 62
    7
 10
754.25492965653575
 20
1373.823272589585
 11
834.25492965653552
 21
1453.8232725895848
  0
LINE
  8
_1-0_
  6
CONTINUOUS
 62
    7
 10
740.11279403280355
 20
1373.8232725895859
 11
820.11279403280332
 21
1453.8232725895859
  0
LINE
  8
_1-0_
  6
CONTINUOUS
 62
    7
 10
725.97065840907135
 20
1373.8232725895871
 11
805.97065840907112
 21
1453.8232725895871
  0
LINE
  8
_1-0_
  6
CONTINUOUS
 62
    7
 10
720.563395811379
 20
1382.5581456156283
 11
791.82852278533665
 21
1453.8232725895859
  0
LINE
  8
_1-0_
  6
CONTINUOUS
 62
    7
 10
711.33619368454322
 20
1387.4730791125257
 11
777.68638716160137
 21
1453.8232725895839
  0
LINE
  8
_1-0_
  6
CONTINUOUS
 62
    7
 10
697.19405806083057
 20
1387.4730791125282
 11
763.54425153788884
 21
1453.8232725895864
  0
LINE
  8
_1-0_
  6
CONTINUOUS
 62
    7
 10
683.05192243709837
 20
1387.4730791125294
 11
749.40211591415641
 21
1453.8232725895878
  0
LINE
  8
_1-0_
  6
CONTINUOUS
 62
    7
 10
668.90978681336094
 20
1387.4730791125253
 11
735.25998029041898
 21
1453.8232725895834
  0
LINE
  8
_1-0_
  6
CONTINUOUS
 62
    7
 10
654.76765118962862
 20
1387.4730791125262
 11
707.46803814374516
 21
1440.1734660666427
  0
LINE
  8
_1-0_
  6
CONTINUOUS
 62
    7
 10
720.56339581137809
 20
1453.2688237342759
 11
721.11784466668678
 21
1453.8232725895846
  0
LINE
  8
_1-0_
  6
CONTINUOUS
 62
    7
 10
640.62551556589642
 20
1387.4730791125276
 11
693.32590252001296
 21
1440.1734660666439
  0
LINE
  8
_1-0_
  6
CONTINUOUS
 62
    7
 10
626.48337994216024
 20
1387.4730791125246
 11
679.18376689627905
 21
1440.1734660666434
  0
LINE
  8
_1-0_
  6
CONTINUOUS
 62
    7
 10
612.34124431842679
 20
1387.4730791125246
 11
665.04163127254333
 21
1440.1734660666411
  0
LINE
  8
_1-0_
  6
CONTINUOUS
 62
    7
 10
598.19910869469459
 20
1387.4730791125257
 11
650.8994956488109
 21
1440.173466066642
  0
LINE
  8
_1-0_
  6
CONTINUOUS
 62
    7
 10
595.19026148301862
 20
1398.6063675245646
 11
636.75736002509313
 21
1440.1734660666393
  0
LINE
  8
_1-0_
  6
CONTINUOUS
 62
    7
 10
595.1902614830193
 20
1412.7485031482988
 11
622.61522440136093
 21
1440.1734660666405
  0
LINE
  8
_1-0_
  6
CONTINUOUS
 62
    7
 10
595.19026148302146
 20
1426.8906387720342
 11
608.47308877762873
 21
1440.1734660666416
  0
LINE
  8
_1-0_
  6
CONTINUOUS
 62
    7
 10
2075.6851976390021
 20
1453.8232725895859
 11
2075.6851976390021
 21
1373.8232725895859
  0
LINE
  8
_1-0_
  6
CONTINUOUS
 62
    7
 10
2326.4314662957186
 20
1440.1734660666448
 11
2326.4314662957186
 21
1387.4730791125269
  0
LINE
  8
_1-0_
  6
CONTINUOUS
 62
    7
 10
2201.0583319673606
 20
1440.1734660666448
 11
2326.4314662957186
 21
1440.1734660666448
  0
LINE
  8
_1-0_
  6
CONTINUOUS
 62
    7
 10
2201.0583319673606
 20
1387.4730791125269
 11
2326.4314662957186
 21
1387.4730791125269
  0
LINE
  8
_1-0_
  6
CONTINUOUS
 62
    7
 10
2201.0583319673606
 20
1453.8232725895859
 11
2201.0583319673606
 21
1440.1734660666448
  0
LINE
  8
_1-0_
  6
CONTINUOUS
 62
    7
 10
2201.0583319673606
 20
1387.4730791125269
 11
2201.0583319673606
 21
1373.8232725895859
  0
LINE
  8
_1-0_
  6
CONTINUOUS
 62
    7
 10
2082.513984379817
 20
1373.8232725895873
 11
2075.6851976390035
 21
1380.652059330401
  0
LINE
  8
_1-0_
  6
CONTINUOUS
 62
    7
 10
2096.6561200035494
 20
1373.8232725895884
 11
2075.6851976390049
 21
1394.7941949541332
  0
LINE
  8
_1-0_
  6
CONTINUOUS
 62
    7
 10
2110.7982556272868
 20
1373.8232725895841
 11
2075.6851976390003
 21
1408.9363305778706
  0
LINE
  8
_1-0_
  6
CONTINUOUS
 62
    7
 10
2124.9403912509993
 20
1373.8232725895868
 11
2075.685197639003
 21
1423.0784662015835
  0
LINE
  8
_1-0_
  6
CONTINUOUS
 62
    7
 10
2139.0825268747367
 20
1373.8232725895828
 11
2075.685197639003
 21
1437.2206018253169
  0
LINE
  8
_1-0_
  6
CONTINUOUS
 62
    7
 10
2153.2246624984691
 20
1373.8232725895837
 11
2075.6851976389999
 21
1451.3627374490529
  0
LINE
  8
_1-0_
  6
CONTINUOUS
 62
    7
 10
2167.3667981222015
 20
1373.823272589585
 11
2087.3667981222015
 21
1453.8232725895848
  0
LINE
  8
_1-0_
  6
CONTINUOUS
 62
    7
 10
2181.5089337459335
 20
1373.8232725895859
 11
2101.508933745934
 21
1453.8232725895859
  0
LINE
  8
_1-0_
  6
CONTINUOUS
 62
    7
 10
2195.6510693696655
 20
1373.8232725895871
 11
2115.6510693696664
 21
1453.8232725895871
  0
LINE
  8
_1-0_
  6
CONTINUOUS
 62
    7
 10
2201.0583319673578
 20
1382.5581456156283
 11
2129.7932049934006
 21
1453.8232725895859
  0
LINE
  8
_1-0_
  6
CONTINUOUS
 62
    7
 10
2210.2855340941937
 20
1387.4730791125257
 11
2143.9353406171358
 21
1453.8232725895839
  0
LINE
  8
_1-0_
  6
CONTINUOUS
 62
    7
 10
2224.4276697179066
 20
1387.4730791125282
 11
2158.0774762408482
 21
1453.8232725895864
  0
LINE
  8
_1-0_
  6
CONTINUOUS
 62
    7
 10
2238.569805341639
 20
1387.4730791125294
 11
2172.2196118645807
 21
1453.8232725895878
  0
LINE
  8
_1-0_
  6
CONTINUOUS
 62
    7
 10
2252.711940965376
 20
1387.4730791125253
 11
2186.3617474883181
 21
1453.8232725895834
  0
LINE
  8
_1-0_
  6
CONTINUOUS
 62
    7
 10
2266.8540765891084
 20
1387.4730791125262
 11
2214.1536896349917
 21
1440.1734660666427
  0
LINE
  8
_1-0_
  6
CONTINUOUS
 62
    7
 10
2201.0583319673588
 20
1453.2688237342759
 11
2200.5038831120505
 21
1453.8232725895846
  0
LINE
  8
_1-0_
  6
CONTINUOUS
 62
    7
 10
2280.9962122128404
 20
1387.4730791125276
 11
2228.2958252587241
 21
1440.1734660666439
  0
LINE
  8
_1-0_
  6
CONTINUOUS
 62
    7
 10
2295.1383478365769
 20
1387.4730791125246
 11
2242.4379608824584
 21
1440.1734660666434
  0
LINE
  8
_1-0_
  6
CONTINUOUS
 62
    7
 10
2309.2804834603103
 20
1387.4730791125246
 11
2256.5800965061935
 21
1440.1734660666411
  0
LINE
  8
_1-0_
  6
CONTINUOUS
 62
    7
 10
2323.4226190840427
 20
1387.4730791125257
 11
2270.7222321299259
 21
1440.173466066642
  0
LINE
  8
_1-0_
  6
CONTINUOUS
 62
    7
 10
2326.4314662957186
 20
1398.6063675245646
 11
2284.8643677536438
 21
1440.1734660666393
  0
LINE
  8
_1-0_
  6
CONTINUOUS
 62
    7
 10
2326.4314662957177
 20
1412.7485031482988
 11
2299.0065033773762
 21
1440.1734660666405
  0
LINE
  8
_1-0_
  6
CONTINUOUS
 62
    7
 10
2326.4314662957158
 20
1426.8906387720342
 11
2313.1486390011087
 21
1440.1734660666416
  0
LINE
  8
_1-0_
  6
CONTINUOUS
 62
    7
 10
2082.513984379817
 20
1373.8232725895873
 11
2075.6851976390035
 21
1380.652059330401
  0
LINE
  8
_1-0_
  6
CONTINUOUS
 62
    7
 10
2096.6561200035494
 20
1373.8232725895884
 11
2075.6851976390049
 21
1394.7941949541332
  0
LINE
  8
_1-0_
  6
CONTINUOUS
 62
    7
 10
2110.7982556272868
 20
1373.8232725895841
 11
2075.6851976390003
 21
1408.9363305778706
  0
LINE
  8
_1-0_
  6
CONTINUOUS
 62
    7
 10
2124.9403912509993
 20
1373.8232725895868
 11
2075.685197639003
 21
1423.0784662015835
  0
LINE
  8
_1-0_
  6
CONTINUOUS
 62
    7
 10
2139.0825268747367
 20
1373.8232725895828
 11
2075.685197639003
 21
1437.2206018253169
  0
LINE
  8
_1-0_
  6
CONTINUOUS
 62
    7
 10
2153.2246624984691
 20
1373.8232725895837
 11
2075.6851976389999
 21
1451.3627374490529
  0
LINE
  8
_1-0_
  6
CONTINUOUS
 62
    7
 10
2167.3667981222015
 20
1373.823272589585
 11
2087.3667981222015
 21
1453.8232725895848
  0
LINE
  8
_1-0_
  6
CONTINUOUS
 62
    7
 10
2181.5089337459335
 20
1373.8232725895859
 11
2101.508933745934
 21
1453.8232725895859
  0
LINE
  8
_1-0_
  6
CONTINUOUS
 62
    7
 10
2195.6510693696655
 20
1373.8232725895871
 11
2115.6510693696664
 21
1453.8232725895871
  0
LINE
  8
_1-0_
  6
CONTINUOUS
 62
    7
 10
2201.0583319673578
 20
1382.5581456156283
 11
2129.7932049934006
 21
1453.8232725895859
  0
LINE
  8
_1-0_
  6
CONTINUOUS
 62
    7
 10
2210.2855340941937
 20
1387.4730791125257
 11
2143.9353406171358
 21
1453.8232725895839
  0
LINE
  8
_1-0_
  6
CONTINUOUS
 62
    7
 10
2224.4276697179066
 20
1387.4730791125282
 11
2158.0774762408482
 21
1453.8232725895864
  0
LINE
  8
_1-0_
  6
CONTINUOUS
 62
    7
 10
2238.569805341639
 20
1387.4730791125294
 11
2172.2196118645807
 21
1453.8232725895878
  0
LINE
  8
_1-0_
  6
CONTINUOUS
 62
    7
 10
2252.711940965376
 20
1387.4730791125253
 11
2186.3617474883181
 21
1453.8232725895834
  0
LINE
  8
_1-0_
  6
CONTINUOUS
 62
    7
 10
2266.8540765891084
 20
1387.4730791125262
 11
2214.1536896349917
 21
1440.1734660666427
  0
LINE
  8
_1-0_
  6
CONTINUOUS
 62
    7
 10
2201.0583319673588
 20
1453.2688237342759
 11
2200.5038831120505
 21
1453.8232725895846
  0
LINE
  8
_1-0_
  6
CONTINUOUS
 62
    7
 10
2280.9962122128404
 20
1387.4730791125276
 11
2228.2958252587241
 21
1440.1734660666439
  0
LINE
  8
_1-0_
  6
CONTINUOUS
 62
    7
 10
2295.1383478365769
 20
1387.4730791125246
 11
2242.4379608824584
 21
1440.1734660666434
  0
LINE
  8
_1-0_
  6
CONTINUOUS
 62
    7
 10
2309.2804834603103
 20
1387.4730791125246
 11
2256.5800965061935
 21
1440.1734660666411
  0
LINE
  8
_1-0_
  6
CONTINUOUS
 62
    7
 10
2323.4226190840427
 20
1387.4730791125257
 11
2270.7222321299259
 21
1440.173466066642
  0
LINE
  8
_1-0_
  6
CONTINUOUS
 62
    7
 10
2326.4314662957186
 20
1398.6063675245646
 11
2284.8643677536438
 21
1440.1734660666393
  0
LINE
  8
_1-0_
  6
CONTINUOUS
 62
    7
 10
2326.4314662957177
 20
1412.7485031482988
 11
2299.0065033773762
 21
1440.1734660666405
  0
LINE
  8
_1-0_
  6
CONTINUOUS
 62
    7
 10
2326.4314662957158
 20
1426.8906387720342
 11
2313.1486390011087
 21
1440.1734660666416
  0
LINE
  8
_1-0_
  6
CONTINUOUS
 62
    7
 10
2075.6851976390021
 20
1373.8232725895859
 11
2195.6510693696655
 21
1373.8232725895859
  0
LINE
  8
_1-0_
  6
CONTINUOUS
 62
    7
 10
2075.6851976389999
 20
1453.8232725895859
 11
2200.5038831120505
 21
1453.8232725895859
  0
LINE
  8
_1-0_
  6
CONTINUOUS
 62
    7
 10
720.56339581137661
 20
1453.8232725895859
 11
845.93653013973494
 21
1453.8232725895859
  0
LINE
  8
_1-0_
  6
CONTINUOUS
 62
    7
 10
720.56339581137661
 20
1373.8232725895859
 11
845.93653013973494
 21
1373.8232725895859
  0
LINE
  8
_1-0_
  6
CONTINUOUS
 62
    7
 10
2325.5823766957074
 20
1412.8988139500002
 11
2491.8178659162713
 21
1412.8988139500002
  0
CIRCLE
  8
_1-0_
  6
CONTINUOUS
 62
    7
 10
2659.7770481092439
 20
1638.5214518295238
 40
20
  0
ARC
  8
_1-0_
  6
CONTINUOUS
 62
    7
 10
2659.7770481092439
 20
1638.5214518295238
 40
30
 50
270
 51
90
  0
LINE
  8
_1-0_
  6
CONTINUOUS
 62
    7
 10
2659.7770481092439
 20
1668.5214518295238
 11
2610.0921393198578
 21
1659.1134603404284
  0
LINE
  8
_1-0_
  6
CONTINUOUS
 62
    7
 10
2659.7770481092439
 20
1608.5214518295238
 11
2610.0921393198578
 21
1617.9294433186192
  0
ARC
  8
_1-0_
  6
CONTINUOUS
 62
    7
 10
2498.3242657248688
 20
1662.9360455276992
 40
6
 50
90
 51
180
  0
LINE
  8
_1-0_
  6
CONTINUOUS
 62
    7
 10
2492.3242657248693
 20
1614.106858131348
 11
2492.3242657248693
 21
1662.9360455276992
  0
ARC
  8
_1-0_
  6
CONTINUOUS
 62
    7
 10
2498.3242657248688
 20
1614.106858131348
 40
6
 50
180
 51
270
  0
LINE
  8
_1-0_
  6
CONTINUOUS
 62
    7
 10
2604.0921393198578
 20
1668.9360455276997
 11
2498.3242657248688
 21
1668.9360455276997
  0
ARC
  8
_1-0_
  6
CONTINUOUS
 62
    7
 10
2604.0921393198578
 20
1662.9360455276992
 40
6
 50
0
 51
90
  0
LINE
  8
_1-0_
  6
CONTINUOUS
 62
    7
 10
2610.0921393198578
 20
1614.106858131348
 11
2610.0921393198578
 21
1662.9360455276992
  0
LINE
  8
_1-0_
  6
CONTINUOUS
 62
    7
 10
2604.0921393198578
 20
1608.106858131348
 11
2498.3242657248688
 21
1608.106858131348
  0
ARC
  8
_1-0_
  6
CONTINUOUS
 62
    7
 10
2604.0921393198578
 20
1614.106858131348
 40
6
 50
270
 51
0
  0
LINE
  8
_1-0_
  6
CONTINUOUS
 62
    7
 10
2507.5953025043154
 20
1608.1068581313457
 11
2492.3242657248679
 21
1623.3778949107932
  0
LINE
  8
_1-0_
  6
CONTINUOUS
 62
    7
 10
2521.7374381280479
 20
1608.1068581313471
 11
2492.324265724867
 21
1637.5200305345272
  0
LINE
  8
_1-0_
  6
CONTINUOUS
 62
    7
 10
2535.8795737517603
 20
1608.1068581313493
 11
2492.3242657248693
 21
1651.6621661582408
  0
LINE
  8
_1-0_
  6
CONTINUOUS
 62
    7
 10
2610.0921393198551
 20
1618.7471063056546
 11
2559.90320009781
 21
1668.9360455276997
  0
LINE
  8
_1-0_
  6
CONTINUOUS
 62
    7
 10
2610.0921393198551
 20
1632.8892419293784
 11
2574.0453357215374
 21
1668.936045527696
  0
LINE
  8
_1-0_
  6
CONTINUOUS
 62
    7
 10
2610.0921393198569
 20
1647.0313775531013
 11
2588.1874713452598
 21
1668.9360455276978
  0
LINE
  8
_1-0_
  6
CONTINUOUS
 62
    7
 10
2610.0921393198578
 20
1661.1735131768341
 11
2602.3296069689923
 21
1668.936045527699
  0
CIRCLE
  8
_1-0_
  6
CONTINUOUS
 62
    7
 10
2659.7770481092439
 20
1412.3496308045214
 40
20
  0
ARC
  8
_1-0_
  6
CONTINUOUS
 62
    7
 10
2659.7770481092439
 20
1412.3496308045214
 40
30
 50
270
 51
90
  0
LINE
  8
_1-0_
  6
CONTINUOUS
 62
    7
 10
2659.7770481092439
 20
1442.3496308045214
 11
2610.0921393198578
 21
1432.9416393154261
  0
LINE
  8
_1-0_
  6
CONTINUOUS
 62
    7
 10
2659.7770481092439
 20
1382.3496308045214
 11
2610.0921393198578
 21
1391.7576222936168
  0
ARC
  8
_1-0_
  6
CONTINUOUS
 62
    7
 10
2498.3242657248688
 20
1436.7642245026973
 40
6
 50
90
 51
180
  0
LINE
  8
_1-0_
  6
CONTINUOUS
 62
    7
 10
2492.3242657248693
 20
1387.935037106346
 11
2492.3242657248693
 21
1436.7642245026973
  0
ARC
  8
_1-0_
  6
CONTINUOUS
 62
    7
 10
2498.3242657248688
 20
1387.935037106346
 40
6
 50
180
 51
270
  0
LINE
  8
_1-0_
  6
CONTINUOUS
 62
    7
 10
2604.0921393198578
 20
1442.7642245026973
 11
2498.3242657248688
 21
1442.7642245026973
  0
ARC
  8
_1-0_
  6
CONTINUOUS
 62
    7
 10
2604.0921393198578
 20
1436.7642245026973
 40
6
 50
0
 51
90
  0
LINE
  8
_1-0_
  6
CONTINUOUS
 62
    7
 10
2610.0921393198578
 20
1387.935037106346
 11
2610.0921393198578
 21
1436.7642245026973
  0
LINE
  8
_1-0_
  6
CONTINUOUS
 62
    7
 10
2604.0921393198578
 20
1381.9350371063456
 11
2498.3242657248688
 21
1381.9350371063456
  0
ARC
  8
_1-0_
  6
CONTINUOUS
 62
    7
 10
2604.0921393198578
 20
1387.935037106346
 40
6
 50
270
 51
0
  0
LINE
  8
_1-0_
  6
CONTINUOUS
 62
    7
 10
2507.5953025043154
 20
1381.9350371063438
 11
2492.3242657248679
 21
1397.2060738857913
  0
LINE
  8
_1-0_
  6
CONTINUOUS
 62
    7
 10
2521.7374381280479
 20
1381.9350371063449
 11
2492.324265724867
 21
1411.3482095095251
  0
LINE
  8
_1-0_
  6
CONTINUOUS
 62
    7
 10
2535.8795737517603
 20
1381.9350371063474
 11
2492.3242657248693
 21
1425.4903451332384
  0
LINE
  8
_1-0_
  6
CONTINUOUS
 62
    7
 10
2610.0921393198551
 20
1392.5752852806522
 11
2559.90320009781
 21
1442.7642245026977
  0
LINE
  8
_1-0_
  6
CONTINUOUS
 62
    7
 10
2610.0921393198551
 20
1406.7174209043762
 11
2574.0453357215374
 21
1442.7642245026946
  0
LINE
  8
_1-0_
  6
CONTINUOUS
 62
    7
 10
2610.0921393198569
 20
1420.8595565280991
 11
2588.1874713452598
 21
1442.7642245026959
  0
LINE
  8
_1-0_
  6
CONTINUOUS
 62
    7
 10
2610.0921393198578
 20
1435.0016921518318
 11
2602.3296069689923
 21
1442.7642245026968
  0
CIRCLE
  8
_1-0_
  6
CONTINUOUS
 62
    7
 10
2659.7770481092439
 20
1199.2153024463125
 40
20
  0
ARC
  8
_1-0_
  6
CONTINUOUS
 62
    7
 10
2659.7770481092439
 20
1199.2153024463125
 40
30
 50
270
 51
90
  0
LINE
  8
_1-0_
  6
CONTINUOUS
 62
    7
 10
2659.7770481092439
 20
1229.2153024463125
 11
2610.0921393198578
 21
1219.8073109572169
  0
LINE
  8
_1-0_
  6
CONTINUOUS
 62
    7
 10
2659.7770481092439
 20
1169.2153024463125
 11
2610.0921393198578
 21
1178.6232939354081
  0
ARC
  8
_1-0_
  6
CONTINUOUS
 62
    7
 10
2498.3242657248688
 20
1223.6298961444884
 40
6
 50
90
 51
180
  0
LINE
  8
_1-0_
  6
CONTINUOUS
 62
    7
 10
2492.3242657248693
 20
1174.8007087481367
 11
2492.3242657248693
 21
1223.6298961444884
  0
ARC
  8
_1-0_
  6
CONTINUOUS
 62
    7
 10
2498.3242657248688
 20
1174.8007087481367
 40
6
 50
180
 51
270
  0
ARC
  8
_1-0_
  6
CONTINUOUS
 62
    7
 10
2604.0921393198578
 20
1223.6298961444884
 40
6
 50
0
 51
90
  0
LINE
  8
_1-0_
  6
CONTINUOUS
 62
    7
 10
2610.0921393198578
 20
1174.8007087481367
 11
2610.0921393198578
 21
1223.6298961444884
  0
LINE
  8
_1-0_
  6
CONTINUOUS
 62
    7
 10
2604.0921393198578
 20
1168.8007087481369
 11
2498.3242657248688
 21
1168.8007087481369
  0
ARC
  8
_1-0_
  6
CONTINUOUS
 62
    7
 10
2604.0921393198578
 20
1174.8007087481367
 40
6
 50
270
 51
0
  0
LINE
  8
_1-0_
  6
CONTINUOUS
 62
    7
 10
2507.5953025043154
 20
1168.8007087481349
 11
2492.3242657248679
 21
1184.0717455275822
  0
LINE
  8
_1-0_
  6
CONTINUOUS
 62
    7
 10
2521.7374381280479
 20
1168.8007087481358
 11
2492.324265724867
 21
1198.2138811513162
  0
LINE
  8
_1-0_
  6
CONTINUOUS
 62
    7
 10
2535.8795737517603
 20
1168.8007087481383
 11
2492.3242657248693
 21
1212.3560167750293
  0
LINE
  8
_1-0_
  6
CONTINUOUS
 62
    7
 10
2610.0921393198551
 20
1193.5830925461673
 11
2574.0453357215374
 21
1229.6298961444852
  0
LINE
  8
_1-0_
  6
CONTINUOUS
 62
    7
 10
2610.0921393198569
 20
1207.7252281698902
 11
2588.1874713452598
 21
1229.629896144487
  0
LINE
  8
_1-0_
  6
CONTINUOUS
 62
    7
 10
2610.0921393198578
 20
1221.8673637936231
 11
2602.3296069689923
 21
1229.6298961444879
  0
LINE
  8
_1-0_
  6
CONTINUOUS
 62
    7
 10
2327.0528023452371
 20
1426.674380561388
 11
2490.0378769721028
 21
1639.8087089195969
  0
LINE
  8
_1-0_
  6
CONTINUOUS
 62
    7
 10
2327.0528023452371
 20
1397.4206492181042
 11
2492.8239466238442
 21
1195.4305994668605
  0
LINE
  8
_1-0_
  6
CONTINUOUS
 62
    7
 10
1773.2537420909532
 20
1186.4346532719096
 11
1880.185288064788
 21
1186.4346532719096
  0
LINE
  8
_1-0_
  6
CONTINUOUS
 62
    7
 10
1773.2537420909532
 20
1453.8232725895859
 11
1773.2537420909532
 21
1186.4346532719096
  0
LINE
  8
_1-0_
  6
CONTINUOUS
 62
    7
 10
1880.185288064788
 20
1453.8232725895859
 11
1880.185288064788
 21
1186.4346532719096
  0
LINE
  8
_1-0_
  6
CONTINUOUS
 62
    7
 10
1773.2537420909532
 20
1453.8232725895859
 11
1880.185288064788
 21
1453.8232725895859
  0
LINE
  8
_1-0_
  6
CONTINUOUS
 62
    7
 10
845.93653013973494
 20
1373.8232725895859
 11
1773.2537420909532
 21
1373.8232725895859
  0
LINE
  8
_1-0_
  6
CONTINUOUS
 62
    7
 10
1880.185288064788
 20
1373.8232725895859
 11
2075.6851976390021
 21
1373.8232725895859
  0
LINE
  8
_1-0_
  6
CONTINUOUS
 62
    7
 10
720.56339581137661
 20
1526.4438782186589
 11
845.93653013973494
 21
1526.4438782186589
  0
LINE
  8
_1-0_
  6
CONTINUOUS
 62
    7
 10
595.19026148301828
 20
1617.3394006067185
 11
845.93653013973494
 21
1617.3394006067185
  0
LINE
  8
_1-0_
  6
CONTINUOUS
 62
    7
 10
2075.6851976389999
 20
1460.0425515188249
 11
2075.6851976389999
 21
1498.2349229947786
  0
LINE
  8
_1-0_
  6
CONTINUOUS
 62
    7
 10
2075.6851976389999
 20
1498.2349229947786
 11
2075.6851976389999
 21
1546.4107107228051
  0
LINE
  8
_1-0_
  6
CONTINUOUS
 62
    7
 10
2326.4314662957186
 20
1617.3394006067185
 11
2075.6851976390017
 21
1617.3394006067185
  0
TEXT
  8
_1-0_
 62
    7
 10
2532.3233321581947
 20
1689.0226510213133
 40
40
 41
1
 50
0
  1
15
  0
TEXT
  8
_1-0_
 62
    7
 10
2269.0397500686422
 20
1689.0226510213133
 40
40
 41
1
 50
0
  1
50
  0
TEXT
  8
_1-0_
 62
    7
 10
2184.4128843970007
 20
1573.0525017675818
 40
40
 41
1
 50
0
  1
20
  0
TEXT
  8
_1-0_
 62
    7
 10
2115.4576605164038
 20
1485.2913077377311
 40
40
 41
1
 50
0
  1
10
  0
LINE
  8
_1-0_
  6
CONTINUOUS
 62
    7
 10
2550.0217093754927
 20
1168.8007087481394
 11
2536.6946722697558
 21
1182.1277458538759
  0
LINE
  8
_1-0_
  6
CONTINUOUS
 62
    7
 10
2532.1595586058938
 20
1186.6628595177381
 11
2492.8152928797035
 21
1226.0071252439286
  0
LINE
  8
_1-0_
  6
CONTINUOUS
 62
    7
 10
2564.1638449992251
 20
1168.8007087481403
 11
2550.8368078934891
 21
1182.1277458538759
  0
LINE
  8
_1-0_
  6
CONTINUOUS
 62
    7
 10
2532.1595586058938
 20
1200.8049951414714
 11
2503.3346576028753
 21
1229.6298961444897
  0
LINE
  8
_1-0_
  6
CONTINUOUS
 62
    7
 10
2578.3059806229608
 20
1168.8007087481376
 11
2564.9789435172224
 21
1182.1277458538759
  0
LINE
  8
_1-0_
  6
CONTINUOUS
 62
    7
 10
2532.1595586058938
 20
1214.9471307652047
 11
2517.4767932266086
 21
1229.6298961444897
  0
LINE
  8
_1-0_
  6
CONTINUOUS
 62
    7
 10
2592.4481162466946
 20
1168.8007087481371
 11
2572.1595586058938
 21
1189.0892663889381
  0
LINE
  8
_1-0_
  6
CONTINUOUS
 62
    7
 10
2539.1210791409558
 20
1222.1277458538759
 11
2531.6189288503456
 21
1229.6298961444868
  0
LINE
  8
_1-0_
  6
CONTINUOUS
 62
    7
 10
2606.2056743533822
 20
1169.1852862651829
 11
2572.1595586058938
 21
1203.2314020126714
  0
LINE
  8
_1-0_
  6
CONTINUOUS
 62
    7
 10
2553.2632147646891
 20
1222.1277458538759
 11
2545.7610644740776
 21
1229.6298961444877
  0
LINE
  8
_1-0_
  6
CONTINUOUS
 62
    7
 10
2610.0921393198551
 20
1179.4409569224435
 11
2572.1595586058938
 21
1217.3735376364048
  0
LINE
  8
_1-0_
  6
CONTINUOUS
 62
    7
 10
2567.4053503884224
 20
1222.1277458538759
 11
2559.90320009781
 21
1229.6298961444886
  0
LINE
  8
_1-0_
  6
CONTINUOUS
 62
    7
 10
2550.0217093754927
 20
1381.9350371063483
 11
2538.7584275673416
 21
1393.1983189144987
  0
LINE
  8
_1-0_
  6
CONTINUOUS
 62
    7
 10
2529.5282706014718
 20
1402.4284758803692
 11
2492.8152928797035
 21
1439.1414536021375
  0
LINE
  8
_1-0_
  6
CONTINUOUS
 62
    7
 10
2564.1638449992251
 20
1381.9350371063495
 11
2552.900563191075
 21
1393.1983189144987
  0
LINE
  8
_1-0_
  6
CONTINUOUS
 62
    7
 10
2529.5282706014718
 20
1416.5706115041025
 11
2503.3346576028753
 21
1442.7642245026989
  0
LINE
  8
_1-0_
  6
CONTINUOUS
 62
    7
 10
2578.3059806229608
 20
1381.9350371063465
 11
2567.0426988148083
 21
1393.1983189144987
  0
LINE
  8
_1-0_
  6
CONTINUOUS
 62
    7
 10
2529.5282706014718
 20
1430.7127471278359
 11
2517.4767932266086
 21
1442.7642245026987
  0
LINE
  8
_1-0_
  6
CONTINUOUS
 62
    7
 10
2592.4481162466946
 20
1381.9350371063463
 11
2569.5282706014718
 21
1404.8548827515692
  0
LINE
  8
_1-0_
  6
CONTINUOUS
 62
    7
 10
2541.1848344385426
 20
1433.1983189144987
 11
2531.6189288503456
 21
1442.7642245026957
  0
LINE
  8
_1-0_
  6
CONTINUOUS
 62
    7
 10
2606.2056743533822
 20
1382.3196146233922
 11
2569.5282706014718
 21
1418.9970183753028
  0
LINE
  8
_1-0_
  6
CONTINUOUS
 62
    7
 10
2555.3269700622759
 20
1433.1983189144987
 11
2545.7610644740776
 21
1442.7642245026966
  0
LINE
  8
_1-0_
  6
CONTINUOUS
 62
    7
 10
2550.0217093754927
 20
1608.1068581313502
 11
2537.0916637388341
 21
1621.0369037680091
  0
LINE
  8
_1-0_
  6
CONTINUOUS
 62
    7
 10
2525.8135110658163
 20
1632.3150564410266
 11
2492.8152928797035
 21
1665.3132746271394
  0
LINE
  8
_1-0_
  6
CONTINUOUS
 62
    7
 10
2564.1638449992251
 20
1608.1068581313516
 11
2551.233799362567
 21
1621.0369037680091
  0
LINE
  8
_1-0_
  6
CONTINUOUS
 62
    7
 10
2525.8135110658163
 20
1646.45719206476
 11
2503.3346576028753
 21
1668.9360455277006
  0
LINE
  8
_1-0_
  6
CONTINUOUS
 62
    7
 10
2578.3059806229608
 20
1608.1068581313486
 11
2565.3759349863003
 21
1621.0369037680091
  0
LINE
  8
_1-0_
  6
CONTINUOUS
 62
    7
 10
2525.8135110658163
 20
1660.5993276884933
 11
2517.4767932266086
 21
1668.9360455277006
  0
LINE
  8
_1-0_
  6
CONTINUOUS
 62
    7
 10
2592.4481162466946
 20
1608.106858131348
 11
2565.8135110658168
 21
1634.7414633122266
  0
LINE
  8
_1-0_
  6
CONTINUOUS
 62
    7
 10
2539.5180706100341
 20
1661.0369037680091
 11
2531.6189288503456
 21
1668.9360455276978
  0
LINE
  8
_1-0_
  6
CONTINUOUS
 62
    7
 10
2606.2056743533822
 20
1608.4914356483939
 11
2565.8135110658168
 21
1648.88359893596
  0
LINE
  8
_1-0_
  6
CONTINUOUS
 62
    7
 10
2553.660206233767
 20
1661.0369037680091
 11
2545.7610644740776
 21
1668.936045527699
  0
LINE
  8
_1-0_
  6
CONTINUOUS
 62
    7
 10
2201.0583319673601
 20
1526.4438782186589
 11
1880.185288064788
 21
1526.4438782186589
  0
TEXT
  8
_1-0_
 62
    7
 10
1955.1786215748461
 20
1482.8842172690902
 40
40
 41
1
 50
0
  1
30
  0
TEXT
  8
_1-0_
 62
    7
 10
694.72932484860075
 20
1576.6625478384658
 40
40
 41
1
 50
0
  1
20
  0
TEXT
  8
_1-0_
 62
    7
 10
760.20196166452115
 20
1484.7222493310028
 40
40
 41
1
 50
0
  1
10
  0
LINE
  8
_1-0_
  6
CONTINUOUS
 62
    7
 10
653.89599151526727
 20
1394.2620503260277
 11
883.74673778392412
 21
1227.0978712215501
  0
LINE
  8
_1-0_
  6
CONTINUOUS
 62
    7
 10
653.89599151526727
 20
1394.2620503260277
 11
681.89826474413508
 21
1383.4976323661085
  0
LINE
  8
_1-0_
  6
CONTINUOUS
 62
    7
 10
653.89599151526727
 20
1394.2620503260277
 11
672.76446251521998
 21
1370.9386543013502
  0
TEXT
  8
_1-0_
 62
    7
 10
1284.0265885301926
 20
1251.7807070424456
 40
64
 41
1
 50
0
  1
1
  0
LINE
  8
_1-0_
  6
CONTINUOUS
 62
    7
 10
1083.4295736048193
 20
1391.7807070424456
 11
1273.5788273361629
 21
1285.213542863341
  0
LINE
  8
_1-0_
  6
CONTINUOUS
 62
    7
 10
1083.4295736048193
 20
1391.7807070424456
 11
1112.5041801385346
 21
1384.3869762582158
  0
LINE
  8
_1-0_
  6
CONTINUOUS
 62
    7
 10
1083.4295736048193
 20
1391.7807070424456
 11
1104.9120560759388
 21
1370.840245087702
  0
LINE
  8
_1-0_
  6
CONTINUOUS
 62
    7
 10
1870.145991515267
 20
1218.3478712215499
 11
2022.6833049481029
 21
1130.5866771916992
  0
LINE
  8
_1-0_
  6
CONTINUOUS
 62
    7
 10
1870.145991515267
 20
1218.3478712215499
 11
1899.1354358525816
 21
1210.6269828650336
  0
LINE
  8
_1-0_
  6
CONTINUOUS
 62
    7
 10
1870.145991515267
 20
1218.3478712215499
 11
1891.3911425747174
 21
1197.1666635963666
  0
LINE
  8
_0-0_
  6
CONTINUOUS
 62
    7
 10
388.65671641791062
 20
707.26119402985069
 11
388.65671641791062
 21
38.604477611940325
  0
LINE
  8
_0-0_
  6
CONTINUOUS
 62
    7
 10
2604.6268656716416
 20
202.24084124830412
 11
2604.6268656716416
 21
38.604477611940325
  0
LINE
  8
_0-0_
  6
CONTINUOUS
 62
    7
 10
2717.4626865671644
 20
145.05555555555571
 11
2717.4626865671644
 21
38.604477611940325
  0
TEXT
  8
_0-0_
 62
    7
 10
2638.28861174744
 20
76.349529596342848
 40
40
 41
1
 50
0
  1
頁
  0
LINE
  8
_0-0_
  6
CONTINUOUS
 62
    7
 10
1467.5621890547259
 20
450.60366377986566
 11
1467.5621890547259
 21
38.604477611940325
  0
LINE
  8
_0-0_
  6
CONTINUOUS
 62
    7
 10
2072.2201492537306
 20
450.60366377986566
 11
2072.2201492537306
 21
38.604477611940325
  0
TEXT
  8
_0-0_
 62
    7
 10
1296.204394693201
 20
318.96187273508951
 40
40
 41
1
 50
0
  1
設計
  0
TEXT
  8
_0-0_
 62
    7
 10
1243.9655887230517
 20
385.82754437688061
 40
40
 41
1
 50
0
  1
ハーネス名
  0
TEXT
  8
_0-0_
 62
    7
 10
2416.2043946932008
 20
392.09620109329853
 40
40
 41
1
 50
0
  1
会社名
  0
TEXT
  8
_1-0_
 62
    7
 10
2532.669522756587
 20
1182.4408512990606
 40
40
 41
1
 50
0
  1
黒
  0
TEXT
  8
_1-0_
 62
    7
 10
2530.1414225170438
 20
1392.221577298692
 40
40
 41
1
 50
0
  1
白
  0
TEXT
  8
_1-0_
 62
    7
 10
2525.4205822738159
 20
1619.5184263865858
 40
40
 41
1
 50
0
  1
赤
  0
LINE
  8
_1-0_
  6
CONTINUOUS
 62
    7
 10
595.19026148301828
 20
1617.3394006067185
 11
279.42046454967897
 21
1617.3394006067185
  0
TEXT
  8
_1-0_
 62
    7
 10
404.63651488025391
 20
1571.3813008953111
 40
40
 41
1
 50
0
  1
45
  0
TEXT
  8
_1-0_
 62
    7
 10
2760.8388366049639
 20
1045.5106541291418
 40
64
 41
1
 50
0
  1
3
  0
LINE
  8
_1-0_
  6
CONTINUOUS
 62
    7
 10
2673.0776425751128
 20
1186.5554302485448
 11
2754.5701798885461
 21
1092.5255795022763
  0
LINE
  8
_1-0_
  6
CONTINUOUS
 62
    7
 10
2673.0776425751128
 20
1186.5554302485448
 11
2697.9236740236702
 21
1169.7424970940569
  0
LINE
  8
_1-0_
  6
CONTINUOUS
 62
    7
 10
2673.0776425751128
 20
1186.5554302485448
 11
2686.1884704155473
 21
1159.5719873003497
  0
LINE
  8
_0-0_
  6
CONTINUOUS
 62
    7
 10
30.037313432835447
 20
2027.3358208955226
 11
2695.8899944720838
 21
2027.3358208955226
  0
LINE
  8
_0-0_
  6
CONTINUOUS
 62
    7
 10
2695.8899944720838
 20
2027.3358208955226
 11
2879.248203427308
 21
2027.3358208955226
  0
LINE
  8
_0-0_
  6
CONTINUOUS
 62
    7
 10
2879.248203427308
 20
2027.3358208955226
 11
2879.248203427308
 21
1897.1741293532334
  0
LINE
  8
_0-0_
  6
CONTINUOUS
 62
    7
 10
2879.248203427308
 20
38.604477611940325
 11
30.037313432835447
 21
38.604477611940325
  0
LINE
  8
_0-0_
  6
CONTINUOUS
 62
    7
 10
2879.248203427308
 20
1897.1741293532334
 11
2879.248203427308
 21
38.604477611940325
  0
LINE
  8
_0-0_
  6
CONTINUOUS
 62
    7
 10
1230.0373134328354
 20
450.60366377986566
 11
2879.248203427308
 21
450.60366377986566
  0
LINE
  8
_0-0_
  6
CONTINUOUS
 62
    7
 10
1230.0373134328354
 20
365.87720488466761
 11
2879.248203427308
 21
365.87720488466761
  0
LINE
  8
_0-0_
  6
CONTINUOUS
 62
    7
 10
1230.0373134328354
 20
202.24084124830412
 11
2879.248203427308
 21
202.24084124830412
  0
LINE
  8
_0-0_
  6
CONTINUOUS
 62
    7
 10
1230.0373134328354
 20
147.69538670284939
 11
2879.248203427308
 21
147.69538670284939
  0
LINE
  8
_1-0_
  6
CONTINUOUS
 62
    7
 10
227.1935227567599
 20
1362.6465053393947
 11
418.48743623665979
 21
1156.3223558003597
  0
LINE
  8
_1-0_
  6
CONTINUOUS
 62
    7
 10
227.1935227567599
 20
1362.6465053393947
 11
252.58913724309903
 21
1346.6758207936018
  0
LINE
  8
_1-0_
  6
CONTINUOUS
 62
    7
 10
227.1935227567599
 20
1362.6465053393947
 11
241.2014277737492
 21
1336.1176795637409
  0
TEXT
  8
_1-0_
 62
    7
 10
426.68574681436979
 20
1123.5291134895199
 40
64
 41
1
 50
0
  1
2
  0
LINE
  8
_1-0_
  6
CONTINUOUS
 62
    7
 10
296.45216732470567
 20
1377.1074142750781
 11
549.68887183619245
 21
1254.1327556094279
  0
LINE
  8
_1-0_
  6
CONTINUOUS
 62
    7
 10
296.45216732470567
 20
1377.1074142750781
 11
325.91075608978639
 21
1371.4336546776108
  0
LINE
  8
_1-0_
  6
CONTINUOUS
 62
    7
 10
296.45216732470567
 20
1377.1074142750781
 11
319.12717375617109
 21
1357.4644999461652
  0
LINE
  8
_0-0_
  6
CONTINUOUS
 62
    7
 10
153.86959644472384
 20
1478.7595620823022
 11
277.79959644472353
 21
1478.7595620823022
  0
LINE
  8
_0-0_
  6
CONTINUOUS
 62
    7
 10
153.86959644472384
 20
1367.2225620823019
 11
277.79959644472353
 21
1367.2225620823019
  0
LINE
  8
_0-0_
  6
CONTINUOUS
 62
    7
 10
153.86959644472384
 20
1478.7595620823022
 11
153.86959644472384
 21
1470.7405620823024
  0
LINE
  8
_0-0_
  6
CONTINUOUS
 62
    7
 10
153.86959644472384
 20
1367.2225620823019
 11
153.86959644472384
 21
1375.2415620823022
  0
LINE
  8
_0-0_
  6
CONTINUOUS
 62
    7
 10
277.79959644472353
 20
1478.7595620823022
 11
216.56359644472383
 21
1478.7595620823022
  0
LINE
  8
_0-0_
  6
CONTINUOUS
 62
    7
 10
277.79959644472353
 20
1367.2225620823019
 11
216.56359644472383
 21
1367.2225620823019
  0
LINE
  8
_0-0_
  6
CONTINUOUS
 62
    7
 10
153.86959644472384
 20
1470.7405620823024
 11
216.56359644472383
 21
1470.7405620823024
  0
LINE
  8
_0-0_
  6
CONTINUOUS
 62
    7
 10
153.86959644472384
 20
1375.2415620823022
 11
216.56359644472383
 21
1375.2415620823022
  0
LINE
  8
_0-0_
  6
CONTINUOUS
 62
    7
 10
153.86959644472384
 20
1470.7405620823024
 11
153.86959644472384
 21
1451.0575620823024
  0
LINE
  8
_0-0_
  6
CONTINUOUS
 62
    7
 10
153.86959644472384
 20
1375.2415620823022
 11
153.86959644472384
 21
1394.9245620823021
  0
LINE
  8
_0-0_
  6
CONTINUOUS
 62
    7
 10
153.86959644472384
 20
1451.0575620823024
 11
153.86959644472384
 21
1433.1970620823022
  0
LINE
  8
_0-0_
  6
CONTINUOUS
 62
    7
 10
153.86959644472384
 20
1394.9245620823021
 11
153.86959644472384
 21
1412.7850620823024
  0
LINE
  8
_0-0_
  6
CONTINUOUS
 62
    7
 10
153.86959644472384
 20
1412.7850620823024
 11
216.56359644472383
 21
1412.7850620823024
  0
LINE
  8
_0-0_
  6
CONTINUOUS
 62
    7
 10
153.86959644472384
 20
1433.1970620823022
 11
216.56359644472383
 21
1433.1970620823022
  0
LINE
  8
_0-0_
  6
CONTINUOUS
 62
    7
 10
153.86959644472384
 20
1433.1970620823022
 11
153.86959644472384
 21
1412.7850620823024
  0
LINE
  8
_0-0_
  6
CONTINUOUS
 62
    7
 10
216.56359644472383
 20
1441.5805620823023
 11
182.30059644472382
 21
1441.5805620823023
  0
LINE
  8
_0-0_
  6
CONTINUOUS
 62
    7
 10
216.56359644472383
 20
1452.5155620823025
 11
182.30059644472382
 21
1452.5155620823025
  0
LINE
  8
_0-0_
  6
CONTINUOUS
 62
    7
 10
182.30059644472382
 20
1452.5155620823025
 11
182.30059644472382
 21
1441.5805620823023
  0
LINE
  8
_0-0_
  6
CONTINUOUS
 62
    7
 10
153.86959644472384
 20
1451.0575620823024
 11
182.30059644472382
 21
1451.0575620823024
  0
LINE
  8
_0-0_
  6
CONTINUOUS
 62
    7
 10
216.56359644472383
 20
1404.4015620823025
 11
182.30059644472382
 21
1404.4015620823025
  0
LINE
  8
_0-0_
  6
CONTINUOUS
 62
    7
 10
216.56359644472383
 20
1393.4665620823021
 11
182.30059644472382
 21
1393.4665620823021
  0
LINE
  8
_0-0_
  6
CONTINUOUS
 62
    7
 10
182.30059644472382
 20
1393.4665620823021
 11
182.30059644472382
 21
1404.4015620823025
  0
LINE
  8
_0-0_
  6
CONTINUOUS
 62
    7
 10
153.86959644472384
 20
1394.9245620823021
 11
182.30059644472382
 21
1394.9245620823021
  0
LINE
  8
_0-0_
  6
CONTINUOUS
 62
    7
 10
216.56359644472383
 20
1367.2225620823019
 11
216.56359644472383
 21
1478.7595620823022
  0
LINE
  8
_0-0_
  6
CONTINUOUS
 62
    7
 10
270.50959644472368
 20
1375.9705620823022
 11
270.50959644472368
 21
1394.1955620823021
  0
LINE
  8
_0-0_
  6
CONTINUOUS
 62
    7
 10
270.50959644472368
 20
1375.9705620823022
 11
263.21959644472383
 21
1375.9705620823022
  0
LINE
  8
_0-0_
  6
CONTINUOUS
 62
    7
 10
263.21959644472383
 20
1375.9705620823022
 11
263.21959644472383
 21
1394.1955620823021
  0
LINE
  8
_0-0_
  6
CONTINUOUS
 62
    7
 10
263.21959644472383
 20
1394.1955620823021
 11
270.50959644472368
 21
1394.1955620823021
  0
LINE
  8
_0-0_
  6
CONTINUOUS
 62
    7
 10
270.50959644472368
 20
1412.0560620823023
 11
263.21959644472383
 21
1412.0560620823023
  0
LINE
  8
_0-0_
  6
CONTINUOUS
 62
    7
 10
270.50959644472368
 20
1412.0560620823023
 11
270.50959644472368
 21
1433.9260620823022
  0
LINE
  8
_0-0_
  6
CONTINUOUS
 62
    7
 10
263.21959644472383
 20
1412.0560620823023
 11
263.21959644472383
 21
1433.9260620823022
  0
LINE
  8
_0-0_
  6
CONTINUOUS
 62
    7
 10
263.21959644472383
 20
1433.9260620823022
 11
270.50959644472368
 21
1433.9260620823022
  0
LINE
  8
_0-0_
  6
CONTINUOUS
 62
    7
 10
270.50959644472368
 20
1452.1510620823024
 11
263.21959644472383
 21
1452.1510620823024
  0
LINE
  8
_0-0_
  6
CONTINUOUS
 62
    7
 10
270.50959644472368
 20
1452.1510620823024
 11
270.50959644472368
 21
1470.3760620823023
  0
LINE
  8
_0-0_
  6
CONTINUOUS
 62
    7
 10
263.21959644472383
 20
1452.1510620823024
 11
263.21959644472383
 21
1470.3760620823023
  0
LINE
  8
_0-0_
  6
CONTINUOUS
 62
    7
 10
263.21959644472383
 20
1470.3760620823023
 11
270.50959644472368
 21
1470.3760620823023
  0
LINE
  8
_0-0_
  6
CONTINUOUS
 62
    7
 10
277.79959644472353
 20
1478.7595620823022
 11
277.79959644472353
 21
1367.2225620823019
  0
CIRCLE
  8
_0-0_
  6
CONTINUOUS
 62
    7
 10
240.43834644472366
 20
1422.9910620823021
 40
13.668750000000001
  0
CIRCLE
  8
_0-0_
  6
CONTINUOUS
 62
    7
 10
240.43834644472366
 20
1385.0830620823021
 40
13.668750000000001
  0
CIRCLE
  8
_0-0_
  6
CONTINUOUS
 62
    7
 10
240.43834644472366
 20
1461.2635620823023
 40
13.668750000000001
  0
LINE
  8
_1-0_
  6
CONTINUOUS
 62
    7
 10
288.61134572550895
 20
1387.8024518003781
 11
288.61134572550895
 21
1382.3636723642257
  0
LINE
  8
_1-0_
  6
CONTINUOUS
 62
    7
 10
305.19999603591447
 20
1390.2942931332661
 11
305.19999603591447
 21
1379.8718310313388
  0
LINE
  8
_1-0_
  6
CONTINUOUS
 62
    7
 10
288.61134572550895
 20
1382.3636723642257
 11
291.94996547541092
 21
1379.8718310313388
  0
LINE
  8
_1-0_
  6
CONTINUOUS
 62
    7
 10
291.94996547541092
 20
1379.8718310313388
 11
305.19999603591447
 21
1379.8718310313388
  0
LINE
  8
_1-0_
  6
CONTINUOUS
 62
    7
 10
288.61134572550895
 20
1387.8024518003781
 11
291.94996547541092
 21
1390.2942931332661
  0
LINE
  8
_1-0_
  6
CONTINUOUS
 62
    7
 10
291.94996547541092
 20
1390.2942931332661
 11
305.19999603591447
 21
1390.2942931332661
  0
LINE
  8
_1-0_
  6
CONTINUOUS
 62
    7
 10
291.94996547541092
 20
1390.2942931332661
 11
291.94996547541092
 21
1379.8718310313388
  0
LINE
  8
_1-0_
  6
CONTINUOUS
 62
    7
 10
305.19999603591447
 20
1384.7667555302123
 11
595.19026148301862
 21
1398.6063675245646
  0
LINE
  8
_1-0_
  6
CONTINUOUS
 62
    7
 10
277.79959644472353
 20
1387.8024518003781
 11
288.61134572550895
 21
1387.8024518003781
  0
LINE
  8
_1-0_
  6
CONTINUOUS
 62
    7
 10
288.61134572550895
 20
1382.3636723642257
 11
277.79959644472353
 21
1382.3636723642257
  0
LINE
  8
_1-0_
  6
CONTINUOUS
 62
    7
 10
278.36136990938883
 20
1463.9829518003783
 11
288.33246554233466
 21
1463.9829518003783
  0
LINE
  8
_1-0_
  6
CONTINUOUS
 62
    7
 10
288.33246554233466
 20
1458.5441723642257
 11
278.36136990938883
 21
1458.5441723642257
  0
LINE
  8
_1-0_
  6
CONTINUOUS
 62
    7
 10
288.33246554233466
 20
1463.9829518003783
 11
288.33246554233466
 21
1458.5441723642257
  0
LINE
  8
_1-0_
  6
CONTINUOUS
 62
    7
 10
304.92111585274
 20
1466.4747931332658
 11
304.92111585274
 21
1456.0523310313383
  0
LINE
  8
_1-0_
  6
CONTINUOUS
 62
    7
 10
288.33246554233466
 20
1458.5441723642257
 11
291.67108529223646
 21
1456.0523310313383
  0
LINE
  8
_1-0_
  6
CONTINUOUS
 62
    7
 10
291.67108529223646
 20
1456.0523310313383
 11
304.92111585274
 21
1456.0523310313383
  0
LINE
  8
_1-0_
  6
CONTINUOUS
 62
    7
 10
288.33246554233466
 20
1463.9829518003783
 11
291.67108529223646
 21
1466.4747931332658
  0
LINE
  8
_1-0_
  6
CONTINUOUS
 62
    7
 10
291.67108529223646
 20
1466.4747931332658
 11
304.92111585274
 21
1466.4747931332658
  0
LINE
  8
_1-0_
  6
CONTINUOUS
 62
    7
 10
291.67108529223646
 20
1466.4747931332658
 11
291.67108529223646
 21
1456.0523310313383
  0
LINE
  8
_0-0_
  6
CONTINUOUS
 62
    7
 10
304.92111585274
 20
1461.2635620823021
 11
595.19026148302146
 21
1426.8906387720342
  0
LINE
  8
_1-0_
  6
CONTINUOUS
 62
    7
 10
277.79959644472353
 20
1419.9997333924184
 11
288.76780164096436
 21
1419.9997333924184
  0
LINE
  8
_1-0_
  6
CONTINUOUS
 62
    7
 10
288.76780164096436
 20
1425.9823907721866
 11
277.79959644472353
 21
1425.9823907721866
  0
LINE
  8
_1-0_
  6
CONTINUOUS
 62
    7
 10
288.76780164096436
 20
1419.9997333924184
 11
288.76780164096436
 21
1425.9823907721866
  0
LINE
  8
_1-0_
  6
CONTINUOUS
 62
    7
 10
307.01531698241064
 20
1417.2587079262421
 11
307.01531698241064
 21
1428.723416238362
  0
LINE
  8
_1-0_
  6
CONTINUOUS
 62
    7
 10
288.76780164096436
 20
1425.9823907721866
 11
292.44028336585626
 21
1428.723416238362
  0
LINE
  8
_1-0_
  6
CONTINUOUS
 62
    7
 10
292.44028336585626
 20
1428.723416238362
 11
307.01531698241064
 21
1428.723416238362
  0
LINE
  8
_1-0_
  6
CONTINUOUS
 62
    7
 10
288.76780164096436
 20
1419.9997333924184
 11
292.44028336585626
 21
1417.2587079262421
  0
LINE
  8
_1-0_
  6
CONTINUOUS
 62
    7
 10
292.44028336585626
 20
1417.2587079262421
 11
292.44028336585626
 21
1428.723416238362
  0
LINE
  8
_0-0_
  6
CONTINUOUS
 62
    7
 10
307.01531698241064
 20
1422.9910620823021
 11
595.19026148301828
 21
1413.8232725895859
  0
LINE
  8
_1-0_
  6
CONTINUOUS
 62
    7
 10
279.42046454967897
 20
1509.267761818282
 11
279.42046454967897
 21
1792.8617886664204
  0
TEXT
  8
_1-0_
 62
    7
 10
1112.2077114427852
 20
584.05902306648579
 40
40
 41
1
 50
0
  1
1
  0
TEXT
  8
_1-0_
 62
    7
 10
1112.2077114427852
 20
529.51356852103129
 40
40
 41
1
 50
0
  1
1
  0
TEXT
  8
_1-0_
 62
    7
 10
1112.2077114427852
 20
474.96811397557678
 40
40
 41
1
 50
0
  1
3
  0
LINE
  8
_0-0_
  6
CONTINUOUS
 62
    7
 10
2487.1206115515288
 20
699.00331661543441
 11
2637.1206115515288
 21
699.00331661543441
  0
LINE
  8
_0-0_
  6
CONTINUOUS
 62
    7
 10
2637.1206115515288
 20
699.00331661543441
 11
2637.1206115515288
 21
759.00331661543441
  0
LINE
  8
_0-0_
  6
CONTINUOUS
 62
    7
 10
2637.1206115515288
 20
759.00331661543441
 11
2487.1206115515288
 21
759.00331661543441
  0
LINE
  8
_0-0_
  6
CONTINUOUS
 62
    7
 10
2487.1206115515288
 20
759.00331661543441
 11
2487.1206115515288
 21
699.00331661543441
  0
LINE
  8
_0-0_
  6
CONTINUOUS
 62
    7
 10
2487.1206115515288
 20
639.00331661543441
 11
2637.1206115515288
 21
639.00331661543441
  0
LINE
  8
_0-0_
  6
CONTINUOUS
 62
    7
 10
2637.1206115515288
 20
639.00331661543441
 11
2637.1206115515288
 21
699.00331661543441
  0
LINE
  8
_0-0_
  6
CONTINUOUS
 62
    7
 10
2637.1206115515288
 20
699.00331661543441
 11
2487.1206115515288
 21
699.00331661543441
  0
LINE
  8
_0-0_
  6
CONTINUOUS
 62
    7
 10
2487.1206115515288
 20
699.00331661543441
 11
2487.1206115515288
 21
639.00331661543441
  0
LINE
  8
_0-0_
  6
CONTINUOUS
 62
    7
 10
2487.1206115515288
 20
579.00331661543441
 11
2637.1206115515288
 21
579.00331661543441
  0
LINE
  8
_0-0_
  6
CONTINUOUS
 62
    7
 10
2637.1206115515288
 20
579.00331661543441
 11
2637.1206115515288
 21
639.00331661543441
  0
LINE
  8
_0-0_
  6
CONTINUOUS
 62
    7
 10
2637.1206115515288
 20
639.00331661543441
 11
2487.1206115515288
 21
639.00331661543441
  0
LINE
  8
_0-0_
  6
CONTINUOUS
 62
    7
 10
2487.1206115515288
 20
639.00331661543441
 11
2487.1206115515288
 21
579.00331661543441
  0
LINE
  8
_0-0_
  6
CONTINUOUS
 62
    7
 10
2487.1206115515288
 20
519.00331661543441
 11
2637.1206115515288
 21
519.00331661543441
  0
LINE
  8
_0-0_
  6
CONTINUOUS
 62
    7
 10
2637.1206115515288
 20
519.00331661543441
 11
2637.1206115515288
 21
579.00331661543441
  0
LINE
  8
_0-0_
  6
CONTINUOUS
 62
    7
 10
2637.1206115515288
 20
579.00331661543441
 11
2487.1206115515288
 21
579.00331661543441
  0
LINE
  8
_0-0_
  6
CONTINUOUS
 62
    7
 10
2487.1206115515288
 20
579.00331661543441
 11
2487.1206115515288
 21
519.00331661543441
  0
TEXT
  8
_0-0_
 62
    7
 10
2549.7876557191394
 20
644.91498139459645
 40
45
 41
1
 50
0
  1
1
  0
TEXT
  8
_0-0_
 62
    7
 10
2549.7876557191394
 20
586.61373564148198
 40
45
 41
1
 50
0
  1
2
  0
TEXT
  8
_0-0_
 62
    7
 10
2548.6664779161947
 20
527.19131208542308
 40
45
 41
1
 50
0
  1
3
  0
TEXT
  8
_1-0_
 62
    7
 10
2509.4252548131367
 20
766.00218411260312
 40
40
 41
1
 50
0
  1
R2-4S
  0
TEXT
  8
_0-0_
 62
    7
 10
2495.9711211778031
 20
704.33740495065513
 40
45
 41
0.8888888888888888
 50
0
  1
Pin No.
  0
LINE
  8
_0-0_
  6
CONTINUOUS
 62
    7
 10
1759.6061013590031
 20
699.00331661543441
 11
1909.6061013590031
 21
699.00331661543441
  0
LINE
  8
_0-0_
  6
CONTINUOUS
 62
    7
 10
1909.6061013590031
 20
699.00331661543441
 11
1909.6061013590031
 21
759.00331661543441
  0
LINE
  8
_0-0_
  6
CONTINUOUS
 62
    7
 10
1909.6061013590031
 20
759.00331661543441
 11
1759.6061013590031
 21
759.00331661543441
  0
LINE
  8
_0-0_
  6
CONTINUOUS
 62
    7
 10
1759.6061013590031
 20
759.00331661543441
 11
1759.6061013590031
 21
699.00331661543441
  0
LINE
  8
_0-0_
  6
CONTINUOUS
 62
    7
 10
1759.6061013590031
 20
639.00331661543441
 11
1909.6061013590031
 21
639.00331661543441
  0
LINE
  8
_0-0_
  6
CONTINUOUS
 62
    7
 10
1909.6061013590031
 20
639.00331661543441
 11
1909.6061013590031
 21
699.00331661543441
  0
LINE
  8
_0-0_
  6
CONTINUOUS
 62
    7
 10
1909.6061013590031
 20
699.00331661543441
 11
1759.6061013590031
 21
699.00331661543441
  0
LINE
  8
_0-0_
  6
CONTINUOUS
 62
    7
 10
1759.6061013590031
 20
699.00331661543441
 11
1759.6061013590031
 21
639.00331661543441
  0
LINE
  8
_0-0_
  6
CONTINUOUS
 62
    7
 10
1759.6061013590031
 20
579.00331661543441
 11
1909.6061013590031
 21
579.00331661543441
  0
LINE
  8
_0-0_
  6
CONTINUOUS
 62
    7
 10
1909.6061013590031
 20
579.00331661543441
 11
1909.6061013590031
 21
639.00331661543441
  0
LINE
  8
_0-0_
  6
CONTINUOUS
 62
    7
 10
1909.6061013590031
 20
639.00331661543441
 11
1759.6061013590031
 21
639.00331661543441
  0
LINE
  8
_0-0_
  6
CONTINUOUS
 62
    7
 10
1759.6061013590031
 20
639.00331661543441
 11
1759.6061013590031
 21
579.00331661543441
  0
LINE
  8
_0-0_
  6
CONTINUOUS
 62
    7
 10
1759.6061013590031
 20
519.00331661543441
 11
1909.6061013590031
 21
519.00331661543441
  0
LINE
  8
_0-0_
  6
CONTINUOUS
 62
    7
 10
1909.6061013590031
 20
519.00331661543441
 11
1909.6061013590031
 21
579.00331661543441
  0
LINE
  8
_0-0_
  6
CONTINUOUS
 62
    7
 10
1909.6061013590031
 20
579.00331661543441
 11
1759.6061013590031
 21
579.00331661543441
  0
LINE
  8
_0-0_
  6
CONTINUOUS
 62
    7
 10
1759.6061013590031
 20
579.00331661543441
 11
1759.6061013590031
 21
519.00331661543441
  0
TEXT
  8
_0-0_
 62
    7
 10
1822.2731455266137
 20
644.91498139459645
 40
45
 41
1
 50
0
  1
1
  0
TEXT
  8
_0-0_
 62
    7
 10
1822.2731455266137
 20
586.61373564148198
 40
45
 41
1
 50
0
  1
2
  0
TEXT
  8
_0-0_
 62
    7
 10
1821.1519677236693
 20
527.19131208542308
 40
45
 41
1
 50
0
  1
3
  0
TEXT
  8
_0-0_
 62
    7
 10
1768.4566109852772
 20
704.33740495065513
 40
45
 41
0.8888888888888888
 50
0
  1
Pin No.
  0
TEXT
  8
_1-0_
 62
    7
 10
1721.2372593431483
 20
773.85042873321459
 40
40
 41
1
 50
0
  1
2EDG5.08-3P
  0
LINE
  8
_0-0_
  6
CONTINUOUS
 62
    7
 10
1909.6061013590031
 20
669.00331661543441
 11
2487.1206115515288
 21
669.00331661543441
  0
LINE
  8
_0-0_
  6
CONTINUOUS
 62
    7
 10
2487.1206115515288
 20
609.00331661543441
 11
1909.6061013590031
 21
609.00331661543441
  0
LINE
  8
_0-0_
  6
CONTINUOUS
 62
    7
 10
1909.6061013590031
 20
549.00331661543441
 11
2487.1206115515288
 21
549.00331661543441
  0
LINE
  8
_1-0_
  6
CONTINUOUS
 62
    7
 10
2492.3242657248693
 20
1682.8700805403846
 11
2492.3242657248693
 21
1792.8617886664204
  0
LINE
  8
_1-0_
  6
CONTINUOUS
 62
    7
 10
2492.3242657248693
 20
1733.30954986045
 11
2075.6851976390017
 21
1733.30954986045
  0
LINE
  8
_1-0_
  6
CONTINUOUS
 62
    7
 10
2075.6851976390017
 20
1466.1370788820091
 11
2075.6851976390017
 21
1733.30954986045
  0
LINE
  8
_1-0_
  6
CONTINUOUS
 62
    7
 10
2326.4314662957186
 20
1466.1370788820091
 11
2326.4314662957186
 21
1617.3394006067185
  0
LINE
  8
_1-0_
  6
CONTINUOUS
 62
    7
 10
1880.185288064788
 20
1460.0425515188249
 11
1880.185288064788
 21
1526.4438782186589
  0
LINE
  8
_1-0_
  6
CONTINUOUS
 62
    7
 10
2201.0583319673601
 20
1466.1370788820091
 11
2201.0583319673601
 21
1526.4438782186589
  0
LINE
  8
_1-0_
  6
CONTINUOUS
 62
    7
 10
595.19026148301828
 20
1466.1370788820091
 11
595.19026148301828
 21
1617.3394006067185
  0
LINE
  8
_1-0_
  6
CONTINUOUS
 62
    7
 10
845.93653013973494
 20
1466.1370788820091
 11
845.93653013973494
 21
1617.3394006067185
  0
LINE
  8
_1-0_
  6
CONTINUOUS
 62
    7
 10
720.56339581137661
 20
1466.1370788820091
 11
720.56339581137661
 21
1526.4438782186589
  0
TEXT
  8
_1-0_
 62
    7
 10
100.03731343283545
 20
529.51356852103129
 40
40
 41
1
 50
0
  1
 コネクター
  0
TEXT
  8
_1-0_
 62
    7
 10
100.03731343283545
 20
474.96811397557678
 40
40
 41
1
 50
0
  1
 圧着端子
  0
TEXT
  8
_1-0_
 62
    7
 10
398.6567164179105
 20
474.96811397557678
 40
40
 41
1
 50
0
  1
R2-4S
  0
TEXT
  8
_1-0_
 62
    7
 10
398.6567164179105
 20
529.51356852103129
 40
40
 41
1
 50
0
  1
2EDG5.08-3P
  0
TEXT
  8
_1-0_
 62
    7
 10
398.6567164179105
 20
584.05902306648579
 40
40
 41
1
 50
0
  1
VCTF AWG16 3芯
  0
TEXT
  8
_1-0_
 62
    7
 10
1112.2077114427852
 20
420.42265943012217
 40
40
 41
1
 50
0
  1
2
  0
TEXT
  8
_1-0_
 62
    7
 10
1112.2077114427852
 20
365.87720488466761
 40
40
 41
1
 50
0
  1
1
  0
TEXT
  8
_1-0_
 62
    7
 10
1112.2077114427852
 20
311.33175033921316
 40
40
 41
1
 50
0
  1
3
  0
TEXT
  8
_1-0_
 62
    7
 10
398.6567164179105
 20
311.33175033921316
 40
40
 41
1
 50
0
  1
MTRE 0.75-8GY
  0
TEXT
  8
_1-0_
 62
    7
 10
398.6567164179105
 20
365.87720488466761
 40
40
 41
1
 50
0
  1
テプラ9mm [AC-Laser Cable]
  0
TEXT
  8
_1-0_
 62
    7
 10
398.6567164179105
 20
420.42265943012217
 40
40
 41
1
 50
0
  1
8Φ 20mmCUT
  0
TEXT
  8
_1-0_
 62
    7
 10
100.03731343283545
 20
420.42265943012217
 40
40
 41
1
 50
0
  1
 収縮チューブ
  0
TEXT
  8
_1-0_
 62
    7
 10
100.03731343283545
 20
365.87720488466761
 40
40
 41
1
 50
0
  1
 表示
  0
TEXT
  8
_1-0_
 62
    7
 10
100.03731343283545
 20
311.33175033921316
 40
40
 41
1
 50
0
  1
 圧着ピン
  0
TEXT
  8
_1-0_
 62
    7
 10
2066.5600226500565
 20
774.97160653615924
 40
40
 41
1
 50
0
  1
VCTF AWG16 3芯
  0
TEXT
  8
_1-0_
 62
    7
 10
2188.3633564552656
 20
669.00331661543441
 40
40
 41
1
 50
0
  1
Red
  0
TEXT
  8
_0-0_
 62
    7
 10
2754.4172028504208
 20
1618.5214518295238
 40
40
 41
1
 50
0
  1
Red
  0
TEXT
  8
_0-0_
 62
    7
 10
2734.4172028504208
 20
1392.3496308045214
 40
40
 41
1
 50
0
  1
White
  0
TEXT
  8
_0-0_
 62
    7
 10
2734.4172028504208
 20
1179.2153024463125
 40
40
 41
1
 50
0
  1
Black
  0
TEXT
  8
_1-0_
 62
    7
 10
95.551058530510375
 20
1453.2983494730579
 40
30
 41
1
 50
0
  1
Red
  0
TEXT
  8
_1-0_
 62
    7
 10
65.55105853051063
 20
1409.4177524581328
 40
30
 41
1
 50
0
  1
White
  0
TEXT
  8
_1-0_
 62
    7
 10
65.55105853051063
 20
1362.4028270849985
 40
30
 41
1
 50
0
  1
Black
  0
TEXT
  8
_1-0_
 62
    7
 10
2168.3633564552661
 20
609.00331661543441
 40
40
 41
1
 50
0
  1
White
  0
TEXT
  8
_1-0_
 62
    7
 10
2168.3633564552661
 20
549.00331661543441
 40
40
 41
1
 50
0
  1
Black
  0
TEXT
  8
_1-0_
 62
    7
 10
1267.0334160618313
 20
1760.3499674268478
 40
64
 41
1
 50
0
  1
320±10
  0
LINE
  8
_1-0_
  6
CONTINUOUS
 62
    7
 10
279.42046454967897
 20
1792.8617886664204
 11
1238.4204199529531
 21
1792.8617886664204
  0
LINE
  8
_1-0_
  6
CONTINUOUS
 62
    7
 10
2492.3242657248693
 20
1792.8617886664204
 11
1517.8973813477228
 21
1792.8617886664204
  0
TEXT
  8
_1-0_
 62
    7
 10
886.51047839600869
 20
1189.6897586067539
 40
64
 41
1
 50
0
  1
4
  0
TEXT
  8
_1-0_
 62
    7
 10
2020.0925679482475
 20
1096.4434899500375
 40
64
 41
1
 50
0
  1
5
  0
TEXT
  8
_1-0_
 62
    7
 10
556.97625901637912
 20
1210.4084325283081
 40
64
 41
1
 50
0
  1
6
  0
TEXT
  8
_0-0_
 62
    7
 10
1510.5646359583952
 20
55.807578008915243
 40
64
 41
1
 50
0
  1
FABOOL Laser Co2
  0
TEXT
  8
_1-0_
 62
    7
 10
1959.4776119402986
 20
262.41873963515752
 40
40
 41
1
 50
0
  1
2
  0
TEXT
  8
_0-0_
 62
    7
 10
1665.7066383008155
 20
847.72240671555778
 40
35
 41
1
 50
0
  1
Laser power supply
  0
TEXT
  8
_0-0_
 62
    7
 10
2436.6219558599687
 20
847.7224067155579
 40
35
 41
1
 50
0
  1
Terminal block
  0
TEXT
  8
_1-0_
 62
    7
 10
100.03731343283525
 20
584.05902306648579
 40
40
 41
1
 50
0
  1
 Cable
  0
TEXT
  8
_0-0_
 62
    7
 10
469.67039800994951
 20
653.93407960199033
 40
40
 41
1
 50
0
  1
型式
  0
TEXT
  8
_0-0_
 62
    7
 10
2290.8259251802765
 20
154.70773855156676
 40
40
 41
1
 50
0
  1
日付
  0
TEXT
  8
_0-0_
 62
    7
 10
2170.8529645772787
 20
55.318919791522603
 40
70
 41
1
 50
0
  1
2018/05/06
  0
TEXT
  8
_0-0_
 62
    7
 10
1931.7974263179744
 20
210.06973848069751
 40
40
 41
1
 50
0
  1
Ver.
  0
TEXT
  8
_0-0_
 62
    7
 10
1941.4438225538968
 20
154.96811397557661
 40
40
 41
1
 50
0
  1
5.0
  0
TEXT
  8
_1-0_
 62
    7
 10
1596.1828358208954
 20
389.00000000000011
 40
35
 41
1
 50
0
  1
AC-Laser Cable_ver.5.0
  0
TEXT
  8
_1-0_
 62
    7
 10
1810.8582089552237
 20
1437.4406508002403
 40
30
 41
1
 50
-90
  1
AC-Laser Ver.5.0
  0
ENDSEC
  0
EOF
