  0
SECTION
  2
HEADER
  9
$ACADVER
  1
AC1009
  9
$INSBASE
 10
0
 20
0
 30
0
  9
$EXTMIN
 10
0
 20
0
  9
$EXTMAX
 10
2940
 20
2079
  9
$LIMMIN
 10
0
 20
0
  9
$LIMMAX
 10
2940
 20
2079
  9
$LTSCALE
 40
7
  0
ENDSEC
  0
SECTION
  2
TABLES
  0
TABLE
  2
LTYPE
 70
     9
  0
LTYPE
  2
CONTINUOUS
 70
    64
  3
実線
 72
    65
 73
     0
 40
0.0
  0
LTYPE
  2
DASHED1
 70
    64
  3
--  --  --  --  --  --  --  --  
 72
    65
 73
     2
 40
2.5
 49
1.25
 49
-1.25
  0
LTYPE
  2
DASHED2
 70
    64
  3
----    ----    ----    ----    
 72
    65
 73
     2
 40
5.0
 49
2.5
 49
-2.5
  0
LTYPE
  2
DASHED3
 70
    64
  3
------  ------  ------  ------  
 72
    65
 73
     2
 40
5.0
 49
3.75
 49
-1.25
  0
LTYPE
  2
CENTER1
 70
    64
  3
----- - ----- - ----- - ----- - 
 72
    65
 73
     4
 40
10.0
 49
6.25
 49
-1.25
 49
1.25
 49
-1.25
  0
LTYPE
  2
CENTER2
 70
    64
  3
----------  --  ----------  --  
 72
    65
 73
     4
 40
20.0
 49
12.5
 49
-2.5
 49
2.5
 49
-2.5
  0
LTYPE
  2
PHANTOM1
 70
    64
  3
--- - - --- - - --- - - --- - - 
 72
    65
 73
     6
 40
10.0
 49
3.25
 49
-1.25
 49
1.25
 49
-1.25
 49
1.25
 49
-1.25
  0
LTYPE
  2
PHANTOM2
 70
    64
  3
--------  -  -  --------  -  -  
 72
    65
 73
     6
 40
20.0
 49
10.0
 49
-2.5
 49
1.25
 49
-2.5
 49
1.25
 49
-2.5
  0
LTYPE
  2
DOT
 70
    64
  3
-   -   -   -   -   -   -   -   
 72
    65
 73
     2
 40
2.5
 49
0.625
 49
-1.875
  0
LTYPE
  2
DUMMY
 70
    64
  3
ダミー
 72
    65
 73
     0
 40
0.0
  0
LTYPE
  2
RAND1
 70
    64
  3
ランダム線1
 72
    65
 73
     4
 40
10.0
 49
1.0
 49
-2.0
 49
3.0
 49
-4.0
  0
LTYPE
  2
RAND2
 70
    64
  3
ランダム線2
 72
    65
 73
     4
 40
14.0
 49
2.0
 49
-3.0
 49
4.0
 49
-5.0
  0
LTYPE
  2
RAND3
 70
    64
  3
ランダム線3
 72
    65
 73
     4
 40
18.0
 49
3.0
 49
-4.0
 49
5.0
 49
-6.0
  0
LTYPE
  2
RAND4
 70
    64
  3
ランダム線4
 72
    65
 73
     4
 40
22.0
 49
4.0
 49
-5.0
 49
6.0
 49
-7.0
  0
LTYPE
  2
RAND5
 70
    64
  3
ランダム線5
 72
    65
 73
     4
 40
26.0
 49
5.0
 49
-6.0
 49
7.0
 49
-8.0
  0
LTYPE
  2
LONG1
 70
    64
  3
----------  --  ----------  --  
 72
    65
 73
     4
 40
40.0
 49
32.5
 49
-2.5
 49
2.5
 49
-2.5
  0
LTYPE
  2
LONG2
 70
    64
  3
--------  -  -  --------  -  -  
 72
    65
 73
     6
 40
40.0
 49
30.0
 49
-2.5
 49
1.25
 49
-2.5
 49
1.25
 49
-2.5
  0
LTYPE
  2
LONG3
 70
    64
  3
+++++++++++++++..+++++++++++++++
 72
    65
 73
     2
 40
40.0
 49
37.5
 49
-2.5
  0
LTYPE
  2
LONG4
 70
    64
  3
+++++++++++++++..+++++++++++++++
 72
    65
 73
     2
 40
80.0
 49
75.0
 49
-5.0
  0
LTYPE
  2
LONG5
 70
    64
  3
----------  --  ----------  --  
 72
    65
 73
     4
 40
60.0
 49
37.5
 49
-7.5
 49
7.5
 49
-7.5
  0
LTYPE
  2
dashed
 70
   64
  3
-------   -------------   ------
 72
   65
 73
    2
 40
7.5
 49
6
 49
-1.5
  0
LTYPE
  2
dashed_spaced
 70
   64
  3
----        --------        ----
 72
   65
 73
    2
 40
12
 49
6
 49
-6
  0
LTYPE
  2
long_dashed_dotted
 70
   64
  3
------------- --- --------------
 72
   65
 73
    4
 40
15.25
 49
12
 49
-1.5
 49
0.25
 49
-1.5
  0
LTYPE
  2
long_dashed_double-dotted
 70
   64
  3
----------- --- --- ------------
 72
   65
 73
    6
 40
17
 49
12
 49
-1.5
 49
0.25
 49
-1.5
 49
0.25
 49
-1.5
  0
LTYPE
  2
long_dashed_triplicate-dotted
 70
   64
  3
--------- --- --- --- ----------
 72
   65
 73
    8
 40
18.75
 49
12
 49
-1.5
 49
0.25
 49
-1.5
 49
0.25
 49
-1.5
 49
0.25
 49
-1.5
  0
LTYPE
  2
dotted
 70
   64
  3
   -       -       -       -    
 72
   65
 73
    2
 40
1.75
 49
0.25
 49
-1.5
  0
LTYPE
  2
chain
 70
   64
  3
-------------- -- --------------
 72
   65
 73
    4
 40
18.5
 49
12
 49
-1.5
 49
3.5
 49
-1.5
  0
LTYPE
  2
chain_double_dash
 70
   64
  3
------------ -- -- -------------
 72
   65
 73
    6
 40
23.5
 49
12
 49
-1.5
 49
3.5
 49
-1.5
 49
3.5
 49
-1.5
  0
LTYPE
  2
dashed_dotted
 70
   64
  3
-----------     -     ----------
 72
   65
 73
    4
 40
9.25
 49
6
 49
-1.5
 49
0.25
 49
-1.5
  0
LTYPE
  2
double-dashed_dotted
 70
   64
  3
------   -----------   -   -----
 72
   65
 73
    6
 40
16.75
 49
6
 49
-1.5
 49
6
 49
-1.5
 49
0.25
 49
-1.5
  0
LTYPE
  2
dashed_double-dotted
 70
   64
  3
---------    -    -    ---------
 72
   65
 73
    6
 40
11
 49
6
 49
-1.5
 49
0.25
 49
-1.5
 49
0.25
 49
-1.5
  0
LTYPE
  2
double-dashed_double-dotted
 70
   64
  3
-----   ---------   -   -   ----
 72
   65
 73
    8
 40
18.5
 49
6
 49
-1.5
 49
6
 49
-1.5
 49
0.25
 49
-1.5
 49
0.25
 49
-1.5
  0
LTYPE
  2
dashed_triplicate-dotted
 70
   64
  3
-------    -    -    -    ------
 72
   65
 73
    8
 40
12.75
 49
6
 49
-1.5
 49
0.25
 49
-1.5
 49
0.25
 49
-1.5
 49
0.25
 49
-1.5
  0
LTYPE
  2
double-dashed_triplicate-dotted
 70
   64
  3
-----  ---------  -  -  -  -----
 72
   65
 73
   10
 40
20.25
 49
6
 49
-1.5
 49
6
 49
-1.5
 49
0.25
 49
-1.5
 49
0.25
 49
-1.5
 49
0.25
 49
-1.5
  0
LTYPE
  2
undefined
 70
   64
  3
--------------------------------
 72
   65
 73
    0
 40
0
  0
LTYPE
  2
_
 70
   64
  3
                                
 72
   65
 73
    0
 40
0
  0
LTYPE
  2
__18
 70
   64
  3
                                
 72
   65
 73
    0
 40
0
  0
LTYPE
  2
__19
 70
   64
  3
                                
 72
   65
 73
    0
 40
0
  0
LTYPE
  2
__20
 70
   64
  3
                                
 72
   65
 73
    0
 40
0
  0
LTYPE
  2
__21
 70
   64
  3
                                
 72
   65
 73
    0
 40
0
  0
LTYPE
  2
__22
 70
   64
  3
                                
 72
   65
 73
    0
 40
0
  0
LTYPE
  2
__23
 70
   64
  3
                                
 72
   65
 73
    0
 40
0
  0
LTYPE
  2
__24
 70
   64
  3
                                
 72
   65
 73
    0
 40
0
  0
LTYPE
  2
__25
 70
   64
  3
                                
 72
   65
 73
    0
 40
0
  0
LTYPE
  2
__26
 70
   64
  3
                                
 72
   65
 73
    0
 40
0
  0
LTYPE
  2
__27
 70
   64
  3
                                
 72
   65
 73
    0
 40
0
  0
LTYPE
  2
__28
 70
   64
  3
                                
 72
   65
 73
    0
 40
0
  0
LTYPE
  2
__29
 70
   64
  3
                                
 72
   65
 73
    0
 40
0
  0
LTYPE
  2
__30
 70
   64
  3
                                
 72
   65
 73
    0
 40
0
  0
LTYPE
  2
__31
 70
   64
  3
                                
 72
   65
 73
    0
 40
0
  0
LTYPE
  2
__32
 70
   64
  3
                                
 72
   65
 73
    0
 40
0
  0
ENDTAB
  0
TABLE
  2
STYLE
  5
3
100
AcDbSymbolTable
 70
     1
  0
STYLE
  5
10
100
AcDbSymbolTableRecord
100
AcDbTextStyleTableRecord
  2
STANDARD
 70
     0
 40
0.0
 41
1.0
 50
0.0
 71
     0
 42
0.2
  3
txt
  4
bigfont.shx
  0
STYLE
  5
26
100
AcDbSymbolTableRecord
100
AcDbTextStyleTableRecord
  2
TATEGAKI
 70
    68
 40
0.0
 41
1.0
 50
0.0
 71
     0
 42
1.0
  3
txt
  4
bigfont.shx
  0
ENDTAB
  0
TABLE
  2
LAYER
 70
    4
  0
LAYER
  2
_0-0_
 70
   64
 62
    7
  6
CONTINUOUS
  0
LAYER
  2
_1-0_
 70
   64
 62
    7
  6
CONTINUOUS
  0
LAYER
  2
_1-1_
 70
   64
 62
    7
  6
CONTINUOUS
  0
LAYER
  2
ADD_LINE
 70
   64
 62
    7
  6
CONTINUOUS
  0
ENDTAB
  0
ENDSEC
  0
SECTION
  2
BLOCKS
  0
ENDSEC
  0
SECTION
  2
ENTITIES
  0
LINE
  8
_0-0_
  6
CONTINUOUS
 62
    7
 10
2440.7059267648169
 20
674.62457531143809
 11
2590.7059267648174
 21
674.62457531143809
  0
TEXT
  8
_1-1_
 62
    7
 10
1115.7206636570222
 20
592.77450325532868
 40
40
 41
1
 50
0
  1
1
  0
LINE
  8
_0-0_
  6
CONTINUOUS
 62
    7
 10
30.037313432835447
 20
2027.3358208955226
 11
30.037313432835447
 21
38.604477611940325
  0
LINE
  8
_0-0_
  6
CONTINUOUS
 62
    7
 10
1230.0373134328354
 20
708.60447761194041
 11
30.037313432835447
 21
708.60447761194041
  0
LINE
  8
_0-0_
  6
CONTINUOUS
 62
    7
 10
1230.0373134328354
 20
708.60447761194041
 11
1230.0373134328354
 21
682.14303482587115
  0
LINE
  8
_0-0_
  6
CONTINUOUS
 62
    7
 10
1230.0373134328354
 20
682.14303482587115
 11
1230.0373134328354
 21
38.604477611940325
  0
LINE
  8
_0-0_
  6
CONTINUOUS
 62
    7
 10
1230.0373134328354
 20
584.05902306648579
 11
30.037313432835447
 21
584.05902306648579
  0
LINE
  8
_0-0_
  6
CONTINUOUS
 62
    7
 10
1230.0373134328354
 20
529.51356852103129
 11
30.037313432835447
 21
529.51356852103129
  0
LINE
  8
_0-0_
  6
CONTINUOUS
 62
    7
 10
1230.0373134328354
 20
474.96811397557678
 11
30.037313432835447
 21
474.96811397557678
  0
LINE
  8
_0-0_
  6
CONTINUOUS
 62
    7
 10
1230.0373134328354
 20
638.60447761194041
 11
30.037313432835447
 21
638.60447761194041
  0
LINE
  8
_0-0_
  6
CONTINUOUS
 62
    7
 10
1230.0373134328354
 20
420.42265943012217
 11
30.037313432835447
 21
420.42265943012217
  0
LINE
  8
_0-0_
  6
CONTINUOUS
 62
    7
 10
1230.0373134328354
 20
365.87720488466761
 11
30.037313432835447
 21
365.87720488466761
  0
LINE
  8
_0-0_
  6
CONTINUOUS
 62
    7
 10
1230.0373134328354
 20
311.33175033921316
 11
30.037313432835447
 21
311.33175033921316
  0
LINE
  8
_0-0_
  6
CONTINUOUS
 62
    7
 10
1230.0373134328354
 20
256.78629579375865
 11
30.037313432835447
 21
256.78629579375865
  0
LINE
  8
_0-0_
  6
CONTINUOUS
 62
    7
 10
1230.0373134328354
 20
202.24084124830412
 11
30.037313432835447
 21
202.24084124830412
  0
LINE
  8
_0-0_
  6
CONTINUOUS
 62
    7
 10
1230.0373134328354
 20
147.69538670284939
 11
30.037313432835447
 21
147.69538670284939
  0
LINE
  8
_0-0_
  6
CONTINUOUS
 62
    7
 10
1230.0373134328354
 20
93.149932157395057
 11
30.037313432835447
 21
93.149932157395057
  0
LINE
  8
_0-0_
  6
CONTINUOUS
 62
    7
 10
1030.0373134328352
 20
708.60447761194041
 11
1030.0373134328352
 21
38.604477611940325
  0
LINE
  8
_0-0_
  6
CONTINUOUS
 62
    7
 10
100.03731343283545
 20
708.60447761194041
 11
100.03731343283545
 21
38.604477611940325
  0
TEXT
  8
_0-0_
 62
    7
 10
55.939054726367431
 20
588.11318407960232
 40
40
 41
1
 50
0
  1
1
  0
TEXT
  8
_0-0_
 62
    7
 10
55.939054726367431
 20
534.82960199005015
 40
40
 41
1
 50
0
  1
2
  0
TEXT
  8
_0-0_
 62
    7
 10
55.939054726367431
 20
481.54601990049787
 40
40
 41
1
 50
0
  1
3
  0
TEXT
  8
_0-0_
 62
    7
 10
52.804726368158271
 20
425.12810945273668
 40
40
 41
1
 50
0
  1
4
  0
TEXT
  8
_0-0_
 62
    7
 10
52.804726368158271
 20
371.8445273631844
 40
40
 41
1
 50
0
  1
5
  0
TEXT
  8
_0-0_
 62
    7
 10
52.804726368158271
 20
318.56094527363234
 40
40
 41
1
 50
0
  1
6
  0
TEXT
  8
_0-0_
 62
    7
 10
49.670398009949309
 20
265.27736318408006
 40
40
 41
1
 50
0
  1
7
  0
TEXT
  8
_0-0_
 62
    7
 10
55.939054726367431
 20
208.85945273631873
 40
40
 41
1
 50
0
  1
8
  0
TEXT
  8
_0-0_
 62
    7
 10
55.939054726367431
 20
155.57587064676648
 40
40
 41
1
 50
0
  1
9
  0
TEXT
  8
_0-0_
 62
    7
 10
40.267412935322625
 20
102.29228855721425
 40
40
 41
1
 50
0
  1
10
  0
TEXT
  8
_0-0_
 62
    7
 10
46.536069651740547
 20
49.008706467662108
 40
40
 41
1
 50
0
  1
11
  0
TEXT
  8
_0-0_
 62
    7
 10
168.77487562189003
 20
650.79975124378143
 40
40
 41
1
 50
0
  1
名称
  0
TEXT
  8
_0-0_
 62
    7
 10
1112.2077114427852
 20
653.93407960199033
 40
40
 41
1
 50
0
  1
数
  0
TEXT
  8
_0-0_
 62
    7
 10
1266.9651741293526
 20
79.046019900497356
 40
40
 41
1
 50
0
  1
装置名称
  0
LINE
  8
_0-0_
  6
CONTINUOUS
 62
    7
 10
1870.667495854063
 20
365.87720488466761
 11
1870.667495854063
 21
147.69538670284939
  0
LINE
  8
_0-0_
  6
CONTINUOUS
 62
    7
 10
1669.1148424543942
 20
365.87720488466761
 11
1669.1148424543942
 21
147.69538670284939
  0
LINE
  8
_0-0_
  6
CONTINUOUS
 62
    7
 10
1230.0373134328354
 20
311.33175033921316
 11
2072.2201492537306
 21
311.33175033921316
  0
TEXT
  8
_0-0_
 62
    7
 10
1931.0945273631837
 20
320.04104477611918
 40
40
 41
1
 50
0
  1
Rev
  0
LINE
  8
_0-0_
  6
CONTINUOUS
 62
    7
 10
1870.667495854063
 20
256.78629579375865
 11
2072.2201492537306
 21
256.78629579375865
  0
TEXT
  8
_0-0_
 62
    7
 10
1283.3333333333328
 20
152.87686567164167
 40
40
 41
1
 50
0
  1
/  /  /
  0
TEXT
  8
_0-0_
 62
    7
 10
1492.5207296849085
 20
155.19859038142619
 40
40
 41
1
 50
0
  1
/  /  /
  0
TEXT
  8
_0-0_
 62
    7
 10
1688.9386401326694
 20
156.59162520729683
 40
40
 41
1
 50
0
  1
/  /  /
  0
TEXT
  8
_0-0_
 62
    7
 10
2400.9907083239486
 20
273.48090992226798
 40
64
 41
1
 50
0
  1
SMART DIYs
  0
TEXT
  8
_0-0_
 62
    7
 10
2273.5280217567843
 20
235.86896962376056
 40
30
 41
1
 50
0
  1
makind your idea reality.
  0
LINE
  8
_0-0_
  6
CONTINUOUS
 62
    7
 10
2292.4216099421278
 20
332.54697645965109
 11
2257.9439980018292
 21
276.12906601188979
  0
LINE
  8
_0-0_
  6
CONTINUOUS
 62
    7
 10
2328.2607417009258
 20
276.12906601188979
 11
2292.4216099421278
 21
332.54697645965109
  0
LINE
  8
_0-0_
  6
CONTINUOUS
 62
    7
 10
2331.7953526992319
 20
276.15978679737373
 11
2331.814867889886
 21
276.12906601188979
  0
LINE
  8
_0-0_
  6
CONTINUOUS
 62
    7
 10
2257.9439980018292
 20
276.12906601188979
 11
2328.2607417009258
 21
276.12906601188979
  0
LINE
  8
_0-0_
  6
CONTINUOUS
 62
    7
 10
2331.7765788858806
 20
276.12906601188979
 11
2366.2541908261792
 21
332.54697645965109
  0
LINE
  8
_0-0_
  6
CONTINUOUS
 62
    7
 10
2366.2541908261792
 20
332.54697645965109
 11
2389.4697028161836
 21
332.54697645965109
  0
LINE
  8
_0-0_
  6
CONTINUOUS
 62
    7
 10
2354.992090875885
 20
276.12906601188979
 11
2331.7953526992319
 21
276.12906601188979
  0
LINE
  8
_0-0_
  6
CONTINUOUS
 62
    7
 10
2389.4697028161836
 20
332.54697645965109
 11
2354.992090875885
 21
276.12906601188979
  0
SOLID
  8
_0-0_
  6
CONTINUOUS
 62
    7
 10
2257.9439980018292
 20
276.12906601188979
 11
2328.2607417009258
 21
276.12906601188979
 12
2292.4216099421278
 22
332.54697645965109
 13
2292.4216099421278
 23
332.54697645965109
  0
SOLID
  8
_0-0_
  6
CONTINUOUS
 62
    7
 10
2331.7765788858806
 20
276.12906601188979
 11
2366.2541908261792
 21
332.54697645965109
 12
2331.7953526992319
 22
276.12906601188979
 13
2354.992090875885
 23
276.12906601188979
  0
SOLID
  8
_0-0_
  6
CONTINUOUS
 62
    7
 10
2366.2541908261792
 20
332.54697645965109
 11
2389.4697028161836
 21
332.54697645965109
 12
2354.992090875885
 22
276.12906601188979
 13
2354.992090875885
 23
276.12906601188979
  0
LINE
  8
_0-0_
  6
CONTINUOUS
 62
    7
 10
2298.3451535903941
 20
332.54697645965109
 11
2360.3944621845876
 21
332.54697645965109
  0
LINE
  8
_0-0_
  6
CONTINUOUS
 62
    7
 10
2329.9705279929094
 20
282.76235687326857
 11
2298.3451535903941
 21
332.54697645965109
  0
LINE
  8
_0-0_
  6
CONTINUOUS
 62
    7
 10
2360.3944621845876
 20
332.54697645965109
 11
2329.9705279929094
 21
282.76235687326857
  0
SOLID
  8
_0-0_
  6
CONTINUOUS
 62
    7
 10
2298.3451535903941
 20
332.54697645965109
 11
2360.3944621845876
 21
332.54697645965109
 12
2329.9705279929094
 22
282.76235687326857
 13
2329.9705279929094
 23
282.76235687326857
  0
TEXT
  8
_0-0_
 62
    7
 10
1521.1150864334013
 20
315.96847211132297
 40
40
 41
1
 50
0
  1
確認
  0
TEXT
  8
_0-0_
 62
    7
 10
1719.6225491199689
 20
315.96847211132297
 40
40
 41
1
 50
0
  1
承認
  0
LINE
  8
_0-0_
  6
CONTINUOUS
 62
    7
 10
388.65671641791062
 20
707.26119402985069
 11
388.65671641791062
 21
38.604477611940325
  0
LINE
  8
_0-0_
  6
CONTINUOUS
 62
    7
 10
2604.6268656716416
 20
202.24084124830412
 11
2604.6268656716416
 21
38.604477611940325
  0
LINE
  8
_0-0_
  6
CONTINUOUS
 62
    7
 10
2717.4626865671644
 20
145.05555555555571
 11
2717.4626865671644
 21
38.604477611940325
  0
TEXT
  8
_0-0_
 62
    7
 10
2638.28861174744
 20
76.349529596342848
 40
40
 41
1
 50
0
  1
頁
  0
LINE
  8
_0-0_
  6
CONTINUOUS
 62
    7
 10
1467.5621890547259
 20
450.60366377986566
 11
1467.5621890547259
 21
38.604477611940325
  0
LINE
  8
_0-0_
  6
CONTINUOUS
 62
    7
 10
2072.2201492537306
 20
450.60366377986566
 11
2072.2201492537306
 21
38.604477611940325
  0
TEXT
  8
_0-0_
 62
    7
 10
1296.204394693201
 20
318.96187273508951
 40
40
 41
1
 50
0
  1
設計
  0
TEXT
  8
_0-0_
 62
    7
 10
1243.9655887230517
 20
385.82754437688061
 40
40
 41
1
 50
0
  1
ハーネス名
  0
TEXT
  8
_0-0_
 62
    7
 10
2416.2043946932008
 20
392.09620109329853
 40
40
 41
1
 50
0
  1
会社名
  0
LINE
  8
_0-0_
  6
CONTINUOUS
 62
    7
 10
30.037313432835447
 20
2027.3358208955226
 11
2695.8899944720838
 21
2027.3358208955226
  0
LINE
  8
_0-0_
  6
CONTINUOUS
 62
    7
 10
2695.8899944720838
 20
2027.3358208955226
 11
2879.248203427308
 21
2027.3358208955226
  0
LINE
  8
_0-0_
  6
CONTINUOUS
 62
    7
 10
2879.248203427308
 20
2027.3358208955226
 11
2879.248203427308
 21
1897.1741293532334
  0
LINE
  8
_0-0_
  6
CONTINUOUS
 62
    7
 10
2879.248203427308
 20
38.604477611940325
 11
30.037313432835447
 21
38.604477611940325
  0
LINE
  8
_0-0_
  6
CONTINUOUS
 62
    7
 10
2879.248203427308
 20
1897.1741293532334
 11
2879.248203427308
 21
38.604477611940325
  0
LINE
  8
_0-0_
  6
CONTINUOUS
 62
    7
 10
1230.0373134328354
 20
450.60366377986566
 11
2879.248203427308
 21
450.60366377986566
  0
LINE
  8
_0-0_
  6
CONTINUOUS
 62
    7
 10
1230.0373134328354
 20
365.87720488466761
 11
2879.248203427308
 21
365.87720488466761
  0
LINE
  8
_0-0_
  6
CONTINUOUS
 62
    7
 10
1230.0373134328354
 20
202.24084124830412
 11
2879.248203427308
 21
202.24084124830412
  0
LINE
  8
_0-0_
  6
CONTINUOUS
 62
    7
 10
1230.0373134328354
 20
147.69538670284939
 11
2879.248203427308
 21
147.69538670284939
  0
LINE
  8
_1-1_
  6
CONTINUOUS
 62
    7
 10
1931.7645995136274
 20
1527.8512015045778
 11
1931.7645995136274
 21
1650.2703343496564
  0
LINE
  8
_1-1_
  6
CONTINUOUS
 62
    7
 10
2655.6714507686975
 20
1260.7966901102652
 11
2549.903577173709
 21
1260.7966901102652
  0
LINE
  8
_1-1_
  6
CONTINUOUS
 62
    7
 10
897.51584158857463
 20
1484.9900665553628
 11
2127.2645090878395
 21
1484.9900665553628
  0
LINE
  8
_1-1_
  6
CONTINUOUS
 62
    7
 10
897.51584158857463
 20
1484.9900665553628
 11
897.51584158857463
 21
1404.9900665553628
  0
LINE
  8
_1-1_
  6
CONTINUOUS
 62
    7
 10
646.76957293185808
 20
1471.3402600324221
 11
646.76957293185808
 21
1418.6398730783039
  0
LINE
  8
_1-1_
  6
CONTINUOUS
 62
    7
 10
772.14270726021653
 20
1471.3402600324221
 11
646.76957293185808
 21
1471.3402600324221
  0
LINE
  8
_1-1_
  6
CONTINUOUS
 62
    7
 10
772.14270726021653
 20
1418.6398730783039
 11
646.76957293185808
 21
1418.6398730783039
  0
LINE
  8
_1-1_
  6
CONTINUOUS
 62
    7
 10
772.14270726021653
 20
1484.9900665553628
 11
772.14270726021653
 21
1471.3402600324221
  0
LINE
  8
_1-1_
  6
CONTINUOUS
 62
    7
 10
772.14270726021653
 20
1418.6398730783039
 11
772.14270726021653
 21
1404.9900665553628
  0
LINE
  8
_1-1_
  6
CONTINUOUS
 62
    7
 10
890.68705484776001
 20
1404.9900665553644
 11
897.51584158857338
 21
1411.8188532961776
  0
LINE
  8
_1-1_
  6
CONTINUOUS
 62
    7
 10
876.54491922402758
 20
1404.9900665553655
 11
897.51584158857213
 21
1425.9609889199098
  0
LINE
  8
_1-1_
  6
CONTINUOUS
 62
    7
 10
862.40278360029015
 20
1404.9900665553612
 11
897.51584158857656
 21
1440.1031245436475
  0
LINE
  8
_1-1_
  6
CONTINUOUS
 62
    7
 10
848.2606479765775
 20
1404.9900665553637
 11
897.51584158857395
 21
1454.2452601673601
  0
LINE
  8
_1-1_
  6
CONTINUOUS
 62
    7
 10
834.1185123528403
 20
1404.9900665553596
 11
897.51584158857395
 21
1468.3873957910932
  0
LINE
  8
_1-1_
  6
CONTINUOUS
 62
    7
 10
819.97637672910787
 20
1404.9900665553605
 11
897.51584158857713
 21
1482.5295314148298
  0
LINE
  8
_1-1_
  6
CONTINUOUS
 62
    7
 10
805.83424110537578
 20
1404.9900665553619
 11
885.83424110537544
 21
1484.9900665553619
  0
LINE
  8
_1-1_
  6
CONTINUOUS
 62
    7
 10
791.69210548164358
 20
1404.9900665553628
 11
871.69210548164301
 21
1484.9900665553628
  0
LINE
  8
_1-1_
  6
CONTINUOUS
 62
    7
 10
777.54996985791138
 20
1404.9900665553641
 11
857.54996985791081
 21
1484.9900665553637
  0
LINE
  8
_1-1_
  6
CONTINUOUS
 62
    7
 10
772.1427072602188
 20
1413.7249395814051
 11
843.40783423417633
 21
1484.9900665553623
  0
LINE
  8
_1-1_
  6
CONTINUOUS
 62
    7
 10
762.91550513338302
 20
1418.6398730783026
 11
829.26569861044118
 21
1484.990066555361
  0
LINE
  8
_1-1_
  6
CONTINUOUS
 62
    7
 10
748.77336950967049
 20
1418.6398730783053
 11
815.12356298672876
 21
1484.9900665553635
  0
LINE
  8
_1-1_
  6
CONTINUOUS
 62
    7
 10
734.63123388593829
 20
1418.6398730783064
 11
800.98142736299621
 21
1484.9900665553646
  0
LINE
  8
_1-1_
  6
CONTINUOUS
 62
    7
 10
720.48909826220097
 20
1418.6398730783021
 11
786.8392917392589
 21
1484.9900665553603
  0
LINE
  8
_1-1_
  6
CONTINUOUS
 62
    7
 10
706.3469626384682
 20
1418.6398730783033
 11
759.04734959258519
 21
1471.3402600324198
  0
LINE
  8
_1-1_
  6
CONTINUOUS
 62
    7
 10
772.14270726021766
 20
1484.4356177000527
 11
772.6971561155267
 21
1484.9900665553614
  0
LINE
  8
_1-1_
  6
CONTINUOUS
 62
    7
 10
692.204827014736
 20
1418.6398730783044
 11
744.90521396885299
 21
1471.3402600324207
  0
LINE
  8
_1-1_
  6
CONTINUOUS
 62
    7
 10
678.06269139100004
 20
1418.6398730783017
 11
730.76307834511908
 21
1471.3402600324202
  0
LINE
  8
_1-1_
  6
CONTINUOUS
 62
    7
 10
663.92055576726648
 20
1418.6398730783012
 11
716.6209427213829
 21
1471.340260032418
  0
LINE
  8
_1-1_
  6
CONTINUOUS
 62
    7
 10
649.77842014353428
 20
1418.6398730783026
 11
702.4788070976507
 21
1471.3402600324189
  0
LINE
  8
_1-1_
  6
CONTINUOUS
 62
    7
 10
646.76957293185865
 20
1429.7731614903419
 11
688.33667147393294
 21
1471.3402600324162
  0
LINE
  8
_1-1_
  6
CONTINUOUS
 62
    7
 10
646.76957293185922
 20
1443.9152971140759
 11
674.19453585020074
 21
1471.3402600324175
  0
LINE
  8
_1-1_
  6
CONTINUOUS
 62
    7
 10
646.76957293186149
 20
1458.0574327378113
 11
660.05240022646854
 21
1471.3402600324184
  0
LINE
  8
_1-1_
  6
CONTINUOUS
 62
    7
 10
890.68705484776001
 20
1404.9900665553644
 11
897.51584158857338
 21
1411.8188532961776
  0
LINE
  8
_1-1_
  6
CONTINUOUS
 62
    7
 10
876.54491922402758
 20
1404.9900665553655
 11
897.51584158857213
 21
1425.9609889199098
  0
LINE
  8
_1-1_
  6
CONTINUOUS
 62
    7
 10
862.40278360029015
 20
1404.9900665553612
 11
897.51584158857656
 21
1440.1031245436475
  0
LINE
  8
_1-1_
  6
CONTINUOUS
 62
    7
 10
848.2606479765775
 20
1404.9900665553637
 11
897.51584158857395
 21
1454.2452601673601
  0
LINE
  8
_1-1_
  6
CONTINUOUS
 62
    7
 10
834.1185123528403
 20
1404.9900665553596
 11
897.51584158857395
 21
1468.3873957910932
  0
LINE
  8
_1-1_
  6
CONTINUOUS
 62
    7
 10
819.97637672910787
 20
1404.9900665553605
 11
897.51584158857713
 21
1482.5295314148298
  0
LINE
  8
_1-1_
  6
CONTINUOUS
 62
    7
 10
805.83424110537578
 20
1404.9900665553619
 11
885.83424110537544
 21
1484.9900665553619
  0
LINE
  8
_1-1_
  6
CONTINUOUS
 62
    7
 10
791.69210548164358
 20
1404.9900665553628
 11
871.69210548164301
 21
1484.9900665553628
  0
LINE
  8
_1-1_
  6
CONTINUOUS
 62
    7
 10
777.54996985791138
 20
1404.9900665553641
 11
857.54996985791081
 21
1484.9900665553637
  0
LINE
  8
_1-1_
  6
CONTINUOUS
 62
    7
 10
772.1427072602188
 20
1413.7249395814051
 11
843.40783423417633
 21
1484.9900665553623
  0
LINE
  8
_1-1_
  6
CONTINUOUS
 62
    7
 10
762.91550513338302
 20
1418.6398730783026
 11
829.26569861044118
 21
1484.990066555361
  0
LINE
  8
_1-1_
  6
CONTINUOUS
 62
    7
 10
748.77336950967049
 20
1418.6398730783053
 11
815.12356298672876
 21
1484.9900665553635
  0
LINE
  8
_1-1_
  6
CONTINUOUS
 62
    7
 10
734.63123388593829
 20
1418.6398730783064
 11
800.98142736299621
 21
1484.9900665553646
  0
LINE
  8
_1-1_
  6
CONTINUOUS
 62
    7
 10
720.48909826220097
 20
1418.6398730783021
 11
786.8392917392589
 21
1484.9900665553603
  0
LINE
  8
_1-1_
  6
CONTINUOUS
 62
    7
 10
706.3469626384682
 20
1418.6398730783033
 11
759.04734959258519
 21
1471.3402600324198
  0
LINE
  8
_1-1_
  6
CONTINUOUS
 62
    7
 10
772.14270726021766
 20
1484.4356177000527
 11
772.6971561155267
 21
1484.9900665553614
  0
LINE
  8
_1-1_
  6
CONTINUOUS
 62
    7
 10
692.204827014736
 20
1418.6398730783044
 11
744.90521396885299
 21
1471.3402600324207
  0
LINE
  8
_1-1_
  6
CONTINUOUS
 62
    7
 10
678.06269139100004
 20
1418.6398730783017
 11
730.76307834511908
 21
1471.3402600324202
  0
LINE
  8
_1-1_
  6
CONTINUOUS
 62
    7
 10
663.92055576726648
 20
1418.6398730783012
 11
716.6209427213829
 21
1471.340260032418
  0
LINE
  8
_1-1_
  6
CONTINUOUS
 62
    7
 10
649.77842014353428
 20
1418.6398730783026
 11
702.4788070976507
 21
1471.3402600324189
  0
LINE
  8
_1-1_
  6
CONTINUOUS
 62
    7
 10
646.76957293185865
 20
1429.7731614903419
 11
688.33667147393294
 21
1471.3402600324162
  0
LINE
  8
_1-1_
  6
CONTINUOUS
 62
    7
 10
646.76957293185922
 20
1443.9152971140759
 11
674.19453585020074
 21
1471.3402600324175
  0
LINE
  8
_1-1_
  6
CONTINUOUS
 62
    7
 10
646.76957293186149
 20
1458.0574327378113
 11
660.05240022646854
 21
1471.3402600324184
  0
LINE
  8
_1-1_
  6
CONTINUOUS
 62
    7
 10
2127.2645090878423
 20
1484.9900665553628
 11
2127.2645090878423
 21
1404.9900665553628
  0
LINE
  8
_1-1_
  6
CONTINUOUS
 62
    7
 10
2378.0107777445583
 20
1471.3402600324221
 11
2378.0107777445583
 21
1418.6398730783039
  0
LINE
  8
_1-1_
  6
CONTINUOUS
 62
    7
 10
2252.6376434162007
 20
1471.3402600324221
 11
2378.0107777445583
 21
1471.3402600324221
  0
LINE
  8
_1-1_
  6
CONTINUOUS
 62
    7
 10
2252.6376434162007
 20
1418.6398730783039
 11
2378.0107777445583
 21
1418.6398730783039
  0
LINE
  8
_1-1_
  6
CONTINUOUS
 62
    7
 10
2261.8648455430339
 20
1418.6398730783026
 11
2195.514652065976
 21
1484.990066555361
  0
LINE
  8
_1-1_
  6
CONTINUOUS
 62
    7
 10
2276.0069811667463
 20
1418.6398730783053
 11
2209.6567876896879
 21
1484.9900665553635
  0
LINE
  8
_1-1_
  6
CONTINUOUS
 62
    7
 10
2290.1491167904787
 20
1418.6398730783064
 11
2223.7989233134203
 21
1484.9900665553646
  0
LINE
  8
_1-1_
  6
CONTINUOUS
 62
    7
 10
2304.2912524142162
 20
1418.6398730783021
 11
2237.9410589371582
 21
1484.9900665553603
  0
LINE
  8
_1-1_
  6
CONTINUOUS
 62
    7
 10
2318.4333880379481
 20
1418.6398730783033
 11
2265.7330010838318
 21
1471.3402600324198
  0
LINE
  8
_1-1_
  6
CONTINUOUS
 62
    7
 10
2332.5755236616806
 20
1418.6398730783044
 11
2279.8751367075643
 21
1471.3402600324207
  0
LINE
  8
_1-1_
  6
CONTINUOUS
 62
    7
 10
2346.7176592854166
 20
1418.6398730783017
 11
2294.017272331298
 21
1471.3402600324202
  0
LINE
  8
_1-1_
  6
CONTINUOUS
 62
    7
 10
2360.85979490915
 20
1418.6398730783012
 11
2308.1594079550337
 21
1471.340260032418
  0
LINE
  8
_1-1_
  6
CONTINUOUS
 62
    7
 10
2375.0019305328824
 20
1418.6398730783026
 11
2322.3015435787656
 21
1471.3402600324189
  0
LINE
  8
_1-1_
  6
CONTINUOUS
 62
    7
 10
2378.0107777445583
 20
1429.7731614903419
 11
2336.443679202484
 21
1471.3402600324162
  0
LINE
  8
_1-1_
  6
CONTINUOUS
 62
    7
 10
2378.0107777445578
 20
1443.9152971140759
 11
2350.5858148262159
 21
1471.3402600324175
  0
LINE
  8
_1-1_
  6
CONTINUOUS
 62
    7
 10
2378.0107777445555
 20
1458.0574327378113
 11
2364.7279504499484
 21
1471.3402600324184
  0
LINE
  8
_1-1_
  6
CONTINUOUS
 62
    7
 10
2261.8648455430339
 20
1418.6398730783026
 11
2195.514652065976
 21
1484.990066555361
  0
LINE
  8
_1-1_
  6
CONTINUOUS
 62
    7
 10
2276.0069811667463
 20
1418.6398730783053
 11
2209.6567876896879
 21
1484.9900665553635
  0
LINE
  8
_1-1_
  6
CONTINUOUS
 62
    7
 10
2290.1491167904787
 20
1418.6398730783064
 11
2223.7989233134203
 21
1484.9900665553646
  0
LINE
  8
_1-1_
  6
CONTINUOUS
 62
    7
 10
2304.2912524142162
 20
1418.6398730783021
 11
2237.9410589371582
 21
1484.9900665553603
  0
LINE
  8
_1-1_
  6
CONTINUOUS
 62
    7
 10
2318.4333880379481
 20
1418.6398730783033
 11
2265.7330010838318
 21
1471.3402600324198
  0
LINE
  8
_1-1_
  6
CONTINUOUS
 62
    7
 10
2332.5755236616806
 20
1418.6398730783044
 11
2279.8751367075643
 21
1471.3402600324207
  0
LINE
  8
_1-1_
  6
CONTINUOUS
 62
    7
 10
2346.7176592854166
 20
1418.6398730783017
 11
2294.017272331298
 21
1471.3402600324202
  0
LINE
  8
_1-1_
  6
CONTINUOUS
 62
    7
 10
2360.85979490915
 20
1418.6398730783012
 11
2308.1594079550337
 21
1471.340260032418
  0
LINE
  8
_1-1_
  6
CONTINUOUS
 62
    7
 10
2375.0019305328824
 20
1418.6398730783026
 11
2322.3015435787656
 21
1471.3402600324189
  0
LINE
  8
_1-1_
  6
CONTINUOUS
 62
    7
 10
2378.0107777445583
 20
1429.7731614903419
 11
2336.443679202484
 21
1471.3402600324162
  0
LINE
  8
_1-1_
  6
CONTINUOUS
 62
    7
 10
2378.0107777445578
 20
1443.9152971140759
 11
2350.5858148262159
 21
1471.3402600324175
  0
LINE
  8
_1-1_
  6
CONTINUOUS
 62
    7
 10
2378.0107777445555
 20
1458.0574327378113
 11
2364.7279504499484
 21
1471.3402600324184
  0
LINE
  8
_1-1_
  6
CONTINUOUS
 62
    7
 10
772.14270726021653
 20
1484.9900665553628
 11
897.51584158857463
 21
1484.9900665553628
  0
LINE
  8
_1-1_
  6
CONTINUOUS
 62
    7
 10
772.14270726021653
 20
1404.9900665553628
 11
897.51584158857463
 21
1404.9900665553628
  0
CIRCLE
  8
_1-1_
  6
CONTINUOUS
 62
    7
 10
2711.3563595580836
 20
1669.6882457953004
 40
20
  0
ARC
  8
_1-1_
  6
CONTINUOUS
 62
    7
 10
2711.3563595580836
 20
1669.6882457953004
 40
30
 50
270
 51
90
  0
LINE
  8
_1-1_
  6
CONTINUOUS
 62
    7
 10
2711.3563595580836
 20
1699.6882457953006
 11
2661.6714507686975
 21
1690.2802543062051
  0
LINE
  8
_1-1_
  6
CONTINUOUS
 62
    7
 10
2711.3563595580836
 20
1639.6882457953004
 11
2661.6714507686975
 21
1649.096237284396
  0
ARC
  8
_1-1_
  6
CONTINUOUS
 62
    7
 10
2549.903577173709
 20
1694.1028394934765
 40
6.0000000000000009
 50
90
 51
180
  0
LINE
  8
_1-1_
  6
CONTINUOUS
 62
    7
 10
2543.9035771737094
 20
1645.273652097125
 11
2543.9035771737094
 21
1694.1028394934765
  0
ARC
  8
_1-1_
  6
CONTINUOUS
 62
    7
 10
2549.903577173709
 20
1645.273652097125
 40
6.0000000000000009
 50
180
 51
270
  0
LINE
  8
_1-1_
  6
CONTINUOUS
 62
    7
 10
2655.6714507686975
 20
1700.102839493476
 11
2549.903577173709
 21
1700.102839493476
  0
ARC
  8
_1-1_
  6
CONTINUOUS
 62
    7
 10
2655.6714507686975
 20
1694.1028394934765
 40
6.0000000000000009
 50
0
 51
90
  0
LINE
  8
_1-1_
  6
CONTINUOUS
 62
    7
 10
2661.6714507686975
 20
1645.273652097125
 11
2661.6714507686975
 21
1694.1028394934765
  0
LINE
  8
_1-1_
  6
CONTINUOUS
 62
    7
 10
2655.6714507686975
 20
1639.2736520971248
 11
2549.903577173709
 21
1639.2736520971248
  0
ARC
  8
_1-1_
  6
CONTINUOUS
 62
    7
 10
2655.6714507686975
 20
1645.273652097125
 40
6.0000000000000009
 50
270
 51
0
  0
LINE
  8
_1-1_
  6
CONTINUOUS
 62
    7
 10
2559.1746139531551
 20
1639.273652097123
 11
2543.9035771737081
 21
1654.54468887657
  0
LINE
  8
_1-1_
  6
CONTINUOUS
 62
    7
 10
2573.3167495768876
 20
1639.2736520971237
 11
2543.9035771737072
 21
1668.6868245003043
  0
LINE
  8
_1-1_
  6
CONTINUOUS
 62
    7
 10
2587.4588852006
 20
1639.2736520971264
 11
2543.9035771737094
 21
1682.8289601240172
  0
LINE
  8
_1-1_
  6
CONTINUOUS
 62
    7
 10
2661.6714507686947
 20
1649.9139002714314
 11
2611.4825115466501
 21
1700.1028394934767
  0
LINE
  8
_1-1_
  6
CONTINUOUS
 62
    7
 10
2661.6714507686956
 20
1664.0560358951557
 11
2625.6246471703776
 21
1700.1028394934733
  0
LINE
  8
_1-1_
  6
CONTINUOUS
 62
    7
 10
2661.671450768697
 20
1678.1981715188781
 11
2639.7667827941
 21
1700.1028394934751
  0
LINE
  8
_1-1_
  6
CONTINUOUS
 62
    7
 10
2661.6714507686975
 20
1692.340307142611
 11
2653.9089184178324
 21
1700.102839493476
  0
CIRCLE
  8
_1-1_
  6
CONTINUOUS
 62
    7
 10
2711.3563595580836
 20
1443.5164247702983
 40
20
  0
ARC
  8
_1-1_
  6
CONTINUOUS
 62
    7
 10
2711.3563595580836
 20
1443.5164247702983
 40
30
 50
270
 51
90
  0
LINE
  8
_1-1_
  6
CONTINUOUS
 62
    7
 10
2711.3563595580836
 20
1473.5164247702983
 11
2661.6714507686975
 21
1464.1084332812029
  0
LINE
  8
_1-1_
  6
CONTINUOUS
 62
    7
 10
2711.3563595580836
 20
1413.5164247702983
 11
2661.6714507686975
 21
1422.9244162593939
  0
ARC
  8
_1-1_
  6
CONTINUOUS
 62
    7
 10
2549.903577173709
 20
1467.9310184684741
 40
6.0000000000000009
 50
90
 51
180
  0
LINE
  8
_1-1_
  6
CONTINUOUS
 62
    7
 10
2543.9035771737094
 20
1419.1018310721224
 11
2543.9035771737094
 21
1467.9310184684741
  0
ARC
  8
_1-1_
  6
CONTINUOUS
 62
    7
 10
2549.903577173709
 20
1419.1018310721224
 40
6.0000000000000009
 50
180
 51
270
  0
LINE
  8
_1-1_
  6
CONTINUOUS
 62
    7
 10
2655.6714507686975
 20
1473.9310184684741
 11
2549.903577173709
 21
1473.9310184684741
  0
ARC
  8
_1-1_
  6
CONTINUOUS
 62
    7
 10
2655.6714507686975
 20
1467.9310184684741
 40
6.0000000000000009
 50
0
 51
90
  0
LINE
  8
_1-1_
  6
CONTINUOUS
 62
    7
 10
2661.6714507686975
 20
1419.1018310721224
 11
2661.6714507686975
 21
1467.9310184684741
  0
LINE
  8
_1-1_
  6
CONTINUOUS
 62
    7
 10
2655.6714507686975
 20
1413.1018310721226
 11
2549.903577173709
 21
1413.1018310721226
  0
ARC
  8
_1-1_
  6
CONTINUOUS
 62
    7
 10
2655.6714507686975
 20
1419.1018310721224
 40
6.0000000000000009
 50
270
 51
0
  0
LINE
  8
_1-1_
  6
CONTINUOUS
 62
    7
 10
2559.1746139531551
 20
1413.1018310721206
 11
2543.9035771737081
 21
1428.3728678515679
  0
LINE
  8
_1-1_
  6
CONTINUOUS
 62
    7
 10
2573.3167495768876
 20
1413.1018310721215
 11
2543.9035771737072
 21
1442.5150034753021
  0
LINE
  8
_1-1_
  6
CONTINUOUS
 62
    7
 10
2587.4588852006
 20
1413.1018310721238
 11
2543.9035771737094
 21
1456.6571390990152
  0
LINE
  8
_1-1_
  6
CONTINUOUS
 62
    7
 10
2661.6714507686947
 20
1423.7420792464293
 11
2611.4825115466501
 21
1473.9310184684746
  0
LINE
  8
_1-1_
  6
CONTINUOUS
 62
    7
 10
2661.6714507686956
 20
1437.8842148701533
 11
2625.6246471703776
 21
1473.9310184684714
  0
LINE
  8
_1-1_
  6
CONTINUOUS
 62
    7
 10
2661.671450768697
 20
1452.0263504938762
 11
2639.7667827941
 21
1473.931018468473
  0
LINE
  8
_1-1_
  6
CONTINUOUS
 62
    7
 10
2661.6714507686975
 20
1466.1684861176088
 11
2653.9089184178324
 21
1473.9310184684739
  0
CIRCLE
  8
_1-1_
  6
CONTINUOUS
 62
    7
 10
2711.3563595580836
 20
1230.3820964120896
 40
20
  0
ARC
  8
_1-1_
  6
CONTINUOUS
 62
    7
 10
2711.3563595580836
 20
1230.3820964120896
 40
30
 50
270
 51
90
  0
LINE
  8
_1-1_
  6
CONTINUOUS
 62
    7
 10
2711.3563595580836
 20
1260.3820964120896
 11
2661.6714507686975
 21
1250.974104922994
  0
LINE
  8
_1-1_
  6
CONTINUOUS
 62
    7
 10
2711.3563595580836
 20
1200.3820964120896
 11
2661.6714507686975
 21
1209.790087901185
  0
ARC
  8
_1-1_
  6
CONTINUOUS
 62
    7
 10
2549.903577173709
 20
1254.7966901102652
 40
6.0000000000000009
 50
90
 51
180
  0
LINE
  8
_1-1_
  6
CONTINUOUS
 62
    7
 10
2543.9035771737094
 20
1205.9675027139137
 11
2543.9035771737094
 21
1254.7966901102652
  0
ARC
  8
_1-1_
  6
CONTINUOUS
 62
    7
 10
2549.903577173709
 20
1205.9675027139137
 40
6.0000000000000009
 50
180
 51
270
  0
ARC
  8
_1-1_
  6
CONTINUOUS
 62
    7
 10
2655.6714507686975
 20
1254.7966901102652
 40
6.0000000000000009
 50
0
 51
90
  0
LINE
  8
_1-1_
  6
CONTINUOUS
 62
    7
 10
2661.6714507686975
 20
1205.9675027139137
 11
2661.6714507686975
 21
1254.7966901102652
  0
LINE
  8
_1-1_
  6
CONTINUOUS
 62
    7
 10
2655.6714507686975
 20
1199.9675027139137
 11
2549.903577173709
 21
1199.9675027139137
  0
ARC
  8
_1-1_
  6
CONTINUOUS
 62
    7
 10
2655.6714507686975
 20
1205.9675027139137
 40
6.0000000000000009
 50
270
 51
0
  0
LINE
  8
_1-1_
  6
CONTINUOUS
 62
    7
 10
2559.1746139531551
 20
1199.9675027139117
 11
2543.9035771737081
 21
1215.238539493359
  0
LINE
  8
_1-1_
  6
CONTINUOUS
 62
    7
 10
2573.3167495768876
 20
1199.9675027139126
 11
2543.9035771737072
 21
1229.3806751170932
  0
LINE
  8
_1-1_
  6
CONTINUOUS
 62
    7
 10
2587.4588852006
 20
1199.9675027139151
 11
2543.9035771737094
 21
1243.5228107408063
  0
LINE
  8
_1-1_
  6
CONTINUOUS
 62
    7
 10
2661.6714507686956
 20
1224.7498865119442
 11
2625.6246471703776
 21
1260.796690110262
  0
LINE
  8
_1-1_
  6
CONTINUOUS
 62
    7
 10
2661.671450768697
 20
1238.892022135667
 11
2639.7667827941
 21
1260.7966901102639
  0
LINE
  8
_1-1_
  6
CONTINUOUS
 62
    7
 10
2661.6714507686975
 20
1253.0341577593999
 11
2653.9089184178324
 21
1260.796690110265
  0
LINE
  8
_1-1_
  6
CONTINUOUS
 62
    7
 10
2378.6321137940777
 20
1457.8411745271651
 11
2541.6171884209425
 21
1670.9755028853738
  0
LINE
  8
_1-1_
  6
CONTINUOUS
 62
    7
 10
2378.6321137940777
 20
1428.5874431838813
 11
2544.4032580726844
 21
1226.5973934326375
  0
LINE
  8
_1-1_
  6
CONTINUOUS
 62
    7
 10
1824.8330535397929
 20
1217.6014472376864
 11
1931.7645995136274
 21
1217.6014472376864
  0
LINE
  8
_1-1_
  6
CONTINUOUS
 62
    7
 10
1824.8330535397929
 20
1484.9900665553628
 11
1824.8330535397929
 21
1217.6014472376864
  0
LINE
  8
_1-1_
  6
CONTINUOUS
 62
    7
 10
1931.7645995136274
 20
1484.9900665553628
 11
1931.7645995136274
 21
1217.6014472376864
  0
LINE
  8
_1-1_
  6
CONTINUOUS
 62
    7
 10
1824.8330535397929
 20
1484.9900665553628
 11
1931.7645995136274
 21
1484.9900665553628
  0
LINE
  8
_1-1_
  6
CONTINUOUS
 62
    7
 10
897.51584158857463
 20
1404.9900665553628
 11
1824.8330535397929
 21
1404.9900665553628
  0
LINE
  8
_1-1_
  6
CONTINUOUS
 62
    7
 10
1931.7645995136281
 20
1404.9900665553628
 11
2127.2645090878423
 21
1404.9900665553628
  0
LINE
  8
_1-1_
  6
CONTINUOUS
 62
    7
 10
772.14270726021653
 20
1557.6106721844358
 11
897.51584158857463
 21
1557.6106721844358
  0
LINE
  8
_1-1_
  6
CONTINUOUS
 62
    7
 10
646.76957293185808
 20
1648.5061945724958
 11
897.51584158857463
 21
1648.5061945724958
  0
LINE
  8
_1-1_
  6
CONTINUOUS
 62
    7
 10
772.14270726021653
 20
1497.3038728477861
 11
772.14270726021653
 21
1563.8793289008536
  0
LINE
  8
_1-1_
  6
CONTINUOUS
 62
    7
 10
2601.6010208243324
 20
1199.9675027139162
 11
2588.2739837185959
 21
1213.2945398196528
  0
LINE
  8
_1-1_
  6
CONTINUOUS
 62
    7
 10
2583.7388700547344
 20
1217.8296534835149
 11
2544.3946043285432
 21
1257.1739192097054
  0
LINE
  8
_1-1_
  6
CONTINUOUS
 62
    7
 10
2615.7431564480648
 20
1199.9675027139172
 11
2602.4161193423292
 21
1213.2945398196528
  0
LINE
  8
_1-1_
  6
CONTINUOUS
 62
    7
 10
2583.7388700547344
 20
1231.9717891072482
 11
2554.9139690517154
 21
1260.7966901102666
  0
LINE
  8
_1-1_
  6
CONTINUOUS
 62
    7
 10
2629.8852920718018
 20
1199.9675027139142
 11
2616.5582549660626
 21
1213.2945398196528
  0
LINE
  8
_1-1_
  6
CONTINUOUS
 62
    7
 10
2583.7388700547344
 20
1246.1139247309816
 11
2569.0561046754488
 21
1260.7966901102666
  0
LINE
  8
_1-1_
  6
CONTINUOUS
 62
    7
 10
2644.0274276955347
 20
1199.967502713914
 11
2623.7388700547344
 21
1220.2560603547149
  0
LINE
  8
_1-1_
  6
CONTINUOUS
 62
    7
 10
2590.7003905897959
 20
1253.2945398196528
 11
2583.1982402991853
 21
1260.7966901102636
  0
LINE
  8
_1-1_
  6
CONTINUOUS
 62
    7
 10
2657.7849858022223
 20
1200.3520802309599
 11
2623.7388700547344
 21
1234.3981959784483
  0
LINE
  8
_1-1_
  6
CONTINUOUS
 62
    7
 10
2604.8425262135293
 20
1253.2945398196528
 11
2597.3403759229177
 21
1260.7966901102645
  0
LINE
  8
_1-1_
  6
CONTINUOUS
 62
    7
 10
2661.6714507686947
 20
1210.6077508882204
 11
2623.7388700547344
 21
1248.5403316021816
  0
LINE
  8
_1-1_
  6
CONTINUOUS
 62
    7
 10
2618.9846618372626
 20
1253.2945398196528
 11
2611.4825115466501
 21
1260.7966901102654
  0
LINE
  8
_1-1_
  6
CONTINUOUS
 62
    7
 10
2601.6010208243324
 20
1413.1018310721252
 11
2590.3377390161822
 21
1424.3651128802753
  0
LINE
  8
_1-1_
  6
CONTINUOUS
 62
    7
 10
2581.107582050312
 20
1433.595269846146
 11
2544.3946043285432
 21
1470.3082475679143
  0
LINE
  8
_1-1_
  6
CONTINUOUS
 62
    7
 10
2615.7431564480648
 20
1413.1018310721261
 11
2604.4798746399156
 21
1424.3651128802753
  0
LINE
  8
_1-1_
  6
CONTINUOUS
 62
    7
 10
2581.107582050312
 20
1447.7374054698794
 11
2554.9139690517154
 21
1473.9310184684759
  0
LINE
  8
_1-1_
  6
CONTINUOUS
 62
    7
 10
2629.8852920718018
 20
1413.1018310721233
 11
2618.6220102636489
 21
1424.3651128802753
  0
LINE
  8
_1-1_
  6
CONTINUOUS
 62
    7
 10
2581.107582050312
 20
1461.8795410936127
 11
2569.0561046754488
 21
1473.9310184684755
  0
LINE
  8
_1-1_
  6
CONTINUOUS
 62
    7
 10
2644.0274276955347
 20
1413.1018310721233
 11
2621.107582050312
 21
1436.0216767173461
  0
LINE
  8
_1-1_
  6
CONTINUOUS
 62
    7
 10
2592.7641458873823
 20
1464.3651128802753
 11
2583.1982402991853
 21
1473.9310184684723
  0
LINE
  8
_1-1_
  6
CONTINUOUS
 62
    7
 10
2657.7849858022223
 20
1413.4864085891688
 11
2621.107582050312
 21
1450.1638123410794
  0
LINE
  8
_1-1_
  6
CONTINUOUS
 62
    7
 10
2606.9062815111156
 20
1464.3651128802753
 11
2597.3403759229177
 21
1473.9310184684737
  0
LINE
  8
_1-1_
  6
CONTINUOUS
 62
    7
 10
2601.6010208243324
 20
1639.2736520971275
 11
2588.6709751876742
 21
1652.2036977337857
  0
LINE
  8
_1-1_
  6
CONTINUOUS
 62
    7
 10
2577.3928225146565
 20
1663.4818504068035
 11
2544.3946043285432
 21
1696.4800685929167
  0
LINE
  8
_1-1_
  6
CONTINUOUS
 62
    7
 10
2615.7431564480648
 20
1639.2736520971282
 11
2602.8131108114076
 21
1652.2036977337857
  0
LINE
  8
_1-1_
  6
CONTINUOUS
 62
    7
 10
2577.3928225146565
 20
1677.6239860305368
 11
2554.9139690517154
 21
1700.1028394934779
  0
LINE
  8
_1-1_
  6
CONTINUOUS
 62
    7
 10
2629.8852920718018
 20
1639.2736520971253
 11
2616.9552464351409
 21
1652.2036977337857
  0
LINE
  8
_1-1_
  6
CONTINUOUS
 62
    7
 10
2577.3928225146565
 20
1691.7661216542701
 11
2569.0561046754488
 21
1700.1028394934779
  0
LINE
  8
_1-1_
  6
CONTINUOUS
 62
    7
 10
2644.0274276955347
 20
1639.2736520971253
 11
2617.3928225146565
 21
1665.9082572780035
  0
LINE
  8
_1-1_
  6
CONTINUOUS
 62
    7
 10
2591.0973820588742
 20
1692.2036977337857
 11
2583.1982402991853
 21
1700.1028394934747
  0
LINE
  8
_1-1_
  6
CONTINUOUS
 62
    7
 10
2657.7849858022223
 20
1639.6582296141712
 11
2617.3928225146565
 21
1680.0503929017368
  0
LINE
  8
_1-1_
  6
CONTINUOUS
 62
    7
 10
2605.2395176826076
 20
1692.2036977337857
 11
2597.3403759229177
 21
1700.1028394934756
  0
LINE
  8
_1-1_
  6
CONTINUOUS
 62
    7
 10
2661.6714507686975
 20
1764.4763438262269
 11
2127.2645090878414
 21
1764.4763438262269
  0
TEXT
  8
_1-1_
 62
    7
 10
746.30863629744056
 20
1607.8293418042424
 40
40
 41
1
 50
0
  1
20
  0
TEXT
  8
_1-1_
 62
    7
 10
811.78127311336084
 20
1515.8890432967796
 40
40
 41
1
 50
0
  1
10
  0
LINE
  8
_1-1_
  6
CONTINUOUS
 62
    7
 10
705.47530296410685
 20
1425.4288442918046
 11
935.32604923276369
 21
1258.264665187327
  0
LINE
  8
_1-1_
  6
CONTINUOUS
 62
    7
 10
705.47530296410685
 20
1425.4288442918046
 11
733.47757619297511
 21
1414.6644263318851
  0
LINE
  8
_1-1_
  6
CONTINUOUS
 62
    7
 10
705.47530296410685
 20
1425.4288442918046
 11
724.34377396405978
 21
1402.105448267127
  0
LINE
  8
_1-1_
  6
CONTINUOUS
 62
    7
 10
1135.0088850536595
 20
1422.9475010082224
 11
1325.1581387850024
 21
1316.3803368291178
  0
LINE
  8
_1-1_
  6
CONTINUOUS
 62
    7
 10
1135.0088850536595
 20
1422.9475010082224
 11
1164.0834915873745
 21
1415.5537702239926
  0
LINE
  8
_1-1_
  6
CONTINUOUS
 62
    7
 10
1135.0088850536595
 20
1422.9475010082224
 11
1156.491367524779
 21
1402.007039053479
  0
LINE
  8
_1-1_
  6
CONTINUOUS
 62
    7
 10
1921.7253029641074
 20
1249.514665187327
 11
2074.262616396943
 21
1161.753471157476
  0
LINE
  8
_1-1_
  6
CONTINUOUS
 62
    7
 10
1921.7253029641074
 20
1249.514665187327
 11
1950.7147473014211
 21
1241.7937768308107
  0
LINE
  8
_1-1_
  6
CONTINUOUS
 62
    7
 10
1921.7253029641074
 20
1249.514665187327
 11
1942.9704540235575
 21
1228.3334575621434
  0
TEXT
  8
_1-1_
 62
    7
 10
2584.2488342054271
 20
1213.6076452648374
 40
40
 41
1
 50
0
  1
黒
  0
TEXT
  8
_1-1_
 62
    7
 10
2581.7207339658844
 20
1423.3883712644688
 40
40
 41
1
 50
0
  1
白
  0
TEXT
  8
_1-1_
 62
    7
 10
2576.9998937226555
 20
1650.6852203523629
 40
40
 41
1
 50
0
  1
赤
  0
TEXT
  8
_1-1_
 62
    7
 10
2812.4181480538036
 20
1076.6774480949189
 40
64
 41
1
 50
0
  1
3
  0
LINE
  8
_1-1_
  6
CONTINUOUS
 62
    7
 10
2724.6569540239534
 20
1217.7222242143216
 11
2806.1494913373863
 21
1123.6923734680531
  0
LINE
  8
_1-1_
  6
CONTINUOUS
 62
    7
 10
2724.6569540239534
 20
1217.7222242143216
 11
2749.5029854725112
 21
1200.9092910598338
  0
LINE
  8
_1-1_
  6
CONTINUOUS
 62
    7
 10
2724.6569540239534
 20
1217.7222242143216
 11
2737.767781864387
 21
1190.7387812661266
  0
LINE
  8
_1-1_
  6
CONTINUOUS
 62
    7
 10
180.46258843090706
 20
1558.4076671682731
 11
211.80587201299667
 21
1558.4076671682731
  0
LINE
  8
_1-1_
  6
CONTINUOUS
 62
    7
 10
157.47751380404188
 20
1545.8703537354372
 11
157.47751380404188
 21
1355.7211000040943
  0
LINE
  8
_1-1_
  6
CONTINUOUS
 62
    7
 10
180.46258843090706
 20
1558.4076671682731
 11
180.46258843090706
 21
1334.825577616034
  0
LINE
  8
_1-1_
  6
CONTINUOUS
 62
    7
 10
180.46258843090706
 20
1334.825577616034
 11
211.80587201299667
 21
1334.825577616034
  0
LINE
  8
_1-1_
  6
CONTINUOUS
 62
    7
 10
211.80587201299667
 20
1558.4076671682731
 11
211.80587201299667
 21
1334.825577616034
  0
LINE
  8
_1-1_
  6
CONTINUOUS
 62
    7
 10
180.46258843090706
 20
1545.8703537354372
 11
157.47751380404188
 21
1545.8703537354372
  0
LINE
  8
_1-1_
  6
CONTINUOUS
 62
    7
 10
180.46258843090706
 20
1355.7211000040943
 11
157.47751380404188
 21
1355.7211000040943
  0
LINE
  8
_1-1_
  6
CONTINUOUS
 62
    7
 10
211.80587201299667
 20
1533.3330403026016
 11
346.31112353317349
 21
1533.3330403026016
  0
LINE
  8
_1-1_
  6
CONTINUOUS
 62
    7
 10
346.31112353317349
 20
1533.3330403026016
 11
395.68646902792193
 21
1533.3330403026016
  0
LINE
  8
_1-1_
  6
CONTINUOUS
 62
    7
 10
395.68646902792193
 20
1533.3330403026016
 11
395.68646902792193
 21
1493.5541569416287
  0
LINE
  8
_1-1_
  6
CONTINUOUS
 62
    7
 10
211.80587201299667
 20
1366.1688611981238
 11
395.68646902792193
 21
1366.1688611981238
  0
LINE
  8
_1-1_
  6
CONTINUOUS
 62
    7
 10
395.68646902792193
 20
1493.5541569416287
 11
395.68646902792193
 21
1366.1688611981238
  0
LINE
  8
_1-1_
  6
CONTINUOUS
 62
    7
 10
396.76994055915429
 20
1508.1036317896107
 11
404.1994596304649
 21
1508.1036317896107
  0
LINE
  8
_1-1_
  6
CONTINUOUS
 62
    7
 10
404.1994596304649
 20
1508.1036317896107
 11
404.1994596304649
 21
1391.7078330057523
  0
LINE
  8
_1-1_
  6
CONTINUOUS
 62
    7
 10
395.68646902792193
 20
1391.7078330057523
 11
404.1994596304649
 21
1391.7078330057523
  0
LINE
  8
_1-1_
  6
CONTINUOUS
 62
    7
 10
395.68646902792193
 20
1430.5064326003717
 11
404.1994596304649
 21
1430.5064326003717
  0
LINE
  8
_1-1_
  6
CONTINUOUS
 62
    7
 10
395.68646902792193
 20
1469.3050321949913
 11
404.1994596304649
 21
1469.3050321949913
  0
LINE
  8
_1-1_
  6
CONTINUOUS
 62
    7
 10
646.33585281607679
 20
1436.7237775662929
 11
573.292456186148
 21
1436.7237775662929
  0
LINE
  8
_1-1_
  6
CONTINUOUS
 62
    7
 10
646.33585281607679
 20
1448.4871827625338
 11
573.292456186148
 21
1448.4871827625338
  0
LINE
  8
_1-1_
  6
CONTINUOUS
 62
    7
 10
649.43148576245619
 20
1461.6823181964755
 11
573.292456186148
 21
1461.6823181964755
  0
LINE
  8
_1-1_
  6
CONTINUOUS
 62
    7
 10
646.76957293185808
 20
1648.5061945724958
 11
404.1994596304649
 21
1648.5061945724958
  0
TEXT
  8
_1-1_
 62
    7
 10
507.89721019388753
 20
1599.8074583358921
 40
40
 41
1
 50
0
  1
45
  0
LINE
  8
_1-1_
  6
CONTINUOUS
 62
    7
 10
324.80019526851447
 20
1382.7552195299215
 11
503.45691168642441
 21
1269.9193986343989
  0
LINE
  8
_1-1_
  6
CONTINUOUS
 62
    7
 10
324.80019526851447
 20
1382.7552195299215
 11
353.44680897054144
 21
1373.8461498025686
  0
LINE
  8
_1-1_
  6
CONTINUOUS
 62
    7
 10
324.80019526851447
 20
1382.7552195299215
 11
345.15435560319281
 21
1360.7164319709336
  0
TEXT
  8
_1-1_
 62
    7
 10
512.85989676105146
 20
1246.4119359478318
 40
64
 41
1
 50
0
  1
2
  0
TEXT
  8
_1-1_
 62
    7
 10
1116.6493535409359
 20
538.91048998833037
 40
40
 41
1
 50
0
  1
1
  0
TEXT
  8
_1-1_
 62
    7
 10
2587.2629537326029
 20
1773.9698643311817
 40
40
 41
1
 50
0
  1
15
  0
TEXT
  8
_1-1_
 62
    7
 10
2322.3793479871847
 20
1767.0357385263278
 40
40
 41
1
 50
0
  1
50
  0
LINE
  8
_1-1_
  6
CONTINUOUS
 62
    7
 10
2543.9035771737094
 20
1714.0368745061612
 11
2543.9035771737094
 21
1764.4763438262269
  0
LINE
  8
_1-1_
  6
CONTINUOUS
 62
    7
 10
2378.0107777445583
 20
1709.3813408761439
 11
2127.2645090878414
 21
1709.3813408761439
  0
TEXT
  8
_1-1_
 62
    7
 10
2237.7830131679675
 20
1719.7385222742555
 40
40
 41
1
 50
0
  1
20
  0
LINE
  8
_1-1_
  6
CONTINUOUS
 62
    7
 10
2127.2645090878395
 20
1583.8690076498226
 11
2127.2645090878395
 21
1622.0613791257765
  0
LINE
  8
_1-1_
  6
CONTINUOUS
 62
    7
 10
2127.2645090878395
 20
1622.0613791257765
 11
2127.2645090878395
 21
1670.2371668538028
  0
LINE
  8
_1-1_
  6
CONTINUOUS
 62
    7
 10
2252.6376434162003
 20
1650.2703343496564
 11
1931.7645995136274
 21
1650.2703343496564
  0
TEXT
  8
_1-1_
 62
    7
 10
2173.9890557633116
 20
1657.2189271898151
 40
40
 41
1
 50
0
  1
10
  0
TEXT
  8
_1-1_
 62
    7
 10
2011.7305119297307
 20
1659.9925775117567
 40
40
 41
1
 50
0
  1
30
  0
LINE
  8
_1-1_
  6
CONTINUOUS
 62
    7
 10
2127.2645090878414
 20
1527.8512015045778
 11
2127.2645090878414
 21
1764.4763438262269
  0
LINE
  8
_1-1_
  6
CONTINUOUS
 62
    7
 10
2252.6376434162003
 20
1527.8512015045778
 11
2252.6376434162003
 21
1650.2703343496564
  0
LINE
  8
_1-1_
  6
CONTINUOUS
 62
    7
 10
2378.0107777445583
 20
1527.8512015045778
 11
2378.0107777445583
 21
1709.3813408761439
  0
LINE
  8
_1-1_
  6
CONTINUOUS
 62
    7
 10
2218.9461095710412
 20
1405.0951681807906
 11
2138.9461095710412
 21
1485.0951681807903
  0
LINE
  8
_1-1_
  6
CONTINUOUS
 62
    7
 10
2233.0882451947737
 20
1405.0951681807917
 11
2153.0882451947737
 21
1485.0951681807915
  0
LINE
  8
_1-1_
  6
CONTINUOUS
 62
    7
 10
2134.0932958286571
 20
1405.0951681807928
 11
2127.2645090878432
 21
1411.9239549216065
  0
LINE
  8
_1-1_
  6
CONTINUOUS
 62
    7
 10
2148.2354314523895
 20
1405.095168180794
 11
2127.2645090878445
 21
1426.0660905453387
  0
LINE
  8
_1-1_
  6
CONTINUOUS
 62
    7
 10
2162.377567076127
 20
1405.0951681807896
 11
2127.2645090878405
 21
1440.2082261690762
  0
LINE
  8
_1-1_
  6
CONTINUOUS
 62
    7
 10
2176.5197026998389
 20
1405.0951681807926
 11
2127.2645090878432
 21
1454.350361792789
  0
LINE
  8
_1-1_
  6
CONTINUOUS
 62
    7
 10
2190.6618383235768
 20
1405.0951681807883
 11
2127.2645090878432
 21
1468.4924974165224
  0
LINE
  8
_1-1_
  6
CONTINUOUS
 62
    7
 10
2204.8039739473093
 20
1405.0951681807894
 11
2127.2645090878395
 21
1482.6346330402584
  0
LINE
  8
_1-1_
  6
CONTINUOUS
 62
    7
 10
2127.2645090878423
 20
1404.9900665553628
 11
2252.6376434162007
 21
1404.9900665553628
  0
LINE
  8
_1-1_
  6
CONTINUOUS
 62
    7
 10
2378.0107777445583
 20
1444.065607915777
 11
2543.3971773651115
 21
1444.065607915777
  0
TEXT
  8
_1-1_
 62
    7
 10
1335.6058999790325
 20
1282.9475010082224
 40
64
 41
1
 50
0
  1
1
  0
LINE
  8
_1-1_
  6
CONTINUOUS
 62
    7
 10
2127.2645090878395
 20
1484.9900665553628
 11
2252.6376434162007
 21
1484.9900665553628
  0
LINE
  8
_1-1_
  6
CONTINUOUS
 62
    7
 10
2252.6376434162007
 20
1484.9900665553628
 11
2252.6376434162007
 21
1471.3402600324221
  0
LINE
  8
_1-1_
  6
CONTINUOUS
 62
    7
 10
2252.6376434162007
 20
1418.6398730783039
 11
2252.6376434162007
 21
1404.9900665553628
  0
LINE
  8
_1-1_
  6
CONTINUOUS
 62
    7
 10
2246.3673021250106
 20
1405.0951681807917
 11
2166.3673021250106
 21
1485.0951681807915
  0
LINE
  8
_1-1_
  6
CONTINUOUS
 62
    7
 10
2252.6376434162007
 20
1414.0285397654297
 11
2181.5710150008381
 21
1485.0951681807915
  0
CIRCLE
  8
_1-0_
  6
CONTINUOUS
 62
    7
 10
-790.24253731343333
 20
2721.4589552238813
 40
4.2000000000000002
  0
LINE
  8
_1-1_
  6
CONTINUOUS
 62
    7
 10
404.1994596304649
 20
1508.1036317896107
 11
404.1994596304649
 21
1824.0285826321974
  0
ARC
  8
_0-0_
  6
CONTINUOUS
 62
    7
 10
180.24995441633922
 20
1022.8445942033976
 40
30.375000000000007
 50
135.00000000000011
 51
224.99999999999986
  0
ARC
  8
_0-0_
  6
CONTINUOUS
 62
    7
 10
474.02398050217118
 20
1022.8445942033976
 40
30.375000000000007
 50
315.00000000000017
 51
44.999999999999808
  0
LINE
  8
_0-0_
  6
CONTINUOUS
 62
    7
 10
442.34609898071551
 20
1097.4792126819389
 11
495.50234898071312
 21
1044.3229626819389
  0
ARC
  8
_0-0_
  6
CONTINUOUS
 62
    7
 10
420.86773050217181
 20
1076.0008442033977
 40
30.375000000000007
 50
44.999999999999744
 51
89.999999999999943
  0
LINE
  8
_0-0_
  6
CONTINUOUS
 62
    7
 10
211.92783593779515
 20
1097.4792126819389
 11
158.77158593779595
 21
1044.3229626819389
  0
LINE
  8
_0-0_
  6
CONTINUOUS
 62
    7
 10
233.40620441633783
 20
1106.3758442033977
 11
420.86773050217181
 21
1106.3758442033977
  0
ARC
  8
_0-0_
  6
CONTINUOUS
 62
    7
 10
233.40620441633783
 20
1076.0008442033977
 40
30.375000000000007
 50
90
 51
135.0000000000002
  0
LINE
  8
_0-0_
  6
CONTINUOUS
 62
    7
 10
211.92783593779515
 20
948.20997572485635
 11
158.77158593779595
 21
1001.3662257248563
  0
ARC
  8
_0-0_
  6
CONTINUOUS
 62
    7
 10
233.40620441633783
 20
969.68834420339761
 40
30.375000000000007
 50
224.9999999999998
 51
270
  0
LINE
  8
_0-0_
  6
CONTINUOUS
 62
    7
 10
420.86773050217181
 20
939.31334420339749
 11
233.40620441633783
 21
939.31334420339749
  0
LINE
  8
_0-0_
  6
CONTINUOUS
 62
    7
 10
442.34609898071551
 20
948.20997572485635
 11
495.50234898071312
 21
1001.3662257248563
  0
ARC
  8
_0-0_
  6
CONTINUOUS
 62
    7
 10
420.86773050217181
 20
969.68834420339761
 40
30.375000000000007
 50
270
 51
315.00000000000023
  0
LINE
  8
_0-0_
  6
CONTINUOUS
 62
    7
 10
219.68540495925438
 20
1085.4930317033977
 11
219.68540495925438
 21
1022.8445942033976
  0
ARC
  8
_0-0_
  6
CONTINUOUS
 62
    7
 10
234.87290495925342
 20
1085.4930317033977
 40
15.187500000000004
 50
90
 51
180
  0
LINE
  8
_0-0_
  6
CONTINUOUS
 62
    7
 10
419.40102995925662
 20
1100.6805317033977
 11
234.87290495925342
 21
1100.6805317033977
  0
LINE
  8
_0-0_
  6
CONTINUOUS
 62
    7
 10
434.58852995925525
 20
1085.4930317033977
 11
434.58852995925525
 21
1022.8445942033976
  0
ARC
  8
_0-0_
  6
CONTINUOUS
 62
    7
 10
419.40102995925662
 20
1085.4930317033977
 40
15.187500000000004
 50
0
 51
90
  0
LINE
  8
_0-0_
  6
CONTINUOUS
 62
    7
 10
434.58852995925525
 20
960.19615670339761
 11
434.58852995925525
 21
1022.8445942033976
  0
ARC
  8
_0-0_
  6
CONTINUOUS
 62
    7
 10
419.40102995925662
 20
960.19615670339761
 40
15.187500000000004
 50
270
 51
0
  0
LINE
  8
_0-0_
  6
CONTINUOUS
 62
    7
 10
234.87290495925342
 20
945.00865670339761
 11
419.40102995925662
 21
945.00865670339761
  0
LINE
  8
_0-0_
  6
CONTINUOUS
 62
    7
 10
219.68540495925438
 20
960.19615670339761
 11
219.68540495925438
 21
1022.8445942033976
  0
ARC
  8
_0-0_
  6
CONTINUOUS
 62
    7
 10
234.87290495925342
 20
960.19615670339761
 40
15.187500000000004
 50
180
 51
270
  0
LINE
  8
_0-0_
  6
CONTINUOUS
 62
    7
 10
327.1369674592529
 20
975.38365670339749
 11
349.91821745925427
 21
975.38365670339749
  0
LINE
  8
_0-0_
  6
CONTINUOUS
 62
    7
 10
327.1369674592529
 20
975.38365670339749
 11
304.35571745925478
 21
975.38365670339749
  0
LINE
  8
_0-0_
  6
CONTINUOUS
 62
    7
 10
304.35571745925478
 20
975.38365670339749
 11
304.35571745925478
 21
982.97740670339761
  0
LINE
  8
_0-0_
  6
CONTINUOUS
 62
    7
 10
349.91821745925427
 20
975.38365670339749
 11
349.91821745925427
 21
982.97740670339761
  0
LINE
  8
_0-0_
  6
CONTINUOUS
 62
    7
 10
304.35571745925478
 20
982.97740670339761
 11
349.91821745925427
 21
982.97740670339761
  0
LINE
  8
_0-0_
  6
CONTINUOUS
 62
    7
 10
419.40102995925662
 20
1070.3055317033975
 11
419.40102995925662
 21
1027.2489692033976
  0
LINE
  8
_0-0_
  6
CONTINUOUS
 62
    7
 10
419.40102995925662
 20
1027.2489692033976
 11
338.14790495925547
 21
1027.2489692033976
  0
LINE
  8
_0-0_
  6
CONTINUOUS
 62
    7
 10
338.14790495925547
 20
1027.2489692033976
 11
338.14790495925547
 21
1070.3055317033975
  0
LINE
  8
_0-0_
  6
CONTINUOUS
 62
    7
 10
338.14790495925547
 20
1070.3055317033975
 11
419.40102995925662
 21
1070.3055317033975
  0
LINE
  8
_0-0_
  6
CONTINUOUS
 62
    7
 10
353.33540495925587
 20
1046.2333442033976
 11
353.33540495925587
 21
1051.3211567033975
  0
LINE
  8
_0-0_
  6
CONTINUOUS
 62
    7
 10
404.21352995925497
 20
1046.2333442033976
 11
353.33540495925587
 21
1046.2333442033976
  0
LINE
  8
_0-0_
  6
CONTINUOUS
 62
    7
 10
353.33540495925587
 20
1051.3211567033975
 11
404.21352995925497
 21
1051.3211567033975
  0
LINE
  8
_0-0_
  6
CONTINUOUS
 62
    7
 10
404.21352995925497
 20
1051.3211567033975
 11
404.21352995925497
 21
1046.2333442033976
  0
LINE
  8
_0-0_
  6
CONTINUOUS
 62
    7
 10
234.87290495925342
 20
1070.3055317033975
 11
234.87290495925342
 21
1027.2489692033976
  0
LINE
  8
_0-0_
  6
CONTINUOUS
 62
    7
 10
234.87290495925342
 20
1027.2489692033976
 11
316.12602995925459
 21
1027.2489692033976
  0
LINE
  8
_0-0_
  6
CONTINUOUS
 62
    7
 10
316.12602995925459
 20
1027.2489692033976
 11
316.12602995925459
 21
1070.3055317033975
  0
LINE
  8
_0-0_
  6
CONTINUOUS
 62
    7
 10
316.12602995925459
 20
1070.3055317033975
 11
234.87290495925342
 21
1070.3055317033975
  0
LINE
  8
_0-0_
  6
CONTINUOUS
 62
    7
 10
300.93852995925533
 20
1046.2333442033976
 11
300.93852995925533
 21
1051.3211567033975
  0
LINE
  8
_0-0_
  6
CONTINUOUS
 62
    7
 10
250.06040495925484
 20
1046.2333442033976
 11
300.93852995925533
 21
1046.2333442033976
  0
LINE
  8
_0-0_
  6
CONTINUOUS
 62
    7
 10
300.93852995925533
 20
1051.3211567033975
 11
250.06040495925484
 21
1051.3211567033975
  0
LINE
  8
_0-0_
  6
CONTINUOUS
 62
    7
 10
250.06040495925484
 20
1051.3211567033975
 11
250.06040495925484
 21
1046.2333442033976
  0
CIRCLE
  8
_0-0_
  6
CONTINUOUS
 62
    7
 10
475.22327628260217
 20
1022.8445942033976
 40
15.187500000000004
  0
CIRCLE
  8
_0-0_
  6
CONTINUOUS
 62
    7
 10
183.71704751702853
 20
1022.8445942033976
 40
15.187500000000004
  0
LINE
  8
_0-0_
  6
CONTINUOUS
 62
    7
 10
522.08667706999211
 20
898.92805381191727
 11
398.50796812321965
 21
1038.4524026227896
  0
LINE
  8
_0-0_
  6
CONTINUOUS
 62
    7
 10
398.50796812321965
 20
1038.4524026227896
 11
423.53372047738907
 21
1021.9081673999763
  0
LINE
  8
_0-0_
  6
CONTINUOUS
 62
    7
 10
398.50796812321965
 20
1038.4524026227896
 11
411.90878779934212
 21
1011.6117984565631
  0
LINE
  8
_0-0_
  6
CONTINUOUS
 62
    7
 10
522.08667706999211
 20
898.92805381191727
 11
586.08667706999199
 21
898.92805381191727
  0
LINE
  8
_0-0_
  6
CONTINUOUS
 62
    7
 10
469.59894585066388
 20
830.82688355899177
 11
346.0202369038916
 21
970.35123236986374
  0
LINE
  8
_0-0_
  6
CONTINUOUS
 62
    7
 10
346.0202369038916
 20
970.35123236986374
 11
371.04598925806101
 21
953.80699714705065
  0
LINE
  8
_0-0_
  6
CONTINUOUS
 62
    7
 10
346.0202369038916
 20
970.35123236986374
 11
359.42105658001407
 21
943.51062820363745
  0
LINE
  8
_0-0_
  6
CONTINUOUS
 62
    7
 10
469.59894585066388
 20
830.82688355899177
 11
533.59894585066377
 21
830.82688355899177
  0
LINE
  8
_0-0_
  6
CONTINUOUS
 62
    7
 10
131.27822633384977
 20
896.85452476681769
 11
67.278226333849403
 21
896.85452476681769
  0
LINE
  8
_0-0_
  6
CONTINUOUS
 62
    7
 10
131.27822633384977
 20
896.85452476681769
 11
254.8569352806222
 21
1036.3788735776898
  0
LINE
  8
_0-0_
  6
CONTINUOUS
 62
    7
 10
254.8569352806222
 20
1036.3788735776898
 11
241.45611560449956
 21
1009.5382694114635
  0
LINE
  8
_0-0_
  6
CONTINUOUS
 62
    7
 10
254.8569352806222
 20
1036.3788735776898
 11
229.83118292645239
 21
1019.8346383548765
  0
LINE
  8
_0-0_
  6
CONTINUOUS
 62
    7
 10
1734.1562853907135
 20
734.62457531143821
 11
1884.1562853907135
 21
734.62457531143821
  0
LINE
  8
_0-0_
  6
CONTINUOUS
 62
    7
 10
1884.1562853907135
 20
734.62457531143821
 11
1884.1562853907135
 21
794.62457531143821
  0
LINE
  8
_0-0_
  6
CONTINUOUS
 62
    7
 10
1884.1562853907135
 20
794.62457531143821
 11
1734.1562853907135
 21
794.62457531143821
  0
LINE
  8
_0-0_
  6
CONTINUOUS
 62
    7
 10
1734.1562853907135
 20
794.62457531143821
 11
1734.1562853907135
 21
734.62457531143821
  0
LINE
  8
_0-0_
  6
CONTINUOUS
 62
    7
 10
1734.1562853907135
 20
674.62457531143809
 11
1884.1562853907135
 21
674.62457531143809
  0
LINE
  8
_0-0_
  6
CONTINUOUS
 62
    7
 10
1884.1562853907135
 20
674.62457531143809
 11
1884.1562853907135
 21
734.62457531143821
  0
LINE
  8
_0-0_
  6
CONTINUOUS
 62
    7
 10
1884.1562853907135
 20
734.62457531143821
 11
1734.1562853907135
 21
734.62457531143821
  0
LINE
  8
_0-0_
  6
CONTINUOUS
 62
    7
 10
1734.1562853907135
 20
734.62457531143821
 11
1734.1562853907135
 21
674.62457531143809
  0
LINE
  8
_0-0_
  6
CONTINUOUS
 62
    7
 10
1734.1562853907135
 20
614.62457531143832
 11
1884.1562853907135
 21
614.62457531143832
  0
LINE
  8
_0-0_
  6
CONTINUOUS
 62
    7
 10
1884.1562853907135
 20
614.62457531143832
 11
1884.1562853907135
 21
674.62457531143809
  0
LINE
  8
_0-0_
  6
CONTINUOUS
 62
    7
 10
1884.1562853907135
 20
674.62457531143809
 11
1734.1562853907135
 21
674.62457531143809
  0
LINE
  8
_0-0_
  6
CONTINUOUS
 62
    7
 10
1734.1562853907135
 20
674.62457531143809
 11
1734.1562853907135
 21
614.62457531143832
  0
LINE
  8
_0-0_
  6
CONTINUOUS
 62
    7
 10
1734.1562853907135
 20
554.62457531143821
 11
1884.1562853907135
 21
554.62457531143821
  0
LINE
  8
_0-0_
  6
CONTINUOUS
 62
    7
 10
1884.1562853907135
 20
554.62457531143821
 11
1884.1562853907135
 21
614.62457531143832
  0
LINE
  8
_0-0_
  6
CONTINUOUS
 62
    7
 10
1884.1562853907135
 20
614.62457531143832
 11
1734.1562853907135
 21
614.62457531143832
  0
LINE
  8
_0-0_
  6
CONTINUOUS
 62
    7
 10
1734.1562853907135
 20
614.62457531143832
 11
1734.1562853907135
 21
554.62457531143821
  0
TEXT
  8
_0-0_
 62
    7
 10
1748.6126840317102
 20
743.32219705549255
 40
40
 41
1
 50
0
  1
Pin No.
  0
LINE
  8
_0-0_
  6
CONTINUOUS
 62
    7
 10
2440.7059267648169
 20
734.62457531143821
 11
2590.7059267648174
 21
734.62457531143821
  0
LINE
  8
_0-0_
  6
CONTINUOUS
 62
    7
 10
2590.7059267648174
 20
734.62457531143821
 11
2590.7059267648174
 21
794.62457531143821
  0
LINE
  8
_0-0_
  6
CONTINUOUS
 62
    7
 10
2590.7059267648174
 20
794.62457531143821
 11
2440.7059267648169
 21
794.62457531143821
  0
LINE
  8
_0-0_
  6
CONTINUOUS
 62
    7
 10
2440.7059267648169
 20
794.62457531143821
 11
2440.7059267648169
 21
734.62457531143821
  0
LINE
  8
_0-0_
  6
CONTINUOUS
 62
    7
 10
2590.7059267648174
 20
674.62457531143809
 11
2590.7059267648174
 21
734.62457531143821
  0
LINE
  8
_0-0_
  6
CONTINUOUS
 62
    7
 10
2590.7059267648174
 20
734.62457531143821
 11
2440.7059267648169
 21
734.62457531143821
  0
LINE
  8
_0-0_
  6
CONTINUOUS
 62
    7
 10
2440.7059267648169
 20
734.62457531143821
 11
2440.7059267648169
 21
674.62457531143809
  0
LINE
  8
_0-0_
  6
CONTINUOUS
 62
    7
 10
2440.7059267648169
 20
614.62457531143832
 11
2590.7059267648174
 21
614.62457531143832
  0
LINE
  8
_0-0_
  6
CONTINUOUS
 62
    7
 10
2590.7059267648174
 20
614.62457531143832
 11
2590.7059267648174
 21
674.62457531143809
  0
LINE
  8
_0-0_
  6
CONTINUOUS
 62
    7
 10
2590.7059267648174
 20
674.62457531143809
 11
2440.7059267648169
 21
674.62457531143809
  0
LINE
  8
_0-0_
  6
CONTINUOUS
 62
    7
 10
2440.7059267648169
 20
674.62457531143809
 11
2440.7059267648169
 21
614.62457531143832
  0
LINE
  8
_0-0_
  6
CONTINUOUS
 62
    7
 10
2440.7059267648169
 20
554.62457531143821
 11
2590.7059267648174
 21
554.62457531143821
  0
LINE
  8
_0-0_
  6
CONTINUOUS
 62
    7
 10
2590.7059267648174
 20
554.62457531143821
 11
2590.7059267648174
 21
614.62457531143832
  0
LINE
  8
_0-0_
  6
CONTINUOUS
 62
    7
 10
2590.7059267648174
 20
614.62457531143832
 11
2440.7059267648169
 21
614.62457531143832
  0
LINE
  8
_0-0_
  6
CONTINUOUS
 62
    7
 10
2440.7059267648169
 20
614.62457531143832
 11
2440.7059267648169
 21
554.62457531143821
  0
TEXT
  8
_0-0_
 62
    7
 10
2455.1623254058136
 20
743.32219705549255
 40
40
 41
1
 50
0
  1
Pin No.
  0
TEXT
  8
_1-1_
 62
    7
 10
2465.2529256323141
 20
800.33616459041139
 40
40
 41
1
 50
0
  1
R2-4S
  0
LINE
  8
_0-0_
  6
CONTINUOUS
 62
    7
 10
1884.1562853907135
 20
704.62457531143821
 11
2440.7059267648169
 21
704.62457531143821
  0
LINE
  8
_0-0_
  6
CONTINUOUS
 62
    7
 10
1884.1562853907135
 20
644.62457531143821
 11
2440.7059267648169
 21
644.62457531143821
  0
LINE
  8
_0-0_
  6
CONTINUOUS
 62
    7
 10
1884.1562853907135
 20
584.62457531143821
 11
2440.7059267648169
 21
584.62457531143821
  0
TEXT
  8
_0-0_
 62
    7
 10
469.67039800994951
 20
653.93407960199033
 40
40
 41
1
 50
0
  1
部材　　規格    長さ　　　
  0
TEXT
  8
_1-1_
 62
    7
 10
227.26783691959199
 20
1497.6724235560589
 40
30
 41
1
 50
0
  1
Right
  0
TEXT
  8
_1-1_
 62
    7
 10
227.26783691959199
 20
1437.377972819932
 40
30
 41
1
 50
0
  1
GND
  0
TEXT
  8
_1-1_
 62
    7
 10
224.77633069082637
 20
1370.1073046432616
 40
30
 41
1
 50
0
  1
Left
  0
TEXT
  8
_1-1_
 62
    7
 10
364.79898074745131
 20
1498.669026047565
 40
30
 41
1
 50
0
  1
白
  0
TEXT
  8
_1-1_
 62
    7
 10
362.80577576443898
 20
1435.8830690826728
 40
30
 41
1
 50
0
  1
黒
  0
TEXT
  8
_1-1_
 62
    7
 10
361.80917327293264
 20
1376.585220838052
 40
30
 41
1
 50
0
  1
赤
  0
LINE
  8
_0-0_
  6
CONTINUOUS
 62
    7
 10
449.4868836854796
 20
1495.2778807485743
 11
438.7689396354794
 21
1495.2778807485743
  0
LINE
  8
_0-0_
  6
CONTINUOUS
 62
    7
 10
449.4868836854796
 20
1495.2778807485743
 11
449.4868836854796
 21
1482.4163478885744
  0
LINE
  8
_0-0_
  6
CONTINUOUS
 62
    7
 10
449.4868836854796
 20
1482.4163478885744
 11
438.7689396354794
 21
1482.4163478885744
  0
LINE
  8
_0-0_
  6
CONTINUOUS
 62
    7
 10
438.7689396354794
 20
1495.2778807485743
 11
438.7689396354794
 21
1494.2060863435745
  0
LINE
  8
_0-0_
  6
CONTINUOUS
 62
    7
 10
438.7689396354794
 20
1482.4163478885744
 11
438.7689396354794
 21
1483.4881422935744
  0
LINE
  8
_0-0_
  6
CONTINUOUS
 62
    7
 10
404.47151867547916
 20
1498.4932639635745
 11
404.47151867547916
 21
1479.2009646735746
  0
LINE
  8
_0-0_
  6
CONTINUOUS
 62
    7
 10
422.87591440822666
 20
1498.4932639635745
 11
404.47151867547916
 21
1498.4932639635745
  0
ARC
  8
_0-0_
  6
CONTINUOUS
 62
    7
 10
422.87591440822666
 20
1496.3496751535745
 40
2.1435888100000011
 50
45.000000000000561
 51
90.000000000000057
  0
LINE
  8
_0-0_
  6
CONTINUOUS
 62
    7
 10
428.93889914273319
 20
1494.2060863435745
 11
438.7689396354794
 21
1494.2060863435745
  0
LINE
  8
_0-0_
  6
CONTINUOUS
 62
    7
 10
427.42315295910612
 20
1494.8339289699479
 11
424.391660591853
 21
1497.865421337201
  0
ARC
  8
_0-0_
  6
CONTINUOUS
 62
    7
 10
428.93889914273319
 20
1496.3496751535745
 40
2.1435888100000011
 50
224.99999999999943
 51
270
  0
LINE
  8
_0-0_
  6
CONTINUOUS
 62
    7
 10
428.93889914273319
 20
1483.4881422935744
 11
438.7689396354794
 21
1483.4881422935744
  0
ARC
  8
_0-0_
  6
CONTINUOUS
 62
    7
 10
428.93889914273319
 20
1481.3445534835746
 40
2.1435888100000011
 50
90
 51
134.99999999999949
  0
LINE
  8
_0-0_
  6
CONTINUOUS
 62
    7
 10
424.391660591853
 20
1479.828807299948
 11
427.42315295910612
 21
1482.8602996672012
  0
LINE
  8
_0-0_
  6
CONTINUOUS
 62
    7
 10
422.87591440822666
 20
1479.2009646735746
 11
404.47151867547916
 21
1479.2009646735746
  0
ARC
  8
_0-0_
  6
CONTINUOUS
 62
    7
 10
422.87591440822666
 20
1481.3445534835746
 40
2.1435888100000011
 50
270
 51
315.00000000000063
  0
LINE
  8
_0-0_
  6
CONTINUOUS
 62
    7
 10
450.1512853464838
 20
1457.4438972747269
 11
439.43334129648377
 21
1457.4438972747269
  0
LINE
  8
_0-0_
  6
CONTINUOUS
 62
    7
 10
450.1512853464838
 20
1457.4438972747269
 11
450.1512853464838
 21
1444.5823644147267
  0
LINE
  8
_0-0_
  6
CONTINUOUS
 62
    7
 10
450.1512853464838
 20
1444.5823644147267
 11
439.43334129648377
 21
1444.5823644147267
  0
LINE
  8
_0-0_
  6
CONTINUOUS
 62
    7
 10
439.43334129648377
 20
1457.4438972747269
 11
439.43334129648377
 21
1456.3721028697269
  0
LINE
  8
_0-0_
  6
CONTINUOUS
 62
    7
 10
439.43334129648377
 20
1444.5823644147267
 11
439.43334129648377
 21
1445.6541588197269
  0
LINE
  8
_0-0_
  6
CONTINUOUS
 62
    7
 10
405.13592033648354
 20
1460.6592804897268
 11
405.13592033648354
 21
1441.366981199727
  0
LINE
  8
_0-0_
  6
CONTINUOUS
 62
    7
 10
423.54031606923087
 20
1460.6592804897268
 11
405.13592033648354
 21
1460.6592804897268
  0
ARC
  8
_0-0_
  6
CONTINUOUS
 62
    7
 10
423.54031606923087
 20
1458.5156916797266
 40
2.1435888100000011
 50
45.000000000000561
 51
90.000000000000057
  0
LINE
  8
_0-0_
  6
CONTINUOUS
 62
    7
 10
429.60330080373757
 20
1456.3721028697269
 11
439.43334129648377
 21
1456.3721028697269
  0
LINE
  8
_0-0_
  6
CONTINUOUS
 62
    7
 10
428.0875546201105
 20
1456.9999454961003
 11
425.05606225285737
 21
1460.0314378633534
  0
ARC
  8
_0-0_
  6
CONTINUOUS
 62
    7
 10
429.60330080373757
 20
1458.5156916797268
 40
2.1435888100000011
 50
224.99999999999943
 51
270
  0
LINE
  8
_0-0_
  6
CONTINUOUS
 62
    7
 10
429.60330080373757
 20
1445.6541588197269
 11
439.43334129648377
 21
1445.6541588197269
  0
ARC
  8
_0-0_
  6
CONTINUOUS
 62
    7
 10
429.60330080373757
 20
1443.510570009727
 40
2.1435888100000011
 50
90
 51
134.99999999999949
  0
LINE
  8
_0-0_
  6
CONTINUOUS
 62
    7
 10
425.05606225285737
 20
1441.9948238261002
 11
428.0875546201105
 21
1445.0263161933533
  0
LINE
  8
_0-0_
  6
CONTINUOUS
 62
    7
 10
423.54031606923087
 20
1441.366981199727
 11
405.13592033648354
 21
1441.366981199727
  0
ARC
  8
_0-0_
  6
CONTINUOUS
 62
    7
 10
423.54031606923087
 20
1443.510570009727
 40
2.1435888100000011
 50
270
 51
315.00000000000063
  0
LINE
  8
_0-0_
  6
CONTINUOUS
 62
    7
 10
450.1512853464838
 20
1418.4656664958165
 11
439.43334129648377
 21
1418.4656664958165
  0
LINE
  8
_0-0_
  6
CONTINUOUS
 62
    7
 10
450.1512853464838
 20
1418.4656664958165
 11
450.1512853464838
 21
1405.6041336358167
  0
LINE
  8
_0-0_
  6
CONTINUOUS
 62
    7
 10
450.1512853464838
 20
1405.6041336358167
 11
439.43334129648377
 21
1405.6041336358167
  0
LINE
  8
_0-0_
  6
CONTINUOUS
 62
    7
 10
439.43334129648377
 20
1418.4656664958165
 11
439.43334129648377
 21
1417.3938720908168
  0
LINE
  8
_0-0_
  6
CONTINUOUS
 62
    7
 10
439.43334129648377
 20
1405.6041336358167
 11
439.43334129648377
 21
1406.6759280408164
  0
LINE
  8
_0-0_
  6
CONTINUOUS
 62
    7
 10
405.13592033648354
 20
1421.6810497108165
 11
405.13592033648354
 21
1402.3887504208165
  0
LINE
  8
_0-0_
  6
CONTINUOUS
 62
    7
 10
423.54031606923087
 20
1421.6810497108165
 11
405.13592033648354
 21
1421.6810497108165
  0
ARC
  8
_0-0_
  6
CONTINUOUS
 62
    7
 10
423.54031606923087
 20
1419.5374609008168
 40
2.1435888100000011
 50
45.000000000000561
 51
90.000000000000057
  0
LINE
  8
_0-0_
  6
CONTINUOUS
 62
    7
 10
429.60330080373757
 20
1417.3938720908168
 11
439.43334129648377
 21
1417.3938720908168
  0
LINE
  8
_0-0_
  6
CONTINUOUS
 62
    7
 10
428.0875546201105
 20
1418.02171471719
 11
425.05606225285737
 21
1421.0532070844433
  0
ARC
  8
_0-0_
  6
CONTINUOUS
 62
    7
 10
429.60330080373757
 20
1419.5374609008168
 40
2.1435888100000011
 50
224.99999999999943
 51
270
  0
LINE
  8
_0-0_
  6
CONTINUOUS
 62
    7
 10
429.60330080373757
 20
1406.6759280408164
 11
439.43334129648377
 21
1406.6759280408164
  0
ARC
  8
_0-0_
  6
CONTINUOUS
 62
    7
 10
429.60330080373757
 20
1404.5323392308169
 40
2.1435888100000011
 50
90
 51
134.99999999999949
  0
LINE
  8
_0-0_
  6
CONTINUOUS
 62
    7
 10
425.05606225285737
 20
1403.0165930471899
 11
428.0875546201105
 21
1406.048085414443
  0
LINE
  8
_0-0_
  6
CONTINUOUS
 62
    7
 10
423.54031606923087
 20
1402.3887504208165
 11
405.13592033648354
 21
1402.3887504208165
  0
ARC
  8
_0-0_
  6
CONTINUOUS
 62
    7
 10
423.54031606923087
 20
1404.5323392308169
 40
2.1435888100000011
 50
270
 51
315.00000000000063
  0
LINE
  8
_0-0_
  6
CONTINUOUS
 62
    7
 10
449.4868836854796
 20
1488.8471143185748
 11
573.292456186148
 21
1461.6823181964755
  0
LINE
  8
_0-0_
  6
CONTINUOUS
 62
    7
 10
573.292456186148
 20
1448.4871827625338
 11
450.1512853464838
 21
1451.0131308447269
  0
LINE
  8
_0-0_
  6
CONTINUOUS
 62
    7
 10
450.1512853464838
 20
1412.0349000658166
 11
573.292456186148
 21
1436.7237775662929
  0
LINE
  8
_0-0_
  6
CONTINUOUS
 62
    7
 10
593.8109678264583
 20
1335.181812209074
 11
453.29001652407999
 21
1400.9575766484854
  0
LINE
  8
_0-0_
  6
CONTINUOUS
 62
    7
 10
453.29001652407999
 20
1400.9575766484854
 11
482.82661714043684
 21
1395.7050321194183
  0
LINE
  8
_0-0_
  6
CONTINUOUS
 62
    7
 10
453.29001652407999
 20
1400.9575766484854
 11
476.2431907347468
 21
1381.640439343626
  0
TEXT
  8
_1-1_
 62
    7
 10
1118.1795974980328
 20
483.11782579910823
 40
40
 41
1
 50
0
  1
3
  0
TEXT
  8
_1-1_
 62
    7
 10
100.03731343283545
 20
474.96811397557678
 40
40
 41
1
 50
0
  1
 圧着端子
  0
TEXT
  8
_1-1_
 62
    7
 10
100.03731343283545
 20
529.51356852103129
 40
40
 41
1
 50
0
  1
 インレット
  0
TEXT
  8
_1-1_
 62
    7
 10
100.03731343283545
 20
584.05902306648579
 40
40
 41
1
 50
0
  1
 ケーブル
  0
TEXT
  8
_1-1_
 62
    7
 10
388.65671641791062
 20
584.05902306648579
 40
40
 41
1
 50
0
  1
 VCTF AWG16 3芯
  0
TEXT
  8
_1-1_
 62
    7
 10
388.65671641791062
 20
474.96811397557678
 40
40
 41
1
 50
0
  1
 R2-4S
  0
LINE
  8
_1-1_
  6
CONTINUOUS
 62
    7
 10
646.76957293185808
 20
1480.7029807239514
 11
646.76957293185808
 21
1648.5061945724958
  0
LINE
  8
_1-1_
  6
CONTINUOUS
 62
    7
 10
897.51584158857463
 20
1497.3038728477861
 11
897.51584158857463
 21
1648.5061945724958
  0
LINE
  8
_1-1_
  6
CONTINUOUS
 62
    7
 10
2661.6714507686975
 20
1714.0368745061612
 11
2661.6714507686975
 21
1824.0285826321974
  0
TEXT
  8
_1-1_
 62
    7
 10
1317.5761712875246
 20
1790.2732755751581
 40
64
 41
1
 50
0
  1
1150±20
  0
LINE
  8
_1-1_
  6
CONTINUOUS
 62
    7
 10
404.1994596304649
 20
1824.0285826321974
 11
1302.0392278953923
 21
1824.0285826321974
  0
LINE
  8
_1-1_
  6
CONTINUOUS
 62
    7
 10
1594.9408468244085
 20
1824.0285826321974
 11
2661.6714507686975
 21
1824.0285826321974
  0
TEXT
  8
_1-1_
 62
    7
 10
2132.431106077765
 20
704.62457531143821
 40
40
 41
1
 50
0
  1
White
  0
TEXT
  8
_1-1_
 62
    7
 10
2132.431106077765
 20
644.62457531143821
 40
40
 41
1
 50
0
  1
Black
  0
TEXT
  8
_1-1_
 62
    7
 10
2152.4311060777654
 20
584.62457531143821
 40
40
 41
1
 50
0
  1
Red
  0
TEXT
  8
_0-0_
 62
    7
 10
2790.091846324663
 20
1649.6882457952993
 40
40
 41
1
 50
0
  1
Red
  0
TEXT
  8
_0-0_
 62
    7
 10
2770.0918463246635
 20
1423.5164247702969
 40
40
 41
1
 50
0
  1
White
  0
TEXT
  8
_0-0_
 62
    7
 10
2770.0918463246635
 20
1210.3820964120882
 40
40
 41
1
 50
0
  1
Black
  0
TEXT
  8
_1-1_
 62
    7
 10
1957.312243588236
 20
263.75624601425335
 40
40
 41
1
 50
0
  1
2
  0
TEXT
  8
_0-0_
 62
    7
 10
1510.5646359583955
 20
55.807578008915243
 40
64
 41
1
 50
0
  1
FABOOL Laser Co2
  0
TEXT
  8
_0-0_
 62
    7
 10
522.08667706999211
 20
898.92805381191749
 40
64
 41
1
 50
0
  1
Red
  0
TEXT
  8
_0-0_
 62
    7
 10
469.59894585066388
 20
830.82688355899177
 40
64
 41
1
 50
0
  1
Black
  0
TEXT
  8
_0-0_
 62
    7
 10
48.17052841559061
 20
816.67883181337663
 40
64
 41
1
 50
0
  1
White
  0
TEXT
  8
_1-1_
 62
    7
 10
388.65671641791079
 20
529.51356852103129
 40
40
 41
1
 50
0
  1
 Inlet DF100-10A-01
  0
TEXT
  8
_1-1_
 62
    7
 10
1689.579086447716
 20
800.33616459041139
 40
40
 41
1
 50
0
  1
DF100-10A-01
  0
TEXT
  8
_1-1_
 62
    7
 10
2027.9935824839561
 20
805.94205360513411
 40
40
 41
1
 50
0
  1
VCTF AWG16 3芯
  0
TEXT
  8
_0-0_
 62
    7
 10
59.711685600247705
 20
1480.8423853358765
 40
30
 41
1
 50
0
  1
WHite
  0
TEXT
  8
_0-0_
 62
    7
 10
59.711685600248103
 20
1436.9617883209514
 40
30
 41
1
 50
0
  1
Black
  0
TEXT
  8
_0-0_
 62
    7
 10
89.711685600248245
 20
1389.9468629478172
 40
30
 41
1
 50
0
  1
Red
  0
TEXT
  8
_0-0_
 62
    7
 10
1589.270363851105
 20
879.22145357827321
 40
35
 41
1
 50
0
  1
FLC_cover left_2018.04.19
  0
TEXT
  8
_0-0_
 62
    7
 10
2290.8259251802765
 20
154.70773855156676
 40
40
 41
1
 50
0
  1
日付
  0
TEXT
  8
_0-0_
 62
    7
 10
2170.8529645772787
 20
55.318919791522603
 40
70
 41
1
 50
0
  1
2018/05/06
  0
TEXT
  8
_1-1_
 62
    7
 10
388.65671641791062
 20
311.33175033921316
 40
40
 41
1
 50
0
  1
 テプラ9mm 
  0
TEXT
  8
_1-1_
 62
    7
 10
1119.6745012352919
 20
428.53530752463047
 40
40
 41
1
 50
0
  1
2
  0
TEXT
  8
_1-1_
 62
    7
 10
1119.6745012352919
 20
373.97132111466459
 40
40
 41
1
 50
0
  1
3
  0
TEXT
  8
_1-1_
 62
    7
 10
1121.1694049725513
 20
320.90223844195782
 40
40
 41
1
 50
0
  1
1
  0
TEXT
  8
_1-1_
 62
    7
 10
388.65671641791062
 20
420.42265943012217
 40
40
 41
1
 50
0
  1
 8Φ20mm
  0
TEXT
  8
_1-1_
 62
    7
 10
100.03731343283545
 20
420.42265943012217
 40
40
 41
1
 50
0
  1
 収縮チューブ
  0
TEXT
  8
_1-1_
 62
    7
 10
100.03731343283545
 20
365.87720488466761
 40
40
 41
1
 50
0
  1
 圧着端子
  0
TEXT
  8
_1-1_
 62
    7
 10
100.03731343283545
 20
311.33175033921316
 40
40
 41
1
 50
0
  1
 表示
  0
TEXT
  8
_1-1_
 62
    7
 10
937.87769783252827
 20
1210.7843095912799
 40
64
 41
1
 50
0
  1
4
  0
TEXT
  8
_1-1_
 62
    7
 10
598.90474325901209
 20
1298.1725132055776
 40
64
 41
1
 50
0
  1
5
  0
TEXT
  8
_1-1_
 62
    7
 10
2072.0390716172205
 20
1132.0531102205032
 40
64
 41
1
 50
0
  1
6
  0
TEXT
  8
_1-1_
 62
    7
 10
388.65671641791062
 20
365.87720488466761
 40
40
 41
1
 50
0
  1
 TMEDN-630809-FA
  0
TEXT
  8
_0-0_
 62
    7
 10
2392.4723742601368
 20
879.22145357827321
 40
35
 41
1
 50
0
  1
Terminal block
  0
TEXT
  8
_0-0_
 62
    7
 10
1799.1562853907135
 20
684.62457531143832
 40
40
 41
1
 50
0
  1
1
  0
TEXT
  8
_0-0_
 62
    7
 10
1799.1562853907135
 20
624.62457531143832
 40
40
 41
1
 50
0
  1
2
  0
TEXT
  8
_0-0_
 62
    7
 10
1799.1562853907135
 20
564.62457531143821
 40
40
 41
1
 50
0
  1
3
  0
TEXT
  8
_0-0_
 62
    7
 10
2505.7059267648165
 20
684.62457531143832
 40
40
 41
1
 50
0
  1
1
  0
TEXT
  8
_0-0_
 62
    7
 10
2505.7059267648165
 20
624.62457531143832
 40
40
 41
1
 50
0
  1
2
  0
TEXT
  8
_0-0_
 62
    7
 10
2505.7059267648165
 20
564.62457531143821
 40
40
 41
1
 50
0
  1
3
  0
LINE
  8
_0-0_
  6
CONTINUOUS
 62
    7
 10
425.47011207970121
 20
1516.0753424657535
 11
569.480074719801
 21
1896.8474470734745
  0
LINE
  8
_0-0_
  6
CONTINUOUS
 62
    7
 10
425.47011207970121
 20
1516.0753424657535
 11
427.5619811831757
 21
1536.9708942329103
  0
LINE
  8
_0-0_
  6
CONTINUOUS
 62
    7
 10
425.47011207970121
 20
1516.0753424657535
 11
437.72949974828026
 21
1533.1254865704668
  0
TEXT
  8
_0-0_
 62
    7
 10
579.24346201743469
 20
1902.9495641344956
 40
35
 41
1
 50
0
  1
取付後、半田付け
  0
LINE
  8
_0-0_
  6
CONTINUOUS
 62
    7
 10
569.480074719801
 20
1896.8474470734745
 11
875.80635118306373
 21
1896.8474470734745
  0
TEXT
  8
_0-0_
 62
    7
 10
1931.7974263179744
 20
210.06973848069751
 40
40
 41
1
 50
0
  1
Ver.
  0
TEXT
  8
_0-0_
 62
    7
 10
1941.4438225538968
 20
154.96811397557661
 40
40
 41
1
 50
0
  1
5.0
  0
TEXT
  8
_1-1_
 62
    7
 10
1566.867359447619
 20
393.48656281350378
 40
35
 41
1
 50
0
  1
AC-Main Cable_ver.5.0
  0
TEXT
  8
_1-1_
 62
    7
 10
1867.2478206724784
 20
1458.7154420921545
 40
28
 41
1
 50
-90
  1
AC-Main Ver.5.0
  0
ENDSEC
  0
EOF
