  0
SECTION
  2
HEADER
  9
$ACADVER
  1
AC1009
  9
$INSBASE
 10
0
 20
0
 30
0
  9
$EXTMIN
 10
0
 20
0
  9
$EXTMAX
 10
2940
 20
2079
  9
$LIMMIN
 10
0
 20
0
  9
$LIMMAX
 10
2940
 20
2079
  9
$LTSCALE
 40
7
  0
ENDSEC
  0
SECTION
  2
TABLES
  0
TABLE
  2
LTYPE
 70
     9
  0
LTYPE
  2
CONTINUOUS
 70
    64
  3
実線
 72
    65
 73
     0
 40
0.0
  0
LTYPE
  2
DASHED1
 70
    64
  3
--  --  --  --  --  --  --  --  
 72
    65
 73
     2
 40
2.5
 49
1.25
 49
-1.25
  0
LTYPE
  2
DASHED2
 70
    64
  3
----    ----    ----    ----    
 72
    65
 73
     2
 40
5.0
 49
2.5
 49
-2.5
  0
LTYPE
  2
DASHED3
 70
    64
  3
------  ------  ------  ------  
 72
    65
 73
     2
 40
5.0
 49
3.75
 49
-1.25
  0
LTYPE
  2
CENTER1
 70
    64
  3
----- - ----- - ----- - ----- - 
 72
    65
 73
     4
 40
10.0
 49
6.25
 49
-1.25
 49
1.25
 49
-1.25
  0
LTYPE
  2
CENTER2
 70
    64
  3
----------  --  ----------  --  
 72
    65
 73
     4
 40
20.0
 49
12.5
 49
-2.5
 49
2.5
 49
-2.5
  0
LTYPE
  2
PHANTOM1
 70
    64
  3
--- - - --- - - --- - - --- - - 
 72
    65
 73
     6
 40
10.0
 49
3.25
 49
-1.25
 49
1.25
 49
-1.25
 49
1.25
 49
-1.25
  0
LTYPE
  2
PHANTOM2
 70
    64
  3
--------  -  -  --------  -  -  
 72
    65
 73
     6
 40
20.0
 49
10.0
 49
-2.5
 49
1.25
 49
-2.5
 49
1.25
 49
-2.5
  0
LTYPE
  2
DOT
 70
    64
  3
-   -   -   -   -   -   -   -   
 72
    65
 73
     2
 40
2.5
 49
0.625
 49
-1.875
  0
LTYPE
  2
DUMMY
 70
    64
  3
ダミー
 72
    65
 73
     0
 40
0.0
  0
LTYPE
  2
RAND1
 70
    64
  3
ランダム線1
 72
    65
 73
     4
 40
10.0
 49
1.0
 49
-2.0
 49
3.0
 49
-4.0
  0
LTYPE
  2
RAND2
 70
    64
  3
ランダム線2
 72
    65
 73
     4
 40
14.0
 49
2.0
 49
-3.0
 49
4.0
 49
-5.0
  0
LTYPE
  2
RAND3
 70
    64
  3
ランダム線3
 72
    65
 73
     4
 40
18.0
 49
3.0
 49
-4.0
 49
5.0
 49
-6.0
  0
LTYPE
  2
RAND4
 70
    64
  3
ランダム線4
 72
    65
 73
     4
 40
22.0
 49
4.0
 49
-5.0
 49
6.0
 49
-7.0
  0
LTYPE
  2
RAND5
 70
    64
  3
ランダム線5
 72
    65
 73
     4
 40
26.0
 49
5.0
 49
-6.0
 49
7.0
 49
-8.0
  0
LTYPE
  2
LONG1
 70
    64
  3
----------  --  ----------  --  
 72
    65
 73
     4
 40
40.0
 49
32.5
 49
-2.5
 49
2.5
 49
-2.5
  0
LTYPE
  2
LONG2
 70
    64
  3
--------  -  -  --------  -  -  
 72
    65
 73
     6
 40
40.0
 49
30.0
 49
-2.5
 49
1.25
 49
-2.5
 49
1.25
 49
-2.5
  0
LTYPE
  2
LONG3
 70
    64
  3
+++++++++++++++..+++++++++++++++
 72
    65
 73
     2
 40
40.0
 49
37.5
 49
-2.5
  0
LTYPE
  2
LONG4
 70
    64
  3
+++++++++++++++..+++++++++++++++
 72
    65
 73
     2
 40
80.0
 49
75.0
 49
-5.0
  0
LTYPE
  2
LONG5
 70
    64
  3
----------  --  ----------  --  
 72
    65
 73
     4
 40
60.0
 49
37.5
 49
-7.5
 49
7.5
 49
-7.5
  0
LTYPE
  2
dashed
 70
   64
  3
-------   -------------   ------
 72
   65
 73
    2
 40
7.5
 49
6
 49
-1.5
  0
LTYPE
  2
dashed_spaced
 70
   64
  3
----        --------        ----
 72
   65
 73
    2
 40
12
 49
6
 49
-6
  0
LTYPE
  2
long_dashed_dotted
 70
   64
  3
------------- --- --------------
 72
   65
 73
    4
 40
15.25
 49
12
 49
-1.5
 49
0.25
 49
-1.5
  0
LTYPE
  2
long_dashed_double-dotted
 70
   64
  3
----------- --- --- ------------
 72
   65
 73
    6
 40
17
 49
12
 49
-1.5
 49
0.25
 49
-1.5
 49
0.25
 49
-1.5
  0
LTYPE
  2
long_dashed_triplicate-dotted
 70
   64
  3
--------- --- --- --- ----------
 72
   65
 73
    8
 40
18.75
 49
12
 49
-1.5
 49
0.25
 49
-1.5
 49
0.25
 49
-1.5
 49
0.25
 49
-1.5
  0
LTYPE
  2
dotted
 70
   64
  3
   -       -       -       -    
 72
   65
 73
    2
 40
1.75
 49
0.25
 49
-1.5
  0
LTYPE
  2
chain
 70
   64
  3
-------------- -- --------------
 72
   65
 73
    4
 40
18.5
 49
12
 49
-1.5
 49
3.5
 49
-1.5
  0
LTYPE
  2
chain_double_dash
 70
   64
  3
------------ -- -- -------------
 72
   65
 73
    6
 40
23.5
 49
12
 49
-1.5
 49
3.5
 49
-1.5
 49
3.5
 49
-1.5
  0
LTYPE
  2
dashed_dotted
 70
   64
  3
-----------     -     ----------
 72
   65
 73
    4
 40
9.25
 49
6
 49
-1.5
 49
0.25
 49
-1.5
  0
LTYPE
  2
double-dashed_dotted
 70
   64
  3
------   -----------   -   -----
 72
   65
 73
    6
 40
16.75
 49
6
 49
-1.5
 49
6
 49
-1.5
 49
0.25
 49
-1.5
  0
LTYPE
  2
dashed_double-dotted
 70
   64
  3
---------    -    -    ---------
 72
   65
 73
    6
 40
11
 49
6
 49
-1.5
 49
0.25
 49
-1.5
 49
0.25
 49
-1.5
  0
LTYPE
  2
double-dashed_double-dotted
 70
   64
  3
-----   ---------   -   -   ----
 72
   65
 73
    8
 40
18.5
 49
6
 49
-1.5
 49
6
 49
-1.5
 49
0.25
 49
-1.5
 49
0.25
 49
-1.5
  0
LTYPE
  2
dashed_triplicate-dotted
 70
   64
  3
-------    -    -    -    ------
 72
   65
 73
    8
 40
12.75
 49
6
 49
-1.5
 49
0.25
 49
-1.5
 49
0.25
 49
-1.5
 49
0.25
 49
-1.5
  0
LTYPE
  2
double-dashed_triplicate-dotted
 70
   64
  3
-----  ---------  -  -  -  -----
 72
   65
 73
   10
 40
20.25
 49
6
 49
-1.5
 49
6
 49
-1.5
 49
0.25
 49
-1.5
 49
0.25
 49
-1.5
 49
0.25
 49
-1.5
  0
LTYPE
  2
undefined
 70
   64
  3
--------------------------------
 72
   65
 73
    0
 40
0
  0
LTYPE
  2
_
 70
   64
  3
                                
 72
   65
 73
    0
 40
0
  0
LTYPE
  2
__18
 70
   64
  3
                                
 72
   65
 73
    0
 40
0
  0
LTYPE
  2
__19
 70
   64
  3
                                
 72
   65
 73
    0
 40
0
  0
LTYPE
  2
__20
 70
   64
  3
                                
 72
   65
 73
    0
 40
0
  0
LTYPE
  2
__21
 70
   64
  3
                                
 72
   65
 73
    0
 40
0
  0
LTYPE
  2
__22
 70
   64
  3
                                
 72
   65
 73
    0
 40
0
  0
LTYPE
  2
__23
 70
   64
  3
                                
 72
   65
 73
    0
 40
0
  0
LTYPE
  2
__24
 70
   64
  3
                                
 72
   65
 73
    0
 40
0
  0
LTYPE
  2
__25
 70
   64
  3
                                
 72
   65
 73
    0
 40
0
  0
LTYPE
  2
__26
 70
   64
  3
                                
 72
   65
 73
    0
 40
0
  0
LTYPE
  2
__27
 70
   64
  3
                                
 72
   65
 73
    0
 40
0
  0
LTYPE
  2
__28
 70
   64
  3
                                
 72
   65
 73
    0
 40
0
  0
LTYPE
  2
__29
 70
   64
  3
                                
 72
   65
 73
    0
 40
0
  0
LTYPE
  2
__30
 70
   64
  3
                                
 72
   65
 73
    0
 40
0
  0
LTYPE
  2
__31
 70
   64
  3
                                
 72
   65
 73
    0
 40
0
  0
LTYPE
  2
__32
 70
   64
  3
                                
 72
   65
 73
    0
 40
0
  0
ENDTAB
  0
TABLE
  2
STYLE
  5
3
100
AcDbSymbolTable
 70
     1
  0
STYLE
  5
10
100
AcDbSymbolTableRecord
100
AcDbTextStyleTableRecord
  2
STANDARD
 70
     0
 40
0.0
 41
1.0
 50
0.0
 71
     0
 42
0.2
  3
txt
  4
bigfont.shx
  0
STYLE
  5
26
100
AcDbSymbolTableRecord
100
AcDbTextStyleTableRecord
  2
TATEGAKI
 70
    68
 40
0.0
 41
1.0
 50
0.0
 71
     0
 42
1.0
  3
txt
  4
bigfont.shx
  0
ENDTAB
  0
TABLE
  2
LAYER
 70
    4
  0
LAYER
  2
_0-0_
 70
   64
 62
    7
  6
CONTINUOUS
  0
LAYER
  2
_1-0_
 70
   64
 62
    7
  6
CONTINUOUS
  0
LAYER
  2
_1-3_
 70
   64
 62
    7
  6
CONTINUOUS
  0
LAYER
  2
ADD_LINE
 70
   64
 62
    7
  6
CONTINUOUS
  0
ENDTAB
  0
ENDSEC
  0
SECTION
  2
BLOCKS
  0
ENDSEC
  0
SECTION
  2
ENTITIES
  0
LINE
  8
_0-0_
  6
CONTINUOUS
 62
    7
 10
1230.0373134328354
 20
474.96811397557678
 11
30.037313432835447
 21
474.96811397557678
  0
LINE
  8
_0-0_
  6
CONTINUOUS
 62
    7
 10
1230.0373134328354
 20
420.42265943012217
 11
30.037313432835447
 21
420.42265943012217
  0
LINE
  8
_1-3_
  6
CONTINUOUS
 62
    7
 10
582.95308509741687
 20
1436.7243169708604
 11
430.3701309224225
 21
1412.1797937533506
  0
LINE
  8
_1-3_
  6
CONTINUOUS
 62
    7
 10
907.17647049984373
 20
1484.9906059599307
 11
2136.9251379991083
 21
1484.9906059599307
  0
LINE
  8
_1-3_
  6
CONTINUOUS
 62
    7
 10
907.17647049984373
 20
1484.9906059599307
 11
907.17647049984373
 21
1404.9906059599307
  0
LINE
  8
_1-3_
  6
CONTINUOUS
 62
    7
 10
656.43020184312695
 20
1471.3407994369898
 11
656.43020184312695
 21
1418.6404124828714
  0
LINE
  8
_1-3_
  6
CONTINUOUS
 62
    7
 10
781.8033361714854
 20
1471.3407994369898
 11
656.43020184312695
 21
1471.3407994369898
  0
LINE
  8
_1-3_
  6
CONTINUOUS
 62
    7
 10
781.8033361714854
 20
1418.6404124828714
 11
656.43020184312695
 21
1418.6404124828714
  0
LINE
  8
_1-3_
  6
CONTINUOUS
 62
    7
 10
781.8033361714854
 20
1484.9906059599307
 11
781.8033361714854
 21
1471.3407994369898
  0
LINE
  8
_1-3_
  6
CONTINUOUS
 62
    7
 10
781.8033361714854
 20
1418.6404124828714
 11
781.8033361714854
 21
1404.9906059599307
  0
LINE
  8
_1-3_
  6
CONTINUOUS
 62
    7
 10
900.34768375902866
 20
1404.9906059599321
 11
907.17647049984214
 21
1411.8193927007455
  0
LINE
  8
_1-3_
  6
CONTINUOUS
 62
    7
 10
886.20554813529657
 20
1404.9906059599332
 11
907.17647049984089
 21
1425.9615283244775
  0
LINE
  8
_1-3_
  6
CONTINUOUS
 62
    7
 10
872.06341251155891
 20
1404.9906059599289
 11
907.17647049984532
 21
1440.1036639482154
  0
LINE
  8
_1-3_
  6
CONTINUOUS
 62
    7
 10
857.92127688784626
 20
1404.9906059599316
 11
907.17647049984271
 21
1454.2457995719278
  0
LINE
  8
_1-3_
  6
CONTINUOUS
 62
    7
 10
843.77914126410906
 20
1404.9906059599275
 11
907.17647049984271
 21
1468.3879351956612
  0
LINE
  8
_1-3_
  6
CONTINUOUS
 62
    7
 10
829.63700564037686
 20
1404.9906059599284
 11
907.17647049984612
 21
1482.5300708193977
  0
LINE
  8
_1-3_
  6
CONTINUOUS
 62
    7
 10
815.49487001664465
 20
1404.9906059599296
 11
895.4948700166442
 21
1484.9906059599296
  0
LINE
  8
_1-3_
  6
CONTINUOUS
 62
    7
 10
801.35273439291245
 20
1404.9906059599307
 11
881.35273439291177
 21
1484.9906059599307
  0
LINE
  8
_1-3_
  6
CONTINUOUS
 62
    7
 10
787.21059876918025
 20
1404.9906059599318
 11
867.21059876917957
 21
1484.9906059599316
  0
LINE
  8
_1-3_
  6
CONTINUOUS
 62
    7
 10
781.80333617148767
 20
1413.7254789859728
 11
853.06846314544509
 21
1484.9906059599305
  0
LINE
  8
_1-3_
  6
CONTINUOUS
 62
    7
 10
772.57613404465189
 20
1418.6404124828705
 11
838.92632752171016
 21
1484.9906059599286
  0
LINE
  8
_1-3_
  6
CONTINUOUS
 62
    7
 10
758.43399842093936
 20
1418.6404124828732
 11
824.78419189799752
 21
1484.9906059599311
  0
LINE
  8
_1-3_
  6
CONTINUOUS
 62
    7
 10
744.29186279720716
 20
1418.6404124828741
 11
810.64205627426509
 21
1484.9906059599325
  0
LINE
  8
_1-3_
  6
CONTINUOUS
 62
    7
 10
730.14972717346973
 20
1418.64041248287
 11
796.49992065052766
 21
1484.9906059599284
  0
LINE
  8
_1-3_
  6
CONTINUOUS
 62
    7
 10
716.00759154973707
 20
1418.6404124828709
 11
768.70797850385406
 21
1471.3407994369873
  0
LINE
  8
_1-3_
  6
CONTINUOUS
 62
    7
 10
781.80333617148654
 20
1484.4361571046206
 11
782.35778502679545
 21
1484.9906059599293
  0
LINE
  8
_1-3_
  6
CONTINUOUS
 62
    7
 10
701.86545592600487
 20
1418.6404124828723
 11
754.56584288012186
 21
1471.3407994369886
  0
LINE
  8
_1-3_
  6
CONTINUOUS
 62
    7
 10
687.72332030226892
 20
1418.6404124828694
 11
740.42370725638784
 21
1471.3407994369882
  0
LINE
  8
_1-3_
  6
CONTINUOUS
 62
    7
 10
673.58118467853524
 20
1418.6404124828691
 11
726.28157163265178
 21
1471.3407994369859
  0
LINE
  8
_1-3_
  6
CONTINUOUS
 62
    7
 10
659.43904905480304
 20
1418.6404124828703
 11
712.13943600891957
 21
1471.3407994369866
  0
LINE
  8
_1-3_
  6
CONTINUOUS
 62
    7
 10
656.43020184312741
 20
1429.7737008949093
 11
697.99730038520181
 21
1471.3407994369841
  0
LINE
  8
_1-3_
  6
CONTINUOUS
 62
    7
 10
656.43020184312809
 20
1443.9158365186436
 11
683.85516476146961
 21
1471.3407994369852
  0
LINE
  8
_1-3_
  6
CONTINUOUS
 62
    7
 10
656.43020184313036
 20
1458.057972142379
 11
669.71302913773741
 21
1471.3407994369863
  0
LINE
  8
_1-3_
  6
CONTINUOUS
 62
    7
 10
900.34768375902866
 20
1404.9906059599321
 11
907.17647049984214
 21
1411.8193927007455
  0
LINE
  8
_1-3_
  6
CONTINUOUS
 62
    7
 10
886.20554813529657
 20
1404.9906059599332
 11
907.17647049984089
 21
1425.9615283244775
  0
LINE
  8
_1-3_
  6
CONTINUOUS
 62
    7
 10
872.06341251155891
 20
1404.9906059599289
 11
907.17647049984532
 21
1440.1036639482154
  0
LINE
  8
_1-3_
  6
CONTINUOUS
 62
    7
 10
857.92127688784626
 20
1404.9906059599316
 11
907.17647049984271
 21
1454.2457995719278
  0
LINE
  8
_1-3_
  6
CONTINUOUS
 62
    7
 10
843.77914126410906
 20
1404.9906059599275
 11
907.17647049984271
 21
1468.3879351956612
  0
LINE
  8
_1-3_
  6
CONTINUOUS
 62
    7
 10
829.63700564037686
 20
1404.9906059599284
 11
907.17647049984612
 21
1482.5300708193977
  0
LINE
  8
_1-3_
  6
CONTINUOUS
 62
    7
 10
815.49487001664465
 20
1404.9906059599296
 11
895.4948700166442
 21
1484.9906059599296
  0
LINE
  8
_1-3_
  6
CONTINUOUS
 62
    7
 10
801.35273439291245
 20
1404.9906059599307
 11
881.35273439291177
 21
1484.9906059599307
  0
LINE
  8
_1-3_
  6
CONTINUOUS
 62
    7
 10
787.21059876918025
 20
1404.9906059599318
 11
867.21059876917957
 21
1484.9906059599316
  0
LINE
  8
_1-3_
  6
CONTINUOUS
 62
    7
 10
781.80333617148767
 20
1413.7254789859728
 11
853.06846314544509
 21
1484.9906059599305
  0
LINE
  8
_1-3_
  6
CONTINUOUS
 62
    7
 10
772.57613404465189
 20
1418.6404124828705
 11
838.92632752171016
 21
1484.9906059599286
  0
LINE
  8
_1-3_
  6
CONTINUOUS
 62
    7
 10
758.43399842093936
 20
1418.6404124828732
 11
824.78419189799752
 21
1484.9906059599311
  0
LINE
  8
_1-3_
  6
CONTINUOUS
 62
    7
 10
744.29186279720716
 20
1418.6404124828741
 11
810.64205627426509
 21
1484.9906059599325
  0
LINE
  8
_1-3_
  6
CONTINUOUS
 62
    7
 10
730.14972717346973
 20
1418.64041248287
 11
796.49992065052766
 21
1484.9906059599284
  0
LINE
  8
_1-3_
  6
CONTINUOUS
 62
    7
 10
716.00759154973707
 20
1418.6404124828709
 11
768.70797850385406
 21
1471.3407994369873
  0
LINE
  8
_1-3_
  6
CONTINUOUS
 62
    7
 10
781.80333617148654
 20
1484.4361571046206
 11
782.35778502679545
 21
1484.9906059599293
  0
LINE
  8
_1-3_
  6
CONTINUOUS
 62
    7
 10
701.86545592600487
 20
1418.6404124828723
 11
754.56584288012186
 21
1471.3407994369886
  0
LINE
  8
_1-3_
  6
CONTINUOUS
 62
    7
 10
687.72332030226892
 20
1418.6404124828694
 11
740.42370725638784
 21
1471.3407994369882
  0
LINE
  8
_1-3_
  6
CONTINUOUS
 62
    7
 10
673.58118467853524
 20
1418.6404124828691
 11
726.28157163265178
 21
1471.3407994369859
  0
LINE
  8
_1-3_
  6
CONTINUOUS
 62
    7
 10
659.43904905480304
 20
1418.6404124828703
 11
712.13943600891957
 21
1471.3407994369866
  0
LINE
  8
_1-3_
  6
CONTINUOUS
 62
    7
 10
656.43020184312741
 20
1429.7737008949093
 11
697.99730038520181
 21
1471.3407994369841
  0
LINE
  8
_1-3_
  6
CONTINUOUS
 62
    7
 10
656.43020184312809
 20
1443.9158365186436
 11
683.85516476146961
 21
1471.3407994369852
  0
LINE
  8
_1-3_
  6
CONTINUOUS
 62
    7
 10
656.43020184313036
 20
1458.057972142379
 11
669.71302913773741
 21
1471.3407994369863
  0
LINE
  8
_1-3_
  6
CONTINUOUS
 62
    7
 10
2136.925137999111
 20
1484.9906059599307
 11
2136.925137999111
 21
1404.9906059599307
  0
LINE
  8
_1-3_
  6
CONTINUOUS
 62
    7
 10
2387.6714066558275
 20
1471.3407994369898
 11
2387.6714066558275
 21
1418.6404124828714
  0
LINE
  8
_1-3_
  6
CONTINUOUS
 62
    7
 10
2262.2982723274695
 20
1471.3407994369898
 11
2387.6714066558275
 21
1471.3407994369898
  0
LINE
  8
_1-3_
  6
CONTINUOUS
 62
    7
 10
2262.2982723274695
 20
1418.6404124828714
 11
2387.6714066558275
 21
1418.6404124828714
  0
LINE
  8
_1-3_
  6
CONTINUOUS
 62
    7
 10
2262.2982723274695
 20
1484.9906059599307
 11
2262.2982723274695
 21
1471.3407994369898
  0
LINE
  8
_1-3_
  6
CONTINUOUS
 62
    7
 10
2262.2982723274695
 20
1418.6404124828714
 11
2262.2982723274695
 21
1404.9906059599307
  0
LINE
  8
_1-3_
  6
CONTINUOUS
 62
    7
 10
2143.7539247399259
 20
1404.9906059599321
 11
2136.9251379991119
 21
1411.8193927007455
  0
LINE
  8
_1-3_
  6
CONTINUOUS
 62
    7
 10
2157.8960603636583
 20
1404.9906059599332
 11
2136.9251379991133
 21
1425.9615283244775
  0
LINE
  8
_1-3_
  6
CONTINUOUS
 62
    7
 10
2172.0381959873957
 20
1404.9906059599289
 11
2136.9251379991092
 21
1440.1036639482154
  0
LINE
  8
_1-3_
  6
CONTINUOUS
 62
    7
 10
2186.1803316111077
 20
1404.9906059599316
 11
2136.9251379991119
 21
1454.2457995719278
  0
LINE
  8
_1-3_
  6
CONTINUOUS
 62
    7
 10
2200.3224672348456
 20
1404.9906059599275
 11
2136.9251379991119
 21
1468.3879351956612
  0
LINE
  8
_1-3_
  6
CONTINUOUS
 62
    7
 10
2214.464602858578
 20
1404.9906059599284
 11
2136.9251379991083
 21
1482.5300708193977
  0
LINE
  8
_1-3_
  6
CONTINUOUS
 62
    7
 10
2228.60673848231
 20
1404.9906059599296
 11
2148.60673848231
 21
1484.9906059599296
  0
LINE
  8
_1-3_
  6
CONTINUOUS
 62
    7
 10
2242.7488741060424
 20
1404.9906059599307
 11
2162.7488741060424
 21
1484.9906059599307
  0
LINE
  8
_1-3_
  6
CONTINUOUS
 62
    7
 10
2256.8910097297749
 20
1404.9906059599318
 11
2176.8910097297744
 21
1484.9906059599316
  0
LINE
  8
_1-3_
  6
CONTINUOUS
 62
    7
 10
2262.2982723274672
 20
1413.7254789859728
 11
2191.0331453535091
 21
1484.9906059599305
  0
LINE
  8
_1-3_
  6
CONTINUOUS
 62
    7
 10
2271.5254744543026
 20
1418.6404124828705
 11
2205.1752809772447
 21
1484.9906059599286
  0
LINE
  8
_1-3_
  6
CONTINUOUS
 62
    7
 10
2285.6676100780151
 20
1418.6404124828732
 11
2219.3174166009567
 21
1484.9906059599311
  0
LINE
  8
_1-3_
  6
CONTINUOUS
 62
    7
 10
2299.8097457017475
 20
1418.6404124828741
 11
2233.4595522246891
 21
1484.9906059599325
  0
LINE
  8
_1-3_
  6
CONTINUOUS
 62
    7
 10
2313.9518813254849
 20
1418.64041248287
 11
2247.601687848427
 21
1484.9906059599284
  0
LINE
  8
_1-3_
  6
CONTINUOUS
 62
    7
 10
2328.0940169492178
 20
1418.6404124828709
 11
2275.3936299951006
 21
1471.3407994369873
  0
LINE
  8
_1-3_
  6
CONTINUOUS
 62
    7
 10
2262.2982723274677
 20
1484.4361571046206
 11
2261.7438234721594
 21
1484.9906059599293
  0
LINE
  8
_1-3_
  6
CONTINUOUS
 62
    7
 10
2342.2361525729493
 20
1418.6404124828723
 11
2289.535765618833
 21
1471.3407994369886
  0
LINE
  8
_1-3_
  6
CONTINUOUS
 62
    7
 10
2356.3782881966854
 20
1418.6404124828694
 11
2303.6779012425668
 21
1471.3407994369882
  0
LINE
  8
_1-3_
  6
CONTINUOUS
 62
    7
 10
2370.5204238204187
 20
1418.6404124828691
 11
2317.8200368663024
 21
1471.3407994369859
  0
LINE
  8
_1-3_
  6
CONTINUOUS
 62
    7
 10
2384.6625594441512
 20
1418.6404124828703
 11
2331.9621724900348
 21
1471.3407994369866
  0
LINE
  8
_1-3_
  6
CONTINUOUS
 62
    7
 10
2387.6714066558275
 20
1429.7737008949093
 11
2346.1043081137527
 21
1471.3407994369841
  0
LINE
  8
_1-3_
  6
CONTINUOUS
 62
    7
 10
2387.6714066558266
 20
1443.9158365186436
 11
2360.2464437374847
 21
1471.3407994369852
  0
LINE
  8
_1-3_
  6
CONTINUOUS
 62
    7
 10
2387.6714066558243
 20
1458.057972142379
 11
2374.3885793612171
 21
1471.3407994369863
  0
LINE
  8
_1-3_
  6
CONTINUOUS
 62
    7
 10
2143.7539247399259
 20
1404.9906059599321
 11
2136.9251379991119
 21
1411.8193927007455
  0
LINE
  8
_1-3_
  6
CONTINUOUS
 62
    7
 10
2157.8960603636583
 20
1404.9906059599332
 11
2136.9251379991133
 21
1425.9615283244775
  0
LINE
  8
_1-3_
  6
CONTINUOUS
 62
    7
 10
2172.0381959873957
 20
1404.9906059599289
 11
2136.9251379991092
 21
1440.1036639482154
  0
LINE
  8
_1-3_
  6
CONTINUOUS
 62
    7
 10
2186.1803316111077
 20
1404.9906059599316
 11
2136.9251379991119
 21
1454.2457995719278
  0
LINE
  8
_1-3_
  6
CONTINUOUS
 62
    7
 10
2200.3224672348456
 20
1404.9906059599275
 11
2136.9251379991119
 21
1468.3879351956612
  0
LINE
  8
_1-3_
  6
CONTINUOUS
 62
    7
 10
2214.464602858578
 20
1404.9906059599284
 11
2136.9251379991083
 21
1482.5300708193977
  0
LINE
  8
_1-3_
  6
CONTINUOUS
 62
    7
 10
2228.60673848231
 20
1404.9906059599296
 11
2148.60673848231
 21
1484.9906059599296
  0
LINE
  8
_1-3_
  6
CONTINUOUS
 62
    7
 10
2242.7488741060424
 20
1404.9906059599307
 11
2162.7488741060424
 21
1484.9906059599307
  0
LINE
  8
_1-3_
  6
CONTINUOUS
 62
    7
 10
2256.8910097297749
 20
1404.9906059599318
 11
2176.8910097297744
 21
1484.9906059599316
  0
LINE
  8
_1-3_
  6
CONTINUOUS
 62
    7
 10
2262.2982723274672
 20
1413.7254789859728
 11
2191.0331453535091
 21
1484.9906059599305
  0
LINE
  8
_1-3_
  6
CONTINUOUS
 62
    7
 10
2271.5254744543026
 20
1418.6404124828705
 11
2205.1752809772447
 21
1484.9906059599286
  0
LINE
  8
_1-3_
  6
CONTINUOUS
 62
    7
 10
2285.6676100780151
 20
1418.6404124828732
 11
2219.3174166009567
 21
1484.9906059599311
  0
LINE
  8
_1-3_
  6
CONTINUOUS
 62
    7
 10
2299.8097457017475
 20
1418.6404124828741
 11
2233.4595522246891
 21
1484.9906059599325
  0
LINE
  8
_1-3_
  6
CONTINUOUS
 62
    7
 10
2313.9518813254849
 20
1418.64041248287
 11
2247.601687848427
 21
1484.9906059599284
  0
LINE
  8
_1-3_
  6
CONTINUOUS
 62
    7
 10
2328.0940169492178
 20
1418.6404124828709
 11
2275.3936299951006
 21
1471.3407994369873
  0
LINE
  8
_1-3_
  6
CONTINUOUS
 62
    7
 10
2262.2982723274677
 20
1484.4361571046206
 11
2261.7438234721594
 21
1484.9906059599293
  0
LINE
  8
_1-3_
  6
CONTINUOUS
 62
    7
 10
2342.2361525729493
 20
1418.6404124828723
 11
2289.535765618833
 21
1471.3407994369886
  0
LINE
  8
_1-3_
  6
CONTINUOUS
 62
    7
 10
2356.3782881966854
 20
1418.6404124828694
 11
2303.6779012425668
 21
1471.3407994369882
  0
LINE
  8
_1-3_
  6
CONTINUOUS
 62
    7
 10
2370.5204238204187
 20
1418.6404124828691
 11
2317.8200368663024
 21
1471.3407994369859
  0
LINE
  8
_1-3_
  6
CONTINUOUS
 62
    7
 10
2384.6625594441512
 20
1418.6404124828703
 11
2331.9621724900348
 21
1471.3407994369866
  0
LINE
  8
_1-3_
  6
CONTINUOUS
 62
    7
 10
2387.6714066558275
 20
1429.7737008949093
 11
2346.1043081137527
 21
1471.3407994369841
  0
LINE
  8
_1-3_
  6
CONTINUOUS
 62
    7
 10
2387.6714066558266
 20
1443.9158365186436
 11
2360.2464437374847
 21
1471.3407994369852
  0
LINE
  8
_1-3_
  6
CONTINUOUS
 62
    7
 10
2387.6714066558243
 20
1458.057972142379
 11
2374.3885793612171
 21
1471.3407994369863
  0
LINE
  8
_1-3_
  6
CONTINUOUS
 62
    7
 10
2136.925137999111
 20
1404.9906059599307
 11
2256.8910097297749
 21
1404.9906059599307
  0
LINE
  8
_1-3_
  6
CONTINUOUS
 62
    7
 10
2136.9251379991083
 20
1484.9906059599307
 11
2261.7438234721594
 21
1484.9906059599307
  0
LINE
  8
_1-3_
  6
CONTINUOUS
 62
    7
 10
781.8033361714854
 20
1484.9906059599307
 11
907.17647049984373
 21
1484.9906059599307
  0
LINE
  8
_1-3_
  6
CONTINUOUS
 62
    7
 10
781.8033361714854
 20
1404.9906059599307
 11
907.17647049984373
 21
1404.9906059599307
  0
LINE
  8
_1-3_
  6
CONTINUOUS
 62
    7
 10
2386.8223170558158
 20
1444.066147320345
 11
2553.0578062763798
 21
1444.066147320345
  0
CIRCLE
  8
_1-3_
  6
CONTINUOUS
 62
    7
 10
2721.0169884693528
 20
1669.6887851998686
 40
20
  0
ARC
  8
_1-3_
  6
CONTINUOUS
 62
    7
 10
2721.0169884693528
 20
1669.6887851998686
 40
30
 50
270
 51
90
  0
LINE
  8
_1-3_
  6
CONTINUOUS
 62
    7
 10
2721.0169884693528
 20
1699.6887851998683
 11
2671.3320796799671
 21
1690.2807937107727
  0
LINE
  8
_1-3_
  6
CONTINUOUS
 62
    7
 10
2721.0169884693528
 20
1639.6887851998683
 11
2671.3320796799671
 21
1649.0967766889635
  0
ARC
  8
_1-3_
  6
CONTINUOUS
 62
    7
 10
2559.5642060849777
 20
1694.1033788980444
 40
6.0000000000000009
 50
90
 51
180
  0
LINE
  8
_1-3_
  6
CONTINUOUS
 62
    7
 10
2553.5642060849787
 20
1645.2741915016927
 11
2553.5642060849787
 21
1694.1033788980444
  0
ARC
  8
_1-3_
  6
CONTINUOUS
 62
    7
 10
2559.5642060849777
 20
1645.2741915016927
 40
6.0000000000000009
 50
180
 51
270
  0
LINE
  8
_1-3_
  6
CONTINUOUS
 62
    7
 10
2665.3320796799662
 20
1700.103378898044
 11
2559.5642060849777
 21
1700.103378898044
  0
ARC
  8
_1-3_
  6
CONTINUOUS
 62
    7
 10
2665.3320796799662
 20
1694.1033788980444
 40
6.0000000000000009
 50
0
 51
90
  0
LINE
  8
_1-3_
  6
CONTINUOUS
 62
    7
 10
2671.3320796799671
 20
1645.2741915016927
 11
2671.3320796799671
 21
1694.1033788980444
  0
LINE
  8
_1-3_
  6
CONTINUOUS
 62
    7
 10
2665.3320796799662
 20
1639.2741915016925
 11
2559.5642060849777
 21
1639.2741915016925
  0
ARC
  8
_1-3_
  6
CONTINUOUS
 62
    7
 10
2665.3320796799662
 20
1645.2741915016927
 40
6.0000000000000009
 50
270
 51
0
  0
LINE
  8
_1-3_
  6
CONTINUOUS
 62
    7
 10
2568.8352428644239
 20
1639.2741915016909
 11
2553.5642060849759
 21
1654.5452282811377
  0
LINE
  8
_1-3_
  6
CONTINUOUS
 62
    7
 10
2582.9773784881559
 20
1639.2741915016913
 11
2553.5642060849759
 21
1668.6873639048722
  0
LINE
  8
_1-3_
  6
CONTINUOUS
 62
    7
 10
2597.1195141118687
 20
1639.2741915016943
 11
2553.5642060849787
 21
1682.8294995285851
  0
LINE
  8
_1-3_
  6
CONTINUOUS
 62
    7
 10
2671.3320796799644
 20
1649.9144396759989
 11
2621.1431404579184
 21
1700.1033788980446
  0
LINE
  8
_1-3_
  6
CONTINUOUS
 62
    7
 10
2671.3320796799644
 20
1664.0565752997234
 11
2635.2852760816459
 21
1700.1033788980412
  0
LINE
  8
_1-3_
  6
CONTINUOUS
 62
    7
 10
2671.3320796799653
 20
1678.198710923446
 11
2649.4274117053692
 21
1700.1033788980428
  0
LINE
  8
_1-3_
  6
CONTINUOUS
 62
    7
 10
2671.3320796799671
 20
1692.3408465471787
 11
2663.5695473291016
 21
1700.103378898044
  0
CIRCLE
  8
_1-3_
  6
CONTINUOUS
 62
    7
 10
2721.0169884693528
 20
1443.5169641748662
 40
20
  0
ARC
  8
_1-3_
  6
CONTINUOUS
 62
    7
 10
2721.0169884693528
 20
1443.5169641748662
 40
30
 50
270
 51
90
  0
LINE
  8
_1-3_
  6
CONTINUOUS
 62
    7
 10
2721.0169884693528
 20
1473.5169641748662
 11
2671.3320796799671
 21
1464.1089726857708
  0
LINE
  8
_1-3_
  6
CONTINUOUS
 62
    7
 10
2721.0169884693528
 20
1413.5169641748662
 11
2671.3320796799671
 21
1422.9249556639616
  0
ARC
  8
_1-3_
  6
CONTINUOUS
 62
    7
 10
2559.5642060849777
 20
1467.931557873042
 40
6.0000000000000009
 50
90
 51
180
  0
LINE
  8
_1-3_
  6
CONTINUOUS
 62
    7
 10
2553.5642060849787
 20
1419.1023704766903
 11
2553.5642060849787
 21
1467.931557873042
  0
ARC
  8
_1-3_
  6
CONTINUOUS
 62
    7
 10
2559.5642060849777
 20
1419.1023704766903
 40
6.0000000000000009
 50
180
 51
270
  0
LINE
  8
_1-3_
  6
CONTINUOUS
 62
    7
 10
2665.3320796799662
 20
1473.931557873042
 11
2559.5642060849777
 21
1473.931557873042
  0
ARC
  8
_1-3_
  6
CONTINUOUS
 62
    7
 10
2665.3320796799662
 20
1467.931557873042
 40
6.0000000000000009
 50
0
 51
90
  0
LINE
  8
_1-3_
  6
CONTINUOUS
 62
    7
 10
2671.3320796799671
 20
1419.1023704766903
 11
2671.3320796799671
 21
1467.931557873042
  0
LINE
  8
_1-3_
  6
CONTINUOUS
 62
    7
 10
2665.3320796799662
 20
1413.1023704766903
 11
2559.5642060849777
 21
1413.1023704766903
  0
ARC
  8
_1-3_
  6
CONTINUOUS
 62
    7
 10
2665.3320796799662
 20
1419.1023704766903
 40
6.0000000000000009
 50
270
 51
0
  0
LINE
  8
_1-3_
  6
CONTINUOUS
 62
    7
 10
2568.8352428644239
 20
1413.1023704766885
 11
2553.5642060849759
 21
1428.3734072561356
  0
LINE
  8
_1-3_
  6
CONTINUOUS
 62
    7
 10
2582.9773784881559
 20
1413.1023704766894
 11
2553.5642060849759
 21
1442.5155428798698
  0
LINE
  8
_1-3_
  6
CONTINUOUS
 62
    7
 10
2597.1195141118687
 20
1413.1023704766919
 11
2553.5642060849787
 21
1456.6576785035832
  0
LINE
  8
_1-3_
  6
CONTINUOUS
 62
    7
 10
2671.3320796799644
 20
1423.742618650997
 11
2621.1431404579184
 21
1473.9315578730425
  0
LINE
  8
_1-3_
  6
CONTINUOUS
 62
    7
 10
2671.3320796799644
 20
1437.8847542747212
 11
2635.2852760816459
 21
1473.9315578730391
  0
LINE
  8
_1-3_
  6
CONTINUOUS
 62
    7
 10
2671.3320796799653
 20
1452.0268898984439
 11
2649.4274117053692
 21
1473.9315578730407
  0
LINE
  8
_1-3_
  6
CONTINUOUS
 62
    7
 10
2671.3320796799671
 20
1466.1690255221765
 11
2663.5695473291016
 21
1473.9315578730416
  0
LINE
  8
_1-3_
  6
CONTINUOUS
 62
    7
 10
2388.2927427053464
 20
1457.8417139317328
 11
2551.2778173322113
 21
1670.9760422899417
  0
LINE
  8
_1-3_
  6
CONTINUOUS
 62
    7
 10
1834.4936824510617
 20
1217.6019866422544
 11
1941.4252284248962
 21
1217.6019866422544
  0
LINE
  8
_1-3_
  6
CONTINUOUS
 62
    7
 10
1834.4936824510617
 20
1484.9906059599307
 11
1834.4936824510617
 21
1217.6019866422544
  0
LINE
  8
_1-3_
  6
CONTINUOUS
 62
    7
 10
1941.4252284248962
 20
1484.9906059599307
 11
1941.4252284248962
 21
1217.6019866422544
  0
LINE
  8
_1-3_
  6
CONTINUOUS
 62
    7
 10
1834.4936824510617
 20
1484.9906059599307
 11
1941.4252284248962
 21
1484.9906059599307
  0
LINE
  8
_1-3_
  6
CONTINUOUS
 62
    7
 10
907.17647049984373
 20
1404.9906059599307
 11
1834.4936824510617
 21
1404.9906059599307
  0
LINE
  8
_1-3_
  6
CONTINUOUS
 62
    7
 10
1941.4252284248969
 20
1404.9906059599307
 11
2136.925137999111
 21
1404.9906059599307
  0
LINE
  8
_1-3_
  6
CONTINUOUS
 62
    7
 10
781.8033361714854
 20
1557.6112115890037
 11
907.17647049984373
 21
1557.6112115890037
  0
LINE
  8
_1-3_
  6
CONTINUOUS
 62
    7
 10
656.43020184312695
 20
1648.5067339770635
 11
907.17647049984373
 21
1648.5067339770635
  0
LINE
  8
_1-3_
  6
CONTINUOUS
 62
    7
 10
2136.9251379991083
 20
1491.2098848891696
 11
2136.9251379991083
 21
1529.4022563651233
  0
LINE
  8
_1-3_
  6
CONTINUOUS
 62
    7
 10
2136.9251379991083
 20
1529.4022563651233
 11
2136.9251379991083
 21
1577.5780440931499
  0
LINE
  8
_1-3_
  6
CONTINUOUS
 62
    7
 10
2387.6714066558275
 20
1648.5067339770635
 11
2136.9251379991106
 21
1648.5067339770635
  0
TEXT
  8
_1-3_
 62
    7
 10
2593.5632725183041
 20
1720.1899843916576
 40
40
 41
1
 50
0
  1
15
  0
TEXT
  8
_1-3_
 62
    7
 10
2330.2796904287516
 20
1720.1899843916576
 40
40
 41
1
 50
0
  1
50
  0
TEXT
  8
_1-3_
 62
    7
 10
2245.6528247571091
 20
1604.2198351379266
 40
40
 41
1
 50
0
  1
20
  0
TEXT
  8
_1-3_
 62
    7
 10
2176.6976008765123
 20
1516.4586411080759
 40
40
 41
1
 50
0
  1
10
  0
LINE
  8
_1-3_
  6
CONTINUOUS
 62
    7
 10
2611.2616497356012
 20
1413.1023704766931
 11
2599.998367927451
 21
1424.3656522848432
  0
LINE
  8
_1-3_
  6
CONTINUOUS
 62
    7
 10
2590.7682109615807
 20
1433.595809250714
 11
2554.0552332398129
 21
1470.3087869724823
  0
LINE
  8
_1-3_
  6
CONTINUOUS
 62
    7
 10
2625.4037853593331
 20
1413.102370476694
 11
2614.1405035511843
 21
1424.3656522848432
  0
LINE
  8
_1-3_
  6
CONTINUOUS
 62
    7
 10
2590.7682109615807
 20
1447.7379448744473
 11
2564.5745979629837
 21
1473.9315578730436
  0
LINE
  8
_1-3_
  6
CONTINUOUS
 62
    7
 10
2639.5459209830697
 20
1413.102370476691
 11
2628.2826391749177
 21
1424.3656522848432
  0
LINE
  8
_1-3_
  6
CONTINUOUS
 62
    7
 10
2590.7682109615807
 20
1461.8800804981806
 11
2578.7167335867171
 21
1473.9315578730434
  0
LINE
  8
_1-3_
  6
CONTINUOUS
 62
    7
 10
2653.688056606803
 20
1413.102370476691
 11
2630.7682109615803
 21
1436.022216121914
  0
LINE
  8
_1-3_
  6
CONTINUOUS
 62
    7
 10
2602.424774798651
 20
1464.3656522848432
 11
2592.858869210454
 21
1473.9315578730402
  0
LINE
  8
_1-3_
  6
CONTINUOUS
 62
    7
 10
2667.4456147134915
 20
1413.4869479937365
 11
2630.7682109615803
 21
1450.1643517456473
  0
LINE
  8
_1-3_
  6
CONTINUOUS
 62
    7
 10
2616.5669104223844
 20
1464.3656522848432
 11
2607.0010048341865
 21
1473.9315578730414
  0
LINE
  8
_1-3_
  6
CONTINUOUS
 62
    7
 10
2611.2616497356012
 20
1639.2741915016954
 11
2598.331604098943
 21
1652.2042371383536
  0
LINE
  8
_1-3_
  6
CONTINUOUS
 62
    7
 10
2587.0534514259248
 20
1663.4823898113714
 11
2554.0552332398129
 21
1696.4806079974844
  0
LINE
  8
_1-3_
  6
CONTINUOUS
 62
    7
 10
2625.4037853593331
 20
1639.2741915016959
 11
2612.4737397226763
 21
1652.2042371383536
  0
LINE
  8
_1-3_
  6
CONTINUOUS
 62
    7
 10
2587.0534514259248
 20
1677.6245254351047
 11
2564.5745979629837
 21
1700.1033788980458
  0
LINE
  8
_1-3_
  6
CONTINUOUS
 62
    7
 10
2639.5459209830697
 20
1639.2741915016932
 11
2626.6158753464097
 21
1652.2042371383536
  0
LINE
  8
_1-3_
  6
CONTINUOUS
 62
    7
 10
2587.0534514259248
 20
1691.7666610588381
 11
2578.7167335867171
 21
1700.1033788980458
  0
LINE
  8
_1-3_
  6
CONTINUOUS
 62
    7
 10
2653.688056606803
 20
1639.2741915016932
 11
2627.0534514259248
 21
1665.9087966825714
  0
LINE
  8
_1-3_
  6
CONTINUOUS
 62
    7
 10
2600.758010970143
 20
1692.2042371383536
 11
2592.858869210454
 21
1700.1033788980424
  0
LINE
  8
_1-3_
  6
CONTINUOUS
 62
    7
 10
2667.4456147134915
 20
1639.6587690187389
 11
2627.0534514259248
 21
1680.0509323063047
  0
LINE
  8
_1-3_
  6
CONTINUOUS
 62
    7
 10
2614.9001465938763
 20
1692.2042371383536
 11
2607.0010048341865
 21
1700.1033788980435
  0
LINE
  8
_1-3_
  6
CONTINUOUS
 62
    7
 10
2671.3320796799671
 20
1764.476883230795
 11
2136.9251379991106
 21
1764.476883230795
  0
LINE
  8
_1-3_
  6
CONTINUOUS
 62
    7
 10
2262.298272327469
 20
1557.6112115890037
 11
1941.4252284248962
 21
1557.6112115890037
  0
TEXT
  8
_1-3_
 62
    7
 10
2016.4185619349555
 20
1514.0515506394349
 40
40
 41
1
 50
0
  1
30
  0
TEXT
  8
_1-3_
 62
    7
 10
821.4419020246296
 20
1515.8895827013475
 40
40
 41
1
 50
0
  1
10
  0
LINE
  8
_1-3_
  6
CONTINUOUS
 62
    7
 10
715.13593187537572
 20
1425.4293836963725
 11
944.98667814403245
 21
1258.2652045918949
  0
LINE
  8
_1-3_
  6
CONTINUOUS
 62
    7
 10
715.13593187537572
 20
1425.4293836963725
 11
743.13820510424398
 21
1414.664965736453
  0
LINE
  8
_1-3_
  6
CONTINUOUS
 62
    7
 10
715.13593187537572
 20
1425.4293836963725
 11
734.00440287532865
 21
1402.1059876716949
  0
TEXT
  8
_1-3_
 62
    7
 10
1345.2665288903015
 20
1282.9480404127903
 40
64
 41
1
 50
0
  1
1
  0
LINE
  8
_1-3_
  6
CONTINUOUS
 62
    7
 10
1144.6695139649282
 20
1422.9480404127903
 11
1334.8187676962712
 21
1316.3808762336857
  0
LINE
  8
_1-3_
  6
CONTINUOUS
 62
    7
 10
1144.6695139649282
 20
1422.9480404127903
 11
1173.7441204986433
 21
1415.5543096285605
  0
LINE
  8
_1-3_
  6
CONTINUOUS
 62
    7
 10
1144.6695139649282
 20
1422.9480404127903
 11
1166.1519964360477
 21
1402.0075784580467
  0
LINE
  8
_1-3_
  6
CONTINUOUS
 62
    7
 10
1931.3859318753762
 20
1249.5152045918946
 11
2083.9232453082118
 21
1161.754010562044
  0
LINE
  8
_1-3_
  6
CONTINUOUS
 62
    7
 10
1931.3859318753762
 20
1249.5152045918946
 11
1960.3753762126898
 21
1241.7943162353783
  0
LINE
  8
_1-3_
  6
CONTINUOUS
 62
    7
 10
1931.3859318753762
 20
1249.5152045918946
 11
1952.631082934827
 21
1228.3339969667113
  0
TEXT
  8
_1-3_
 62
    7
 10
2081.332508308356
 20
1127.6108233203822
 40
64
 41
1
 50
0
  1
6
  0
TEXT
  8
_1-3_
 62
    7
 10
123.18208413515001
 20
590.01826328516393
 40
40
 41
1
 50
0
  1
ケーブル
  0
LINE
  8
_1-3_
  6
CONTINUOUS
 62
    7
 10
190.12321734217582
 20
1558.4082065728408
 11
221.46650092426543
 21
1558.4082065728408
  0
LINE
  8
_1-3_
  6
CONTINUOUS
 62
    7
 10
190.12321734217582
 20
1558.4082065728408
 11
190.12321734217582
 21
1334.8261170206019
  0
LINE
  8
_1-3_
  6
CONTINUOUS
 62
    7
 10
190.12321734217582
 20
1334.8261170206019
 11
221.46650092426543
 21
1334.8261170206019
  0
LINE
  8
_1-3_
  6
CONTINUOUS
 62
    7
 10
221.46650092426543
 20
1558.4082065728408
 11
221.46650092426543
 21
1334.8261170206019
  0
LINE
  8
_1-3_
  6
CONTINUOUS
 62
    7
 10
221.46650092426543
 20
1533.3335797071691
 11
355.97175244444202
 21
1533.3335797071691
  0
LINE
  8
_1-3_
  6
CONTINUOUS
 62
    7
 10
355.97175244444202
 20
1533.3335797071691
 11
405.34709793919046
 21
1533.3335797071691
  0
LINE
  8
_1-3_
  6
CONTINUOUS
 62
    7
 10
405.34709793919046
 20
1533.3335797071691
 11
405.34709793919046
 21
1493.5546963461966
  0
LINE
  8
_1-3_
  6
CONTINUOUS
 62
    7
 10
221.46650092426543
 20
1366.1694006026914
 11
405.34709793919046
 21
1366.1694006026914
  0
LINE
  8
_1-3_
  6
CONTINUOUS
 62
    7
 10
405.34709793919046
 20
1493.5546963461966
 11
405.34709793919046
 21
1366.1694006026914
  0
LINE
  8
_1-3_
  6
CONTINUOUS
 62
    7
 10
655.99648172734555
 20
1436.7243169708604
 11
582.95308509741687
 21
1436.7243169708604
  0
LINE
  8
_1-3_
  6
CONTINUOUS
 62
    7
 10
659.09211467372506
 20
1461.6828576010432
 11
582.95308509741687
 21
1461.6828576010432
  0
LINE
  8
_1-3_
  6
CONTINUOUS
 62
    7
 10
430.3701309224225
 20
1490.6125752255366
 11
582.95308509741687
 21
1461.6828576010432
  0
TEXT
  8
_1-3_
 62
    7
 10
115.05783910515592
 20
480.85277385986228
 40
40
 41
1
 50
0
  1
圧着端子
  0
LINE
  8
_1-3_
  6
CONTINUOUS
 62
    7
 10
346.40132669983404
 20
1377.427031509121
 11
404.90878938640139
 21
1377.427031509121
  0
LINE
  8
_1-3_
  6
CONTINUOUS
 62
    7
 10
405.34709793919046
 20
1430.5069720049396
 11
345.00829187396357
 21
1430.5069720049396
  0
LINE
  8
_1-3_
  6
CONTINUOUS
 62
    7
 10
405.34709793919046
 20
1469.3055715995592
 11
345.00829187396357
 21
1469.3055715995592
  0
LINE
  8
_1-3_
  6
CONTINUOUS
 62
    7
 10
345.00829187396357
 20
1515.337479270315
 11
404.90878938640139
 21
1515.337479270315
  0
LINE
  8
_1-3_
  6
CONTINUOUS
 62
    7
 10
345.00829187396357
 20
1533.3335797071691
 11
345.00829187396357
 21
1366.1694006026914
  0
LINE
  8
_1-3_
  6
CONTINUOUS
 62
    7
 10
430.3701309224225
 20
1490.6125752255366
 11
368.48350838400575
 21
1490.6125752255366
  0
LINE
  8
_1-3_
  6
CONTINUOUS
 62
    7
 10
430.3701309224225
 20
1412.1797937533506
 11
364.30440390639399
 21
1412.1797937533506
  0
LINE
  8
_1-3_
  6
CONTINUOUS
 62
    7
 10
354.55316012529926
 20
1504.5027639579878
 11
354.55316012529926
 21
1479.4281370923159
  0
LINE
  8
_1-3_
  6
CONTINUOUS
 62
    7
 10
355.9461949511699
 20
1479.4281370923159
 11
417.23972728947848
 21
1479.4281370923159
  0
LINE
  8
_1-3_
  6
CONTINUOUS
 62
    7
 10
417.23972728947848
 20
1479.4281370923159
 11
417.23972728947848
 21
1504.5027639579878
  0
LINE
  8
_1-3_
  6
CONTINUOUS
 62
    7
 10
417.23972728947848
 20
1504.5027639579878
 11
354.55316012529926
 21
1504.5027639579878
  0
LINE
  8
_1-3_
  6
CONTINUOUS
 62
    7
 10
415.10440166395506
 20
1479.4281370923179
 11
417.23972728947609
 21
1481.5634627178388
  0
LINE
  8
_1-3_
  6
CONTINUOUS
 62
    7
 10
405.20490672733661
 20
1479.4281370923163
 11
417.23972728948007
 21
1491.4629576544598
  0
LINE
  8
_1-3_
  6
CONTINUOUS
 62
    7
 10
395.30541179074095
 20
1479.4281370923195
 11
417.23972728947706
 21
1501.3624525910557
  0
LINE
  8
_1-3_
  6
CONTINUOUS
 62
    7
 10
385.40591685412124
 20
1479.4281370923165
 11
410.48054371979612
 21
1504.5027639579914
  0
LINE
  8
_1-3_
  6
CONTINUOUS
 62
    7
 10
375.50642191750489
 20
1479.4281370923175
 11
400.58104878317783
 21
1504.5027639579903
  0
LINE
  8
_1-3_
  6
CONTINUOUS
 62
    7
 10
365.60692698089679
 20
1479.4281370923175
 11
390.68155384656626
 21
1504.5027639579871
  0
LINE
  8
_1-3_
  6
CONTINUOUS
 62
    7
 10
355.7074320442922
 20
1479.4281370923204
 11
380.78205890996168
 21
1504.5027639579903
  0
LINE
  8
_1-3_
  6
CONTINUOUS
 62
    7
 10
354.55316012529607
 20
1488.1733601099418
 11
370.88256397334737
 21
1504.502763957993
  0
LINE
  8
_1-3_
  6
CONTINUOUS
 62
    7
 10
354.55316012529624
 20
1498.0728550465587
 11
360.98306903672704
 21
1504.5027639579894
  0
LINE
  8
_1-3_
  6
CONTINUOUS
 62
    7
 10
356.32758958299519
 20
1424.1578778243636
 11
356.32758958299519
 21
1399.0832509586921
  0
LINE
  8
_1-3_
  6
CONTINUOUS
 62
    7
 10
357.72062440886589
 20
1399.0832509586921
 11
419.01415674717441
 21
1399.0832509586921
  0
LINE
  8
_1-3_
  6
CONTINUOUS
 62
    7
 10
419.01415674717441
 20
1399.0832509586921
 11
419.01415674717441
 21
1424.1578778243636
  0
LINE
  8
_1-3_
  6
CONTINUOUS
 62
    7
 10
419.01415674717441
 20
1424.1578778243636
 11
356.32758958299519
 21
1424.1578778243636
  0
LINE
  8
_1-3_
  6
CONTINUOUS
 62
    7
 10
416.87883112165105
 20
1399.083250958694
 11
419.01415674717242
 21
1401.218576584215
  0
LINE
  8
_1-3_
  6
CONTINUOUS
 62
    7
 10
406.97933618503248
 20
1399.0832509586924
 11
419.014156747176
 21
1411.1180715208361
  0
LINE
  8
_1-3_
  6
CONTINUOUS
 62
    7
 10
397.07984124843688
 20
1399.0832509586955
 11
419.01415674717305
 21
1421.0175664574315
  0
LINE
  8
_1-3_
  6
CONTINUOUS
 62
    7
 10
387.18034631181695
 20
1399.0832509586926
 11
412.25497317749182
 21
1424.1578778243675
  0
LINE
  8
_1-3_
  6
CONTINUOUS
 62
    7
 10
377.28085137520088
 20
1399.0832509586935
 11
402.35547824087371
 21
1424.1578778243661
  0
LINE
  8
_1-3_
  6
CONTINUOUS
 62
    7
 10
367.38135643859266
 20
1399.0832509586933
 11
392.45598330426219
 21
1424.1578778243629
  0
LINE
  8
_1-3_
  6
CONTINUOUS
 62
    7
 10
357.48186150198808
 20
1399.0832509586967
 11
382.55648836765801
 21
1424.1578778243661
  0
LINE
  8
_1-3_
  6
CONTINUOUS
 62
    7
 10
356.327589582992
 20
1407.8284739763176
 11
372.65699343104325
 21
1424.1578778243688
  0
LINE
  8
_1-3_
  6
CONTINUOUS
 62
    7
 10
356.32758958299223
 20
1417.7279689129346
 11
362.7574984944232
 21
1424.1578778243656
  0
LINE
  8
_1-3_
  6
CONTINUOUS
 62
    7
 10
190.12321734217582
 20
1526.3086796611217
 11
154.43983784779783
 21
1479.645798783858
  0
LINE
  8
_1-3_
  6
CONTINUOUS
 62
    7
 10
154.43983784779783
 20
1479.645798783858
 11
190.12321734217582
 21
1356.1264082263958
  0
TEXT
  8
_1-3_
 62
    7
 10
517.55783910515606
 20
1599.8079977404595
 40
40
 41
1
 50
0
  1
35
  0
TEXT
  8
_1-3_
 62
    7
 10
757.5368527731714
 20
1599.4951630735213
 40
40
 41
1
 50
0
  1
20
  0
LINE
  8
_1-3_
  6
CONTINUOUS
 62
    7
 10
2738.4323751612319
 20
1405.1668048645661
 11
2779.1786438179474
 21
1279.7936705362081
  0
LINE
  8
_1-3_
  6
CONTINUOUS
 62
    7
 10
2738.4323751612319
 20
1405.1668048645661
 11
2754.7733736416112
 21
1380.007874667433
  0
LINE
  8
_1-3_
  6
CONTINUOUS
 62
    7
 10
2738.4323751612319
 20
1405.1668048645661
 11
2740.0046298698771
 21
1375.2080329416194
  0
TEXT
  8
_1-3_
 62
    7
 10
2791.7159572507835
 20
1239.0474018794916
 40
64
 41
1
 50
0
  1
3
  0
TEXT
  8
_1-3_
 62
    7
 10
2590.524000368528
 20
1424.0598396904365
 40
40
 41
1
 50
0
  1
黒
  0
TEXT
  8
_1-3_
 62
    7
 10
2587.3896720103185
 20
1651.3566887783304
 40
40
 41
1
 50
0
  1
白
  0
TEXT
  8
_1-3_
 62
    7
 10
116.36380925440989
 20
538.31546042702678
 40
40
 41
1
 50
0
  1
スイッチ
  0
LINE
  8
_0-0_
  6
CONTINUOUS
 62
    7
 10
30.037313432835447
 20
2027.3358208955226
 11
30.037313432835447
 21
38.604477611940325
  0
LINE
  8
_0-0_
  6
CONTINUOUS
 62
    7
 10
1230.0373134328354
 20
708.60447761194041
 11
30.037313432835447
 21
708.60447761194041
  0
LINE
  8
_0-0_
  6
CONTINUOUS
 62
    7
 10
1230.0373134328354
 20
708.60447761194041
 11
1230.0373134328354
 21
682.14303482587115
  0
LINE
  8
_0-0_
  6
CONTINUOUS
 62
    7
 10
1230.0373134328354
 20
682.14303482587115
 11
1230.0373134328354
 21
38.604477611940325
  0
LINE
  8
_0-0_
  6
CONTINUOUS
 62
    7
 10
1230.0373134328354
 20
584.05902306648579
 11
30.037313432835447
 21
584.05902306648579
  0
LINE
  8
_0-0_
  6
CONTINUOUS
 62
    7
 10
1230.0373134328354
 20
529.51356852103129
 11
30.037313432835447
 21
529.51356852103129
  0
LINE
  8
_0-0_
  6
CONTINUOUS
 62
    7
 10
1230.0373134328354
 20
638.60447761194041
 11
30.037313432835447
 21
638.60447761194041
  0
LINE
  8
_0-0_
  6
CONTINUOUS
 62
    7
 10
1230.0373134328354
 20
365.87720488466761
 11
30.037313432835447
 21
365.87720488466761
  0
LINE
  8
_0-0_
  6
CONTINUOUS
 62
    7
 10
1230.0373134328354
 20
311.33175033921316
 11
30.037313432835447
 21
311.33175033921316
  0
LINE
  8
_0-0_
  6
CONTINUOUS
 62
    7
 10
1230.0373134328354
 20
256.78629579375865
 11
30.037313432835447
 21
256.78629579375865
  0
LINE
  8
_0-0_
  6
CONTINUOUS
 62
    7
 10
1230.0373134328354
 20
202.24084124830412
 11
30.037313432835447
 21
202.24084124830412
  0
LINE
  8
_0-0_
  6
CONTINUOUS
 62
    7
 10
1230.0373134328354
 20
147.69538670284939
 11
30.037313432835447
 21
147.69538670284939
  0
LINE
  8
_0-0_
  6
CONTINUOUS
 62
    7
 10
1230.0373134328354
 20
93.149932157395057
 11
30.037313432835447
 21
93.149932157395057
  0
LINE
  8
_0-0_
  6
CONTINUOUS
 62
    7
 10
1030.0373134328352
 20
708.60447761194041
 11
1030.0373134328352
 21
38.604477611940325
  0
LINE
  8
_0-0_
  6
CONTINUOUS
 62
    7
 10
100.03731343283545
 20
708.60447761194041
 11
100.03731343283545
 21
38.604477611940325
  0
TEXT
  8
_0-0_
 62
    7
 10
55.939054726367431
 20
588.11318407960232
 40
40
 41
1
 50
0
  1
1
  0
TEXT
  8
_0-0_
 62
    7
 10
55.939054726367431
 20
534.82960199005015
 40
40
 41
1
 50
0
  1
2
  0
TEXT
  8
_0-0_
 62
    7
 10
55.939054726367431
 20
481.54601990049787
 40
40
 41
1
 50
0
  1
3
  0
TEXT
  8
_0-0_
 62
    7
 10
52.804726368158271
 20
425.12810945273668
 40
40
 41
1
 50
0
  1
4
  0
TEXT
  8
_0-0_
 62
    7
 10
52.804726368158271
 20
371.8445273631844
 40
40
 41
1
 50
0
  1
5
  0
TEXT
  8
_0-0_
 62
    7
 10
52.804726368158271
 20
318.56094527363234
 40
40
 41
1
 50
0
  1
6
  0
TEXT
  8
_0-0_
 62
    7
 10
49.670398009949309
 20
265.27736318408006
 40
40
 41
1
 50
0
  1
7
  0
TEXT
  8
_0-0_
 62
    7
 10
55.939054726367431
 20
208.85945273631873
 40
40
 41
1
 50
0
  1
8
  0
TEXT
  8
_0-0_
 62
    7
 10
55.939054726367431
 20
155.57587064676648
 40
40
 41
1
 50
0
  1
9
  0
TEXT
  8
_0-0_
 62
    7
 10
40.267412935322625
 20
102.29228855721425
 40
40
 41
1
 50
0
  1
10
  0
TEXT
  8
_0-0_
 62
    7
 10
46.536069651740547
 20
49.008706467662108
 40
40
 41
1
 50
0
  1
11
  0
TEXT
  8
_0-0_
 62
    7
 10
168.77487562189003
 20
650.79975124378143
 40
40
 41
1
 50
0
  1
名称
  0
TEXT
  8
_0-0_
 62
    7
 10
1112.2077114427852
 20
653.93407960199033
 40
40
 41
1
 50
0
  1
数
  0
TEXT
  8
_0-0_
 62
    7
 10
1266.9651741293526
 20
79.046019900497356
 40
40
 41
1
 50
0
  1
装置名称
  0
LINE
  8
_0-0_
  6
CONTINUOUS
 62
    7
 10
1870.667495854063
 20
365.87720488466761
 11
1870.667495854063
 21
147.69538670284939
  0
LINE
  8
_0-0_
  6
CONTINUOUS
 62
    7
 10
1669.1148424543942
 20
365.87720488466761
 11
1669.1148424543942
 21
147.69538670284939
  0
LINE
  8
_0-0_
  6
CONTINUOUS
 62
    7
 10
1230.0373134328354
 20
311.33175033921316
 11
2072.2201492537306
 21
311.33175033921316
  0
TEXT
  8
_0-0_
 62
    7
 10
1931.0945273631837
 20
320.04104477611918
 40
40
 41
1
 50
0
  1
Rev
  0
LINE
  8
_0-0_
  6
CONTINUOUS
 62
    7
 10
1870.667495854063
 20
256.78629579375865
 11
2072.2201492537306
 21
256.78629579375865
  0
TEXT
  8
_0-0_
 62
    7
 10
1283.3333333333328
 20
152.87686567164167
 40
40
 41
1
 50
0
  1
/  /  /
  0
TEXT
  8
_0-0_
 62
    7
 10
1492.5207296849085
 20
155.19859038142619
 40
40
 41
1
 50
0
  1
/  /  /
  0
TEXT
  8
_0-0_
 62
    7
 10
1688.9386401326694
 20
156.59162520729683
 40
40
 41
1
 50
0
  1
/  /  /
  0
TEXT
  8
_0-0_
 62
    7
 10
2400.9907083239486
 20
273.48090992226798
 40
64
 41
1
 50
0
  1
SMART DIYs
  0
TEXT
  8
_0-0_
 62
    7
 10
2273.5280217567843
 20
235.86896962376056
 40
30
 41
1
 50
0
  1
makind your idea reality.
  0
LINE
  8
_0-0_
  6
CONTINUOUS
 62
    7
 10
2292.4216099421278
 20
332.54697645965109
 11
2257.9439980018292
 21
276.12906601188979
  0
LINE
  8
_0-0_
  6
CONTINUOUS
 62
    7
 10
2328.2607417009258
 20
276.12906601188979
 11
2292.4216099421278
 21
332.54697645965109
  0
LINE
  8
_0-0_
  6
CONTINUOUS
 62
    7
 10
2331.7953526992319
 20
276.15978679737373
 11
2331.814867889886
 21
276.12906601188979
  0
LINE
  8
_0-0_
  6
CONTINUOUS
 62
    7
 10
2257.9439980018292
 20
276.12906601188979
 11
2328.2607417009258
 21
276.12906601188979
  0
LINE
  8
_0-0_
  6
CONTINUOUS
 62
    7
 10
2331.7765788858806
 20
276.12906601188979
 11
2366.2541908261792
 21
332.54697645965109
  0
LINE
  8
_0-0_
  6
CONTINUOUS
 62
    7
 10
2366.2541908261792
 20
332.54697645965109
 11
2389.4697028161836
 21
332.54697645965109
  0
LINE
  8
_0-0_
  6
CONTINUOUS
 62
    7
 10
2354.992090875885
 20
276.12906601188979
 11
2331.7953526992319
 21
276.12906601188979
  0
LINE
  8
_0-0_
  6
CONTINUOUS
 62
    7
 10
2389.4697028161836
 20
332.54697645965109
 11
2354.992090875885
 21
276.12906601188979
  0
SOLID
  8
_0-0_
  6
CONTINUOUS
 62
    7
 10
2257.9439980018292
 20
276.12906601188979
 11
2328.2607417009258
 21
276.12906601188979
 12
2292.4216099421278
 22
332.54697645965109
 13
2292.4216099421278
 23
332.54697645965109
  0
SOLID
  8
_0-0_
  6
CONTINUOUS
 62
    7
 10
2331.7765788858806
 20
276.12906601188979
 11
2366.2541908261792
 21
332.54697645965109
 12
2331.7953526992319
 22
276.12906601188979
 13
2354.992090875885
 23
276.12906601188979
  0
SOLID
  8
_0-0_
  6
CONTINUOUS
 62
    7
 10
2366.2541908261792
 20
332.54697645965109
 11
2389.4697028161836
 21
332.54697645965109
 12
2354.992090875885
 22
276.12906601188979
 13
2354.992090875885
 23
276.12906601188979
  0
LINE
  8
_0-0_
  6
CONTINUOUS
 62
    7
 10
2298.3451535903941
 20
332.54697645965109
 11
2360.3944621845876
 21
332.54697645965109
  0
LINE
  8
_0-0_
  6
CONTINUOUS
 62
    7
 10
2329.9705279929094
 20
282.76235687326857
 11
2298.3451535903941
 21
332.54697645965109
  0
LINE
  8
_0-0_
  6
CONTINUOUS
 62
    7
 10
2360.3944621845876
 20
332.54697645965109
 11
2329.9705279929094
 21
282.76235687326857
  0
SOLID
  8
_0-0_
  6
CONTINUOUS
 62
    7
 10
2298.3451535903941
 20
332.54697645965109
 11
2360.3944621845876
 21
332.54697645965109
 12
2329.9705279929094
 22
282.76235687326857
 13
2329.9705279929094
 23
282.76235687326857
  0
TEXT
  8
_0-0_
 62
    7
 10
1521.1150864334013
 20
315.96847211132297
 40
40
 41
1
 50
0
  1
確認
  0
TEXT
  8
_0-0_
 62
    7
 10
1719.6225491199689
 20
315.96847211132297
 40
40
 41
1
 50
0
  1
承認
  0
TEXT
  8
_0-0_
 62
    7
 10
469.67039800994951
 20
653.93407960199033
 40
40
 41
1
 50
0
  1
部材　　規格    長さ　　　
  0
LINE
  8
_0-0_
  6
CONTINUOUS
 62
    7
 10
388.65671641791062
 20
707.26119402985069
 11
388.65671641791062
 21
38.604477611940325
  0
LINE
  8
_0-0_
  6
CONTINUOUS
 62
    7
 10
2604.6268656716416
 20
202.24084124830412
 11
2604.6268656716416
 21
38.604477611940325
  0
LINE
  8
_0-0_
  6
CONTINUOUS
 62
    7
 10
2717.4626865671644
 20
145.05555555555571
 11
2717.4626865671644
 21
38.604477611940325
  0
TEXT
  8
_0-0_
 62
    7
 10
2638.28861174744
 20
76.349529596342848
 40
40
 41
1
 50
0
  1
頁
  0
LINE
  8
_0-0_
  6
CONTINUOUS
 62
    7
 10
1467.5621890547259
 20
450.60366377986566
 11
1467.5621890547259
 21
38.604477611940325
  0
LINE
  8
_0-0_
  6
CONTINUOUS
 62
    7
 10
2072.2201492537306
 20
450.60366377986566
 11
2072.2201492537306
 21
38.604477611940325
  0
TEXT
  8
_0-0_
 62
    7
 10
1296.204394693201
 20
318.96187273508951
 40
40
 41
1
 50
0
  1
設計
  0
TEXT
  8
_0-0_
 62
    7
 10
1243.9655887230517
 20
385.82754437688061
 40
40
 41
1
 50
0
  1
ハーネス名
  0
TEXT
  8
_0-0_
 62
    7
 10
2416.2043946932008
 20
392.09620109329853
 40
40
 41
1
 50
0
  1
会社名
  0
LINE
  8
_0-0_
  6
CONTINUOUS
 62
    7
 10
30.037313432835447
 20
2027.3358208955226
 11
2695.8899944720838
 21
2027.3358208955226
  0
LINE
  8
_0-0_
  6
CONTINUOUS
 62
    7
 10
2695.8899944720838
 20
2027.3358208955226
 11
2879.248203427308
 21
2027.3358208955226
  0
LINE
  8
_0-0_
  6
CONTINUOUS
 62
    7
 10
2879.248203427308
 20
2027.3358208955226
 11
2879.248203427308
 21
1897.1741293532334
  0
LINE
  8
_0-0_
  6
CONTINUOUS
 62
    7
 10
2879.248203427308
 20
38.604477611940325
 11
30.037313432835447
 21
38.604477611940325
  0
LINE
  8
_0-0_
  6
CONTINUOUS
 62
    7
 10
2879.248203427308
 20
1897.1741293532334
 11
2879.248203427308
 21
38.604477611940325
  0
LINE
  8
_0-0_
  6
CONTINUOUS
 62
    7
 10
1230.0373134328354
 20
450.60366377986566
 11
2879.248203427308
 21
450.60366377986566
  0
LINE
  8
_0-0_
  6
CONTINUOUS
 62
    7
 10
1230.0373134328354
 20
365.87720488466761
 11
2879.248203427308
 21
365.87720488466761
  0
LINE
  8
_0-0_
  6
CONTINUOUS
 62
    7
 10
1230.0373134328354
 20
202.24084124830412
 11
2879.248203427308
 21
202.24084124830412
  0
LINE
  8
_0-0_
  6
CONTINUOUS
 62
    7
 10
1230.0373134328354
 20
147.69538670284939
 11
2879.248203427308
 21
147.69538670284939
  0
CIRCLE
  8
_1-0_
  6
CONTINUOUS
 62
    7
 10
-790.24253731343333
 20
2721.4589552238813
 40
4.2000000000000002
  0
LINE
  8
_0-0_
  6
CONTINUOUS
 62
    7
 10
2431.2018686296715
 20
723.74830124575305
 11
2581.2018686296715
 21
723.74830124575305
  0
LINE
  8
_0-0_
  6
CONTINUOUS
 62
    7
 10
2581.2018686296715
 20
723.74830124575305
 11
2581.2018686296715
 21
663.74830124575305
  0
LINE
  8
_0-0_
  6
CONTINUOUS
 62
    7
 10
2581.2018686296715
 20
663.74830124575305
 11
2431.2018686296715
 21
663.74830124575305
  0
LINE
  8
_0-0_
  6
CONTINUOUS
 62
    7
 10
2431.2018686296715
 20
663.74830124575305
 11
2431.2018686296715
 21
723.74830124575305
  0
LINE
  8
_0-0_
  6
CONTINUOUS
 62
    7
 10
2431.2018686296715
 20
663.74830124575305
 11
2581.2018686296715
 21
663.74830124575305
  0
LINE
  8
_0-0_
  6
CONTINUOUS
 62
    7
 10
2581.2018686296715
 20
663.74830124575305
 11
2581.2018686296715
 21
603.74830124575305
  0
LINE
  8
_0-0_
  6
CONTINUOUS
 62
    7
 10
2581.2018686296715
 20
603.74830124575305
 11
2431.2018686296715
 21
603.74830124575305
  0
LINE
  8
_0-0_
  6
CONTINUOUS
 62
    7
 10
2431.2018686296715
 20
603.74830124575305
 11
2431.2018686296715
 21
663.74830124575305
  0
LINE
  8
_0-0_
  6
CONTINUOUS
 62
    7
 10
2431.2018686296715
 20
603.74830124575305
 11
2581.2018686296715
 21
603.74830124575305
  0
LINE
  8
_0-0_
  6
CONTINUOUS
 62
    7
 10
2581.2018686296715
 20
603.74830124575305
 11
2581.2018686296715
 21
543.74830124575305
  0
LINE
  8
_0-0_
  6
CONTINUOUS
 62
    7
 10
2581.2018686296715
 20
543.74830124575305
 11
2431.2018686296715
 21
543.74830124575305
  0
LINE
  8
_0-0_
  6
CONTINUOUS
 62
    7
 10
2431.2018686296715
 20
543.74830124575305
 11
2431.2018686296715
 21
603.74830124575305
  0
TEXT
  8
_0-0_
 62
    7
 10
2447.1531710079271
 20
672.17412231030573
 40
40
 41
1
 50
0
  1
Pin No.
  0
LINE
  8
_0-0_
  6
CONTINUOUS
 62
    7
 10
1845.1061721404301
 20
723.74830124575305
 11
1995.1061721404299
 21
723.74830124575305
  0
LINE
  8
_0-0_
  6
CONTINUOUS
 62
    7
 10
1995.1061721404299
 20
723.74830124575305
 11
1995.1061721404299
 21
663.74830124575305
  0
LINE
  8
_0-0_
  6
CONTINUOUS
 62
    7
 10
1995.1061721404299
 20
663.74830124575305
 11
1845.1061721404301
 21
663.74830124575305
  0
LINE
  8
_0-0_
  6
CONTINUOUS
 62
    7
 10
1845.1061721404301
 20
663.74830124575305
 11
1845.1061721404301
 21
723.74830124575305
  0
LINE
  8
_0-0_
  6
CONTINUOUS
 62
    7
 10
1845.1061721404301
 20
663.74830124575305
 11
1995.1061721404299
 21
663.74830124575305
  0
LINE
  8
_0-0_
  6
CONTINUOUS
 62
    7
 10
1995.1061721404299
 20
663.74830124575305
 11
1995.1061721404299
 21
603.74830124575305
  0
LINE
  8
_0-0_
  6
CONTINUOUS
 62
    7
 10
1995.1061721404299
 20
603.74830124575305
 11
1845.1061721404301
 21
603.74830124575305
  0
LINE
  8
_0-0_
  6
CONTINUOUS
 62
    7
 10
1845.1061721404301
 20
603.74830124575305
 11
1845.1061721404301
 21
663.74830124575305
  0
LINE
  8
_0-0_
  6
CONTINUOUS
 62
    7
 10
1845.1061721404301
 20
603.74830124575305
 11
1995.1061721404299
 21
603.74830124575305
  0
LINE
  8
_0-0_
  6
CONTINUOUS
 62
    7
 10
1995.1061721404299
 20
603.74830124575305
 11
1995.1061721404299
 21
543.74830124575305
  0
LINE
  8
_0-0_
  6
CONTINUOUS
 62
    7
 10
1995.1061721404299
 20
543.74830124575305
 11
1845.1061721404301
 21
543.74830124575305
  0
LINE
  8
_0-0_
  6
CONTINUOUS
 62
    7
 10
1845.1061721404301
 20
543.74830124575305
 11
1845.1061721404301
 21
603.74830124575305
  0
TEXT
  8
_0-0_
 62
    7
 10
1861.0574745186861
 20
672.17412231030573
 40
40
 41
1
 50
0
  1
Pin No.
  0
LINE
  8
_0-0_
  6
CONTINUOUS
 62
    7
 10
1995.1061721404299
 20
633.74830124575305
 11
2431.2018686296715
 21
633.74830124575305
  0
LINE
  8
_0-0_
  6
CONTINUOUS
 62
    7
 10
1995.1061721404299
 20
573.74830124575305
 11
2431.2018686296715
 21
573.74830124575305
  0
TEXT
  8
_1-3_
 62
    7
 10
388.65671641791062
 20
474.96811397557678
 40
40
 41
1
 50
0
  1
 R1.25-4S
  0
TEXT
  8
_1-3_
 62
    7
 10
388.65671641791062
 20
529.51356852103129
 40
40
 41
1
 50
0
  1
 Switch A8MD-1162
  0
LINE
  8
_1-3_
  6
CONTINUOUS
 62
    7
 10
2136.9251379991106
 20
1497.3044122523538
 11
2136.9251379991106
 21
1764.476883230795
  0
LINE
  8
_1-3_
  6
CONTINUOUS
 62
    7
 10
1941.4252284248962
 20
1491.2098848891696
 11
1941.4252284248962
 21
1557.6112115890037
  0
LINE
  8
_1-3_
  6
CONTINUOUS
 62
    7
 10
2262.298272327469
 20
1497.3044122523538
 11
2262.298272327469
 21
1557.6112115890037
  0
LINE
  8
_1-3_
  6
CONTINUOUS
 62
    7
 10
2387.6714066558275
 20
1497.3044122523538
 11
2387.6714066558275
 21
1648.5067339770635
  0
LINE
  8
_1-3_
  6
CONTINUOUS
 62
    7
 10
907.17647049984373
 20
1497.3044122523538
 11
907.17647049984373
 21
1503.3042657606643
  0
LINE
  8
_1-3_
  6
CONTINUOUS
 62
    7
 10
907.17647049984373
 20
1503.3042657606643
 11
907.17647049984373
 21
1648.5067339770635
  0
LINE
  8
_1-3_
  6
CONTINUOUS
 62
    7
 10
656.43020184312695
 20
1497.3044122523538
 11
656.43020184312695
 21
1648.5067339770635
  0
LINE
  8
_1-3_
  6
CONTINUOUS
 62
    7
 10
781.8033361714854
 20
1497.3044122523538
 11
781.8033361714854
 21
1557.6112115890037
  0
LINE
  8
_1-3_
  6
CONTINUOUS
 62
    7
 10
656.43020184312695
 20
1648.5067339770635
 11
405.34709793919046
 21
1648.5067339770635
  0
LINE
  8
_1-3_
  6
CONTINUOUS
 62
    7
 10
405.34709793919046
 20
1533.3335797071691
 11
405.34709793919046
 21
1824.0291220367651
  0
TEXT
  8
_1-3_
 62
    7
 10
946.7577387693467
 20
1221.0477538693845
 40
64
 41
1
 50
0
  1
5
  0
LINE
  8
_1-3_
  6
CONTINUOUS
 62
    7
 10
2553.5642060849787
 20
1714.0374139107289
 11
2553.5642060849787
 21
1824.0291220367651
  0
LINE
  8
_1-3_
  6
CONTINUOUS
 62
    7
 10
2671.3320796799671
 20
1714.0374139107289
 11
2671.3320796799671
 21
1764.476883230795
  0
TEXT
  8
_0-0_
 62
    7
 10
1959.4776119402986
 20
262.41873963515752
 40
40
 41
1
 50
0
  1
2
  0
TEXT
  8
_0-0_
 62
    7
 10
1510.5646359583955
 20
55.807578008915243
 40
64
 41
1
 50
0
  1
FABOOL Laser Co2
  0
TEXT
  8
_0-0_
 62
    7
 10
2170.8529645772787
 20
55.318919791522603
 40
70
 41
1
 50
0
  1
2018/05/06
  0
TEXT
  8
_0-0_
 62
    7
 10
2290.8259251802765
 20
154.70773855156676
 40
40
 41
1
 50
0
  1
日付
  0
TEXT
  8
_1-3_
 62
    7
 10
1120.0373134328356
 20
591.33175033921304
 40
40
 41
1
 50
0
  1
1
  0
TEXT
  8
_1-3_
 62
    7
 10
1120.0373134328356
 20
536.78629579375865
 40
40
 41
1
 50
0
  1
1
  0
TEXT
  8
_1-3_
 62
    7
 10
1120.0373134328356
 20
482.24084124830415
 40
40
 41
1
 50
0
  1
3
  0
TEXT
  8
_0-0_
 62
    7
 10
1910.1061721404301
 20
613.74830124575305
 40
40
 41
1
 50
0
  1
1
  0
TEXT
  8
_0-0_
 62
    7
 10
1910.1061721404301
 20
553.74830124575305
 40
40
 41
1
 50
0
  1
2
  0
TEXT
  8
_0-0_
 62
    7
 10
2496.2018686296719
 20
613.74830124575305
 40
40
 41
1
 50
0
  1
1
  0
TEXT
  8
_0-0_
 62
    7
 10
2496.2018686296719
 20
553.74830124575305
 40
40
 41
1
 50
0
  1
2
  0
TEXT
  8
_1-3_
 62
    7
 10
388.65671641791062
 20
584.05902306648568
 40
40
 41
1
 50
0
  1
 VCTF AWG16 2芯
  0
TEXT
  8
_1-3_
 62
    7
 10
2077.0710645526606
 20
690.29983012457524
 40
40
 41
1
 50
0
  1
VCTF AWG16 2芯
  0
TEXT
  8
_1-3_
 62
    7
 10
2183.1540203850509
 20
633.74830124575305
 40
40
 41
1
 50
0
  1
White
  0
TEXT
  8
_1-3_
 62
    7
 10
2183.1540203850509
 20
573.74830124575305
 40
40
 41
1
 50
0
  1
Black
  0
TEXT
  8
_0-0_
 62
    7
 10
1346.1308984522461
 20
1798.734616836542
 40
64
 41
1
 50
0
  1
900±15
  0
LINE
  8
_1-3_
  6
CONTINUOUS
 62
    7
 10
405.34709793919046
 20
1824.0291220367651
 11
1301.2764632627643
 21
1824.0291220367651
  0
LINE
  8
_1-3_
  6
CONTINUOUS
 62
    7
 10
2553.5642060849787
 20
1824.0291220367651
 11
1600.5853051058527
 21
1824.0291220367651
  0
TEXT
  8
_0-0_
 62
    7
 10
2767.3728719630753
 20
1649.6887851998654
 40
40
 41
1
 50
0
  1
White
  0
TEXT
  8
_0-0_
 62
    7
 10
2767.3728719630753
 20
1423.516964174863
 40
40
 41
1
 50
0
  1
Black
  0
TEXT
  8
_1-3_
 62
    7
 10
452.27197346600349
 20
1373.2479270315091
 40
30
 41
1
 50
0
  1
Black
  0
TEXT
  8
_1-3_
 62
    7
 10
444.03655662865003
 20
1492.9893133844619
 40
30
 41
1
 50
0
  1
White
  0
LINE
  8
_0-0_
  6
CONTINUOUS
 62
    7
 10
313.55982772934817
 20
1383.2653071814029
 11
395.32819634703168
 21
1161.1482461602322
  0
LINE
  8
_0-0_
  6
CONTINUOUS
 62
    7
 10
313.55982772934817
 20
1383.2653071814029
 11
325.66798179668058
 21
1366.1074342047855
  0
LINE
  8
_0-0_
  6
CONTINUOUS
 62
    7
 10
313.55982772934817
 20
1383.2653071814029
 11
315.46686025628509
 21
1362.3520762750793
  0
LINE
  8
_0-0_
  6
CONTINUOUS
 62
    7
 10
419.73666459111661
 20
1397.9103881278536
 11
597.91848277293468
 21
1133.0785076795351
  0
LINE
  8
_0-0_
  6
CONTINUOUS
 62
    7
 10
419.73666459111661
 20
1397.9103881278536
 11
435.56946886399322
 21
1384.1146529587236
  0
LINE
  8
_0-0_
  6
CONTINUOUS
 62
    7
 10
419.73666459111661
 20
1397.9103881278536
 11
426.55040772000933
 21
1378.0465288710661
  0
TEXT
  8
_1-3_
 62
    7
 10
609.9524372338301
 20
1064.3154329956078
 40
64
 41
1
 50
0
  1
5
  0
TEXT
  8
_1-3_
 62
    7
 10
384.78431768214904
 20
1083.5371017378245
 40
64
 41
1
 50
0
  1
2
  0
TEXT
  8
_1-3_
 62
    7
 10
118.19216746336468
 20
320.21844550165315
 40
40
 41
1
 50
0
  1
表示
  0
TEXT
  8
_1-3_
 62
    7
 10
388.65671641791062
 20
311.33175033921316
 40
40
 41
1
 50
0
  1
 テプラ9mm 
  0
TEXT
  8
_1-3_
 62
    7
 10
1120.0373134328356
 20
318.60447761194041
 40
40
 41
1
 50
0
  1
1
  0
TEXT
  8
_1-3_
 62
    7
 10
118.19216746336468
 20
371.93486341210075
 40
40
 41
1
 50
0
  1
収縮チューブ
  0
TEXT
  8
_1-3_
 62
    7
 10
388.65671641791062
 20
365.87720488466755
 40
40
 41
1
 50
0
  1
 8Φ-20mm 
  0
TEXT
  8
_1-3_
 62
    7
 10
1120.0373134328356
 20
373.14993215739497
 40
40
 41
1
 50
0
  1
1
  0
TEXT
  8
_1-3_
 62
    7
 10
388.65671641791062
 20
420.42265943012205
 40
40
 41
1
 50
0
  1
 TMEDN-630809-FA
  0
TEXT
  8
_1-3_
 62
    7
 10
118.19216746336468
 20
426.48031795755543
 40
40
 41
1
 50
0
  1
圧着端子
  0
TEXT
  8
_1-3_
 62
    7
 10
1120.0373134328356
 20
427.69538670284942
 40
40
 41
1
 50
0
  1
2
  0
TEXT
  8
_1-3_
 62
    7
 10
2460.2335787089469
 20
742.04737571042835
 40
40
 41
1
 50
0
  1
R2-4S
  0
TEXT
  8
_1-3_
 62
    7
 10
1750.8762740656853
 20
740.92619790748381
 40
40
 41
1
 50
0
  1
 Switch A8MD-1162
  0
TEXT
  8
_0-0_
 62
    7
 10
1688.2220733742708
 20
824.42595603421421
 40
35
 41
1
 50
0
  1
laser-150807-04_cover_front
  0
TEXT
  8
_0-0_
 62
    7
 10
2380.6161981304676
 20
824.42595603421421
 40
35
 41
1
 50
0
  1
Terminal block
  0
LINE
  8
_0-0_
  6
CONTINUOUS
 62
    7
 10
563.53051058530502
 20
1896.2372353673725
 11
869.85678704856775
 21
1896.2372353673725
  0
LINE
  8
_0-0_
  6
CONTINUOUS
 62
    7
 10
419.52054794520507
 20
1515.4651307596514
 11
563.53051058530502
 21
1896.2372353673725
  0
LINE
  8
_0-0_
  6
CONTINUOUS
 62
    7
 10
419.52054794520507
 20
1515.4651307596514
 11
421.61241704867984
 21
1536.3606825268082
  0
LINE
  8
_0-0_
  6
CONTINUOUS
 62
    7
 10
419.52054794520507
 20
1515.4651307596514
 11
431.77993561378435
 21
1532.515274864365
  0
TEXT
  8
_0-0_
 62
    7
 10
573.29389788293884
 20
1902.3393524283933
 40
35
 41
1
 50
0
  1
取付後、半田付け
  0
TEXT
  8
_0-0_
 62
    7
 10
1931.7974263179744
 20
210.06973848069751
 40
40
 41
1
 50
0
  1
Ver.
  0
TEXT
  8
_0-0_
 62
    7
 10
1941.4438225538968
 20
154.96811397557661
 40
40
 41
1
 50
0
  1
5.0
  0
TEXT
  8
_0-0_
 62
    7
 10
1587.4328358208954
 20
389.00000000000011
 40
35
 41
1
 50
0
  1
AC-switch Cable_ver.5.0
  0
TEXT
  8
_1-3_
 62
    7
 10
1872.7397260273974
 20
1471.5298879202987
 40
28
 41
1
 50
-90
  1
AC-Switch Ver.5.0
  0
ENDSEC
  0
EOF
