  0
SECTION
  2
HEADER
  9
$ACADVER
  1
AC1009
  9
$INSBASE
 10
0
 20
0
 30
0
  9
$EXTMIN
 10
0
 20
0
  9
$EXTMAX
 10
2940
 20
2079
  9
$LIMMIN
 10
0
 20
0
  9
$LIMMAX
 10
2940
 20
2079
  9
$LTSCALE
 40
7
  0
ENDSEC
  0
SECTION
  2
TABLES
  0
TABLE
  2
LTYPE
 70
     9
  0
LTYPE
  2
CONTINUOUS
 70
    64
  3
実線
 72
    65
 73
     0
 40
0.0
  0
LTYPE
  2
DASHED1
 70
    64
  3
--  --  --  --  --  --  --  --  
 72
    65
 73
     2
 40
2.5
 49
1.25
 49
-1.25
  0
LTYPE
  2
DASHED2
 70
    64
  3
----    ----    ----    ----    
 72
    65
 73
     2
 40
5.0
 49
2.5
 49
-2.5
  0
LTYPE
  2
DASHED3
 70
    64
  3
------  ------  ------  ------  
 72
    65
 73
     2
 40
5.0
 49
3.75
 49
-1.25
  0
LTYPE
  2
CENTER1
 70
    64
  3
----- - ----- - ----- - ----- - 
 72
    65
 73
     4
 40
10.0
 49
6.25
 49
-1.25
 49
1.25
 49
-1.25
  0
LTYPE
  2
CENTER2
 70
    64
  3
----------  --  ----------  --  
 72
    65
 73
     4
 40
20.0
 49
12.5
 49
-2.5
 49
2.5
 49
-2.5
  0
LTYPE
  2
PHANTOM1
 70
    64
  3
--- - - --- - - --- - - --- - - 
 72
    65
 73
     6
 40
10.0
 49
3.25
 49
-1.25
 49
1.25
 49
-1.25
 49
1.25
 49
-1.25
  0
LTYPE
  2
PHANTOM2
 70
    64
  3
--------  -  -  --------  -  -  
 72
    65
 73
     6
 40
20.0
 49
10.0
 49
-2.5
 49
1.25
 49
-2.5
 49
1.25
 49
-2.5
  0
LTYPE
  2
DOT
 70
    64
  3
-   -   -   -   -   -   -   -   
 72
    65
 73
     2
 40
2.5
 49
0.625
 49
-1.875
  0
LTYPE
  2
DUMMY
 70
    64
  3
ダミー
 72
    65
 73
     0
 40
0.0
  0
LTYPE
  2
RAND1
 70
    64
  3
ランダム線1
 72
    65
 73
     4
 40
10.0
 49
1.0
 49
-2.0
 49
3.0
 49
-4.0
  0
LTYPE
  2
RAND2
 70
    64
  3
ランダム線2
 72
    65
 73
     4
 40
14.0
 49
2.0
 49
-3.0
 49
4.0
 49
-5.0
  0
LTYPE
  2
RAND3
 70
    64
  3
ランダム線3
 72
    65
 73
     4
 40
18.0
 49
3.0
 49
-4.0
 49
5.0
 49
-6.0
  0
LTYPE
  2
RAND4
 70
    64
  3
ランダム線4
 72
    65
 73
     4
 40
22.0
 49
4.0
 49
-5.0
 49
6.0
 49
-7.0
  0
LTYPE
  2
RAND5
 70
    64
  3
ランダム線5
 72
    65
 73
     4
 40
26.0
 49
5.0
 49
-6.0
 49
7.0
 49
-8.0
  0
LTYPE
  2
LONG1
 70
    64
  3
----------  --  ----------  --  
 72
    65
 73
     4
 40
40.0
 49
32.5
 49
-2.5
 49
2.5
 49
-2.5
  0
LTYPE
  2
LONG2
 70
    64
  3
--------  -  -  --------  -  -  
 72
    65
 73
     6
 40
40.0
 49
30.0
 49
-2.5
 49
1.25
 49
-2.5
 49
1.25
 49
-2.5
  0
LTYPE
  2
LONG3
 70
    64
  3
+++++++++++++++..+++++++++++++++
 72
    65
 73
     2
 40
40.0
 49
37.5
 49
-2.5
  0
LTYPE
  2
LONG4
 70
    64
  3
+++++++++++++++..+++++++++++++++
 72
    65
 73
     2
 40
80.0
 49
75.0
 49
-5.0
  0
LTYPE
  2
LONG5
 70
    64
  3
----------  --  ----------  --  
 72
    65
 73
     4
 40
60.0
 49
37.5
 49
-7.5
 49
7.5
 49
-7.5
  0
LTYPE
  2
dashed
 70
   64
  3
-------   -------------   ------
 72
   65
 73
    2
 40
7.5
 49
6
 49
-1.5
  0
LTYPE
  2
dashed_spaced
 70
   64
  3
----        --------        ----
 72
   65
 73
    2
 40
12
 49
6
 49
-6
  0
LTYPE
  2
long_dashed_dotted
 70
   64
  3
------------- --- --------------
 72
   65
 73
    4
 40
15.25
 49
12
 49
-1.5
 49
0.25
 49
-1.5
  0
LTYPE
  2
long_dashed_double-dotted
 70
   64
  3
----------- --- --- ------------
 72
   65
 73
    6
 40
17
 49
12
 49
-1.5
 49
0.25
 49
-1.5
 49
0.25
 49
-1.5
  0
LTYPE
  2
long_dashed_triplicate-dotted
 70
   64
  3
--------- --- --- --- ----------
 72
   65
 73
    8
 40
18.75
 49
12
 49
-1.5
 49
0.25
 49
-1.5
 49
0.25
 49
-1.5
 49
0.25
 49
-1.5
  0
LTYPE
  2
dotted
 70
   64
  3
   -       -       -       -    
 72
   65
 73
    2
 40
1.75
 49
0.25
 49
-1.5
  0
LTYPE
  2
chain
 70
   64
  3
-------------- -- --------------
 72
   65
 73
    4
 40
18.5
 49
12
 49
-1.5
 49
3.5
 49
-1.5
  0
LTYPE
  2
chain_double_dash
 70
   64
  3
------------ -- -- -------------
 72
   65
 73
    6
 40
23.5
 49
12
 49
-1.5
 49
3.5
 49
-1.5
 49
3.5
 49
-1.5
  0
LTYPE
  2
dashed_dotted
 70
   64
  3
-----------     -     ----------
 72
   65
 73
    4
 40
9.25
 49
6
 49
-1.5
 49
0.25
 49
-1.5
  0
LTYPE
  2
double-dashed_dotted
 70
   64
  3
------   -----------   -   -----
 72
   65
 73
    6
 40
16.75
 49
6
 49
-1.5
 49
6
 49
-1.5
 49
0.25
 49
-1.5
  0
LTYPE
  2
dashed_double-dotted
 70
   64
  3
---------    -    -    ---------
 72
   65
 73
    6
 40
11
 49
6
 49
-1.5
 49
0.25
 49
-1.5
 49
0.25
 49
-1.5
  0
LTYPE
  2
double-dashed_double-dotted
 70
   64
  3
-----   ---------   -   -   ----
 72
   65
 73
    8
 40
18.5
 49
6
 49
-1.5
 49
6
 49
-1.5
 49
0.25
 49
-1.5
 49
0.25
 49
-1.5
  0
LTYPE
  2
dashed_triplicate-dotted
 70
   64
  3
-------    -    -    -    ------
 72
   65
 73
    8
 40
12.75
 49
6
 49
-1.5
 49
0.25
 49
-1.5
 49
0.25
 49
-1.5
 49
0.25
 49
-1.5
  0
LTYPE
  2
double-dashed_triplicate-dotted
 70
   64
  3
-----  ---------  -  -  -  -----
 72
   65
 73
   10
 40
20.25
 49
6
 49
-1.5
 49
6
 49
-1.5
 49
0.25
 49
-1.5
 49
0.25
 49
-1.5
 49
0.25
 49
-1.5
  0
LTYPE
  2
undefined
 70
   64
  3
--------------------------------
 72
   65
 73
    0
 40
0
  0
LTYPE
  2
_
 70
   64
  3
                                
 72
   65
 73
    0
 40
0
  0
LTYPE
  2
__18
 70
   64
  3
                                
 72
   65
 73
    0
 40
0
  0
LTYPE
  2
__19
 70
   64
  3
                                
 72
   65
 73
    0
 40
0
  0
LTYPE
  2
__20
 70
   64
  3
                                
 72
   65
 73
    0
 40
0
  0
LTYPE
  2
__21
 70
   64
  3
                                
 72
   65
 73
    0
 40
0
  0
LTYPE
  2
__22
 70
   64
  3
                                
 72
   65
 73
    0
 40
0
  0
LTYPE
  2
__23
 70
   64
  3
                                
 72
   65
 73
    0
 40
0
  0
LTYPE
  2
__24
 70
   64
  3
                                
 72
   65
 73
    0
 40
0
  0
LTYPE
  2
__25
 70
   64
  3
                                
 72
   65
 73
    0
 40
0
  0
LTYPE
  2
__26
 70
   64
  3
                                
 72
   65
 73
    0
 40
0
  0
LTYPE
  2
__27
 70
   64
  3
                                
 72
   65
 73
    0
 40
0
  0
LTYPE
  2
__28
 70
   64
  3
                                
 72
   65
 73
    0
 40
0
  0
LTYPE
  2
__29
 70
   64
  3
                                
 72
   65
 73
    0
 40
0
  0
LTYPE
  2
__30
 70
   64
  3
                                
 72
   65
 73
    0
 40
0
  0
LTYPE
  2
__31
 70
   64
  3
                                
 72
   65
 73
    0
 40
0
  0
LTYPE
  2
__32
 70
   64
  3
                                
 72
   65
 73
    0
 40
0
  0
ENDTAB
  0
TABLE
  2
STYLE
  5
3
100
AcDbSymbolTable
 70
     1
  0
STYLE
  5
10
100
AcDbSymbolTableRecord
100
AcDbTextStyleTableRecord
  2
STANDARD
 70
     0
 40
0.0
 41
1.0
 50
0.0
 71
     0
 42
0.2
  3
txt
  4
bigfont.shx
  0
STYLE
  5
26
100
AcDbSymbolTableRecord
100
AcDbTextStyleTableRecord
  2
TATEGAKI
 70
    68
 40
0.0
 41
1.0
 50
0.0
 71
     0
 42
1.0
  3
txt
  4
bigfont.shx
  0
ENDTAB
  0
TABLE
  2
LAYER
 70
    3
  0
LAYER
  2
_0-0_
 70
   64
 62
    7
  6
CONTINUOUS
  0
LAYER
  2
_2-0_
 70
   64
 62
    7
  6
CONTINUOUS
  0
LAYER
  2
ADD_LINE
 70
   64
 62
    7
  6
CONTINUOUS
  0
ENDTAB
  0
ENDSEC
  0
SECTION
  2
BLOCKS
  0
ENDSEC
  0
SECTION
  2
ENTITIES
  0
LINE
  8
_0-0_
  6
CONTINUOUS
 62
    7
 10
1230.0373134328354
 20
202.24084124830412
 11
2879.248203427308
 21
202.24084124830412
  0
LINE
  8
_2-0_
  6
CONTINUOUS
 62
    7
 10
313.81300332550063
 20
1641.4954760782598
 11
403.14136153445577
 21
1641.4954760782598
  0
LINE
  8
_2-0_
  6
CONTINUOUS
 62
    7
 10
403.14136153445577
 20
1641.4954760782598
 11
403.14136153445577
 21
1744.9283118991555
  0
LINE
  8
_2-0_
  6
CONTINUOUS
 62
    7
 10
403.14136153445577
 20
1744.9283118991555
 11
313.81300332550063
 21
1744.9283118991555
  0
LINE
  8
_2-0_
  6
CONTINUOUS
 62
    7
 10
313.81300332550063
 20
1744.9283118991555
 11
313.81300332550063
 21
1641.4954760782598
  0
LINE
  8
_2-0_
  6
CONTINUOUS
 62
    7
 10
356.12643616132141
 20
1693.211893988708
 11
492.46971974341119
 21
1693.211893988708
  0
LINE
  8
_2-0_
  6
CONTINUOUS
 62
    7
 10
539.48464511654515
 20
1730.8238342872155
 11
539.48464511654515
 21
1655.5999536902004
  0
LINE
  8
_2-0_
  6
CONTINUOUS
 62
    7
 10
403.14136153445577
 20
1730.8238342872155
 11
549.48464511654515
 21
1730.8238342872155
  0
LINE
  8
_2-0_
  6
CONTINUOUS
 62
    7
 10
403.14136153445577
 20
1655.5999536902004
 11
549.48464511654515
 21
1655.5999536902004
  0
LINE
  8
_2-0_
  6
CONTINUOUS
 62
    7
 10
2691.2010630269933
 20
1782.1919934911953
 11
2594.0368839225166
 21
1782.1919934911953
  0
LINE
  8
_2-0_
  6
CONTINUOUS
 62
    7
 10
2594.0368839225166
 20
1688.1621427449268
 11
2691.2010630269933
 21
1688.1621427449268
  0
LINE
  8
_2-0_
  6
CONTINUOUS
 62
    7
 10
2691.2010630269933
 20
1688.1621427449268
 11
2691.2010630269933
 21
1782.1919934911953
  0
LINE
  8
_2-0_
  6
CONTINUOUS
 62
    7
 10
2594.0368839225166
 20
1688.1621427449268
 11
2594.0368839225166
 21
1676.089174254048
  0
LINE
  8
_2-0_
  6
CONTINUOUS
 62
    7
 10
2594.0368839225166
 20
1782.1919934911953
 11
2594.0368839225166
 21
1792.1754097432681
  0
LINE
  8
_2-0_
  6
CONTINUOUS
 62
    7
 10
2594.0368839225166
 20
1792.1754097432681
 11
2576.7400348346223
 21
1792.1754097432681
  0
LINE
  8
_2-0_
  6
CONTINUOUS
 62
    7
 10
2576.7400348346223
 20
1676.089174254048
 11
2576.7400348346223
 21
1792.1754097432681
  0
LINE
  8
_2-0_
  6
CONTINUOUS
 62
    7
 10
2594.0368839225166
 20
1676.089174254048
 11
2576.7400348346223
 21
1676.089174254048
  0
LINE
  8
_2-0_
  6
CONTINUOUS
 62
    7
 10
2594.0368839225166
 20
1792.1754097432681
 11
2594.0368839225166
 21
1676.089174254048
  0
LINE
  8
_2-0_
  6
CONTINUOUS
 62
    7
 10
2645.9790250686374
 20
1763.9879519704043
 11
2645.9790250686374
 21
1775.1322305773692
  0
LINE
  8
_2-0_
  6
CONTINUOUS
 62
    7
 10
2645.9790250686374
 20
1775.1322305773692
 11
2662.6954429790849
 21
1752.8436733634394
  0
LINE
  8
_2-0_
  6
CONTINUOUS
 62
    7
 10
2594.0368839225166
 20
1752.8436733634394
 11
2662.6954429790849
 21
1752.8436733634394
  0
LINE
  8
_2-0_
  6
CONTINUOUS
 62
    7
 10
2594.0368839225166
 20
1762.5949171445336
 11
2645.9790250686374
 21
1762.5949171445336
  0
LINE
  8
_2-0_
  6
CONTINUOUS
 62
    7
 10
2645.9790250686374
 20
1706.3661842657182
 11
2645.9790250686374
 21
1695.2219056587533
  0
LINE
  8
_2-0_
  6
CONTINUOUS
 62
    7
 10
2645.9790250686374
 20
1695.2219056587533
 11
2662.6954429790849
 21
1717.5104628726831
  0
LINE
  8
_2-0_
  6
CONTINUOUS
 62
    7
 10
2594.0368839225166
 20
1717.5104628726831
 11
2662.6954429790849
 21
1717.5104628726831
  0
LINE
  8
_2-0_
  6
CONTINUOUS
 62
    7
 10
2594.0368839225166
 20
1707.7592190915886
 11
2645.9790250686374
 21
1707.7592190915886
  0
LINE
  8
_2-0_
  6
CONTINUOUS
 62
    7
 10
313.81300332550063
 20
1462.8387596603495
 11
403.14136153445577
 21
1462.8387596603495
  0
LINE
  8
_2-0_
  6
CONTINUOUS
 62
    7
 10
403.14136153445577
 20
1462.8387596603495
 11
403.14136153445577
 21
1359.4059238394539
  0
LINE
  8
_2-0_
  6
CONTINUOUS
 62
    7
 10
403.14136153445577
 20
1359.4059238394539
 11
313.81300332550063
 21
1359.4059238394539
  0
LINE
  8
_2-0_
  6
CONTINUOUS
 62
    7
 10
313.81300332550063
 20
1359.4059238394539
 11
313.81300332550063
 21
1462.8387596603495
  0
LINE
  8
_2-0_
  6
CONTINUOUS
 62
    7
 10
356.12643616132141
 20
1411.1223417499018
 11
492.46971974341119
 21
1411.1223417499018
  0
LINE
  8
_2-0_
  6
CONTINUOUS
 62
    7
 10
539.48464511654515
 20
1373.5104014513945
 11
539.48464511654515
 21
1448.7342820484091
  0
LINE
  8
_2-0_
  6
CONTINUOUS
 62
    7
 10
549.48464511654515
 20
1373.5104014513945
 11
549.48464511654515
 21
1448.7342820484091
  0
LINE
  8
_2-0_
  6
CONTINUOUS
 62
    7
 10
403.14136153445577
 20
1373.5104014513945
 11
549.48464511654515
 21
1373.5104014513945
  0
LINE
  8
_2-0_
  6
CONTINUOUS
 62
    7
 10
403.14136153445577
 20
1448.7342820484091
 11
549.48464511654515
 21
1448.7342820484091
  0
LINE
  8
_2-0_
  6
CONTINUOUS
 62
    7
 10
2691.2010630269933
 20
1322.1422422474138
 11
2594.0368839225166
 21
1322.1422422474138
  0
LINE
  8
_2-0_
  6
CONTINUOUS
 62
    7
 10
2594.0368839225166
 20
1416.1720929936828
 11
2691.2010630269933
 21
1416.1720929936828
  0
LINE
  8
_2-0_
  6
CONTINUOUS
 62
    7
 10
2691.2010630269933
 20
1416.1720929936828
 11
2691.2010630269933
 21
1322.1422422474138
  0
LINE
  8
_2-0_
  6
CONTINUOUS
 62
    7
 10
2594.0368839225166
 20
1416.1720929936828
 11
2594.0368839225166
 21
1428.2450614845616
  0
LINE
  8
_2-0_
  6
CONTINUOUS
 62
    7
 10
2594.0368839225166
 20
1322.1422422474138
 11
2594.0368839225166
 21
1312.158825995341
  0
LINE
  8
_2-0_
  6
CONTINUOUS
 62
    7
 10
2594.0368839225166
 20
1312.158825995341
 11
2576.7400348346223
 21
1312.158825995341
  0
LINE
  8
_2-0_
  6
CONTINUOUS
 62
    7
 10
2576.7400348346223
 20
1428.2450614845616
 11
2576.7400348346223
 21
1312.158825995341
  0
LINE
  8
_2-0_
  6
CONTINUOUS
 62
    7
 10
2594.0368839225166
 20
1428.2450614845616
 11
2576.7400348346223
 21
1428.2450614845616
  0
LINE
  8
_2-0_
  6
CONTINUOUS
 62
    7
 10
2594.0368839225166
 20
1312.158825995341
 11
2594.0368839225166
 21
1428.2450614845616
  0
LINE
  8
_2-0_
  6
CONTINUOUS
 62
    7
 10
2645.9790250686374
 20
1340.3462837682052
 11
2645.9790250686374
 21
1329.2020051612401
  0
LINE
  8
_2-0_
  6
CONTINUOUS
 62
    7
 10
2645.9790250686374
 20
1329.2020051612401
 11
2662.6954429790849
 21
1351.4905623751702
  0
LINE
  8
_2-0_
  6
CONTINUOUS
 62
    7
 10
2594.0368839225166
 20
1351.4905623751702
 11
2662.6954429790849
 21
1351.4905623751702
  0
LINE
  8
_2-0_
  6
CONTINUOUS
 62
    7
 10
2594.0368839225166
 20
1341.7393185940757
 11
2645.9790250686374
 21
1341.7393185940757
  0
LINE
  8
_2-0_
  6
CONTINUOUS
 62
    7
 10
2645.9790250686374
 20
1397.9680514728914
 11
2645.9790250686374
 21
1409.1123300798567
  0
LINE
  8
_2-0_
  6
CONTINUOUS
 62
    7
 10
2645.9790250686374
 20
1409.1123300798567
 11
2662.6954429790849
 21
1386.8237728659262
  0
LINE
  8
_2-0_
  6
CONTINUOUS
 62
    7
 10
2594.0368839225166
 20
1386.8237728659262
 11
2662.6954429790849
 21
1386.8237728659262
  0
LINE
  8
_2-0_
  6
CONTINUOUS
 62
    7
 10
2594.0368839225166
 20
1396.5750166470207
 11
2645.9790250686374
 21
1396.5750166470207
  0
LINE
  8
_2-0_
  6
CONTINUOUS
 62
    7
 10
843.68862521604797
 20
1561.1760190954774
 11
550.91269007692927
 21
1679.1289138277843
  0
LINE
  8
_2-0_
  6
CONTINUOUS
 62
    7
 10
992.74335158420718
 20
1580.8984611528867
 11
2169.3353913852025
 21
1580.8984611528867
  0
LINE
  8
_2-0_
  6
CONTINUOUS
 62
    7
 10
1527.7582974311053
 20
1548.4914120363298
 11
1722.0866556400606
 21
1366.7003672602102
  0
LINE
  8
_2-0_
  6
CONTINUOUS
 62
    7
 10
1527.7582974311053
 20
1548.4914120363298
 11
1554.2243602584026
 21
1534.3652831107693
  0
LINE
  8
_2-0_
  6
CONTINUOUS
 62
    7
 10
1527.7582974311053
 20
1548.4914120363298
 11
1543.6155157149196
 21
1523.0247941160117
  0
LINE
  8
_2-0_
  6
CONTINUOUS
 62
    7
 10
972.9821780281203
 20
1507.7451433796132
 11
1239.4000884758814
 21
1322.8197702452849
  0
LINE
  8
_2-0_
  6
CONTINUOUS
 62
    7
 10
972.9821780281203
 20
1507.7451433796132
 11
1001.2147686033086
 21
1497.6001530191556
  0
LINE
  8
_2-0_
  6
CONTINUOUS
 62
    7
 10
972.9821780281203
 20
1507.7451433796132
 11
992.35982350064933
 21
1484.8430287187143
  0
LINE
  8
_2-0_
  6
CONTINUOUS
 62
    7
 10
493.42993922214987
 20
1398.0436508422999
 11
891.48964071468754
 21
1181.7749941258819
  0
LINE
  8
_2-0_
  6
CONTINUOUS
 62
    7
 10
493.42993922214987
 20
1398.0436508422999
 11
522.59913544703636
 21
1391.0323748105011
  0
LINE
  8
_2-0_
  6
CONTINUOUS
 62
    7
 10
493.42993922214987
 20
1398.0436508422999
 11
515.18556614497527
 21
1377.3871095733737
  0
LINE
  8
_2-0_
  6
CONTINUOUS
 62
    7
 10
2668.6538198191652
 20
1335.3570836781205
 11
2656.570638739031
 21
1307.8980826951151
  0
LINE
  8
_2-0_
  6
CONTINUOUS
 62
    7
 10
2668.6538198191652
 20
1335.3570836781205
 11
2644.459977553739
 21
1317.618481804363
  0
LINE
  8
_2-0_
  6
CONTINUOUS
 62
    7
 10
992.74335158420718
 20
1523.4357745857228
 11
1794.176207878867
 21
1523.4357745857228
  0
LINE
  8
_2-0_
  6
CONTINUOUS
 62
    7
 10
1891.3403869833435
 20
1523.4357745857228
 11
2169.3353913852025
 21
1523.4357745857228
  0
LINE
  8
_2-0_
  6
CONTINUOUS
 62
    7
 10
1794.1762078788665
 20
1410.5809642751358
 11
1794.1762078788665
 21
1580.8984611528867
  0
LINE
  8
_2-0_
  6
CONTINUOUS
 62
    7
 10
1891.3403869833444
 20
1580.8984611528867
 11
1891.3403869833444
 21
1410.5809642751358
  0
LINE
  8
_2-0_
  6
CONTINUOUS
 62
    7
 10
1794.1762078788665
 20
1410.5809642751358
 11
1891.3403869833444
 21
1410.5809642751358
  0
LINE
  8
_2-0_
  6
CONTINUOUS
 62
    7
 10
1876.866757844027
 20
1440.2302314044223
 11
2083.7324294858181
 21
1311.7227687178547
  0
LINE
  8
_2-0_
  6
CONTINUOUS
 62
    7
 10
1876.866757844027
 20
1440.2302314044223
 11
1905.5789089818174
 21
1431.5346936383798
  0
LINE
  8
_2-0_
  6
CONTINUOUS
 62
    7
 10
1876.866757844027
 20
1440.2302314044223
 11
1897.384441243631
 21
1418.3435992305674
  0
TEXT
  8
_2-0_
 62
    7
 10
1239.4000884758814
 20
1291.4764866631954
 40
64
 41
1
 50
0
  1
4
  0
TEXT
  8
_2-0_
 62
    7
 10
2085.6687451922994
 20
1275.8048448721506
 40
64
 41
1
 50
0
  1
5
  0
LINE
  8
_2-0_
  6
CONTINUOUS
 62
    7
 10
913.34036650958024
 20
1679.0884269617031
 11
992.74335158420718
 21
1679.0884269617031
  0
LINE
  8
_2-0_
  6
CONTINUOUS
 62
    7
 10
843.68862521604797
 20
1745.954098603494
 11
992.74335158420718
 21
1745.954098603494
  0
LINE
  8
_2-0_
  6
CONTINUOUS
 62
    7
 10
2169.3353913852025
 20
1755.6442648529764
 11
2317.3513778943711
 21
1755.6442648529764
  0
LINE
  8
_2-0_
  6
CONTINUOUS
 62
    7
 10
2318.3901177533617
 20
1575.4840056526104
 11
2576.7400348346223
 21
1760.6347795608472
  0
LINE
  8
_2-0_
  6
CONTINUOUS
 62
    7
 10
2318.3901177533617
 20
1559.0123899656132
 11
2576.7400348346223
 21
1707.563592287338
  0
LINE
  8
_2-0_
  6
CONTINUOUS
 62
    7
 10
2318.3901177533617
 20
1528.8502300859991
 11
2576.7400348346223
 21
1343.6994561777622
  0
LINE
  8
_2-0_
  6
CONTINUOUS
 62
    7
 10
2318.3901177533617
 20
1545.3218457729959
 11
2576.7400348346223
 21
1396.7706434512713
  0
LINE
  8
_2-0_
  6
CONTINUOUS
 62
    7
 10
843.68862521604797
 20
1543.1582166431322
 11
549.48464511654515
 21
1424.6299944447715
  0
TEXT
  8
_2-0_
 62
    7
 10
889.46670403396956
 20
1704.7012398595659
 40
40
 41
1
 50
0
  1
20
  0
TEXT
  8
_2-0_
 62
    7
 10
930.212972690686
 20
1629.4773592625506
 40
40
 41
1
 50
0
  1
10
  0
TEXT
  8
_2-0_
 62
    7
 10
2227.8249129891938
 20
1710.969896575984
 40
40
 41
1
 50
0
  1
20
  0
TEXT
  8
_2-0_
 62
    7
 10
2183.9443159742682
 20
1632.6116876207598
 40
40
 41
1
 50
0
  1
10
  0
TEXT
  8
_2-0_
 62
    7
 10
2425.8652283875103
 20
1691.1079985046131
 40
40
 41
1
 50
0
  1
白
  0
TEXT
  8
_2-0_
 62
    7
 10
2458.7756761487044
 20
1587.6751626837176
 40
40
 41
1
 50
0
  1
黒
  0
TEXT
  8
_2-0_
 62
    7
 10
2449.3726910740775
 20
1474.8393417881948
 40
40
 41
1
 50
0
  1
赤
  0
TEXT
  8
_2-0_
 62
    7
 10
2407.0592582382569
 20
1385.5109835792398
 40
40
 41
1
 50
0
  1
緑
  0
LINE
  8
_0-0_
  6
CONTINUOUS
 62
    7
 10
30.037313432835447
 20
2027.3358208955226
 11
30.037313432835447
 21
38.604477611940325
  0
LINE
  8
_0-0_
  6
CONTINUOUS
 62
    7
 10
1230.0373134328354
 20
708.60447761194041
 11
30.037313432835447
 21
708.60447761194041
  0
LINE
  8
_0-0_
  6
CONTINUOUS
 62
    7
 10
1230.0373134328354
 20
708.60447761194041
 11
1230.0373134328354
 21
682.14303482587115
  0
LINE
  8
_0-0_
  6
CONTINUOUS
 62
    7
 10
1230.0373134328354
 20
682.14303482587115
 11
1230.0373134328354
 21
38.604477611940325
  0
LINE
  8
_0-0_
  6
CONTINUOUS
 62
    7
 10
1230.0373134328354
 20
584.05902306648579
 11
30.037313432835447
 21
584.05902306648579
  0
LINE
  8
_0-0_
  6
CONTINUOUS
 62
    7
 10
1230.0373134328354
 20
529.51356852103129
 11
30.037313432835447
 21
529.51356852103129
  0
LINE
  8
_0-0_
  6
CONTINUOUS
 62
    7
 10
1230.0373134328354
 20
474.96811397557678
 11
30.037313432835447
 21
474.96811397557678
  0
LINE
  8
_0-0_
  6
CONTINUOUS
 62
    7
 10
1230.0373134328354
 20
638.60447761194041
 11
30.037313432835447
 21
638.60447761194041
  0
LINE
  8
_0-0_
  6
CONTINUOUS
 62
    7
 10
1230.0373134328354
 20
420.42265943012217
 11
30.037313432835447
 21
420.42265943012217
  0
LINE
  8
_0-0_
  6
CONTINUOUS
 62
    7
 10
1230.0373134328354
 20
365.87720488466761
 11
30.037313432835447
 21
365.87720488466761
  0
LINE
  8
_0-0_
  6
CONTINUOUS
 62
    7
 10
1230.0373134328354
 20
311.33175033921316
 11
30.037313432835447
 21
311.33175033921316
  0
LINE
  8
_0-0_
  6
CONTINUOUS
 62
    7
 10
1230.0373134328354
 20
256.78629579375865
 11
30.037313432835447
 21
256.78629579375865
  0
LINE
  8
_0-0_
  6
CONTINUOUS
 62
    7
 10
1230.0373134328354
 20
202.24084124830412
 11
30.037313432835447
 21
202.24084124830412
  0
LINE
  8
_0-0_
  6
CONTINUOUS
 62
    7
 10
1230.0373134328354
 20
147.69538670284939
 11
30.037313432835447
 21
147.69538670284939
  0
LINE
  8
_0-0_
  6
CONTINUOUS
 62
    7
 10
1230.0373134328354
 20
93.149932157395057
 11
30.037313432835447
 21
93.149932157395057
  0
LINE
  8
_0-0_
  6
CONTINUOUS
 62
    7
 10
1030.0373134328352
 20
708.60447761194041
 11
1030.0373134328352
 21
38.604477611940325
  0
LINE
  8
_0-0_
  6
CONTINUOUS
 62
    7
 10
100.03731343283545
 20
708.60447761194041
 11
100.03731343283545
 21
38.604477611940325
  0
TEXT
  8
_0-0_
 62
    7
 10
55.939054726367431
 20
588.11318407960232
 40
40
 41
1
 50
0
  1
1
  0
TEXT
  8
_0-0_
 62
    7
 10
55.939054726367431
 20
534.82960199005015
 40
40
 41
1
 50
0
  1
2
  0
TEXT
  8
_0-0_
 62
    7
 10
55.939054726367431
 20
481.54601990049787
 40
40
 41
1
 50
0
  1
3
  0
TEXT
  8
_0-0_
 62
    7
 10
52.804726368158271
 20
425.12810945273668
 40
40
 41
1
 50
0
  1
4
  0
TEXT
  8
_0-0_
 62
    7
 10
52.804726368158271
 20
371.8445273631844
 40
40
 41
1
 50
0
  1
5
  0
TEXT
  8
_0-0_
 62
    7
 10
52.804726368158271
 20
318.56094527363234
 40
40
 41
1
 50
0
  1
6
  0
TEXT
  8
_0-0_
 62
    7
 10
49.670398009949309
 20
265.27736318408006
 40
40
 41
1
 50
0
  1
7
  0
TEXT
  8
_0-0_
 62
    7
 10
55.939054726367431
 20
208.85945273631873
 40
40
 41
1
 50
0
  1
8
  0
TEXT
  8
_0-0_
 62
    7
 10
55.939054726367431
 20
155.57587064676648
 40
40
 41
1
 50
0
  1
9
  0
TEXT
  8
_0-0_
 62
    7
 10
40.267412935322625
 20
102.29228855721425
 40
40
 41
1
 50
0
  1
10
  0
TEXT
  8
_0-0_
 62
    7
 10
46.536069651740547
 20
49.008706467662108
 40
40
 41
1
 50
0
  1
11
  0
TEXT
  8
_0-0_
 62
    7
 10
168.77487562189003
 20
650.79975124378143
 40
40
 41
1
 50
0
  1
名称
  0
TEXT
  8
_0-0_
 62
    7
 10
1112.2077114427852
 20
653.93407960199033
 40
40
 41
1
 50
0
  1
数
  0
TEXT
  8
_0-0_
 62
    7
 10
1266.9651741293526
 20
79.046019900497356
 40
40
 41
1
 50
0
  1
装置名称
  0
LINE
  8
_0-0_
  6
CONTINUOUS
 62
    7
 10
1870.667495854063
 20
365.87720488466761
 11
1870.667495854063
 21
147.69538670284939
  0
LINE
  8
_0-0_
  6
CONTINUOUS
 62
    7
 10
1669.1148424543942
 20
365.87720488466761
 11
1669.1148424543942
 21
147.69538670284939
  0
LINE
  8
_0-0_
  6
CONTINUOUS
 62
    7
 10
1230.0373134328354
 20
311.33175033921316
 11
2072.2201492537306
 21
311.33175033921316
  0
TEXT
  8
_0-0_
 62
    7
 10
1931.0945273631837
 20
320.04104477611918
 40
40
 41
1
 50
0
  1
Rev
  0
LINE
  8
_0-0_
  6
CONTINUOUS
 62
    7
 10
1870.667495854063
 20
256.78629579375865
 11
2072.2201492537306
 21
256.78629579375865
  0
TEXT
  8
_0-0_
 62
    7
 10
1283.3333333333328
 20
152.87686567164167
 40
40
 41
1
 50
0
  1
/  /  /
  0
TEXT
  8
_0-0_
 62
    7
 10
1492.5207296849085
 20
155.19859038142619
 40
40
 41
1
 50
0
  1
/  /  /
  0
TEXT
  8
_0-0_
 62
    7
 10
1688.9386401326694
 20
156.59162520729683
 40
40
 41
1
 50
0
  1
/  /  /
  0
TEXT
  8
_0-0_
 62
    7
 10
2400.9907083239486
 20
273.48090992226798
 40
64
 41
1
 50
0
  1
SMART DIYs
  0
TEXT
  8
_0-0_
 62
    7
 10
2273.5280217567843
 20
235.86896962376056
 40
30
 41
1
 50
0
  1
makind your idea reality.
  0
LINE
  8
_0-0_
  6
CONTINUOUS
 62
    7
 10
2292.4216099421278
 20
332.54697645965109
 11
2257.9439980018292
 21
276.12906601188979
  0
LINE
  8
_0-0_
  6
CONTINUOUS
 62
    7
 10
2328.2607417009258
 20
276.12906601188979
 11
2292.4216099421278
 21
332.54697645965109
  0
LINE
  8
_0-0_
  6
CONTINUOUS
 62
    7
 10
2331.7953526992319
 20
276.15978679737373
 11
2331.814867889886
 21
276.12906601188979
  0
LINE
  8
_0-0_
  6
CONTINUOUS
 62
    7
 10
2257.9439980018292
 20
276.12906601188979
 11
2328.2607417009258
 21
276.12906601188979
  0
LINE
  8
_0-0_
  6
CONTINUOUS
 62
    7
 10
2331.7765788858806
 20
276.12906601188979
 11
2366.2541908261792
 21
332.54697645965109
  0
LINE
  8
_0-0_
  6
CONTINUOUS
 62
    7
 10
2366.2541908261792
 20
332.54697645965109
 11
2389.4697028161836
 21
332.54697645965109
  0
LINE
  8
_0-0_
  6
CONTINUOUS
 62
    7
 10
2354.992090875885
 20
276.12906601188979
 11
2331.7953526992319
 21
276.12906601188979
  0
LINE
  8
_0-0_
  6
CONTINUOUS
 62
    7
 10
2389.4697028161836
 20
332.54697645965109
 11
2354.992090875885
 21
276.12906601188979
  0
SOLID
  8
_0-0_
  6
CONTINUOUS
 62
    7
 10
2257.9439980018292
 20
276.12906601188979
 11
2328.2607417009258
 21
276.12906601188979
 12
2292.4216099421278
 22
332.54697645965109
 13
2292.4216099421278
 23
332.54697645965109
  0
SOLID
  8
_0-0_
  6
CONTINUOUS
 62
    7
 10
2331.7765788858806
 20
276.12906601188979
 11
2366.2541908261792
 21
332.54697645965109
 12
2331.7953526992319
 22
276.12906601188979
 13
2354.992090875885
 23
276.12906601188979
  0
SOLID
  8
_0-0_
  6
CONTINUOUS
 62
    7
 10
2366.2541908261792
 20
332.54697645965109
 11
2389.4697028161836
 21
332.54697645965109
 12
2354.992090875885
 22
276.12906601188979
 13
2354.992090875885
 23
276.12906601188979
  0
LINE
  8
_0-0_
  6
CONTINUOUS
 62
    7
 10
2298.3451535903941
 20
332.54697645965109
 11
2360.3944621845876
 21
332.54697645965109
  0
LINE
  8
_0-0_
  6
CONTINUOUS
 62
    7
 10
2329.9705279929094
 20
282.76235687326857
 11
2298.3451535903941
 21
332.54697645965109
  0
LINE
  8
_0-0_
  6
CONTINUOUS
 62
    7
 10
2360.3944621845876
 20
332.54697645965109
 11
2329.9705279929094
 21
282.76235687326857
  0
SOLID
  8
_0-0_
  6
CONTINUOUS
 62
    7
 10
2298.3451535903941
 20
332.54697645965109
 11
2360.3944621845876
 21
332.54697645965109
 12
2329.9705279929094
 22
282.76235687326857
 13
2329.9705279929094
 23
282.76235687326857
  0
TEXT
  8
_0-0_
 62
    7
 10
1521.1150864334013
 20
315.96847211132297
 40
40
 41
1
 50
0
  1
確認
  0
TEXT
  8
_0-0_
 62
    7
 10
1719.6225491199689
 20
315.96847211132297
 40
40
 41
1
 50
0
  1
承認
  0
LINE
  8
_0-0_
  6
CONTINUOUS
 62
    7
 10
388.65671641791062
 20
707.26119402985069
 11
388.65671641791062
 21
38.604477611940325
  0
LINE
  8
_0-0_
  6
CONTINUOUS
 62
    7
 10
2604.6268656716416
 20
202.24084124830412
 11
2604.6268656716416
 21
38.604477611940325
  0
LINE
  8
_0-0_
  6
CONTINUOUS
 62
    7
 10
2717.4626865671644
 20
145.05555555555571
 11
2717.4626865671644
 21
38.604477611940325
  0
TEXT
  8
_0-0_
 62
    7
 10
2638.28861174744
 20
76.349529596342848
 40
40
 41
1
 50
0
  1
頁
  0
LINE
  8
_0-0_
  6
CONTINUOUS
 62
    7
 10
1467.5621890547259
 20
450.60366377986566
 11
1467.5621890547259
 21
38.604477611940325
  0
LINE
  8
_0-0_
  6
CONTINUOUS
 62
    7
 10
2072.2201492537306
 20
450.60366377986566
 11
2072.2201492537306
 21
38.604477611940325
  0
TEXT
  8
_0-0_
 62
    7
 10
1296.204394693201
 20
318.96187273508951
 40
40
 41
1
 50
0
  1
設計
  0
TEXT
  8
_0-0_
 62
    7
 10
1243.9655887230517
 20
385.82754437688061
 40
40
 41
1
 50
0
  1
ハーネス名
  0
TEXT
  8
_0-0_
 62
    7
 10
2416.2043946932008
 20
392.09620109329853
 40
40
 41
1
 50
0
  1
会社名
  0
LINE
  8
_0-0_
  6
CONTINUOUS
 62
    7
 10
30.037313432835447
 20
2027.3358208955226
 11
2695.8899944720838
 21
2027.3358208955226
  0
LINE
  8
_0-0_
  6
CONTINUOUS
 62
    7
 10
2695.8899944720838
 20
2027.3358208955226
 11
2879.248203427308
 21
2027.3358208955226
  0
LINE
  8
_0-0_
  6
CONTINUOUS
 62
    7
 10
2879.248203427308
 20
2027.3358208955226
 11
2879.248203427308
 21
1897.1741293532334
  0
LINE
  8
_0-0_
  6
CONTINUOUS
 62
    7
 10
2879.248203427308
 20
38.604477611940325
 11
30.037313432835447
 21
38.604477611940325
  0
LINE
  8
_0-0_
  6
CONTINUOUS
 62
    7
 10
2879.248203427308
 20
1897.1741293532334
 11
2879.248203427308
 21
38.604477611940325
  0
LINE
  8
_0-0_
  6
CONTINUOUS
 62
    7
 10
1230.0373134328354
 20
450.60366377986566
 11
2879.248203427308
 21
450.60366377986566
  0
LINE
  8
_0-0_
  6
CONTINUOUS
 62
    7
 10
1230.0373134328354
 20
365.87720488466761
 11
2879.248203427308
 21
365.87720488466761
  0
LINE
  8
_0-0_
  6
CONTINUOUS
 62
    7
 10
1230.0373134328354
 20
147.69538670284939
 11
2879.248203427308
 21
147.69538670284939
  0
LINE
  8
_2-0_
  6
CONTINUOUS
 62
    7
 10
843.68862521604797
 20
1620.5550102764146
 11
843.68862521604797
 21
1745.954098603494
  0
LINE
  8
_2-0_
  6
CONTINUOUS
 62
    7
 10
992.74335158420718
 20
1523.4357745857228
 11
992.74335158420718
 21
1580.8984611528867
  0
LINE
  8
_2-0_
  6
CONTINUOUS
 62
    7
 10
913.34036650958024
 20
1620.5550102764146
 11
913.34036650958024
 21
1679.0884269617031
  0
LINE
  8
_0-0_
  6
CONTINUOUS
 62
    7
 10
992.74335158420718
 20
1580.8984611528867
 11
913.34036650958024
 21
1580.8984611528867
  0
LINE
  8
_0-0_
  6
CONTINUOUS
 62
    7
 10
992.74335158420718
 20
1523.4357745857228
 11
913.34036650958024
 21
1523.4357745857228
  0
LINE
  8
_2-0_
  6
CONTINUOUS
 62
    7
 10
913.34036650958024
 20
1574.0468940061237
 11
913.34036650958024
 21
1580.8984611528867
  0
LINE
  8
_2-0_
  6
CONTINUOUS
 62
    7
 10
913.34036650958024
 20
1523.4357745857228
 11
913.34036650958024
 21
1531.5251877018582
  0
LINE
  8
_2-0_
  6
CONTINUOUS
 62
    7
 10
843.68862521604797
 20
1531.5251877018582
 11
843.68862521604797
 21
1574.0468940061237
  0
LINE
  8
_0-0_
  6
CONTINUOUS
 62
    7
 10
843.68862521604797
 20
1574.0468940061237
 11
913.34036650958024
 21
1574.0468940061237
  0
LINE
  8
_0-0_
  6
CONTINUOUS
 62
    7
 10
913.34036650958024
 20
1531.5251877018582
 11
843.68862521604797
 21
1531.5251877018582
  0
LINE
  8
_0-0_
  6
CONTINUOUS
 62
    7
 10
549.48464511654515
 20
1712.0665040541107
 11
843.68862521604797
 21
1561.1760190954774
  0
LINE
  8
_0-0_
  6
CONTINUOUS
 62
    7
 10
549.48464511654515
 20
1392.2677316844986
 11
843.68862521604797
 21
1543.1582166431322
  0
LINE
  8
_0-0_
  6
CONTINUOUS
 62
    7
 10
963.98628092455351
 20
1523.4357745857233
 11
992.74335158420536
 21
1552.1928452453753
  0
LINE
  8
_0-0_
  6
CONTINUOUS
 62
    7
 10
843.68862521604569
 20
1544.5594751145127
 11
873.17604410765807
 21
1574.0468940061251
  0
LINE
  8
_0-0_
  6
CONTINUOUS
 62
    7
 10
992.27055217201973
 20
1523.435774585723
 11
992.74335158420672
 21
1523.90857399791
  0
LINE
  8
_0-0_
  6
CONTINUOUS
 62
    7
 10
978.12841654828674
 20
1523.4357745857233
 11
992.74335158420593
 21
1538.0507096216427
  0
LINE
  8
_0-0_
  6
CONTINUOUS
 62
    7
 10
963.98628092455351
 20
1523.4357745857233
 11
992.74335158420536
 21
1552.1928452453753
  0
LINE
  8
_0-0_
  6
CONTINUOUS
 62
    7
 10
949.84414530082063
 20
1523.4357745857239
 11
992.74335158420467
 21
1566.3349808691078
  0
LINE
  8
_0-0_
  6
CONTINUOUS
 62
    7
 10
935.7020096770874
 20
1523.4357745857239
 11
992.74335158420411
 21
1580.4771164928407
  0
LINE
  8
_0-0_
  6
CONTINUOUS
 62
    7
 10
921.55987405337328
 20
1523.4357745857251
 11
979.0225606205355
 21
1580.8984611528874
  0
LINE
  8
_0-0_
  6
CONTINUOUS
 62
    7
 10
913.34036650958285
 20
1529.3584026656681
 11
964.88042499679818
 21
1580.8984611528831
  0
LINE
  8
_0-0_
  6
CONTINUOUS
 62
    7
 10
901.36501592203808
 20
1531.5251877018566
 11
950.73828937306598
 21
1580.8984611528845
  0
LINE
  8
_0-0_
  6
CONTINUOUS
 62
    7
 10
887.22288029830656
 20
1531.5251877018584
 11
936.59615374933401
 21
1580.8984611528854
  0
LINE
  8
_0-0_
  6
CONTINUOUS
 62
    7
 10
873.08074467457243
 20
1531.5251877018577
 11
922.45401812559703
 21
1580.8984611528822
  0
LINE
  8
_0-0_
  6
CONTINUOUS
 62
    7
 10
858.93860905083773
 20
1531.5251877018563
 11
901.46031535510201
 21
1574.0468940061205
  0
LINE
  8
_0-0_
  6
CONTINUOUS
 62
    7
 10
844.79647342710587
 20
1531.5251877018577
 11
887.31817973137026
 21
1574.0468940061219
  0
LINE
  8
_0-0_
  6
CONTINUOUS
 62
    7
 10
843.68862521604569
 20
1544.5594751145127
 11
873.17604410765807
 21
1574.0468940061251
  0
LINE
  8
_0-0_
  6
CONTINUOUS
 62
    7
 10
843.6886252160466
 20
1558.7016107382469
 11
859.03390848392633
 21
1574.0468940061269
  0
LINE
  8
_0-0_
  6
CONTINUOUS
 62
    7
 10
843.68862521604365
 20
1572.8437463619775
 11
844.89177286019469
 21
1574.0468940061282
  0
LINE
  8
_2-0_
  6
CONTINUOUS
 62
    7
 10
2169.3353913852025
 20
1523.4357745857228
 11
2169.3353913852025
 21
1580.8984611528867
  0
LINE
  8
_0-0_
  6
CONTINUOUS
 62
    7
 10
2169.3353913852025
 20
1580.8984611528867
 11
2248.7383764598294
 21
1580.8984611528867
  0
LINE
  8
_0-0_
  6
CONTINUOUS
 62
    7
 10
2169.3353913852025
 20
1523.4357745857228
 11
2248.7383764598294
 21
1523.4357745857228
  0
LINE
  8
_2-0_
  6
CONTINUOUS
 62
    7
 10
2248.7383764598294
 20
1574.0468940061237
 11
2248.7383764598294
 21
1580.8984611528867
  0
LINE
  8
_2-0_
  6
CONTINUOUS
 62
    7
 10
2248.7383764598294
 20
1523.4357745857228
 11
2248.7383764598294
 21
1531.5251877018582
  0
LINE
  8
_2-0_
  6
CONTINUOUS
 62
    7
 10
2318.3901177533617
 20
1531.5251877018582
 11
2318.3901177533617
 21
1574.0468940061237
  0
LINE
  8
_0-0_
  6
CONTINUOUS
 62
    7
 10
2318.3901177533617
 20
1574.0468940061237
 11
2248.7383764598294
 21
1574.0468940061237
  0
LINE
  8
_0-0_
  6
CONTINUOUS
 62
    7
 10
2248.7383764598294
 20
1531.5251877018582
 11
2318.3901177533617
 21
1531.5251877018582
  0
LINE
  8
_0-0_
  6
CONTINUOUS
 62
    7
 10
2198.0924620448563
 20
1523.4357745857233
 11
2169.3353913852043
 21
1552.1928452453753
  0
LINE
  8
_0-0_
  6
CONTINUOUS
 62
    7
 10
2318.3901177533644
 20
1544.5594751145127
 11
2288.9026988617516
 21
1574.0468940061251
  0
LINE
  8
_0-0_
  6
CONTINUOUS
 62
    7
 10
2169.8081907973897
 20
1523.435774585723
 11
2169.3353913852029
 21
1523.90857399791
  0
LINE
  8
_0-0_
  6
CONTINUOUS
 62
    7
 10
2183.9503264211235
 20
1523.4357745857233
 11
2169.3353913852034
 21
1538.0507096216427
  0
LINE
  8
_0-0_
  6
CONTINUOUS
 62
    7
 10
2198.0924620448563
 20
1523.4357745857233
 11
2169.3353913852043
 21
1552.1928452453753
  0
LINE
  8
_0-0_
  6
CONTINUOUS
 62
    7
 10
2212.2345976685892
 20
1523.4357745857239
 11
2169.3353913852052
 21
1566.3349808691078
  0
LINE
  8
_0-0_
  6
CONTINUOUS
 62
    7
 10
2226.3767332923226
 20
1523.4357745857239
 11
2169.3353913852052
 21
1580.4771164928407
  0
LINE
  8
_0-0_
  6
CONTINUOUS
 62
    7
 10
2240.5188689160368
 20
1523.4357745857251
 11
2183.0561823488742
 21
1580.8984611528874
  0
LINE
  8
_0-0_
  6
CONTINUOUS
 62
    7
 10
2248.7383764598271
 20
1529.3584026656681
 11
2197.1983179726117
 21
1580.8984611528831
  0
LINE
  8
_0-0_
  6
CONTINUOUS
 62
    7
 10
2260.7137270473713
 20
1531.5251877018566
 11
2211.3404535963437
 21
1580.8984611528845
  0
LINE
  8
_0-0_
  6
CONTINUOUS
 62
    7
 10
2274.8558626711033
 20
1531.5251877018584
 11
2225.4825892200761
 21
1580.8984611528854
  0
LINE
  8
_0-0_
  6
CONTINUOUS
 62
    7
 10
2288.9979982948371
 20
1531.5251877018577
 11
2239.6247248438126
 21
1580.8984611528822
  0
LINE
  8
_0-0_
  6
CONTINUOUS
 62
    7
 10
2303.1401339185722
 20
1531.5251877018563
 11
2260.6184276143076
 21
1574.0468940061205
  0
LINE
  8
_0-0_
  6
CONTINUOUS
 62
    7
 10
2317.2822695423038
 20
1531.5251877018577
 11
2274.7605632380396
 21
1574.0468940061219
  0
LINE
  8
_0-0_
  6
CONTINUOUS
 62
    7
 10
2318.3901177533644
 20
1544.5594751145127
 11
2288.9026988617516
 21
1574.0468940061251
  0
LINE
  8
_0-0_
  6
CONTINUOUS
 62
    7
 10
2318.390117753363
 20
1558.7016107382469
 11
2303.044834485484
 21
1574.0468940061269
  0
LINE
  8
_0-0_
  6
CONTINUOUS
 62
    7
 10
2318.3901177533662
 20
1572.8437463619775
 11
2317.1869701092151
 21
1574.0468940061282
  0
LINE
  8
_2-0_
  6
CONTINUOUS
 62
    7
 10
992.74335158420718
 20
1620.5550102764146
 11
992.74335158420718
 21
1797.6705165139417
  0
TEXT
  8
_2-0_
 62
    7
 10
716.96588859527628
 20
1754.50576737553
 40
40
 41
1
 50
0
  1
65
  0
LINE
  8
_2-0_
  6
CONTINUOUS
 62
    7
 10
549.48464511654515
 20
1730.8238342872155
 11
549.48464511654515
 21
1655.5999536902004
  0
LINE
  8
_2-0_
  6
CONTINUOUS
 62
    7
 10
549.48464511654515
 20
1797.6705165139417
 11
992.74335158420718
 21
1797.6705165139417
  0
LINE
  8
_2-0_
  6
CONTINUOUS
 62
    7
 10
549.48464511654515
 20
1928.7899194990164
 11
549.48464511654515
 21
1751.5159599010112
  0
LINE
  8
_2-0_
  6
CONTINUOUS
 62
    7
 10
2169.3353913852025
 20
1677.63431460422
 11
2248.7383764598294
 21
1677.63431460422
  0
LINE
  8
_2-0_
  6
CONTINUOUS
 62
    7
 10
2169.3353913852025
 20
1837.8943971109568
 11
2576.7400348346223
 21
1837.8943971109568
  0
TEXT
  8
_2-0_
 62
    7
 10
2378.2726741832234
 20
1789.3281055312077
 40
40
 41
1
 50
0
  1
40
  0
LINE
  8
_2-0_
  6
CONTINUOUS
 62
    7
 10
2576.7400348346223
 20
1812.807013128644
 11
2576.7400348346223
 21
1928.7899194990164
  0
LINE
  8
_2-0_
  6
CONTINUOUS
 62
    7
 10
2317.3513778943711
 20
1629.9304559372511
 11
2317.3513778943711
 21
1755.6442648529764
  0
LINE
  8
_2-0_
  6
CONTINUOUS
 62
    7
 10
2248.7383764598294
 20
1629.9304559372511
 11
2248.7383764598294
 21
1677.63431460422
  0
LINE
  8
_2-0_
  6
CONTINUOUS
 62
    7
 10
2169.3353913852025
 20
1629.9304559372511
 11
2169.3353913852025
 21
1837.8943971109568
  0
TEXT
  8
_2-0_
 62
    7
 10
1725.2209839982693
 20
1335.3570836781209
 40
64
 41
1
 50
0
  1
1
  0
TEXT
  8
_0-0_
 62
    7
 10
470.86736084895654
 20
653.49359297009369
 40
40
 41
1
 50
0
  1
部材　　規格    長さ　　　
  0
TEXT
  8
_2-0_
 62
    7
 10
388.65671641791062
 20
529.51356852103129
 40
40
 41
1
 50
0
  1
 XHB-2
  0
TEXT
  8
_2-0_
 62
    7
 10
388.65671641791062
 20
474.96811397557678
 40
40
 41
1
 50
0
  1
 SMR-02V-B
  0
TEXT
  8
_2-0_
 62
    7
 10
388.65671641791062
 20
365.87720488466761
 40
40
 41
1
 50
0
  1
 テプラ9mm[FAN]
  0
TEXT
  8
_2-0_
 62
    7
 10
388.65671641791062
 20
420.42265943012217
 40
40
 41
1
 50
0
  1
 8Φ-20mm
  0
TEXT
  8
_2-0_
 62
    7
 10
100.03731343283545
 20
584.05902306648579
 40
40
 41
1
 50
0
  1
 ケーブル
  0
TEXT
  8
_2-0_
 62
    7
 10
100.03731343283545
 20
529.51356852103129
 40
40
 41
1
 50
0
  1
 コネクター
  0
TEXT
  8
_2-0_
 62
    7
 10
100.03731343283545
 20
474.96811397557678
 40
40
 41
1
 50
0
  1
 コネクター
  0
TEXT
  8
_2-0_
 62
    7
 10
100.03731343283545
 20
420.42265943012217
 40
40
 41
1
 50
0
  1
 収縮チューブ
  0
LINE
  8
_0-0_
  6
CONTINUOUS
 62
    7
 10
2552.6142464661698
 20
1322.9301728115431
 11
2534.7734472999882
 21
1298.8115931454031
  0
LINE
  8
_0-0_
  6
CONTINUOUS
 62
    7
 10
2552.6142464661698
 20
1322.9301728115431
 11
2525.1043713313702
 21
1310.9632697005582
  0
TEXT
  8
_2-0_
 62
    7
 10
101.01883310263653
 20
366.0049179984062
 40
40
 41
1
 50
0
  1
 テプラ
  0
TEXT
  8
_0-0_
 62
    7
 10
100.03731343283545
 20
311.33175033921316
 40
40
 41
1
 50
0
  1
 Pin
  0
TEXT
  8
_0-0_
 62
    7
 10
388.65671641791062
 20
311.33175033921316
 40
40
 41
1
 50
0
  1
 BXH-001T-P0.6
  0
TEXT
  8
_0-0_
 62
    7
 10
100.03731343283545
 20
256.78629579375865
 40
40
 41
1
 50
0
  1
 Pin
  0
TEXT
  8
_2-0_
 62
    7
 10
891.93710414831412
 20
1142.9915167149029
 40
64
 41
1
 50
0
  1
3
  0
TEXT
  8
_0-0_
 62
    7
 10
870.07413699089625
 20
1275.8510863638271
 40
64
 41
1
 50
0
  1
7
  0
TEXT
  8
_2-0_
 62
    7
 10
722.35896145295737
 20
1434.497745480475
 40
40
 41
1
 50
0
  1
緑
  0
TEXT
  8
_2-0_
 62
    7
 10
715.63189463529034
 20
1510.7378360807015
 40
40
 41
1
 50
0
  1
赤
  0
TEXT
  8
_2-0_
 62
    7
 10
664.0577156998429
 20
1572.4026152426493
 40
40
 41
1
 50
0
  1
黒
  0
TEXT
  8
_2-0_
 62
    7
 10
664.0577156998429
 20
1659.854483872321
 40
40
 41
1
 50
0
  1
白
  0
LINE
  8
_0-0_
  6
CONTINUOUS
 62
    7
 10
861.38500901807629
 20
1320.1376095801352
 11
577.72702487311585
 21
1387.4082777568055
  0
LINE
  8
_0-0_
  6
CONTINUOUS
 62
    7
 10
577.72702487311585
 20
1387.4082777568055
 11
607.71445682214278
 21
1388.2765663623284
  0
LINE
  8
_0-0_
  6
CONTINUOUS
 62
    7
 10
577.72702487311585
 20
1387.4082777568055
 11
604.13104703799172
 21
1373.1665217724917
  0
TEXT
  8
_0-0_
 62
    7
 10
388.65671641791062
 20
256.78629579375865
 40
40
 41
1
 50
0
  1
 BYM-001T-P0.6S
  0
LINE
  8
_0-0_
  6
CONTINUOUS
 62
    7
 10
1598.0502600562045
 20
619.30304936873495
 11
1748.0502600562045
 21
619.30304936873495
  0
LINE
  8
_0-0_
  6
CONTINUOUS
 62
    7
 10
1748.0502600562045
 20
619.30304936873495
 11
1748.0502600562045
 21
679.30304936873472
  0
LINE
  8
_0-0_
  6
CONTINUOUS
 62
    7
 10
1748.0502600562045
 20
679.30304936873472
 11
1598.0502600562045
 21
679.30304936873472
  0
LINE
  8
_0-0_
  6
CONTINUOUS
 62
    7
 10
1598.0502600562045
 20
679.30304936873472
 11
1598.0502600562045
 21
619.30304936873495
  0
LINE
  8
_0-0_
  6
CONTINUOUS
 62
    7
 10
1598.0502600562045
 20
559.30304936873483
 11
1748.0502600562045
 21
559.30304936873483
  0
LINE
  8
_0-0_
  6
CONTINUOUS
 62
    7
 10
1748.0502600562045
 20
559.30304936873483
 11
1748.0502600562045
 21
619.30304936873495
  0
LINE
  8
_0-0_
  6
CONTINUOUS
 62
    7
 10
1748.0502600562045
 20
619.30304936873495
 11
1598.0502600562045
 21
619.30304936873495
  0
LINE
  8
_0-0_
  6
CONTINUOUS
 62
    7
 10
1598.0502600562045
 20
619.30304936873495
 11
1598.0502600562045
 21
559.30304936873483
  0
LINE
  8
_0-0_
  6
CONTINUOUS
 62
    7
 10
1598.0502600562045
 20
499.30304936873483
 11
1748.0502600562045
 21
499.30304936873483
  0
LINE
  8
_0-0_
  6
CONTINUOUS
 62
    7
 10
1748.0502600562045
 20
499.30304936873483
 11
1748.0502600562045
 21
559.30304936873483
  0
LINE
  8
_0-0_
  6
CONTINUOUS
 62
    7
 10
1748.0502600562045
 20
559.30304936873483
 11
1598.0502600562045
 21
559.30304936873483
  0
LINE
  8
_0-0_
  6
CONTINUOUS
 62
    7
 10
1598.0502600562045
 20
559.30304936873483
 11
1598.0502600562045
 21
499.30304936873483
  0
LINE
  8
_0-0_
  6
CONTINUOUS
 62
    7
 10
2597.0196824797608
 20
619.30304936873495
 11
2747.0196824797608
 21
619.30304936873495
  0
LINE
  8
_0-0_
  6
CONTINUOUS
 62
    7
 10
2747.0196824797608
 20
619.30304936873495
 11
2747.0196824797608
 21
679.30304936873472
  0
LINE
  8
_0-0_
  6
CONTINUOUS
 62
    7
 10
2747.0196824797608
 20
679.30304936873472
 11
2597.0196824797608
 21
679.30304936873472
  0
LINE
  8
_0-0_
  6
CONTINUOUS
 62
    7
 10
2597.0196824797608
 20
679.30304936873472
 11
2597.0196824797608
 21
619.30304936873495
  0
LINE
  8
_0-0_
  6
CONTINUOUS
 62
    7
 10
2597.0196824797608
 20
559.30304936873483
 11
2747.0196824797608
 21
559.30304936873483
  0
LINE
  8
_0-0_
  6
CONTINUOUS
 62
    7
 10
2747.0196824797608
 20
559.30304936873483
 11
2747.0196824797608
 21
619.30304936873495
  0
LINE
  8
_0-0_
  6
CONTINUOUS
 62
    7
 10
2747.0196824797608
 20
619.30304936873495
 11
2597.0196824797608
 21
619.30304936873495
  0
LINE
  8
_0-0_
  6
CONTINUOUS
 62
    7
 10
2597.0196824797608
 20
619.30304936873495
 11
2597.0196824797608
 21
559.30304936873483
  0
LINE
  8
_0-0_
  6
CONTINUOUS
 62
    7
 10
2597.0196824797608
 20
499.30304936873483
 11
2747.0196824797608
 21
499.30304936873483
  0
LINE
  8
_0-0_
  6
CONTINUOUS
 62
    7
 10
2747.0196824797608
 20
499.30304936873483
 11
2747.0196824797608
 21
559.30304936873483
  0
LINE
  8
_0-0_
  6
CONTINUOUS
 62
    7
 10
2747.0196824797608
 20
559.30304936873483
 11
2597.0196824797608
 21
559.30304936873483
  0
LINE
  8
_0-0_
  6
CONTINUOUS
 62
    7
 10
2597.0196824797608
 20
559.30304936873483
 11
2597.0196824797608
 21
499.30304936873483
  0
TEXT
  8
_0-0_
 62
    7
 10
1610.638029025627
 20
629.59750010486164
 40
40
 41
1
 50
0
  1
Pin No.
  0
TEXT
  8
_0-0_
 62
    7
 10
2608.1125477119235
 20
628.28945933475961
 40
40
 41
1
 50
0
  1
Pin No.
  0
LINE
  8
_0-0_
  6
CONTINUOUS
 62
    7
 10
1748.0502600562045
 20
589.30304936873483
 11
2597.0196824797608
 21
589.30304936873483
  0
LINE
  8
_0-0_
  6
CONTINUOUS
 62
    7
 10
1748.0502600562045
 20
529.30304936873483
 11
2597.0196824797608
 21
529.30304936873483
  0
TEXT
  8
_2-0_
 62
    7
 10
388.65671641791062
 20
584.05902306648579
 40
40
 41
1
 50
0
  1
 ULAWM AWG22 4芯
  0
TEXT
  8
_0-0_
 62
    7
 10
1959.4776119402986
 20
262.41873963515752
 40
40
 41
1
 50
0
  1
2
  0
TEXT
  8
_0-0_
 62
    7
 10
1510.5646359583957
 20
55.807578008915243
 40
64
 41
1
 50
0
  1
FABOOL Laser Co2
  0
TEXT
  8
_0-0_
 62
    7
 10
2170.8529645772787
 20
55.318919791522603
 40
70
 41
1
 50
0
  1
2018/05/06
  0
TEXT
  8
_0-0_
 62
    7
 10
2290.8259251802765
 20
154.70773855156676
 40
40
 41
1
 50
0
  1
日付
  0
TEXT
  8
_2-0_
 62
    7
 10
1120.0373134328356
 20
591.33175033921304
 40
40
 41
1
 50
0
  1
1
  0
TEXT
  8
_2-0_
 62
    7
 10
1120.0373134328356
 20
536.78629579375865
 40
40
 41
1
 50
0
  1
2
  0
TEXT
  8
_2-0_
 62
    7
 10
1120.0373134328356
 20
482.24084124830415
 40
40
 41
1
 50
0
  1
2
  0
TEXT
  8
_2-0_
 62
    7
 10
1120.0373134328356
 20
427.69538670284942
 40
40
 41
1
 50
0
  1
2
  0
TEXT
  8
_2-0_
 62
    7
 10
1120.0373134328356
 20
373.14993215739497
 40
40
 41
1
 50
0
  1
1
  0
TEXT
  8
_0-0_
 62
    7
 10
1120.0373134328356
 20
318.60447761194052
 40
40
 41
1
 50
0
  1
4
  0
TEXT
  8
_0-0_
 62
    7
 10
1120.0373134328356
 20
264.05902306648602
 40
40
 41
1
 50
0
  1
4
  0
TEXT
  8
_0-0_
 62
    7
 10
1663.0502600562045
 20
569.30304936873472
 40
40
 41
1
 50
0
  1
1
  0
TEXT
  8
_0-0_
 62
    7
 10
1663.0502600562045
 20
509.30304936873483
 40
40
 41
1
 50
0
  1
2
  0
TEXT
  8
_0-0_
 62
    7
 10
2662.0196824797613
 20
569.30304936873472
 40
40
 41
1
 50
0
  1
1
  0
TEXT
  8
_0-0_
 62
    7
 10
2662.0196824797613
 20
509.30304936873483
 40
40
 41
1
 50
0
  1
2
  0
TEXT
  8
_2-0_
 62
    7
 10
2714.7308703473086
 20
1738.6845308046281
 40
40
 41
1
 50
0
  1
1
  0
TEXT
  8
_2-0_
 62
    7
 10
2714.7308703473086
 20
1372.6646303071157
 40
40
 41
1
 50
0
  1
1
  0
TEXT
  8
_2-0_
 62
    7
 10
2714.7308703473086
 20
1325.6497049339814
 40
40
 41
1
 50
0
  1
2
  0
TEXT
  8
_0-0_
 62
    7
 10
272.34156634841554
 20
1699.0701029439315
 40
40
 41
1
 50
0
  1
1
  0
TEXT
  8
_0-0_
 62
    7
 10
272.34156634841554
 20
1647.3536850334838
 40
40
 41
1
 50
0
  1
2
  0
TEXT
  8
_0-0_
 62
    7
 10
272.34156634841554
 20
1416.9805507051256
 40
40
 41
1
 50
0
  1
1
  0
TEXT
  8
_0-0_
 62
    7
 10
272.34156634841554
 20
1365.2641327946776
 40
40
 41
1
 50
0
  1
2
  0
TEXT
  8
_2-0_
 62
    7
 10
2162.5349712679827
 20
589.30304936873483
 40
40
 41
1
 50
0
  1
Red
  0
TEXT
  8
_2-0_
 62
    7
 10
2142.5349712679827
 20
529.30304936873483
 40
40
 41
1
 50
0
  1
Green
  0
TEXT
  8
_2-0_
 62
    7
 10
2753.348733402006
 20
1741.1845308046281
 40
35
 41
1
 50
0
  1
White
  0
TEXT
  8
_2-0_
 62
    7
 10
2714.7308703473086
 20
1691.6696054314939
 40
40
 41
1
 50
0
  1
2
  0
TEXT
  8
_2-0_
 62
    7
 10
2753.348733402006
 20
1694.1696054314939
 40
35
 41
1
 50
0
  1
Black
  0
TEXT
  8
_2-0_
 62
    7
 10
2753.348733402006
 20
1375.1646303071157
 40
35
 41
1
 50
0
  1
Red
  0
TEXT
  8
_2-0_
 62
    7
 10
2753.348733402006
 20
1328.1497049339814
 40
35
 41
1
 50
0
  1
Green
  0
TEXT
  8
_0-0_
 62
    7
 10
158.14437820621305
 20
1701.5701029439317
 40
35
 41
1
 50
0
  1
White
  0
TEXT
  8
_0-0_
 62
    7
 10
158.14437820621305
 20
1649.8536850334835
 40
35
 41
1
 50
0
  1
Black
  0
TEXT
  8
_0-0_
 62
    7
 10
193.14437820621305
 20
1419.4805507051256
 40
35
 41
1
 50
0
  1
Red
  0
TEXT
  8
_0-0_
 62
    7
 10
158.14437820621305
 20
1367.7641327946776
 40
35
 41
1
 50
0
  1
Green
  0
TEXT
  8
_0-0_
 62
    7
 10
1460.4004865567708
 20
1896.7863449519734
 40
64
 41
1
 50
0
  1
915±15
  0
LINE
  8
_2-0_
  6
CONTINUOUS
 62
    7
 10
549.48464511654515
 20
1928.7899194990164
 11
1414.1918391166878
 21
1928.7899194990164
  0
LINE
  8
_2-0_
  6
CONTINUOUS
 62
    7
 10
2576.7400348346223
 20
1928.7899194990164
 11
1729.0610794653799
 21
1928.7899194990164
  0
LINE
  8
_2-0_
  6
CONTINUOUS
 62
    7
 10
2668.6538198191652
 20
1335.3570836781205
 11
2577.1293138114511
 21
1221.3265516029355
  0
LINE
  8
_0-0_
  6
CONTINUOUS
 62
    7
 10
2462.2025339812085
 20
1250.9896704041546
 11
2552.6142464661698
 21
1322.9301728115431
  0
TEXT
  8
_0-0_
 62
    7
 10
2422.3559113458286
 20
1216.3206129022342
 40
64
 41
1
 50
0
  1
6
  0
TEXT
  8
_2-0_
 62
    7
 10
2544.3982525662518
 20
1176.4534481035626
 40
64
 41
1
 50
0
  1
2
  0
LINE
  8
_0-0_
  6
CONTINUOUS
 62
    7
 10
1598.0502600562045
 20
871.41096206284476
 11
1748.0502600562045
 21
871.41096206284476
  0
LINE
  8
_0-0_
  6
CONTINUOUS
 62
    7
 10
1748.0502600562045
 20
871.41096206284476
 11
1748.0502600562045
 21
931.41096206284487
  0
LINE
  8
_0-0_
  6
CONTINUOUS
 62
    7
 10
1748.0502600562045
 20
931.41096206284487
 11
1598.0502600562045
 21
931.41096206284487
  0
LINE
  8
_0-0_
  6
CONTINUOUS
 62
    7
 10
1598.0502600562045
 20
931.41096206284487
 11
1598.0502600562045
 21
871.41096206284476
  0
LINE
  8
_0-0_
  6
CONTINUOUS
 62
    7
 10
1598.0502600562045
 20
811.41096206284465
 11
1748.0502600562045
 21
811.41096206284465
  0
LINE
  8
_0-0_
  6
CONTINUOUS
 62
    7
 10
1748.0502600562045
 20
811.41096206284465
 11
1748.0502600562045
 21
871.41096206284476
  0
LINE
  8
_0-0_
  6
CONTINUOUS
 62
    7
 10
1748.0502600562045
 20
871.41096206284476
 11
1598.0502600562045
 21
871.41096206284476
  0
LINE
  8
_0-0_
  6
CONTINUOUS
 62
    7
 10
1598.0502600562045
 20
871.41096206284476
 11
1598.0502600562045
 21
811.41096206284465
  0
LINE
  8
_0-0_
  6
CONTINUOUS
 62
    7
 10
1598.0502600562045
 20
931.41096206284487
 11
1748.0502600562045
 21
931.41096206284487
  0
LINE
  8
_0-0_
  6
CONTINUOUS
 62
    7
 10
1748.0502600562045
 20
931.41096206284487
 11
1748.0502600562045
 21
991.41096206284476
  0
LINE
  8
_0-0_
  6
CONTINUOUS
 62
    7
 10
1748.0502600562045
 20
991.41096206284476
 11
1598.0502600562045
 21
991.41096206284476
  0
LINE
  8
_0-0_
  6
CONTINUOUS
 62
    7
 10
1598.0502600562045
 20
991.41096206284476
 11
1598.0502600562045
 21
931.41096206284487
  0
LINE
  8
_0-0_
  6
CONTINUOUS
 62
    7
 10
2597.0196824797608
 20
871.41096206284476
 11
2747.0196824797608
 21
871.41096206284476
  0
LINE
  8
_0-0_
  6
CONTINUOUS
 62
    7
 10
2747.0196824797608
 20
871.41096206284476
 11
2747.0196824797608
 21
931.41096206284487
  0
LINE
  8
_0-0_
  6
CONTINUOUS
 62
    7
 10
2747.0196824797608
 20
931.41096206284487
 11
2597.0196824797608
 21
931.41096206284487
  0
LINE
  8
_0-0_
  6
CONTINUOUS
 62
    7
 10
2597.0196824797608
 20
931.41096206284487
 11
2597.0196824797608
 21
871.41096206284476
  0
LINE
  8
_0-0_
  6
CONTINUOUS
 62
    7
 10
2597.0196824797608
 20
811.41096206284465
 11
2747.0196824797608
 21
811.41096206284465
  0
LINE
  8
_0-0_
  6
CONTINUOUS
 62
    7
 10
2747.0196824797608
 20
811.41096206284465
 11
2747.0196824797608
 21
871.41096206284476
  0
LINE
  8
_0-0_
  6
CONTINUOUS
 62
    7
 10
2747.0196824797608
 20
871.41096206284476
 11
2597.0196824797608
 21
871.41096206284476
  0
LINE
  8
_0-0_
  6
CONTINUOUS
 62
    7
 10
2597.0196824797608
 20
871.41096206284476
 11
2597.0196824797608
 21
811.41096206284465
  0
LINE
  8
_0-0_
  6
CONTINUOUS
 62
    7
 10
2597.0196824797608
 20
931.41096206284487
 11
2747.0196824797608
 21
931.41096206284487
  0
LINE
  8
_0-0_
  6
CONTINUOUS
 62
    7
 10
2747.0196824797608
 20
931.41096206284487
 11
2747.0196824797608
 21
991.41096206284476
  0
LINE
  8
_0-0_
  6
CONTINUOUS
 62
    7
 10
2747.0196824797608
 20
991.41096206284476
 11
2597.0196824797608
 21
991.41096206284476
  0
LINE
  8
_0-0_
  6
CONTINUOUS
 62
    7
 10
2597.0196824797608
 20
991.41096206284476
 11
2597.0196824797608
 21
931.41096206284487
  0
TEXT
  8
_2-0_
 62
    7
 10
1591.2042804412556
 20
997.64539014891488
 40
40
 41
1
 50
0
  1
SMR-02-V
  0
TEXT
  8
_0-0_
 62
    7
 10
1609.8905771569976
 20
939.34414439580064
 40
40
 41
1
 50
0
  1
Pin No.
  0
TEXT
  8
_2-0_
 62
    7
 10
2614.839614529591
 20
1000.0746087219612
 40
40
 41
1
 50
0
  1
XHB-2
  0
TEXT
  8
_0-0_
 62
    7
 10
2606.9913699089793
 20
940.65218516590244
 40
40
 41
1
 50
0
  1
Pin No.
  0
LINE
  8
_0-0_
  6
CONTINUOUS
 62
    7
 10
1748.0502600562045
 20
901.41096206284476
 11
2597.0196824797608
 21
901.41096206284476
  0
LINE
  8
_0-0_
  6
CONTINUOUS
 62
    7
 10
2597.0196824797608
 20
841.41096206284487
 11
1748.0502600562045
 21
841.41096206284487
  0
TEXT
  8
_0-0_
 62
    7
 10
1663.0502600562045
 20
881.41096206284465
 40
40
 41
1
 50
0
  1
1
  0
TEXT
  8
_0-0_
 62
    7
 10
1663.0502600562045
 20
821.41096206284487
 40
40
 41
1
 50
0
  1
2
  0
TEXT
  8
_0-0_
 62
    7
 10
2662.0196824797613
 20
881.41096206284465
 40
40
 41
1
 50
0
  1
1
  0
TEXT
  8
_0-0_
 62
    7
 10
2662.0196824797613
 20
821.41096206284487
 40
40
 41
1
 50
0
  1
2
  0
TEXT
  8
_2-0_
 62
    7
 10
2142.5349712679827
 20
901.41096206284476
 40
40
 41
1
 50
0
  1
White
  0
TEXT
  8
_2-0_
 62
    7
 10
2142.5349712679827
 20
841.41096206284487
 40
40
 41
1
 50
0
  1
Black
  0
TEXT
  8
_2-0_
 62
    7
 10
2042.7965506152345
 20
703.03086611933668
 40
40
 41
1
 50
0
  1
ULAWM AWG22 4芯
  0
TEXT
  8
_0-0_
 62
    7
 10
1531.0655418979245
 20
1071.7948760819768
 40
35
 41
1
 50
0
  1
GDT12025LED 0.3A
  0
TEXT
  8
_0-0_
 62
    7
 10
2578.9189042889579
 20
1071.7948760819768
 40
35
 41
1
 50
0
  1
Control PCB
  0
TEXT
  8
_0-0_
 62
    7
 10
2578.9189042889579
 20
707.60745391510238
 40
35
 41
1
 50
0
  1
Control PCB
  0
TEXT
  8
_0-0_
 62
    7
 10
1566.0655418979245
 20
707.60745391510238
 40
35
 41
1
 50
0
  1
Pump SC-600T
  0
TEXT
  8
_0-0_
 62
    7
 10
1931.7974263179744
 20
210.06973848069751
 40
40
 41
1
 50
0
  1
Ver.
  0
TEXT
  8
_0-0_
 62
    7
 10
1941.4438225538968
 20
154.96811397557661
 40
40
 41
1
 50
0
  1
5.0
  0
TEXT
  8
_0-0_
 62
    7
 10
1639.9328358208954
 20
389.00000000000011
 40
35
 41
1
 50
0
  1
FAN Cable_ver.5.0
  0
TEXT
  8
_2-0_
 62
    7
 10
1832.4657534246576
 20
1570.3841843088419
 40
28
 41
1
 50
-90
  1
FAN Ver.5.0
  0
ENDSEC
  0
EOF
