  0
SECTION
  2
HEADER
  9
$ACADVER
  1
AC1009
  9
$INSBASE
 10
0
 20
0
 30
0
  9
$EXTMIN
 10
0
 20
0
  9
$EXTMAX
 10
2940
 20
2079
  9
$LIMMIN
 10
0
 20
0
  9
$LIMMAX
 10
2940
 20
2079
  9
$LTSCALE
 40
7
  0
ENDSEC
  0
SECTION
  2
TABLES
  0
TABLE
  2
LTYPE
 70
     9
  0
LTYPE
  2
CONTINUOUS
 70
    64
  3
実線
 72
    65
 73
     0
 40
0.0
  0
LTYPE
  2
DASHED1
 70
    64
  3
--  --  --  --  --  --  --  --  
 72
    65
 73
     2
 40
2.5
 49
1.25
 49
-1.25
  0
LTYPE
  2
DASHED2
 70
    64
  3
----    ----    ----    ----    
 72
    65
 73
     2
 40
5.0
 49
2.5
 49
-2.5
  0
LTYPE
  2
DASHED3
 70
    64
  3
------  ------  ------  ------  
 72
    65
 73
     2
 40
5.0
 49
3.75
 49
-1.25
  0
LTYPE
  2
CENTER1
 70
    64
  3
----- - ----- - ----- - ----- - 
 72
    65
 73
     4
 40
10.0
 49
6.25
 49
-1.25
 49
1.25
 49
-1.25
  0
LTYPE
  2
CENTER2
 70
    64
  3
----------  --  ----------  --  
 72
    65
 73
     4
 40
20.0
 49
12.5
 49
-2.5
 49
2.5
 49
-2.5
  0
LTYPE
  2
PHANTOM1
 70
    64
  3
--- - - --- - - --- - - --- - - 
 72
    65
 73
     6
 40
10.0
 49
3.25
 49
-1.25
 49
1.25
 49
-1.25
 49
1.25
 49
-1.25
  0
LTYPE
  2
PHANTOM2
 70
    64
  3
--------  -  -  --------  -  -  
 72
    65
 73
     6
 40
20.0
 49
10.0
 49
-2.5
 49
1.25
 49
-2.5
 49
1.25
 49
-2.5
  0
LTYPE
  2
DOT
 70
    64
  3
-   -   -   -   -   -   -   -   
 72
    65
 73
     2
 40
2.5
 49
0.625
 49
-1.875
  0
LTYPE
  2
DUMMY
 70
    64
  3
ダミー
 72
    65
 73
     0
 40
0.0
  0
LTYPE
  2
RAND1
 70
    64
  3
ランダム線1
 72
    65
 73
     4
 40
10.0
 49
1.0
 49
-2.0
 49
3.0
 49
-4.0
  0
LTYPE
  2
RAND2
 70
    64
  3
ランダム線2
 72
    65
 73
     4
 40
14.0
 49
2.0
 49
-3.0
 49
4.0
 49
-5.0
  0
LTYPE
  2
RAND3
 70
    64
  3
ランダム線3
 72
    65
 73
     4
 40
18.0
 49
3.0
 49
-4.0
 49
5.0
 49
-6.0
  0
LTYPE
  2
RAND4
 70
    64
  3
ランダム線4
 72
    65
 73
     4
 40
22.0
 49
4.0
 49
-5.0
 49
6.0
 49
-7.0
  0
LTYPE
  2
RAND5
 70
    64
  3
ランダム線5
 72
    65
 73
     4
 40
26.0
 49
5.0
 49
-6.0
 49
7.0
 49
-8.0
  0
LTYPE
  2
LONG1
 70
    64
  3
----------  --  ----------  --  
 72
    65
 73
     4
 40
40.0
 49
32.5
 49
-2.5
 49
2.5
 49
-2.5
  0
LTYPE
  2
LONG2
 70
    64
  3
--------  -  -  --------  -  -  
 72
    65
 73
     6
 40
40.0
 49
30.0
 49
-2.5
 49
1.25
 49
-2.5
 49
1.25
 49
-2.5
  0
LTYPE
  2
LONG3
 70
    64
  3
+++++++++++++++..+++++++++++++++
 72
    65
 73
     2
 40
40.0
 49
37.5
 49
-2.5
  0
LTYPE
  2
LONG4
 70
    64
  3
+++++++++++++++..+++++++++++++++
 72
    65
 73
     2
 40
80.0
 49
75.0
 49
-5.0
  0
LTYPE
  2
LONG5
 70
    64
  3
----------  --  ----------  --  
 72
    65
 73
     4
 40
60.0
 49
37.5
 49
-7.5
 49
7.5
 49
-7.5
  0
LTYPE
  2
dashed
 70
   64
  3
-------   -------------   ------
 72
   65
 73
    2
 40
7.5
 49
6
 49
-1.5
  0
LTYPE
  2
dashed_spaced
 70
   64
  3
----        --------        ----
 72
   65
 73
    2
 40
12
 49
6
 49
-6
  0
LTYPE
  2
long_dashed_dotted
 70
   64
  3
------------- --- --------------
 72
   65
 73
    4
 40
15.25
 49
12
 49
-1.5
 49
0.25
 49
-1.5
  0
LTYPE
  2
long_dashed_double-dotted
 70
   64
  3
----------- --- --- ------------
 72
   65
 73
    6
 40
17
 49
12
 49
-1.5
 49
0.25
 49
-1.5
 49
0.25
 49
-1.5
  0
LTYPE
  2
long_dashed_triplicate-dotted
 70
   64
  3
--------- --- --- --- ----------
 72
   65
 73
    8
 40
18.75
 49
12
 49
-1.5
 49
0.25
 49
-1.5
 49
0.25
 49
-1.5
 49
0.25
 49
-1.5
  0
LTYPE
  2
dotted
 70
   64
  3
   -       -       -       -    
 72
   65
 73
    2
 40
1.75
 49
0.25
 49
-1.5
  0
LTYPE
  2
chain
 70
   64
  3
-------------- -- --------------
 72
   65
 73
    4
 40
18.5
 49
12
 49
-1.5
 49
3.5
 49
-1.5
  0
LTYPE
  2
chain_double_dash
 70
   64
  3
------------ -- -- -------------
 72
   65
 73
    6
 40
23.5
 49
12
 49
-1.5
 49
3.5
 49
-1.5
 49
3.5
 49
-1.5
  0
LTYPE
  2
dashed_dotted
 70
   64
  3
-----------     -     ----------
 72
   65
 73
    4
 40
9.25
 49
6
 49
-1.5
 49
0.25
 49
-1.5
  0
LTYPE
  2
double-dashed_dotted
 70
   64
  3
------   -----------   -   -----
 72
   65
 73
    6
 40
16.75
 49
6
 49
-1.5
 49
6
 49
-1.5
 49
0.25
 49
-1.5
  0
LTYPE
  2
dashed_double-dotted
 70
   64
  3
---------    -    -    ---------
 72
   65
 73
    6
 40
11
 49
6
 49
-1.5
 49
0.25
 49
-1.5
 49
0.25
 49
-1.5
  0
LTYPE
  2
double-dashed_double-dotted
 70
   64
  3
-----   ---------   -   -   ----
 72
   65
 73
    8
 40
18.5
 49
6
 49
-1.5
 49
6
 49
-1.5
 49
0.25
 49
-1.5
 49
0.25
 49
-1.5
  0
LTYPE
  2
dashed_triplicate-dotted
 70
   64
  3
-------    -    -    -    ------
 72
   65
 73
    8
 40
12.75
 49
6
 49
-1.5
 49
0.25
 49
-1.5
 49
0.25
 49
-1.5
 49
0.25
 49
-1.5
  0
LTYPE
  2
double-dashed_triplicate-dotted
 70
   64
  3
-----  ---------  -  -  -  -----
 72
   65
 73
   10
 40
20.25
 49
6
 49
-1.5
 49
6
 49
-1.5
 49
0.25
 49
-1.5
 49
0.25
 49
-1.5
 49
0.25
 49
-1.5
  0
LTYPE
  2
undefined
 70
   64
  3
--------------------------------
 72
   65
 73
    0
 40
0
  0
LTYPE
  2
_
 70
   64
  3
                                
 72
   65
 73
    0
 40
0
  0
LTYPE
  2
__18
 70
   64
  3
                                
 72
   65
 73
    0
 40
0
  0
LTYPE
  2
__19
 70
   64
  3
                                
 72
   65
 73
    0
 40
0
  0
LTYPE
  2
__20
 70
   64
  3
                                
 72
   65
 73
    0
 40
0
  0
LTYPE
  2
__21
 70
   64
  3
                                
 72
   65
 73
    0
 40
0
  0
LTYPE
  2
__22
 70
   64
  3
                                
 72
   65
 73
    0
 40
0
  0
LTYPE
  2
__23
 70
   64
  3
                                
 72
   65
 73
    0
 40
0
  0
LTYPE
  2
__24
 70
   64
  3
                                
 72
   65
 73
    0
 40
0
  0
LTYPE
  2
__25
 70
   64
  3
                                
 72
   65
 73
    0
 40
0
  0
LTYPE
  2
__26
 70
   64
  3
                                
 72
   65
 73
    0
 40
0
  0
LTYPE
  2
__27
 70
   64
  3
                                
 72
   65
 73
    0
 40
0
  0
LTYPE
  2
__28
 70
   64
  3
                                
 72
   65
 73
    0
 40
0
  0
LTYPE
  2
__29
 70
   64
  3
                                
 72
   65
 73
    0
 40
0
  0
LTYPE
  2
__30
 70
   64
  3
                                
 72
   65
 73
    0
 40
0
  0
LTYPE
  2
__31
 70
   64
  3
                                
 72
   65
 73
    0
 40
0
  0
LTYPE
  2
__32
 70
   64
  3
                                
 72
   65
 73
    0
 40
0
  0
ENDTAB
  0
TABLE
  2
STYLE
  5
3
100
AcDbSymbolTable
 70
     1
  0
STYLE
  5
10
100
AcDbSymbolTableRecord
100
AcDbTextStyleTableRecord
  2
STANDARD
 70
     0
 40
0.0
 41
1.0
 50
0.0
 71
     0
 42
0.2
  3
txt
  4
bigfont.shx
  0
STYLE
  5
26
100
AcDbSymbolTableRecord
100
AcDbTextStyleTableRecord
  2
TATEGAKI
 70
    68
 40
0.0
 41
1.0
 50
0.0
 71
     0
 42
1.0
  3
txt
  4
bigfont.shx
  0
ENDTAB
  0
TABLE
  2
LAYER
 70
    2
  0
LAYER
  2
_0-0_
 70
   64
 62
    7
  6
CONTINUOUS
  0
LAYER
  2
ADD_LINE
 70
   64
 62
    7
  6
CONTINUOUS
  0
ENDTAB
  0
ENDSEC
  0
SECTION
  2
BLOCKS
  0
ENDSEC
  0
SECTION
  2
ENTITIES
  0
LINE
  8
_0-0_
  6
CONTINUOUS
 62
    7
 10
2011.0552800466744
 20
1397.1711396343833
 11
2018.4945493887635
 21
1368.108151631498
  0
LINE
  8
_0-0_
  6
CONTINUOUS
 62
    7
 10
2011.0552800466744
 20
1397.1711396343833
 11
2032.0293702839608
 21
1375.7214883850465
  0
LINE
  8
_0-0_
  6
CONTINUOUS
 62
    7
 10
2057.8405775962665
 20
1313.9972773239983
 11
2011.0552800466744
 21
1397.1711396343833
  0
LINE
  8
_0-0_
  6
CONTINUOUS
 62
    7
 10
1240.5556198676004
 20
311.82641774517356
 11
40.555619867600171
 21
311.82641774517356
  0
LINE
  8
_0-0_
  6
CONTINUOUS
 62
    7
 10
1240.5556198676004
 20
257.28096319971928
 11
40.555619867600171
 21
257.28096319971928
  0
LINE
  8
_0-0_
  6
CONTINUOUS
 62
    7
 10
1240.5556198676004
 20
202.73550865426455
 11
40.555619867600171
 21
202.73550865426455
  0
LINE
  8
_0-0_
  6
CONTINUOUS
 62
    7
 10
1240.5556198676004
 20
93.644599563355598
 11
40.555619867600171
 21
93.644599563355598
  0
LINE
  8
_0-0_
  6
CONTINUOUS
 62
    7
 10
40.555619867600171
 20
2027.830488301483
 11
40.555619867600171
 21
39.099145017900867
  0
LINE
  8
_0-0_
  6
CONTINUOUS
 62
    7
 10
1240.5556198676004
 20
709.09914501790092
 11
40.555619867600171
 21
709.09914501790092
  0
LINE
  8
_0-0_
  6
CONTINUOUS
 62
    7
 10
1240.5556198676004
 20
709.09914501790092
 11
1240.5556198676004
 21
682.63770223183155
  0
LINE
  8
_0-0_
  6
CONTINUOUS
 62
    7
 10
1240.5556198676004
 20
682.63770223183155
 11
1240.5556198676004
 21
39.099145017900867
  0
LINE
  8
_0-0_
  6
CONTINUOUS
 62
    7
 10
1240.5556198676004
 20
584.55369047244631
 11
40.555619867600171
 21
584.55369047244631
  0
LINE
  8
_0-0_
  6
CONTINUOUS
 62
    7
 10
1240.5556198676004
 20
530.0082359269918
 11
40.555619867600171
 21
530.0082359269918
  0
LINE
  8
_0-0_
  6
CONTINUOUS
 62
    7
 10
1240.5556198676004
 20
475.4627813815373
 11
40.555619867600171
 21
475.4627813815373
  0
LINE
  8
_0-0_
  6
CONTINUOUS
 62
    7
 10
1240.5556198676004
 20
639.09914501790092
 11
40.555619867600171
 21
639.09914501790092
  0
LINE
  8
_0-0_
  6
CONTINUOUS
 62
    7
 10
1240.5556198676004
 20
420.91732683608268
 11
40.555619867600171
 21
420.91732683608268
  0
LINE
  8
_0-0_
  6
CONTINUOUS
 62
    7
 10
1240.5556198676004
 20
366.37187229062829
 11
40.555619867600171
 21
366.37187229062829
  0
LINE
  8
_0-0_
  6
CONTINUOUS
 62
    7
 10
1240.5556198676004
 20
148.19005410880982
 11
40.555619867600171
 21
148.19005410880982
  0
LINE
  8
_0-0_
  6
CONTINUOUS
 62
    7
 10
1040.5556198676002
 20
709.09914501790092
 11
1040.5556198676002
 21
39.099145017900867
  0
LINE
  8
_0-0_
  6
CONTINUOUS
 62
    7
 10
110.55561986760037
 20
709.09914501790092
 11
110.55561986760037
 21
39.099145017900867
  0
TEXT
  8
_0-0_
 62
    7
 10
66.457361161132155
 20
588.60785148556283
 40
40
 41
1
 50
0
  1
1
  0
TEXT
  8
_0-0_
 62
    7
 10
66.457361161132155
 20
535.32426939601066
 40
40
 41
1
 50
0
  1
2
  0
TEXT
  8
_0-0_
 62
    7
 10
66.457361161132155
 20
482.04068730645838
 40
40
 41
1
 50
0
  1
3
  0
TEXT
  8
_0-0_
 62
    7
 10
63.323032802922995
 20
425.62277685869708
 40
40
 41
1
 50
0
  1
4
  0
TEXT
  8
_0-0_
 62
    7
 10
63.323032802922995
 20
372.33919476914502
 40
40
 41
1
 50
0
  1
5
  0
TEXT
  8
_0-0_
 62
    7
 10
63.323032802922995
 20
319.05561267959303
 40
40
 41
1
 50
0
  1
6
  0
TEXT
  8
_0-0_
 62
    7
 10
60.188704444714233
 20
265.77203059004046
 40
40
 41
1
 50
0
  1
7
  0
TEXT
  8
_0-0_
 62
    7
 10
66.457361161132155
 20
209.35412014227927
 40
40
 41
1
 50
0
  1
8
  0
TEXT
  8
_0-0_
 62
    7
 10
66.457361161132155
 20
156.07053805272704
 40
40
 41
1
 50
0
  1
9
  0
TEXT
  8
_0-0_
 62
    7
 10
50.785719370087548
 20
102.78695596317499
 40
40
 41
1
 50
0
  1
10
  0
TEXT
  8
_0-0_
 62
    7
 10
57.054376086505272
 20
49.50337387362265
 40
40
 41
1
 50
0
  1
11
  0
TEXT
  8
_0-0_
 62
    7
 10
179.29318205665476
 20
651.29441864974206
 40
40
 41
1
 50
0
  1
名称
  0
TEXT
  8
_0-0_
 62
    7
 10
1122.72601787755
 20
654.42874700795085
 40
40
 41
1
 50
0
  1
数
  0
TEXT
  8
_0-0_
 62
    7
 10
1277.4834805641174
 20
79.540687306458096
 40
40
 41
1
 50
0
  1
装置名称
  0
LINE
  8
_0-0_
  6
CONTINUOUS
 62
    7
 10
1881.185802288828
 20
366.37187229062829
 11
1881.185802288828
 21
148.19005410880982
  0
LINE
  8
_0-0_
  6
CONTINUOUS
 62
    7
 10
1679.633148889159
 20
366.37187229062829
 11
1679.633148889159
 21
148.19005410880982
  0
LINE
  8
_0-0_
  6
CONTINUOUS
 62
    7
 10
1240.5556198676004
 20
311.82641774517356
 11
2082.7384556884954
 21
311.82641774517356
  0
TEXT
  8
_0-0_
 62
    7
 10
1941.612833797949
 20
320.53571218207981
 40
40
 41
1
 50
0
  1
Rev
  0
LINE
  8
_0-0_
  6
CONTINUOUS
 62
    7
 10
1881.185802288828
 20
257.28096319971928
 11
2082.7384556884954
 21
257.28096319971928
  0
TEXT
  8
_0-0_
 62
    7
 10
1293.8516397680976
 20
153.37153307760218
 40
40
 41
1
 50
0
  1
/  /  /
  0
TEXT
  8
_0-0_
 62
    7
 10
1503.0390361196735
 20
155.6932577873867
 40
40
 41
1
 50
0
  1
/  /  /
  0
TEXT
  8
_0-0_
 62
    7
 10
1699.4569465674342
 20
157.08629261325717
 40
40
 41
1
 50
0
  1
/  /  /
  0
TEXT
  8
_0-0_
 62
    7
 10
2411.5090147587134
 20
273.97557732822844
 40
64
 41
1
 50
0
  1
SMART DIYs
  0
TEXT
  8
_0-0_
 62
    7
 10
2284.046328191549
 20
236.36363702972108
 40
30
 41
1
 50
0
  1
makind your idea reality.
  0
LINE
  8
_0-0_
  6
CONTINUOUS
 62
    7
 10
2302.9399163768931
 20
333.04164386561166
 11
2268.462304436594
 21
276.62373341785013
  0
LINE
  8
_0-0_
  6
CONTINUOUS
 62
    7
 10
2338.7790481356906
 20
276.62373341785013
 11
2302.9399163768931
 21
333.04164386561166
  0
LINE
  8
_0-0_
  6
CONTINUOUS
 62
    7
 10
2342.3136591339967
 20
276.65445420333424
 11
2342.3331743246508
 21
276.62373341785013
  0
LINE
  8
_0-0_
  6
CONTINUOUS
 62
    7
 10
2268.462304436594
 20
276.62373341785013
 11
2338.7790481356906
 21
276.62373341785013
  0
LINE
  8
_0-0_
  6
CONTINUOUS
 62
    7
 10
2342.2948853206453
 20
276.62373341785013
 11
2376.7724972609444
 21
333.04164386561166
  0
LINE
  8
_0-0_
  6
CONTINUOUS
 62
    7
 10
2376.7724972609444
 20
333.04164386561166
 11
2399.9880092509484
 21
333.04164386561166
  0
LINE
  8
_0-0_
  6
CONTINUOUS
 62
    7
 10
2365.5103973106498
 20
276.62373341785013
 11
2342.3136591339967
 21
276.62373341785013
  0
LINE
  8
_0-0_
  6
CONTINUOUS
 62
    7
 10
2399.9880092509484
 20
333.04164386561166
 11
2365.5103973106498
 21
276.62373341785013
  0
SOLID
  8
_0-0_
  6
CONTINUOUS
 62
    7
 10
2268.462304436594
 20
276.62373341785013
 11
2338.7790481356906
 21
276.62373341785013
 12
2302.9399163768931
 22
333.04164386561166
 13
2302.9399163768931
 23
333.04164386561166
  0
SOLID
  8
_0-0_
  6
CONTINUOUS
 62
    7
 10
2342.2948853206453
 20
276.62373341785013
 11
2376.7724972609444
 21
333.04164386561166
 12
2342.3136591339967
 22
276.62373341785013
 13
2365.5103973106498
 23
276.62373341785013
  0
SOLID
  8
_0-0_
  6
CONTINUOUS
 62
    7
 10
2376.7724972609444
 20
333.04164386561166
 11
2399.9880092509484
 21
333.04164386561166
 12
2365.5103973106498
 22
276.62373341785013
 13
2365.5103973106498
 23
276.62373341785013
  0
LINE
  8
_0-0_
  6
CONTINUOUS
 62
    7
 10
2308.8634600251589
 20
333.04164386561166
 11
2370.9127686193524
 21
333.04164386561166
  0
LINE
  8
_0-0_
  6
CONTINUOUS
 62
    7
 10
2340.4888344276742
 20
283.25702427922897
 11
2308.8634600251589
 21
333.04164386561166
  0
LINE
  8
_0-0_
  6
CONTINUOUS
 62
    7
 10
2370.9127686193524
 20
333.04164386561166
 11
2340.4888344276742
 21
283.25702427922897
  0
SOLID
  8
_0-0_
  6
CONTINUOUS
 62
    7
 10
2308.8634600251589
 20
333.04164386561166
 11
2370.9127686193524
 21
333.04164386561166
 12
2340.4888344276742
 22
283.25702427922897
 13
2340.4888344276742
 23
283.25702427922897
  0
LINE
  8
_0-0_
  6
CONTINUOUS
 62
    7
 10
399.17502285267528
 20
707.75586143581131
 11
399.17502285267528
 21
39.099145017900867
  0
LINE
  8
_0-0_
  6
CONTINUOUS
 62
    7
 10
2615.1451721064063
 20
202.73550865426455
 11
2615.1451721064063
 21
39.099145017900867
  0
LINE
  8
_0-0_
  6
CONTINUOUS
 62
    7
 10
2727.9809930019292
 20
145.55022296151614
 11
2727.9809930019292
 21
39.099145017900867
  0
TEXT
  8
_0-0_
 62
    7
 10
2648.8069181822061
 20
76.84419700230319
 40
40
 41
1
 50
0
  1
頁
  0
LINE
  8
_0-0_
  6
CONTINUOUS
 62
    7
 10
1478.0804954894907
 20
451.098331185826
 11
1478.0804954894907
 21
39.099145017900867
  0
LINE
  8
_0-0_
  6
CONTINUOUS
 62
    7
 10
2082.7384556884954
 20
451.098331185826
 11
2082.7384556884954
 21
39.099145017900867
  0
TEXT
  8
_0-0_
 62
    7
 10
1306.7227011279658
 20
319.45654014105014
 40
40
 41
1
 50
0
  1
設計
  0
TEXT
  8
_0-0_
 62
    7
 10
1254.4838951578165
 20
386.32221178284135
 40
40
 41
1
 50
0
  1
ハーネス名
  0
TEXT
  8
_0-0_
 62
    7
 10
2426.7227011279656
 20
392.59086849925893
 40
40
 41
1
 50
0
  1
会社名
  0
LINE
  8
_0-0_
  6
CONTINUOUS
 62
    7
 10
40.555619867600171
 20
2027.830488301483
 11
2706.4083009068486
 21
2027.830488301483
  0
LINE
  8
_0-0_
  6
CONTINUOUS
 62
    7
 10
2706.4083009068486
 20
2027.830488301483
 11
2889.7665098620728
 21
2027.830488301483
  0
LINE
  8
_0-0_
  6
CONTINUOUS
 62
    7
 10
2889.7665098620728
 20
2027.830488301483
 11
2889.7665098620728
 21
1897.6687967591938
  0
LINE
  8
_0-0_
  6
CONTINUOUS
 62
    7
 10
2889.7665098620728
 20
39.099145017900867
 11
40.555619867600171
 21
39.099145017900867
  0
LINE
  8
_0-0_
  6
CONTINUOUS
 62
    7
 10
2889.7665098620728
 20
1897.6687967591938
 11
2889.7665098620728
 21
39.099145017900867
  0
LINE
  8
_0-0_
  6
CONTINUOUS
 62
    7
 10
1240.5556198676004
 20
451.098331185826
 11
2889.7665098620728
 21
451.098331185826
  0
LINE
  8
_0-0_
  6
CONTINUOUS
 62
    7
 10
1240.5556198676004
 20
366.37187229062829
 11
2889.7665098620728
 21
366.37187229062829
  0
LINE
  8
_0-0_
  6
CONTINUOUS
 62
    7
 10
1240.5556198676004
 20
202.73550865426455
 11
2889.7665098620728
 21
202.73550865426455
  0
LINE
  8
_0-0_
  6
CONTINUOUS
 62
    7
 10
1240.5556198676004
 20
148.19005410880982
 11
2889.7665098620728
 21
148.19005410880982
  0
ARC
  8
_0-0_
  6
CONTINUOUS
 62
    7
 10
927.76353617573955
 20
1434.4448793201443
 40
22.500000000000004
 50
90
 51
270
  0
CIRCLE
  8
_0-0_
  6
CONTINUOUS
 62
    7
 10
927.76353617573955
 20
1434.4448793201443
 40
15.000000000000004
  0
LINE
  8
_0-0_
  6
CONTINUOUS
 62
    7
 10
959.56741781865048
 20
1407.9856726250825
 11
992.85122168194903
 21
1335.1773516741164
  0
LINE
  8
_0-0_
  6
CONTINUOUS
 62
    7
 10
959.56741781865048
 20
1407.9856726250825
 11
978.6768899773698
 21
1384.8593224198485
  0
LINE
  8
_0-0_
  6
CONTINUOUS
 62
    7
 10
959.56741781865048
 20
1407.9856726250825
 11
964.55353105839572
 21
1378.4029297711745
  0
LINE
  8
_0-0_
  6
CONTINUOUS
 62
    7
 10
1131.1288356155301
 20
1410.0659103665384
 11
1164.4126394788295
 21
1341.4180648984852
  0
LINE
  8
_0-0_
  6
CONTINUOUS
 62
    7
 10
1131.1288356155301
 20
1410.0659103665384
 11
1150.7577418735423
 21
1387.3787765873633
  0
LINE
  8
_0-0_
  6
CONTINUOUS
 62
    7
 10
1131.1288356155301
 20
1410.0659103665384
 11
1136.7844001938843
 21
1380.6038230457109
  0
TEXT
  8
_0-0_
 62
    7
 10
1531.6333928681661
 20
316.46313951728348
 40
40
 41
1
 50
0
  1
確認
  0
TEXT
  8
_0-0_
 62
    7
 10
480.1887044447144
 20
654.42874700795085
 40
40
 41
1
 50
0
  1
部材　　規格    長さ　　　
  0
TEXT
  8
_0-0_
 62
    7
 10
1723.8331735155662
 20
319.6866684197006
 40
40
 41
1
 50
0
  1
承認
  0
TEXT
  8
_0-0_
 62
    7
 10
123.970612514446
 20
592.71116064058117
 40
40
 41
1
 50
0
  1
ケーブル
  0
TEXT
  8
_0-0_
 62
    7
 10
1124.1026911012054
 20
589.47523526498264
 40
40
 41
1
 50
0
  1
1
  0
TEXT
  8
_0-0_
 62
    7
 10
132.45551341890308
 20
539.7615713730064
 40
40
 41
1
 50
0
  1
圧着端子
  0
ARC
  8
_0-0_
  6
CONTINUOUS
 62
    7
 10
2007.5500107982079
 20
1434.4448793201443
 40
27.000000000000007
 50
270
 51
90
  0
CIRCLE
  8
_0-0_
  6
CONTINUOUS
 62
    7
 10
2007.5500107982079
 20
1434.4448793201443
 40
18.000000000000004
  0
TEXT
  8
_0-0_
 62
    7
 10
1123.8674154025675
 20
482.25865422014749
 40
40
 41
1
 50
0
  1
1
  0
TEXT
  8
_0-0_
 62
    7
 10
1124.7658984830809
 20
537.00194476857234
 40
40
 41
1
 50
0
  1
1
  0
LINE
  8
_0-0_
  6
CONTINUOUS
 62
    7
 10
1974.6334629089729
 20
1456.6032285930246
 11
1923.397527264874
 21
1456.6032285930246
  0
LINE
  8
_0-0_
  6
CONTINUOUS
 62
    7
 10
1923.397527264874
 20
1412.6649929813195
 11
1974.6334629089729
 21
1412.6649929813195
  0
LINE
  8
_0-0_
  6
CONTINUOUS
 62
    7
 10
1974.6334629089729
 20
1412.6649929813195
 11
1974.6334629089729
 21
1456.6032285930246
  0
LINE
  8
_0-0_
  6
CONTINUOUS
 62
    7
 10
2007.5500107982079
 20
1461.4448793201443
 11
1974.6334629089729
 21
1455.2120289448912
  0
LINE
  8
_0-0_
  6
CONTINUOUS
 62
    7
 10
2007.5500107982079
 20
1407.4448793201441
 11
1974.6334629089729
 21
1413.6777296953969
  0
TEXT
  8
_0-0_
 62
    7
 10
2051.6156462585031
 20
1247.4119965446496
 40
70
 41
1
 50
0
  1
3
  0
LINE
  8
_0-0_
  6
CONTINUOUS
 62
    7
 10
952.34599695257225
 20
1454.615154350982
 11
1004.342109683379
 21
1454.615154350982
  0
LINE
  8
_0-0_
  6
CONTINUOUS
 62
    7
 10
1004.342109683379
 20
1413.1094854167418
 11
952.34599695257225
 21
1413.1094854167418
  0
LINE
  8
_0-0_
  6
CONTINUOUS
 62
    7
 10
952.34599695257225
 20
1413.1094854167418
 11
952.34599695257225
 21
1454.615154350982
  0
LINE
  8
_0-0_
  6
CONTINUOUS
 62
    7
 10
1923.397527264874
 20
1438.9448793201441
 11
1004.342109683379
 21
1438.9448793201441
  0
LINE
  8
_0-0_
  6
CONTINUOUS
 62
    7
 10
1923.397527264874
 20
1426.9448793201441
 11
1004.342109683379
 21
1426.9448793201441
  0
LINE
  8
_0-0_
  6
CONTINUOUS
 62
    7
 10
927.76353617573955
 20
1456.9448793201443
 11
952.34599695257225
 21
1452.2901141730486
  0
LINE
  8
_0-0_
  6
CONTINUOUS
 62
    7
 10
927.76353617573955
 20
1411.9448793201445
 11
952.34599695257225
 21
1416.5996444672401
  0
TEXT
  8
_0-0_
 62
    7
 10
990.09362257714872
 20
1271.1554669860604
 40
70
 41
1
 50
0
  1
2
  0
TEXT
  8
_0-0_
 62
    7
 10
1164.515367268531
 20
1281.2966259756595
 40
70
 41
1
 50
0
  1
1
  0
TEXT
  8
_0-0_
 62
    7
 10
131.32712750002923
 20
482.53603222594165
 40
40
 41
1
 50
0
  1
圧着端子
  0
LINE
  8
_0-0_
  6
CONTINUOUS
 62
    7
 10
1004.342109683379
 20
1454.615154350982
 11
1004.342109683379
 21
1413.1094854167418
  0
LINE
  8
_0-0_
  6
CONTINUOUS
 62
    7
 10
1923.397527264874
 20
1456.6032285930246
 11
1923.397527264874
 21
1412.6649929813195
  0
TEXT
  8
_0-0_
 62
    7
 10
938.15847395451203
 20
1524.8020298361457
 40
70
 41
1
 50
0
  1
4
  0
LINE
  8
_0-0_
  6
CONTINUOUS
 62
    7
 10
966.77563109698121
 20
1530.8458873400177
 11
982.27086220483159
 21
1466.9280590201354
  0
LINE
  8
_0-0_
  6
CONTINUOUS
 62
    7
 10
982.27086220483159
 20
1466.9280590201354
 11
967.89769823205211
 21
1493.2607793014054
  0
LINE
  8
_0-0_
  6
CONTINUOUS
 62
    7
 10
982.27086220483159
 20
1466.9280590201354
 11
982.98969721228025
 21
1496.9194457208546
  0
LINE
  8
_0-0_
  6
CONTINUOUS
 62
    7
 10
1004.342109683379
 20
1608.0994069636808
 11
1004.342109683379
 21
1504.1327545447136
  0
LINE
  8
_0-0_
  6
CONTINUOUS
 62
    7
 10
1923.397527264874
 20
1608.0994069636808
 11
1923.397527264874
 21
1504.1327545447136
  0
TEXT
  8
_0-0_
 62
    7
 10
410.75529949436032
 20
541.07453325554275
 40
40
 41
1
 50
0
  1
R1.25-4S
  0
TEXT
  8
_0-0_
 62
    7
 10
406.3003208868144
 20
480.97510696227147
 40
40
 41
1
 50
0
  1
R1.25-5
  0
TEXT
  8
_0-0_
 62
    7
 10
1969.9959183750634
 20
262.91340704111809
 40
40
 41
1
 50
0
  1
2
  0
TEXT
  8
_0-0_
 62
    7
 10
1942.3157327527392
 20
210.56440588665805
 40
40
 41
1
 50
0
  1
Ver.
  0
TEXT
  8
_0-0_
 62
    7
 10
1951.9621289886613
 20
155.46278138153718
 40
40
 41
1
 50
0
  1
5.0
  0
TEXT
  8
_0-0_
 62
    7
 10
2301.3442316150413
 20
155.20240595752742
 40
40
 41
1
 50
0
  1
日付
  0
TEXT
  8
_0-0_
 62
    7
 10
1521.0829423931605
 20
56.302245414875784
 40
64
 41
1
 50
0
  1
FABOOL Laser Co2
  0
TEXT
  8
_0-0_
 62
    7
 10
2181.3712710120435
 20
55.813587197483145
 40
70
 41
1
 50
0
  1
2018/05/06
  0
TEXT
  8
_0-0_
 62
    7
 10
1615.4511422556602
 20
389.49466740596074
 40
35
 41
1
 50
0
  1
Ground-L Cable_ver.5.0
  0
TEXT
  8
_0-0_
 62
    7
 10
1376.1098847531434
 20
1576.9215227892641
 40
57
 41
1
 50
0
  1
220±10
  0
LINE
  8
_0-0_
  6
CONTINUOUS
 62
    7
 10
1004.342109683379
 20
1608.0994069636808
 11
1361.7255603985056
 21
1608.0994069636808
  0
LINE
  8
_0-0_
  6
CONTINUOUS
 62
    7
 10
1588.7243150684931
 20
1608.0994069636808
 11
1923.397527264874
 21
1608.0994069636808
  0
TEXT
  8
_0-0_
 62
    7
 10
411.56108193958221
 20
593.29975366264728
 40
40
 41
1
 50
0
  1
UL1007-18AWG 緑
  0
ENDSEC
  0
EOF
