  0
SECTION
  2
HEADER
  9
$ACADVER
  1
AC1009
  9
$INSBASE
 10
0
 20
0
 30
0
  9
$EXTMIN
 10
0
 20
0
  9
$EXTMAX
 10
2940
 20
2079
  9
$LIMMIN
 10
0
 20
0
  9
$LIMMAX
 10
2940
 20
2079
  9
$LTSCALE
 40
7
  0
ENDSEC
  0
SECTION
  2
TABLES
  0
TABLE
  2
LTYPE
 70
     9
  0
LTYPE
  2
CONTINUOUS
 70
    64
  3
実線
 72
    65
 73
     0
 40
0.0
  0
LTYPE
  2
DASHED1
 70
    64
  3
--  --  --  --  --  --  --  --  
 72
    65
 73
     2
 40
2.5
 49
1.25
 49
-1.25
  0
LTYPE
  2
DASHED2
 70
    64
  3
----    ----    ----    ----    
 72
    65
 73
     2
 40
5.0
 49
2.5
 49
-2.5
  0
LTYPE
  2
DASHED3
 70
    64
  3
------  ------  ------  ------  
 72
    65
 73
     2
 40
5.0
 49
3.75
 49
-1.25
  0
LTYPE
  2
CENTER1
 70
    64
  3
----- - ----- - ----- - ----- - 
 72
    65
 73
     4
 40
10.0
 49
6.25
 49
-1.25
 49
1.25
 49
-1.25
  0
LTYPE
  2
CENTER2
 70
    64
  3
----------  --  ----------  --  
 72
    65
 73
     4
 40
20.0
 49
12.5
 49
-2.5
 49
2.5
 49
-2.5
  0
LTYPE
  2
PHANTOM1
 70
    64
  3
--- - - --- - - --- - - --- - - 
 72
    65
 73
     6
 40
10.0
 49
3.25
 49
-1.25
 49
1.25
 49
-1.25
 49
1.25
 49
-1.25
  0
LTYPE
  2
PHANTOM2
 70
    64
  3
--------  -  -  --------  -  -  
 72
    65
 73
     6
 40
20.0
 49
10.0
 49
-2.5
 49
1.25
 49
-2.5
 49
1.25
 49
-2.5
  0
LTYPE
  2
DOT
 70
    64
  3
-   -   -   -   -   -   -   -   
 72
    65
 73
     2
 40
2.5
 49
0.625
 49
-1.875
  0
LTYPE
  2
DUMMY
 70
    64
  3
ダミー
 72
    65
 73
     0
 40
0.0
  0
LTYPE
  2
RAND1
 70
    64
  3
ランダム線1
 72
    65
 73
     4
 40
10.0
 49
1.0
 49
-2.0
 49
3.0
 49
-4.0
  0
LTYPE
  2
RAND2
 70
    64
  3
ランダム線2
 72
    65
 73
     4
 40
14.0
 49
2.0
 49
-3.0
 49
4.0
 49
-5.0
  0
LTYPE
  2
RAND3
 70
    64
  3
ランダム線3
 72
    65
 73
     4
 40
18.0
 49
3.0
 49
-4.0
 49
5.0
 49
-6.0
  0
LTYPE
  2
RAND4
 70
    64
  3
ランダム線4
 72
    65
 73
     4
 40
22.0
 49
4.0
 49
-5.0
 49
6.0
 49
-7.0
  0
LTYPE
  2
RAND5
 70
    64
  3
ランダム線5
 72
    65
 73
     4
 40
26.0
 49
5.0
 49
-6.0
 49
7.0
 49
-8.0
  0
LTYPE
  2
LONG1
 70
    64
  3
----------  --  ----------  --  
 72
    65
 73
     4
 40
40.0
 49
32.5
 49
-2.5
 49
2.5
 49
-2.5
  0
LTYPE
  2
LONG2
 70
    64
  3
--------  -  -  --------  -  -  
 72
    65
 73
     6
 40
40.0
 49
30.0
 49
-2.5
 49
1.25
 49
-2.5
 49
1.25
 49
-2.5
  0
LTYPE
  2
LONG3
 70
    64
  3
+++++++++++++++..+++++++++++++++
 72
    65
 73
     2
 40
40.0
 49
37.5
 49
-2.5
  0
LTYPE
  2
LONG4
 70
    64
  3
+++++++++++++++..+++++++++++++++
 72
    65
 73
     2
 40
80.0
 49
75.0
 49
-5.0
  0
LTYPE
  2
LONG5
 70
    64
  3
----------  --  ----------  --  
 72
    65
 73
     4
 40
60.0
 49
37.5
 49
-7.5
 49
7.5
 49
-7.5
  0
LTYPE
  2
dashed
 70
   64
  3
-------   -------------   ------
 72
   65
 73
    2
 40
7.5
 49
6
 49
-1.5
  0
LTYPE
  2
dashed_spaced
 70
   64
  3
----        --------        ----
 72
   65
 73
    2
 40
12
 49
6
 49
-6
  0
LTYPE
  2
long_dashed_dotted
 70
   64
  3
------------- --- --------------
 72
   65
 73
    4
 40
15.25
 49
12
 49
-1.5
 49
0.25
 49
-1.5
  0
LTYPE
  2
long_dashed_double-dotted
 70
   64
  3
----------- --- --- ------------
 72
   65
 73
    6
 40
17
 49
12
 49
-1.5
 49
0.25
 49
-1.5
 49
0.25
 49
-1.5
  0
LTYPE
  2
long_dashed_triplicate-dotted
 70
   64
  3
--------- --- --- --- ----------
 72
   65
 73
    8
 40
18.75
 49
12
 49
-1.5
 49
0.25
 49
-1.5
 49
0.25
 49
-1.5
 49
0.25
 49
-1.5
  0
LTYPE
  2
dotted
 70
   64
  3
   -       -       -       -    
 72
   65
 73
    2
 40
1.75
 49
0.25
 49
-1.5
  0
LTYPE
  2
chain
 70
   64
  3
-------------- -- --------------
 72
   65
 73
    4
 40
18.5
 49
12
 49
-1.5
 49
3.5
 49
-1.5
  0
LTYPE
  2
chain_double_dash
 70
   64
  3
------------ -- -- -------------
 72
   65
 73
    6
 40
23.5
 49
12
 49
-1.5
 49
3.5
 49
-1.5
 49
3.5
 49
-1.5
  0
LTYPE
  2
dashed_dotted
 70
   64
  3
-----------     -     ----------
 72
   65
 73
    4
 40
9.25
 49
6
 49
-1.5
 49
0.25
 49
-1.5
  0
LTYPE
  2
double-dashed_dotted
 70
   64
  3
------   -----------   -   -----
 72
   65
 73
    6
 40
16.75
 49
6
 49
-1.5
 49
6
 49
-1.5
 49
0.25
 49
-1.5
  0
LTYPE
  2
dashed_double-dotted
 70
   64
  3
---------    -    -    ---------
 72
   65
 73
    6
 40
11
 49
6
 49
-1.5
 49
0.25
 49
-1.5
 49
0.25
 49
-1.5
  0
LTYPE
  2
double-dashed_double-dotted
 70
   64
  3
-----   ---------   -   -   ----
 72
   65
 73
    8
 40
18.5
 49
6
 49
-1.5
 49
6
 49
-1.5
 49
0.25
 49
-1.5
 49
0.25
 49
-1.5
  0
LTYPE
  2
dashed_triplicate-dotted
 70
   64
  3
-------    -    -    -    ------
 72
   65
 73
    8
 40
12.75
 49
6
 49
-1.5
 49
0.25
 49
-1.5
 49
0.25
 49
-1.5
 49
0.25
 49
-1.5
  0
LTYPE
  2
double-dashed_triplicate-dotted
 70
   64
  3
-----  ---------  -  -  -  -----
 72
   65
 73
   10
 40
20.25
 49
6
 49
-1.5
 49
6
 49
-1.5
 49
0.25
 49
-1.5
 49
0.25
 49
-1.5
 49
0.25
 49
-1.5
  0
LTYPE
  2
undefined
 70
   64
  3
--------------------------------
 72
   65
 73
    0
 40
0
  0
LTYPE
  2
_
 70
   64
  3
                                
 72
   65
 73
    0
 40
0
  0
LTYPE
  2
__18
 70
   64
  3
                                
 72
   65
 73
    0
 40
0
  0
LTYPE
  2
__19
 70
   64
  3
                                
 72
   65
 73
    0
 40
0
  0
LTYPE
  2
__20
 70
   64
  3
                                
 72
   65
 73
    0
 40
0
  0
LTYPE
  2
__21
 70
   64
  3
                                
 72
   65
 73
    0
 40
0
  0
LTYPE
  2
__22
 70
   64
  3
                                
 72
   65
 73
    0
 40
0
  0
LTYPE
  2
__23
 70
   64
  3
                                
 72
   65
 73
    0
 40
0
  0
LTYPE
  2
__24
 70
   64
  3
                                
 72
   65
 73
    0
 40
0
  0
LTYPE
  2
__25
 70
   64
  3
                                
 72
   65
 73
    0
 40
0
  0
LTYPE
  2
__26
 70
   64
  3
                                
 72
   65
 73
    0
 40
0
  0
LTYPE
  2
__27
 70
   64
  3
                                
 72
   65
 73
    0
 40
0
  0
LTYPE
  2
__28
 70
   64
  3
                                
 72
   65
 73
    0
 40
0
  0
LTYPE
  2
__29
 70
   64
  3
                                
 72
   65
 73
    0
 40
0
  0
LTYPE
  2
__30
 70
   64
  3
                                
 72
   65
 73
    0
 40
0
  0
LTYPE
  2
__31
 70
   64
  3
                                
 72
   65
 73
    0
 40
0
  0
LTYPE
  2
__32
 70
   64
  3
                                
 72
   65
 73
    0
 40
0
  0
ENDTAB
  0
TABLE
  2
STYLE
  5
3
100
AcDbSymbolTable
 70
     1
  0
STYLE
  5
10
100
AcDbSymbolTableRecord
100
AcDbTextStyleTableRecord
  2
STANDARD
 70
     0
 40
0.0
 41
1.0
 50
0.0
 71
     0
 42
0.2
  3
txt
  4
bigfont.shx
  0
STYLE
  5
26
100
AcDbSymbolTableRecord
100
AcDbTextStyleTableRecord
  2
TATEGAKI
 70
    68
 40
0.0
 41
1.0
 50
0.0
 71
     0
 42
1.0
  3
txt
  4
bigfont.shx
  0
ENDTAB
  0
TABLE
  2
LAYER
 70
    4
  0
LAYER
  2
_0-0_
 70
   64
 62
    7
  6
CONTINUOUS
  0
LAYER
  2
_1-0_
 70
   64
 62
    7
  6
CONTINUOUS
  0
LAYER
  2
_1-4_
 70
   64
 62
    7
  6
CONTINUOUS
  0
LAYER
  2
ADD_LINE
 70
   64
 62
    7
  6
CONTINUOUS
  0
ENDTAB
  0
ENDSEC
  0
SECTION
  2
BLOCKS
  0
ENDSEC
  0
SECTION
  2
ENTITIES
  0
LINE
  8
_0-0_
  6
CONTINUOUS
 62
    7
 10
1230.0373134328354
 20
311.33175033921316
 11
2072.2201492537306
 21
311.33175033921316
  0
LINE
  8
_1-4_
  6
CONTINUOUS
 62
    7
 10
575.58599060886888
 20
1438.9001638715727
 11
423.00303643387463
 21
1414.3556406540629
  0
LINE
  8
_1-4_
  6
CONTINUOUS
 62
    7
 10
899.8093760112954
 20
1487.1664528606425
 11
2129.5580435105612
 21
1487.1664528606425
  0
LINE
  8
_1-4_
  6
CONTINUOUS
 62
    7
 10
899.8093760112954
 20
1487.1664528606425
 11
899.8093760112954
 21
1407.1664528606425
  0
LINE
  8
_1-4_
  6
CONTINUOUS
 62
    7
 10
649.06310735457873
 20
1473.5166463377018
 11
649.06310735457873
 21
1420.8162593835837
  0
LINE
  8
_1-4_
  6
CONTINUOUS
 62
    7
 10
774.43624168293718
 20
1473.5166463377018
 11
649.06310735457873
 21
1473.5166463377018
  0
LINE
  8
_1-4_
  6
CONTINUOUS
 62
    7
 10
774.43624168293718
 20
1420.8162593835837
 11
649.06310735457873
 21
1420.8162593835837
  0
LINE
  8
_1-4_
  6
CONTINUOUS
 62
    7
 10
774.43624168293718
 20
1487.1664528606425
 11
774.43624168293718
 21
1473.5166463377018
  0
LINE
  8
_1-4_
  6
CONTINUOUS
 62
    7
 10
774.43624168293718
 20
1420.8162593835837
 11
774.43624168293718
 21
1407.1664528606425
  0
LINE
  8
_1-4_
  6
CONTINUOUS
 62
    7
 10
892.98058927048055
 20
1407.1664528606441
 11
899.80937601129426
 21
1413.9952396014578
  0
LINE
  8
_1-4_
  6
CONTINUOUS
 62
    7
 10
878.83845364674835
 20
1407.1664528606452
 11
899.80937601129301
 21
1428.1373752251898
  0
LINE
  8
_1-4_
  6
CONTINUOUS
 62
    7
 10
864.69631802301092
 20
1407.1664528606409
 11
899.80937601129722
 21
1442.2795108489272
  0
LINE
  8
_1-4_
  6
CONTINUOUS
 62
    7
 10
850.5541823992985
 20
1407.1664528606439
 11
899.8093760112946
 21
1456.4216464726401
  0
LINE
  8
_1-4_
  6
CONTINUOUS
 62
    7
 10
836.41204677556084
 20
1407.1664528606398
 11
899.8093760112946
 21
1470.5637820963734
  0
LINE
  8
_1-4_
  6
CONTINUOUS
 62
    7
 10
822.26991115182864
 20
1407.1664528606407
 11
899.80937601129779
 21
1484.7059177201095
  0
LINE
  8
_1-4_
  6
CONTINUOUS
 62
    7
 10
808.12777552809644
 20
1407.1664528606418
 11
888.12777552809621
 21
1487.1664528606416
  0
LINE
  8
_1-4_
  6
CONTINUOUS
 62
    7
 10
793.98563990436423
 20
1407.1664528606429
 11
873.98563990436378
 21
1487.1664528606425
  0
LINE
  8
_1-4_
  6
CONTINUOUS
 62
    7
 10
779.84350428063203
 20
1407.1664528606439
 11
859.84350428063181
 21
1487.1664528606439
  0
LINE
  8
_1-4_
  6
CONTINUOUS
 62
    7
 10
774.43624168293945
 20
1415.9013258866851
 11
845.7013686568971
 21
1487.1664528606425
  0
LINE
  8
_1-4_
  6
CONTINUOUS
 62
    7
 10
765.2090395561039
 20
1420.8162593835823
 11
831.55923303316195
 21
1487.1664528606407
  0
LINE
  8
_1-4_
  6
CONTINUOUS
 62
    7
 10
751.06690393239114
 20
1420.8162593835855
 11
817.41709740944953
 21
1487.1664528606432
  0
LINE
  8
_1-4_
  6
CONTINUOUS
 62
    7
 10
736.92476830865894
 20
1420.8162593835862
 11
803.27496178571687
 21
1487.1664528606443
  0
LINE
  8
_1-4_
  6
CONTINUOUS
 62
    7
 10
722.78263268492185
 20
1420.8162593835823
 11
789.13282616197978
 21
1487.1664528606402
  0
LINE
  8
_1-4_
  6
CONTINUOUS
 62
    7
 10
708.64049706118885
 20
1420.816259383583
 11
761.34088401530585
 21
1473.5166463376995
  0
LINE
  8
_1-4_
  6
CONTINUOUS
 62
    7
 10
774.43624168293832
 20
1486.6120040053324
 11
774.99069053824758
 21
1487.1664528606411
  0
LINE
  8
_1-4_
  6
CONTINUOUS
 62
    7
 10
694.49836143745665
 20
1420.8162593835841
 11
747.19874839157364
 21
1473.5166463377009
  0
LINE
  8
_1-4_
  6
CONTINUOUS
 62
    7
 10
680.35622581372093
 20
1420.8162593835814
 11
733.05661276783997
 21
1473.5166463377002
  0
LINE
  8
_1-4_
  6
CONTINUOUS
 62
    7
 10
666.21409018998736
 20
1420.8162593835814
 11
718.91447714410356
 21
1473.5166463376977
  0
LINE
  8
_1-4_
  6
CONTINUOUS
 62
    7
 10
652.07195456625516
 20
1420.8162593835823
 11
704.77234152037136
 21
1473.5166463376988
  0
LINE
  8
_1-4_
  6
CONTINUOUS
 62
    7
 10
649.06310735457953
 20
1431.9495477956216
 11
690.63020589665382
 21
1473.5166463376959
  0
LINE
  8
_1-4_
  6
CONTINUOUS
 62
    7
 10
649.06310735457987
 20
1446.0916834193556
 11
676.48807027292162
 21
1473.5166463376972
  0
LINE
  8
_1-4_
  6
CONTINUOUS
 62
    7
 10
649.06310735458214
 20
1460.233819043091
 11
662.34593464918942
 21
1473.5166463376981
  0
LINE
  8
_1-4_
  6
CONTINUOUS
 62
    7
 10
822.26991115182864
 20
1407.1664528606407
 11
899.80937601129779
 21
1484.7059177201095
  0
LINE
  8
_1-4_
  6
CONTINUOUS
 62
    7
 10
808.12777552809644
 20
1407.1664528606418
 11
888.12777552809621
 21
1487.1664528606416
  0
LINE
  8
_1-4_
  6
CONTINUOUS
 62
    7
 10
793.98563990436423
 20
1407.1664528606429
 11
873.98563990436378
 21
1487.1664528606425
  0
LINE
  8
_1-4_
  6
CONTINUOUS
 62
    7
 10
779.84350428063203
 20
1407.1664528606439
 11
859.84350428063181
 21
1487.1664528606439
  0
LINE
  8
_1-4_
  6
CONTINUOUS
 62
    7
 10
774.43624168293945
 20
1415.9013258866851
 11
845.7013686568971
 21
1487.1664528606425
  0
LINE
  8
_1-4_
  6
CONTINUOUS
 62
    7
 10
765.2090395561039
 20
1420.8162593835823
 11
831.55923303316195
 21
1487.1664528606407
  0
LINE
  8
_1-4_
  6
CONTINUOUS
 62
    7
 10
751.06690393239114
 20
1420.8162593835855
 11
817.41709740944953
 21
1487.1664528606432
  0
LINE
  8
_1-4_
  6
CONTINUOUS
 62
    7
 10
736.92476830865894
 20
1420.8162593835862
 11
803.27496178571687
 21
1487.1664528606443
  0
LINE
  8
_1-4_
  6
CONTINUOUS
 62
    7
 10
722.78263268492185
 20
1420.8162593835823
 11
789.13282616197978
 21
1487.1664528606402
  0
LINE
  8
_1-4_
  6
CONTINUOUS
 62
    7
 10
708.64049706118885
 20
1420.816259383583
 11
761.34088401530585
 21
1473.5166463376995
  0
LINE
  8
_1-4_
  6
CONTINUOUS
 62
    7
 10
774.43624168293832
 20
1486.6120040053324
 11
774.99069053824758
 21
1487.1664528606411
  0
LINE
  8
_1-4_
  6
CONTINUOUS
 62
    7
 10
694.49836143745665
 20
1420.8162593835841
 11
747.19874839157364
 21
1473.5166463377009
  0
LINE
  8
_1-4_
  6
CONTINUOUS
 62
    7
 10
680.35622581372093
 20
1420.8162593835814
 11
733.05661276783997
 21
1473.5166463377002
  0
LINE
  8
_1-4_
  6
CONTINUOUS
 62
    7
 10
666.21409018998736
 20
1420.8162593835814
 11
718.91447714410356
 21
1473.5166463376977
  0
LINE
  8
_1-4_
  6
CONTINUOUS
 62
    7
 10
652.07195456625516
 20
1420.8162593835823
 11
704.77234152037136
 21
1473.5166463376988
  0
LINE
  8
_1-4_
  6
CONTINUOUS
 62
    7
 10
649.06310735457953
 20
1431.9495477956216
 11
690.63020589665382
 21
1473.5166463376959
  0
LINE
  8
_1-4_
  6
CONTINUOUS
 62
    7
 10
649.06310735457987
 20
1446.0916834193556
 11
676.48807027292162
 21
1473.5166463376972
  0
LINE
  8
_1-4_
  6
CONTINUOUS
 62
    7
 10
649.06310735458214
 20
1460.233819043091
 11
662.34593464918942
 21
1473.5166463376981
  0
LINE
  8
_1-4_
  6
CONTINUOUS
 62
    7
 10
2129.558043510563
 20
1487.1664528606425
 11
2129.558043510563
 21
1407.1664528606425
  0
LINE
  8
_1-4_
  6
CONTINUOUS
 62
    7
 10
2380.3043121672795
 20
1473.5166463377018
 11
2380.3043121672795
 21
1420.8162593835837
  0
LINE
  8
_1-4_
  6
CONTINUOUS
 62
    7
 10
2254.9311778389215
 20
1473.5166463377018
 11
2380.3043121672795
 21
1473.5166463377018
  0
LINE
  8
_1-4_
  6
CONTINUOUS
 62
    7
 10
2254.9311778389215
 20
1420.8162593835837
 11
2380.3043121672795
 21
1420.8162593835837
  0
LINE
  8
_1-4_
  6
CONTINUOUS
 62
    7
 10
2254.9311778389215
 20
1487.1664528606425
 11
2254.9311778389215
 21
1473.5166463377018
  0
LINE
  8
_1-4_
  6
CONTINUOUS
 62
    7
 10
2254.9311778389215
 20
1420.8162593835837
 11
2254.9311778389215
 21
1407.1664528606425
  0
LINE
  8
_1-4_
  6
CONTINUOUS
 62
    7
 10
2136.3868302513783
 20
1407.1664528606441
 11
2129.5580435105639
 21
1413.9952396014578
  0
LINE
  8
_1-4_
  6
CONTINUOUS
 62
    7
 10
2150.5289658751103
 20
1407.1664528606452
 11
2129.5580435105653
 21
1428.1373752251898
  0
LINE
  8
_1-4_
  6
CONTINUOUS
 62
    7
 10
2164.6711014988477
 20
1407.1664528606409
 11
2129.5580435105612
 21
1442.2795108489272
  0
LINE
  8
_1-4_
  6
CONTINUOUS
 62
    7
 10
2178.8132371225602
 20
1407.1664528606439
 11
2129.5580435105639
 21
1456.4216464726401
  0
LINE
  8
_1-4_
  6
CONTINUOUS
 62
    7
 10
2192.9553727462981
 20
1407.1664528606398
 11
2129.5580435105639
 21
1470.5637820963734
  0
LINE
  8
_1-4_
  6
CONTINUOUS
 62
    7
 10
2207.09750837003
 20
1407.1664528606407
 11
2129.5580435105612
 21
1484.7059177201095
  0
LINE
  8
_1-4_
  6
CONTINUOUS
 62
    7
 10
2221.2396439937625
 20
1407.1664528606418
 11
2141.239643993762
 21
1487.1664528606416
  0
LINE
  8
_1-4_
  6
CONTINUOUS
 62
    7
 10
2235.3817796174944
 20
1407.1664528606429
 11
2155.3817796174944
 21
1487.1664528606425
  0
LINE
  8
_1-4_
  6
CONTINUOUS
 62
    7
 10
2249.5239152412269
 20
1407.1664528606439
 11
2169.5239152412269
 21
1487.1664528606439
  0
LINE
  8
_1-4_
  6
CONTINUOUS
 62
    7
 10
2254.9311778389188
 20
1415.9013258866851
 11
2183.6660508649611
 21
1487.1664528606425
  0
LINE
  8
_1-4_
  6
CONTINUOUS
 62
    7
 10
2264.1583799657546
 20
1420.8162593835823
 11
2197.8081864886963
 21
1487.1664528606407
  0
LINE
  8
_1-4_
  6
CONTINUOUS
 62
    7
 10
2278.300515589468
 20
1420.8162593835855
 11
2211.9503221124096
 21
1487.1664528606432
  0
LINE
  8
_1-4_
  6
CONTINUOUS
 62
    7
 10
2292.4426512131995
 20
1420.8162593835862
 11
2226.0924577361411
 21
1487.1664528606443
  0
LINE
  8
_1-4_
  6
CONTINUOUS
 62
    7
 10
2306.5847868369374
 20
1420.8162593835823
 11
2240.234593359879
 21
1487.1664528606402
  0
LINE
  8
_1-4_
  6
CONTINUOUS
 62
    7
 10
2320.7269224606694
 20
1420.816259383583
 11
2268.026535506553
 21
1473.5166463376995
  0
LINE
  8
_1-4_
  6
CONTINUOUS
 62
    7
 10
2254.9311778389201
 20
1486.6120040053324
 11
2254.3767289836114
 21
1487.1664528606411
  0
LINE
  8
_1-4_
  6
CONTINUOUS
 62
    7
 10
2334.8690580844013
 20
1420.8162593835841
 11
2282.168671130285
 21
1473.5166463377009
  0
LINE
  8
_1-4_
  6
CONTINUOUS
 62
    7
 10
2349.0111937081379
 20
1420.8162593835814
 11
2296.3108067540188
 21
1473.5166463377002
  0
LINE
  8
_1-4_
  6
CONTINUOUS
 62
    7
 10
2363.1533293318712
 20
1420.8162593835814
 11
2310.4529423777549
 21
1473.5166463376977
  0
LINE
  8
_1-4_
  6
CONTINUOUS
 62
    7
 10
2377.2954649556032
 20
1420.8162593835823
 11
2324.5950780014869
 21
1473.5166463376988
  0
LINE
  8
_1-4_
  6
CONTINUOUS
 62
    7
 10
2380.3043121672795
 20
1431.9495477956216
 11
2338.7372136252043
 21
1473.5166463376959
  0
LINE
  8
_1-4_
  6
CONTINUOUS
 62
    7
 10
2380.304312167279
 20
1446.0916834193556
 11
2352.8793492489372
 21
1473.5166463376972
  0
LINE
  8
_1-4_
  6
CONTINUOUS
 62
    7
 10
2380.3043121672767
 20
1460.233819043091
 11
2367.0214848726691
 21
1473.5166463376981
  0
LINE
  8
_1-4_
  6
CONTINUOUS
 62
    7
 10
2136.3868302513783
 20
1407.1664528606441
 11
2129.5580435105639
 21
1413.9952396014578
  0
LINE
  8
_1-4_
  6
CONTINUOUS
 62
    7
 10
2150.5289658751103
 20
1407.1664528606452
 11
2129.5580435105653
 21
1428.1373752251898
  0
LINE
  8
_1-4_
  6
CONTINUOUS
 62
    7
 10
2164.6711014988477
 20
1407.1664528606409
 11
2129.5580435105612
 21
1442.2795108489272
  0
LINE
  8
_1-4_
  6
CONTINUOUS
 62
    7
 10
2178.8132371225602
 20
1407.1664528606439
 11
2129.5580435105639
 21
1456.4216464726401
  0
LINE
  8
_1-4_
  6
CONTINUOUS
 62
    7
 10
2192.9553727462981
 20
1407.1664528606398
 11
2129.5580435105639
 21
1470.5637820963734
  0
LINE
  8
_1-4_
  6
CONTINUOUS
 62
    7
 10
2207.09750837003
 20
1407.1664528606407
 11
2129.5580435105612
 21
1484.7059177201095
  0
LINE
  8
_1-4_
  6
CONTINUOUS
 62
    7
 10
2221.2396439937625
 20
1407.1664528606418
 11
2141.239643993762
 21
1487.1664528606416
  0
LINE
  8
_1-4_
  6
CONTINUOUS
 62
    7
 10
2235.3817796174944
 20
1407.1664528606429
 11
2155.3817796174944
 21
1487.1664528606425
  0
LINE
  8
_1-4_
  6
CONTINUOUS
 62
    7
 10
2249.5239152412269
 20
1407.1664528606439
 11
2169.5239152412269
 21
1487.1664528606439
  0
LINE
  8
_1-4_
  6
CONTINUOUS
 62
    7
 10
2254.9311778389188
 20
1415.9013258866851
 11
2183.6660508649611
 21
1487.1664528606425
  0
LINE
  8
_1-4_
  6
CONTINUOUS
 62
    7
 10
2264.1583799657546
 20
1420.8162593835823
 11
2197.8081864886963
 21
1487.1664528606407
  0
LINE
  8
_1-4_
  6
CONTINUOUS
 62
    7
 10
2278.300515589468
 20
1420.8162593835855
 11
2211.9503221124096
 21
1487.1664528606432
  0
LINE
  8
_1-4_
  6
CONTINUOUS
 62
    7
 10
2292.4426512131995
 20
1420.8162593835862
 11
2226.0924577361411
 21
1487.1664528606443
  0
LINE
  8
_1-4_
  6
CONTINUOUS
 62
    7
 10
2306.5847868369374
 20
1420.8162593835823
 11
2240.234593359879
 21
1487.1664528606402
  0
LINE
  8
_1-4_
  6
CONTINUOUS
 62
    7
 10
2320.7269224606694
 20
1420.816259383583
 11
2268.026535506553
 21
1473.5166463376995
  0
LINE
  8
_1-4_
  6
CONTINUOUS
 62
    7
 10
2254.9311778389201
 20
1486.6120040053324
 11
2254.3767289836114
 21
1487.1664528606411
  0
LINE
  8
_1-4_
  6
CONTINUOUS
 62
    7
 10
2334.8690580844013
 20
1420.8162593835841
 11
2282.168671130285
 21
1473.5166463377009
  0
LINE
  8
_1-4_
  6
CONTINUOUS
 62
    7
 10
2349.0111937081379
 20
1420.8162593835814
 11
2296.3108067540188
 21
1473.5166463377002
  0
LINE
  8
_1-4_
  6
CONTINUOUS
 62
    7
 10
2363.1533293318712
 20
1420.8162593835814
 11
2310.4529423777549
 21
1473.5166463376977
  0
LINE
  8
_1-4_
  6
CONTINUOUS
 62
    7
 10
2377.2954649556032
 20
1420.8162593835823
 11
2324.5950780014869
 21
1473.5166463376988
  0
LINE
  8
_1-4_
  6
CONTINUOUS
 62
    7
 10
2380.3043121672795
 20
1431.9495477956216
 11
2338.7372136252043
 21
1473.5166463376959
  0
LINE
  8
_1-4_
  6
CONTINUOUS
 62
    7
 10
2380.304312167279
 20
1446.0916834193556
 11
2352.8793492489372
 21
1473.5166463376972
  0
LINE
  8
_1-4_
  6
CONTINUOUS
 62
    7
 10
2380.3043121672767
 20
1460.233819043091
 11
2367.0214848726691
 21
1473.5166463376981
  0
LINE
  8
_1-4_
  6
CONTINUOUS
 62
    7
 10
2129.558043510563
 20
1407.1664528606425
 11
2249.5239152412269
 21
1407.1664528606425
  0
LINE
  8
_1-4_
  6
CONTINUOUS
 62
    7
 10
2129.5580435105612
 20
1487.1664528606425
 11
2254.3767289836114
 21
1487.1664528606425
  0
LINE
  8
_1-4_
  6
CONTINUOUS
 62
    7
 10
774.43624168293718
 20
1487.1664528606425
 11
899.8093760112954
 21
1487.1664528606425
  0
LINE
  8
_1-4_
  6
CONTINUOUS
 62
    7
 10
774.43624168293718
 20
1407.1664528606425
 11
899.8093760112954
 21
1407.1664528606425
  0
LINE
  8
_1-4_
  6
CONTINUOUS
 62
    7
 10
2379.4552225672678
 20
1446.2419942210572
 11
2545.6907117878327
 21
1446.2419942210572
  0
CIRCLE
  8
_1-4_
  6
CONTINUOUS
 62
    7
 10
2713.6498939808048
 20
1671.8646321005804
 40
20
  0
ARC
  8
_1-4_
  6
CONTINUOUS
 62
    7
 10
2713.6498939808048
 20
1671.8646321005804
 40
30
 50
270
 51
90
  0
LINE
  8
_1-4_
  6
CONTINUOUS
 62
    7
 10
2713.6498939808048
 20
1701.8646321005804
 11
2663.9649851914187
 21
1692.456640611485
  0
LINE
  8
_1-4_
  6
CONTINUOUS
 62
    7
 10
2713.6498939808048
 20
1641.8646321005804
 11
2663.9649851914187
 21
1651.2726235896757
  0
ARC
  8
_1-4_
  6
CONTINUOUS
 62
    7
 10
2552.1971115964297
 20
1696.2792257987567
 40
6.0000000000000009
 50
90
 51
180
  0
LINE
  8
_1-4_
  6
CONTINUOUS
 62
    7
 10
2546.1971115964302
 20
1647.450038402405
 11
2546.1971115964302
 21
1696.2792257987567
  0
ARC
  8
_1-4_
  6
CONTINUOUS
 62
    7
 10
2552.1971115964297
 20
1647.450038402405
 40
6.0000000000000009
 50
180
 51
270
  0
LINE
  8
_1-4_
  6
CONTINUOUS
 62
    7
 10
2657.9649851914182
 20
1702.2792257987562
 11
2552.1971115964297
 21
1702.2792257987562
  0
ARC
  8
_1-4_
  6
CONTINUOUS
 62
    7
 10
2657.9649851914182
 20
1696.2792257987567
 40
6.0000000000000009
 50
0
 51
90
  0
LINE
  8
_1-4_
  6
CONTINUOUS
 62
    7
 10
2663.9649851914187
 20
1647.450038402405
 11
2663.9649851914187
 21
1696.2792257987567
  0
LINE
  8
_1-4_
  6
CONTINUOUS
 62
    7
 10
2657.9649851914182
 20
1641.4500384024047
 11
2552.1971115964297
 21
1641.4500384024047
  0
ARC
  8
_1-4_
  6
CONTINUOUS
 62
    7
 10
2657.9649851914182
 20
1647.450038402405
 40
6.0000000000000009
 50
270
 51
0
  0
LINE
  8
_1-4_
  6
CONTINUOUS
 62
    7
 10
2561.4681483758759
 20
1641.4500384024032
 11
2546.1971115964288
 21
1656.72107518185
  0
LINE
  8
_1-4_
  6
CONTINUOUS
 62
    7
 10
2575.6102839996083
 20
1641.4500384024036
 11
2546.1971115964279
 21
1670.8632108055845
  0
LINE
  8
_1-4_
  6
CONTINUOUS
 62
    7
 10
2589.7524196233212
 20
1641.4500384024063
 11
2546.1971115964302
 21
1685.0053464292973
  0
LINE
  8
_1-4_
  6
CONTINUOUS
 62
    7
 10
2663.9649851914164
 20
1652.0902865767112
 11
2613.7760459693709
 21
1702.2792257987567
  0
LINE
  8
_1-4_
  6
CONTINUOUS
 62
    7
 10
2663.9649851914169
 20
1666.2324222004356
 11
2627.9181815930988
 21
1702.2792257987535
  0
LINE
  8
_1-4_
  6
CONTINUOUS
 62
    7
 10
2663.9649851914182
 20
1680.3745578241583
 11
2642.0603172168212
 21
1702.2792257987551
  0
LINE
  8
_1-4_
  6
CONTINUOUS
 62
    7
 10
2663.9649851914187
 20
1694.5166934478909
 11
2656.2024528405532
 21
1702.2792257987562
  0
CIRCLE
  8
_1-4_
  6
CONTINUOUS
 62
    7
 10
2713.6498939808048
 20
1445.692811075578
 40
20
  0
ARC
  8
_1-4_
  6
CONTINUOUS
 62
    7
 10
2713.6498939808048
 20
1445.692811075578
 40
30
 50
270
 51
90
  0
LINE
  8
_1-4_
  6
CONTINUOUS
 62
    7
 10
2713.6498939808048
 20
1475.692811075578
 11
2663.9649851914187
 21
1466.2848195864826
  0
LINE
  8
_1-4_
  6
CONTINUOUS
 62
    7
 10
2713.6498939808048
 20
1415.692811075578
 11
2663.9649851914187
 21
1425.1008025646736
  0
ARC
  8
_1-4_
  6
CONTINUOUS
 62
    7
 10
2552.1971115964297
 20
1470.1074047737543
 40
6.0000000000000009
 50
90
 51
180
  0
LINE
  8
_1-4_
  6
CONTINUOUS
 62
    7
 10
2546.1971115964302
 20
1421.2782173774026
 11
2546.1971115964302
 21
1470.1074047737543
  0
ARC
  8
_1-4_
  6
CONTINUOUS
 62
    7
 10
2552.1971115964297
 20
1421.2782173774026
 40
6.0000000000000009
 50
180
 51
270
  0
LINE
  8
_1-4_
  6
CONTINUOUS
 62
    7
 10
2657.9649851914182
 20
1476.1074047737538
 11
2552.1971115964297
 21
1476.1074047737538
  0
ARC
  8
_1-4_
  6
CONTINUOUS
 62
    7
 10
2657.9649851914182
 20
1470.1074047737543
 40
6.0000000000000009
 50
0
 51
90
  0
LINE
  8
_1-4_
  6
CONTINUOUS
 62
    7
 10
2663.9649851914187
 20
1421.2782173774026
 11
2663.9649851914187
 21
1470.1074047737543
  0
LINE
  8
_1-4_
  6
CONTINUOUS
 62
    7
 10
2657.9649851914182
 20
1415.2782173774024
 11
2552.1971115964297
 21
1415.2782173774024
  0
ARC
  8
_1-4_
  6
CONTINUOUS
 62
    7
 10
2657.9649851914182
 20
1421.2782173774026
 40
6.0000000000000009
 50
270
 51
0
  0
LINE
  8
_1-4_
  6
CONTINUOUS
 62
    7
 10
2561.4681483758759
 20
1415.2782173774008
 11
2546.1971115964288
 21
1430.5492541568478
  0
LINE
  8
_1-4_
  6
CONTINUOUS
 62
    7
 10
2575.6102839996083
 20
1415.2782173774015
 11
2546.1971115964279
 21
1444.6913897805821
  0
LINE
  8
_1-4_
  6
CONTINUOUS
 62
    7
 10
2589.7524196233212
 20
1415.278217377404
 11
2546.1971115964302
 21
1458.833525404295
  0
LINE
  8
_1-4_
  6
CONTINUOUS
 62
    7
 10
2663.9649851914164
 20
1425.918465551709
 11
2613.7760459693709
 21
1476.1074047737543
  0
LINE
  8
_1-4_
  6
CONTINUOUS
 62
    7
 10
2663.9649851914169
 20
1440.060601175433
 11
2627.9181815930988
 21
1476.1074047737511
  0
LINE
  8
_1-4_
  6
CONTINUOUS
 62
    7
 10
2663.9649851914182
 20
1454.2027367991559
 11
2642.0603172168212
 21
1476.1074047737527
  0
LINE
  8
_1-4_
  6
CONTINUOUS
 62
    7
 10
2663.9649851914187
 20
1468.3448724228886
 11
2656.2024528405532
 21
1476.1074047737538
  0
LINE
  8
_1-4_
  6
CONTINUOUS
 62
    7
 10
2380.9256482167984
 20
1460.0175608324448
 11
2543.9107228436637
 21
1673.1518891906535
  0
LINE
  8
_1-4_
  6
CONTINUOUS
 62
    7
 10
1827.1265879625139
 20
1219.7778335429662
 11
1934.0581339363487
 21
1219.7778335429662
  0
LINE
  8
_1-4_
  6
CONTINUOUS
 62
    7
 10
1827.1265879625139
 20
1487.1664528606425
 11
1827.1265879625139
 21
1219.7778335429662
  0
LINE
  8
_1-4_
  6
CONTINUOUS
 62
    7
 10
1934.0581339363487
 20
1487.1664528606425
 11
1934.0581339363487
 21
1219.7778335429662
  0
LINE
  8
_1-4_
  6
CONTINUOUS
 62
    7
 10
1827.1265879625139
 20
1487.1664528606425
 11
1934.0581339363487
 21
1487.1664528606425
  0
LINE
  8
_1-4_
  6
CONTINUOUS
 62
    7
 10
899.8093760112954
 20
1407.1664528606425
 11
1827.1265879625139
 21
1407.1664528606425
  0
LINE
  8
_1-4_
  6
CONTINUOUS
 62
    7
 10
1934.0581339363487
 20
1407.1664528606425
 11
2129.558043510563
 21
1407.1664528606425
  0
LINE
  8
_1-4_
  6
CONTINUOUS
 62
    7
 10
2129.5580435105612
 20
1493.3857317898817
 11
2129.5580435105612
 21
1531.5781032658356
  0
LINE
  8
_1-4_
  6
CONTINUOUS
 62
    7
 10
2129.5580435105612
 20
1531.5781032658356
 11
2129.5580435105612
 21
1579.7538909938619
  0
LINE
  8
_1-4_
  6
CONTINUOUS
 62
    7
 10
2380.3043121672795
 20
1650.6825808777758
 11
2129.5580435105626
 21
1650.6825808777758
  0
TEXT
  8
_1-4_
 62
    7
 10
2586.1961780297561
 20
1722.3658312923699
 40
40
 41
1
 50
0
  1
15
  0
TEXT
  8
_1-4_
 62
    7
 10
2322.9125959402027
 20
1722.3658312923699
 40
40
 41
1
 50
0
  1
50
  0
TEXT
  8
_1-4_
 62
    7
 10
2238.2857302685616
 20
1606.3956820386388
 40
40
 41
1
 50
0
  1
20
  0
TEXT
  8
_1-4_
 62
    7
 10
2169.3305063879643
 20
1518.6344880087877
 40
40
 41
1
 50
0
  1
10
  0
LINE
  8
_1-4_
  6
CONTINUOUS
 62
    7
 10
2603.8945552470532
 20
1415.2782173774049
 11
2592.6312734389035
 21
1426.5414991855555
  0
LINE
  8
_1-4_
  6
CONTINUOUS
 62
    7
 10
2583.4011164730327
 20
1435.7716561514262
 11
2546.6881387512644
 21
1472.4846338731941
  0
LINE
  8
_1-4_
  6
CONTINUOUS
 62
    7
 10
2618.0366908707856
 20
1415.278217377406
 11
2606.7734090626373
 21
1426.5414991855555
  0
LINE
  8
_1-4_
  6
CONTINUOUS
 62
    7
 10
2583.4011164730327
 20
1449.9137917751596
 11
2557.2075034744366
 21
1476.1074047737557
  0
LINE
  8
_1-4_
  6
CONTINUOUS
 62
    7
 10
2632.1788264945226
 20
1415.2782173774033
 11
2620.9155446863701
 21
1426.5414991855555
  0
LINE
  8
_1-4_
  6
CONTINUOUS
 62
    7
 10
2583.4011164730327
 20
1464.0559273988924
 11
2571.34963909817
 21
1476.1074047737557
  0
LINE
  8
_1-4_
  6
CONTINUOUS
 62
    7
 10
2646.3209621182559
 20
1415.2782173774031
 11
2623.4011164730327
 21
1438.1980630226262
  0
LINE
  8
_1-4_
  6
CONTINUOUS
 62
    7
 10
2595.0576803101039
 20
1466.5414991855555
 11
2585.4917747219065
 21
1476.1074047737525
  0
LINE
  8
_1-4_
  6
CONTINUOUS
 62
    7
 10
2660.0785202249431
 20
1415.6627948944488
 11
2623.4011164730327
 21
1452.3401986463596
  0
LINE
  8
_1-4_
  6
CONTINUOUS
 62
    7
 10
2609.1998159338368
 20
1466.5414991855555
 11
2599.6339103456385
 21
1476.1074047737534
  0
LINE
  8
_1-4_
  6
CONTINUOUS
 62
    7
 10
2603.8945552470532
 20
1641.4500384024077
 11
2590.964509610395
 21
1654.3800840390659
  0
LINE
  8
_1-4_
  6
CONTINUOUS
 62
    7
 10
2579.6863569373772
 20
1665.6582367120832
 11
2546.6881387512644
 21
1698.6564548981967
  0
LINE
  8
_1-4_
  6
CONTINUOUS
 62
    7
 10
2618.0366908707856
 20
1641.4500384024082
 11
2605.1066452341283
 21
1654.3800840390659
  0
LINE
  8
_1-4_
  6
CONTINUOUS
 62
    7
 10
2579.6863569373772
 20
1679.8003723358165
 11
2557.2075034744366
 21
1702.279225798758
  0
LINE
  8
_1-4_
  6
CONTINUOUS
 62
    7
 10
2632.1788264945226
 20
1641.4500384024054
 11
2619.2487808578617
 21
1654.3800840390659
  0
LINE
  8
_1-4_
  6
CONTINUOUS
 62
    7
 10
2579.6863569373772
 20
1693.9425079595499
 11
2571.34963909817
 21
1702.279225798758
  0
LINE
  8
_1-4_
  6
CONTINUOUS
 62
    7
 10
2646.3209621182559
 20
1641.4500384024054
 11
2619.6863569373772
 21
1668.0846435832832
  0
LINE
  8
_1-4_
  6
CONTINUOUS
 62
    7
 10
2593.390916481595
 20
1694.3800840390659
 11
2585.4917747219065
 21
1702.2792257987544
  0
LINE
  8
_1-4_
  6
CONTINUOUS
 62
    7
 10
2660.0785202249431
 20
1641.8346159194512
 11
2619.6863569373772
 21
1682.2267792070165
  0
LINE
  8
_1-4_
  6
CONTINUOUS
 62
    7
 10
2607.5330521053284
 20
1694.3800840390659
 11
2599.6339103456385
 21
1702.2792257987558
  0
LINE
  8
_1-4_
  6
CONTINUOUS
 62
    7
 10
2254.931177838921
 20
1559.7870584897159
 11
1934.0581339363487
 21
1559.7870584897159
  0
TEXT
  8
_1-4_
 62
    7
 10
2009.0514674464073
 20
1516.2273975401472
 40
40
 41
1
 50
0
  1
30
  0
LINE
  8
_1-4_
  6
CONTINUOUS
 62
    7
 10
707.7688373868275
 20
1427.6052305970843
 11
937.61958365548492
 21
1260.4410514926069
  0
LINE
  8
_1-4_
  6
CONTINUOUS
 62
    7
 10
707.7688373868275
 20
1427.6052305970843
 11
735.77111061569576
 21
1416.8408126371651
  0
LINE
  8
_1-4_
  6
CONTINUOUS
 62
    7
 10
707.7688373868275
 20
1427.6052305970843
 11
726.63730838678043
 21
1404.2818345724068
  0
TEXT
  8
_1-4_
 62
    7
 10
1337.8994344017538
 20
1285.1238873135021
 40
64
 41
1
 50
0
  1
1
  0
LINE
  8
_1-4_
  6
CONTINUOUS
 62
    7
 10
1137.30241947638
 20
1425.1238873135021
 11
1327.4516732077234
 21
1318.5567231343975
  0
LINE
  8
_1-4_
  6
CONTINUOUS
 62
    7
 10
1137.30241947638
 20
1425.1238873135021
 11
1166.3770260100951
 21
1417.7301565292728
  0
LINE
  8
_1-4_
  6
CONTINUOUS
 62
    7
 10
1137.30241947638
 20
1425.1238873135021
 11
1158.7849019474995
 21
1404.1834253587588
  0
LINE
  8
_1-4_
  6
CONTINUOUS
 62
    7
 10
1924.0188373868286
 20
1251.6910514926067
 11
2076.5561508196643
 21
1163.929857462756
  0
LINE
  8
_1-4_
  6
CONTINUOUS
 62
    7
 10
1924.0188373868286
 20
1251.6910514926067
 11
1953.0082817241419
 21
1243.9701631360904
  0
LINE
  8
_1-4_
  6
CONTINUOUS
 62
    7
 10
1924.0188373868286
 20
1251.6910514926067
 11
1945.2639884462787
 21
1230.5098438674231
  0
LINE
  8
_1-4_
  6
CONTINUOUS
 62
    7
 10
648.62938723879768
 20
1438.9001638715727
 11
575.58599060886888
 21
1438.9001638715727
  0
LINE
  8
_1-4_
  6
CONTINUOUS
 62
    7
 10
651.72502018517685
 20
1463.8587045017553
 11
575.58599060886888
 21
1463.8587045017553
  0
LINE
  8
_1-4_
  6
CONTINUOUS
 62
    7
 10
423.00303643387463
 20
1492.7884221262486
 11
575.58599060886888
 21
1463.8587045017553
  0
LINE
  8
_1-4_
  6
CONTINUOUS
 62
    7
 10
2731.0652806726839
 20
1407.3426517652781
 11
2771.8115493293999
 21
1281.9695174369199
  0
LINE
  8
_1-4_
  6
CONTINUOUS
 62
    7
 10
2731.0652806726839
 20
1407.3426517652781
 11
2747.4062791530641
 21
1382.1837215681451
  0
LINE
  8
_1-4_
  6
CONTINUOUS
 62
    7
 10
2731.0652806726839
 20
1407.3426517652781
 11
2732.6375353813291
 21
1377.3838798423317
  0
TEXT
  8
_1-4_
 62
    7
 10
2583.1569058799796
 20
1426.2356865911486
 40
40
 41
1
 50
0
  1
黒
  0
TEXT
  8
_1-4_
 62
    7
 10
2580.0225775217714
 20
1653.5325356790427
 40
40
 41
1
 50
0
  1
白
  0
LINE
  8
_1-4_
  6
CONTINUOUS
 62
    7
 10
407.0579970517789
 20
1403.8898562741847
 11
277.50575824580841
 21
1403.8898562741847
  0
LINE
  8
_1-4_
  6
CONTINUOUS
 62
    7
 10
277.50575824580841
 20
1518.8152294085132
 11
407.0579970517789
 21
1518.8152294085132
  0
LINE
  8
_1-4_
  6
CONTINUOUS
 62
    7
 10
421.68486272342062
 20
1391.3525428413488
 11
407.0579970517789
 21
1391.3525428413488
  0
LINE
  8
_1-4_
  6
CONTINUOUS
 62
    7
 10
407.0579970517789
 20
1529.2629906025429
 11
407.0579970517789
 21
1391.3525428413488
  0
LINE
  8
_1-4_
  6
CONTINUOUS
 62
    7
 10
341.97231435415546
 20
1497.1457987838585
 11
341.97231435415546
 21
1481.6676340519625
  0
LINE
  8
_1-4_
  6
CONTINUOUS
 62
    7
 10
277.50575824580841
 20
1403.8898562741847
 11
277.50575824580841
 21
1462.4747097844115
  0
LINE
  8
_1-4_
  6
CONTINUOUS
 62
    7
 10
277.50575824580841
 20
1462.4747097844115
 11
277.50575824580841
 21
1518.8152294085132
  0
LINE
  8
_1-4_
  6
CONTINUOUS
 62
    7
 10
277.50575824580841
 20
1497.1457987838585
 11
341.97231435415546
 21
1497.1457987838585
  0
LINE
  8
_1-4_
  6
CONTINUOUS
 62
    7
 10
341.97231435415546
 20
1481.6676340519625
 11
277.50575824580841
 21
1481.6676340519625
  0
LINE
  8
_1-4_
  6
CONTINUOUS
 62
    7
 10
341.97231435415546
 20
1441.0374516307356
 11
277.50575824580841
 21
1441.0374516307356
  0
LINE
  8
_1-4_
  6
CONTINUOUS
 62
    7
 10
341.97231435415546
 20
1425.5592868988392
 11
341.97231435415546
 21
1441.0374516307356
  0
LINE
  8
_1-4_
  6
CONTINUOUS
 62
    7
 10
277.50575824580841
 20
1425.5592868988392
 11
341.97231435415546
 21
1425.5592868988392
  0
TEXT
  8
_1-4_
 62
    7
 10
245.91740372213047
 20
1403.5931914501566
 40
40
 41
1
 50
0
  1
2
  0
TEXT
  8
_1-4_
 62
    7
 10
245.91740372213047
 20
1469.4140869725447
 40
40
 41
1
 50
0
  1
1
  0
LINE
  8
_1-4_
  6
CONTINUOUS
 62
    7
 10
358.75322461765307
 20
1394.1902063755297
 11
512.33531416989172
 21
1281.3543854800075
  0
LINE
  8
_1-4_
  6
CONTINUOUS
 62
    7
 10
358.75322461765307
 20
1394.1902063755297
 11
386.70310601585584
 21
1383.2904756528746
  0
LINE
  8
_1-4_
  6
CONTINUOUS
 62
    7
 10
358.75322461765307
 20
1394.1902063755297
 11
377.5086665799314
 21
1370.775821976199
  0
LINE
  8
_1-4_
  6
CONTINUOUS
 62
    7
 10
774.43624168293718
 20
1640.1592630530713
 11
899.8093760112954
 21
1640.1592630530713
  0
LINE
  8
_1-4_
  6
CONTINUOUS
 62
    7
 10
649.06310735457873
 20
1731.0547854411311
 11
899.8093760112954
 21
1731.0547854411311
  0
TEXT
  8
_1-4_
 62
    7
 10
814.07480753608161
 20
1598.4376341654156
 40
40
 41
1
 50
0
  1
10
  0
TEXT
  8
_1-4_
 62
    7
 10
750.16975828462353
 20
1682.0432145375889
 40
40
 41
1
 50
0
  1
20
  0
TEXT
  8
_1-4_
 62
    7
 10
510.19074461660819
 20
1682.3560492045272
 40
40
 41
1
 50
0
  1
30
  0
LINE
  8
_1-4_
  6
CONTINUOUS
 62
    7
 10
649.06310735457873
 20
1579.8524637164219
 11
649.06310735457873
 21
1731.0547854411311
  0
LINE
  8
_1-4_
  6
CONTINUOUS
 62
    7
 10
421.68486272342062
 20
1529.2629906025429
 11
407.0579970517789
 21
1529.2629906025429
  0
LINE
  8
_1-4_
  6
CONTINUOUS
 62
    7
 10
774.43624168293718
 20
1579.8524637164219
 11
774.43624168293718
 21
1640.1592630530713
  0
LINE
  8
_1-4_
  6
CONTINUOUS
 62
    7
 10
899.8093760112954
 20
1579.8524637164219
 11
899.8093760112954
 21
1731.0547854411311
  0
LINE
  8
_0-0_
  6
CONTINUOUS
 62
    7
 10
30.037313432835447
 20
2027.3358208955226
 11
30.037313432835447
 21
38.604477611940325
  0
LINE
  8
_0-0_
  6
CONTINUOUS
 62
    7
 10
1230.0373134328354
 20
708.60447761194041
 11
30.037313432835447
 21
708.60447761194041
  0
LINE
  8
_0-0_
  6
CONTINUOUS
 62
    7
 10
1230.0373134328354
 20
708.60447761194041
 11
1230.0373134328354
 21
682.14303482587115
  0
LINE
  8
_0-0_
  6
CONTINUOUS
 62
    7
 10
1230.0373134328354
 20
682.14303482587115
 11
1230.0373134328354
 21
38.604477611940325
  0
LINE
  8
_0-0_
  6
CONTINUOUS
 62
    7
 10
1230.0373134328354
 20
584.05902306648579
 11
30.037313432835447
 21
584.05902306648579
  0
LINE
  8
_0-0_
  6
CONTINUOUS
 62
    7
 10
1230.0373134328354
 20
529.51356852103129
 11
30.037313432835447
 21
529.51356852103129
  0
LINE
  8
_0-0_
  6
CONTINUOUS
 62
    7
 10
1230.0373134328354
 20
474.96811397557678
 11
30.037313432835447
 21
474.96811397557678
  0
LINE
  8
_0-0_
  6
CONTINUOUS
 62
    7
 10
1230.0373134328354
 20
638.60447761194041
 11
30.037313432835447
 21
638.60447761194041
  0
LINE
  8
_0-0_
  6
CONTINUOUS
 62
    7
 10
1230.0373134328354
 20
420.42265943012217
 11
30.037313432835447
 21
420.42265943012217
  0
LINE
  8
_0-0_
  6
CONTINUOUS
 62
    7
 10
1230.0373134328354
 20
365.87720488466761
 11
30.037313432835447
 21
365.87720488466761
  0
LINE
  8
_0-0_
  6
CONTINUOUS
 62
    7
 10
1230.0373134328354
 20
311.33175033921316
 11
30.037313432835447
 21
311.33175033921316
  0
LINE
  8
_0-0_
  6
CONTINUOUS
 62
    7
 10
1230.0373134328354
 20
256.78629579375865
 11
30.037313432835447
 21
256.78629579375865
  0
LINE
  8
_0-0_
  6
CONTINUOUS
 62
    7
 10
1230.0373134328354
 20
202.24084124830412
 11
30.037313432835447
 21
202.24084124830412
  0
LINE
  8
_0-0_
  6
CONTINUOUS
 62
    7
 10
1230.0373134328354
 20
147.69538670284939
 11
30.037313432835447
 21
147.69538670284939
  0
LINE
  8
_0-0_
  6
CONTINUOUS
 62
    7
 10
1230.0373134328354
 20
93.149932157395057
 11
30.037313432835447
 21
93.149932157395057
  0
LINE
  8
_0-0_
  6
CONTINUOUS
 62
    7
 10
1030.0373134328352
 20
708.60447761194041
 11
1030.0373134328352
 21
38.604477611940325
  0
LINE
  8
_0-0_
  6
CONTINUOUS
 62
    7
 10
100.03731343283545
 20
708.60447761194041
 11
100.03731343283545
 21
38.604477611940325
  0
TEXT
  8
_0-0_
 62
    7
 10
55.939054726367431
 20
588.11318407960232
 40
40
 41
1
 50
0
  1
1
  0
TEXT
  8
_0-0_
 62
    7
 10
55.939054726367431
 20
534.82960199005015
 40
40
 41
1
 50
0
  1
2
  0
TEXT
  8
_0-0_
 62
    7
 10
55.939054726367431
 20
481.54601990049787
 40
40
 41
1
 50
0
  1
3
  0
TEXT
  8
_0-0_
 62
    7
 10
52.804726368158271
 20
425.12810945273668
 40
40
 41
1
 50
0
  1
4
  0
TEXT
  8
_0-0_
 62
    7
 10
52.804726368158271
 20
371.8445273631844
 40
40
 41
1
 50
0
  1
5
  0
TEXT
  8
_0-0_
 62
    7
 10
52.804726368158271
 20
318.56094527363234
 40
40
 41
1
 50
0
  1
6
  0
TEXT
  8
_0-0_
 62
    7
 10
49.670398009949309
 20
265.27736318408006
 40
40
 41
1
 50
0
  1
7
  0
TEXT
  8
_0-0_
 62
    7
 10
55.939054726367431
 20
208.85945273631873
 40
40
 41
1
 50
0
  1
8
  0
TEXT
  8
_0-0_
 62
    7
 10
55.939054726367431
 20
155.57587064676648
 40
40
 41
1
 50
0
  1
9
  0
TEXT
  8
_0-0_
 62
    7
 10
40.267412935322625
 20
102.29228855721425
 40
40
 41
1
 50
0
  1
10
  0
TEXT
  8
_0-0_
 62
    7
 10
46.536069651740547
 20
49.008706467662108
 40
40
 41
1
 50
0
  1
11
  0
TEXT
  8
_0-0_
 62
    7
 10
168.77487562189003
 20
650.79975124378143
 40
40
 41
1
 50
0
  1
名称
  0
TEXT
  8
_0-0_
 62
    7
 10
1112.2077114427852
 20
653.93407960199033
 40
40
 41
1
 50
0
  1
数
  0
TEXT
  8
_0-0_
 62
    7
 10
1266.9651741293526
 20
79.046019900497356
 40
40
 41
1
 50
0
  1
装置名称
  0
LINE
  8
_0-0_
  6
CONTINUOUS
 62
    7
 10
1870.667495854063
 20
365.87720488466761
 11
1870.667495854063
 21
147.69538670284939
  0
LINE
  8
_0-0_
  6
CONTINUOUS
 62
    7
 10
1669.1148424543942
 20
365.87720488466761
 11
1669.1148424543942
 21
147.69538670284939
  0
TEXT
  8
_0-0_
 62
    7
 10
1931.0945273631837
 20
320.04104477611918
 40
40
 41
1
 50
0
  1
Rev
  0
LINE
  8
_0-0_
  6
CONTINUOUS
 62
    7
 10
1870.667495854063
 20
256.78629579375865
 11
2072.2201492537306
 21
256.78629579375865
  0
TEXT
  8
_0-0_
 62
    7
 10
1283.3333333333328
 20
152.87686567164167
 40
40
 41
1
 50
0
  1
/  /  /
  0
TEXT
  8
_0-0_
 62
    7
 10
1492.5207296849085
 20
155.19859038142619
 40
40
 41
1
 50
0
  1
/  /  /
  0
TEXT
  8
_0-0_
 62
    7
 10
1688.9386401326694
 20
156.59162520729683
 40
40
 41
1
 50
0
  1
/  /  /
  0
TEXT
  8
_0-0_
 62
    7
 10
2400.9907083239486
 20
273.48090992226798
 40
64
 41
1
 50
0
  1
SMART DIYs
  0
TEXT
  8
_0-0_
 62
    7
 10
2273.5280217567843
 20
235.86896962376056
 40
30
 41
1
 50
0
  1
makind your idea reality.
  0
LINE
  8
_0-0_
  6
CONTINUOUS
 62
    7
 10
2292.4216099421278
 20
332.54697645965109
 11
2257.9439980018292
 21
276.12906601188979
  0
LINE
  8
_0-0_
  6
CONTINUOUS
 62
    7
 10
2328.2607417009258
 20
276.12906601188979
 11
2292.4216099421278
 21
332.54697645965109
  0
LINE
  8
_0-0_
  6
CONTINUOUS
 62
    7
 10
2331.7953526992319
 20
276.15978679737373
 11
2331.814867889886
 21
276.12906601188979
  0
LINE
  8
_0-0_
  6
CONTINUOUS
 62
    7
 10
2257.9439980018292
 20
276.12906601188979
 11
2328.2607417009258
 21
276.12906601188979
  0
LINE
  8
_0-0_
  6
CONTINUOUS
 62
    7
 10
2331.7765788858806
 20
276.12906601188979
 11
2366.2541908261792
 21
332.54697645965109
  0
LINE
  8
_0-0_
  6
CONTINUOUS
 62
    7
 10
2366.2541908261792
 20
332.54697645965109
 11
2389.4697028161836
 21
332.54697645965109
  0
LINE
  8
_0-0_
  6
CONTINUOUS
 62
    7
 10
2354.992090875885
 20
276.12906601188979
 11
2331.7953526992319
 21
276.12906601188979
  0
LINE
  8
_0-0_
  6
CONTINUOUS
 62
    7
 10
2389.4697028161836
 20
332.54697645965109
 11
2354.992090875885
 21
276.12906601188979
  0
SOLID
  8
_0-0_
  6
CONTINUOUS
 62
    7
 10
2257.9439980018292
 20
276.12906601188979
 11
2328.2607417009258
 21
276.12906601188979
 12
2292.4216099421278
 22
332.54697645965109
 13
2292.4216099421278
 23
332.54697645965109
  0
SOLID
  8
_0-0_
  6
CONTINUOUS
 62
    7
 10
2331.7765788858806
 20
276.12906601188979
 11
2366.2541908261792
 21
332.54697645965109
 12
2331.7953526992319
 22
276.12906601188979
 13
2354.992090875885
 23
276.12906601188979
  0
SOLID
  8
_0-0_
  6
CONTINUOUS
 62
    7
 10
2366.2541908261792
 20
332.54697645965109
 11
2389.4697028161836
 21
332.54697645965109
 12
2354.992090875885
 22
276.12906601188979
 13
2354.992090875885
 23
276.12906601188979
  0
LINE
  8
_0-0_
  6
CONTINUOUS
 62
    7
 10
2298.3451535903941
 20
332.54697645965109
 11
2360.3944621845876
 21
332.54697645965109
  0
LINE
  8
_0-0_
  6
CONTINUOUS
 62
    7
 10
2329.9705279929094
 20
282.76235687326857
 11
2298.3451535903941
 21
332.54697645965109
  0
LINE
  8
_0-0_
  6
CONTINUOUS
 62
    7
 10
2360.3944621845876
 20
332.54697645965109
 11
2329.9705279929094
 21
282.76235687326857
  0
SOLID
  8
_0-0_
  6
CONTINUOUS
 62
    7
 10
2298.3451535903941
 20
332.54697645965109
 11
2360.3944621845876
 21
332.54697645965109
 12
2329.9705279929094
 22
282.76235687326857
 13
2329.9705279929094
 23
282.76235687326857
  0
TEXT
  8
_0-0_
 62
    7
 10
1521.1150864334013
 20
315.96847211132297
 40
40
 41
1
 50
0
  1
確認
  0
TEXT
  8
_0-0_
 62
    7
 10
1719.6225491199689
 20
315.96847211132297
 40
40
 41
1
 50
0
  1
承認
  0
TEXT
  8
_0-0_
 62
    7
 10
469.67039800994951
 20
653.93407960199033
 40
40
 41
1
 50
0
  1
部材　　規格    長さ　　　
  0
LINE
  8
_0-0_
  6
CONTINUOUS
 62
    7
 10
388.65671641791062
 20
707.26119402985069
 11
388.65671641791062
 21
38.604477611940325
  0
LINE
  8
_0-0_
  6
CONTINUOUS
 62
    7
 10
2604.6268656716416
 20
202.24084124830412
 11
2604.6268656716416
 21
38.604477611940325
  0
LINE
  8
_0-0_
  6
CONTINUOUS
 62
    7
 10
2717.4626865671644
 20
145.05555555555571
 11
2717.4626865671644
 21
38.604477611940325
  0
TEXT
  8
_0-0_
 62
    7
 10
2638.28861174744
 20
76.349529596342848
 40
40
 41
1
 50
0
  1
頁
  0
LINE
  8
_0-0_
  6
CONTINUOUS
 62
    7
 10
1467.5621890547259
 20
450.60366377986566
 11
1467.5621890547259
 21
38.604477611940325
  0
LINE
  8
_0-0_
  6
CONTINUOUS
 62
    7
 10
2072.2201492537306
 20
450.60366377986566
 11
2072.2201492537306
 21
38.604477611940325
  0
TEXT
  8
_0-0_
 62
    7
 10
1296.204394693201
 20
318.96187273508951
 40
40
 41
1
 50
0
  1
設計
  0
TEXT
  8
_0-0_
 62
    7
 10
1243.9655887230517
 20
385.82754437688061
 40
40
 41
1
 50
0
  1
ハーネス名
  0
TEXT
  8
_0-0_
 62
    7
 10
2416.2043946932008
 20
392.09620109329853
 40
40
 41
1
 50
0
  1
会社名
  0
LINE
  8
_0-0_
  6
CONTINUOUS
 62
    7
 10
30.037313432835447
 20
2027.3358208955226
 11
2695.8899944720838
 21
2027.3358208955226
  0
LINE
  8
_0-0_
  6
CONTINUOUS
 62
    7
 10
2695.8899944720838
 20
2027.3358208955226
 11
2879.248203427308
 21
2027.3358208955226
  0
LINE
  8
_0-0_
  6
CONTINUOUS
 62
    7
 10
2879.248203427308
 20
2027.3358208955226
 11
2879.248203427308
 21
1897.1741293532334
  0
LINE
  8
_0-0_
  6
CONTINUOUS
 62
    7
 10
2879.248203427308
 20
38.604477611940325
 11
30.037313432835447
 21
38.604477611940325
  0
LINE
  8
_0-0_
  6
CONTINUOUS
 62
    7
 10
2879.248203427308
 20
1897.1741293532334
 11
2879.248203427308
 21
38.604477611940325
  0
LINE
  8
_0-0_
  6
CONTINUOUS
 62
    7
 10
1230.0373134328354
 20
450.60366377986566
 11
2879.248203427308
 21
450.60366377986566
  0
LINE
  8
_0-0_
  6
CONTINUOUS
 62
    7
 10
1230.0373134328354
 20
365.87720488466761
 11
2879.248203427308
 21
365.87720488466761
  0
LINE
  8
_0-0_
  6
CONTINUOUS
 62
    7
 10
1230.0373134328354
 20
202.24084124830412
 11
2879.248203427308
 21
202.24084124830412
  0
LINE
  8
_0-0_
  6
CONTINUOUS
 62
    7
 10
1230.0373134328354
 20
147.69538670284939
 11
2879.248203427308
 21
147.69538670284939
  0
CIRCLE
  8
_1-0_
  6
CONTINUOUS
 62
    7
 10
-790.24253731343333
 20
2721.4589552238813
 40
4.2000000000000002
  0
LINE
  8
_1-4_
  6
CONTINUOUS
 62
    7
 10
421.68486272342062
 20
1529.2629906025429
 11
421.68486272342062
 21
1391.3525428413488
  0
LINE
  8
_1-4_
  6
CONTINUOUS
 62
    7
 10
421.68486272342062
 20
1826.2049689374771
 11
421.68486272342062
 21
1596.1024915062289
  0
LINE
  8
_1-4_
  6
CONTINUOUS
 62
    7
 10
397.98000345064258
 20
1579.8524637164219
 11
397.98000345064258
 21
1580.1568516421294
  0
LINE
  8
_1-4_
  6
CONTINUOUS
 62
    7
 10
421.68486272342062
 20
1596.1024915062289
 11
421.68486272342062
 21
1580.1568516421294
  0
LINE
  8
_1-4_
  6
CONTINUOUS
 62
    7
 10
649.06310735457873
 20
1731.0547854411311
 11
421.68486272342062
 21
1731.0547854411311
  0
TEXT
  8
_0-0_
 62
    7
 10
1877.9118063420156
 20
628.33918459796155
 40
40
 41
1
 50
0
  1
Pin No.
  0
LINE
  8
_0-0_
  6
CONTINUOUS
 62
    7
 10
1866.8189411098529
 20
618.52038505096266
 11
2016.8189411098524
 21
618.52038505096266
  0
LINE
  8
_0-0_
  6
CONTINUOUS
 62
    7
 10
2016.8189411098524
 20
618.52038505096266
 11
2016.8189411098524
 21
678.52038505096266
  0
LINE
  8
_0-0_
  6
CONTINUOUS
 62
    7
 10
2016.8189411098524
 20
678.52038505096266
 11
1866.8189411098529
 21
678.52038505096266
  0
LINE
  8
_0-0_
  6
CONTINUOUS
 62
    7
 10
1866.8189411098529
 20
678.52038505096266
 11
1866.8189411098529
 21
618.52038505096266
  0
LINE
  8
_0-0_
  6
CONTINUOUS
 62
    7
 10
1866.8189411098529
 20
558.52038505096266
 11
2016.8189411098524
 21
558.52038505096266
  0
LINE
  8
_0-0_
  6
CONTINUOUS
 62
    7
 10
2016.8189411098524
 20
558.52038505096266
 11
2016.8189411098524
 21
618.52038505096266
  0
LINE
  8
_0-0_
  6
CONTINUOUS
 62
    7
 10
2016.8189411098524
 20
618.52038505096266
 11
1866.8189411098529
 21
618.52038505096266
  0
LINE
  8
_0-0_
  6
CONTINUOUS
 62
    7
 10
1866.8189411098529
 20
618.52038505096266
 11
1866.8189411098529
 21
558.52038505096266
  0
LINE
  8
_0-0_
  6
CONTINUOUS
 62
    7
 10
1866.8189411098529
 20
498.52038505096266
 11
2016.8189411098524
 21
498.52038505096266
  0
LINE
  8
_0-0_
  6
CONTINUOUS
 62
    7
 10
2016.8189411098524
 20
498.52038505096266
 11
2016.8189411098524
 21
558.52038505096266
  0
LINE
  8
_0-0_
  6
CONTINUOUS
 62
    7
 10
2016.8189411098524
 20
558.52038505096266
 11
1866.8189411098529
 21
558.52038505096266
  0
LINE
  8
_0-0_
  6
CONTINUOUS
 62
    7
 10
1866.8189411098529
 20
558.52038505096266
 11
1866.8189411098529
 21
498.52038505096266
  0
TEXT
  8
_0-0_
 62
    7
 10
1883.9381370328424
 20
685.79954699886753
 40
40
 41
1
 50
0
  1
XHP-2
  0
TEXT
  8
_0-0_
 62
    7
 10
2473.9001981879956
 20
628.33918459796155
 40
40
 41
1
 50
0
  1
Pin No.
  0
LINE
  8
_0-0_
  6
CONTINUOUS
 62
    7
 10
2462.8073329558324
 20
618.52038505096266
 11
2612.807332955832
 21
618.52038505096266
  0
LINE
  8
_0-0_
  6
CONTINUOUS
 62
    7
 10
2612.807332955832
 20
618.52038505096266
 11
2612.807332955832
 21
678.52038505096266
  0
LINE
  8
_0-0_
  6
CONTINUOUS
 62
    7
 10
2612.807332955832
 20
678.52038505096266
 11
2462.8073329558324
 21
678.52038505096266
  0
LINE
  8
_0-0_
  6
CONTINUOUS
 62
    7
 10
2462.8073329558324
 20
678.52038505096266
 11
2462.8073329558324
 21
618.52038505096266
  0
LINE
  8
_0-0_
  6
CONTINUOUS
 62
    7
 10
2462.8073329558324
 20
558.52038505096266
 11
2612.807332955832
 21
558.52038505096266
  0
LINE
  8
_0-0_
  6
CONTINUOUS
 62
    7
 10
2612.807332955832
 20
558.52038505096266
 11
2612.807332955832
 21
618.52038505096266
  0
LINE
  8
_0-0_
  6
CONTINUOUS
 62
    7
 10
2612.807332955832
 20
618.52038505096266
 11
2462.8073329558324
 21
618.52038505096266
  0
LINE
  8
_0-0_
  6
CONTINUOUS
 62
    7
 10
2462.8073329558324
 20
618.52038505096266
 11
2462.8073329558324
 21
558.52038505096266
  0
LINE
  8
_0-0_
  6
CONTINUOUS
 62
    7
 10
2462.8073329558324
 20
498.52038505096266
 11
2612.807332955832
 21
498.52038505096266
  0
LINE
  8
_0-0_
  6
CONTINUOUS
 62
    7
 10
2612.807332955832
 20
498.52038505096266
 11
2612.807332955832
 21
558.52038505096266
  0
LINE
  8
_0-0_
  6
CONTINUOUS
 62
    7
 10
2612.807332955832
 20
558.52038505096266
 11
2462.8073329558324
 21
558.52038505096266
  0
LINE
  8
_0-0_
  6
CONTINUOUS
 62
    7
 10
2462.8073329558324
 20
558.52038505096266
 11
2462.8073329558324
 21
498.52038505096266
  0
TEXT
  8
_1-4_
 62
    7
 10
2487.8792468856172
 20
685.70611551528884
 40
40
 41
1
 50
0
  1
R2-4S
  0
LINE
  8
_0-0_
  6
CONTINUOUS
 62
    7
 10
2016.8189411098524
 20
588.52038505096266
 11
2462.8073329558324
 21
588.52038505096266
  0
LINE
  8
_0-0_
  6
CONTINUOUS
 62
    7
 10
2016.8189411098524
 20
528.52038505096266
 11
2462.8073329558324
 21
528.52038505096266
  0
TEXT
  8
_1-4_
 62
    7
 10
514.75651189127984
 20
1227.8578708946773
 40
64
 41
1
 50
0
  1
2
  0
LINE
  8
_0-0_
  6
CONTINUOUS
 62
    7
 10
618.65232163080407
 20
1314.5207625519065
 11
458.44847112117799
 21
1401.2251793129485
  0
LINE
  8
_0-0_
  6
CONTINUOUS
 62
    7
 10
458.44847112117799
 20
1401.2251793129485
 11
487.62897478414732
 21
1394.2611139790047
  0
LINE
  8
_0-0_
  6
CONTINUOUS
 62
    7
 10
458.44847112117799
 20
1401.2251793129485
 11
480.23749592156253
 21
1380.6038699886537
  0
TEXT
  8
_1-4_
 62
    7
 10
388.65671641791062
 20
529.51356852103129
 40
40
 41
1
 50
0
  1
 XHP-2
  0
TEXT
  8
_1-4_
 62
    7
 10
388.65671641791062
 20
584.05902306648579
 40
40
 41
1
 50
0
  1
 ULAWM AWG22 2芯
  0
TEXT
  8
_1-4_
 62
    7
 10
100.42681200452984
 20
583.73084182710409
 40
40
 41
1
 50
0
  1
 ケーブル
  0
TEXT
  8
_1-4_
 62
    7
 10
100.03731343283545
 20
529.51356852103129
 40
40
 41
1
 50
0
  1
 コネクター
  0
TEXT
  8
_1-4_
 62
    7
 10
2090.5174122310304
 20
682.67478293695694
 40
40
 41
1
 50
0
  1
ULAWM AWG22 2芯
  0
LINE
  8
_1-4_
  6
CONTINUOUS
 62
    7
 10
2129.5580435105626
 20
1499.4802591530661
 11
2129.5580435105626
 21
1766.6527301315068
  0
LINE
  8
_1-4_
  6
CONTINUOUS
 62
    7
 10
2254.931177838921
 20
1499.4802591530661
 11
2254.931177838921
 21
1559.7870584897159
  0
LINE
  8
_1-4_
  6
CONTINUOUS
 62
    7
 10
1934.0581339363487
 20
1499.4802591530661
 11
1934.0581339363487
 21
1559.7870584897159
  0
LINE
  8
_1-4_
  6
CONTINUOUS
 62
    7
 10
2380.3043121672795
 20
1499.4802591530661
 11
2380.3043121672795
 21
1650.6825808777758
  0
LINE
  8
_1-4_
  6
CONTINUOUS
 62
    7
 10
2546.1971115964302
 20
1716.2132608114412
 11
2546.1971115964302
 21
1825.2016798791992
  0
LINE
  8
_1-4_
  6
CONTINUOUS
 62
    7
 10
2663.9649851914187
 20
1766.6527301315068
 11
2129.5580435105626
 21
1766.6527301315068
  0
LINE
  8
_1-4_
  6
CONTINUOUS
 62
    7
 10
2663.9649851914187
 20
1716.2132608114412
 11
2663.9649851914187
 21
1766.6527301315068
  0
TEXT
  8
_0-0_
 62
    7
 10
1959.4776119402986
 20
262.41873963515752
 40
40
 41
1
 50
0
  1
2
  0
TEXT
  8
_0-0_
 62
    7
 10
1510.5646359583957
 20
55.807578008915243
 40
64
 41
1
 50
0
  1
FABOOL Laser Co2
  0
TEXT
  8
_0-0_
 62
    7
 10
2170.8529645772787
 20
55.318919791522603
 40
70
 41
1
 50
0
  1
2018/05/06
  0
TEXT
  8
_0-0_
 62
    7
 10
2290.8259251802765
 20
154.70773855156676
 40
40
 41
1
 50
0
  1
日付
  0
TEXT
  8
_1-4_
 62
    7
 10
1357.6572527026292
 20
1797.1290558299588
 40
64
 41
1
 50
0
  1
350±10
  0
LINE
  8
_1-4_
  6
CONTINUOUS
 62
    7
 10
421.68486272342062
 20
1826.2049689374771
 11
1322.3669053549193
 21
1826.2049689374771
  0
LINE
  8
_1-4_
  6
CONTINUOUS
 62
    7
 10
2546.1971115964302
 20
1826.2049689374771
 11
1607.94598381071
 21
1826.2049689374771
  0
TEXT
  8
_1-4_
 62
    7
 10
550.18403171007913
 20
1473.7695356738391
 40
30
 41
1
 50
0
  1
White
  0
TEXT
  8
_1-4_
 62
    7
 10
552.42638731596821
 20
1397.5294450736124
 40
30
 41
1
 50
0
  1
Black
  0
TEXT
  8
_1-4_
 62
    7
 10
2209.813137032842
 20
588.52038505096266
 40
40
 41
1
 50
0
  1
White
  0
TEXT
  8
_1-4_
 62
    7
 10
2209.813137032842
 20
528.52038505096266
 40
40
 41
1
 50
0
  1
Black
  0
TEXT
  8
_0-0_
 62
    7
 10
1841.5283649117159
 20
807.67583868219299
 40
35
 41
1
 50
0
  1
Control PCB
  0
TEXT
  8
_0-0_
 62
    7
 10
2344.162775010378
 20
807.67583868219299
 40
35
 41
1
 50
0
  1
Switching Power Supply
  0
TEXT
  8
_1-4_
 62
    7
 10
1120.0373134328356
 20
591.33175033921304
 40
40
 41
1
 50
0
  1
1
  0
TEXT
  8
_1-4_
 62
    7
 10
1120.0373134328356
 20
536.78629579375865
 40
40
 41
1
 50
0
  1
1
  0
TEXT
  8
_0-0_
 62
    7
 10
1931.8189411098529
 20
568.52038505096266
 40
40
 41
1
 50
0
  1
1
  0
TEXT
  8
_0-0_
 62
    7
 10
1931.8189411098529
 20
508.52038505096272
 40
40
 41
1
 50
0
  1
2
  0
TEXT
  8
_0-0_
 62
    7
 10
2527.807332955832
 20
568.52038505096266
 40
40
 41
1
 50
0
  1
1
  0
TEXT
  8
_0-0_
 62
    7
 10
2527.807332955832
 20
508.52038505096272
 40
40
 41
1
 50
0
  1
2
  0
TEXT
  8
_1-4_
 62
    7
 10
388.65671641791062
 20
311.33175033921316
 40
40
 41
1
 50
0
  1
 テプラ9mm
  0
TEXT
  8
_1-4_
 62
    7
 10
388.65671641791062
 20
365.87720488466761
 40
40
 41
1
 50
0
  1
 8Φ-20mm 
  0
TEXT
  8
_1-4_
 62
    7
 10
1120.0373134328356
 20
373.14993215739497
 40
40
 41
1
 50
0
  1
1
  0
TEXT
  8
_1-4_
 62
    7
 10
1120.0373134328356
 20
318.60447761194052
 40
40
 41
1
 50
0
  1
1
  0
TEXT
  8
_1-4_
 62
    7
 10
100.03731343283545
 20
365.87720488466761
 40
40
 41
1
 50
0
  1
 収縮チューブ
  0
TEXT
  8
_1-4_
 62
    7
 10
100.03731343283545
 20
311.33175033921316
 40
40
 41
1
 50
0
  1
 表示
  0
TEXT
  8
_1-4_
 62
    7
 10
388.65671641791062
 20
420.42265943012217
 40
40
 41
1
 50
0
  1
 R1.25-4S
  0
TEXT
  8
_1-4_
 62
    7
 10
1120.0373134328356
 20
427.69538670284942
 40
40
 41
1
 50
0
  1
3
  0
TEXT
  8
_1-4_
 62
    7
 10
100.03731343283545
 20
420.42265943012217
 40
40
 41
1
 50
0
  1
 圧着端子
  0
TEXT
  8
_1-4_
 62
    7
 10
100.03731343283545
 20
474.9681139755769
 40
40
 41
1
 50
0
  1
 Pin
  0
TEXT
  8
_1-4_
 62
    7
 10
388.65671641791062
 20
474.96811397557678
 40
40
 41
1
 50
0
  1
 BXH-001T-P0.6
  0
TEXT
  8
_1-4_
 62
    7
 10
1120.0373134328356
 20
482.24084124830415
 40
40
 41
1
 50
0
  1
2
  0
TEXT
  8
_0-0_
 62
    7
 10
632.48018120045299
 20
1264.856738391846
 40
64
 41
1
 50
0
  1
3
  0
TEXT
  8
_1-4_
 62
    7
 10
2784.3488627622355
 20
1241.2232487802037
 40
64
 41
1
 50
0
  1
4
  0
TEXT
  8
_1-4_
 62
    7
 10
940.38332426756926
 20
1223.0329388778105
 40
64
 41
1
 50
0
  1
5
  0
TEXT
  8
_1-4_
 62
    7
 10
2073.965413819808
 20
1129.7866702210943
 40
64
 41
1
 50
0
  1
6
  0
TEXT
  8
_0-0_
 62
    7
 10
1931.7974263179744
 20
210.06973848069751
 40
40
 41
1
 50
0
  1
Ver.
  0
TEXT
  8
_0-0_
 62
    7
 10
1941.4438225538968
 20
154.96811397557661
 40
40
 41
1
 50
0
  1
5.0
  0
TEXT
  8
_0-0_
 62
    7
 10
1622.4328358208954
 20
389.00000000000011
 40
35
 41
1
 50
0
  1
Power Cable_ver.5.0
  0
TEXT
  8
_1-4_
 62
    7
 10
1859.9252801992529
 20
1471.5298879202987
 40
35
 41
1
 50
-90
  1
Power Ver.5.0
  0
ENDSEC
  0
EOF
