  0
SECTION
  2
HEADER
  9
$ACADVER
  1
AC1009
  9
$INSBASE
 10
0
 20
0
 30
0
  9
$EXTMIN
 10
0
 20
0
  9
$EXTMAX
 10
2940
 20
2079
  9
$LIMMIN
 10
0
 20
0
  9
$LIMMAX
 10
2940
 20
2079
  9
$LTSCALE
 40
7
  0
ENDSEC
  0
SECTION
  2
TABLES
  0
TABLE
  2
LTYPE
 70
     9
  0
LTYPE
  2
CONTINUOUS
 70
    64
  3
実線
 72
    65
 73
     0
 40
0.0
  0
LTYPE
  2
DASHED1
 70
    64
  3
--  --  --  --  --  --  --  --  
 72
    65
 73
     2
 40
2.5
 49
1.25
 49
-1.25
  0
LTYPE
  2
DASHED2
 70
    64
  3
----    ----    ----    ----    
 72
    65
 73
     2
 40
5.0
 49
2.5
 49
-2.5
  0
LTYPE
  2
DASHED3
 70
    64
  3
------  ------  ------  ------  
 72
    65
 73
     2
 40
5.0
 49
3.75
 49
-1.25
  0
LTYPE
  2
CENTER1
 70
    64
  3
----- - ----- - ----- - ----- - 
 72
    65
 73
     4
 40
10.0
 49
6.25
 49
-1.25
 49
1.25
 49
-1.25
  0
LTYPE
  2
CENTER2
 70
    64
  3
----------  --  ----------  --  
 72
    65
 73
     4
 40
20.0
 49
12.5
 49
-2.5
 49
2.5
 49
-2.5
  0
LTYPE
  2
PHANTOM1
 70
    64
  3
--- - - --- - - --- - - --- - - 
 72
    65
 73
     6
 40
10.0
 49
3.25
 49
-1.25
 49
1.25
 49
-1.25
 49
1.25
 49
-1.25
  0
LTYPE
  2
PHANTOM2
 70
    64
  3
--------  -  -  --------  -  -  
 72
    65
 73
     6
 40
20.0
 49
10.0
 49
-2.5
 49
1.25
 49
-2.5
 49
1.25
 49
-2.5
  0
LTYPE
  2
DOT
 70
    64
  3
-   -   -   -   -   -   -   -   
 72
    65
 73
     2
 40
2.5
 49
0.625
 49
-1.875
  0
LTYPE
  2
DUMMY
 70
    64
  3
ダミー
 72
    65
 73
     0
 40
0.0
  0
LTYPE
  2
RAND1
 70
    64
  3
ランダム線1
 72
    65
 73
     4
 40
10.0
 49
1.0
 49
-2.0
 49
3.0
 49
-4.0
  0
LTYPE
  2
RAND2
 70
    64
  3
ランダム線2
 72
    65
 73
     4
 40
14.0
 49
2.0
 49
-3.0
 49
4.0
 49
-5.0
  0
LTYPE
  2
RAND3
 70
    64
  3
ランダム線3
 72
    65
 73
     4
 40
18.0
 49
3.0
 49
-4.0
 49
5.0
 49
-6.0
  0
LTYPE
  2
RAND4
 70
    64
  3
ランダム線4
 72
    65
 73
     4
 40
22.0
 49
4.0
 49
-5.0
 49
6.0
 49
-7.0
  0
LTYPE
  2
RAND5
 70
    64
  3
ランダム線5
 72
    65
 73
     4
 40
26.0
 49
5.0
 49
-6.0
 49
7.0
 49
-8.0
  0
LTYPE
  2
LONG1
 70
    64
  3
----------  --  ----------  --  
 72
    65
 73
     4
 40
40.0
 49
32.5
 49
-2.5
 49
2.5
 49
-2.5
  0
LTYPE
  2
LONG2
 70
    64
  3
--------  -  -  --------  -  -  
 72
    65
 73
     6
 40
40.0
 49
30.0
 49
-2.5
 49
1.25
 49
-2.5
 49
1.25
 49
-2.5
  0
LTYPE
  2
LONG3
 70
    64
  3
+++++++++++++++..+++++++++++++++
 72
    65
 73
     2
 40
40.0
 49
37.5
 49
-2.5
  0
LTYPE
  2
LONG4
 70
    64
  3
+++++++++++++++..+++++++++++++++
 72
    65
 73
     2
 40
80.0
 49
75.0
 49
-5.0
  0
LTYPE
  2
LONG5
 70
    64
  3
----------  --  ----------  --  
 72
    65
 73
     4
 40
60.0
 49
37.5
 49
-7.5
 49
7.5
 49
-7.5
  0
LTYPE
  2
dashed
 70
   64
  3
-------   -------------   ------
 72
   65
 73
    2
 40
7.5
 49
6
 49
-1.5
  0
LTYPE
  2
dashed_spaced
 70
   64
  3
----        --------        ----
 72
   65
 73
    2
 40
12
 49
6
 49
-6
  0
LTYPE
  2
long_dashed_dotted
 70
   64
  3
------------- --- --------------
 72
   65
 73
    4
 40
15.25
 49
12
 49
-1.5
 49
0.25
 49
-1.5
  0
LTYPE
  2
long_dashed_double-dotted
 70
   64
  3
----------- --- --- ------------
 72
   65
 73
    6
 40
17
 49
12
 49
-1.5
 49
0.25
 49
-1.5
 49
0.25
 49
-1.5
  0
LTYPE
  2
long_dashed_triplicate-dotted
 70
   64
  3
--------- --- --- --- ----------
 72
   65
 73
    8
 40
18.75
 49
12
 49
-1.5
 49
0.25
 49
-1.5
 49
0.25
 49
-1.5
 49
0.25
 49
-1.5
  0
LTYPE
  2
dotted
 70
   64
  3
   -       -       -       -    
 72
   65
 73
    2
 40
1.75
 49
0.25
 49
-1.5
  0
LTYPE
  2
chain
 70
   64
  3
-------------- -- --------------
 72
   65
 73
    4
 40
18.5
 49
12
 49
-1.5
 49
3.5
 49
-1.5
  0
LTYPE
  2
chain_double_dash
 70
   64
  3
------------ -- -- -------------
 72
   65
 73
    6
 40
23.5
 49
12
 49
-1.5
 49
3.5
 49
-1.5
 49
3.5
 49
-1.5
  0
LTYPE
  2
dashed_dotted
 70
   64
  3
-----------     -     ----------
 72
   65
 73
    4
 40
9.25
 49
6
 49
-1.5
 49
0.25
 49
-1.5
  0
LTYPE
  2
double-dashed_dotted
 70
   64
  3
------   -----------   -   -----
 72
   65
 73
    6
 40
16.75
 49
6
 49
-1.5
 49
6
 49
-1.5
 49
0.25
 49
-1.5
  0
LTYPE
  2
dashed_double-dotted
 70
   64
  3
---------    -    -    ---------
 72
   65
 73
    6
 40
11
 49
6
 49
-1.5
 49
0.25
 49
-1.5
 49
0.25
 49
-1.5
  0
LTYPE
  2
double-dashed_double-dotted
 70
   64
  3
-----   ---------   -   -   ----
 72
   65
 73
    8
 40
18.5
 49
6
 49
-1.5
 49
6
 49
-1.5
 49
0.25
 49
-1.5
 49
0.25
 49
-1.5
  0
LTYPE
  2
dashed_triplicate-dotted
 70
   64
  3
-------    -    -    -    ------
 72
   65
 73
    8
 40
12.75
 49
6
 49
-1.5
 49
0.25
 49
-1.5
 49
0.25
 49
-1.5
 49
0.25
 49
-1.5
  0
LTYPE
  2
double-dashed_triplicate-dotted
 70
   64
  3
-----  ---------  -  -  -  -----
 72
   65
 73
   10
 40
20.25
 49
6
 49
-1.5
 49
6
 49
-1.5
 49
0.25
 49
-1.5
 49
0.25
 49
-1.5
 49
0.25
 49
-1.5
  0
LTYPE
  2
undefined
 70
   64
  3
--------------------------------
 72
   65
 73
    0
 40
0
  0
LTYPE
  2
_
 70
   64
  3
                                
 72
   65
 73
    0
 40
0
  0
LTYPE
  2
__18
 70
   64
  3
                                
 72
   65
 73
    0
 40
0
  0
LTYPE
  2
__19
 70
   64
  3
                                
 72
   65
 73
    0
 40
0
  0
LTYPE
  2
__20
 70
   64
  3
                                
 72
   65
 73
    0
 40
0
  0
LTYPE
  2
__21
 70
   64
  3
                                
 72
   65
 73
    0
 40
0
  0
LTYPE
  2
__22
 70
   64
  3
                                
 72
   65
 73
    0
 40
0
  0
LTYPE
  2
__23
 70
   64
  3
                                
 72
   65
 73
    0
 40
0
  0
LTYPE
  2
__24
 70
   64
  3
                                
 72
   65
 73
    0
 40
0
  0
LTYPE
  2
__25
 70
   64
  3
                                
 72
   65
 73
    0
 40
0
  0
LTYPE
  2
__26
 70
   64
  3
                                
 72
   65
 73
    0
 40
0
  0
LTYPE
  2
__27
 70
   64
  3
                                
 72
   65
 73
    0
 40
0
  0
LTYPE
  2
__28
 70
   64
  3
                                
 72
   65
 73
    0
 40
0
  0
LTYPE
  2
__29
 70
   64
  3
                                
 72
   65
 73
    0
 40
0
  0
LTYPE
  2
__30
 70
   64
  3
                                
 72
   65
 73
    0
 40
0
  0
LTYPE
  2
__31
 70
   64
  3
                                
 72
   65
 73
    0
 40
0
  0
LTYPE
  2
__32
 70
   64
  3
                                
 72
   65
 73
    0
 40
0
  0
ENDTAB
  0
TABLE
  2
STYLE
  5
3
100
AcDbSymbolTable
 70
     1
  0
STYLE
  5
10
100
AcDbSymbolTableRecord
100
AcDbTextStyleTableRecord
  2
STANDARD
 70
     0
 40
0.0
 41
1.0
 50
0.0
 71
     0
 42
0.2
  3
txt
  4
bigfont.shx
  0
STYLE
  5
26
100
AcDbSymbolTableRecord
100
AcDbTextStyleTableRecord
  2
TATEGAKI
 70
    68
 40
0.0
 41
1.0
 50
0.0
 71
     0
 42
1.0
  3
txt
  4
bigfont.shx
  0
ENDTAB
  0
TABLE
  2
LAYER
 70
    3
  0
LAYER
  2
_0-0_
 70
   64
 62
    7
  6
CONTINUOUS
  0
LAYER
  2
_2-5_
 70
   64
 62
    7
  6
CONTINUOUS
  0
LAYER
  2
ADD_LINE
 70
   64
 62
    7
  6
CONTINUOUS
  0
ENDTAB
  0
ENDSEC
  0
SECTION
  2
BLOCKS
  0
ENDSEC
  0
SECTION
  2
ENTITIES
  0
TEXT
  8
_2-5_
 62
    7
 10
1322.8560444909201
 20
910.91553424796382
 40
40
 41
1
 50
0
  1
黒
  0
TEXT
  8
_2-5_
 62
    7
 10
1322.8560444909201
 20
852.44818807959837
 40
40
 41
1
 50
0
  1
白
  0
TEXT
  8
_2-5_
 62
    7
 10
128.49349649278921
 20
586.97333404116489
 40
40
 41
1
 50
0
  1
ケーブル
  0
TEXT
  8
_2-5_
 62
    7
 10
119.09051141816212
 20
530.55542359340359
 40
40
 41
1
 50
0
  1
コネクター
  0
TEXT
  8
_2-5_
 62
    7
 10
133.19498903010285
 20
474.13751314564274
 40
40
 41
1
 50
0
  1
マイクロSW
  0
TEXT
  8
_2-5_
 62
    7
 10
137.89648156741629
 20
427.12258777250827
 40
40
 41
1
 50
0
  1
センサー
  0
TEXT
  8
_2-5_
 62
    7
 10
114.38901888084908
 20
370.70467732474708
 40
40
 41
1
 50
0
  1
収縮チューブ
  0
TEXT
  8
_2-5_
 62
    7
 10
108.38155619428147
 20
314.15616986206061
 40
40
 41
1
 50
0
  1
収縮チューブ
  0
LINE
  8
_2-5_
  6
CONTINUOUS
 62
    7
 10
904.96534341395591
 20
1611.7909356920127
 11
904.96534341395591
 21
1559.0905487378941
  0
LINE
  8
_2-5_
  6
CONTINUOUS
 62
    7
 10
1155.7116120706721
 20
1625.4407422149536
 11
1155.7116120706721
 21
1545.4407422149538
  0
LINE
  8
_2-5_
  6
CONTINUOUS
 62
    7
 10
1030.3384777423141
 20
1611.7909356920127
 11
904.96534341395591
 21
1611.7909356920127
  0
LINE
  8
_2-5_
  6
CONTINUOUS
 62
    7
 10
1030.3384777423141
 20
1559.0905487378941
 11
904.96534341395591
 21
1559.0905487378941
  0
LINE
  8
_2-5_
  6
CONTINUOUS
 62
    7
 10
1030.3384777423141
 20
1625.4407422149536
 11
1030.3384777423141
 21
1611.7909356920127
  0
LINE
  8
_2-5_
  6
CONTINUOUS
 62
    7
 10
1148.8828253298575
 20
1545.4407422149548
 11
1155.711612070671
 21
1552.2695289557682
  0
LINE
  8
_2-5_
  6
CONTINUOUS
 62
    7
 10
1134.7406897061253
 20
1545.4407422149559
 11
1155.7116120706698
 21
1566.4116645795002
  0
LINE
  8
_2-5_
  6
CONTINUOUS
 62
    7
 10
1120.5985540823876
 20
1545.440742214952
 11
1155.7116120706739
 21
1580.5538002032381
  0
LINE
  8
_2-5_
  6
CONTINUOUS
 62
    7
 10
1106.4564184586748
 20
1545.4407422149543
 11
1155.7116120706714
 21
1594.6959358269505
  0
LINE
  8
_2-5_
  6
CONTINUOUS
 62
    7
 10
1092.3142828349376
 20
1545.4407422149502
 11
1155.7116120706714
 21
1608.8380714506839
  0
LINE
  8
_2-5_
  6
CONTINUOUS
 62
    7
 10
1078.1721472112054
 20
1545.4407422149513
 11
1155.7116120706744
 21
1622.9802070744208
  0
LINE
  8
_2-5_
  6
CONTINUOUS
 62
    7
 10
1064.0300115874732
 20
1545.4407422149525
 11
1144.0300115874729
 21
1625.440742214952
  0
LINE
  8
_2-5_
  6
CONTINUOUS
 62
    7
 10
1049.887875963741
 20
1545.4407422149538
 11
1129.8878759637407
 21
1625.4407422149529
  0
LINE
  8
_2-5_
  6
CONTINUOUS
 62
    7
 10
1035.745740340009
 20
1545.4407422149548
 11
1115.7457403400085
 21
1625.4407422149543
  0
LINE
  8
_2-5_
  6
CONTINUOUS
 62
    7
 10
1030.3384777423166
 20
1554.1756152409955
 11
1101.603604716274
 21
1625.4407422149529
  0
LINE
  8
_2-5_
  6
CONTINUOUS
 62
    7
 10
1021.1112756154805
 20
1559.0905487378934
 11
1087.4614690925389
 21
1625.4407422149516
  0
LINE
  8
_2-5_
  6
CONTINUOUS
 62
    7
 10
1006.9691399917679
 20
1559.0905487378957
 11
1073.3193334688262
 21
1625.4407422149543
  0
LINE
  8
_2-5_
  6
CONTINUOUS
 62
    7
 10
992.82700436803589
 20
1559.0905487378968
 11
1059.1771978450938
 21
1625.4407422149552
  0
LINE
  8
_2-5_
  6
CONTINUOUS
 62
    7
 10
978.68486874429823
 20
1559.0905487378927
 11
1045.0350622213564
 21
1625.4407422149507
  0
LINE
  8
_2-5_
  6
CONTINUOUS
 62
    7
 10
964.54273312056591
 20
1559.0905487378941
 11
1017.2431200746826
 21
1611.7909356920104
  0
LINE
  8
_2-5_
  6
CONTINUOUS
 62
    7
 10
1030.3384777423155
 20
1624.8862933596433
 11
1030.892926597624
 21
1625.440742214952
  0
LINE
  8
_2-5_
  6
CONTINUOUS
 62
    7
 10
950.40059749683394
 20
1559.090548737895
 11
1003.1009844509504
 21
1611.7909356920115
  0
LINE
  8
_2-5_
  6
CONTINUOUS
 62
    7
 10
936.25846187309776
 20
1559.0905487378923
 11
988.95884882721623
 21
1611.7909356920109
  0
LINE
  8
_2-5_
  6
CONTINUOUS
 62
    7
 10
922.11632624936419
 20
1559.0905487378918
 11
974.81671320348073
 21
1611.7909356920086
  0
LINE
  8
_2-5_
  6
CONTINUOUS
 62
    7
 10
907.97419062563222
 20
1559.0905487378927
 11
960.67457757974853
 21
1611.7909356920093
  0
LINE
  8
_2-5_
  6
CONTINUOUS
 62
    7
 10
904.96534341395591
 20
1570.2238371499325
 11
946.53244195603065
 21
1611.790935692007
  0
LINE
  8
_2-5_
  6
CONTINUOUS
 62
    7
 10
904.96534341395682
 20
1584.3659727736663
 11
932.39030633229845
 21
1611.7909356920081
  0
LINE
  8
_2-5_
  6
CONTINUOUS
 62
    7
 10
904.96534341395886
 20
1598.5081083974019
 11
918.24817070856625
 21
1611.7909356920093
  0
LINE
  8
_2-5_
  6
CONTINUOUS
 62
    7
 10
1148.8828253298575
 20
1545.4407422149548
 11
1155.711612070671
 21
1552.2695289557682
  0
LINE
  8
_2-5_
  6
CONTINUOUS
 62
    7
 10
1134.7406897061253
 20
1545.4407422149559
 11
1155.7116120706698
 21
1566.4116645795002
  0
LINE
  8
_2-5_
  6
CONTINUOUS
 62
    7
 10
1120.5985540823876
 20
1545.440742214952
 11
1155.7116120706739
 21
1580.5538002032381
  0
LINE
  8
_2-5_
  6
CONTINUOUS
 62
    7
 10
1106.4564184586748
 20
1545.4407422149543
 11
1155.7116120706714
 21
1594.6959358269505
  0
LINE
  8
_2-5_
  6
CONTINUOUS
 62
    7
 10
1092.3142828349376
 20
1545.4407422149502
 11
1155.7116120706714
 21
1608.8380714506839
  0
LINE
  8
_2-5_
  6
CONTINUOUS
 62
    7
 10
1078.1721472112054
 20
1545.4407422149513
 11
1155.7116120706744
 21
1622.9802070744208
  0
LINE
  8
_2-5_
  6
CONTINUOUS
 62
    7
 10
1064.0300115874732
 20
1545.4407422149525
 11
1144.0300115874729
 21
1625.440742214952
  0
LINE
  8
_2-5_
  6
CONTINUOUS
 62
    7
 10
1049.887875963741
 20
1545.4407422149538
 11
1129.8878759637407
 21
1625.4407422149529
  0
LINE
  8
_2-5_
  6
CONTINUOUS
 62
    7
 10
1035.745740340009
 20
1545.4407422149548
 11
1115.7457403400085
 21
1625.4407422149543
  0
LINE
  8
_2-5_
  6
CONTINUOUS
 62
    7
 10
1030.3384777423166
 20
1554.1756152409955
 11
1101.603604716274
 21
1625.4407422149529
  0
LINE
  8
_2-5_
  6
CONTINUOUS
 62
    7
 10
1021.1112756154805
 20
1559.0905487378934
 11
1087.4614690925389
 21
1625.4407422149516
  0
LINE
  8
_2-5_
  6
CONTINUOUS
 62
    7
 10
1006.9691399917679
 20
1559.0905487378957
 11
1073.3193334688262
 21
1625.4407422149543
  0
LINE
  8
_2-5_
  6
CONTINUOUS
 62
    7
 10
992.82700436803589
 20
1559.0905487378968
 11
1059.1771978450938
 21
1625.4407422149552
  0
LINE
  8
_2-5_
  6
CONTINUOUS
 62
    7
 10
978.68486874429823
 20
1559.0905487378927
 11
1045.0350622213564
 21
1625.4407422149507
  0
LINE
  8
_2-5_
  6
CONTINUOUS
 62
    7
 10
964.54273312056591
 20
1559.0905487378941
 11
1017.2431200746826
 21
1611.7909356920104
  0
LINE
  8
_2-5_
  6
CONTINUOUS
 62
    7
 10
1030.3384777423155
 20
1624.8862933596433
 11
1030.892926597624
 21
1625.440742214952
  0
LINE
  8
_2-5_
  6
CONTINUOUS
 62
    7
 10
950.40059749683394
 20
1559.090548737895
 11
1003.1009844509504
 21
1611.7909356920115
  0
LINE
  8
_2-5_
  6
CONTINUOUS
 62
    7
 10
936.25846187309776
 20
1559.0905487378923
 11
988.95884882721623
 21
1611.7909356920109
  0
LINE
  8
_2-5_
  6
CONTINUOUS
 62
    7
 10
922.11632624936419
 20
1559.0905487378918
 11
974.81671320348073
 21
1611.7909356920086
  0
LINE
  8
_2-5_
  6
CONTINUOUS
 62
    7
 10
907.97419062563222
 20
1559.0905487378927
 11
960.67457757974853
 21
1611.7909356920093
  0
LINE
  8
_2-5_
  6
CONTINUOUS
 62
    7
 10
904.96534341395591
 20
1570.2238371499325
 11
946.53244195603065
 21
1611.790935692007
  0
LINE
  8
_2-5_
  6
CONTINUOUS
 62
    7
 10
904.96534341395682
 20
1584.3659727736663
 11
932.39030633229845
 21
1611.7909356920081
  0
LINE
  8
_2-5_
  6
CONTINUOUS
 62
    7
 10
1030.3384777423141
 20
1625.4407422149536
 11
1155.7116120706721
 21
1625.4407422149536
  0
LINE
  8
_2-5_
  6
CONTINUOUS
 62
    7
 10
1030.3384777423141
 20
1545.4407422149538
 11
1155.7116120706721
 21
1545.4407422149538
  0
LINE
  8
_2-5_
  6
CONTINUOUS
 62
    7
 10
1837.2609759789052
 20
1625.4407422149536
 11
1837.2609759789052
 21
1545.4407422149538
  0
LINE
  8
_2-5_
  6
CONTINUOUS
 62
    7
 10
2088.0072446356221
 20
1611.7909356920127
 11
2088.0072446356221
 21
1559.0905487378941
  0
LINE
  8
_2-5_
  6
CONTINUOUS
 62
    7
 10
1962.634110307263
 20
1611.7909356920127
 11
2088.0072446356221
 21
1611.7909356920127
  0
LINE
  8
_2-5_
  6
CONTINUOUS
 62
    7
 10
1962.634110307263
 20
1559.0905487378941
 11
2088.0072446356221
 21
1559.0905487378941
  0
LINE
  8
_2-5_
  6
CONTINUOUS
 62
    7
 10
1962.634110307263
 20
1625.4407422149536
 11
1962.634110307263
 21
1611.7909356920127
  0
LINE
  8
_2-5_
  6
CONTINUOUS
 62
    7
 10
1844.0897627197201
 20
1545.4407422149548
 11
1837.2609759789066
 21
1552.2695289557682
  0
LINE
  8
_2-5_
  6
CONTINUOUS
 62
    7
 10
1858.2318983434525
 20
1545.4407422149559
 11
1837.2609759789082
 21
1566.4116645795002
  0
LINE
  8
_2-5_
  6
CONTINUOUS
 62
    7
 10
1872.3740339671895
 20
1545.440742214952
 11
1837.2609759789034
 21
1580.5538002032381
  0
LINE
  8
_2-5_
  6
CONTINUOUS
 62
    7
 10
1886.5161695909023
 20
1545.4407422149543
 11
1837.2609759789066
 21
1594.6959358269505
  0
LINE
  8
_2-5_
  6
CONTINUOUS
 62
    7
 10
1900.6583052146402
 20
1545.4407422149502
 11
1837.2609759789066
 21
1608.8380714506839
  0
LINE
  8
_2-5_
  6
CONTINUOUS
 62
    7
 10
1914.8004408383722
 20
1545.4407422149513
 11
1837.2609759789029
 21
1622.9802070744208
  0
LINE
  8
_2-5_
  6
CONTINUOUS
 62
    7
 10
1928.9425764621046
 20
1545.4407422149525
 11
1848.9425764621046
 21
1625.440742214952
  0
LINE
  8
_2-5_
  6
CONTINUOUS
 62
    7
 10
1943.0847120858366
 20
1545.4407422149538
 11
1863.0847120858371
 21
1625.4407422149529
  0
LINE
  8
_2-5_
  6
CONTINUOUS
 62
    7
 10
1957.2268477095686
 20
1545.4407422149548
 11
1877.2268477095693
 21
1625.4407422149543
  0
LINE
  8
_2-5_
  6
CONTINUOUS
 62
    7
 10
1962.6341103072609
 20
1554.1756152409955
 11
1891.3689833333037
 21
1625.4407422149529
  0
LINE
  8
_2-5_
  6
CONTINUOUS
 62
    7
 10
1971.8613124340973
 20
1559.0905487378934
 11
1905.5111189570389
 21
1625.4407422149516
  0
LINE
  8
_2-5_
  6
CONTINUOUS
 62
    7
 10
1986.0034480578092
 20
1559.0905487378957
 11
1919.6532545807513
 21
1625.4407422149543
  0
LINE
  8
_2-5_
  6
CONTINUOUS
 62
    7
 10
2000.1455836815417
 20
1559.0905487378968
 11
1933.7953902044837
 21
1625.4407422149552
  0
LINE
  8
_2-5_
  6
CONTINUOUS
 62
    7
 10
2014.2877193052796
 20
1559.0905487378927
 11
1947.9375258282207
 21
1625.4407422149507
  0
LINE
  8
_2-5_
  6
CONTINUOUS
 62
    7
 10
2028.4298549290115
 20
1559.0905487378941
 11
1975.7294679748952
 21
1611.7909356920104
  0
LINE
  8
_2-5_
  6
CONTINUOUS
 62
    7
 10
1962.6341103072623
 20
1624.8862933596433
 11
1962.0796614519531
 21
1625.440742214952
  0
LINE
  8
_2-5_
  6
CONTINUOUS
 62
    7
 10
2042.571990552744
 20
1559.090548737895
 11
1989.8716035986272
 21
1611.7909356920115
  0
LINE
  8
_2-5_
  6
CONTINUOUS
 62
    7
 10
2056.7141261764809
 20
1559.0905487378923
 11
2004.0137392223617
 21
1611.7909356920109
  0
LINE
  8
_2-5_
  6
CONTINUOUS
 62
    7
 10
2070.8562618002138
 20
1559.0905487378918
 11
2018.1558748460968
 21
1611.7909356920086
  0
LINE
  8
_2-5_
  6
CONTINUOUS
 62
    7
 10
2084.9983974239458
 20
1559.0905487378927
 11
2032.2980104698295
 21
1611.7909356920093
  0
LINE
  8
_2-5_
  6
CONTINUOUS
 62
    7
 10
2088.0072446356216
 20
1570.2238371499325
 11
2046.4401460935474
 21
1611.790935692007
  0
LINE
  8
_2-5_
  6
CONTINUOUS
 62
    7
 10
2088.0072446356207
 20
1584.3659727736663
 11
2060.5822817172802
 21
1611.7909356920081
  0
LINE
  8
_2-5_
  6
CONTINUOUS
 62
    7
 10
2088.0072446356189
 20
1598.5081083974019
 11
2074.7244173410118
 21
1611.7909356920093
  0
LINE
  8
_2-5_
  6
CONTINUOUS
 62
    7
 10
1844.0897627197201
 20
1545.4407422149548
 11
1837.2609759789066
 21
1552.2695289557682
  0
LINE
  8
_2-5_
  6
CONTINUOUS
 62
    7
 10
1858.2318983434525
 20
1545.4407422149559
 11
1837.2609759789082
 21
1566.4116645795002
  0
LINE
  8
_2-5_
  6
CONTINUOUS
 62
    7
 10
1872.3740339671895
 20
1545.440742214952
 11
1837.2609759789034
 21
1580.5538002032381
  0
LINE
  8
_2-5_
  6
CONTINUOUS
 62
    7
 10
1886.5161695909023
 20
1545.4407422149543
 11
1837.2609759789066
 21
1594.6959358269505
  0
LINE
  8
_2-5_
  6
CONTINUOUS
 62
    7
 10
1900.6583052146402
 20
1545.4407422149502
 11
1837.2609759789066
 21
1608.8380714506839
  0
LINE
  8
_2-5_
  6
CONTINUOUS
 62
    7
 10
1914.8004408383722
 20
1545.4407422149513
 11
1837.2609759789029
 21
1622.9802070744208
  0
LINE
  8
_2-5_
  6
CONTINUOUS
 62
    7
 10
1928.9425764621046
 20
1545.4407422149525
 11
1848.9425764621046
 21
1625.440742214952
  0
LINE
  8
_2-5_
  6
CONTINUOUS
 62
    7
 10
1943.0847120858366
 20
1545.4407422149538
 11
1863.0847120858371
 21
1625.4407422149529
  0
LINE
  8
_2-5_
  6
CONTINUOUS
 62
    7
 10
1957.2268477095686
 20
1545.4407422149548
 11
1877.2268477095693
 21
1625.4407422149543
  0
LINE
  8
_2-5_
  6
CONTINUOUS
 62
    7
 10
1962.6341103072609
 20
1554.1756152409955
 11
1891.3689833333037
 21
1625.4407422149529
  0
LINE
  8
_2-5_
  6
CONTINUOUS
 62
    7
 10
1971.8613124340973
 20
1559.0905487378934
 11
1905.5111189570389
 21
1625.4407422149516
  0
LINE
  8
_2-5_
  6
CONTINUOUS
 62
    7
 10
1986.0034480578092
 20
1559.0905487378957
 11
1919.6532545807513
 21
1625.4407422149543
  0
LINE
  8
_2-5_
  6
CONTINUOUS
 62
    7
 10
2000.1455836815417
 20
1559.0905487378968
 11
1933.7953902044837
 21
1625.4407422149552
  0
LINE
  8
_2-5_
  6
CONTINUOUS
 62
    7
 10
2014.2877193052796
 20
1559.0905487378927
 11
1947.9375258282207
 21
1625.4407422149507
  0
LINE
  8
_2-5_
  6
CONTINUOUS
 62
    7
 10
2028.4298549290115
 20
1559.0905487378941
 11
1975.7294679748952
 21
1611.7909356920104
  0
LINE
  8
_2-5_
  6
CONTINUOUS
 62
    7
 10
1962.6341103072623
 20
1624.8862933596433
 11
1962.0796614519531
 21
1625.440742214952
  0
LINE
  8
_2-5_
  6
CONTINUOUS
 62
    7
 10
2042.571990552744
 20
1559.090548737895
 11
1989.8716035986272
 21
1611.7909356920115
  0
LINE
  8
_2-5_
  6
CONTINUOUS
 62
    7
 10
2056.7141261764809
 20
1559.0905487378923
 11
2004.0137392223617
 21
1611.7909356920109
  0
LINE
  8
_2-5_
  6
CONTINUOUS
 62
    7
 10
2070.8562618002138
 20
1559.0905487378918
 11
2018.1558748460968
 21
1611.7909356920086
  0
LINE
  8
_2-5_
  6
CONTINUOUS
 62
    7
 10
2084.9983974239458
 20
1559.0905487378927
 11
2032.2980104698295
 21
1611.7909356920093
  0
LINE
  8
_2-5_
  6
CONTINUOUS
 62
    7
 10
2088.0072446356216
 20
1570.2238371499325
 11
2046.4401460935474
 21
1611.790935692007
  0
LINE
  8
_2-5_
  6
CONTINUOUS
 62
    7
 10
2088.0072446356207
 20
1584.3659727736663
 11
2060.5822817172802
 21
1611.7909356920081
  0
LINE
  8
_2-5_
  6
CONTINUOUS
 62
    7
 10
2088.0072446356189
 20
1598.5081083974019
 11
2074.7244173410118
 21
1611.7909356920093
  0
LINE
  8
_2-5_
  6
CONTINUOUS
 62
    7
 10
1837.2609759789029
 20
1625.4407422149536
 11
1962.0796614519531
 21
1625.4407422149536
  0
LINE
  8
_2-5_
  6
CONTINUOUS
 62
    7
 10
1155.7116120706721
 20
1625.4407422149536
 11
1837.2609759789052
 21
1625.4407422149536
  0
LINE
  8
_2-5_
  6
CONTINUOUS
 62
    7
 10
1482.8952575911694
 20
1563.921017554534
 11
1667.8206307254979
 21
1460.4881817336384
  0
LINE
  8
_2-5_
  6
CONTINUOUS
 62
    7
 10
1482.8952575911694
 20
1563.921017554534
 11
1511.976144351303
 21
1556.5520267658098
  0
LINE
  8
_2-5_
  6
CONTINUOUS
 62
    7
 10
1482.8952575911694
 20
1563.921017554534
 11
1504.3955488956617
 21
1542.9988409511789
  0
LINE
  8
_2-5_
  6
CONTINUOUS
 62
    7
 10
1113.0445113225128
 20
1563.921017554534
 11
1272.8952575911694
 21
1457.3538533754295
  0
LINE
  8
_2-5_
  6
CONTINUOUS
 62
    7
 10
1113.0445113225128
 20
1563.921017554534
 11
1141.4624866178387
 21
1554.3075540728205
  0
LINE
  8
_2-5_
  6
CONTINUOUS
 62
    7
 10
1113.0445113225128
 20
1563.921017554534
 11
1132.8484681115269
 21
1541.3865263133532
  0
LINE
  8
_2-5_
  6
CONTINUOUS
 62
    7
 10
656.66148584265534
 20
1607.0194694028792
 11
905.05891502297709
 21
1607.0194694028792
  0
LINE
  8
_2-5_
  6
CONTINUOUS
 62
    7
 10
905.05891502297709
 20
1607.0194694028792
 11
905.05891502297709
 21
1594.6856651729997
  0
LINE
  8
_2-5_
  6
CONTINUOUS
 62
    7
 10
656.66148584265534
 20
1594.6856651729997
 11
905.05891502297709
 21
1594.6856651729997
  0
LINE
  8
_2-5_
  6
CONTINUOUS
 62
    7
 10
656.66148584265557
 20
1600.1283920773212
 11
662.10421274697808
 21
1594.6856651729986
  0
LINE
  8
_2-5_
  6
CONTINUOUS
 62
    7
 10
663.912544140828
 20
1607.0194694028819
 11
676.24634837071062
 21
1594.6856651729991
  0
LINE
  8
_2-5_
  6
CONTINUOUS
 62
    7
 10
678.05467976456021
 20
1607.0194694028828
 11
690.38848399444282
 21
1594.6856651730004
  0
LINE
  8
_2-5_
  6
CONTINUOUS
 62
    7
 10
692.1968153882724
 20
1607.0194694028858
 11
704.53061961815456
 21
1594.6856651730036
  0
LINE
  8
_2-5_
  6
CONTINUOUS
 62
    7
 10
706.33895101201063
 20
1607.0194694028805
 11
718.6727552418879
 21
1594.6856651730036
  0
LINE
  8
_2-5_
  6
CONTINUOUS
 62
    7
 10
720.48108663574703
 20
1607.0194694028778
 11
732.81489086562931
 21
1594.6856651729959
  0
LINE
  8
_2-5_
  6
CONTINUOUS
 62
    7
 10
734.62322225947901
 20
1607.0194694028792
 11
746.9570264893614
 21
1594.6856651729968
  0
LINE
  8
_2-5_
  6
CONTINUOUS
 62
    7
 10
748.76535788321121
 20
1607.0194694028805
 11
761.09916211309326
 21
1594.6856651729981
  0
LINE
  8
_2-5_
  6
CONTINUOUS
 62
    7
 10
762.9074935069433
 20
1607.0194694028819
 11
775.24129773682546
 21
1594.6856651729991
  0
LINE
  8
_2-5_
  6
CONTINUOUS
 62
    7
 10
777.0496291306755
 20
1607.0194694028828
 11
789.38343336055766
 21
1594.6856651730009
  0
LINE
  8
_2-5_
  6
CONTINUOUS
 62
    7
 10
791.19176475440759
 20
1607.0194694028842
 11
803.52556898428986
 21
1594.6856651730018
  0
LINE
  8
_2-5_
  6
CONTINUOUS
 62
    7
 10
805.33390037812319
 20
1607.0194694028835
 11
817.66770460800558
 21
1594.6856651730013
  0
LINE
  8
_2-5_
  6
CONTINUOUS
 62
    7
 10
819.47603600186267
 20
1607.0194694028773
 11
831.8098402317396
 21
1594.6856651730004
  0
LINE
  8
_2-5_
  6
CONTINUOUS
 62
    7
 10
833.61817162559851
 20
1607.0194694028751
 11
845.95197585548067
 21
1594.6856651729922
  0
LINE
  8
_2-5_
  6
CONTINUOUS
 62
    7
 10
847.76030724933094
 20
1607.019469402876
 11
860.09411147921355
 21
1594.6856651729936
  0
LINE
  8
_2-5_
  6
CONTINUOUS
 62
    7
 10
861.90244287306314
 20
1607.0194694028767
 11
874.23624710294575
 21
1594.6856651729945
  0
LINE
  8
_2-5_
  6
CONTINUOUS
 62
    7
 10
876.04457849679557
 20
1607.0194694028778
 11
888.37838272667818
 21
1594.6856651729952
  0
LINE
  8
_2-5_
  6
CONTINUOUS
 62
    7
 10
890.18671412052799
 20
1607.0194694028792
 11
902.52051835041038
 21
1594.6856651729963
  0
LINE
  8
_2-5_
  6
CONTINUOUS
 62
    7
 10
904.32884974423575
 20
1607.0194694028864
 11
905.05891502298437
 21
1606.2894041241375
  0
LINE
  8
_2-5_
  6
CONTINUOUS
 62
    7
 10
656.66148584265534
 20
1579.2275647287188
 11
905.05891502297709
 21
1579.2275647287188
  0
LINE
  8
_2-5_
  6
CONTINUOUS
 62
    7
 10
905.05891502297709
 20
1579.2275647287188
 11
905.05891502297709
 21
1566.8937604988396
  0
LINE
  8
_2-5_
  6
CONTINUOUS
 62
    7
 10
656.66148584265534
 20
1566.8937604988396
 11
905.05891502297709
 21
1566.8937604988396
  0
LINE
  8
_2-5_
  6
CONTINUOUS
 62
    7
 10
656.66148584265557
 20
1572.3364874031608
 11
662.10421274697808
 21
1566.8937604988384
  0
LINE
  8
_2-5_
  6
CONTINUOUS
 62
    7
 10
663.912544140828
 20
1579.2275647287215
 11
676.24634837071062
 21
1566.8937604988391
  0
LINE
  8
_2-5_
  6
CONTINUOUS
 62
    7
 10
678.05467976456021
 20
1579.2275647287229
 11
690.38848399444282
 21
1566.89376049884
  0
LINE
  8
_2-5_
  6
CONTINUOUS
 62
    7
 10
692.1968153882724
 20
1579.2275647287256
 11
704.53061961815456
 21
1566.8937604988437
  0
LINE
  8
_2-5_
  6
CONTINUOUS
 62
    7
 10
706.33895101201063
 20
1579.2275647287206
 11
718.6727552418879
 21
1566.8937604988437
  0
LINE
  8
_2-5_
  6
CONTINUOUS
 62
    7
 10
720.48108663574703
 20
1579.2275647287177
 11
732.81489086562931
 21
1566.8937604988355
  0
LINE
  8
_2-5_
  6
CONTINUOUS
 62
    7
 10
734.62322225947901
 20
1579.2275647287188
 11
746.9570264893614
 21
1566.8937604988369
  0
LINE
  8
_2-5_
  6
CONTINUOUS
 62
    7
 10
748.76535788321121
 20
1579.2275647287206
 11
761.09916211309326
 21
1566.8937604988378
  0
LINE
  8
_2-5_
  6
CONTINUOUS
 62
    7
 10
762.9074935069433
 20
1579.2275647287215
 11
775.24129773682546
 21
1566.8937604988391
  0
LINE
  8
_2-5_
  6
CONTINUOUS
 62
    7
 10
777.0496291306755
 20
1579.2275647287229
 11
789.38343336055766
 21
1566.8937604988407
  0
LINE
  8
_2-5_
  6
CONTINUOUS
 62
    7
 10
791.19176475440759
 20
1579.2275647287238
 11
803.52556898428986
 21
1566.8937604988419
  0
LINE
  8
_2-5_
  6
CONTINUOUS
 62
    7
 10
805.33390037812319
 20
1579.2275647287233
 11
817.66770460800558
 21
1566.8937604988414
  0
LINE
  8
_2-5_
  6
CONTINUOUS
 62
    7
 10
819.47603600186267
 20
1579.227564728717
 11
831.8098402317396
 21
1566.89376049884
  0
LINE
  8
_2-5_
  6
CONTINUOUS
 62
    7
 10
833.61817162559851
 20
1579.2275647287147
 11
845.95197585548067
 21
1566.8937604988323
  0
LINE
  8
_2-5_
  6
CONTINUOUS
 62
    7
 10
847.76030724933094
 20
1579.2275647287161
 11
860.09411147921355
 21
1566.8937604988332
  0
LINE
  8
_2-5_
  6
CONTINUOUS
 62
    7
 10
861.90244287306314
 20
1579.2275647287165
 11
874.23624710294575
 21
1566.8937604988346
  0
LINE
  8
_2-5_
  6
CONTINUOUS
 62
    7
 10
876.04457849679557
 20
1579.2275647287177
 11
888.37838272667818
 21
1566.893760498835
  0
LINE
  8
_2-5_
  6
CONTINUOUS
 62
    7
 10
890.18671412052799
 20
1579.2275647287188
 11
902.52051835041038
 21
1566.8937604988364
  0
LINE
  8
_2-5_
  6
CONTINUOUS
 62
    7
 10
904.32884974423575
 20
1579.2275647287261
 11
905.05891502298437
 21
1578.4974994499771
  0
LINE
  8
_2-5_
  6
CONTINUOUS
 62
    7
 10
2684.1610483414138
 20
1472.7824347186856
 11
2599.5341826697722
 21
1472.7824347186856
  0
LINE
  8
_2-5_
  6
CONTINUOUS
 62
    7
 10
2599.5341826697722
 20
1479.59282720072
 11
2586.9968692369362
 21
1479.59282720072
  0
LINE
  8
_2-5_
  6
CONTINUOUS
 62
    7
 10
2684.1610483414138
 20
1472.7824347186856
 11
2684.1610483414138
 21
1392.6829322311237
  0
LINE
  8
_2-5_
  6
CONTINUOUS
 62
    7
 10
2684.1610483414138
 20
1392.6829322311237
 11
2599.5341826697722
 21
1392.6829322311237
  0
LINE
  8
_2-5_
  6
CONTINUOUS
 62
    7
 10
2625.8026346485622
 20
1392.6829322311237
 11
2599.5341826697722
 21
1392.6829322311237
  0
LINE
  8
_2-5_
  6
CONTINUOUS
 62
    7
 10
2586.9968692369362
 20
1384.4838044134219
 11
2586.9968692369362
 21
1479.59282720072
  0
LINE
  8
_2-5_
  6
CONTINUOUS
 62
    7
 10
2599.5341826697722
 20
1479.59282720072
 11
2599.5341826697722
 21
1384.4838044134219
  0
LINE
  8
_2-5_
  6
CONTINUOUS
 62
    7
 10
2599.5341826697722
 20
1384.4838044134219
 11
2586.9968692369362
 21
1384.4838044134219
  0
LINE
  8
_2-5_
  6
CONTINUOUS
 62
    7
 10
2677.892391624996
 20
1742.334673524656
 11
2593.265525953354
 21
1742.334673524656
  0
LINE
  8
_2-5_
  6
CONTINUOUS
 62
    7
 10
2593.265525953354
 20
1749.1450660066903
 11
2580.7282125205174
 21
1749.1450660066903
  0
LINE
  8
_2-5_
  6
CONTINUOUS
 62
    7
 10
2677.892391624996
 20
1742.334673524656
 11
2677.892391624996
 21
1662.2351710370936
  0
LINE
  8
_2-5_
  6
CONTINUOUS
 62
    7
 10
2677.892391624996
 20
1662.2351710370936
 11
2593.265525953354
 21
1662.2351710370936
  0
LINE
  8
_2-5_
  6
CONTINUOUS
 62
    7
 10
2619.5339779321439
 20
1662.2351710370936
 11
2593.265525953354
 21
1662.2351710370936
  0
LINE
  8
_2-5_
  6
CONTINUOUS
 62
    7
 10
2593.265525953354
 20
1749.1450660066903
 11
2593.265525953354
 21
1654.036043219392
  0
LINE
  8
_2-5_
  6
CONTINUOUS
 62
    7
 10
2593.265525953354
 20
1654.036043219392
 11
2580.7282125205174
 21
1654.036043219392
  0
LINE
  8
_2-5_
  6
CONTINUOUS
 62
    7
 10
370.40763537965836
 20
1841.2171184520848
 11
341.15390403637508
 21
1841.2171184520848
  0
LINE
  8
_2-5_
  6
CONTINUOUS
 62
    7
 10
378.76584433488244
 20
1839.1275662132791
 11
378.76584433488244
 21
1809.8738348699953
  0
LINE
  8
_2-5_
  6
CONTINUOUS
 62
    7
 10
378.76584433488244
 20
1841.2171184520848
 11
378.76584433488244
 21
1663.6051781535773
  0
LINE
  8
_2-5_
  6
CONTINUOUS
 62
    7
 10
378.76584433488244
 20
1841.2171184520848
 11
276.37778463338935
 21
1841.2171184520848
  0
CIRCLE
  8
_2-5_
  6
CONTINUOUS
 62
    7
 10
362.74594383736979
 20
1791.0678647207415
 40
12.000000000000002
  0
CIRCLE
  8
_2-5_
  6
CONTINUOUS
 62
    7
 10
362.74594383736979
 20
1713.7544318849207
 40
12.000000000000002
  0
LINE
  8
_2-5_
  6
CONTINUOUS
 62
    7
 10
276.37778463338935
 20
1841.2171184520848
 11
276.37778463338935
 21
1814.7494567605427
  0
LINE
  8
_2-5_
  6
CONTINUOUS
 62
    7
 10
286.12902841448425
 20
1784.1026905913886
 11
276.58416016314874
 21
1784.1026905913886
  0
LINE
  8
_2-5_
  6
CONTINUOUS
 62
    7
 10
276.58416016314874
 20
1802.2121433277068
 11
276.58416016314874
 21
1784.1026905913886
  0
LINE
  8
_2-5_
  6
CONTINUOUS
 62
    7
 10
286.12902841448425
 20
1663.6051781535773
 11
378.76584433488244
 21
1663.6051781535773
  0
LINE
  8
_2-5_
  6
CONTINUOUS
 62
    7
 10
286.12902841448425
 20
1784.1026905913886
 11
286.12902841448425
 21
1663.6051781535773
  0
LINE
  8
_2-5_
  6
CONTINUOUS
 62
    7
 10
265.51323551120493
 20
1802.2121433277068
 11
276.58416016314874
 21
1802.2121433277068
  0
LINE
  8
_2-5_
  6
CONTINUOUS
 62
    7
 10
276.37778463338935
 20
1814.7494567605427
 11
265.51323551120493
 21
1814.7494567605427
  0
LINE
  8
_2-5_
  6
CONTINUOUS
 62
    7
 10
265.51323551120493
 20
1814.7494567605427
 11
265.51323551120493
 21
1802.2121433277068
  0
LINE
  8
_2-5_
  6
CONTINUOUS
 62
    7
 10
276.37778463339015
 20
1829.4823765238657
 11
271.68409195657642
 21
1829.4823765238657
  0
LINE
  8
_2-5_
  6
CONTINUOUS
 62
    7
 10
271.68409195657642
 20
1829.4823765238657
 11
224.46264288821342
 21
1716.7411668731502
  0
LINE
  8
_2-5_
  6
CONTINUOUS
 62
    7
 10
188.90487995623943
 20
1745.8823186452282
 11
188.82869878690241
 21
1745.911752278836
  0
ARC
  8
_2-5_
  6
CONTINUOUS
 62
    7
 10
188.38155180575853
 20
1737.5535433236123
 40
12.000000000000002
 50
20.415026286860972
 51
302.65186285597002
  0
LINE
  8
_2-5_
  6
CONTINUOUS
 62
    7
 10
190.69538027669847
 20
1745.1905344305055
 11
229.69105367910771
 21
1730.1240242523018
  0
ARC
  8
_2-5_
  6
CONTINUOUS
 62
    7
 10
188.53298460148511
 20
1739.5937456240717
 40
6.0000000000000009
 50
68.875280853927592
 51
158.96248897457778
  0
LINE
  8
_2-5_
  6
CONTINUOUS
 62
    7
 10
181.75915353302707
 20
1738.6958507787024
 11
182.93291096426725
 21
1741.7476200999249
  0
LINE
  8
_2-5_
  6
CONTINUOUS
 62
    7
 10
185.31841068031864
 20
1730.8997189483459
 11
224.46264288821342
 21
1716.7411668731502
  0
ARC
  8
_2-5_
  6
CONTINUOUS
 62
    7
 10
187.35922717024553
 20
1736.541976302849
 40
6.0000000000000009
 50
158.96248897457738
 51
250.11483488614456
  0
CIRCLE
  8
_2-5_
  6
CONTINUOUS
 62
    7
 10
188.86309470852871
 20
1737.5191474019853
 40
6.0000000000000009
  0
LINE
  8
_2-5_
  6
CONTINUOUS
 62
    7
 10
378.76584433488244
 20
1684.6841454569785
 11
404.49112738465431
 21
1684.6841454569785
  0
TEXT
  8
_2-5_
 62
    7
 10
302.94883882744006
 20
1810.8512523095462
 40
30
 41
1
 50
0
  1
COM
  0
TEXT
  8
_2-5_
 62
    7
 10
314.876699523958
 20
1739.0325679535486
 40
30
 41
1
 50
0
  1
CN
  0
TEXT
  8
_2-5_
 62
    7
 10
314.257572934682
 20
1665.3565038297234
 40
30
 41
1
 50
0
  1
NC
  0
LINE
  8
_2-5_
  6
CONTINUOUS
 62
    7
 10
402.47896596950807
 20
1755.5942042166771
 11
389.68368312447416
 21
1755.1814531571601
  0
LINE
  8
_2-5_
  6
CONTINUOUS
 62
    7
 10
415.99656316869675
 20
1832.7786523463994
 11
415.99656316869675
 21
1814.204854668124
  0
LINE
  8
_2-5_
  6
CONTINUOUS
 62
    7
 10
415.99656316869675
 20
1814.204854668124
 11
382.56372734780166
 21
1814.204854668124
  0
LINE
  8
_2-5_
  6
CONTINUOUS
 62
    7
 10
415.99656316869675
 20
1832.7786523463994
 11
382.56372734780166
 21
1832.7786523463994
  0
LINE
  8
_2-5_
  6
CONTINUOUS
 62
    7
 10
382.56372734780166
 20
1814.204854668124
 11
382.56372734780166
 21
1832.7786523463994
  0
LINE
  8
_2-5_
  6
CONTINUOUS
 62
    7
 10
415.94840887841968
 20
1762.1707044316522
 11
415.94840887841968
 21
1743.5969067533765
  0
LINE
  8
_2-5_
  6
CONTINUOUS
 62
    7
 10
415.94840887841968
 20
1743.5969067533765
 11
382.51557305752436
 21
1743.5969067533765
  0
LINE
  8
_2-5_
  6
CONTINUOUS
 62
    7
 10
415.94840887841968
 20
1762.1707044316522
 11
382.51557305752436
 21
1762.1707044316522
  0
LINE
  8
_2-5_
  6
CONTINUOUS
 62
    7
 10
382.51557305752436
 20
1743.5969067533765
 11
382.51557305752436
 21
1762.1707044316522
  0
LINE
  8
_2-5_
  6
CONTINUOUS
 62
    7
 10
389.65279049116128
 20
1755.1233304192265
 11
389.65279049116128
 21
1752.5551016044524
  0
LINE
  8
_2-5_
  6
CONTINUOUS
 62
    7
 10
404.32838371844036
 20
1823.4565613837453
 11
404.32838371844036
 21
1820.1381511486843
  0
LINE
  8
_2-5_
  6
CONTINUOUS
 62
    7
 10
378.76584433488244
 20
1820.1381511486843
 11
404.32838371844036
 21
1820.1381511486843
  0
LINE
  8
_2-5_
  6
CONTINUOUS
 62
    7
 10
402.47896596950807
 20
1755.5942042166771
 11
402.47896596950807
 21
1752.411148302831
  0
LINE
  8
_2-5_
  6
CONTINUOUS
 62
    7
 10
402.47896596950807
 20
1752.411148302831
 11
378.76584433488244
 21
1752.411148302831
  0
LINE
  8
_2-5_
  6
CONTINUOUS
 62
    7
 10
386.38167464833595
 20
1823.2853779775028
 11
386.38167464833595
 21
1820.1381511486843
  0
LINE
  8
_2-5_
  6
CONTINUOUS
 62
    7
 10
402.06621490999089
 20
1823.2853779775028
 11
386.38167464833595
 21
1823.2853779775028
  0
LINE
  8
_2-5_
  6
CONTINUOUS
 62
    7
 10
415.99656316869977
 20
1825.0623651574497
 11
405.13905267937304
 21
1814.2048546681233
  0
LINE
  8
_2-5_
  6
CONTINUOUS
 62
    7
 10
409.57071473391341
 20
1832.7786523463963
 11
390.99691705564146
 21
1814.2048546681244
  0
LINE
  8
_2-5_
  6
CONTINUOUS
 62
    7
 10
395.42857911018143
 20
1832.7786523463978
 11
382.56372734780047
 21
1819.9138005840171
  0
LINE
  8
_2-5_
  6
CONTINUOUS
 62
    7
 10
415.94840887841968
 20
1754.3035327485213
 11
405.24178288327391
 21
1743.5969067533752
  0
LINE
  8
_2-5_
  6
CONTINUOUS
 62
    7
 10
409.67344493783941
 20
1762.1707044316558
 11
391.09964725956166
 21
1743.5969067533779
  0
LINE
  8
_2-5_
  6
CONTINUOUS
 62
    7
 10
395.53130931410726
 20
1762.1707044316572
 11
382.51557305752056
 21
1749.1549681750707
  0
LINE
  8
_2-5_
  6
CONTINUOUS
 62
    7
 10
656.66148584265534
 20
1607.0194694028792
 11
656.66148584265534
 21
1594.6856651729997
  0
LINE
  8
_2-5_
  6
CONTINUOUS
 62
    7
 10
656.66148584265534
 20
1579.2275647287188
 11
656.66148584265534
 21
1566.8937604988396
  0
LINE
  8
_2-5_
  6
CONTINUOUS
 62
    7
 10
404.32838371844036
 20
1823.4565613837453
 11
455.96806424047003
 21
1823.4565613837453
  0
LINE
  8
_2-5_
  6
CONTINUOUS
 62
    7
 10
402.47896596950807
 20
1755.5942042166771
 11
446.68116540133212
 21
1755.5942042166771
  0
LINE
  8
_2-5_
  6
CONTINUOUS
 62
    7
 10
455.96806424047003
 20
1823.4565613837453
 11
656.56507916584303
 21
1602.669179658757
  0
LINE
  8
_2-5_
  6
CONTINUOUS
 62
    7
 10
446.68116540133212
 20
1755.5942042166771
 11
656.56507916584303
 21
1598.3352935338257
  0
LINE
  8
_2-5_
  6
CONTINUOUS
 62
    7
 10
467.57668778939183
 20
1502.5254538433894
 11
500.08083372637373
 21
1537.8156694321124
  0
LINE
  8
_2-5_
  6
CONTINUOUS
 62
    7
 10
467.57668778939183
 20
1478.3795168616316
 11
509.36773256551135
 21
1523.8853211734061
  0
LINE
  8
_2-5_
  6
CONTINUOUS
 62
    7
 10
500.08083372637373
 20
1537.8156694321124
 11
656.66148584265534
 21
1576.2576259397026
  0
LINE
  8
_2-5_
  6
CONTINUOUS
 62
    7
 10
509.36773256551135
 20
1523.8853211734061
 11
656.66148584265534
 21
1569.8559830242343
  0
LINE
  8
_2-5_
  6
CONTINUOUS
 62
    7
 10
497.32915999625885
 20
1542.2527433219225
 11
464.92706162785964
 21
1507.3581758482615
  0
LINE
  8
_2-5_
  6
CONTINUOUS
 62
    7
 10
467.6110837110183
 20
1503.4541437273031
 11
464.92706162785964
 21
1507.3581758482615
  0
LINE
  8
_2-5_
  6
CONTINUOUS
 62
    7
 10
467.6110837110183
 20
1503.4541437273031
 11
470.91309218715634
 21
1499.3266331321306
  0
LINE
  8
_2-5_
  6
CONTINUOUS
 62
    7
 10
470.91309218715634
 20
1499.3266331321306
 11
501.86942165094842
 21
1533.1722200125432
  0
LINE
  8
_2-5_
  6
CONTINUOUS
 62
    7
 10
501.86942165094842
 20
1533.1722200125432
 11
497.32915999625885
 21
1542.2527433219225
  0
LINE
  8
_2-5_
  6
CONTINUOUS
 62
    7
 10
475.46734024975558
 20
1479.6143114447491
 11
506.42366971354784
 21
1513.4598983251617
  0
LINE
  8
_2-5_
  6
CONTINUOUS
 62
    7
 10
506.42366971354784
 20
1513.4598983251617
 11
501.88340805885855
 21
1522.5404216345405
  0
LINE
  8
_2-5_
  6
CONTINUOUS
 62
    7
 10
501.88340805885855
 20
1522.5404216345405
 11
469.48130969045894
 21
1487.6458541608795
  0
LINE
  8
_2-5_
  6
CONTINUOUS
 62
    7
 10
472.16533177361782
 20
1483.7418220399211
 11
469.48130969045894
 21
1487.6458541608795
  0
LINE
  8
_2-5_
  6
CONTINUOUS
 62
    7
 10
472.16533177361782
 20
1483.7418220399211
 11
475.46734024975558
 21
1479.6143114447491
  0
LINE
  8
_2-5_
  6
CONTINUOUS
 62
    7
 10
492.79386962711652
 20
1523.2496164664869
 11
492.79386962711652
 21
1537.3685844628458
  0
LINE
  8
_2-5_
  6
CONTINUOUS
 62
    7
 10
482.79386962711641
 20
1512.3162831331538
 11
482.79386962711641
 21
1526.5993536936153
  0
LINE
  8
_2-5_
  6
CONTINUOUS
 62
    7
 10
472.79386962711646
 20
1501.3829497998204
 11
472.79386962711646
 21
1515.8301229243843
  0
LINE
  8
_2-5_
  6
CONTINUOUS
 62
    7
 10
502.79386962711646
 20
1509.4913168973296
 11
502.79386962711646
 21
1520.7194984980247
  0
LINE
  8
_2-5_
  6
CONTINUOUS
 62
    7
 10
492.79386962711652
 20
1498.5579835639965
 11
492.79386962711652
 21
1512.7516879388186
  0
LINE
  8
_2-5_
  6
CONTINUOUS
 62
    7
 10
482.79386962711641
 20
1487.6246502306631
 11
482.79386962711641
 21
1501.9824571695876
  0
LINE
  8
_2-5_
  6
CONTINUOUS
 62
    7
 10
472.79386962711646
 20
1482.9561497230482
 11
472.79386962711646
 21
1491.2132264003567
  0
LINE
  8
_2-5_
  6
CONTINUOUS
 62
    7
 10
2608.5744766230018
 20
1405.8227533540662
 11
2746.4849243841954
 21
1292.9869324585438
  0
LINE
  8
_2-5_
  6
CONTINUOUS
 62
    7
 10
2608.5744766230018
 20
1405.8227533540662
 11
2635.9188569412809
 21
1393.4823779542126
  0
LINE
  8
_2-5_
  6
CONTINUOUS
 62
    7
 10
2608.5744766230018
 20
1405.8227533540662
 11
2626.0852169294481
 21
1381.4634846064171
  0
LINE
  8
_2-5_
  6
CONTINUOUS
 62
    7
 10
405.14164080210588
 20
1741.1958876824244
 11
470.96253632449429
 21
1662.8376787272005
  0
LINE
  8
_2-5_
  6
CONTINUOUS
 62
    7
 10
405.14164080210588
 20
1741.1958876824244
 11
429.72528628639157
 21
1724.0015754047276
  0
LINE
  8
_2-5_
  6
CONTINUOUS
 62
    7
 10
405.14164080210588
 20
1741.1958876824244
 11
417.83454617027951
 21
1714.0133537071933
  0
TEXT
  8
_2-5_
 62
    7
 10
1680.8132825931507
 20
1428.807827980932
 40
64
 41
1
 50
0
  1
1
  0
TEXT
  8
_2-5_
 62
    7
 10
2748.0520885632995
 20
1254.8526041003347
 40
64
 41
1
 50
0
  1
2
  0
TEXT
  8
_2-5_
 62
    7
 10
126.18641692150914
 20
206.41976827943915
 40
40
 41
1
 50
0
  1
表示
  0
TEXT
  8
_2-5_
 62
    7
 10
116.78343184688165
 20
257.87499216003584
 40
40
 41
1
 50
0
  1
収縮チューブ
  0
TEXT
  8
_2-5_
 62
    7
 10
201.61344843063011
 20
1571.9655348171209
 40
64
 41
1
 50
0
  1
3
  0
LINE
  8
_2-5_
  6
CONTINUOUS
 62
    7
 10
296.33981658983379
 20
1675.0501119315486
 11
235.04628425152583
 21
1608.1844402897575
  0
LINE
  8
_2-5_
  6
CONTINUOUS
 62
    7
 10
296.33981658983379
 20
1675.0501119315486
 11
282.48250640530335
 21
1648.4423131791209
  0
LINE
  8
_2-5_
  6
CONTINUOUS
 62
    7
 10
296.33981658983379
 20
1675.0501119315486
 11
271.03513456569533
 21
1658.9357373654279
  0
LINE
  8
_2-5_
  6
CONTINUOUS
 62
    7
 10
483.00648325650116
 20
1537.1396641703545
 11
485.7925529082421
 21
1634.6521019812999
  0
LINE
  8
_2-5_
  6
CONTINUOUS
 62
    7
 10
483.00648325650116
 20
1537.1396641703545
 11
476.07267787326447
 21
1566.327372934617
  0
LINE
  8
_2-5_
  6
CONTINUOUS
 62
    7
 10
483.00648325650116
 20
1537.1396641703545
 11
491.59548603185192
 21
1565.8838641300858
  0
LINE
  8
_2-5_
  6
CONTINUOUS
 62
    7
 10
2580.7282125205174
 20
1654.036043219392
 11
2580.7282125205174
 21
1744.0698281651953
  0
LINE
  8
_2-5_
  6
CONTINUOUS
 62
    7
 10
2580.7282125205174
 20
1744.0698281651953
 11
2580.7282125205174
 21
1749.1450660066903
  0
TEXT
  8
_2-5_
 62
    7
 10
477.60847330625234
 20
1899.1029956610496
 40
40
 41
1
 50
0
  1
20
  0
TEXT
  8
_2-5_
 62
    7
 10
999.9965330077448
 20
1750.7447867058256
 40
40
 41
1
 50
0
  1
20
  0
TEXT
  8
_2-5_
 62
    7
 10
1064.7726524107297
 20
1635.8194135714971
 40
40
 41
1
 50
0
  1
10
  0
TEXT
  8
_2-5_
 62
    7
 10
465.07115987341626
 20
1405.9686673028405
 40
40
 41
1
 50
0
  1
10
  0
TEXT
  8
_2-5_
 62
    7
 10
2261.1573953626371
 20
1900.379944251431
 40
40
 41
1
 50
0
  1
55
  0
TEXT
  8
_2-5_
 62
    7
 10
1885.0379923775622
 20
1643.3650188782967
 40
40
 41
1
 50
0
  1
10
  0
LINE
  8
_2-5_
  6
CONTINUOUS
 62
    7
 10
1837.2609759789052
 20
1545.4407422149538
 11
1962.634110307263
 21
1545.4407422149538
  0
TEXT
  8
_2-5_
 62
    7
 10
1121.4082245500333
 20
259.73237192786314
 40
40
 41
1
 50
0
  1
4
  0
TEXT
  8
_2-5_
 62
    7
 10
1118.3625731772672
 20
206.81397778745415
 40
40
 41
1
 50
0
  1
2
  0
LINE
  8
_2-5_
  6
CONTINUOUS
 62
    7
 10
2625.7423410047968
 20
1674.5793177542869
 11
2649.3167765195303
 21
1688.5096660129934
  0
LINE
  8
_2-5_
  6
CONTINUOUS
 62
    7
 10
2627.5997207726241
 20
1728.4433310212853
 11
2649.092258086057
 21
1711.7269131108376
  0
LINE
  8
_2-5_
  6
CONTINUOUS
 62
    7
 10
2627.5997207726241
 20
1721.0138119499752
 11
2627.5997207726241
 21
1728.4433310212853
  0
LINE
  8
_2-5_
  6
CONTINUOUS
 62
    7
 10
2625.7423410047968
 20
1680.1514570577697
 11
2625.7423410047968
 21
1674.5793177542869
  0
LINE
  8
_2-5_
  6
CONTINUOUS
 62
    7
 10
2593.265525953354
 20
1711.7269131108376
 11
2649.092258086057
 21
1711.7269131108376
  0
LINE
  8
_2-5_
  6
CONTINUOUS
 62
    7
 10
2593.265525953354
 20
1721.0138119499752
 11
2627.5997207726241
 21
1721.0138119499752
  0
LINE
  8
_2-5_
  6
CONTINUOUS
 62
    7
 10
2593.265525953354
 20
1680.1514570577697
 11
2625.7423410047968
 21
1680.1514570577697
  0
LINE
  8
_2-5_
  6
CONTINUOUS
 62
    7
 10
2593.265525953354
 20
1688.5096660129934
 11
2649.3167765195303
 21
1688.5096660129934
  0
LINE
  8
_2-5_
  6
CONTINUOUS
 62
    7
 10
2633.4133583493212
 20
1460.4382880014925
 11
2656.9877938640557
 21
1446.5079397427862
  0
LINE
  8
_2-5_
  6
CONTINUOUS
 62
    7
 10
2633.4133583493212
 20
1454.86614869801
 11
2633.4133583493212
 21
1460.4382880014925
  0
LINE
  8
_2-5_
  6
CONTINUOUS
 62
    7
 10
2600.9365432978793
 20
1423.2906926449418
 11
2656.7632754305823
 21
1423.2906926449418
  0
LINE
  8
_2-5_
  6
CONTINUOUS
 62
    7
 10
2600.9365432978793
 20
1414.0037938058042
 11
2635.2707381171494
 21
1414.0037938058042
  0
LINE
  8
_2-5_
  6
CONTINUOUS
 62
    7
 10
2600.9365432978793
 20
1454.86614869801
 11
2633.4133583493212
 21
1454.86614869801
  0
LINE
  8
_2-5_
  6
CONTINUOUS
 62
    7
 10
2600.9365432978793
 20
1446.5079397427862
 11
2656.9877938640557
 21
1446.5079397427862
  0
LINE
  8
_2-5_
  6
CONTINUOUS
 62
    7
 10
2635.2707381171494
 20
1406.5742747344939
 11
2656.7632754305823
 21
1423.2906926449418
  0
LINE
  8
_2-5_
  6
CONTINUOUS
 62
    7
 10
2635.2707381171494
 20
1414.0037938058042
 11
2635.2707381171494
 21
1406.5742747344939
  0
LINE
  8
_0-0_
  6
CONTINUOUS
 62
    7
 10
30.037313432835447
 20
2027.3358208955226
 11
30.037313432835447
 21
38.604477611940325
  0
LINE
  8
_0-0_
  6
CONTINUOUS
 62
    7
 10
1230.0373134328354
 20
708.60447761194041
 11
30.037313432835447
 21
708.60447761194041
  0
LINE
  8
_0-0_
  6
CONTINUOUS
 62
    7
 10
1230.0373134328354
 20
708.60447761194041
 11
1230.0373134328354
 21
682.14303482587115
  0
LINE
  8
_0-0_
  6
CONTINUOUS
 62
    7
 10
1230.0373134328354
 20
682.14303482587115
 11
1230.0373134328354
 21
38.604477611940325
  0
LINE
  8
_0-0_
  6
CONTINUOUS
 62
    7
 10
1230.0373134328354
 20
584.05902306648579
 11
30.037313432835447
 21
584.05902306648579
  0
LINE
  8
_0-0_
  6
CONTINUOUS
 62
    7
 10
1230.0373134328354
 20
529.51356852103129
 11
30.037313432835447
 21
529.51356852103129
  0
LINE
  8
_0-0_
  6
CONTINUOUS
 62
    7
 10
1230.0373134328354
 20
474.96811397557678
 11
30.037313432835447
 21
474.96811397557678
  0
LINE
  8
_0-0_
  6
CONTINUOUS
 62
    7
 10
1230.0373134328354
 20
638.60447761194041
 11
30.037313432835447
 21
638.60447761194041
  0
LINE
  8
_0-0_
  6
CONTINUOUS
 62
    7
 10
1230.0373134328354
 20
420.42265943012217
 11
30.037313432835447
 21
420.42265943012217
  0
LINE
  8
_0-0_
  6
CONTINUOUS
 62
    7
 10
1230.0373134328354
 20
365.87720488466761
 11
30.037313432835447
 21
365.87720488466761
  0
LINE
  8
_0-0_
  6
CONTINUOUS
 62
    7
 10
1230.0373134328354
 20
311.33175033921316
 11
30.037313432835447
 21
311.33175033921316
  0
LINE
  8
_0-0_
  6
CONTINUOUS
 62
    7
 10
1230.0373134328354
 20
256.78629579375865
 11
30.037313432835447
 21
256.78629579375865
  0
LINE
  8
_0-0_
  6
CONTINUOUS
 62
    7
 10
1230.0373134328354
 20
202.24084124830412
 11
30.037313432835447
 21
202.24084124830412
  0
LINE
  8
_0-0_
  6
CONTINUOUS
 62
    7
 10
1230.0373134328354
 20
147.69538670284939
 11
30.037313432835447
 21
147.69538670284939
  0
LINE
  8
_0-0_
  6
CONTINUOUS
 62
    7
 10
1230.0373134328354
 20
93.149932157395057
 11
30.037313432835447
 21
93.149932157395057
  0
LINE
  8
_0-0_
  6
CONTINUOUS
 62
    7
 10
1030.0373134328352
 20
708.60447761194041
 11
1030.0373134328352
 21
38.604477611940325
  0
LINE
  8
_0-0_
  6
CONTINUOUS
 62
    7
 10
100.03731343283545
 20
708.60447761194041
 11
100.03731343283545
 21
38.604477611940325
  0
TEXT
  8
_0-0_
 62
    7
 10
55.939054726367431
 20
588.11318407960232
 40
40
 41
1
 50
0
  1
1
  0
TEXT
  8
_0-0_
 62
    7
 10
55.939054726367431
 20
534.82960199005015
 40
40
 41
1
 50
0
  1
2
  0
TEXT
  8
_0-0_
 62
    7
 10
55.939054726367431
 20
481.54601990049787
 40
40
 41
1
 50
0
  1
3
  0
TEXT
  8
_0-0_
 62
    7
 10
52.804726368158271
 20
425.12810945273668
 40
40
 41
1
 50
0
  1
4
  0
TEXT
  8
_0-0_
 62
    7
 10
52.804726368158271
 20
371.8445273631844
 40
40
 41
1
 50
0
  1
5
  0
TEXT
  8
_0-0_
 62
    7
 10
52.804726368158271
 20
318.56094527363234
 40
40
 41
1
 50
0
  1
6
  0
TEXT
  8
_0-0_
 62
    7
 10
49.670398009949309
 20
265.27736318408006
 40
40
 41
1
 50
0
  1
7
  0
TEXT
  8
_0-0_
 62
    7
 10
55.939054726367431
 20
208.85945273631873
 40
40
 41
1
 50
0
  1
8
  0
TEXT
  8
_0-0_
 62
    7
 10
55.939054726367431
 20
155.57587064676648
 40
40
 41
1
 50
0
  1
9
  0
TEXT
  8
_0-0_
 62
    7
 10
40.267412935322625
 20
102.29228855721425
 40
40
 41
1
 50
0
  1
10
  0
TEXT
  8
_0-0_
 62
    7
 10
46.536069651740547
 20
49.008706467662108
 40
40
 41
1
 50
0
  1
11
  0
TEXT
  8
_0-0_
 62
    7
 10
168.77487562189003
 20
650.79975124378143
 40
40
 41
1
 50
0
  1
名称
  0
TEXT
  8
_0-0_
 62
    7
 10
1112.2077114427852
 20
653.93407960199033
 40
40
 41
1
 50
0
  1
数
  0
TEXT
  8
_0-0_
 62
    7
 10
1266.9651741293526
 20
79.046019900497356
 40
40
 41
1
 50
0
  1
装置名称
  0
LINE
  8
_0-0_
  6
CONTINUOUS
 62
    7
 10
1870.667495854063
 20
365.87720488466761
 11
1870.667495854063
 21
147.69538670284939
  0
LINE
  8
_0-0_
  6
CONTINUOUS
 62
    7
 10
1669.1148424543942
 20
365.87720488466761
 11
1669.1148424543942
 21
147.69538670284939
  0
LINE
  8
_0-0_
  6
CONTINUOUS
 62
    7
 10
1230.0373134328354
 20
311.33175033921316
 11
2072.2201492537306
 21
311.33175033921316
  0
TEXT
  8
_0-0_
 62
    7
 10
1931.0945273631837
 20
320.04104477611918
 40
40
 41
1
 50
0
  1
Rev
  0
LINE
  8
_0-0_
  6
CONTINUOUS
 62
    7
 10
1870.667495854063
 20
256.78629579375865
 11
2072.2201492537306
 21
256.78629579375865
  0
TEXT
  8
_0-0_
 62
    7
 10
1283.3333333333328
 20
152.87686567164167
 40
40
 41
1
 50
0
  1
/  /  /
  0
TEXT
  8
_0-0_
 62
    7
 10
1492.5207296849085
 20
155.19859038142619
 40
40
 41
1
 50
0
  1
/  /  /
  0
TEXT
  8
_0-0_
 62
    7
 10
1688.9386401326694
 20
156.59162520729683
 40
40
 41
1
 50
0
  1
/  /  /
  0
TEXT
  8
_0-0_
 62
    7
 10
2400.9907083239486
 20
273.48090992226798
 40
64
 41
1
 50
0
  1
SMART DIYs
  0
TEXT
  8
_0-0_
 62
    7
 10
2273.5280217567843
 20
235.86896962376056
 40
30
 41
1
 50
0
  1
makind your idea reality.
  0
LINE
  8
_0-0_
  6
CONTINUOUS
 62
    7
 10
2292.4216099421278
 20
332.54697645965109
 11
2257.9439980018292
 21
276.12906601188979
  0
LINE
  8
_0-0_
  6
CONTINUOUS
 62
    7
 10
2328.2607417009258
 20
276.12906601188979
 11
2292.4216099421278
 21
332.54697645965109
  0
LINE
  8
_0-0_
  6
CONTINUOUS
 62
    7
 10
2331.7953526992319
 20
276.15978679737373
 11
2331.814867889886
 21
276.12906601188979
  0
LINE
  8
_0-0_
  6
CONTINUOUS
 62
    7
 10
2257.9439980018292
 20
276.12906601188979
 11
2328.2607417009258
 21
276.12906601188979
  0
LINE
  8
_0-0_
  6
CONTINUOUS
 62
    7
 10
2331.7765788858806
 20
276.12906601188979
 11
2366.2541908261792
 21
332.54697645965109
  0
LINE
  8
_0-0_
  6
CONTINUOUS
 62
    7
 10
2366.2541908261792
 20
332.54697645965109
 11
2389.4697028161836
 21
332.54697645965109
  0
LINE
  8
_0-0_
  6
CONTINUOUS
 62
    7
 10
2354.992090875885
 20
276.12906601188979
 11
2331.7953526992319
 21
276.12906601188979
  0
LINE
  8
_0-0_
  6
CONTINUOUS
 62
    7
 10
2389.4697028161836
 20
332.54697645965109
 11
2354.992090875885
 21
276.12906601188979
  0
SOLID
  8
_0-0_
  6
CONTINUOUS
 62
    7
 10
2257.9439980018292
 20
276.12906601188979
 11
2328.2607417009258
 21
276.12906601188979
 12
2292.4216099421278
 22
332.54697645965109
 13
2292.4216099421278
 23
332.54697645965109
  0
SOLID
  8
_0-0_
  6
CONTINUOUS
 62
    7
 10
2331.7765788858806
 20
276.12906601188979
 11
2366.2541908261792
 21
332.54697645965109
 12
2331.7953526992319
 22
276.12906601188979
 13
2354.992090875885
 23
276.12906601188979
  0
SOLID
  8
_0-0_
  6
CONTINUOUS
 62
    7
 10
2366.2541908261792
 20
332.54697645965109
 11
2389.4697028161836
 21
332.54697645965109
 12
2354.992090875885
 22
276.12906601188979
 13
2354.992090875885
 23
276.12906601188979
  0
LINE
  8
_0-0_
  6
CONTINUOUS
 62
    7
 10
2298.3451535903941
 20
332.54697645965109
 11
2360.3944621845876
 21
332.54697645965109
  0
LINE
  8
_0-0_
  6
CONTINUOUS
 62
    7
 10
2329.9705279929094
 20
282.76235687326857
 11
2298.3451535903941
 21
332.54697645965109
  0
LINE
  8
_0-0_
  6
CONTINUOUS
 62
    7
 10
2360.3944621845876
 20
332.54697645965109
 11
2329.9705279929094
 21
282.76235687326857
  0
SOLID
  8
_0-0_
  6
CONTINUOUS
 62
    7
 10
2298.3451535903941
 20
332.54697645965109
 11
2360.3944621845876
 21
332.54697645965109
 12
2329.9705279929094
 22
282.76235687326857
 13
2329.9705279929094
 23
282.76235687326857
  0
TEXT
  8
_0-0_
 62
    7
 10
1521.1150864334013
 20
315.96847211132297
 40
40
 41
1
 50
0
  1
確認
  0
TEXT
  8
_0-0_
 62
    7
 10
1719.6225491199689
 20
315.96847211132297
 40
40
 41
1
 50
0
  1
承認
  0
TEXT
  8
_0-0_
 62
    7
 10
469.67039800994951
 20
653.93407960199033
 40
40
 41
1
 50
0
  1
部材　　規格    長さ　　　
  0
LINE
  8
_0-0_
  6
CONTINUOUS
 62
    7
 10
388.65671641791062
 20
707.26119402985069
 11
388.65671641791062
 21
38.604477611940325
  0
LINE
  8
_0-0_
  6
CONTINUOUS
 62
    7
 10
2604.6268656716416
 20
202.24084124830412
 11
2604.6268656716416
 21
38.604477611940325
  0
LINE
  8
_0-0_
  6
CONTINUOUS
 62
    7
 10
2717.4626865671644
 20
145.05555555555571
 11
2717.4626865671644
 21
38.604477611940325
  0
TEXT
  8
_0-0_
 62
    7
 10
2638.28861174744
 20
76.349529596342848
 40
40
 41
1
 50
0
  1
頁
  0
LINE
  8
_0-0_
  6
CONTINUOUS
 62
    7
 10
1467.5621890547259
 20
450.60366377986566
 11
1467.5621890547259
 21
38.604477611940325
  0
LINE
  8
_0-0_
  6
CONTINUOUS
 62
    7
 10
2072.2201492537306
 20
450.60366377986566
 11
2072.2201492537306
 21
38.604477611940325
  0
TEXT
  8
_0-0_
 62
    7
 10
1296.204394693201
 20
318.96187273508951
 40
40
 41
1
 50
0
  1
設計
  0
TEXT
  8
_0-0_
 62
    7
 10
1243.9655887230517
 20
385.82754437688061
 40
40
 41
1
 50
0
  1
ハーネス名
  0
TEXT
  8
_0-0_
 62
    7
 10
2416.2043946932008
 20
392.09620109329853
 40
40
 41
1
 50
0
  1
会社名
  0
LINE
  8
_0-0_
  6
CONTINUOUS
 62
    7
 10
30.037313432835447
 20
2027.3358208955226
 11
2695.8899944720838
 21
2027.3358208955226
  0
LINE
  8
_0-0_
  6
CONTINUOUS
 62
    7
 10
2695.8899944720838
 20
2027.3358208955226
 11
2879.248203427308
 21
2027.3358208955226
  0
LINE
  8
_0-0_
  6
CONTINUOUS
 62
    7
 10
2879.248203427308
 20
2027.3358208955226
 11
2879.248203427308
 21
1897.1741293532334
  0
LINE
  8
_0-0_
  6
CONTINUOUS
 62
    7
 10
2879.248203427308
 20
38.604477611940325
 11
30.037313432835447
 21
38.604477611940325
  0
LINE
  8
_0-0_
  6
CONTINUOUS
 62
    7
 10
2879.248203427308
 20
1897.1741293532334
 11
2879.248203427308
 21
38.604477611940325
  0
LINE
  8
_0-0_
  6
CONTINUOUS
 62
    7
 10
1230.0373134328354
 20
450.60366377986566
 11
2879.248203427308
 21
450.60366377986566
  0
LINE
  8
_0-0_
  6
CONTINUOUS
 62
    7
 10
1230.0373134328354
 20
365.87720488466761
 11
2879.248203427308
 21
365.87720488466761
  0
LINE
  8
_0-0_
  6
CONTINUOUS
 62
    7
 10
1230.0373134328354
 20
202.24084124830412
 11
2879.248203427308
 21
202.24084124830412
  0
LINE
  8
_0-0_
  6
CONTINUOUS
 62
    7
 10
1230.0373134328354
 20
147.69538670284939
 11
2879.248203427308
 21
147.69538670284939
  0
LINE
  8
_0-0_
  6
CONTINUOUS
 62
    7
 10
1363.1558358793179
 20
629.64255369002308
 11
1513.1558358793179
 21
629.64255369002308
  0
LINE
  8
_0-0_
  6
CONTINUOUS
 62
    7
 10
1513.1558358793179
 20
629.64255369002308
 11
1513.1558358793179
 21
689.64255369002308
  0
LINE
  8
_0-0_
  6
CONTINUOUS
 62
    7
 10
1513.1558358793179
 20
689.64255369002308
 11
1363.1558358793179
 21
689.64255369002308
  0
LINE
  8
_0-0_
  6
CONTINUOUS
 62
    7
 10
1363.1558358793179
 20
689.64255369002308
 11
1363.1558358793179
 21
629.64255369002308
  0
LINE
  8
_0-0_
  6
CONTINUOUS
 62
    7
 10
1363.1558358793179
 20
569.64255369002319
 11
1513.1558358793179
 21
569.64255369002319
  0
LINE
  8
_0-0_
  6
CONTINUOUS
 62
    7
 10
1513.1558358793179
 20
569.64255369002319
 11
1513.1558358793179
 21
629.64255369002308
  0
LINE
  8
_0-0_
  6
CONTINUOUS
 62
    7
 10
1513.1558358793179
 20
629.64255369002308
 11
1363.1558358793179
 21
629.64255369002308
  0
LINE
  8
_0-0_
  6
CONTINUOUS
 62
    7
 10
1363.1558358793179
 20
629.64255369002308
 11
1363.1558358793179
 21
569.64255369002319
  0
LINE
  8
_0-0_
  6
CONTINUOUS
 62
    7
 10
1363.1558358793179
 20
509.64255369002319
 11
1513.1558358793179
 21
509.64255369002319
  0
LINE
  8
_0-0_
  6
CONTINUOUS
 62
    7
 10
1513.1558358793179
 20
509.64255369002319
 11
1513.1558358793179
 21
569.64255369002319
  0
LINE
  8
_0-0_
  6
CONTINUOUS
 62
    7
 10
1513.1558358793179
 20
569.64255369002319
 11
1363.1558358793179
 21
569.64255369002319
  0
LINE
  8
_0-0_
  6
CONTINUOUS
 62
    7
 10
1363.1558358793179
 20
569.64255369002319
 11
1363.1558358793179
 21
509.64255369002319
  0
TEXT
  8
_2-5_
 62
    7
 10
1114.5718300099122
 20
588.31826902384569
 40
40
 41
1
 50
0
  1
1
  0
TEXT
  8
_2-5_
 62
    7
 10
1112.6399517166694
 20
535.89901812076755
 40
40
 41
1
 50
0
  1
2
  0
TEXT
  8
_0-0_
 62
    7
 10
1118.929863758995
 20
484.81496748312668
 40
40
 41
1
 50
0
  1
1
  0
TEXT
  8
_2-5_
 62
    7
 10
1110.9604633560034
 20
424.8069987935346
 40
40
 41
1
 50
0
  1
1
  0
TEXT
  8
_2-5_
 62
    7
 10
1110.9604633560034
 20
374.65774506219122
 40
40
 41
1
 50
0
  1
2
  0
TEXT
  8
_0-0_
 62
    7
 10
1370.6063127685329
 20
637.34614870102837
 40
40
 41
1
 50
0
  1
Pin No.
  0
TEXT
  8
_0-0_
 62
    7
 10
1415.2761586966326
 20
581.78121840022129
 40
40
 41
1
 50
0
  1
白
  0
TEXT
  8
_2-5_
 62
    7
 10
1361.8902452703671
 20
696.17960431364747
 40
40
 41
1
 50
0
  1
センサー
  0
LINE
  8
_0-0_
  6
CONTINUOUS
 62
    7
 10
2526.7508468844535
 20
904.78195207593637
 11
2676.7508468844539
 21
904.78195207593637
  0
LINE
  8
_0-0_
  6
CONTINUOUS
 62
    7
 10
2676.7508468844539
 20
904.78195207593637
 11
2676.7508468844539
 21
964.78195207593649
  0
LINE
  8
_0-0_
  6
CONTINUOUS
 62
    7
 10
2676.7508468844539
 20
964.78195207593649
 11
2526.7508468844535
 21
964.78195207593649
  0
LINE
  8
_0-0_
  6
CONTINUOUS
 62
    7
 10
2526.7508468844535
 20
964.78195207593649
 11
2526.7508468844535
 21
904.78195207593637
  0
LINE
  8
_0-0_
  6
CONTINUOUS
 62
    7
 10
2526.7508468844535
 20
844.78195207593649
 11
2676.7508468844539
 21
844.78195207593649
  0
LINE
  8
_0-0_
  6
CONTINUOUS
 62
    7
 10
2676.7508468844539
 20
844.78195207593649
 11
2676.7508468844539
 21
904.78195207593637
  0
LINE
  8
_0-0_
  6
CONTINUOUS
 62
    7
 10
2676.7508468844539
 20
904.78195207593637
 11
2526.7508468844535
 21
904.78195207593637
  0
LINE
  8
_0-0_
  6
CONTINUOUS
 62
    7
 10
2526.7508468844535
 20
904.78195207593637
 11
2526.7508468844535
 21
844.78195207593649
  0
LINE
  8
_0-0_
  6
CONTINUOUS
 62
    7
 10
2526.7508468844535
 20
784.78195207593649
 11
2676.7508468844539
 21
784.78195207593649
  0
LINE
  8
_0-0_
  6
CONTINUOUS
 62
    7
 10
2676.7508468844539
 20
784.78195207593649
 11
2676.7508468844539
 21
844.78195207593649
  0
LINE
  8
_0-0_
  6
CONTINUOUS
 62
    7
 10
2676.7508468844539
 20
844.78195207593649
 11
2526.7508468844535
 21
844.78195207593649
  0
LINE
  8
_0-0_
  6
CONTINUOUS
 62
    7
 10
2526.7508468844535
 20
844.78195207593649
 11
2526.7508468844535
 21
784.78195207593649
  0
LINE
  8
_0-0_
  6
CONTINUOUS
 62
    7
 10
2676.7508468844539
 20
784.78195207593649
 11
2526.7508468844535
 21
784.78195207593649
  0
TEXT
  8
_2-5_
 62
    7
 10
410.9604633560034
 20
589.88162565920607
 40
40
 41
1
 50
0
  1
ULAWM AWG24　4芯
  0
LINE
  8
_2-5_
  6
CONTINUOUS
 62
    7
 10
2580.7282125205174
 20
1797.8014174991949
 11
2580.7282125205174
 21
1972.7597120789596
  0
LINE
  8
_2-5_
  6
CONTINUOUS
 62
    7
 10
656.56507916584303
 20
1893.432578104874
 11
656.56507916584303
 21
1894.4015031237359
  0
LINE
  8
_2-5_
  6
CONTINUOUS
 62
    7
 10
378.76584433488244
 20
1868.3837127049328
 11
378.76584433488244
 21
1972.7597120789596
  0
LINE
  8
_2-5_
  6
CONTINUOUS
 62
    7
 10
378.76584433488244
 20
1894.4015031237359
 11
656.56507916584303
 21
1894.4015031237359
  0
LINE
  8
_2-5_
  6
CONTINUOUS
 62
    7
 10
1030.3384777423141
 20
1685.9686673028405
 11
1155.7116120706721
 21
1685.9686673028405
  0
LINE
  8
_2-5_
  6
CONTINUOUS
 62
    7
 10
1155.7116120706721
 20
1645.3533840771565
 11
1155.7116120706721
 21
1744.4761299894076
  0
LINE
  8
_2-5_
  6
CONTINUOUS
 62
    7
 10
1030.3384777423141
 20
1645.3533840771565
 11
1030.3384777423141
 21
1685.9686673028405
  0
LINE
  8
_2-5_
  6
CONTINUOUS
 62
    7
 10
904.96534341395591
 20
1645.3533840771565
 11
904.96534341395591
 21
1744.4761299894076
  0
LINE
  8
_2-5_
  6
CONTINUOUS
 62
    7
 10
656.56507916584303
 20
1645.3533840771565
 11
656.56507916584303
 21
1893.432578104874
  0
LINE
  8
_2-5_
  6
CONTINUOUS
 62
    7
 10
467.57668778939183
 20
1454.369050366322
 11
467.57668778939183
 21
1428.9472926944011
  0
LINE
  8
_2-5_
  6
CONTINUOUS
 62
    7
 10
1837.2609759789029
 20
1692.4694964902369
 11
1962.6341103072623
 21
1692.4694964902369
  0
LINE
  8
_2-5_
  6
CONTINUOUS
 62
    7
 10
1962.6341103072623
 20
1654.5408132957295
 11
1962.6341103072623
 21
1692.4694964902369
  0
LINE
  8
_2-5_
  6
CONTINUOUS
 62
    7
 10
2088.0072446356221
 20
1654.5408132957295
 11
2088.0072446356221
 21
1815.6369923443001
  0
LINE
  8
_2-5_
  6
CONTINUOUS
 62
    7
 10
506.42366971354784
 20
1443.5806076013478
 11
1030.3384777423166
 21
1443.5806076013478
  0
LINE
  8
_2-5_
  6
CONTINUOUS
 62
    7
 10
1030.3384777423141
 20
1503.7689287271292
 11
1030.3384777423141
 21
1443.5806076013478
  0
LINE
  8
_2-5_
  6
CONTINUOUS
 62
    7
 10
1030.3384777423141
 20
1559.0905487378941
 11
1030.3384777423141
 21
1545.4407422149538
  0
LINE
  8
_2-5_
  6
CONTINUOUS
 62
    7
 10
656.66148584265534
 20
1503.7689287271292
 11
656.66148584265534
 21
1443.5806076013478
  0
LINE
  8
_2-5_
  6
CONTINUOUS
 62
    7
 10
506.42366971354784
 20
1503.7689287271292
 11
506.42366971354784
 21
1443.5806076013478
  0
TEXT
  8
_0-0_
 62
    7
 10
835.45674053741334
 20
1401.6794610034599
 40
40
 41
1
 50
0
  1
80
  0
LINE
  8
_2-5_
  6
CONTINUOUS
 62
    7
 10
904.96534341395591
 20
1744.4761299894076
 11
1155.7116120706721
 21
1744.4761299894076
  0
LINE
  8
_2-5_
  6
CONTINUOUS
 62
    7
 10
1837.2609759789029
 20
1815.6369923443001
 11
2088.0072446356221
 21
1815.6369923443001
  0
TEXT
  8
_2-5_
 62
    7
 10
2122.2522294011355
 20
1362.3344251408701
 40
64
 41
1
 50
0
  1
8
  0
LINE
  8
_0-0_
  6
CONTINUOUS
 62
    7
 10
2148.0393188688595
 20
1432.9686267263739
 11
2170.462874927749
 21
1474.4522054353206
  0
LINE
  8
_0-0_
  6
CONTINUOUS
 62
    7
 10
2170.462874927749
 20
1474.4522054353206
 11
2163.5139933921569
 21
1445.2680822618502
  0
LINE
  8
_0-0_
  6
CONTINUOUS
 62
    7
 10
2170.462874927749
 20
1474.4522054353206
 11
2149.8529054033024
 21
1452.6524541477174
  0
LINE
  8
_2-5_
  6
CONTINUOUS
 62
    7
 10
1962.634110307263
 20
1559.0905487378941
 11
1962.634110307263
 21
1545.4407422149538
  0
TEXT
  8
_2-5_
 62
    7
 10
1942.5351686887307
 20
1820.6475085778998
 40
40
 41
1
 50
0
  1
20
  0
LINE
  8
_0-0_
  6
CONTINUOUS
 62
    7
 10
1363.1558358793179
 20
960.92110253439728
 11
1513.1558358793179
 21
960.92110253439728
  0
LINE
  8
_0-0_
  6
CONTINUOUS
 62
    7
 10
1513.1558358793179
 20
960.92110253439728
 11
1513.1558358793179
 21
1020.9211025343974
  0
LINE
  8
_0-0_
  6
CONTINUOUS
 62
    7
 10
1513.1558358793179
 20
1020.9211025343974
 11
1363.1558358793179
 21
1020.9211025343974
  0
LINE
  8
_0-0_
  6
CONTINUOUS
 62
    7
 10
1363.1558358793179
 20
1020.9211025343974
 11
1363.1558358793179
 21
960.92110253439728
  0
LINE
  8
_0-0_
  6
CONTINUOUS
 62
    7
 10
1363.1558358793179
 20
900.92110253439716
 11
1513.1558358793179
 21
900.92110253439716
  0
LINE
  8
_0-0_
  6
CONTINUOUS
 62
    7
 10
1513.1558358793179
 20
900.92110253439716
 11
1513.1558358793179
 21
960.92110253439728
  0
LINE
  8
_0-0_
  6
CONTINUOUS
 62
    7
 10
1513.1558358793179
 20
960.92110253439728
 11
1363.1558358793179
 21
960.92110253439728
  0
LINE
  8
_0-0_
  6
CONTINUOUS
 62
    7
 10
1363.1558358793179
 20
960.92110253439728
 11
1363.1558358793179
 21
900.92110253439716
  0
LINE
  8
_0-0_
  6
CONTINUOUS
 62
    7
 10
1363.1558358793179
 20
840.92110253439728
 11
1513.1558358793179
 21
840.92110253439728
  0
LINE
  8
_0-0_
  6
CONTINUOUS
 62
    7
 10
1513.1558358793179
 20
840.92110253439728
 11
1513.1558358793179
 21
900.92110253439716
  0
LINE
  8
_0-0_
  6
CONTINUOUS
 62
    7
 10
1513.1558358793179
 20
900.92110253439716
 11
1363.1558358793179
 21
900.92110253439716
  0
LINE
  8
_0-0_
  6
CONTINUOUS
 62
    7
 10
1363.1558358793179
 20
900.92110253439716
 11
1363.1558358793179
 21
840.92110253439728
  0
LINE
  8
_0-0_
  6
CONTINUOUS
 62
    7
 10
1363.1558358793179
 20
780.92110253439728
 11
1513.1558358793179
 21
780.92110253439728
  0
LINE
  8
_0-0_
  6
CONTINUOUS
 62
    7
 10
1513.1558358793179
 20
780.92110253439728
 11
1513.1558358793179
 21
840.92110253439728
  0
LINE
  8
_0-0_
  6
CONTINUOUS
 62
    7
 10
1513.1558358793179
 20
840.92110253439728
 11
1363.1558358793179
 21
840.92110253439728
  0
LINE
  8
_0-0_
  6
CONTINUOUS
 62
    7
 10
1363.1558358793179
 20
840.92110253439728
 11
1363.1558358793179
 21
780.92110253439728
  0
TEXT
  8
_0-0_
 62
    7
 10
1373.8748380803452
 20
972.39945910079496
 40
40
 41
1
 50
0
  1
Pin No.
  0
TEXT
  8
_0-0_
 62
    7
 10
1408.7391080730083
 20
909.20796973909273
 40
40
 41
1
 50
0
  1
COM
  0
TEXT
  8
_0-0_
 62
    7
 10
1421.8132093202571
 20
851.46402256374427
 40
40
 41
1
 50
0
  1
CN
  0
TEXT
  8
_0-0_
 62
    7
 10
1416.3656671339036
 20
785.00400789023001
 40
40
 41
1
 50
0
  1
NC
  0
TEXT
  8
_0-0_
 62
    7
 10
1364.0692621449084
 20
522.94776278760207
 40
40
 41
1
 50
0
  1
白line
  0
LINE
  8
_0-0_
  6
CONTINUOUS
 62
    7
 10
1513.1558358793179
 20
930.92110253439728
 11
2526.7508468844535
 21
814.78195207593649
  0
LINE
  8
_0-0_
  6
CONTINUOUS
 62
    7
 10
2526.7508468844535
 20
874.78195207593649
 11
1513.1558358793179
 21
870.92110253439728
  0
TEXT
  8
_0-0_
 62
    7
 10
2537.1192884823631
 20
915.73244629024373
 40
40
 41
1
 50
0
  1
Pin No.
  0
TEXT
  8
_0-0_
 62
    7
 10
2587.1985636805512
 20
852.19903745672173
 40
40
 41
1
 50
0
  1
1
  0
TEXT
  8
_0-0_
 62
    7
 10
2587.1985636805512
 20
794.64524357223706
 40
40
 41
1
 50
0
  1
2
  0
LINE
  8
_0-0_
  6
CONTINUOUS
 62
    7
 10
2526.7508468844535
 20
629.64255369002308
 11
2676.7508468844539
 21
629.64255369002308
  0
LINE
  8
_0-0_
  6
CONTINUOUS
 62
    7
 10
2676.7508468844539
 20
629.64255369002308
 11
2676.7508468844539
 21
689.64255369002308
  0
LINE
  8
_0-0_
  6
CONTINUOUS
 62
    7
 10
2676.7508468844539
 20
689.64255369002308
 11
2526.7508468844535
 21
689.64255369002308
  0
LINE
  8
_0-0_
  6
CONTINUOUS
 62
    7
 10
2526.7508468844535
 20
689.64255369002308
 11
2526.7508468844535
 21
629.64255369002308
  0
LINE
  8
_0-0_
  6
CONTINUOUS
 62
    7
 10
2526.7508468844535
 20
569.64255369002319
 11
2676.7508468844539
 21
569.64255369002319
  0
LINE
  8
_0-0_
  6
CONTINUOUS
 62
    7
 10
2676.7508468844539
 20
569.64255369002319
 11
2676.7508468844539
 21
629.64255369002308
  0
LINE
  8
_0-0_
  6
CONTINUOUS
 62
    7
 10
2676.7508468844539
 20
629.64255369002308
 11
2526.7508468844535
 21
629.64255369002308
  0
LINE
  8
_0-0_
  6
CONTINUOUS
 62
    7
 10
2526.7508468844535
 20
629.64255369002308
 11
2526.7508468844535
 21
569.64255369002319
  0
LINE
  8
_0-0_
  6
CONTINUOUS
 62
    7
 10
2526.7508468844535
 20
509.64255369002319
 11
2676.7508468844539
 21
509.64255369002319
  0
LINE
  8
_0-0_
  6
CONTINUOUS
 62
    7
 10
2676.7508468844539
 20
509.64255369002319
 11
2676.7508468844539
 21
569.64255369002319
  0
LINE
  8
_0-0_
  6
CONTINUOUS
 62
    7
 10
2676.7508468844539
 20
569.64255369002319
 11
2526.7508468844535
 21
569.64255369002319
  0
LINE
  8
_0-0_
  6
CONTINUOUS
 62
    7
 10
2526.7508468844535
 20
569.64255369002319
 11
2526.7508468844535
 21
509.64255369002319
  0
TEXT
  8
_0-0_
 62
    7
 10
2534.2013237736687
 20
637.34614870102837
 40
40
 41
1
 50
0
  1
Pin No.
  0
LINE
  8
_0-0_
  6
CONTINUOUS
 62
    7
 10
1513.1558358793179
 20
539.64255369002319
 11
2526.7508468844535
 21
539.64255369002319
  0
LINE
  8
_0-0_
  6
CONTINUOUS
 62
    7
 10
1513.1558358793179
 20
599.64255369002319
 11
2526.7508468844535
 21
599.64255369002319
  0
TEXT
  8
_0-0_
 62
    7
 10
2593.1712577789531
 20
522.5346987125414
 40
40
 41
1
 50
0
  1
2
  0
TEXT
  8
_0-0_
 62
    7
 10
2590.1814503044343
 20
580.83594446565576
 40
40
 41
1
 50
0
  1
1
  0
TEXT
  8
_2-5_
 62
    7
 10
1322.7522317313878
 20
518.5482887465165
 40
40
 41
1
 50
0
  1
緑
  0
TEXT
  8
_2-5_
 62
    7
 10
1323.2505329771411
 20
580.83594446565576
 40
40
 41
1
 50
0
  1
赤
  0
TEXT
  8
_2-5_
 62
    7
 10
1845.594813837843
 20
1033.418050920922
 40
40
 41
1
 50
0
  1
ULAWM AWG24 4芯
  0
TEXT
  8
_2-5_
 62
    7
 10
2548.5732962840493
 20
966.14738274425144
 40
40
 41
1
 50
0
  1
XHP-2
  0
TEXT
  8
_2-5_
 62
    7
 10
2551.9368296928824
 20
690.33764321990259
 40
40
 41
1
 50
0
  1
XHP-2
  0
TEXT
  8
_2-5_
 62
    7
 10
388.65671641791062
 20
365.87720488466761
 40
40
 41
1
 50
0
  1
 8Φ−20mm
  0
TEXT
  8
_2-5_
 62
    7
 10
388.65671641791062
 20
529.51356852103129
 40
40
 41
1
 50
0
  1
 XHP-2
  0
TEXT
  8
_2-5_
 62
    7
 10
565.97957934451063
 20
1402.0116618339621
 40
40
 41
1
 50
0
  1
20 
  0
TEXT
  8
_2-5_
 62
    7
 10
388.65671641791062
 20
311.33175033921316
 40
40
 41
1
 50
0
  1
 3.5Φ-80mm
  0
TEXT
  8
_2-5_
 62
    7
 10
388.65671641791062
 20
202.24084124830412
 40
40
 41
1
 50
0
  1
 テプラ9mm[Door][Y2-Limit]
  0
TEXT
  8
_2-5_
 62
    7
 10
1121.4082245500333
 20
316.1502823756241
 40
40
 41
1
 50
0
  1
2
  0
LINE
  8
_0-0_
  6
CONTINUOUS
 62
    7
 10
2088.0072446356189
 20
1598.5081083974019
 11
2580.7282125205174
 21
1721.5445160315332
  0
LINE
  8
_0-0_
  6
CONTINUOUS
 62
    7
 10
2580.7282125205174
 20
1685.3782536652859
 11
2088.0072446356221
 21
1598.5081083973987
  0
LINE
  8
_0-0_
  6
CONTINUOUS
 62
    7
 10
2586.9968692369362
 20
1452.4934120035668
 11
2088.0072446356216
 21
1570.2238371499325
  0
LINE
  8
_0-0_
  6
CONTINUOUS
 62
    7
 10
2088.0072446356216
 20
1570.2238371499325
 11
2586.9968692369362
 21
1416.3336751338015
  0
TEXT
  8
_2-5_
 62
    7
 10
2187.3845927092375
 20
1504.2784537482346
 40
30
 41
1
 50
-90
  1
Door
  0
LINE
  8
_2-5_
  6
CONTINUOUS
 62
    7
 10
2178.5620388120569
 20
1432.304987744918
 11
2222.2104633560039
 21
1432.304987744918
  0
TEXT
  8
_2-5_
 62
    7
 10
2188.7776275351084
 20
1779.2698754618636
 40
30
 41
1
 50
-90
  1
Y2-Limit
  0
LINE
  8
_2-5_
  6
CONTINUOUS
 62
    7
 10
2178.5620388120569
 20
1785.3063597073028
 11
2220.3530835881766
 21
1785.3063597073028
  0
LINE
  8
_2-5_
  6
CONTINUOUS
 62
    7
 10
2220.3530835881766
 20
1783.4489799394755
 11
2220.3530835881766
 21
1621.8416034275808
  0
LINE
  8
_2-5_
  6
CONTINUOUS
 62
    7
 10
2179.4907286959706
 20
1614.6372850875034
 11
2179.4907286959706
 21
1786.2350495912169
  0
LINE
  8
_2-5_
  6
CONTINUOUS
 62
    7
 10
2178.5620388120569
 20
1548.8585544029188
 11
2178.5620388120569
 21
1432.304987744918
  0
LINE
  8
_2-5_
  6
CONTINUOUS
 62
    7
 10
2222.2104633560039
 20
1432.304987744918
 11
2222.2104633560039
 21
1538.5602489368807
  0
TEXT
  8
_2-5_
 62
    7
 10
470.65969681255137
 20
1635.8979961832852
 40
64
 41
1
 50
0
  1
7
  0
TEXT
  8
_0-0_
 62
    7
 10
722.92470247506549
 20
1748.576365379208
 40
64
 41
1
 50
0
  1
6
  0
LINE
  8
_0-0_
  6
CONTINUOUS
 62
    7
 10
751.51473645015028
 20
1751.9398987880413
 11
823.83070474007104
 21
1624.1256292523676
  0
LINE
  8
_0-0_
  6
CONTINUOUS
 62
    7
 10
823.83070474007104
 20
1624.1256292523676
 11
802.80315619699422
 21
1645.5228767919123
  0
LINE
  8
_0-0_
  6
CONTINUOUS
 62
    7
 10
823.83070474007104
 20
1624.1256292523676
 11
816.31893729222827
 21
1653.1699634642159
  0
TEXT
  8
_2-5_
 62
    7
 10
388.65671641791062
 20
256.78629579375865
 40
40
 41
1
 50
0
  1
 3.5Φ-10mm+半田処理
  0
TEXT
  8
_2-5_
 62
    7
 10
1275.1514861670241
 20
1430.7458161153347
 40
64
 41
1
 50
0
  1
5
  0
TEXT
  8
_0-0_
 62
    7
 10
2383.4357443776698
 20
1323.1127470326619
 40
64
 41
1
 50
0
  1
9
  0
LINE
  8
_0-0_
  6
CONTINUOUS
 62
    7
 10
2423.4867070050764
 20
1363.6620109058215
 11
2576.4651894512826
 21
1409.5057255151082
  0
LINE
  8
_0-0_
  6
CONTINUOUS
 62
    7
 10
2576.4651894512826
 20
1409.5057255151082
 11
2550.9359381311051
 21
1393.7495417439272
  0
LINE
  8
_0-0_
  6
CONTINUOUS
 62
    7
 10
2576.4651894512826
 20
1409.5057255151082
 11
2546.478117382821
 21
1408.625095762658
  0
TEXT
  8
_0-0_
 62
    7
 10
1510.5646359583957
 20
55.807578008915243
 40
64
 41
1
 50
0
  1
FABOOL Laser Co2
  0
TEXT
  8
_0-0_
 62
    7
 10
1941.4438225538968
 20
154.96811397557661
 40
40
 41
1
 50
0
  1
5.0
  0
TEXT
  8
_0-0_
 62
    7
 10
1931.7974263179744
 20
210.06973848069751
 40
40
 41
1
 50
0
  1
Ver.
  0
TEXT
  8
_0-0_
 62
    7
 10
1959.4776119402986
 20
262.41873963515752
 40
40
 41
1
 50
0
  1
2
  0
TEXT
  8
_0-0_
 62
    7
 10
2170.8529645772787
 20
55.318919791522603
 40
70
 41
1
 50
0
  1
2018/05/06
  0
TEXT
  8
_0-0_
 62
    7
 10
2290.8259251802765
 20
154.70773855156676
 40
40
 41
1
 50
0
  1
日付
  0
TEXT
  8
_0-0_
 62
    7
 10
1613.6828358208954
 20
389.00000000000011
 40
35
 41
1
 50
0
  1
Switch Cable_ver.5.0
  0
LINE
  8
_0-0_
  6
CONTINUOUS
 62
    7
 10
1339.2405113287853
 20
1385.1509411342679
 11
1427.0017053586364
 21
1385.1509411342679
  0
LINE
  8
_0-0_
  6
CONTINUOUS
 62
    7
 10
1427.0017053586364
 20
1625.4407422149536
 11
1427.0017053586364
 21
1385.1509411342679
  0
LINE
  8
_0-0_
  6
CONTINUOUS
 62
    7
 10
1339.2405113287853
 20
1625.4407422149536
 11
1339.2405113287853
 21
1385.1509411342679
  0
LINE
  8
_2-5_
  6
CONTINUOUS
 62
    7
 10
1155.7116120706721
 20
1545.4407422149538
 11
1339.2405113287853
 21
1545.4407422149538
  0
LINE
  8
_2-5_
  6
CONTINUOUS
 62
    7
 10
1427.0017053586364
 20
1545.4407422149538
 11
1837.2609759789052
 21
1545.4407422149538
  0
TEXT
  8
_0-0_
 62
    7
 10
1373.8573646892742
 20
1590.6372631116794
 40
24.5
 41
1
 50
-90
  1
Switch ver.5.0
  0
TEXT
  8
_2-5_
 62
    7
 10
388.65671641791079
 20
420.42265943012228
 40
40
 41
1
 50
0
  1
 PS-3215B
  0
TEXT
  8
_0-0_
 62
    7
 10
1350.5481313703281
 20
1943.4496036240093
 40
64
 41
1
 50
0
  1
2000±30
  0
LINE
  8
_2-5_
  6
CONTINUOUS
 62
    7
 10
378.76584433488244
 20
1972.7597120789596
 11
1329.7148713158999
 21
1972.7597120789596
  0
LINE
  8
_2-5_
  6
CONTINUOUS
 62
    7
 10
2580.7282125205174
 20
1972.7597120789596
 11
1629.9390307181413
 21
1972.7597120789596
  0
LINE
  8
_0-0_
  6
CONTINUOUS
 62
    7
 10
1962.6341103072623
 20
1872.8245987269956
 11
1962.6341103072623
 21
1893.8791150640345
  0
LINE
  8
_2-5_
  6
CONTINUOUS
 62
    7
 10
1962.6341103072623
 20
1893.8791150640345
 11
2582.2743464124464
 21
1893.8791150640345
  0
LINE
  8
_2-5_
  6
CONTINUOUS
 62
    7
 10
1837.2609759789029
 20
1654.5408132957295
 11
1837.2609759789029
 21
1815.6369923443001
  0
LINE
  8
_2-5_
  6
CONTINUOUS
 62
    7
 10
64.399159310093722
 20
1464.0751129552377
 11
64.399159310093722
 21
1517.3586950447898
  0
LINE
  8
_2-5_
  6
CONTINUOUS
 62
    7
 10
268.130502593676
 20
1464.0751129552377
 11
64.399159310093722
 21
1464.0751129552377
  0
LINE
  8
_2-5_
  6
CONTINUOUS
 62
    7
 10
268.130502593676
 20
1517.3586950447898
 11
268.130502593676
 21
1464.0751129552377
  0
LINE
  8
_2-5_
  6
CONTINUOUS
 62
    7
 10
64.399159310093722
 20
1517.3586950447898
 11
268.130502593676
 21
1517.3586950447898
  0
LINE
  8
_2-5_
  6
CONTINUOUS
 62
    7
 10
168.85742354447703
 20
1481.394892657549
 11
231.54399070865625
 21
1349.7531016127728
  0
LINE
  8
_2-5_
  6
CONTINUOUS
 62
    7
 10
168.85742354447703
 20
1481.394892657549
 11
188.32626693145713
 21
1458.5702538395251
  0
LINE
  8
_2-5_
  6
CONTINUOUS
 62
    7
 10
168.85742354447703
 20
1481.394892657549
 11
174.30561709089088
 21
1451.8937539154458
  0
TEXT
  8
_2-5_
 62
    7
 10
245.30020961412876
 20
1320.6734996227233
 40
64
 41
1
 50
0
  1
4
  0
LINE
  8
_2-5_
  6
CONTINUOUS
 62
    7
 10
268.66256450633443
 20
1447.0606320952761
 11
268.66256450633443
 21
1428.9472926944011
  0
LINE
  8
_2-5_
  6
CONTINUOUS
 62
    7
 10
268.66256450633443
 20
1428.9472926944011
 11
467.57668778939183
 21
1428.9472926944011
  0
LINE
  8
_2-5_
  6
CONTINUOUS
 62
    7
 10
268.130502593676
 20
1478.3795168616316
 11
467.57668778939183
 21
1478.3795168616316
  0
LINE
  8
_2-5_
  6
CONTINUOUS
 62
    7
 10
268.130502593676
 20
1502.5254538433894
 11
467.57668778939183
 21
1502.5254538433894
  0
TEXT
  8
_2-5_
 62
    7
 10
356.72521447350312
 20
1383.0762144953435
 40
40
 41
1
 50
0
  1
35
  0
LINE
  8
_0-0_
  6
CONTINUOUS
 62
    7
 10
378.76584433488244
 20
1949.2197142659465
 11
1030.3384777423141
 21
1949.2197142659465
  0
LINE
  8
_0-0_
  6
CONTINUOUS
 62
    7
 10
1030.3384777423141
 20
1815.7867545316169
 11
1030.3384777423141
 21
1949.2197142659465
  0
TEXT
  8
_2-5_
 62
    7
 10
711.42841082053485
 20
1899.1029956610496
 40
40
 41
1
 50
0
  1
100
  0
TEXT
  8
_2-5_
 62
    7
 10
448.22414494804298
 20
1836.9089888432861
 40
40
 41
1
 50
0
  1
Black
  0
TEXT
  8
_2-5_
 62
    7
 10
426.28384644058042
 20
1764.8194366044806
 40
40
 41
1
 50
0
  1
White
  0
TEXT
  8
_2-5_
 62
    7
 10
529.36359888842833
 20
1565.851356026013
 40
40
 41
1
 50
0
  1
Red
  0
TEXT
  8
_2-5_
 62
    7
 10
567.32862255998327
 20
1501.5358545149281
 40
40
 41
1
 50
0
  1
Green
  0
TEXT
  8
_0-0_
 62
    7
 10
2701.4221989453113
 20
1706.5807911000775
 40
40
 41
1
 50
0
  1
1
  0
TEXT
  8
_0-0_
 62
    7
 10
2740.0400620000087
 20
1709.0807911000775
 40
35
 41
1
 50
0
  1
White
  0
TEXT
  8
_0-0_
 62
    7
 10
2701.4221989453113
 20
1659.5658657269432
 40
40
 41
1
 50
0
  1
2
  0
TEXT
  8
_0-0_
 62
    7
 10
2740.0400620000087
 20
1662.0658657269432
 40
35
 41
1
 50
0
  1
Black
  0
TEXT
  8
_0-0_
 62
    7
 10
2707.6908556617291
 20
1437.5452300097218
 40
40
 41
1
 50
0
  1
1
  0
TEXT
  8
_0-0_
 62
    7
 10
2707.6908556617291
 20
1390.5303046365875
 40
40
 41
1
 50
0
  1
2
  0
TEXT
  8
_0-0_
 62
    7
 10
2746.3087187164265
 20
1440.0452300097218
 40
35
 41
1
 50
0
  1
Red
  0
TEXT
  8
_0-0_
 62
    7
 10
2746.3087187164265
 20
1393.0303046365875
 40
35
 41
1
 50
0
  1
Green
  0
TEXT
  8
_0-0_
 62
    7
 10
2701.076340609221
 20
579.64255369002296
 40
40
 41
1
 50
0
  1
Red
  0
TEXT
  8
_0-0_
 62
    7
 10
2701.076340609221
 20
519.64255369002308
 40
40
 41
1
 50
0
  1
Green
  0
TEXT
  8
_0-0_
 62
    7
 10
2701.076340609221
 20
854.78195207593649
 40
40
 41
1
 50
0
  1
White
  0
TEXT
  8
_0-0_
 62
    7
 10
2701.076340609221
 20
794.78195207593649
 40
40
 41
1
 50
0
  1
Black
  0
TEXT
  8
_2-5_
 62
    7
 10
388.65671641791062
 20
474.96811397557678
 40
40
 41
1
 50
0
  1
 G6PI-150S06A
  0
TEXT
  8
_2-5_
 62
    7
 10
1314.6525343385988
 20
1030.1434062761432
 40
40
 41
1
 50
0
  1
G6PI-150S06A
  0
TEXT
  8
_0-0_
 62
    7
 10
388.65671641791062
 20
147.69538670284939
 40
40
 41
1
 50
0
  1
 BXH-001T-P0.6
  0
TEXT
  8
_0-0_
 62
    7
 10
100.03731343283545
 20
147.69538670284939
 40
40
 41
1
 50
0
  1
 Pin
  0
TEXT
  8
_0-0_
 62
    7
 10
1114.9761311747611
 20
155.03341635533417
 40
40
 41
1
 50
0
  1
4
  0
ENDSEC
  0
EOF
