  0
SECTION
  2
HEADER
  9
$ACADVER
  1
AC1009
  9
$INSBASE
 10
0
 20
0
 30
0
  9
$EXTMIN
 10
0
 20
0
  9
$EXTMAX
 10
2940
 20
2079
  9
$LIMMIN
 10
0
 20
0
  9
$LIMMAX
 10
2940
 20
2079
  9
$LTSCALE
 40
7
  0
ENDSEC
  0
SECTION
  2
TABLES
  0
TABLE
  2
LTYPE
 70
     9
  0
LTYPE
  2
CONTINUOUS
 70
    64
  3
実線
 72
    65
 73
     0
 40
0.0
  0
LTYPE
  2
DASHED1
 70
    64
  3
--  --  --  --  --  --  --  --  
 72
    65
 73
     2
 40
2.5
 49
1.25
 49
-1.25
  0
LTYPE
  2
DASHED2
 70
    64
  3
----    ----    ----    ----    
 72
    65
 73
     2
 40
5.0
 49
2.5
 49
-2.5
  0
LTYPE
  2
DASHED3
 70
    64
  3
------  ------  ------  ------  
 72
    65
 73
     2
 40
5.0
 49
3.75
 49
-1.25
  0
LTYPE
  2
CENTER1
 70
    64
  3
----- - ----- - ----- - ----- - 
 72
    65
 73
     4
 40
10.0
 49
6.25
 49
-1.25
 49
1.25
 49
-1.25
  0
LTYPE
  2
CENTER2
 70
    64
  3
----------  --  ----------  --  
 72
    65
 73
     4
 40
20.0
 49
12.5
 49
-2.5
 49
2.5
 49
-2.5
  0
LTYPE
  2
PHANTOM1
 70
    64
  3
--- - - --- - - --- - - --- - - 
 72
    65
 73
     6
 40
10.0
 49
3.25
 49
-1.25
 49
1.25
 49
-1.25
 49
1.25
 49
-1.25
  0
LTYPE
  2
PHANTOM2
 70
    64
  3
--------  -  -  --------  -  -  
 72
    65
 73
     6
 40
20.0
 49
10.0
 49
-2.5
 49
1.25
 49
-2.5
 49
1.25
 49
-2.5
  0
LTYPE
  2
DOT
 70
    64
  3
-   -   -   -   -   -   -   -   
 72
    65
 73
     2
 40
2.5
 49
0.625
 49
-1.875
  0
LTYPE
  2
DUMMY
 70
    64
  3
ダミー
 72
    65
 73
     0
 40
0.0
  0
LTYPE
  2
RAND1
 70
    64
  3
ランダム線1
 72
    65
 73
     4
 40
10.0
 49
1.0
 49
-2.0
 49
3.0
 49
-4.0
  0
LTYPE
  2
RAND2
 70
    64
  3
ランダム線2
 72
    65
 73
     4
 40
14.0
 49
2.0
 49
-3.0
 49
4.0
 49
-5.0
  0
LTYPE
  2
RAND3
 70
    64
  3
ランダム線3
 72
    65
 73
     4
 40
18.0
 49
3.0
 49
-4.0
 49
5.0
 49
-6.0
  0
LTYPE
  2
RAND4
 70
    64
  3
ランダム線4
 72
    65
 73
     4
 40
22.0
 49
4.0
 49
-5.0
 49
6.0
 49
-7.0
  0
LTYPE
  2
RAND5
 70
    64
  3
ランダム線5
 72
    65
 73
     4
 40
26.0
 49
5.0
 49
-6.0
 49
7.0
 49
-8.0
  0
LTYPE
  2
LONG1
 70
    64
  3
----------  --  ----------  --  
 72
    65
 73
     4
 40
40.0
 49
32.5
 49
-2.5
 49
2.5
 49
-2.5
  0
LTYPE
  2
LONG2
 70
    64
  3
--------  -  -  --------  -  -  
 72
    65
 73
     6
 40
40.0
 49
30.0
 49
-2.5
 49
1.25
 49
-2.5
 49
1.25
 49
-2.5
  0
LTYPE
  2
LONG3
 70
    64
  3
+++++++++++++++..+++++++++++++++
 72
    65
 73
     2
 40
40.0
 49
37.5
 49
-2.5
  0
LTYPE
  2
LONG4
 70
    64
  3
+++++++++++++++..+++++++++++++++
 72
    65
 73
     2
 40
80.0
 49
75.0
 49
-5.0
  0
LTYPE
  2
LONG5
 70
    64
  3
----------  --  ----------  --  
 72
    65
 73
     4
 40
60.0
 49
37.5
 49
-7.5
 49
7.5
 49
-7.5
  0
LTYPE
  2
dashed
 70
   64
  3
-------   -------------   ------
 72
   65
 73
    2
 40
7.5
 49
6
 49
-1.5
  0
LTYPE
  2
dashed_spaced
 70
   64
  3
----        --------        ----
 72
   65
 73
    2
 40
12
 49
6
 49
-6
  0
LTYPE
  2
long_dashed_dotted
 70
   64
  3
------------- --- --------------
 72
   65
 73
    4
 40
15.25
 49
12
 49
-1.5
 49
0.25
 49
-1.5
  0
LTYPE
  2
long_dashed_double-dotted
 70
   64
  3
----------- --- --- ------------
 72
   65
 73
    6
 40
17
 49
12
 49
-1.5
 49
0.25
 49
-1.5
 49
0.25
 49
-1.5
  0
LTYPE
  2
long_dashed_triplicate-dotted
 70
   64
  3
--------- --- --- --- ----------
 72
   65
 73
    8
 40
18.75
 49
12
 49
-1.5
 49
0.25
 49
-1.5
 49
0.25
 49
-1.5
 49
0.25
 49
-1.5
  0
LTYPE
  2
dotted
 70
   64
  3
   -       -       -       -    
 72
   65
 73
    2
 40
1.75
 49
0.25
 49
-1.5
  0
LTYPE
  2
chain
 70
   64
  3
-------------- -- --------------
 72
   65
 73
    4
 40
18.5
 49
12
 49
-1.5
 49
3.5
 49
-1.5
  0
LTYPE
  2
chain_double_dash
 70
   64
  3
------------ -- -- -------------
 72
   65
 73
    6
 40
23.5
 49
12
 49
-1.5
 49
3.5
 49
-1.5
 49
3.5
 49
-1.5
  0
LTYPE
  2
dashed_dotted
 70
   64
  3
-----------     -     ----------
 72
   65
 73
    4
 40
9.25
 49
6
 49
-1.5
 49
0.25
 49
-1.5
  0
LTYPE
  2
double-dashed_dotted
 70
   64
  3
------   -----------   -   -----
 72
   65
 73
    6
 40
16.75
 49
6
 49
-1.5
 49
6
 49
-1.5
 49
0.25
 49
-1.5
  0
LTYPE
  2
dashed_double-dotted
 70
   64
  3
---------    -    -    ---------
 72
   65
 73
    6
 40
11
 49
6
 49
-1.5
 49
0.25
 49
-1.5
 49
0.25
 49
-1.5
  0
LTYPE
  2
double-dashed_double-dotted
 70
   64
  3
-----   ---------   -   -   ----
 72
   65
 73
    8
 40
18.5
 49
6
 49
-1.5
 49
6
 49
-1.5
 49
0.25
 49
-1.5
 49
0.25
 49
-1.5
  0
LTYPE
  2
dashed_triplicate-dotted
 70
   64
  3
-------    -    -    -    ------
 72
   65
 73
    8
 40
12.75
 49
6
 49
-1.5
 49
0.25
 49
-1.5
 49
0.25
 49
-1.5
 49
0.25
 49
-1.5
  0
LTYPE
  2
double-dashed_triplicate-dotted
 70
   64
  3
-----  ---------  -  -  -  -----
 72
   65
 73
   10
 40
20.25
 49
6
 49
-1.5
 49
6
 49
-1.5
 49
0.25
 49
-1.5
 49
0.25
 49
-1.5
 49
0.25
 49
-1.5
  0
LTYPE
  2
undefined
 70
   64
  3
--------------------------------
 72
   65
 73
    0
 40
0
  0
LTYPE
  2
_
 70
   64
  3
                                
 72
   65
 73
    0
 40
0
  0
LTYPE
  2
__18
 70
   64
  3
                                
 72
   65
 73
    0
 40
0
  0
LTYPE
  2
__19
 70
   64
  3
                                
 72
   65
 73
    0
 40
0
  0
LTYPE
  2
__20
 70
   64
  3
                                
 72
   65
 73
    0
 40
0
  0
LTYPE
  2
__21
 70
   64
  3
                                
 72
   65
 73
    0
 40
0
  0
LTYPE
  2
__22
 70
   64
  3
                                
 72
   65
 73
    0
 40
0
  0
LTYPE
  2
__23
 70
   64
  3
                                
 72
   65
 73
    0
 40
0
  0
LTYPE
  2
__24
 70
   64
  3
                                
 72
   65
 73
    0
 40
0
  0
LTYPE
  2
__25
 70
   64
  3
                                
 72
   65
 73
    0
 40
0
  0
LTYPE
  2
__26
 70
   64
  3
                                
 72
   65
 73
    0
 40
0
  0
LTYPE
  2
__27
 70
   64
  3
                                
 72
   65
 73
    0
 40
0
  0
LTYPE
  2
__28
 70
   64
  3
                                
 72
   65
 73
    0
 40
0
  0
LTYPE
  2
__29
 70
   64
  3
                                
 72
   65
 73
    0
 40
0
  0
LTYPE
  2
__30
 70
   64
  3
                                
 72
   65
 73
    0
 40
0
  0
LTYPE
  2
__31
 70
   64
  3
                                
 72
   65
 73
    0
 40
0
  0
LTYPE
  2
__32
 70
   64
  3
                                
 72
   65
 73
    0
 40
0
  0
ENDTAB
  0
TABLE
  2
STYLE
  5
3
100
AcDbSymbolTable
 70
     1
  0
STYLE
  5
10
100
AcDbSymbolTableRecord
100
AcDbTextStyleTableRecord
  2
STANDARD
 70
     0
 40
0.0
 41
1.0
 50
0.0
 71
     0
 42
0.2
  3
txt
  4
bigfont.shx
  0
STYLE
  5
26
100
AcDbSymbolTableRecord
100
AcDbTextStyleTableRecord
  2
TATEGAKI
 70
    68
 40
0.0
 41
1.0
 50
0.0
 71
     0
 42
1.0
  3
txt
  4
bigfont.shx
  0
ENDTAB
  0
TABLE
  2
LAYER
 70
    4
  0
LAYER
  2
_0-0_
 70
   64
 62
    7
  6
CONTINUOUS
  0
LAYER
  2
_0-1_
 70
   64
 62
    7
  6
CONTINUOUS
  0
LAYER
  2
_2-2_
 70
   64
 62
    7
  6
CONTINUOUS
  0
LAYER
  2
ADD_LINE
 70
   64
 62
    7
  6
CONTINUOUS
  0
ENDTAB
  0
ENDSEC
  0
SECTION
  2
BLOCKS
  0
ENDSEC
  0
SECTION
  2
ENTITIES
  0
LINE
  8
_2-2_
  6
CONTINUOUS
 62
    7
 10
2584.0357289486628
 20
1488.6796182978514
 11
2584.0357289486628
 21
1344.5005138202396
  0
LINE
  8
_2-2_
  6
CONTINUOUS
 62
    7
 10
1381.9634034202998
 20
1397.2551449210773
 11
1566.8887765546278
 21
1293.8223091001819
  0
LINE
  8
_2-2_
  6
CONTINUOUS
 62
    7
 10
1381.9634034202998
 20
1397.2551449210773
 11
1411.0442901804331
 21
1389.886154132354
  0
LINE
  8
_2-2_
  6
CONTINUOUS
 62
    7
 10
1381.9634034202998
 20
1397.2551449210773
 11
1403.4636947247918
 21
1376.3329683177226
  0
TEXT
  8
_2-2_
 62
    7
 10
1566.8887765546283
 20
1262.4790255180924
 40
64
 41
1
 50
0
  1
1
  0
LINE
  8
_2-2_
  6
CONTINUOUS
 62
    7
 10
2499.4088632770213
 20
1495.4900107798858
 11
2486.8715498441852
 21
1495.4900107798858
  0
LINE
  8
_2-2_
  6
CONTINUOUS
 62
    7
 10
2499.4088632770213
 20
1495.4900107798858
 11
2499.4088632770213
 21
1337.6901213382052
  0
LINE
  8
_2-2_
  6
CONTINUOUS
 62
    7
 10
2499.4088632770213
 20
1495.4900107798858
 11
2505.3701105875061
 21
1488.6796182978514
  0
LINE
  8
_2-2_
  6
CONTINUOUS
 62
    7
 10
2584.0357289486628
 20
1488.6796182978514
 11
2505.3701105875061
 21
1488.6796182978514
  0
LINE
  8
_2-2_
  6
CONTINUOUS
 62
    7
 10
2584.0357289486628
 20
1344.5005138202396
 11
2507.5528466825499
 21
1344.5005138202396
  0
LINE
  8
_2-2_
  6
CONTINUOUS
 62
    7
 10
2499.4088632770213
 20
1337.6901213382052
 11
2507.5528466825499
 21
1344.5005138202396
  0
LINE
  8
_2-2_
  6
CONTINUOUS
 62
    7
 10
2506.0909628693635
 20
1375.6834859743449
 11
2506.0909628693635
 21
1457.8725407007125
  0
LINE
  8
_2-2_
  6
CONTINUOUS
 62
    7
 10
2584.0357289486628
 20
1363.1461725415083
 11
2499.4088632770213
 21
1363.1461725415083
  0
LINE
  8
_2-2_
  6
CONTINUOUS
 62
    7
 10
2584.0357289486628
 20
1375.6834859743449
 11
2506.0909628693635
 21
1375.6834859743449
  0
LINE
  8
_2-2_
  6
CONTINUOUS
 62
    7
 10
2584.0357289486628
 20
1457.8725407007125
 11
2506.0909628693635
 21
1457.8725407007125
  0
LINE
  8
_2-2_
  6
CONTINUOUS
 62
    7
 10
2584.0357289486628
 20
1471.8028889594189
 11
2499.4088632770213
 21
1471.8028889594189
  0
LINE
  8
_2-2_
  6
CONTINUOUS
 62
    7
 10
2486.8715498441852
 20
1337.6901213382052
 11
2499.4088632770213
 21
1337.6901213382052
  0
LINE
  8
_2-2_
  6
CONTINUOUS
 62
    7
 10
340.84343288785385
 20
1488.9381931128814
 11
425.47029855949643
 21
1488.9381931128814
  0
LINE
  8
_2-2_
  6
CONTINUOUS
 62
    7
 10
340.84343288785385
 20
1488.9381931128814
 11
340.84343288785385
 21
1344.7590886352691
  0
LINE
  8
_2-2_
  6
CONTINUOUS
 62
    7
 10
425.47029855949643
 20
1337.9486961532348
 11
438.00761199233148
 21
1337.9486961532348
  0
LINE
  8
_2-2_
  6
CONTINUOUS
 62
    7
 10
425.47029855949643
 20
1495.7485855949158
 11
438.00761199233148
 21
1495.7485855949158
  0
LINE
  8
_2-2_
  6
CONTINUOUS
 62
    7
 10
425.47029855949643
 20
1495.7485855949158
 11
425.47029855949643
 21
1337.9486961532348
  0
LINE
  8
_2-2_
  6
CONTINUOUS
 62
    7
 10
340.84343288785385
 20
1344.7590886352691
 11
425.47029855949643
 21
1344.7590886352691
  0
LINE
  8
_2-2_
  6
CONTINUOUS
 62
    7
 10
399.20184658070627
 20
1472.918292615369
 11
399.20184658070627
 21
1456.8983921178567
  0
LINE
  8
_2-2_
  6
CONTINUOUS
 62
    7
 10
399.20184658070627
 20
1440.878491620344
 11
399.20184658070627
 21
1424.8585911228315
  0
LINE
  8
_2-2_
  6
CONTINUOUS
 62
    7
 10
399.20184658070627
 20
1408.8386906253193
 11
399.20184658070627
 21
1392.818790127807
  0
LINE
  8
_2-2_
  6
CONTINUOUS
 62
    7
 10
399.20184658070627
 20
1376.7988896302945
 11
399.20184658070627
 21
1360.7789891327818
  0
LINE
  8
_2-2_
  6
CONTINUOUS
 62
    7
 10
340.84343288785385
 20
1472.918292615369
 11
399.20184658070627
 21
1472.918292615369
  0
LINE
  8
_2-2_
  6
CONTINUOUS
 62
    7
 10
340.84343288785385
 20
1456.8983921178567
 11
399.20184658070627
 21
1456.8983921178567
  0
LINE
  8
_2-2_
  6
CONTINUOUS
 62
    7
 10
340.84343288785385
 20
1440.878491620344
 11
399.20184658070627
 21
1440.878491620344
  0
LINE
  8
_2-2_
  6
CONTINUOUS
 62
    7
 10
340.84343288785385
 20
1424.8585911228315
 11
399.20184658070627
 21
1424.8585911228315
  0
LINE
  8
_2-2_
  6
CONTINUOUS
 62
    7
 10
340.84343288785385
 20
1408.8386906253193
 11
399.20184658070627
 21
1408.8386906253193
  0
LINE
  8
_2-2_
  6
CONTINUOUS
 62
    7
 10
340.84343288785385
 20
1392.818790127807
 11
399.20184658070627
 21
1392.818790127807
  0
LINE
  8
_2-2_
  6
CONTINUOUS
 62
    7
 10
340.84343288785385
 20
1376.7988896302945
 11
399.20184658070627
 21
1376.7988896302945
  0
LINE
  8
_2-2_
  6
CONTINUOUS
 62
    7
 10
340.84343288785385
 20
1360.7789891327818
 11
399.20184658070627
 21
1360.7789891327818
  0
LINE
  8
_2-2_
  6
CONTINUOUS
 62
    7
 10
412.23746624197202
 20
1357.1173890920504
 11
553.2822423613751
 21
1263.0875383457819
  0
LINE
  8
_2-2_
  6
CONTINUOUS
 62
    7
 10
412.23746624197202
 20
1357.1173890920504
 11
440.65544153729797
 21
1347.5039256103373
  0
LINE
  8
_2-2_
  6
CONTINUOUS
 62
    7
 10
412.23746624197202
 20
1357.1173890920504
 11
432.04142303098661
 21
1334.5828978508698
  0
LINE
  8
_2-2_
  6
CONTINUOUS
 62
    7
 10
2515.3717946001816
 20
1350.8487323756326
 11
2311.640451316599
 21
1169.0576875995132
  0
LINE
  8
_2-2_
  6
CONTINUOUS
 62
    7
 10
2515.3717946001816
 20
1350.8487323756326
 11
2498.9198355133831
 21
1325.7622212151241
  0
LINE
  8
_2-2_
  6
CONTINUOUS
 62
    7
 10
2515.3717946001816
 20
1350.8487323756326
 11
2488.5807245087376
 21
1337.3491559617096
  0
LINE
  8
_0-0_
  6
CONTINUOUS
 62
    7
 10
30.037313432835447
 20
2027.3358208955226
 11
30.037313432835447
 21
38.604477611940325
  0
LINE
  8
_0-0_
  6
CONTINUOUS
 62
    7
 10
1230.0373134328354
 20
708.60447761194041
 11
30.037313432835447
 21
708.60447761194041
  0
LINE
  8
_0-0_
  6
CONTINUOUS
 62
    7
 10
1230.0373134328354
 20
708.60447761194041
 11
1230.0373134328354
 21
682.14303482587115
  0
LINE
  8
_0-0_
  6
CONTINUOUS
 62
    7
 10
1230.0373134328354
 20
682.14303482587115
 11
1230.0373134328354
 21
38.604477611940325
  0
LINE
  8
_0-0_
  6
CONTINUOUS
 62
    7
 10
1230.0373134328354
 20
584.05902306648579
 11
30.037313432835447
 21
584.05902306648579
  0
LINE
  8
_0-0_
  6
CONTINUOUS
 62
    7
 10
1230.0373134328354
 20
529.51356852103129
 11
30.037313432835447
 21
529.51356852103129
  0
LINE
  8
_0-0_
  6
CONTINUOUS
 62
    7
 10
1230.0373134328354
 20
474.96811397557678
 11
30.037313432835447
 21
474.96811397557678
  0
LINE
  8
_0-0_
  6
CONTINUOUS
 62
    7
 10
1230.0373134328354
 20
638.60447761194041
 11
30.037313432835447
 21
638.60447761194041
  0
LINE
  8
_0-0_
  6
CONTINUOUS
 62
    7
 10
1230.0373134328354
 20
420.42265943012217
 11
30.037313432835447
 21
420.42265943012217
  0
LINE
  8
_0-0_
  6
CONTINUOUS
 62
    7
 10
1230.0373134328354
 20
365.87720488466761
 11
30.037313432835447
 21
365.87720488466761
  0
LINE
  8
_0-0_
  6
CONTINUOUS
 62
    7
 10
1230.0373134328354
 20
311.33175033921316
 11
30.037313432835447
 21
311.33175033921316
  0
LINE
  8
_0-0_
  6
CONTINUOUS
 62
    7
 10
1230.0373134328354
 20
256.78629579375865
 11
30.037313432835447
 21
256.78629579375865
  0
LINE
  8
_0-0_
  6
CONTINUOUS
 62
    7
 10
1230.0373134328354
 20
202.24084124830412
 11
30.037313432835447
 21
202.24084124830412
  0
LINE
  8
_0-0_
  6
CONTINUOUS
 62
    7
 10
1230.0373134328354
 20
147.69538670284939
 11
30.037313432835447
 21
147.69538670284939
  0
LINE
  8
_0-0_
  6
CONTINUOUS
 62
    7
 10
1230.0373134328354
 20
93.149932157395057
 11
30.037313432835447
 21
93.149932157395057
  0
LINE
  8
_0-0_
  6
CONTINUOUS
 62
    7
 10
1030.0373134328352
 20
708.60447761194041
 11
1030.0373134328352
 21
38.604477611940325
  0
LINE
  8
_0-0_
  6
CONTINUOUS
 62
    7
 10
100.03731343283545
 20
708.60447761194041
 11
100.03731343283545
 21
38.604477611940325
  0
TEXT
  8
_0-0_
 62
    7
 10
55.939054726367431
 20
588.11318407960232
 40
40
 41
1
 50
0
  1
1
  0
TEXT
  8
_0-0_
 62
    7
 10
55.939054726367431
 20
534.82960199005015
 40
40
 41
1
 50
0
  1
2
  0
TEXT
  8
_0-0_
 62
    7
 10
55.939054726367431
 20
481.54601990049787
 40
40
 41
1
 50
0
  1
3
  0
TEXT
  8
_0-0_
 62
    7
 10
52.804726368158271
 20
425.12810945273668
 40
40
 41
1
 50
0
  1
4
  0
TEXT
  8
_0-0_
 62
    7
 10
52.804726368158271
 20
371.8445273631844
 40
40
 41
1
 50
0
  1
5
  0
TEXT
  8
_0-0_
 62
    7
 10
52.804726368158271
 20
318.56094527363234
 40
40
 41
1
 50
0
  1
6
  0
TEXT
  8
_0-0_
 62
    7
 10
49.670398009949309
 20
265.27736318408006
 40
40
 41
1
 50
0
  1
7
  0
TEXT
  8
_0-0_
 62
    7
 10
55.939054726367431
 20
208.85945273631873
 40
40
 41
1
 50
0
  1
8
  0
TEXT
  8
_0-0_
 62
    7
 10
55.939054726367431
 20
155.57587064676648
 40
40
 41
1
 50
0
  1
9
  0
TEXT
  8
_0-0_
 62
    7
 10
40.267412935322625
 20
102.29228855721425
 40
40
 41
1
 50
0
  1
10
  0
TEXT
  8
_0-0_
 62
    7
 10
46.536069651740547
 20
49.008706467662108
 40
40
 41
1
 50
0
  1
11
  0
TEXT
  8
_0-0_
 62
    7
 10
168.77487562189003
 20
650.79975124378143
 40
40
 41
1
 50
0
  1
名称
  0
TEXT
  8
_0-0_
 62
    7
 10
1112.2077114427852
 20
653.93407960199033
 40
40
 41
1
 50
0
  1
数
  0
TEXT
  8
_0-0_
 62
    7
 10
1266.9651741293526
 20
79.046019900497356
 40
40
 41
1
 50
0
  1
装置名称
  0
LINE
  8
_0-0_
  6
CONTINUOUS
 62
    7
 10
1870.667495854063
 20
365.87720488466761
 11
1870.667495854063
 21
147.69538670284939
  0
LINE
  8
_0-0_
  6
CONTINUOUS
 62
    7
 10
1669.1148424543942
 20
365.87720488466761
 11
1669.1148424543942
 21
147.69538670284939
  0
LINE
  8
_0-0_
  6
CONTINUOUS
 62
    7
 10
1230.0373134328354
 20
311.33175033921316
 11
2072.2201492537306
 21
311.33175033921316
  0
TEXT
  8
_0-0_
 62
    7
 10
1931.0945273631837
 20
320.04104477611918
 40
40
 41
1
 50
0
  1
Rev
  0
LINE
  8
_0-0_
  6
CONTINUOUS
 62
    7
 10
1870.667495854063
 20
256.78629579375865
 11
2072.2201492537306
 21
256.78629579375865
  0
TEXT
  8
_0-0_
 62
    7
 10
1283.3333333333328
 20
152.87686567164167
 40
40
 41
1
 50
0
  1
/  /  /
  0
TEXT
  8
_0-0_
 62
    7
 10
1492.5207296849085
 20
155.19859038142619
 40
40
 41
1
 50
0
  1
/  /  /
  0
TEXT
  8
_0-0_
 62
    7
 10
1688.9386401326694
 20
156.59162520729683
 40
40
 41
1
 50
0
  1
/  /  /
  0
TEXT
  8
_0-0_
 62
    7
 10
2400.9907083239486
 20
273.48090992226798
 40
64
 41
1
 50
0
  1
SMART DIYs
  0
TEXT
  8
_0-0_
 62
    7
 10
2273.5280217567843
 20
235.86896962376056
 40
30
 41
1
 50
0
  1
makind your idea reality.
  0
LINE
  8
_0-0_
  6
CONTINUOUS
 62
    7
 10
2292.4216099421278
 20
332.54697645965109
 11
2257.9439980018292
 21
276.12906601188979
  0
LINE
  8
_0-0_
  6
CONTINUOUS
 62
    7
 10
2328.2607417009258
 20
276.12906601188979
 11
2292.4216099421278
 21
332.54697645965109
  0
LINE
  8
_0-0_
  6
CONTINUOUS
 62
    7
 10
2331.7953526992319
 20
276.15978679737373
 11
2331.814867889886
 21
276.12906601188979
  0
LINE
  8
_0-0_
  6
CONTINUOUS
 62
    7
 10
2257.9439980018292
 20
276.12906601188979
 11
2328.2607417009258
 21
276.12906601188979
  0
LINE
  8
_0-0_
  6
CONTINUOUS
 62
    7
 10
2331.7765788858806
 20
276.12906601188979
 11
2366.2541908261792
 21
332.54697645965109
  0
LINE
  8
_0-0_
  6
CONTINUOUS
 62
    7
 10
2366.2541908261792
 20
332.54697645965109
 11
2389.4697028161836
 21
332.54697645965109
  0
LINE
  8
_0-0_
  6
CONTINUOUS
 62
    7
 10
2354.992090875885
 20
276.12906601188979
 11
2331.7953526992319
 21
276.12906601188979
  0
LINE
  8
_0-0_
  6
CONTINUOUS
 62
    7
 10
2389.4697028161836
 20
332.54697645965109
 11
2354.992090875885
 21
276.12906601188979
  0
SOLID
  8
_0-0_
  6
CONTINUOUS
 62
    7
 10
2257.9439980018292
 20
276.12906601188979
 11
2328.2607417009258
 21
276.12906601188979
 12
2292.4216099421278
 22
332.54697645965109
 13
2292.4216099421278
 23
332.54697645965109
  0
SOLID
  8
_0-0_
  6
CONTINUOUS
 62
    7
 10
2331.7765788858806
 20
276.12906601188979
 11
2366.2541908261792
 21
332.54697645965109
 12
2331.7953526992319
 22
276.12906601188979
 13
2354.992090875885
 23
276.12906601188979
  0
SOLID
  8
_0-0_
  6
CONTINUOUS
 62
    7
 10
2366.2541908261792
 20
332.54697645965109
 11
2389.4697028161836
 21
332.54697645965109
 12
2354.992090875885
 22
276.12906601188979
 13
2354.992090875885
 23
276.12906601188979
  0
LINE
  8
_0-0_
  6
CONTINUOUS
 62
    7
 10
2298.3451535903941
 20
332.54697645965109
 11
2360.3944621845876
 21
332.54697645965109
  0
LINE
  8
_0-0_
  6
CONTINUOUS
 62
    7
 10
2329.9705279929094
 20
282.76235687326857
 11
2298.3451535903941
 21
332.54697645965109
  0
LINE
  8
_0-0_
  6
CONTINUOUS
 62
    7
 10
2360.3944621845876
 20
332.54697645965109
 11
2329.9705279929094
 21
282.76235687326857
  0
SOLID
  8
_0-0_
  6
CONTINUOUS
 62
    7
 10
2298.3451535903941
 20
332.54697645965109
 11
2360.3944621845876
 21
332.54697645965109
 12
2329.9705279929094
 22
282.76235687326857
 13
2329.9705279929094
 23
282.76235687326857
  0
TEXT
  8
_0-0_
 62
    7
 10
1521.1150864334013
 20
315.96847211132297
 40
40
 41
1
 50
0
  1
確認
  0
TEXT
  8
_0-0_
 62
    7
 10
1719.6225491199689
 20
315.96847211132297
 40
40
 41
1
 50
0
  1
承認
  0
TEXT
  8
_0-0_
 62
    7
 10
469.67039800994951
 20
653.93407960199033
 40
40
 41
1
 50
0
  1
部材　　規格    長さ　　　
  0
LINE
  8
_0-0_
  6
CONTINUOUS
 62
    7
 10
388.65671641791062
 20
707.26119402985069
 11
388.65671641791062
 21
38.604477611940325
  0
LINE
  8
_0-0_
  6
CONTINUOUS
 62
    7
 10
2604.6268656716416
 20
202.24084124830412
 11
2604.6268656716416
 21
38.604477611940325
  0
LINE
  8
_0-0_
  6
CONTINUOUS
 62
    7
 10
2717.4626865671644
 20
145.05555555555571
 11
2717.4626865671644
 21
38.604477611940325
  0
TEXT
  8
_0-0_
 62
    7
 10
2638.28861174744
 20
76.349529596342848
 40
40
 41
1
 50
0
  1
頁
  0
LINE
  8
_0-0_
  6
CONTINUOUS
 62
    7
 10
1467.5621890547259
 20
450.60366377986566
 11
1467.5621890547259
 21
38.604477611940325
  0
LINE
  8
_0-0_
  6
CONTINUOUS
 62
    7
 10
2072.2201492537306
 20
450.60366377986566
 11
2072.2201492537306
 21
38.604477611940325
  0
TEXT
  8
_0-0_
 62
    7
 10
1296.204394693201
 20
318.96187273508951
 40
40
 41
1
 50
0
  1
設計
  0
TEXT
  8
_0-0_
 62
    7
 10
1243.9655887230517
 20
385.82754437688061
 40
40
 41
1
 50
0
  1
ハーネス名
  0
TEXT
  8
_0-0_
 62
    7
 10
2416.2043946932008
 20
392.09620109329853
 40
40
 41
1
 50
0
  1
会社名
  0
LINE
  8
_0-0_
  6
CONTINUOUS
 62
    7
 10
30.037313432835447
 20
2027.3358208955226
 11
2695.8899944720838
 21
2027.3358208955226
  0
LINE
  8
_0-0_
  6
CONTINUOUS
 62
    7
 10
2695.8899944720838
 20
2027.3358208955226
 11
2879.248203427308
 21
2027.3358208955226
  0
LINE
  8
_0-0_
  6
CONTINUOUS
 62
    7
 10
2879.248203427308
 20
2027.3358208955226
 11
2879.248203427308
 21
1897.1741293532334
  0
LINE
  8
_0-0_
  6
CONTINUOUS
 62
    7
 10
2879.248203427308
 20
38.604477611940325
 11
30.037313432835447
 21
38.604477611940325
  0
LINE
  8
_0-0_
  6
CONTINUOUS
 62
    7
 10
2879.248203427308
 20
1897.1741293532334
 11
2879.248203427308
 21
38.604477611940325
  0
LINE
  8
_0-0_
  6
CONTINUOUS
 62
    7
 10
1230.0373134328354
 20
450.60366377986566
 11
2879.248203427308
 21
450.60366377986566
  0
LINE
  8
_0-0_
  6
CONTINUOUS
 62
    7
 10
1230.0373134328354
 20
365.87720488466761
 11
2879.248203427308
 21
365.87720488466761
  0
LINE
  8
_0-0_
  6
CONTINUOUS
 62
    7
 10
1230.0373134328354
 20
202.24084124830412
 11
2879.248203427308
 21
202.24084124830412
  0
LINE
  8
_0-0_
  6
CONTINUOUS
 62
    7
 10
1230.0373134328354
 20
147.69538670284939
 11
2879.248203427308
 21
147.69538670284939
  0
TEXT
  8
_2-2_
 62
    7
 10
2284.1152321630802
 20
1139.4249716874294
 40
64
 41
1
 50
0
  1
2
  0
LINE
  8
_2-2_
  6
CONTINUOUS
 62
    7
 10
438.00761199233148
 20
1337.9486961532348
 11
438.00761199233148
 21
1495.7485855949158
  0
LINE
  8
_2-2_
  6
CONTINUOUS
 62
    7
 10
438.00761199233148
 20
1527.508210645527
 11
438.00761199233148
 21
1865.5364051230063
  0
LINE
  8
_2-2_
  6
CONTINUOUS
 62
    7
 10
2486.8715498441852
 20
1541.8966591166482
 11
2486.8715498441852
 21
1865.5364051230063
  0
LINE
  8
_2-2_
  6
CONTINUOUS
 62
    7
 10
2486.8715498441852
 20
1337.6901213382052
 11
2486.8715498441852
 21
1495.4900107798858
  0
LINE
  8
_2-2_
  6
CONTINUOUS
 62
    7
 10
667.7172130910642
 20
1445.125063058556
 11
667.7172130910642
 21
1392.4246761044378
  0
LINE
  8
_2-2_
  6
CONTINUOUS
 62
    7
 10
918.46348174778018
 20
1458.7748695814971
 11
918.46348174778018
 21
1378.7748695814971
  0
LINE
  8
_2-2_
  6
CONTINUOUS
 62
    7
 10
793.09034741942219
 20
1445.125063058556
 11
667.7172130910642
 21
1445.125063058556
  0
LINE
  8
_2-2_
  6
CONTINUOUS
 62
    7
 10
793.09034741942219
 20
1392.4246761044378
 11
667.7172130910642
 21
1392.4246761044378
  0
LINE
  8
_2-2_
  6
CONTINUOUS
 62
    7
 10
793.09034741942219
 20
1458.7748695814971
 11
793.09034741942219
 21
1445.125063058556
  0
LINE
  8
_2-2_
  6
CONTINUOUS
 62
    7
 10
793.09034741942219
 20
1392.4246761044378
 11
793.09034741942219
 21
1378.7748695814971
  0
LINE
  8
_2-2_
  6
CONTINUOUS
 62
    7
 10
911.63469500696533
 20
1378.7748695814985
 11
918.46348174777904
 21
1385.603656322312
  0
LINE
  8
_2-2_
  6
CONTINUOUS
 62
    7
 10
897.49255938323336
 20
1378.7748695814996
 11
918.46348174777802
 21
1399.7457919460444
  0
LINE
  8
_2-2_
  6
CONTINUOUS
 62
    7
 10
883.3504237594957
 20
1378.7748695814953
 11
918.463481747782
 21
1413.8879275697814
  0
LINE
  8
_2-2_
  6
CONTINUOUS
 62
    7
 10
869.20828813578305
 20
1378.774869581498
 11
918.46348174777961
 21
1428.0300631934942
  0
LINE
  8
_2-2_
  6
CONTINUOUS
 62
    7
 10
855.06615251204551
 20
1378.7748695814939
 11
918.46348174777961
 21
1442.172198817228
  0
LINE
  8
_2-2_
  6
CONTINUOUS
 62
    7
 10
840.92401688831364
 20
1378.7748695814948
 11
918.46348174778245
 21
1456.3143344409641
  0
LINE
  8
_2-2_
  6
CONTINUOUS
 62
    7
 10
826.7818812645811
 20
1378.7748695814958
 11
906.78188126458099
 21
1458.7748695814958
  0
LINE
  8
_2-2_
  6
CONTINUOUS
 62
    7
 10
812.63974564084924
 20
1378.7748695814971
 11
892.63974564084879
 21
1458.7748695814971
  0
LINE
  8
_2-2_
  6
CONTINUOUS
 62
    7
 10
798.4976100171167
 20
1378.774869581498
 11
878.49761001711659
 21
1458.774869581498
  0
LINE
  8
_2-2_
  6
CONTINUOUS
 62
    7
 10
793.09034741942446
 20
1387.5097426075395
 11
864.35547439338211
 21
1458.7748695814971
  0
LINE
  8
_2-2_
  6
CONTINUOUS
 62
    7
 10
783.86314529258902
 20
1392.4246761044369
 11
850.21333876964695
 21
1458.7748695814951
  0
LINE
  8
_2-2_
  6
CONTINUOUS
 62
    7
 10
769.72100966887615
 20
1392.4246761044396
 11
836.07120314593453
 21
1458.7748695814976
  0
LINE
  8
_2-2_
  6
CONTINUOUS
 62
    7
 10
755.57887404514395
 20
1392.4246761044406
 11
821.92906752220188
 21
1458.7748695814985
  0
LINE
  8
_2-2_
  6
CONTINUOUS
 62
    7
 10
741.43673842140652
 20
1392.4246761044362
 11
807.78693189846445
 21
1458.7748695814948
  0
LINE
  8
_2-2_
  6
CONTINUOUS
 62
    7
 10
727.29460279767432
 20
1392.4246761044374
 11
779.99498975179051
 21
1445.1250630585537
  0
LINE
  8
_2-2_
  6
CONTINUOUS
 62
    7
 10
793.09034741942378
 20
1458.2204207261868
 11
793.64479627473224
 21
1458.7748695814953
  0
LINE
  8
_2-2_
  6
CONTINUOUS
 62
    7
 10
713.15246717394211
 20
1392.4246761044387
 11
765.85285412805865
 21
1445.125063058555
  0
LINE
  8
_2-2_
  6
CONTINUOUS
 62
    7
 10
699.01033155020571
 20
1392.4246761044355
 11
751.71071850432463
 21
1445.1250630585546
  0
LINE
  8
_2-2_
  6
CONTINUOUS
 62
    7
 10
684.86819592647237
 20
1392.4246761044355
 11
737.56858288058902
 21
1445.1250630585521
  0
LINE
  8
_2-2_
  6
CONTINUOUS
 62
    7
 10
670.72606030274051
 20
1392.4246761044369
 11
723.42644725685682
 21
1445.1250630585532
  0
LINE
  8
_2-2_
  6
CONTINUOUS
 62
    7
 10
667.7172130910642
 20
1403.5579645164757
 11
709.28431163313894
 21
1445.1250630585505
  0
LINE
  8
_2-2_
  6
CONTINUOUS
 62
    7
 10
667.7172130910651
 20
1417.70010014021
 11
695.1421760094064
 21
1445.1250630585514
  0
LINE
  8
_2-2_
  6
CONTINUOUS
 62
    7
 10
667.71721309106715
 20
1431.8422357639452
 11
681.00004038567454
 21
1445.1250630585528
  0
LINE
  8
_2-2_
  6
CONTINUOUS
 62
    7
 10
911.63469500696533
 20
1378.7748695814985
 11
918.46348174777904
 21
1385.603656322312
  0
LINE
  8
_2-2_
  6
CONTINUOUS
 62
    7
 10
897.49255938323336
 20
1378.7748695814996
 11
918.46348174777802
 21
1399.7457919460444
  0
LINE
  8
_2-2_
  6
CONTINUOUS
 62
    7
 10
883.3504237594957
 20
1378.7748695814953
 11
918.463481747782
 21
1413.8879275697814
  0
LINE
  8
_2-2_
  6
CONTINUOUS
 62
    7
 10
869.20828813578305
 20
1378.774869581498
 11
918.46348174777961
 21
1428.0300631934942
  0
LINE
  8
_2-2_
  6
CONTINUOUS
 62
    7
 10
855.06615251204551
 20
1378.7748695814939
 11
918.46348174777961
 21
1442.172198817228
  0
LINE
  8
_2-2_
  6
CONTINUOUS
 62
    7
 10
840.92401688831364
 20
1378.7748695814948
 11
918.46348174778245
 21
1456.3143344409641
  0
LINE
  8
_2-2_
  6
CONTINUOUS
 62
    7
 10
826.7818812645811
 20
1378.7748695814958
 11
906.78188126458099
 21
1458.7748695814958
  0
LINE
  8
_2-2_
  6
CONTINUOUS
 62
    7
 10
812.63974564084924
 20
1378.7748695814971
 11
892.63974564084879
 21
1458.7748695814971
  0
LINE
  8
_2-2_
  6
CONTINUOUS
 62
    7
 10
798.4976100171167
 20
1378.774869581498
 11
878.49761001711659
 21
1458.774869581498
  0
LINE
  8
_2-2_
  6
CONTINUOUS
 62
    7
 10
793.09034741942446
 20
1387.5097426075395
 11
864.35547439338211
 21
1458.7748695814971
  0
LINE
  8
_2-2_
  6
CONTINUOUS
 62
    7
 10
783.86314529258902
 20
1392.4246761044369
 11
850.21333876964695
 21
1458.7748695814951
  0
LINE
  8
_2-2_
  6
CONTINUOUS
 62
    7
 10
769.72100966887615
 20
1392.4246761044396
 11
836.07120314593453
 21
1458.7748695814976
  0
LINE
  8
_2-2_
  6
CONTINUOUS
 62
    7
 10
755.57887404514395
 20
1392.4246761044406
 11
821.92906752220188
 21
1458.7748695814985
  0
LINE
  8
_2-2_
  6
CONTINUOUS
 62
    7
 10
741.43673842140652
 20
1392.4246761044362
 11
807.78693189846445
 21
1458.7748695814948
  0
LINE
  8
_2-2_
  6
CONTINUOUS
 62
    7
 10
727.29460279767432
 20
1392.4246761044374
 11
779.99498975179051
 21
1445.1250630585537
  0
LINE
  8
_2-2_
  6
CONTINUOUS
 62
    7
 10
793.09034741942378
 20
1458.2204207261868
 11
793.64479627473224
 21
1458.7748695814953
  0
LINE
  8
_2-2_
  6
CONTINUOUS
 62
    7
 10
713.15246717394211
 20
1392.4246761044387
 11
765.85285412805865
 21
1445.125063058555
  0
LINE
  8
_2-2_
  6
CONTINUOUS
 62
    7
 10
699.01033155020571
 20
1392.4246761044355
 11
751.71071850432463
 21
1445.1250630585546
  0
LINE
  8
_2-2_
  6
CONTINUOUS
 62
    7
 10
684.86819592647237
 20
1392.4246761044355
 11
737.56858288058902
 21
1445.1250630585521
  0
LINE
  8
_2-2_
  6
CONTINUOUS
 62
    7
 10
670.72606030274051
 20
1392.4246761044369
 11
723.42644725685682
 21
1445.1250630585532
  0
LINE
  8
_2-2_
  6
CONTINUOUS
 62
    7
 10
667.7172130910642
 20
1403.5579645164757
 11
709.28431163313894
 21
1445.1250630585505
  0
LINE
  8
_2-2_
  6
CONTINUOUS
 62
    7
 10
667.7172130910651
 20
1417.70010014021
 11
695.1421760094064
 21
1445.1250630585514
  0
LINE
  8
_2-2_
  6
CONTINUOUS
 62
    7
 10
667.71721309106715
 20
1431.8422357639452
 11
681.00004038567454
 21
1445.1250630585528
  0
LINE
  8
_2-2_
  6
CONTINUOUS
 62
    7
 10
793.09034741942219
 20
1458.7748695814971
 11
918.46348174778018
 21
1458.7748695814971
  0
LINE
  8
_2-2_
  6
CONTINUOUS
 62
    7
 10
793.09034741942219
 20
1378.7748695814971
 11
918.46348174778018
 21
1378.7748695814971
  0
LINE
  8
_2-2_
  6
CONTINUOUS
 62
    7
 10
793.09034741942219
 20
1531.3954752105701
 11
918.46348174778018
 21
1531.3954752105701
  0
TEXT
  8
_2-2_
 62
    7
 10
835.99289651627055
 20
1487.570504671095
 40
40
 41
1
 50
0
  1
10
  0
TEXT
  8
_2-2_
 62
    7
 10
947.62517018945243
 20
1254.9034587437918
 40
64
 41
1
 50
0
  1
4
  0
LINE
  8
_2-2_
  6
CONTINUOUS
 62
    7
 10
854.627197091977
 20
1380.9473135438652
 11
946.67068336431896
 21
1279.4105529026274
  0
LINE
  8
_2-2_
  6
CONTINUOUS
 62
    7
 10
854.627197091977
 20
1380.9473135438652
 11
879.84204923365428
 21
1364.6927378350579
  0
LINE
  8
_2-2_
  6
CONTINUOUS
 62
    7
 10
854.627197091977
 20
1380.9473135438652
 11
868.33661174493409
 21
1354.2630119814619
  0
LINE
  8
_2-2_
  6
CONTINUOUS
 62
    7
 10
672.58742577574026
 20
1444.8795230305304
 11
672.58742577574026
 21
1620.4019110902318
  0
LINE
  8
_2-2_
  6
CONTINUOUS
 62
    7
 10
672.58742577574026
 20
1620.4019110902318
 11
918.13686207701721
 21
1620.4019110902318
  0
LINE
  8
_2-2_
  6
CONTINUOUS
 62
    7
 10
793.09034741942219
 20
1471.0886758739202
 11
793.09034741942219
 21
1531.3954752105701
  0
LINE
  8
_0-0_
  6
CONTINUOUS
 62
    7
 10
438.00761199233148
 20
1472.2229993360947
 11
667.71721309106715
 21
1431.8422357639452
  0
LINE
  8
_0-0_
  6
CONTINUOUS
 62
    7
 10
438.00761199233148
 20
1369.138301663997
 11
667.7172130910642
 21
1403.5579645164757
  0
LINE
  8
_2-2_
  6
CONTINUOUS
 62
    7
 10
438.00761199233148
 20
1400.9443771204965
 11
667.7172130910642
 21
1408.012364846611
  0
LINE
  8
_2-2_
  6
CONTINUOUS
 62
    7
 10
438.00761199233148
 20
1437.296691215975
 11
667.7172130910642
 21
1426.7756407839722
  0
TEXT
  8
_2-2_
 62
    7
 10
750.30770599045832
 20
1576.7289158732158
 40
40
 41
1
 50
0
  1
20
  0
LINE
  8
_2-2_
  6
CONTINUOUS
 62
    7
 10
1888.445865106492
 20
1458.7748695814971
 11
1888.445865106492
 21
1378.7748695814971
  0
LINE
  8
_2-2_
  6
CONTINUOUS
 62
    7
 10
2139.1921337632084
 20
1445.125063058556
 11
2139.1921337632084
 21
1392.4246761044378
  0
LINE
  8
_2-2_
  6
CONTINUOUS
 62
    7
 10
2013.8189994348504
 20
1445.125063058556
 11
2139.1921337632084
 21
1445.125063058556
  0
LINE
  8
_2-2_
  6
CONTINUOUS
 62
    7
 10
2013.8189994348504
 20
1392.4246761044378
 11
2139.1921337632084
 21
1392.4246761044378
  0
LINE
  8
_2-2_
  6
CONTINUOUS
 62
    7
 10
2013.8189994348504
 20
1458.7748695814971
 11
2013.8189994348504
 21
1445.125063058556
  0
LINE
  8
_2-2_
  6
CONTINUOUS
 62
    7
 10
2013.8189994348504
 20
1392.4246761044378
 11
2013.8189994348504
 21
1378.7748695814971
  0
LINE
  8
_2-2_
  6
CONTINUOUS
 62
    7
 10
1895.2746518473068
 20
1378.7748695814985
 11
1888.4458651064938
 21
1385.603656322312
  0
LINE
  8
_2-2_
  6
CONTINUOUS
 62
    7
 10
1909.4167874710388
 20
1378.7748695814996
 11
1888.4458651064951
 21
1399.7457919460444
  0
LINE
  8
_2-2_
  6
CONTINUOUS
 62
    7
 10
1923.5589230947764
 20
1378.7748695814953
 11
1888.4458651064901
 21
1413.8879275697814
  0
LINE
  8
_2-2_
  6
CONTINUOUS
 62
    7
 10
1937.7010587184893
 20
1378.774869581498
 11
1888.4458651064931
 21
1428.0300631934942
  0
LINE
  8
_2-2_
  6
CONTINUOUS
 62
    7
 10
1951.8431943422272
 20
1378.7748695814939
 11
1888.4458651064931
 21
1442.172198817228
  0
LINE
  8
_2-2_
  6
CONTINUOUS
 62
    7
 10
1965.985329965959
 20
1378.7748695814948
 11
1888.4458651064899
 21
1456.3143344409641
  0
LINE
  8
_2-2_
  6
CONTINUOUS
 62
    7
 10
1980.1274655896909
 20
1378.7748695814958
 11
1900.1274655896918
 21
1458.7748695814958
  0
LINE
  8
_2-2_
  6
CONTINUOUS
 62
    7
 10
1994.2696012134229
 20
1378.7748695814971
 11
1914.2696012134234
 21
1458.7748695814971
  0
LINE
  8
_2-2_
  6
CONTINUOUS
 62
    7
 10
2008.4117368371556
 20
1378.774869581498
 11
1928.4117368371562
 21
1458.774869581498
  0
LINE
  8
_2-2_
  6
CONTINUOUS
 62
    7
 10
2013.8189994348479
 20
1387.5097426075395
 11
1942.5538724608905
 21
1458.7748695814971
  0
LINE
  8
_2-2_
  6
CONTINUOUS
 62
    7
 10
2023.046201561684
 20
1392.4246761044369
 11
1956.6960080846254
 21
1458.7748695814951
  0
LINE
  8
_2-2_
  6
CONTINUOUS
 62
    7
 10
2037.1883371853962
 20
1392.4246761044396
 11
1970.8381437083378
 21
1458.7748695814976
  0
LINE
  8
_2-2_
  6
CONTINUOUS
 62
    7
 10
2051.330472809128
 20
1392.4246761044406
 11
1984.9802793320703
 21
1458.7748695814985
  0
LINE
  8
_2-2_
  6
CONTINUOUS
 62
    7
 10
2065.4726084328659
 20
1392.4246761044362
 11
1999.1224149558082
 21
1458.7748695814948
  0
LINE
  8
_2-2_
  6
CONTINUOUS
 62
    7
 10
2079.6147440565983
 20
1392.4246761044374
 11
2026.9143571024822
 21
1445.1250630585537
  0
LINE
  8
_2-2_
  6
CONTINUOUS
 62
    7
 10
2013.8189994348486
 20
1458.2204207261868
 11
2013.2645505795401
 21
1458.7748695814953
  0
LINE
  8
_2-2_
  6
CONTINUOUS
 62
    7
 10
2093.7568796803307
 20
1392.4246761044387
 11
2041.0564927262139
 21
1445.125063058555
  0
LINE
  8
_2-2_
  6
CONTINUOUS
 62
    7
 10
2107.8990153040668
 20
1392.4246761044355
 11
2055.1986283499482
 21
1445.1250630585546
  0
LINE
  8
_2-2_
  6
CONTINUOUS
 62
    7
 10
2122.0411509278001
 20
1392.4246761044355
 11
2069.3407639736834
 21
1445.1250630585521
  0
LINE
  8
_2-2_
  6
CONTINUOUS
 62
    7
 10
2136.1832865515325
 20
1392.4246761044369
 11
2083.4828995974158
 21
1445.1250630585532
  0
LINE
  8
_2-2_
  6
CONTINUOUS
 62
    7
 10
2139.1921337632084
 20
1403.5579645164757
 11
2097.6250352211346
 21
1445.1250630585505
  0
LINE
  8
_2-2_
  6
CONTINUOUS
 62
    7
 10
2139.1921337632075
 20
1417.70010014021
 11
2111.7671708448661
 21
1445.1250630585514
  0
LINE
  8
_2-2_
  6
CONTINUOUS
 62
    7
 10
2139.1921337632057
 20
1431.8422357639452
 11
2125.9093064685985
 21
1445.1250630585528
  0
LINE
  8
_2-2_
  6
CONTINUOUS
 62
    7
 10
1895.2746518473068
 20
1378.7748695814985
 11
1888.4458651064938
 21
1385.603656322312
  0
LINE
  8
_2-2_
  6
CONTINUOUS
 62
    7
 10
1909.4167874710388
 20
1378.7748695814996
 11
1888.4458651064951
 21
1399.7457919460444
  0
LINE
  8
_2-2_
  6
CONTINUOUS
 62
    7
 10
1923.5589230947764
 20
1378.7748695814953
 11
1888.4458651064901
 21
1413.8879275697814
  0
LINE
  8
_2-2_
  6
CONTINUOUS
 62
    7
 10
1937.7010587184893
 20
1378.774869581498
 11
1888.4458651064931
 21
1428.0300631934942
  0
LINE
  8
_2-2_
  6
CONTINUOUS
 62
    7
 10
1951.8431943422272
 20
1378.7748695814939
 11
1888.4458651064931
 21
1442.172198817228
  0
LINE
  8
_2-2_
  6
CONTINUOUS
 62
    7
 10
1965.985329965959
 20
1378.7748695814948
 11
1888.4458651064899
 21
1456.3143344409641
  0
LINE
  8
_2-2_
  6
CONTINUOUS
 62
    7
 10
1980.1274655896909
 20
1378.7748695814958
 11
1900.1274655896918
 21
1458.7748695814958
  0
LINE
  8
_2-2_
  6
CONTINUOUS
 62
    7
 10
1994.2696012134229
 20
1378.7748695814971
 11
1914.2696012134234
 21
1458.7748695814971
  0
LINE
  8
_2-2_
  6
CONTINUOUS
 62
    7
 10
2008.4117368371556
 20
1378.774869581498
 11
1928.4117368371562
 21
1458.774869581498
  0
LINE
  8
_2-2_
  6
CONTINUOUS
 62
    7
 10
2013.8189994348479
 20
1387.5097426075395
 11
1942.5538724608905
 21
1458.7748695814971
  0
LINE
  8
_2-2_
  6
CONTINUOUS
 62
    7
 10
2023.046201561684
 20
1392.4246761044369
 11
1956.6960080846254
 21
1458.7748695814951
  0
LINE
  8
_2-2_
  6
CONTINUOUS
 62
    7
 10
2037.1883371853962
 20
1392.4246761044396
 11
1970.8381437083378
 21
1458.7748695814976
  0
LINE
  8
_2-2_
  6
CONTINUOUS
 62
    7
 10
2051.330472809128
 20
1392.4246761044406
 11
1984.9802793320703
 21
1458.7748695814985
  0
LINE
  8
_2-2_
  6
CONTINUOUS
 62
    7
 10
2065.4726084328659
 20
1392.4246761044362
 11
1999.1224149558082
 21
1458.7748695814948
  0
LINE
  8
_2-2_
  6
CONTINUOUS
 62
    7
 10
2079.6147440565983
 20
1392.4246761044374
 11
2026.9143571024822
 21
1445.1250630585537
  0
LINE
  8
_2-2_
  6
CONTINUOUS
 62
    7
 10
2013.8189994348486
 20
1458.2204207261868
 11
2013.2645505795401
 21
1458.7748695814953
  0
LINE
  8
_2-2_
  6
CONTINUOUS
 62
    7
 10
2093.7568796803307
 20
1392.4246761044387
 11
2041.0564927262139
 21
1445.125063058555
  0
LINE
  8
_2-2_
  6
CONTINUOUS
 62
    7
 10
2107.8990153040668
 20
1392.4246761044355
 11
2055.1986283499482
 21
1445.1250630585546
  0
LINE
  8
_2-2_
  6
CONTINUOUS
 62
    7
 10
2122.0411509278001
 20
1392.4246761044355
 11
2069.3407639736834
 21
1445.1250630585521
  0
LINE
  8
_2-2_
  6
CONTINUOUS
 62
    7
 10
2136.1832865515325
 20
1392.4246761044369
 11
2083.4828995974158
 21
1445.1250630585532
  0
LINE
  8
_2-2_
  6
CONTINUOUS
 62
    7
 10
2139.1921337632084
 20
1403.5579645164757
 11
2097.6250352211346
 21
1445.1250630585505
  0
LINE
  8
_2-2_
  6
CONTINUOUS
 62
    7
 10
2139.1921337632075
 20
1417.70010014021
 11
2111.7671708448661
 21
1445.1250630585514
  0
LINE
  8
_2-2_
  6
CONTINUOUS
 62
    7
 10
2139.1921337632057
 20
1431.8422357639452
 11
2125.9093064685985
 21
1445.1250630585528
  0
LINE
  8
_2-2_
  6
CONTINUOUS
 62
    7
 10
1888.4458651064899
 20
1458.7748695814971
 11
2013.2645505795401
 21
1458.7748695814971
  0
TEXT
  8
_2-2_
 62
    7
 10
1924.0343699962846
 20
1482.7390336497683
 40
40
 41
1
 50
0
  1
10
  0
TEXT
  8
_2-2_
 62
    7
 10
1994.0906998055189
 20
1562.458305501656
 40
40
 41
1
 50
0
  1
20
  0
LINE
  8
_2-2_
  6
CONTINUOUS
 62
    7
 10
918.46348174778245
 20
1458.7748695814971
 11
1888.4458651064899
 21
1458.7748695814971
  0
LINE
  8
_2-2_
  6
CONTINUOUS
 62
    7
 10
1122.8424934116197
 20
1458.7748695814971
 11
1122.8424934116197
 21
1251.595001032349
  0
LINE
  8
_2-2_
  6
CONTINUOUS
 62
    7
 10
1035.0812993817685
 20
1251.595001032349
 11
1122.8424934116197
 21
1251.595001032349
  0
LINE
  8
_2-2_
  6
CONTINUOUS
 62
    7
 10
1035.0812993817685
 20
1458.7748695814971
 11
1035.0812993817685
 21
1251.595001032349
  0
LINE
  8
_2-2_
  6
CONTINUOUS
 62
    7
 10
1122.1459759986842
 20
1270.7492298880702
 11
1223.8375182872412
 21
1202.4905234204086
  0
LINE
  8
_2-2_
  6
CONTINUOUS
 62
    7
 10
1122.1459759986842
 20
1270.7492298880702
 11
1150.5334836642971
 21
1261.0461680756962
  0
LINE
  8
_2-2_
  6
CONTINUOUS
 62
    7
 10
1122.1459759986842
 20
1270.7492298880702
 11
1141.8787478810436
 21
1248.1523780312573
  0
LINE
  8
_2-2_
  6
CONTINUOUS
 62
    7
 10
918.46348174777904
 20
1378.7748695814971
 11
1035.0812993817685
 21
1378.7748695814971
  0
LINE
  8
_2-2_
  6
CONTINUOUS
 62
    7
 10
1122.8424934116197
 20
1378.7748695814971
 11
1888.445865106492
 21
1378.7748695814971
  0
LINE
  8
_2-2_
  6
CONTINUOUS
 62
    7
 10
2013.81899943485
 20
1485.8512261789915
 11
2013.81899943485
 21
1528.63800835237
  0
LINE
  8
_2-2_
  6
CONTINUOUS
 62
    7
 10
1892.6298083576626
 20
1528.63800835237
 11
2013.81899943485
 21
1528.63800835237
  0
LINE
  8
_2-2_
  6
CONTINUOUS
 62
    7
 10
1888.4458651064899
 20
1485.8512261789915
 11
1888.4458651064899
 21
1605.9415446935941
  0
LINE
  8
_2-2_
  6
CONTINUOUS
 62
    7
 10
1888.4458651064899
 20
1605.9415446935941
 11
2139.1921337632084
 21
1605.9415446935941
  0
LINE
  8
_2-2_
  6
CONTINUOUS
 62
    7
 10
2139.1921337632084
 20
1485.8512261789915
 11
2139.1921337632084
 21
1605.9415446935941
  0
LINE
  8
_0-0_
  6
CONTINUOUS
 62
    7
 10
2487.6852274360022
 20
1481.271617947772
 11
2139.1921337632057
 21
1431.8422357639452
  0
LINE
  8
_2-2_
  6
CONTINUOUS
 62
    7
 10
1888.445865106492
 20
1378.7748695814971
 11
2013.8189994348504
 21
1378.7748695814971
  0
LINE
  8
_0-0_
  6
CONTINUOUS
 62
    7
 10
2486.8715498441852
 20
1349.8060426975853
 11
2139.1921337632084
 21
1403.5579645164757
  0
LINE
  8
_2-2_
  6
CONTINUOUS
 62
    7
 10
2139.1921337632084
 20
1409.6060258887669
 11
2486.8715498441852
 21
1401.7930053026778
  0
LINE
  8
_2-2_
  6
CONTINUOUS
 62
    7
 10
2139.2894614226634
 20
1428.0032003075485
 11
2486.8715498441852
 21
1436.8151405773899
  0
TEXT
  8
_2-2_
 62
    7
 10
100.03731343283545
 20
584.05902306648579
 40
40
 41
1
 50
0
  1
 ケーブル
  0
TEXT
  8
_2-2_
 62
    7
 10
100.03731343283545
 20
529.51356852103129
 40
40
 41
1
 50
0
  1
 コネクター
  0
TEXT
  8
_2-2_
 62
    7
 10
100.03731343283545
 20
474.96811397557678
 40
40
 41
1
 50
0
  1
 コネクター
  0
TEXT
  8
_2-2_
 62
    7
 10
100.03731343283545
 20
420.42265943012217
 40
40
 41
1
 50
0
  1
 収縮チューブ
  0
TEXT
  8
_2-2_
 62
    7
 10
388.65671641791062
 20
365.87720488466761
 40
40
 41
1
 50
0
  1
 テプラ9mm[X-Motor]
  0
TEXT
  8
_2-2_
 62
    7
 10
388.65671641791062
 20
420.42265943012217
 40
40
 41
1
 50
0
  1
 8Φ-20mm
  0
TEXT
  8
_2-2_
 62
    7
 10
388.65671641791062
 20
474.96811397557678
 40
40
 41
1
 50
0
  1
 XHP-4
  0
TEXT
  8
_2-2_
 62
    7
 10
564.92676209828414
 20
1230.0196754890037
 40
64
 41
1
 50
0
  1
3
  0
TEXT
  8
_0-0_
 62
    7
 10
601.551903661138
 20
1309.9970254323785
 40
64
 41
1
 50
0
  1
6
  0
LINE
  8
_0-0_
  6
CONTINUOUS
 62
    7
 10
592.58248123758199
 20
1337.6527445716765
 11
461.7784042273895
 21
1360.8237524991962
  0
LINE
  8
_0-0_
  6
CONTINUOUS
 62
    7
 10
461.7784042273895
 20
1360.8237524991962
 11
491.66630445164458
 21
1363.4147793583709
  0
LINE
  8
_0-0_
  6
CONTINUOUS
 62
    7
 10
461.7784042273895
 20
1360.8237524991962
 11
488.95759851695635
 21
1348.1236974690019
  0
LINE
  8
_0-0_
  6
CONTINUOUS
 62
    7
 10
2316.0196273304473
 20
1283.8050662024805
 11
2469.9947122681597
 21
1340.6114082183353
  0
LINE
  8
_0-0_
  6
CONTINUOUS
 62
    7
 10
2469.9947122681597
 20
1340.6114082183353
 11
2445.4956570565701
 21
1323.2967816344476
  0
LINE
  8
_0-0_
  6
CONTINUOUS
 62
    7
 10
2469.9947122681597
 20
1340.6114082183353
 11
2440.1205947942617
 21
1337.8660293454418
  0
TEXT
  8
_0-0_
 62
    7
 10
2262.140805133392
 20
1236.0304342659006
 40
64
 41
1
 50
0
  1
7
  0
TEXT
  8
_2-2_
 62
    7
 10
100.65014828174949
 20
366.83734253317095
 40
40
 41
1
 50
0
  1
 表示
  0
TEXT
  8
_0-0_
 62
    7
 10
100.03731343283545
 20
311.33175033921316
 40
40
 41
1
 50
0
  1
 Pin
  0
TEXT
  8
_0-0_
 62
    7
 10
388.65671641791062
 20
311.33175033921316
 40
40
 41
1
 50
0
  1
 BXH-001T-P0.6
  0
TEXT
  8
_0-0_
 62
    7
 10
100.03731343283545
 20
256.78629579375865
 40
40
 41
1
 50
0
  1
 Pin
  0
TEXT
  8
_2-2_
 62
    7
 10
388.65671641791062
 20
529.51356852103129
 40
40
 41
1
 50
0
  1
 PHR-6
  0
TEXT
  8
_0-0_
 62
    7
 10
388.65671641791062
 20
256.78629579375865
 40
40
 41
1
 50
0
  1
 BPH-002T-P0.5S
  0
LINE
  8
_0-0_
  6
CONTINUOUS
 62
    7
 10
1580.2056409204811
 20
838.5644093508381
 11
1580.2056409204811
 21
898.5644093508381
  0
LINE
  8
_0-0_
  6
CONTINUOUS
 62
    7
 10
1580.2056409204811
 20
898.5644093508381
 11
1430.2056409204811
 21
898.5644093508381
  0
LINE
  8
_0-0_
  6
CONTINUOUS
 62
    7
 10
1430.2056409204811
 20
898.5644093508381
 11
1430.2056409204811
 21
838.5644093508381
  0
LINE
  8
_0-0_
  6
CONTINUOUS
 62
    7
 10
1430.2056409204811
 20
778.5644093508381
 11
1580.2056409204811
 21
778.5644093508381
  0
LINE
  8
_0-0_
  6
CONTINUOUS
 62
    7
 10
1580.2056409204811
 20
778.5644093508381
 11
1580.2056409204811
 21
838.5644093508381
  0
LINE
  8
_0-0_
  6
CONTINUOUS
 62
    7
 10
1580.2056409204811
 20
838.5644093508381
 11
1430.2056409204811
 21
838.5644093508381
  0
LINE
  8
_0-0_
  6
CONTINUOUS
 62
    7
 10
1430.2056409204811
 20
838.5644093508381
 11
1430.2056409204811
 21
778.5644093508381
  0
LINE
  8
_0-0_
  6
CONTINUOUS
 62
    7
 10
1430.2056409204811
 20
718.5644093508381
 11
1580.2056409204811
 21
718.5644093508381
  0
LINE
  8
_0-0_
  6
CONTINUOUS
 62
    7
 10
1580.2056409204811
 20
718.5644093508381
 11
1580.2056409204811
 21
778.5644093508381
  0
LINE
  8
_0-0_
  6
CONTINUOUS
 62
    7
 10
1580.2056409204811
 20
778.5644093508381
 11
1430.2056409204811
 21
778.5644093508381
  0
LINE
  8
_0-0_
  6
CONTINUOUS
 62
    7
 10
1430.2056409204811
 20
778.5644093508381
 11
1430.2056409204811
 21
718.5644093508381
  0
LINE
  8
_0-0_
  6
CONTINUOUS
 62
    7
 10
1430.2056409204811
 20
658.5644093508381
 11
1580.2056409204811
 21
658.5644093508381
  0
LINE
  8
_0-0_
  6
CONTINUOUS
 62
    7
 10
1580.2056409204811
 20
658.5644093508381
 11
1580.2056409204811
 21
718.5644093508381
  0
LINE
  8
_0-0_
  6
CONTINUOUS
 62
    7
 10
1580.2056409204811
 20
718.5644093508381
 11
1430.2056409204811
 21
718.5644093508381
  0
LINE
  8
_0-0_
  6
CONTINUOUS
 62
    7
 10
1430.2056409204811
 20
718.5644093508381
 11
1430.2056409204811
 21
658.5644093508381
  0
LINE
  8
_0-0_
  6
CONTINUOUS
 62
    7
 10
1430.2056409204811
 20
598.5644093508381
 11
1580.2056409204811
 21
598.5644093508381
  0
LINE
  8
_0-0_
  6
CONTINUOUS
 62
    7
 10
1580.2056409204811
 20
598.5644093508381
 11
1580.2056409204811
 21
658.5644093508381
  0
LINE
  8
_0-0_
  6
CONTINUOUS
 62
    7
 10
1580.2056409204811
 20
658.5644093508381
 11
1430.2056409204811
 21
658.5644093508381
  0
LINE
  8
_0-0_
  6
CONTINUOUS
 62
    7
 10
1430.2056409204811
 20
658.5644093508381
 11
1430.2056409204811
 21
598.5644093508381
  0
TEXT
  8
_2-2_
 62
    7
 10
1239.4865016226327
 20
1151.1012156928539
 40
64
 41
1
 50
0
  1
5
  0
TEXT
  8
_0-0_
 62
    7
 10
1441.2985061526442
 20
849.50438670078154
 40
40
 41
1
 50
0
  1
PIN No.
  0
LINE
  8
_0-0_
  6
CONTINUOUS
 62
    7
 10
1430.2056409204811
 20
838.5644093508381
 11
1580.2056409204811
 21
838.5644093508381
  0
LINE
  8
_0-0_
  6
CONTINUOUS
 62
    7
 10
2458.4271584742751
 20
838.5644093508381
 11
2458.4271584742751
 21
898.5644093508381
  0
LINE
  8
_0-0_
  6
CONTINUOUS
 62
    7
 10
2458.4271584742751
 20
898.5644093508381
 11
2308.4271584742746
 21
898.5644093508381
  0
LINE
  8
_0-0_
  6
CONTINUOUS
 62
    7
 10
2308.4271584742746
 20
898.5644093508381
 11
2308.4271584742746
 21
838.5644093508381
  0
LINE
  8
_0-0_
  6
CONTINUOUS
 62
    7
 10
2308.4271584742746
 20
778.5644093508381
 11
2458.4271584742751
 21
778.5644093508381
  0
LINE
  8
_0-0_
  6
CONTINUOUS
 62
    7
 10
2458.4271584742751
 20
778.5644093508381
 11
2458.4271584742751
 21
838.5644093508381
  0
LINE
  8
_0-0_
  6
CONTINUOUS
 62
    7
 10
2458.4271584742751
 20
838.5644093508381
 11
2308.4271584742746
 21
838.5644093508381
  0
LINE
  8
_0-0_
  6
CONTINUOUS
 62
    7
 10
2308.4271584742746
 20
838.5644093508381
 11
2308.4271584742746
 21
778.5644093508381
  0
LINE
  8
_0-0_
  6
CONTINUOUS
 62
    7
 10
2308.4271584742746
 20
718.5644093508381
 11
2458.4271584742751
 21
718.5644093508381
  0
LINE
  8
_0-0_
  6
CONTINUOUS
 62
    7
 10
2458.4271584742751
 20
718.5644093508381
 11
2458.4271584742751
 21
778.5644093508381
  0
LINE
  8
_0-0_
  6
CONTINUOUS
 62
    7
 10
2458.4271584742751
 20
778.5644093508381
 11
2308.4271584742746
 21
778.5644093508381
  0
LINE
  8
_0-0_
  6
CONTINUOUS
 62
    7
 10
2308.4271584742746
 20
778.5644093508381
 11
2308.4271584742746
 21
718.5644093508381
  0
LINE
  8
_0-0_
  6
CONTINUOUS
 62
    7
 10
2308.4271584742746
 20
658.5644093508381
 11
2458.4271584742751
 21
658.5644093508381
  0
LINE
  8
_0-0_
  6
CONTINUOUS
 62
    7
 10
2458.4271584742751
 20
658.5644093508381
 11
2458.4271584742751
 21
718.5644093508381
  0
LINE
  8
_0-0_
  6
CONTINUOUS
 62
    7
 10
2458.4271584742751
 20
718.5644093508381
 11
2308.4271584742746
 21
718.5644093508381
  0
LINE
  8
_0-0_
  6
CONTINUOUS
 62
    7
 10
2308.4271584742746
 20
718.5644093508381
 11
2308.4271584742746
 21
658.5644093508381
  0
LINE
  8
_0-0_
  6
CONTINUOUS
 62
    7
 10
2308.4271584742746
 20
598.5644093508381
 11
2458.4271584742751
 21
598.5644093508381
  0
LINE
  8
_0-0_
  6
CONTINUOUS
 62
    7
 10
2458.4271584742751
 20
598.5644093508381
 11
2458.4271584742751
 21
658.5644093508381
  0
LINE
  8
_0-0_
  6
CONTINUOUS
 62
    7
 10
2458.4271584742751
 20
658.5644093508381
 11
2308.4271584742746
 21
658.5644093508381
  0
LINE
  8
_0-0_
  6
CONTINUOUS
 62
    7
 10
2308.4271584742746
 20
658.5644093508381
 11
2308.4271584742746
 21
598.5644093508381
  0
TEXT
  8
_0-0_
 62
    7
 10
2319.5200237064382
 20
849.50438670078154
 40
40
 41
1
 50
0
  1
PIN No.
  0
LINE
  8
_0-0_
  6
CONTINUOUS
 62
    7
 10
2308.4271584742746
 20
838.5644093508381
 11
2458.4271584742751
 21
838.5644093508381
  0
LINE
  8
_0-0_
  6
CONTINUOUS
 62
    7
 10
2308.4271584742746
 20
598.5644093508381
 11
2458.4271584742751
 21
598.5644093508381
  0
LINE
  8
_0-0_
  6
CONTINUOUS
 62
    7
 10
2308.4271584742746
 20
538.5644093508381
 11
2458.4271584742751
 21
538.5644093508381
  0
LINE
  8
_0-0_
  6
CONTINUOUS
 62
    7
 10
2458.4271584742751
 20
538.5644093508381
 11
2458.4271584742751
 21
598.5644093508381
  0
LINE
  8
_0-0_
  6
CONTINUOUS
 62
    7
 10
2458.4271584742751
 20
598.5644093508381
 11
2308.4271584742746
 21
598.5644093508381
  0
LINE
  8
_0-0_
  6
CONTINUOUS
 62
    7
 10
2308.4271584742746
 20
598.5644093508381
 11
2308.4271584742746
 21
538.5644093508381
  0
LINE
  8
_0-0_
  6
CONTINUOUS
 62
    7
 10
2308.4271584742746
 20
478.5644093508381
 11
2458.4271584742751
 21
478.5644093508381
  0
LINE
  8
_0-0_
  6
CONTINUOUS
 62
    7
 10
2458.4271584742751
 20
478.5644093508381
 11
2458.4271584742751
 21
538.5644093508381
  0
LINE
  8
_0-0_
  6
CONTINUOUS
 62
    7
 10
2458.4271584742751
 20
538.5644093508381
 11
2308.4271584742746
 21
538.5644093508381
  0
LINE
  8
_0-0_
  6
CONTINUOUS
 62
    7
 10
2308.4271584742746
 20
538.5644093508381
 11
2308.4271584742746
 21
478.5644093508381
  0
LINE
  8
_0-0_
  6
CONTINUOUS
 62
    7
 10
1580.2056409204811
 20
628.5644093508381
 11
2308.4271584742746
 21
808.5644093508381
  0
LINE
  8
_0-0_
  6
CONTINUOUS
 62
    3
 10
2308.4271584742746
 20
628.5644093508381
 11
1580.2056409204811
 21
688.5644093508381
  0
LINE
  8
_0-0_
  6
CONTINUOUS
 62
    1
 10
1580.2056409204811
 20
748.5644093508381
 11
2308.4271584742746
 21
688.5644093508381
  0
LINE
  8
_0-0_
  6
CONTINUOUS
 62
    7
 10
2308.4271584742746
 20
508.5644093508381
 11
1580.2056409204811
 21
808.5644093508381
  0
TEXT
  8
_2-2_
 62
    7
 10
388.65671641791062
 20
584.05902306648579
 40
40
 41
1
 50
0
  1
 ULAWM AWG24 4芯
  0
TEXT
  8
_2-2_
 62
    7
 10
1753.7645310677062
 20
893.5936656739791
 40
40
 41
1
 50
0
  1
ULAWM AWG24 4芯
  0
TEXT
  8
_0-0_
 62
    7
 10
1457.3998651560414
 20
900.50759545880362
 40
40
 41
1
 50
0
  1
XHP-4
  0
TEXT
  8
_0-0_
 62
    7
 10
2330.2367847483401
 20
900.50759545880362
 40
40
 41
1
 50
0
  1
PHR-6
  0
TEXT
  8
_0-0_
 62
    7
 10
1959.4776119402986
 20
262.41873963515752
 40
40
 41
1
 50
0
  1
2
  0
TEXT
  8
_0-0_
 62
    7
 10
1510.5646359583957
 20
55.807578008915243
 40
64
 41
1
 50
0
  1
FABOOL Laser Co2
  0
TEXT
  8
_0-0_
 62
    7
 10
2170.8529645772787
 20
55.318919791522603
 40
70
 41
1
 50
0
  1
2018/05/06
  0
TEXT
  8
_0-0_
 62
    7
 10
2290.8259251802765
 20
154.70773855156676
 40
40
 41
1
 50
0
  1
日付
  0
LINE
  8
_0-0_
  6
CONTINUOUS
 62
    7
 10
2013.81899943485
 20
1706.7855410147786
 11
2486.8715498441852
 21
1706.7855410147786
  0
LINE
  8
_0-0_
  6
CONTINUOUS
 62
    7
 10
2013.81899943485
 20
1638.8041718555414
 11
2013.81899943485
 21
1706.7855410147786
  0
TEXT
  8
_2-2_
 62
    7
 10
2225.1976961394771
 20
1657.1105230386049
 40
40
 41
1
 50
0
  1
40
  0
TEXT
  8
_0-0_
 62
    7
 10
311.75855523781831
 20
1456.9158050531801
 40
28
 41
1
 50
0
  1
1
  0
TEXT
  8
_0-0_
 62
    7
 10
311.75855523781831
 20
1420.8710289337766
 40
28
 41
1
 50
0
  1
2
  0
TEXT
  8
_0-0_
 62
    7
 10
311.75855523781831
 20
1384.8262528143739
 40
28
 41
1
 50
0
  1
3
  0
TEXT
  8
_0-0_
 62
    7
 10
311.75855523781831
 20
1348.7814766949705
 40
28
 41
1
 50
0
  1
4
  0
TEXT
  8
_0-0_
 62
    7
 10
230.2049983600605
 20
1456.9158050531801
 40
28
 41
1
 50
0
  1
White
  0
TEXT
  8
_0-0_
 62
    7
 10
258.20499836006047
 20
1420.8710289337766
 40
28
 41
1
 50
0
  1
Red
  0
TEXT
  8
_0-0_
 62
    7
 10
230.2049983600605
 20
1384.8262528143739
 40
28
 41
1
 50
0
  1
Green
  0
TEXT
  8
_0-0_
 62
    7
 10
230.2049983600605
 20
1348.7814766949705
 40
28
 41
1
 50
0
  1
Black
  0
TEXT
  8
_0-1_
 62
    7
 10
2602.0085455673193
 20
1451.6066802460023
 40
28
 41
1
 50
0
  1
2
  0
TEXT
  8
_0-1_
 62
    7
 10
2602.0085455673193
 20
1481.6066802460023
 40
28
 41
1
 50
0
  1
1
  0
TEXT
  8
_0-1_
 62
    7
 10
2602.0085455673193
 20
1481.6066802460023
 40
28
 41
1
 50
0
  1
1
  0
TEXT
  8
_0-1_
 62
    7
 10
2602.0085455673193
 20
1421.6066802460025
 40
28
 41
1
 50
0
  1
3
  0
TEXT
  8
_0-1_
 62
    7
 10
2602.0085455673193
 20
1391.6066802460025
 40
28
 41
1
 50
0
  1
4
  0
TEXT
  8
_0-1_
 62
    7
 10
2602.0085455673193
 20
1361.6066802460025
 40
28
 41
1
 50
0
  1
5
  0
TEXT
  8
_0-1_
 62
    7
 10
2602.0085455673193
 20
1331.6066802460027
 40
28
 41
1
 50
0
  1
6
  0
TEXT
  8
_0-1_
 62
    7
 10
2630.2830733583369
 20
1481.6066802460023
 40
28
 41
1
 50
0
  1
Black
  0
TEXT
  8
_0-1_
 62
    7
 10
2630.2830733583369
 20
1421.6066802460025
 40
28
 41
1
 50
0
  1
Red
  0
TEXT
  8
_0-1_
 62
    7
 10
2630.2830733583369
 20
1391.6066802460025
 40
28
 41
1
 50
0
  1
Green
  0
TEXT
  8
_0-1_
 62
    7
 10
2630.2830733583369
 20
1331.6066802460027
 40
28
 41
1
 50
0
  1
White
  0
TEXT
  8
_0-0_
 62
    7
 10
1308.0835220838053
 20
1830.0704983012456
 40
64
 41
1
 50
0
  1
2250±30
  0
LINE
  8
_2-2_
  6
CONTINUOUS
 62
    7
 10
438.00761199233148
 20
1865.5364051230063
 11
1293.7425581638036
 21
1865.5364051230063
  0
LINE
  8
_2-2_
  6
CONTINUOUS
 62
    7
 10
2486.8715498441852
 20
1865.5364051230063
 11
1578.5080210114584
 21
1865.5364051230063
  0
TEXT
  8
_2-2_
 62
    7
 10
1120.0373134328356
 20
591.33175033921304
 40
40
 41
1
 50
0
  1
1
  0
TEXT
  8
_2-2_
 62
    7
 10
1120.0373134328356
 20
536.78629579375865
 40
40
 41
1
 50
0
  1
1
  0
TEXT
  8
_2-2_
 62
    7
 10
1120.0373134328356
 20
482.24084124830415
 40
40
 41
1
 50
0
  1
1
  0
TEXT
  8
_2-2_
 62
    7
 10
1120.0373134328356
 20
427.69538670284942
 40
40
 41
1
 50
0
  1
1
  0
TEXT
  8
_2-2_
 62
    7
 10
1120.0373134328356
 20
373.14993215739497
 40
40
 41
1
 50
0
  1
1
  0
TEXT
  8
_0-0_
 62
    7
 10
1120.0373134328356
 20
318.60447761194052
 40
40
 41
1
 50
0
  1
4
  0
TEXT
  8
_0-0_
 62
    7
 10
1120.0373134328356
 20
264.05902306648602
 40
40
 41
1
 50
0
  1
4
  0
TEXT
  8
_0-0_
 62
    7
 10
1495.2056409204811
 20
788.5644093508381
 40
40
 41
1
 50
0
  1
1
  0
TEXT
  8
_0-0_
 62
    7
 10
1495.2056409204811
 20
728.5644093508381
 40
40
 41
1
 50
0
  1
2
  0
TEXT
  8
_0-0_
 62
    7
 10
1495.2056409204811
 20
668.5644093508381
 40
40
 41
1
 50
0
  1
3
  0
TEXT
  8
_0-0_
 62
    7
 10
1495.2056409204811
 20
608.5644093508381
 40
40
 41
1
 50
0
  1
4
  0
TEXT
  8
_0-0_
 62
    7
 10
2373.4271584742746
 20
788.5644093508381
 40
40
 41
1
 50
0
  1
1
  0
TEXT
  8
_0-0_
 62
    7
 10
2373.4271584742746
 20
728.5644093508381
 40
40
 41
1
 50
0
  1
2
  0
TEXT
  8
_0-0_
 62
    7
 10
2373.4271584742746
 20
668.5644093508381
 40
40
 41
1
 50
0
  1
3
  0
TEXT
  8
_0-0_
 62
    7
 10
2373.4271584742746
 20
608.5644093508381
 40
40
 41
1
 50
0
  1
4
  0
TEXT
  8
_0-0_
 62
    7
 10
2373.4271584742746
 20
548.5644093508381
 40
40
 41
1
 50
0
  1
5
  0
TEXT
  8
_0-0_
 62
    7
 10
2373.4271584742746
 20
488.56440935083799
 40
40
 41
1
 50
0
  1
6
  0
TEXT
  8
_0-0_
 62
    7
 10
1310.1092490240846
 20
788.5644093508381
 40
40
 41
1
 50
0
  1
White
  0
TEXT
  8
_0-0_
 62
    7
 10
1350.1092490240844
 20
728.5644093508381
 40
40
 41
1
 50
0
  1
Red
  0
TEXT
  8
_0-0_
 62
    7
 10
1310.1092490240846
 20
668.5644093508381
 40
40
 41
1
 50
0
  1
Green
  0
TEXT
  8
_0-0_
 62
    7
 10
1310.1092490240846
 20
608.5644093508381
 40
40
 41
1
 50
0
  1
Black
  0
TEXT
  8
_0-0_
 62
    7
 10
2482.7526521990421
 20
788.5644093508381
 40
40
 41
1
 50
0
  1
Black
  0
TEXT
  8
_0-0_
 62
    7
 10
2482.7526521990421
 20
668.5644093508381
 40
40
 41
1
 50
0
  1
Red
  0
TEXT
  8
_0-0_
 62
    7
 10
2482.7526521990421
 20
608.5644093508381
 40
40
 41
1
 50
0
  1
Green
  0
TEXT
  8
_0-0_
 62
    7
 10
2482.7526521990421
 20
488.56440935083799
 40
40
 41
1
 50
0
  1
White
  0
TEXT
  8
_0-0_
 62
    7
 10
1931.7974263179744
 20
210.06973848069751
 40
40
 41
1
 50
0
  1
Ver.
  0
TEXT
  8
_0-0_
 62
    7
 10
1941.4438225538968
 20
154.96811397557661
 40
40
 41
1
 50
0
  1
5.0
  0
TEXT
  8
_0-0_
 62
    7
 10
1604.9328358208954
 20
389.00000000000017
 40
35
 41
1
 50
0
  1
X-Motor Cable_ver.5.0
  0
TEXT
  8
_2-2_
 62
    7
 10
1072.7521793275218
 20
1453.2235367372352
 40
24.5
 41
1
 50
-90
  1
X−Motor Ver.5.0
  0
LINE
  8
_0-0_
  6
CONTINUOUS
 62
    7
 10
793.09034741942219
 20
1632.2189705271896
 11
793.09034741942219
 21
1706.7855410147786
  0
TEXT
  8
_0-0_
 62
    7
 10
594.85471149854664
 20
1660.695516811955
 40
40
 41
1
 50
0
  1
35
  0
LINE
  8
_0-0_
  6
CONTINUOUS
 62
    7
 10
793.09034741942219
 20
1706.7855410147786
 11
438.00761199233148
 21
1706.7855410147786
  0
LINE
  8
_2-2_
  6
CONTINUOUS
 62
    7
 10
918.46348174778245
 20
1456.3143344409641
 11
918.46348174778245
 21
1620.4019110902318
  0
ENDSEC
  0
EOF
