  0
SECTION
  2
HEADER
  9
$ACADVER
  1
AC1009
  9
$INSBASE
 10
0
 20
0
 30
0
  9
$EXTMIN
 10
0
 20
0
  9
$EXTMAX
 10
2940
 20
2079
  9
$LIMMIN
 10
0
 20
0
  9
$LIMMAX
 10
2940
 20
2079
  9
$LTSCALE
 40
7
  0
ENDSEC
  0
SECTION
  2
TABLES
  0
TABLE
  2
LTYPE
 70
     9
  0
LTYPE
  2
CONTINUOUS
 70
    64
  3
実線
 72
    65
 73
     0
 40
0.0
  0
LTYPE
  2
DASHED1
 70
    64
  3
--  --  --  --  --  --  --  --  
 72
    65
 73
     2
 40
2.5
 49
1.25
 49
-1.25
  0
LTYPE
  2
DASHED2
 70
    64
  3
----    ----    ----    ----    
 72
    65
 73
     2
 40
5.0
 49
2.5
 49
-2.5
  0
LTYPE
  2
DASHED3
 70
    64
  3
------  ------  ------  ------  
 72
    65
 73
     2
 40
5.0
 49
3.75
 49
-1.25
  0
LTYPE
  2
CENTER1
 70
    64
  3
----- - ----- - ----- - ----- - 
 72
    65
 73
     4
 40
10.0
 49
6.25
 49
-1.25
 49
1.25
 49
-1.25
  0
LTYPE
  2
CENTER2
 70
    64
  3
----------  --  ----------  --  
 72
    65
 73
     4
 40
20.0
 49
12.5
 49
-2.5
 49
2.5
 49
-2.5
  0
LTYPE
  2
PHANTOM1
 70
    64
  3
--- - - --- - - --- - - --- - - 
 72
    65
 73
     6
 40
10.0
 49
3.25
 49
-1.25
 49
1.25
 49
-1.25
 49
1.25
 49
-1.25
  0
LTYPE
  2
PHANTOM2
 70
    64
  3
--------  -  -  --------  -  -  
 72
    65
 73
     6
 40
20.0
 49
10.0
 49
-2.5
 49
1.25
 49
-2.5
 49
1.25
 49
-2.5
  0
LTYPE
  2
DOT
 70
    64
  3
-   -   -   -   -   -   -   -   
 72
    65
 73
     2
 40
2.5
 49
0.625
 49
-1.875
  0
LTYPE
  2
DUMMY
 70
    64
  3
ダミー
 72
    65
 73
     0
 40
0.0
  0
LTYPE
  2
RAND1
 70
    64
  3
ランダム線1
 72
    65
 73
     4
 40
10.0
 49
1.0
 49
-2.0
 49
3.0
 49
-4.0
  0
LTYPE
  2
RAND2
 70
    64
  3
ランダム線2
 72
    65
 73
     4
 40
14.0
 49
2.0
 49
-3.0
 49
4.0
 49
-5.0
  0
LTYPE
  2
RAND3
 70
    64
  3
ランダム線3
 72
    65
 73
     4
 40
18.0
 49
3.0
 49
-4.0
 49
5.0
 49
-6.0
  0
LTYPE
  2
RAND4
 70
    64
  3
ランダム線4
 72
    65
 73
     4
 40
22.0
 49
4.0
 49
-5.0
 49
6.0
 49
-7.0
  0
LTYPE
  2
RAND5
 70
    64
  3
ランダム線5
 72
    65
 73
     4
 40
26.0
 49
5.0
 49
-6.0
 49
7.0
 49
-8.0
  0
LTYPE
  2
LONG1
 70
    64
  3
----------  --  ----------  --  
 72
    65
 73
     4
 40
40.0
 49
32.5
 49
-2.5
 49
2.5
 49
-2.5
  0
LTYPE
  2
LONG2
 70
    64
  3
--------  -  -  --------  -  -  
 72
    65
 73
     6
 40
40.0
 49
30.0
 49
-2.5
 49
1.25
 49
-2.5
 49
1.25
 49
-2.5
  0
LTYPE
  2
LONG3
 70
    64
  3
+++++++++++++++..+++++++++++++++
 72
    65
 73
     2
 40
40.0
 49
37.5
 49
-2.5
  0
LTYPE
  2
LONG4
 70
    64
  3
+++++++++++++++..+++++++++++++++
 72
    65
 73
     2
 40
80.0
 49
75.0
 49
-5.0
  0
LTYPE
  2
LONG5
 70
    64
  3
----------  --  ----------  --  
 72
    65
 73
     4
 40
60.0
 49
37.5
 49
-7.5
 49
7.5
 49
-7.5
  0
LTYPE
  2
dashed
 70
   64
  3
-------   -------------   ------
 72
   65
 73
    2
 40
7.5
 49
6
 49
-1.5
  0
LTYPE
  2
dashed_spaced
 70
   64
  3
----        --------        ----
 72
   65
 73
    2
 40
12
 49
6
 49
-6
  0
LTYPE
  2
long_dashed_dotted
 70
   64
  3
------------- --- --------------
 72
   65
 73
    4
 40
15.25
 49
12
 49
-1.5
 49
0.25
 49
-1.5
  0
LTYPE
  2
long_dashed_double-dotted
 70
   64
  3
----------- --- --- ------------
 72
   65
 73
    6
 40
17
 49
12
 49
-1.5
 49
0.25
 49
-1.5
 49
0.25
 49
-1.5
  0
LTYPE
  2
long_dashed_triplicate-dotted
 70
   64
  3
--------- --- --- --- ----------
 72
   65
 73
    8
 40
18.75
 49
12
 49
-1.5
 49
0.25
 49
-1.5
 49
0.25
 49
-1.5
 49
0.25
 49
-1.5
  0
LTYPE
  2
dotted
 70
   64
  3
   -       -       -       -    
 72
   65
 73
    2
 40
1.75
 49
0.25
 49
-1.5
  0
LTYPE
  2
chain
 70
   64
  3
-------------- -- --------------
 72
   65
 73
    4
 40
18.5
 49
12
 49
-1.5
 49
3.5
 49
-1.5
  0
LTYPE
  2
chain_double_dash
 70
   64
  3
------------ -- -- -------------
 72
   65
 73
    6
 40
23.5
 49
12
 49
-1.5
 49
3.5
 49
-1.5
 49
3.5
 49
-1.5
  0
LTYPE
  2
dashed_dotted
 70
   64
  3
-----------     -     ----------
 72
   65
 73
    4
 40
9.25
 49
6
 49
-1.5
 49
0.25
 49
-1.5
  0
LTYPE
  2
double-dashed_dotted
 70
   64
  3
------   -----------   -   -----
 72
   65
 73
    6
 40
16.75
 49
6
 49
-1.5
 49
6
 49
-1.5
 49
0.25
 49
-1.5
  0
LTYPE
  2
dashed_double-dotted
 70
   64
  3
---------    -    -    ---------
 72
   65
 73
    6
 40
11
 49
6
 49
-1.5
 49
0.25
 49
-1.5
 49
0.25
 49
-1.5
  0
LTYPE
  2
double-dashed_double-dotted
 70
   64
  3
-----   ---------   -   -   ----
 72
   65
 73
    8
 40
18.5
 49
6
 49
-1.5
 49
6
 49
-1.5
 49
0.25
 49
-1.5
 49
0.25
 49
-1.5
  0
LTYPE
  2
dashed_triplicate-dotted
 70
   64
  3
-------    -    -    -    ------
 72
   65
 73
    8
 40
12.75
 49
6
 49
-1.5
 49
0.25
 49
-1.5
 49
0.25
 49
-1.5
 49
0.25
 49
-1.5
  0
LTYPE
  2
double-dashed_triplicate-dotted
 70
   64
  3
-----  ---------  -  -  -  -----
 72
   65
 73
   10
 40
20.25
 49
6
 49
-1.5
 49
6
 49
-1.5
 49
0.25
 49
-1.5
 49
0.25
 49
-1.5
 49
0.25
 49
-1.5
  0
LTYPE
  2
undefined
 70
   64
  3
--------------------------------
 72
   65
 73
    0
 40
0
  0
LTYPE
  2
_
 70
   64
  3
                                
 72
   65
 73
    0
 40
0
  0
LTYPE
  2
__18
 70
   64
  3
                                
 72
   65
 73
    0
 40
0
  0
LTYPE
  2
__19
 70
   64
  3
                                
 72
   65
 73
    0
 40
0
  0
LTYPE
  2
__20
 70
   64
  3
                                
 72
   65
 73
    0
 40
0
  0
LTYPE
  2
__21
 70
   64
  3
                                
 72
   65
 73
    0
 40
0
  0
LTYPE
  2
__22
 70
   64
  3
                                
 72
   65
 73
    0
 40
0
  0
LTYPE
  2
__23
 70
   64
  3
                                
 72
   65
 73
    0
 40
0
  0
LTYPE
  2
__24
 70
   64
  3
                                
 72
   65
 73
    0
 40
0
  0
LTYPE
  2
__25
 70
   64
  3
                                
 72
   65
 73
    0
 40
0
  0
LTYPE
  2
__26
 70
   64
  3
                                
 72
   65
 73
    0
 40
0
  0
LTYPE
  2
__27
 70
   64
  3
                                
 72
   65
 73
    0
 40
0
  0
LTYPE
  2
__28
 70
   64
  3
                                
 72
   65
 73
    0
 40
0
  0
LTYPE
  2
__29
 70
   64
  3
                                
 72
   65
 73
    0
 40
0
  0
LTYPE
  2
__30
 70
   64
  3
                                
 72
   65
 73
    0
 40
0
  0
LTYPE
  2
__31
 70
   64
  3
                                
 72
   65
 73
    0
 40
0
  0
LTYPE
  2
__32
 70
   64
  3
                                
 72
   65
 73
    0
 40
0
  0
ENDTAB
  0
TABLE
  2
STYLE
  5
3
100
AcDbSymbolTable
 70
     1
  0
STYLE
  5
10
100
AcDbSymbolTableRecord
100
AcDbTextStyleTableRecord
  2
STANDARD
 70
     0
 40
0.0
 41
1.0
 50
0.0
 71
     0
 42
0.2
  3
txt
  4
bigfont.shx
  0
STYLE
  5
26
100
AcDbSymbolTableRecord
100
AcDbTextStyleTableRecord
  2
TATEGAKI
 70
    68
 40
0.0
 41
1.0
 50
0.0
 71
     0
 42
1.0
  3
txt
  4
bigfont.shx
  0
ENDTAB
  0
TABLE
  2
LAYER
 70
    3
  0
LAYER
  2
_0-0_
 70
   64
 62
    7
  6
CONTINUOUS
  0
LAYER
  2
_2-3_
 70
   64
 62
    7
  6
CONTINUOUS
  0
LAYER
  2
ADD_LINE
 70
   64
 62
    7
  6
CONTINUOUS
  0
ENDTAB
  0
ENDSEC
  0
SECTION
  2
BLOCKS
  0
ENDSEC
  0
SECTION
  2
ENTITIES
  0
TEXT
  8
_0-0_
 62
    7
 10
157.5880072275948
 20
1306.275029524711
 40
28
 41
1
 50
0
  1
1
  0
TEXT
  8
_0-0_
 62
    7
 10
157.5880072275948
 20
1270.2302534053074
 40
28
 41
1
 50
0
  1
2
  0
TEXT
  8
_0-0_
 62
    7
 10
62.034450349837016
 20
1306.275029524711
 40
28
 41
1
 50
0
  1
Yellow
  0
TEXT
  8
_0-0_
 62
    7
 10
76.034450349837016
 20
1270.2302534053074
 40
28
 41
1
 50
0
  1
Brown
  0
TEXT
  8
_0-0_
 62
    7
 10
2758.7969352372788
 20
1538.0347812899845
 40
28
 41
1
 50
0
  1
2
  0
TEXT
  8
_0-0_
 62
    7
 10
2758.7969352372788
 20
1568.0347812899845
 40
28
 41
1
 50
0
  1
1
  0
TEXT
  8
_0-0_
 62
    7
 10
2758.7969352372788
 20
1568.0347812899845
 40
28
 41
1
 50
0
  1
1
  0
TEXT
  8
_0-0_
 62
    7
 10
2758.7969352372788
 20
1508.0347812899845
 40
28
 41
1
 50
0
  1
3
  0
TEXT
  8
_0-0_
 62
    7
 10
2758.7969352372788
 20
1478.0347812899847
 40
28
 41
1
 50
0
  1
4
  0
TEXT
  8
_0-0_
 62
    7
 10
2758.7969352372788
 20
1448.0347812899847
 40
28
 41
1
 50
0
  1
5
  0
TEXT
  8
_0-0_
 62
    7
 10
2758.7969352372788
 20
1418.0347812899847
 40
28
 41
1
 50
0
  1
6
  0
TEXT
  8
_0-0_
 62
    7
 10
2787.0714630282964
 20
1568.0347812899845
 40
28
 41
1
 50
0
  1
Black
  0
TEXT
  8
_0-0_
 62
    7
 10
2787.0714630282964
 20
1508.0347812899845
 40
28
 41
1
 50
0
  1
Red
  0
TEXT
  8
_0-0_
 62
    7
 10
2787.0714630282964
 20
1478.0347812899847
 40
28
 41
1
 50
0
  1
Green
  0
TEXT
  8
_0-0_
 62
    7
 10
2787.0714630282964
 20
1418.0347812899847
 40
28
 41
1
 50
0
  1
White
  0
LINE
  8
_0-0_
  6
CONTINUOUS
 62
    7
 10
1420.194203263286
 20
958.15302986118991
 11
1570.194203263286
 21
958.15302986118991
  0
LINE
  8
_0-0_
  6
CONTINUOUS
 62
    7
 10
1570.194203263286
 20
958.15302986118991
 11
1570.194203263286
 21
1018.1530298611902
  0
LINE
  8
_0-0_
  6
CONTINUOUS
 62
    7
 10
1570.194203263286
 20
1018.1530298611902
 11
1420.194203263286
 21
1018.1530298611902
  0
LINE
  8
_0-0_
  6
CONTINUOUS
 62
    7
 10
1420.194203263286
 20
1018.1530298611902
 11
1420.194203263286
 21
958.15302986118991
  0
LINE
  8
_0-0_
  6
CONTINUOUS
 62
    7
 10
1420.194203263286
 20
898.15302986119002
 11
1570.194203263286
 21
898.15302986119002
  0
LINE
  8
_0-0_
  6
CONTINUOUS
 62
    7
 10
1570.194203263286
 20
898.15302986119002
 11
1570.194203263286
 21
958.15302986118991
  0
LINE
  8
_0-0_
  6
CONTINUOUS
 62
    7
 10
1570.194203263286
 20
958.15302986118991
 11
1420.194203263286
 21
958.15302986118991
  0
LINE
  8
_0-0_
  6
CONTINUOUS
 62
    7
 10
1420.194203263286
 20
958.15302986118991
 11
1420.194203263286
 21
898.15302986119002
  0
LINE
  8
_0-0_
  6
CONTINUOUS
 62
    7
 10
1420.194203263286
 20
838.15302986118991
 11
1570.194203263286
 21
838.15302986118991
  0
LINE
  8
_0-0_
  6
CONTINUOUS
 62
    7
 10
1570.194203263286
 20
838.15302986118991
 11
1570.194203263286
 21
898.15302986119002
  0
LINE
  8
_0-0_
  6
CONTINUOUS
 62
    7
 10
1570.194203263286
 20
898.15302986119002
 11
1420.194203263286
 21
898.15302986119002
  0
LINE
  8
_0-0_
  6
CONTINUOUS
 62
    7
 10
1420.194203263286
 20
898.15302986119002
 11
1420.194203263286
 21
838.15302986118991
  0
LINE
  8
_0-0_
  6
CONTINUOUS
 62
    7
 10
1420.194203263286
 20
778.15302986119013
 11
1570.194203263286
 21
778.15302986119013
  0
LINE
  8
_0-0_
  6
CONTINUOUS
 62
    7
 10
1570.194203263286
 20
778.15302986119013
 11
1570.194203263286
 21
838.15302986118991
  0
LINE
  8
_0-0_
  6
CONTINUOUS
 62
    7
 10
1570.194203263286
 20
838.15302986118991
 11
1420.194203263286
 21
838.15302986118991
  0
LINE
  8
_0-0_
  6
CONTINUOUS
 62
    7
 10
1420.194203263286
 20
838.15302986118991
 11
1420.194203263286
 21
778.15302986119013
  0
LINE
  8
_0-0_
  6
CONTINUOUS
 62
    7
 10
1420.194203263286
 20
778.15302986119013
 11
1570.194203263286
 21
778.15302986119013
  0
LINE
  8
_0-0_
  6
CONTINUOUS
 62
    7
 10
1420.194203263286
 20
718.15302986119002
 11
1570.194203263286
 21
718.15302986119002
  0
LINE
  8
_0-0_
  6
CONTINUOUS
 62
    7
 10
1570.194203263286
 20
718.15302986119002
 11
1570.194203263286
 21
778.15302986119013
  0
LINE
  8
_0-0_
  6
CONTINUOUS
 62
    7
 10
1570.194203263286
 20
778.15302986119013
 11
1420.194203263286
 21
778.15302986119013
  0
LINE
  8
_0-0_
  6
CONTINUOUS
 62
    7
 10
1420.194203263286
 20
778.15302986119013
 11
1420.194203263286
 21
718.15302986119002
  0
TEXT
  8
_0-0_
 62
    7
 10
1433.5294241013385
 20
967.43227270215425
 40
40
 41
1
 50
0
  1
PIN No.
  0
TEXT
  8
_0-0_
 62
    7
 10
1448.1047355396167
 20
1023.4911628493796
 40
40
 41
1
 50
0
  1
XHP-4
  0
LINE
  8
_2-3_
  6
CONTINUOUS
 62
    7
 10
186.67288487763037
 20
1594.1306583284427
 11
271.29975054927274
 21
1594.1306583284427
  0
LINE
  8
_2-3_
  6
CONTINUOUS
 62
    7
 10
186.67288487763037
 20
1594.1306583284427
 11
186.67288487763037
 21
1449.9515538508306
  0
LINE
  8
_2-3_
  6
CONTINUOUS
 62
    7
 10
271.29975054927274
 20
1443.141161368796
 11
283.83706398210813
 21
1443.141161368796
  0
LINE
  8
_2-3_
  6
CONTINUOUS
 62
    7
 10
283.83706398210813
 20
1443.141161368796
 11
283.83706398210813
 21
1600.941050810477
  0
LINE
  8
_2-3_
  6
CONTINUOUS
 62
    7
 10
271.29975054927274
 20
1600.941050810477
 11
283.83706398210813
 21
1600.941050810477
  0
LINE
  8
_2-3_
  6
CONTINUOUS
 62
    7
 10
271.29975054927274
 20
1600.941050810477
 11
271.29975054927274
 21
1443.141161368796
  0
LINE
  8
_2-3_
  6
CONTINUOUS
 62
    7
 10
186.67288487763037
 20
1449.9515538508306
 11
271.29975054927274
 21
1449.9515538508306
  0
LINE
  8
_2-3_
  6
CONTINUOUS
 62
    7
 10
245.03129857048262
 20
1578.1107578309307
 11
245.03129857048262
 21
1562.0908573334182
  0
LINE
  8
_2-3_
  6
CONTINUOUS
 62
    7
 10
245.03129857048262
 20
1546.0709568359055
 11
245.03129857048262
 21
1530.0510563383928
  0
LINE
  8
_2-3_
  6
CONTINUOUS
 62
    7
 10
245.03129857048262
 20
1514.0311558408803
 11
245.03129857048262
 21
1498.011255343368
  0
LINE
  8
_2-3_
  6
CONTINUOUS
 62
    7
 10
245.03129857048262
 20
1481.9913548458558
 11
245.03129857048262
 21
1465.9714543483433
  0
LINE
  8
_2-3_
  6
CONTINUOUS
 62
    7
 10
186.67288487763037
 20
1578.1107578309307
 11
245.03129857048262
 21
1578.1107578309307
  0
LINE
  8
_2-3_
  6
CONTINUOUS
 62
    7
 10
186.67288487763037
 20
1562.0908573334182
 11
245.03129857048262
 21
1562.0908573334182
  0
LINE
  8
_2-3_
  6
CONTINUOUS
 62
    7
 10
186.67288487763037
 20
1546.0709568359055
 11
245.03129857048262
 21
1546.0709568359055
  0
LINE
  8
_2-3_
  6
CONTINUOUS
 62
    7
 10
186.67288487763037
 20
1530.0510563383928
 11
245.03129857048262
 21
1530.0510563383928
  0
LINE
  8
_2-3_
  6
CONTINUOUS
 62
    7
 10
186.67288487763037
 20
1514.0311558408803
 11
245.03129857048262
 21
1514.0311558408803
  0
LINE
  8
_2-3_
  6
CONTINUOUS
 62
    7
 10
186.67288487763037
 20
1498.011255343368
 11
245.03129857048262
 21
1498.011255343368
  0
LINE
  8
_2-3_
  6
CONTINUOUS
 62
    7
 10
186.67288487763037
 20
1481.9913548458558
 11
245.03129857048262
 21
1481.9913548458558
  0
LINE
  8
_2-3_
  6
CONTINUOUS
 62
    7
 10
186.67288487763037
 20
1465.9714543483433
 11
245.03129857048262
 21
1465.9714543483433
  0
LINE
  8
_2-3_
  6
CONTINUOUS
 62
    7
 10
186.67288487763037
 20
1343.8243708358641
 11
271.29975054927274
 21
1343.8243708358641
  0
LINE
  8
_2-3_
  6
CONTINUOUS
 62
    7
 10
271.29975054927274
 20
1350.6347633178984
 11
283.83706398210813
 21
1350.6347633178984
  0
LINE
  8
_2-3_
  6
CONTINUOUS
 62
    7
 10
245.03129857048262
 20
1327.8044703383518
 11
245.03129857048262
 21
1311.7845698408396
  0
LINE
  8
_2-3_
  6
CONTINUOUS
 62
    7
 10
245.03129857048262
 20
1295.7646693433269
 11
245.03129857048262
 21
1279.7447688458146
  0
LINE
  8
_2-3_
  6
CONTINUOUS
 62
    7
 10
186.67288487763037
 20
1327.8044703383518
 11
245.03129857048262
 21
1327.8044703383518
  0
LINE
  8
_2-3_
  6
CONTINUOUS
 62
    7
 10
186.67288487763037
 20
1311.7845698408396
 11
245.03129857048262
 21
1311.7845698408396
  0
LINE
  8
_2-3_
  6
CONTINUOUS
 62
    7
 10
186.67288487763037
 20
1295.7646693433269
 11
245.03129857048262
 21
1295.7646693433269
  0
LINE
  8
_2-3_
  6
CONTINUOUS
 62
    7
 10
186.67288487763037
 20
1279.7447688458146
 11
245.03129857048262
 21
1279.7447688458146
  0
LINE
  8
_2-3_
  6
CONTINUOUS
 62
    7
 10
811.84620453126342
 20
1443.2120346073129
 11
811.84620453126342
 21
1390.5116476531948
  0
LINE
  8
_2-3_
  6
CONTINUOUS
 62
    7
 10
1062.5924731879797
 20
1456.8618411302537
 11
1062.5924731879797
 21
1376.8618411302537
  0
LINE
  8
_2-3_
  6
CONTINUOUS
 62
    7
 10
937.21933885962164
 20
1443.2120346073129
 11
811.84620453126342
 21
1443.2120346073129
  0
LINE
  8
_2-3_
  6
CONTINUOUS
 62
    7
 10
937.21933885962164
 20
1390.5116476531948
 11
811.84620453126342
 21
1390.5116476531948
  0
LINE
  8
_2-3_
  6
CONTINUOUS
 62
    7
 10
937.21933885962164
 20
1456.8618411302537
 11
937.21933885962164
 21
1443.2120346073129
  0
LINE
  8
_2-3_
  6
CONTINUOUS
 62
    7
 10
937.21933885962164
 20
1390.5116476531948
 11
937.21933885962164
 21
1376.8618411302537
  0
LINE
  8
_2-3_
  6
CONTINUOUS
 62
    7
 10
1055.7636864471651
 20
1376.861841130255
 11
1062.5924731879786
 21
1383.6906278710685
  0
LINE
  8
_2-3_
  6
CONTINUOUS
 62
    7
 10
1041.6215508234327
 20
1376.8618411302562
 11
1062.5924731879772
 21
1397.8327634948005
  0
LINE
  8
_2-3_
  6
CONTINUOUS
 62
    7
 10
1027.4794151996953
 20
1376.8618411302523
 11
1062.5924731879813
 21
1411.9748991185384
  0
LINE
  8
_2-3_
  6
CONTINUOUS
 62
    7
 10
1013.3372795759824
 20
1376.8618411302546
 11
1062.5924731879788
 21
1426.1170347422508
  0
LINE
  8
_2-3_
  6
CONTINUOUS
 62
    7
 10
999.19514395224508
 20
1376.8618411302505
 11
1062.5924731879788
 21
1440.2591703659841
  0
LINE
  8
_2-3_
  6
CONTINUOUS
 62
    7
 10
985.05300832851276
 20
1376.8618411302516
 11
1062.592473187982
 21
1454.4013059897206
  0
LINE
  8
_2-3_
  6
CONTINUOUS
 62
    7
 10
970.91087270478056
 20
1376.8618411302527
 11
1050.9108727047806
 21
1456.8618411302525
  0
LINE
  8
_2-3_
  6
CONTINUOUS
 62
    7
 10
956.76873708104836
 20
1376.8618411302537
 11
1036.7687370810486
 21
1456.8618411302537
  0
LINE
  8
_2-3_
  6
CONTINUOUS
 62
    7
 10
942.62660145731616
 20
1376.861841130255
 11
1022.6266014573162
 21
1456.8618411302546
  0
LINE
  8
_2-3_
  6
CONTINUOUS
 62
    7
 10
937.2193388596238
 20
1385.5967141562958
 11
1008.4844658335817
 21
1456.8618411302532
  0
LINE
  8
_2-3_
  6
CONTINUOUS
 62
    7
 10
927.99213673278814
 20
1390.5116476531934
 11
994.34233020984618
 21
1456.8618411302514
  0
LINE
  8
_2-3_
  6
CONTINUOUS
 62
    7
 10
913.85000110907549
 20
1390.511647653196
 11
980.20019458613388
 21
1456.8618411302541
  0
LINE
  8
_2-3_
  6
CONTINUOUS
 62
    7
 10
899.70786548534329
 20
1390.5116476531971
 11
966.05805896240133
 21
1456.8618411302552
  0
LINE
  8
_2-3_
  6
CONTINUOUS
 62
    7
 10
885.56572986160563
 20
1390.511647653193
 11
951.91592333866379
 21
1456.8618411302509
  0
LINE
  8
_2-3_
  6
CONTINUOUS
 62
    7
 10
871.42359423787366
 20
1390.5116476531944
 11
924.12398119199008
 21
1443.2120346073107
  0
LINE
  8
_2-3_
  6
CONTINUOUS
 62
    7
 10
937.21933885962289
 20
1456.3073922749434
 11
937.77378771493159
 21
1456.8618411302523
  0
LINE
  8
_2-3_
  6
CONTINUOUS
 62
    7
 10
857.28145861414146
 20
1390.5116476531953
 11
909.98184556825777
 21
1443.2120346073118
  0
LINE
  8
_2-3_
  6
CONTINUOUS
 62
    7
 10
843.13932299040516
 20
1390.5116476531923
 11
895.83970994452375
 21
1443.2120346073111
  0
LINE
  8
_2-3_
  6
CONTINUOUS
 62
    7
 10
828.99718736667182
 20
1390.5116476531921
 11
881.69757432078814
 21
1443.2120346073086
  0
LINE
  8
_2-3_
  6
CONTINUOUS
 62
    7
 10
814.85505174293962
 20
1390.511647653193
 11
867.55543869705616
 21
1443.2120346073095
  0
LINE
  8
_2-3_
  6
CONTINUOUS
 62
    7
 10
811.84620453126354
 20
1401.6449360652327
 11
853.41330307333806
 21
1443.212034607307
  0
LINE
  8
_2-3_
  6
CONTINUOUS
 62
    7
 10
811.84620453126445
 20
1415.7870716889665
 11
839.27116744960585
 21
1443.2120346073082
  0
LINE
  8
_2-3_
  6
CONTINUOUS
 62
    7
 10
811.84620453126627
 20
1429.9292073127021
 11
825.12903182587365
 21
1443.2120346073093
  0
LINE
  8
_2-3_
  6
CONTINUOUS
 62
    7
 10
1055.7636864471651
 20
1376.861841130255
 11
1062.5924731879786
 21
1383.6906278710685
  0
LINE
  8
_2-3_
  6
CONTINUOUS
 62
    7
 10
1041.6215508234327
 20
1376.8618411302562
 11
1062.5924731879772
 21
1397.8327634948005
  0
LINE
  8
_2-3_
  6
CONTINUOUS
 62
    7
 10
1027.4794151996953
 20
1376.8618411302523
 11
1062.5924731879813
 21
1411.9748991185384
  0
LINE
  8
_2-3_
  6
CONTINUOUS
 62
    7
 10
1013.3372795759824
 20
1376.8618411302546
 11
1062.5924731879788
 21
1426.1170347422508
  0
LINE
  8
_2-3_
  6
CONTINUOUS
 62
    7
 10
999.19514395224508
 20
1376.8618411302505
 11
1062.5924731879788
 21
1440.2591703659841
  0
LINE
  8
_2-3_
  6
CONTINUOUS
 62
    7
 10
985.05300832851276
 20
1376.8618411302516
 11
1062.592473187982
 21
1454.4013059897206
  0
LINE
  8
_2-3_
  6
CONTINUOUS
 62
    7
 10
970.91087270478056
 20
1376.8618411302527
 11
1050.9108727047806
 21
1456.8618411302525
  0
LINE
  8
_2-3_
  6
CONTINUOUS
 62
    7
 10
956.76873708104836
 20
1376.8618411302537
 11
1036.7687370810486
 21
1456.8618411302537
  0
LINE
  8
_2-3_
  6
CONTINUOUS
 62
    7
 10
942.62660145731616
 20
1376.861841130255
 11
1022.6266014573162
 21
1456.8618411302546
  0
LINE
  8
_2-3_
  6
CONTINUOUS
 62
    7
 10
937.2193388596238
 20
1385.5967141562958
 11
1008.4844658335817
 21
1456.8618411302532
  0
LINE
  8
_2-3_
  6
CONTINUOUS
 62
    7
 10
927.99213673278814
 20
1390.5116476531934
 11
994.34233020984618
 21
1456.8618411302514
  0
LINE
  8
_2-3_
  6
CONTINUOUS
 62
    7
 10
913.85000110907549
 20
1390.511647653196
 11
980.20019458613388
 21
1456.8618411302541
  0
LINE
  8
_2-3_
  6
CONTINUOUS
 62
    7
 10
899.70786548534329
 20
1390.5116476531971
 11
966.05805896240133
 21
1456.8618411302552
  0
LINE
  8
_2-3_
  6
CONTINUOUS
 62
    7
 10
885.56572986160563
 20
1390.511647653193
 11
951.91592333866379
 21
1456.8618411302509
  0
LINE
  8
_2-3_
  6
CONTINUOUS
 62
    7
 10
871.42359423787366
 20
1390.5116476531944
 11
924.12398119199008
 21
1443.2120346073107
  0
LINE
  8
_2-3_
  6
CONTINUOUS
 62
    7
 10
937.21933885962289
 20
1456.3073922749434
 11
937.77378771493159
 21
1456.8618411302523
  0
LINE
  8
_2-3_
  6
CONTINUOUS
 62
    7
 10
857.28145861414146
 20
1390.5116476531953
 11
909.98184556825777
 21
1443.2120346073118
  0
LINE
  8
_2-3_
  6
CONTINUOUS
 62
    7
 10
843.13932299040516
 20
1390.5116476531923
 11
895.83970994452375
 21
1443.2120346073111
  0
LINE
  8
_2-3_
  6
CONTINUOUS
 62
    7
 10
828.99718736667182
 20
1390.5116476531921
 11
881.69757432078814
 21
1443.2120346073086
  0
LINE
  8
_2-3_
  6
CONTINUOUS
 62
    7
 10
814.85505174293962
 20
1390.511647653193
 11
867.55543869705616
 21
1443.2120346073095
  0
LINE
  8
_2-3_
  6
CONTINUOUS
 62
    7
 10
811.84620453126354
 20
1401.6449360652327
 11
853.41330307333806
 21
1443.212034607307
  0
LINE
  8
_2-3_
  6
CONTINUOUS
 62
    7
 10
811.84620453126445
 20
1415.7870716889665
 11
839.27116744960585
 21
1443.2120346073082
  0
LINE
  8
_2-3_
  6
CONTINUOUS
 62
    7
 10
811.84620453126627
 20
1429.9292073127021
 11
825.12903182587365
 21
1443.2120346073093
  0
LINE
  8
_2-3_
  6
CONTINUOUS
 62
    7
 10
937.21933885962164
 20
1456.8618411302537
 11
1062.5924731879797
 21
1456.8618411302537
  0
LINE
  8
_2-3_
  6
CONTINUOUS
 62
    7
 10
937.21933885962164
 20
1376.8618411302537
 11
1062.5924731879797
 21
1376.8618411302537
  0
LINE
  8
_2-3_
  6
CONTINUOUS
 62
    7
 10
937.21933885962164
 20
1529.4824467593266
 11
1062.5924731879797
 21
1529.4824467593266
  0
LINE
  8
_2-3_
  6
CONTINUOUS
 62
    7
 10
684.21152248977887
 20
1491.0831748549845
 11
684.21152248977887
 21
1479.0648351808063
  0
LINE
  8
_2-3_
  6
CONTINUOUS
 62
    7
 10
684.21152248977887
 20
1323.9389719595988
 11
684.21152248977887
 21
1312.1921426822287
  0
LINE
  8
_2-3_
  6
CONTINUOUS
 62
    7
 10
811.84620453126342
 20
1422.7554166330924
 11
684.21152248977887
 21
1479.0648351808063
  0
LINE
  8
_2-3_
  6
CONTINUOUS
 62
    7
 10
811.84620453126342
 20
1410.616256032547
 11
684.21152248977887
 21
1323.9389719595988
  0
LINE
  8
_2-3_
  6
CONTINUOUS
 62
    7
 10
811.84620453126342
 20
1399.7663040829548
 11
684.21152248977887
 21
1312.1921426822287
  0
LINE
  8
_2-3_
  6
CONTINUOUS
 62
    7
 10
186.67288487763037
 20
1343.8243708358641
 11
186.67288487763037
 21
1263.7248683483022
  0
LINE
  8
_2-3_
  6
CONTINUOUS
 62
    7
 10
186.67288487763037
 20
1263.7248683483022
 11
271.29975054927274
 21
1263.7248683483022
  0
LINE
  8
_2-3_
  6
CONTINUOUS
 62
    7
 10
245.03129857048262
 20
1263.7248683483022
 11
271.29975054927274
 21
1263.7248683483022
  0
LINE
  8
_2-3_
  6
CONTINUOUS
 62
    7
 10
283.83706398210813
 20
1255.5257405306006
 11
283.83706398210813
 21
1350.6347633178984
  0
LINE
  8
_2-3_
  6
CONTINUOUS
 62
    7
 10
271.29975054927274
 20
1350.6347633178984
 11
271.29975054927274
 21
1255.5257405306006
  0
LINE
  8
_2-3_
  6
CONTINUOUS
 62
    7
 10
271.29975054927274
 20
1255.5257405306006
 11
283.83706398210813
 21
1255.5257405306006
  0
LINE
  8
_2-3_
  6
CONTINUOUS
 62
    7
 10
803.02387242963914
 20
1426.6476219720439
 11
808.82009640928231
 21
1432.4438459516873
  0
LINE
  8
_2-3_
  6
CONTINUOUS
 62
    7
 10
793.2109619968445
 20
1430.9768471629827
 11
799.20344418514401
 21
1436.9693293512819
  0
LINE
  8
_2-3_
  6
CONTINUOUS
 62
    7
 10
783.39805156405066
 20
1435.306072353922
 11
789.58679196100593
 21
1441.4948127508774
  0
LINE
  8
_2-3_
  6
CONTINUOUS
 62
    7
 10
773.58514113125511
 20
1439.6352975448597
 11
779.97013973686751
 21
1446.0202961504724
  0
LINE
  8
_2-3_
  6
CONTINUOUS
 62
    7
 10
763.7722306984607
 20
1443.9645227357989
 11
770.35348751272795
 21
1450.5457795500661
  0
LINE
  8
_2-3_
  6
CONTINUOUS
 62
    7
 10
753.9593202656788
 20
1448.2937479267321
 11
760.73683528860147
 21
1455.0712629496547
  0
LINE
  8
_2-3_
  6
CONTINUOUS
 62
    7
 10
744.14640983288496
 20
1452.6229731176718
 11
751.12018306446362
 21
1459.5967463492502
  0
LINE
  8
_2-3_
  6
CONTINUOUS
 62
    7
 10
734.33349940009111
 20
1456.9521983086111
 11
741.50353084032577
 21
1464.1222297488457
  0
LINE
  8
_2-3_
  6
CONTINUOUS
 62
    7
 10
724.52058896729727
 20
1461.2814234995508
 11
731.88687861618735
 21
1468.6477131484407
  0
LINE
  8
_2-3_
  6
CONTINUOUS
 62
    7
 10
714.70767853450059
 20
1465.6106486904873
 11
722.27022639204722
 21
1473.173196548034
  0
LINE
  8
_2-3_
  6
CONTINUOUS
 62
    7
 10
704.89476810170618
 20
1469.9398738814261
 11
712.6535741679088
 21
1477.698679947629
  0
LINE
  8
_2-3_
  6
CONTINUOUS
 62
    7
 10
695.08185766891177
 20
1474.2690990723652
 11
703.03692194377038
 21
1482.2241633472236
  0
LINE
  8
_2-3_
  6
CONTINUOUS
 62
    7
 10
685.26894723611792
 20
1478.5983242633047
 11
693.42026971963196
 21
1486.7496467468186
  0
LINE
  8
_2-3_
  6
CONTINUOUS
 62
    7
 10
684.21152248977467
 20
1313.7890557062494
 11
685.15860943475946
 21
1312.8419687612648
  0
LINE
  8
_2-3_
  6
CONTINUOUS
 62
    7
 10
686.58911091480536
 20
1325.5536029049517
 11
693.54593662286038
 21
1318.5967771968967
  0
LINE
  8
_2-3_
  6
CONTINUOUS
 62
    7
 10
695.01153835293951
 20
1331.273311090551
 11
701.93326381096188
 21
1324.3515856325287
  0
LINE
  8
_2-3_
  6
CONTINUOUS
 62
    7
 10
703.433965791064
 20
1336.9930192761417
 11
710.32059099905314
 21
1330.1063940681524
  0
LINE
  8
_2-3_
  6
CONTINUOUS
 62
    7
 10
711.85639322919815
 20
1342.712727461741
 11
718.70791818715463
 21
1335.8612025037846
  0
LINE
  8
_2-3_
  6
CONTINUOUS
 62
    7
 10
720.2788206673323
 20
1348.4324356473403
 11
727.09524537525613
 21
1341.6160109394164
  0
LINE
  8
_2-3_
  6
CONTINUOUS
 62
    7
 10
728.70124810546702
 20
1354.1521438329389
 11
735.48257256335762
 21
1347.3708193750481
  0
LINE
  8
_2-3_
  6
CONTINUOUS
 62
    7
 10
737.12367554360117
 20
1359.8718520185382
 11
743.86989975145912
 21
1353.1256278106798
  0
LINE
  8
_2-3_
  6
CONTINUOUS
 62
    7
 10
745.54610298173588
 20
1365.5915602041364
 11
752.25722693956061
 21
1358.8804362463118
  0
LINE
  8
_2-3_
  6
CONTINUOUS
 62
    7
 10
753.96853041987004
 20
1371.3112683897357
 11
760.6445541276621
 21
1364.6352446819437
  0
LINE
  8
_2-3_
  6
CONTINUOUS
 62
    7
 10
762.39095785800475
 20
1377.0309765753343
 11
769.0318813157636
 21
1370.3900531175757
  0
LINE
  8
_2-3_
  6
CONTINUOUS
 62
    7
 10
770.81338529612924
 20
1382.7506847609252
 11
777.41920850385486
 21
1376.1448615531995
  0
LINE
  8
_2-3_
  6
CONTINUOUS
 62
    7
 10
779.23581273426339
 20
1388.470392946524
 11
785.80653569195636
 21
1381.8996699888314
  0
LINE
  8
_2-3_
  6
CONTINUOUS
 62
    7
 10
787.65824017239754
 20
1394.1901011321233
 11
794.19386288005842
 21
1387.6544784244627
  0
LINE
  8
_2-3_
  6
CONTINUOUS
 62
    7
 10
796.08066761053192
 20
1399.9098093177222
 11
802.58119006815946
 21
1393.4092868600949
  0
LINE
  8
_2-3_
  6
CONTINUOUS
 62
    7
 10
804.50309504866652
 20
1405.629517503321
 11
810.96851725626107
 21
1399.1640952957268
  0
LINE
  8
_2-3_
  6
CONTINUOUS
 62
    7
 10
283.83706398210813
 20
1473.9814045970993
 11
684.21152248977887
 21
1481.2252408486247
  0
LINE
  8
_2-3_
  6
CONTINUOUS
 62
    7
 10
283.83706398210813
 20
1506.0212055921245
 11
684.21152248977887
 21
1482.9629340759716
  0
LINE
  8
_2-3_
  6
CONTINUOUS
 62
    7
 10
283.83706398210813
 20
1538.0610065871492
 11
684.21152248977887
 21
1485.6653833790515
  0
LINE
  8
_2-3_
  6
CONTINUOUS
 62
    7
 10
283.83706398210813
 20
1570.100807582174
 11
684.21152248977887
 21
1488.4806726514867
  0
LINE
  8
_2-3_
  6
CONTINUOUS
 62
    7
 10
283.83706398210813
 20
1319.7945200895956
 11
684.21152248977887
 21
1321.6854894847884
  0
LINE
  8
_2-3_
  6
CONTINUOUS
 62
    7
 10
283.83706398210813
 20
1287.7547190945706
 11
684.21152248977887
 21
1315.4728337958582
  0
LINE
  8
_2-3_
  6
CONTINUOUS
 62
    7
 10
1744.1418370962128
 20
1456.8618411302537
 11
1744.1418370962128
 21
1376.8618411302537
  0
LINE
  8
_2-3_
  6
CONTINUOUS
 62
    7
 10
1994.8881057529297
 20
1443.2120346073129
 11
1994.8881057529297
 21
1390.5116476531948
  0
LINE
  8
_2-3_
  6
CONTINUOUS
 62
    7
 10
1869.5149714245708
 20
1443.2120346073129
 11
1994.8881057529297
 21
1443.2120346073129
  0
LINE
  8
_2-3_
  6
CONTINUOUS
 62
    7
 10
1869.5149714245708
 20
1390.5116476531948
 11
1994.8881057529297
 21
1390.5116476531948
  0
LINE
  8
_2-3_
  6
CONTINUOUS
 62
    7
 10
1869.5149714245708
 20
1456.8618411302537
 11
1869.5149714245708
 21
1443.2120346073129
  0
LINE
  8
_2-3_
  6
CONTINUOUS
 62
    7
 10
1869.5149714245708
 20
1390.5116476531948
 11
1869.5149714245708
 21
1376.8618411302537
  0
LINE
  8
_2-3_
  6
CONTINUOUS
 62
    7
 10
1750.9706238370277
 20
1376.861841130255
 11
1744.1418370962142
 21
1383.6906278710685
  0
LINE
  8
_2-3_
  6
CONTINUOUS
 62
    7
 10
1765.1127594607599
 20
1376.8618411302562
 11
1744.1418370962151
 21
1397.8327634948005
  0
LINE
  8
_2-3_
  6
CONTINUOUS
 62
    7
 10
1779.2548950844975
 20
1376.8618411302523
 11
1744.141837096211
 21
1411.9748991185384
  0
LINE
  8
_2-3_
  6
CONTINUOUS
 62
    7
 10
1793.39703070821
 20
1376.8618411302546
 11
1744.1418370962137
 21
1426.1170347422508
  0
LINE
  8
_2-3_
  6
CONTINUOUS
 62
    7
 10
1807.5391663319474
 20
1376.8618411302505
 11
1744.1418370962137
 21
1440.2591703659841
  0
LINE
  8
_2-3_
  6
CONTINUOUS
 62
    7
 10
1821.6813019556798
 20
1376.8618411302516
 11
1744.1418370962106
 21
1454.4013059897206
  0
LINE
  8
_2-3_
  6
CONTINUOUS
 62
    7
 10
1835.8234375794123
 20
1376.8618411302527
 11
1755.8234375794123
 21
1456.8618411302525
  0
LINE
  8
_2-3_
  6
CONTINUOUS
 62
    7
 10
1849.9655732031442
 20
1376.8618411302537
 11
1769.9655732031445
 21
1456.8618411302537
  0
LINE
  8
_2-3_
  6
CONTINUOUS
 62
    7
 10
1864.1077088268767
 20
1376.861841130255
 11
1784.1077088268767
 21
1456.8618411302546
  0
LINE
  8
_2-3_
  6
CONTINUOUS
 62
    7
 10
1869.514971424569
 20
1385.5967141562958
 11
1798.2498444506111
 21
1456.8618411302532
  0
LINE
  8
_2-3_
  6
CONTINUOUS
 62
    7
 10
1878.7421735514044
 20
1390.5116476531934
 11
1812.3919800743463
 21
1456.8618411302514
  0
LINE
  8
_2-3_
  6
CONTINUOUS
 62
    7
 10
1892.8843091751169
 20
1390.511647653196
 11
1826.5341156980589
 21
1456.8618411302541
  0
LINE
  8
_2-3_
  6
CONTINUOUS
 62
    7
 10
1907.0264447988493
 20
1390.5116476531971
 11
1840.6762513217911
 21
1456.8618411302552
  0
LINE
  8
_2-3_
  6
CONTINUOUS
 62
    7
 10
1921.1685804225867
 20
1390.511647653193
 11
1854.8183869455288
 21
1456.8618411302509
  0
LINE
  8
_2-3_
  6
CONTINUOUS
 62
    7
 10
1935.3107160463192
 20
1390.5116476531944
 11
1882.6103290922028
 21
1443.2120346073107
  0
LINE
  8
_2-3_
  6
CONTINUOUS
 62
    7
 10
1869.5149714245692
 20
1456.3073922749434
 11
1868.9605225692608
 21
1456.8618411302523
  0
LINE
  8
_2-3_
  6
CONTINUOUS
 62
    7
 10
1949.4528516700511
 20
1390.5116476531953
 11
1896.7524647159348
 21
1443.2120346073118
  0
LINE
  8
_2-3_
  6
CONTINUOUS
 62
    7
 10
1963.5949872937881
 20
1390.5116476531923
 11
1910.8946003396688
 21
1443.2120346073111
  0
LINE
  8
_2-3_
  6
CONTINUOUS
 62
    7
 10
1977.7371229175214
 20
1390.5116476531921
 11
1925.0367359634042
 21
1443.2120346073086
  0
LINE
  8
_2-3_
  6
CONTINUOUS
 62
    7
 10
1991.8792585412534
 20
1390.511647653193
 11
1939.1788715871371
 21
1443.2120346073095
  0
LINE
  8
_2-3_
  6
CONTINUOUS
 62
    7
 10
1994.8881057529293
 20
1401.6449360652327
 11
1953.3210072108548
 21
1443.212034607307
  0
LINE
  8
_2-3_
  6
CONTINUOUS
 62
    7
 10
1994.8881057529288
 20
1415.7870716889665
 11
1967.4631428345874
 21
1443.2120346073082
  0
LINE
  8
_2-3_
  6
CONTINUOUS
 62
    7
 10
1994.8881057529261
 20
1429.9292073127021
 11
1981.6052784583194
 21
1443.2120346073093
  0
LINE
  8
_2-3_
  6
CONTINUOUS
 62
    7
 10
1750.9706238370277
 20
1376.861841130255
 11
1744.1418370962142
 21
1383.6906278710685
  0
LINE
  8
_2-3_
  6
CONTINUOUS
 62
    7
 10
1765.1127594607599
 20
1376.8618411302562
 11
1744.1418370962151
 21
1397.8327634948005
  0
LINE
  8
_2-3_
  6
CONTINUOUS
 62
    7
 10
1779.2548950844975
 20
1376.8618411302523
 11
1744.141837096211
 21
1411.9748991185384
  0
LINE
  8
_2-3_
  6
CONTINUOUS
 62
    7
 10
1793.39703070821
 20
1376.8618411302546
 11
1744.1418370962137
 21
1426.1170347422508
  0
LINE
  8
_2-3_
  6
CONTINUOUS
 62
    7
 10
1807.5391663319474
 20
1376.8618411302505
 11
1744.1418370962137
 21
1440.2591703659841
  0
LINE
  8
_2-3_
  6
CONTINUOUS
 62
    7
 10
1821.6813019556798
 20
1376.8618411302516
 11
1744.1418370962106
 21
1454.4013059897206
  0
LINE
  8
_2-3_
  6
CONTINUOUS
 62
    7
 10
1835.8234375794123
 20
1376.8618411302527
 11
1755.8234375794123
 21
1456.8618411302525
  0
LINE
  8
_2-3_
  6
CONTINUOUS
 62
    7
 10
1849.9655732031442
 20
1376.8618411302537
 11
1769.9655732031445
 21
1456.8618411302537
  0
LINE
  8
_2-3_
  6
CONTINUOUS
 62
    7
 10
1864.1077088268767
 20
1376.861841130255
 11
1784.1077088268767
 21
1456.8618411302546
  0
LINE
  8
_2-3_
  6
CONTINUOUS
 62
    7
 10
1869.514971424569
 20
1385.5967141562958
 11
1798.2498444506111
 21
1456.8618411302532
  0
LINE
  8
_2-3_
  6
CONTINUOUS
 62
    7
 10
1878.7421735514044
 20
1390.5116476531934
 11
1812.3919800743463
 21
1456.8618411302514
  0
LINE
  8
_2-3_
  6
CONTINUOUS
 62
    7
 10
1892.8843091751169
 20
1390.511647653196
 11
1826.5341156980589
 21
1456.8618411302541
  0
LINE
  8
_2-3_
  6
CONTINUOUS
 62
    7
 10
1907.0264447988493
 20
1390.5116476531971
 11
1840.6762513217911
 21
1456.8618411302552
  0
LINE
  8
_2-3_
  6
CONTINUOUS
 62
    7
 10
1921.1685804225867
 20
1390.511647653193
 11
1854.8183869455288
 21
1456.8618411302509
  0
LINE
  8
_2-3_
  6
CONTINUOUS
 62
    7
 10
1935.3107160463192
 20
1390.5116476531944
 11
1882.6103290922028
 21
1443.2120346073107
  0
LINE
  8
_2-3_
  6
CONTINUOUS
 62
    7
 10
1869.5149714245692
 20
1456.3073922749434
 11
1868.9605225692608
 21
1456.8618411302523
  0
LINE
  8
_2-3_
  6
CONTINUOUS
 62
    7
 10
1949.4528516700511
 20
1390.5116476531953
 11
1896.7524647159348
 21
1443.2120346073118
  0
LINE
  8
_2-3_
  6
CONTINUOUS
 62
    7
 10
1963.5949872937881
 20
1390.5116476531923
 11
1910.8946003396688
 21
1443.2120346073111
  0
LINE
  8
_2-3_
  6
CONTINUOUS
 62
    7
 10
1977.7371229175214
 20
1390.5116476531921
 11
1925.0367359634042
 21
1443.2120346073086
  0
LINE
  8
_2-3_
  6
CONTINUOUS
 62
    7
 10
1991.8792585412534
 20
1390.511647653193
 11
1939.1788715871371
 21
1443.2120346073095
  0
LINE
  8
_2-3_
  6
CONTINUOUS
 62
    7
 10
1994.8881057529293
 20
1401.6449360652327
 11
1953.3210072108548
 21
1443.212034607307
  0
LINE
  8
_2-3_
  6
CONTINUOUS
 62
    7
 10
1994.8881057529288
 20
1415.7870716889665
 11
1967.4631428345874
 21
1443.2120346073082
  0
LINE
  8
_2-3_
  6
CONTINUOUS
 62
    7
 10
1994.8881057529261
 20
1429.9292073127021
 11
1981.6052784583194
 21
1443.2120346073093
  0
LINE
  8
_2-3_
  6
CONTINUOUS
 62
    7
 10
1744.1418370962106
 20
1456.8618411302537
 11
1868.9605225692608
 21
1456.8618411302537
  0
LINE
  8
_2-3_
  6
CONTINUOUS
 62
    7
 10
1062.5924731879797
 20
1456.8618411302537
 11
1744.1418370962128
 21
1456.8618411302537
  0
LINE
  8
_2-3_
  6
CONTINUOUS
 62
    7
 10
1994.8881057529297
 20
1437.3632350479938
 11
2243.2855349332513
 21
1472.3515230904168
  0
LINE
  8
_2-3_
  6
CONTINUOUS
 62
    7
 10
1994.8881057529297
 20
1425.4213354268281
 11
2243.2855349332513
 21
1460.3598373637119
  0
LINE
  8
_2-3_
  6
CONTINUOUS
 62
    7
 10
1994.8881057529297
 20
1410.0749765180167
 11
2243.2855349332513
 21
1410.0749765180167
  0
LINE
  8
_2-3_
  6
CONTINUOUS
 62
    7
 10
2243.2855349332513
 20
1410.0749765180167
 11
2243.2855349332513
 21
1397.7411722881375
  0
LINE
  8
_2-3_
  6
CONTINUOUS
 62
    7
 10
1994.8881057529297
 20
1397.7411722881375
 11
2243.2855349332513
 21
1397.7411722881375
  0
LINE
  8
_2-3_
  6
CONTINUOUS
 62
    7
 10
2740.8241186186224
 20
1575.1077193418337
 11
2740.8241186186224
 21
1430.9286148642216
  0
LINE
  8
_2-3_
  6
CONTINUOUS
 62
    7
 10
2656.1972529469808
 20
1424.1182223821875
 11
2643.6599395141448
 21
1424.1182223821875
  0
LINE
  8
_2-3_
  6
CONTINUOUS
 62
    7
 10
2643.6599395141448
 20
1424.1182223821875
 11
2643.6599395141448
 21
1581.918111823868
  0
LINE
  8
_2-3_
  6
CONTINUOUS
 62
    7
 10
2656.1972529469808
 20
1581.918111823868
 11
2643.6599395141448
 21
1581.918111823868
  0
LINE
  8
_2-3_
  6
CONTINUOUS
 62
    7
 10
2656.1972529469808
 20
1581.918111823868
 11
2656.1972529469808
 21
1424.1182223821875
  0
LINE
  8
_2-3_
  6
CONTINUOUS
 62
    7
 10
2472.9234564368448
 20
1411.1562983041479
 11
2502.177187780128
 21
1411.1562983041479
  0
LINE
  8
_2-3_
  6
CONTINUOUS
 62
    7
 10
2464.5652474816206
 20
1409.0667460653419
 11
2464.5652474816206
 21
1379.8130147220581
  0
LINE
  8
_2-3_
  6
CONTINUOUS
 62
    7
 10
2464.5652474816206
 20
1411.1562983041479
 11
2464.5652474816206
 21
1233.5443580056403
  0
LINE
  8
_2-3_
  6
CONTINUOUS
 62
    7
 10
2464.5652474816206
 20
1411.1562983041479
 11
2566.9533071831138
 21
1411.1562983041479
  0
CIRCLE
  8
_2-3_
  6
CONTINUOUS
 62
    7
 10
2480.5851479791327
 20
1361.0070445728045
 40
12.000000000000002
  0
CIRCLE
  8
_2-3_
  6
CONTINUOUS
 62
    7
 10
2480.5851479791327
 20
1283.6936117369835
 40
12.000000000000002
  0
LINE
  8
_2-3_
  6
CONTINUOUS
 62
    7
 10
2566.9533071831138
 20
1411.1562983041479
 11
2566.9533071831138
 21
1384.6886366126053
  0
LINE
  8
_2-3_
  6
CONTINUOUS
 62
    7
 10
2557.2020634020191
 20
1354.0418704434514
 11
2566.7469316533552
 21
1354.0418704434514
  0
LINE
  8
_2-3_
  6
CONTINUOUS
 62
    7
 10
2566.7469316533552
 20
1372.1513231797696
 11
2566.7469316533552
 21
1354.0418704434514
  0
LINE
  8
_2-3_
  6
CONTINUOUS
 62
    7
 10
2557.2020634020191
 20
1233.5443580056403
 11
2464.5652474816206
 21
1233.5443580056403
  0
LINE
  8
_2-3_
  6
CONTINUOUS
 62
    7
 10
2557.2020634020191
 20
1354.0418704434514
 11
2557.2020634020191
 21
1233.5443580056403
  0
LINE
  8
_2-3_
  6
CONTINUOUS
 62
    7
 10
2577.8178563052979
 20
1372.1513231797696
 11
2566.7469316533552
 21
1372.1513231797696
  0
LINE
  8
_2-3_
  6
CONTINUOUS
 62
    7
 10
2566.9533071831138
 20
1384.6886366126053
 11
2577.8178563052979
 21
1384.6886366126053
  0
LINE
  8
_2-3_
  6
CONTINUOUS
 62
    7
 10
2577.8178563052979
 20
1384.6886366126053
 11
2577.8178563052979
 21
1372.1513231797696
  0
LINE
  8
_2-3_
  6
CONTINUOUS
 62
    7
 10
2566.9533071831129
 20
1399.421556375929
 11
2571.6469998599268
 21
1399.421556375929
  0
LINE
  8
_2-3_
  6
CONTINUOUS
 62
    7
 10
2571.6469998599268
 20
1399.421556375929
 11
2618.8684489282896
 21
1286.680346725213
  0
LINE
  8
_2-3_
  6
CONTINUOUS
 62
    7
 10
2654.4262118602637
 20
1315.821498497291
 11
2654.5023930296011
 21
1315.8509321308989
  0
ARC
  8
_2-3_
  6
CONTINUOUS
 62
    7
 10
2654.9495400107444
 20
1307.4927231756747
 40
12.000000000000002
 50
237.34813714402995
 51
159.58497371313902
  0
LINE
  8
_2-3_
  6
CONTINUOUS
 62
    7
 10
2652.635711539805
 20
1315.1297142825683
 11
2613.6400381373951
 21
1300.0632041043646
  0
ARC
  8
_2-3_
  6
CONTINUOUS
 62
    7
 10
2654.7981072150178
 20
1309.5329254761346
 40
6.0000000000000009
 50
21.037511025422219
 51
111.12471914607239
  0
LINE
  8
_2-3_
  6
CONTINUOUS
 62
    7
 10
2661.5719382834759
 20
1308.635030630765
 11
2660.3981808522358
 21
1311.6867999519882
  0
LINE
  8
_2-3_
  6
CONTINUOUS
 62
    7
 10
2658.0126811361843
 20
1300.8388988004085
 11
2618.8684489282896
 21
1286.680346725213
  0
ARC
  8
_2-3_
  6
CONTINUOUS
 62
    7
 10
2655.9718646462579
 20
1306.4811561549118
 40
6.0000000000000009
 50
289.88516511385546
 51
21.037511025422614
  0
CIRCLE
  8
_2-3_
  6
CONTINUOUS
 62
    7
 10
2654.467997107975
 20
1307.4583272540481
 40
6.0000000000000009
  0
LINE
  8
_2-3_
  6
CONTINUOUS
 62
    7
 10
2464.5652474816206
 20
1254.6233253090411
 11
2438.8399644318488
 21
1254.6233253090411
  0
TEXT
  8
_2-3_
 62
    7
 10
2490.3822529890631
 20
1380.7904321616093
 40
30
 41
1
 50
0
  1
COM
  0
TEXT
  8
_2-3_
 62
    7
 10
2495.954392292545
 20
1308.9717478056114
 40
30
 41
1
 50
0
  1
CN
  0
TEXT
  8
_2-3_
 62
    7
 10
2496.5735188818212
 20
1235.2956836817862
 40
30
 41
1
 50
0
  1
NC
  0
LINE
  8
_2-3_
  6
CONTINUOUS
 62
    7
 10
2440.8521258469946
 20
1325.5333840687404
 11
2453.6474086920293
 21
1325.1206330092227
  0
LINE
  8
_2-3_
  6
CONTINUOUS
 62
    7
 10
2243.2855349332513
 20
1401.809093218983
 11
2440.8521258469946
 21
1325.5333840687404
  0
LINE
  8
_2-3_
  6
CONTINUOUS
 62
    7
 10
2427.3345286478061
 20
1402.7178321984622
 11
2427.3345286478061
 21
1384.1440345201872
  0
LINE
  8
_2-3_
  6
CONTINUOUS
 62
    7
 10
2427.3345286478061
 20
1384.1440345201872
 11
2460.767364468702
 21
1384.1440345201872
  0
LINE
  8
_2-3_
  6
CONTINUOUS
 62
    7
 10
2427.3345286478061
 20
1402.7178321984622
 11
2460.767364468702
 21
1402.7178321984622
  0
LINE
  8
_2-3_
  6
CONTINUOUS
 62
    7
 10
2460.767364468702
 20
1384.1440345201872
 11
2460.767364468702
 21
1402.7178321984622
  0
LINE
  8
_2-3_
  6
CONTINUOUS
 62
    7
 10
2427.3826829380832
 20
1332.109884283715
 11
2427.3826829380832
 21
1313.5360866054393
  0
LINE
  8
_2-3_
  6
CONTINUOUS
 62
    7
 10
2427.3826829380832
 20
1313.5360866054393
 11
2460.8155187589782
 21
1313.5360866054393
  0
LINE
  8
_2-3_
  6
CONTINUOUS
 62
    7
 10
2427.3826829380832
 20
1332.109884283715
 11
2460.8155187589782
 21
1332.109884283715
  0
LINE
  8
_2-3_
  6
CONTINUOUS
 62
    7
 10
2460.8155187589782
 20
1313.5360866054393
 11
2460.8155187589782
 21
1332.109884283715
  0
LINE
  8
_2-3_
  6
CONTINUOUS
 62
    7
 10
1994.8881057529306
 20
1431.4681704399241
 11
2000.1892981079141
 21
1426.1669780849411
  0
LINE
  8
_2-3_
  6
CONTINUOUS
 62
    7
 10
2002.1169500949425
 20
1438.3814617216276
 11
2012.5875496046383
 21
1427.910862211932
  0
LINE
  8
_2-3_
  6
CONTINUOUS
 62
    7
 10
2014.5130234273663
 20
1440.1275240129371
 11
2024.98580110138
 21
1429.6547463389234
  0
LINE
  8
_2-3_
  6
CONTINUOUS
 62
    7
 10
2026.9090967597933
 20
1441.873586304243
 11
2037.3840525981259
 21
1431.3986304659115
  0
LINE
  8
_2-3_
  6
CONTINUOUS
 62
    7
 10
2039.3051700922172
 20
1443.6196485955534
 11
2049.782304094867
 21
1433.1425145929029
  0
LINE
  8
_2-3_
  6
CONTINUOUS
 62
    7
 10
2051.7012434246403
 20
1445.3657108868629
 11
2062.1805555916085
 21
1434.8863987198947
  0
LINE
  8
_2-3_
  6
CONTINUOUS
 62
    7
 10
2064.0973167570683
 20
1447.111773178169
 11
2074.57880708835
 21
1436.6302828468868
  0
LINE
  8
_2-3_
  6
CONTINUOUS
 62
    7
 10
2076.4933900894912
 20
1448.8578354694791
 11
2086.9770585850943
 21
1438.3741669738761
  0
LINE
  8
_2-3_
  6
CONTINUOUS
 62
    7
 10
2088.8894634219146
 20
1450.6038977607886
 11
2099.3753100818358
 21
1440.1180511008679
  0
LINE
  8
_2-3_
  6
CONTINUOUS
 62
    7
 10
2101.2855367543225
 20
1452.3499600520963
 11
2111.7735615785618
 21
1441.861935227857
  0
LINE
  8
_2-3_
  6
CONTINUOUS
 62
    7
 10
2113.6816100867482
 20
1454.0960223434035
 11
2124.171813075307
 21
1443.6058193548447
  0
LINE
  8
_2-3_
  6
CONTINUOUS
 62
    7
 10
2126.0776834191738
 20
1455.8420846347117
 11
2136.5700645720508
 21
1445.3497034818338
  0
LINE
  8
_2-3_
  6
CONTINUOUS
 62
    7
 10
2138.4737567515972
 20
1457.5881469260216
 11
2148.9683160687928
 21
1447.0935876088256
  0
LINE
  8
_2-3_
  6
CONTINUOUS
 62
    7
 10
2150.869830084021
 20
1459.3342092173311
 11
2161.3665675655348
 21
1448.837471735817
  0
LINE
  8
_2-3_
  6
CONTINUOUS
 62
    7
 10
2163.2659034164485
 20
1461.080271508637
 11
2173.7648190622763
 21
1450.5813558628088
  0
LINE
  8
_2-3_
  6
CONTINUOUS
 62
    7
 10
2175.6619767488719
 20
1462.8263337999465
 11
2186.1630705590192
 21
1452.3252399897997
  0
LINE
  8
_2-3_
  6
CONTINUOUS
 62
    7
 10
2188.0580500812757
 20
1464.572396091258
 11
2198.5613220557402
 21
1454.0691241167935
  0
LINE
  8
_2-3_
  6
CONTINUOUS
 62
    7
 10
2200.4541234137023
 20
1466.318458382565
 11
2210.9595735524854
 21
1455.8130082437817
  0
LINE
  8
_2-3_
  6
CONTINUOUS
 62
    7
 10
2212.8501967461261
 20
1468.0645206738741
 11
2223.357825049231
 21
1457.5568923707697
  0
LINE
  8
_2-3_
  6
CONTINUOUS
 62
    7
 10
2225.24627007855
 20
1469.8105829651838
 11
2235.7560765459721
 21
1459.3007764977615
  0
LINE
  8
_2-3_
  6
CONTINUOUS
 62
    7
 10
2237.6423434109729
 20
1471.556645256494
 11
2243.2855349332544
 21
1465.9134537342127
  0
LINE
  8
_2-3_
  6
CONTINUOUS
 62
    7
 10
1994.8881057529297
 20
1403.1838991924583
 11
2000.3308326572524
 21
1397.7411722881361
  0
LINE
  8
_2-3_
  6
CONTINUOUS
 62
    7
 10
2002.1391640511017
 20
1410.0749765180194
 11
2014.4729682809843
 21
1397.741172288137
  0
LINE
  8
_2-3_
  6
CONTINUOUS
 62
    7
 10
2016.2812996748344
 20
1410.0749765180208
 11
2028.6151039047168
 21
1397.7411722881379
  0
LINE
  8
_2-3_
  6
CONTINUOUS
 62
    7
 10
2030.4234352985466
 20
1410.0749765180235
 11
2042.7572395284285
 21
1397.7411722881416
  0
LINE
  8
_2-3_
  6
CONTINUOUS
 62
    7
 10
2044.5655709222849
 20
1410.0749765180185
 11
2056.8993751521621
 21
1397.7411722881416
  0
LINE
  8
_2-3_
  6
CONTINUOUS
 62
    7
 10
2058.7077065460207
 20
1410.0749765180155
 11
2071.0415107759036
 21
1397.7411722881334
  0
LINE
  8
_2-3_
  6
CONTINUOUS
 62
    7
 10
2072.8498421697532
 20
1410.0749765180167
 11
2085.1836463996356
 21
1397.7411722881347
  0
LINE
  8
_2-3_
  6
CONTINUOUS
 62
    7
 10
2086.9919777934856
 20
1410.074976518018
 11
2099.3257820233675
 21
1397.7411722881357
  0
LINE
  8
_2-3_
  6
CONTINUOUS
 62
    7
 10
2101.1341134172171
 20
1410.0749765180194
 11
2113.4679176470995
 21
1397.741172288137
  0
LINE
  8
_2-3_
  6
CONTINUOUS
 62
    7
 10
2115.2762490409496
 20
1410.0749765180208
 11
2127.6100532708315
 21
1397.7411722881384
  0
LINE
  8
_2-3_
  6
CONTINUOUS
 62
    7
 10
2129.4183846646815
 20
1410.0749765180217
 11
2141.7521888945639
 21
1397.7411722881398
  0
LINE
  8
_2-3_
  6
CONTINUOUS
 62
    7
 10
2143.5605202883971
 20
1410.0749765180212
 11
2155.8943245182795
 21
1397.7411722881388
  0
LINE
  8
_2-3_
  6
CONTINUOUS
 62
    7
 10
2157.7026559121368
 20
1410.0749765180153
 11
2170.0364601420138
 21
1397.7411722881384
  0
LINE
  8
_2-3_
  6
CONTINUOUS
 62
    7
 10
2171.8447915358729
 20
1410.0749765180126
 11
2184.1785957657548
 21
1397.7411722881302
  0
LINE
  8
_2-3_
  6
CONTINUOUS
 62
    7
 10
2185.9869271596044
 20
1410.074976518014
 11
2198.3207313894873
 21
1397.7411722881311
  0
LINE
  8
_2-3_
  6
CONTINUOUS
 62
    7
 10
2200.1290627833373
 20
1410.0749765180144
 11
2212.4628670132197
 21
1397.741172288132
  0
LINE
  8
_2-3_
  6
CONTINUOUS
 62
    7
 10
2214.2711984070693
 20
1410.0749765180155
 11
2226.6050026369521
 21
1397.7411722881329
  0
LINE
  8
_2-3_
  6
CONTINUOUS
 62
    7
 10
2228.4133340308022
 20
1410.0749765180167
 11
2240.7471382606846
 21
1397.7411722881341
  0
LINE
  8
_2-3_
  6
CONTINUOUS
 62
    7
 10
2242.5554696545096
 20
1410.074976518024
 11
2243.2855349332585
 21
1409.344911239275
  0
LINE
  8
_2-3_
  6
CONTINUOUS
 62
    7
 10
2453.6783013253416
 20
1325.0625102712893
 11
2453.6783013253416
 21
1322.4942814565154
  0
LINE
  8
_2-3_
  6
CONTINUOUS
 62
    7
 10
2439.0027080980626
 20
1393.3957412358081
 11
2439.0027080980626
 21
1390.0773310007471
  0
LINE
  8
_2-3_
  6
CONTINUOUS
 62
    7
 10
2464.5652474816206
 20
1390.0773310007471
 11
2439.0027080980626
 21
1390.0773310007471
  0
LINE
  8
_2-3_
  6
CONTINUOUS
 62
    7
 10
2440.8521258469946
 20
1325.5333840687404
 11
2440.8521258469946
 21
1322.3503281548942
  0
LINE
  8
_2-3_
  6
CONTINUOUS
 62
    7
 10
2440.8521258469946
 20
1322.3503281548942
 11
2464.5652474816206
 21
1322.3503281548942
  0
LINE
  8
_2-3_
  6
CONTINUOUS
 62
    7
 10
2456.9494171681672
 20
1393.2245578295656
 11
2456.9494171681672
 21
1390.0773310007471
  0
LINE
  8
_2-3_
  6
CONTINUOUS
 62
    7
 10
2243.2855349332513
 20
1407.0079297390967
 11
2441.2648769065117
 21
1393.2245578295656
  0
LINE
  8
_2-3_
  6
CONTINUOUS
 62
    7
 10
2441.2648769065117
 20
1393.2245578295656
 11
2456.9494171681672
 21
1393.2245578295656
  0
LINE
  8
_2-3_
  6
CONTINUOUS
 62
    7
 10
2427.3345286478034
 20
1395.0015450095125
 11
2438.19203913713
 21
1384.1440345201859
  0
LINE
  8
_2-3_
  6
CONTINUOUS
 62
    7
 10
2433.7603770825895
 20
1402.7178321984593
 11
2452.334174760862
 21
1384.1440345201872
  0
LINE
  8
_2-3_
  6
CONTINUOUS
 62
    7
 10
2447.9025127063214
 20
1402.7178321984611
 11
2460.7673644687025
 21
1389.8529804360801
  0
LINE
  8
_2-3_
  6
CONTINUOUS
 62
    7
 10
2427.3826829380832
 20
1324.2427126005841
 11
2438.0893089332289
 21
1313.536086605438
  0
LINE
  8
_2-3_
  6
CONTINUOUS
 62
    7
 10
2433.6576468786634
 20
1332.1098842837187
 11
2452.2314445569414
 21
1313.5360866054407
  0
LINE
  8
_2-3_
  6
CONTINUOUS
 62
    7
 10
2447.7997825023958
 20
1332.10988428372
 11
2460.8155187589823
 21
1319.0941480271335
  0
LINE
  8
_2-3_
  6
CONTINUOUS
 62
    7
 10
2656.1972529469808
 20
1581.918111823868
 11
2662.1585002574657
 21
1575.1077193418337
  0
LINE
  8
_2-3_
  6
CONTINUOUS
 62
    7
 10
2740.8241186186224
 20
1575.1077193418337
 11
2662.1585002574657
 21
1575.1077193418337
  0
LINE
  8
_2-3_
  6
CONTINUOUS
 62
    7
 10
2740.8241186186224
 20
1430.9286148642216
 11
2664.3412363525094
 21
1430.9286148642216
  0
LINE
  8
_2-3_
  6
CONTINUOUS
 62
    7
 10
2656.1972529469808
 20
1424.1182223821875
 11
2664.3412363525094
 21
1430.9286148642216
  0
LINE
  8
_2-3_
  6
CONTINUOUS
 62
    7
 10
2662.879352539323
 20
1462.1115870183264
 11
2662.879352539323
 21
1544.3006417446948
  0
LINE
  8
_2-3_
  6
CONTINUOUS
 62
    7
 10
2740.8241186186224
 20
1449.5742735854908
 11
2656.1972529469808
 21
1449.5742735854908
  0
LINE
  8
_2-3_
  6
CONTINUOUS
 62
    7
 10
2740.8241186186224
 20
1462.1115870183264
 11
2662.879352539323
 21
1462.1115870183264
  0
LINE
  8
_2-3_
  6
CONTINUOUS
 62
    7
 10
2740.8241186186224
 20
1544.3006417446948
 11
2662.879352539323
 21
1544.3006417446948
  0
LINE
  8
_2-3_
  6
CONTINUOUS
 62
    7
 10
2740.8241186186224
 20
1558.2309900034011
 11
2656.1972529469808
 21
1558.2309900034011
  0
LINE
  8
_2-3_
  6
CONTINUOUS
 62
    7
 10
811.84620453126342
 20
1431.0197950707561
 11
686.70111985373001
 21
1489.9115996248897
  0
LINE
  8
_2-3_
  6
CONTINUOUS
 62
    7
 10
686.70111985373001
 20
1489.9115996248897
 11
684.21152248977887
 21
1491.0831748549845
  0
LINE
  8
_2-3_
  6
CONTINUOUS
 62
    7
 10
1389.776118708477
 20
1395.3421164698343
 11
1574.7014918428054
 21
1291.9092806489386
  0
LINE
  8
_2-3_
  6
CONTINUOUS
 62
    7
 10
1389.776118708477
 20
1395.3421164698343
 11
1418.8570054686104
 21
1387.9731256811101
  0
LINE
  8
_2-3_
  6
CONTINUOUS
 62
    7
 10
1389.776118708477
 20
1395.3421164698343
 11
1411.2764100129693
 21
1374.4199398664791
  0
LINE
  8
_2-3_
  6
CONTINUOUS
 62
    7
 10
270.82089482787984
 20
1467.4316687086402
 11
443.20895452937248
 21
1401.6107731862521
  0
LINE
  8
_2-3_
  6
CONTINUOUS
 62
    7
 10
270.82089482787984
 20
1467.4316687086402
 11
300.66209958412662
 21
1464.3490563918308
  0
LINE
  8
_2-3_
  6
CONTINUOUS
 62
    7
 10
270.82089482787984
 20
1467.4316687086402
 11
295.1228300679179
 21
1449.8414457541408
  0
TEXT
  8
_2-3_
 62
    7
 10
440.07462617116312
 20
1370.2674896041626
 40
64
 41
1
 50
0
  1
2
  0
LINE
  8
_2-3_
  6
CONTINUOUS
 62
    7
 10
261.41790975325273
 20
1273.103310499685
 11
436.94029781295438
 21
1213.5510716937147
  0
LINE
  8
_2-3_
  6
CONTINUOUS
 62
    7
 10
261.41790975325273
 20
1273.103310499685
 11
291.3539736549447
 21
1271.1457410695421
  0
LINE
  8
_2-3_
  6
CONTINUOUS
 62
    7
 10
261.41790975325273
 20
1273.103310499685
 11
286.36451686636099
 21
1256.4399736926634
  0
TEXT
  8
_2-3_
 62
    7
 10
433.80596945474502
 20
1185.3421164698341
 40
64
 41
1
 50
0
  1
3
  0
LINE
  8
_2-3_
  6
CONTINUOUS
 62
    7
 10
2706.1940291562387
 20
1442.3570418429681
 11
2778.2835813950442
 21
1320.1182358728192
  0
LINE
  8
_2-3_
  6
CONTINUOUS
 62
    7
 10
2706.1940291562387
 20
1442.3570418429681
 11
2727.6024416781329
 21
1421.3408606177222
  0
LINE
  8
_2-3_
  6
CONTINUOUS
 62
    7
 10
2706.1940291562387
 20
1442.3570418429681
 11
2714.2261676422736
 21
1413.4522887504204
  0
TEXT
  8
_2-3_
 62
    7
 10
2784.552238111462
 20
1291.9092806489386
 40
64
 41
1
 50
0
  1
4
  0
LINE
  8
_2-3_
  6
CONTINUOUS
 62
    7
 10
1019.9253724398202
 20
1395.3421164698343
 11
1179.776118708477
 21
1288.7749522907297
  0
LINE
  8
_2-3_
  6
CONTINUOUS
 62
    7
 10
1019.9253724398202
 20
1395.3421164698343
 11
1048.3433477351464
 21
1385.7286529881208
  0
LINE
  8
_2-3_
  6
CONTINUOUS
 62
    7
 10
1019.9253724398202
 20
1395.3421164698343
 11
1039.7293292288348
 21
1372.8076252286535
  0
TEXT
  8
_2-3_
 62
    7
 10
1176.6417903502677
 20
1254.2973403504311
 40
64
 41
1
 50
0
  1
6
  0
LINE
  8
_2-3_
  6
CONTINUOUS
 62
    7
 10
2044.8507455741487
 20
1398.476444828043
 11
2116.9402978129547
 21
1342.058534380282
  0
LINE
  8
_2-3_
  6
CONTINUOUS
 62
    7
 10
2044.8507455741487
 20
1398.476444828043
 11
2072.456257611434
 21
1386.7318415925438
  0
LINE
  8
_2-3_
  6
CONTINUOUS
 62
    7
 10
2044.8507455741487
 20
1398.476444828043
 11
2062.8855186651654
 21
1374.5025640500892
  0
LINE
  8
_2-3_
  6
CONTINUOUS
 62
    7
 10
2427.2388052756414
 20
1307.5809224399832
 11
2345.7462679622085
 21
1238.6256985593864
  0
LINE
  8
_2-3_
  6
CONTINUOUS
 62
    7
 10
2427.2388052756414
 20
1307.5809224399832
 11
2410.1330340452841
 21
1282.9355863575786
  0
LINE
  8
_2-3_
  6
CONTINUOUS
 62
    7
 10
2427.2388052756414
 20
1307.5809224399832
 11
2400.1021047976246
 21
1294.7903209229944
  0
TEXT
  8
_2-3_
 62
    7
 10
2308.1343276637008
 20
1201.0137582608788
 40
64
 41
1
 50
0
  1
8
  0
LINE
  8
_2-3_
  6
CONTINUOUS
 62
    7
 10
696.81465521151426
 20
1319.7326344074208
 11
800.24749103240993
 21
1257.0460672432416
  0
LINE
  8
_2-3_
  6
CONTINUOUS
 62
    7
 10
696.81465521151426
 20
1319.7326344074208
 11
725.62077603107571
 21
1311.3536485899822
  0
LINE
  8
_2-3_
  6
CONTINUOUS
 62
    7
 10
696.81465521151426
 20
1319.7326344074208
 11
717.57199471701892
 21
1298.0731594217891
  0
LINE
  8
_2-3_
  6
CONTINUOUS
 62
    7
 10
784.60371866087701
 20
1579.1723232772019
 11
714.42509604402164
 21
1476.9120446069264
  0
LINE
  8
_2-3_
  6
CONTINUOUS
 62
    7
 10
784.60371866087701
 20
1579.1723232772019
 11
813.13816055571738
 21
1561.612666726531
  0
LINE
  8
_2-3_
  6
CONTINUOUS
 62
    7
 10
813.13816055571738
 20
1561.612666726531
 11
745.07186221317579
 21
1462.0530064643062
  0
TEXT
  8
_2-3_
 62
    7
 10
914.89702916856186
 20
1572.6239546037284
 40
40
 41
1
 50
0
  1
20
  0
TEXT
  8
_2-3_
 62
    7
 10
980.12188795646989
 20
1485.6574762198518
 40
40
 41
1
 50
0
  1
10
  0
TEXT
  8
_2-3_
 62
    7
 10
1779.7303419860054
 20
1480.8260051985253
 40
40
 41
1
 50
0
  1
10
  0
TEXT
  8
_2-3_
 62
    7
 10
1849.7866717952397
 20
1560.5452770504121
 40
40
 41
1
 50
0
  1
20
  0
TEXT
  8
_2-3_
 62
    7
 10
785.0055272214679
 20
1571.6384127661304
 40
25
 41
1
 50
-125.0000000000002
  1
Y-Moter-L
  0
TEXT
  8
_2-3_
 62
    7
 10
784.4473115927467
 20
1129.3364883970223
 40
40
 41
1
 50
0
  1
35
  0
TEXT
  8
_2-3_
 62
    7
 10
569.44685114371737
 20
1044.7857455238086
 40
40
 41
1
 50
0
  1
105
  0
TEXT
  8
_2-3_
 62
    7
 10
2151.7536106281459
 20
1101.5555300243948
 40
40
 41
1
 50
0
  1
80
  0
TEXT
  8
_2-3_
 62
    7
 10
2028.5510995843204
 20
1244.0839251535267
 40
40
 41
1
 50
0
  1
45
  0
LINE
  8
_2-3_
  6
CONTINUOUS
 62
    7
 10
2503.6334487916206
 20
1530.6504773574338
 11
2504.6518962430509
 21
1518.4291079402678
  0
LINE
  8
_2-3_
  6
CONTINUOUS
 62
    7
 10
2243.2854810064741
 20
1472.3515110147498
 11
2503.6334487916206
 21
1530.6504773574338
  0
LINE
  8
_2-3_
  6
CONTINUOUS
 62
    7
 10
2243.2854810064741
 20
1472.3515110147498
 11
2243.2854810064741
 21
1460.0418961941973
  0
LINE
  8
_2-3_
  6
CONTINUOUS
 62
    7
 10
2243.2855349332513
 20
1460.3598373637119
 11
2504.6518962430509
 21
1518.4291079402678
  0
LINE
  8
_2-3_
  6
CONTINUOUS
 62
    7
 10
2243.2855349332513
 20
1472.3515230904168
 11
2243.2855349332513
 21
1460.3598373637119
  0
LINE
  8
_2-3_
  6
CONTINUOUS
 62
    7
 10
2334.1098330628965
 20
1480.5387950405359
 11
2349.7665453616719
 21
1496.1955073393115
  0
LINE
  8
_2-3_
  6
CONTINUOUS
 62
    7
 10
2497.7447706910525
 20
1516.8945120551102
 11
2504.2386247302165
 21
1523.3883660942743
  0
LINE
  8
_2-3_
  6
CONTINUOUS
 62
    7
 10
2479.5631109545902
 20
1512.8549879423808
 11
2495.5480634486657
 21
1528.8399404364568
  0
LINE
  8
_2-3_
  6
CONTINUOUS
 62
    7
 10
2461.3814512181207
 20
1508.8154638296448
 11
2477.3253736877905
 21
1524.7593862993147
  0
LINE
  8
_2-3_
  6
CONTINUOUS
 62
    7
 10
2443.1997914816588
 20
1504.7759397169166
 11
2459.1026839269143
 21
1520.6788321621725
  0
LINE
  8
_2-3_
  6
CONTINUOUS
 62
    7
 10
2425.018131745197
 20
1500.7364156041876
 11
2440.8799941660395
 21
1516.5982780250306
  0
LINE
  8
_2-3_
  6
CONTINUOUS
 62
    7
 10
2406.8364720087575
 20
1496.6968914914632
 11
2422.6573044051902
 21
1512.5177238878964
  0
LINE
  8
_2-3_
  6
CONTINUOUS
 62
    7
 10
2388.6548122722907
 20
1492.6573673787298
 11
2404.4346146443095
 21
1508.437169750749
  0
LINE
  8
_2-3_
  6
CONTINUOUS
 62
    7
 10
2370.4731525358284
 20
1488.6178432660013
 11
2386.2119248834301
 21
1504.356615613603
  0
LINE
  8
_2-3_
  6
CONTINUOUS
 62
    7
 10
2352.291492799367
 20
1484.5783191532728
 11
2367.9892351225562
 21
1500.2760614764625
  0
LINE
  8
_2-3_
  6
CONTINUOUS
 62
    7
 10
2334.1098330628965
 20
1480.5387950405359
 11
2349.7665453616719
 21
1496.1955073393115
  0
LINE
  8
_2-3_
  6
CONTINUOUS
 62
    7
 10
2315.9281733264343
 20
1476.4992709278074
 11
2331.5438556007962
 21
1492.1149532021691
  0
LINE
  8
_2-3_
  6
CONTINUOUS
 62
    7
 10
2297.7465135899724
 20
1472.4597468150787
 11
2313.3211658399209
 21
1488.0343990650272
  0
LINE
  8
_2-3_
  6
CONTINUOUS
 62
    7
 10
2279.5648538535106
 20
1468.4202227023502
 11
2295.0984760790461
 21
1483.9538449278855
  0
LINE
  8
_2-3_
  6
CONTINUOUS
 62
    7
 10
2261.3831941170665
 20
1464.3806985896215
 11
2276.8757863181963
 21
1479.8732907907511
  0
LINE
  8
_2-3_
  6
CONTINUOUS
 62
    7
 10
2243.2854810064728
 20
1460.4251211027604
 11
2258.6530965573202
 21
1475.7927366536082
  0
LINE
  8
_2-3_
  6
CONTINUOUS
 62
    7
 10
2503.815479086601
 20
1528.4661138176739
 11
2643.6599395141448
 21
1568.8798799045328
  0
LINE
  8
_2-3_
  6
CONTINUOUS
 62
    7
 10
2504.1038263182227
 20
1525.0059470382093
 11
2643.6599395141448
 21
1527.578409954263
  0
LINE
  8
_2-3_
  6
CONTINUOUS
 62
    7
 10
2504.3465804518523
 20
1522.0928974346516
 11
2643.6599395141448
 21
1501.0644658780793
  0
LINE
  8
_2-3_
  6
CONTINUOUS
 62
    7
 10
2504.4724475853382
 20
1520.5824918328221
 11
2643.6599395141448
 21
1444.5448805013443
  0
TEXT
  8
_2-3_
 62
    7
 10
2557.7197055865777
 20
1685.2911528353238
 40
40
 41
1
 50
0
  1
25
  0
TEXT
  8
_2-3_
 62
    7
 10
828.36551074825729
 20
1192.237155770101
 40
64
 41
1
 50
0
  1
7
  0
LINE
  8
_0-0_
  6
CONTINUOUS
 62
    7
 10
30.037313432835447
 20
2027.3358208955226
 11
30.037313432835447
 21
38.604477611940325
  0
TEXT
  8
_0-0_
 62
    7
 10
1266.9651741293526
 20
79.046019900497356
 40
40
 41
1
 50
0
  1
装置名称
  0
LINE
  8
_0-0_
  6
CONTINUOUS
 62
    7
 10
1870.667495854063
 20
365.87720488466761
 11
1870.667495854063
 21
147.69538670284939
  0
LINE
  8
_0-0_
  6
CONTINUOUS
 62
    7
 10
1669.1148424543942
 20
365.87720488466761
 11
1669.1148424543942
 21
147.69538670284939
  0
LINE
  8
_0-0_
  6
CONTINUOUS
 62
    7
 10
1230.0373134328354
 20
311.33175033921316
 11
2072.2201492537306
 21
311.33175033921316
  0
TEXT
  8
_0-0_
 62
    7
 10
1931.0945273631837
 20
320.04104477611918
 40
40
 41
1
 50
0
  1
Rev
  0
LINE
  8
_0-0_
  6
CONTINUOUS
 62
    7
 10
1870.667495854063
 20
256.78629579375865
 11
2072.2201492537306
 21
256.78629579375865
  0
TEXT
  8
_0-0_
 62
    7
 10
1283.3333333333328
 20
152.87686567164167
 40
40
 41
1
 50
0
  1
/  /  /
  0
TEXT
  8
_0-0_
 62
    7
 10
1492.5207296849085
 20
155.19859038142619
 40
40
 41
1
 50
0
  1
/  /  /
  0
TEXT
  8
_0-0_
 62
    7
 10
1688.9386401326694
 20
156.59162520729683
 40
40
 41
1
 50
0
  1
/  /  /
  0
TEXT
  8
_0-0_
 62
    7
 10
2400.9907083239486
 20
273.48090992226798
 40
64
 41
1
 50
0
  1
SMART DIYs
  0
TEXT
  8
_0-0_
 62
    7
 10
2273.5280217567843
 20
235.86896962376056
 40
30
 41
1
 50
0
  1
makind your idea reality.
  0
LINE
  8
_0-0_
  6
CONTINUOUS
 62
    7
 10
2292.4216099421278
 20
332.54697645965109
 11
2257.9439980018292
 21
276.12906601188979
  0
LINE
  8
_0-0_
  6
CONTINUOUS
 62
    7
 10
2328.2607417009258
 20
276.12906601188979
 11
2292.4216099421278
 21
332.54697645965109
  0
LINE
  8
_0-0_
  6
CONTINUOUS
 62
    7
 10
2331.7953526992319
 20
276.15978679737373
 11
2331.814867889886
 21
276.12906601188979
  0
LINE
  8
_0-0_
  6
CONTINUOUS
 62
    7
 10
2257.9439980018292
 20
276.12906601188979
 11
2328.2607417009258
 21
276.12906601188979
  0
LINE
  8
_0-0_
  6
CONTINUOUS
 62
    7
 10
2331.7765788858806
 20
276.12906601188979
 11
2366.2541908261792
 21
332.54697645965109
  0
LINE
  8
_0-0_
  6
CONTINUOUS
 62
    7
 10
2366.2541908261792
 20
332.54697645965109
 11
2389.4697028161836
 21
332.54697645965109
  0
LINE
  8
_0-0_
  6
CONTINUOUS
 62
    7
 10
2354.992090875885
 20
276.12906601188979
 11
2331.7953526992319
 21
276.12906601188979
  0
LINE
  8
_0-0_
  6
CONTINUOUS
 62
    7
 10
2389.4697028161836
 20
332.54697645965109
 11
2354.992090875885
 21
276.12906601188979
  0
SOLID
  8
_0-0_
  6
CONTINUOUS
 62
    7
 10
2257.9439980018292
 20
276.12906601188979
 11
2328.2607417009258
 21
276.12906601188979
 12
2292.4216099421278
 22
332.54697645965109
 13
2292.4216099421278
 23
332.54697645965109
  0
SOLID
  8
_0-0_
  6
CONTINUOUS
 62
    7
 10
2331.7765788858806
 20
276.12906601188979
 11
2366.2541908261792
 21
332.54697645965109
 12
2331.7953526992319
 22
276.12906601188979
 13
2354.992090875885
 23
276.12906601188979
  0
SOLID
  8
_0-0_
  6
CONTINUOUS
 62
    7
 10
2366.2541908261792
 20
332.54697645965109
 11
2389.4697028161836
 21
332.54697645965109
 12
2354.992090875885
 22
276.12906601188979
 13
2354.992090875885
 23
276.12906601188979
  0
LINE
  8
_0-0_
  6
CONTINUOUS
 62
    7
 10
2298.3451535903941
 20
332.54697645965109
 11
2360.3944621845876
 21
332.54697645965109
  0
LINE
  8
_0-0_
  6
CONTINUOUS
 62
    7
 10
2329.9705279929094
 20
282.76235687326857
 11
2298.3451535903941
 21
332.54697645965109
  0
LINE
  8
_0-0_
  6
CONTINUOUS
 62
    7
 10
2360.3944621845876
 20
332.54697645965109
 11
2329.9705279929094
 21
282.76235687326857
  0
SOLID
  8
_0-0_
  6
CONTINUOUS
 62
    7
 10
2298.3451535903941
 20
332.54697645965109
 11
2360.3944621845876
 21
332.54697645965109
 12
2329.9705279929094
 22
282.76235687326857
 13
2329.9705279929094
 23
282.76235687326857
  0
TEXT
  8
_0-0_
 62
    7
 10
1719.6225491199689
 20
315.96847211132297
 40
40
 41
1
 50
0
  1
承認
  0
LINE
  8
_0-0_
  6
CONTINUOUS
 62
    7
 10
2604.6268656716416
 20
202.24084124830412
 11
2604.6268656716416
 21
38.604477611940325
  0
LINE
  8
_0-0_
  6
CONTINUOUS
 62
    7
 10
2717.4626865671644
 20
145.05555555555571
 11
2717.4626865671644
 21
38.604477611940325
  0
TEXT
  8
_0-0_
 62
    7
 10
2638.28861174744
 20
76.349529596342848
 40
40
 41
1
 50
0
  1
頁
  0
LINE
  8
_0-0_
  6
CONTINUOUS
 62
    7
 10
1467.5621890547259
 20
450.60366377986566
 11
1467.5621890547259
 21
38.604477611940325
  0
LINE
  8
_0-0_
  6
CONTINUOUS
 62
    7
 10
2072.2201492537306
 20
450.60366377986566
 11
2072.2201492537306
 21
38.604477611940325
  0
TEXT
  8
_0-0_
 62
    7
 10
1296.204394693201
 20
318.96187273508951
 40
40
 41
1
 50
0
  1
設計
  0
TEXT
  8
_0-0_
 62
    7
 10
1243.9655887230517
 20
385.82754437688061
 40
40
 41
1
 50
0
  1
ハーネス名
  0
TEXT
  8
_0-0_
 62
    7
 10
2416.2043946932008
 20
392.09620109329853
 40
40
 41
1
 50
0
  1
会社名
  0
LINE
  8
_0-0_
  6
CONTINUOUS
 62
    7
 10
30.037313432835447
 20
2027.3358208955226
 11
2695.8899944720838
 21
2027.3358208955226
  0
LINE
  8
_0-0_
  6
CONTINUOUS
 62
    7
 10
2695.8899944720838
 20
2027.3358208955226
 11
2879.248203427308
 21
2027.3358208955226
  0
LINE
  8
_0-0_
  6
CONTINUOUS
 62
    7
 10
2879.248203427308
 20
2027.3358208955226
 11
2879.248203427308
 21
1897.1741293532334
  0
LINE
  8
_0-0_
  6
CONTINUOUS
 62
    7
 10
2879.248203427308
 20
38.604477611940325
 11
30.037313432835447
 21
38.604477611940325
  0
LINE
  8
_0-0_
  6
CONTINUOUS
 62
    7
 10
2879.248203427308
 20
1897.1741293532334
 11
2879.248203427308
 21
38.604477611940325
  0
LINE
  8
_0-0_
  6
CONTINUOUS
 62
    7
 10
1230.0373134328354
 20
450.60366377986566
 11
2879.248203427308
 21
450.60366377986566
  0
LINE
  8
_0-0_
  6
CONTINUOUS
 62
    7
 10
1230.0373134328354
 20
365.87720488466761
 11
2879.248203427308
 21
365.87720488466761
  0
LINE
  8
_0-0_
  6
CONTINUOUS
 62
    7
 10
1230.0373134328354
 20
202.24084124830412
 11
2879.248203427308
 21
202.24084124830412
  0
LINE
  8
_0-0_
  6
CONTINUOUS
 62
    7
 10
1230.0373134328354
 20
147.69538670284939
 11
2879.248203427308
 21
147.69538670284939
  0
LINE
  8
_2-3_
  6
CONTINUOUS
 62
    7
 10
283.83706398210813
 20
1227.0481313703285
 11
283.83706398210813
 21
1096.2749522907295
  0
LINE
  8
_2-3_
  6
CONTINUOUS
 62
    7
 10
937.21933885962164
 20
1096.2749522907295
 11
283.83706398210813
 21
1096.2749522907295
  0
LINE
  8
_2-3_
  6
CONTINUOUS
 62
    7
 10
692.38805900698412
 20
1177.5933602509285
 11
693.83352208380506
 21
1177.5933602509285
  0
LINE
  8
_2-3_
  6
CONTINUOUS
 62
    7
 10
685.15860943475946
 20
1177.5933602509285
 11
937.21933885962164
 21
1177.5933602509285
  0
LINE
  8
_2-3_
  6
CONTINUOUS
 62
    7
 10
937.21933885962164
 20
1279.4943374858437
 11
937.21933885962164
 21
1096.2749522907295
  0
LINE
  8
_2-3_
  6
CONTINUOUS
 62
    7
 10
685.15860943475946
 20
1279.4943374858437
 11
685.15860943475946
 21
1177.5933602509285
  0
LINE
  8
_2-3_
  6
CONTINUOUS
 62
    7
 10
283.83706398210813
 20
1600.941050810477
 11
283.83706398210813
 21
1882.2948527882427
  0
LINE
  8
_2-3_
  6
CONTINUOUS
 62
    7
 10
685.07462617116335
 20
1493.1157483106304
 11
685.07462617116335
 21
1706.250076668839
  0
LINE
  8
_2-3_
  6
CONTINUOUS
 62
    7
 10
816.7164172159396
 20
1442.966494579287
 11
816.7164172159396
 21
1618.4888826389888
  0
LINE
  8
_2-3_
  6
CONTINUOUS
 62
    7
 10
937.21933885962164
 20
1469.1756474226772
 11
937.21933885962164
 21
1529.4824467593266
  0
LINE
  8
_2-3_
  6
CONTINUOUS
 62
    7
 10
816.7164172159396
 20
1618.4888826389888
 11
1062.592473187982
 21
1618.4888826389888
  0
LINE
  8
_2-3_
  6
CONTINUOUS
 62
    7
 10
685.07462617116335
 20
1706.250076668839
 11
1062.592473187982
 21
1706.250076668839
  0
TEXT
  8
_2-3_
 62
    7
 10
814.80307034100906
 20
1651.4623757392728
 40
40
 41
1
 50
0
  1
45
  0
TEXT
  8
_2-3_
 62
    7
 10
1574.9616207373851
 20
1261.292500314584
 40
64
 41
1
 50
0
  1
1
  0
LINE
  8
_2-3_
  6
CONTINUOUS
 62
    7
 10
1869.5149714245708
 20
1469.1756474226772
 11
1869.5149714245708
 21
1526.724979901127
  0
LINE
  8
_2-3_
  6
CONTINUOUS
 62
    7
 10
1744.1418370962106
 20
1526.724979901127
 11
1869.5149714245708
 21
1526.724979901127
  0
LINE
  8
_2-3_
  6
CONTINUOUS
 62
    7
 10
1994.8881057529297
 20
1592.8468721017482
 11
1994.8881057529297
 21
1598.8264870507855
  0
LINE
  8
_2-3_
  6
CONTINUOUS
 62
    7
 10
1744.1418370962106
 20
1604.0285162423509
 11
1992.29122100583
 21
1604.0285162423509
  0
LINE
  8
_2-3_
  6
CONTINUOUS
 62
    7
 10
1992.29122100583
 20
1604.0285162423509
 11
1994.8881057529297
 21
1604.0285162423509
  0
LINE
  8
_2-3_
  6
CONTINUOUS
 62
    7
 10
1994.8881057529297
 20
1598.8264870507855
 11
1994.8881057529297
 21
1604.0285162423509
  0
LINE
  8
_2-3_
  6
CONTINUOUS
 62
    7
 10
1994.8881057529297
 20
1469.1756474226772
 11
1994.8881057529297
 21
1592.8468721017482
  0
LINE
  8
_2-3_
  6
CONTINUOUS
 62
    7
 10
2643.6599395141448
 20
1817.9821432732592
 11
2643.6599395141448
 21
1821.1754498031673
  0
LINE
  8
_2-3_
  6
CONTINUOUS
 62
    7
 10
2503.6334487916206
 20
1733.3508543278613
 11
2643.6599395141448
 21
1733.3508543278613
  0
LINE
  8
_2-3_
  6
CONTINUOUS
 62
    7
 10
2643.6599395141448
 20
1615.9832757760905
 11
2643.6599395141448
 21
1882.2948527882427
  0
LINE
  8
_2-3_
  6
CONTINUOUS
 62
    7
 10
1744.1418370962128
 20
1376.8618411302537
 11
1869.5149714245708
 21
1376.8618411302537
  0
LINE
  8
_2-3_
  6
CONTINUOUS
 62
    7
 10
1871.4179097532533
 20
1289.6165774980263
 11
2243.2855349332513
 21
1289.6165774980263
  0
LINE
  8
_2-3_
  6
CONTINUOUS
 62
    7
 10
2243.2855349332513
 20
1348.0385062613891
 11
2243.2855349332513
 21
1289.6165774980263
  0
LINE
  8
_2-3_
  6
CONTINUOUS
 62
    7
 10
1869.5149714245708
 20
1348.0385062613891
 11
1869.5149714245708
 21
1142.7674896041624
  0
LINE
  8
_2-3_
  6
CONTINUOUS
 62
    7
 10
1869.5149714245708
 20
1142.7674896041624
 11
2464.5652474816206
 21
1142.7674896041624
  0
LINE
  8
_2-3_
  6
CONTINUOUS
 62
    7
 10
2464.5652474816206
 20
1214.3899596400227
 11
2464.5652474816206
 21
1142.7674896041624
  0
LINE
  8
_0-0_
  6
CONTINUOUS
 62
    7
 10
1420.194203263286
 20
595.34813792832517
 11
1570.194203263286
 21
595.34813792832517
  0
LINE
  8
_0-0_
  6
CONTINUOUS
 62
    7
 10
1570.194203263286
 20
595.34813792832517
 11
1570.194203263286
 21
655.34813792832517
  0
LINE
  8
_0-0_
  6
CONTINUOUS
 62
    7
 10
1570.194203263286
 20
655.34813792832517
 11
1420.194203263286
 21
655.34813792832517
  0
LINE
  8
_0-0_
  6
CONTINUOUS
 62
    7
 10
1420.194203263286
 20
655.34813792832517
 11
1420.194203263286
 21
595.34813792832517
  0
LINE
  8
_0-0_
  6
CONTINUOUS
 62
    7
 10
1420.194203263286
 20
535.34813792832517
 11
1570.194203263286
 21
535.34813792832517
  0
LINE
  8
_0-0_
  6
CONTINUOUS
 62
    7
 10
1570.194203263286
 20
535.34813792832517
 11
1570.194203263286
 21
595.34813792832517
  0
LINE
  8
_0-0_
  6
CONTINUOUS
 62
    7
 10
1570.194203263286
 20
595.34813792832517
 11
1420.194203263286
 21
595.34813792832517
  0
LINE
  8
_0-0_
  6
CONTINUOUS
 62
    7
 10
1420.194203263286
 20
595.34813792832517
 11
1420.194203263286
 21
535.34813792832517
  0
LINE
  8
_0-0_
  6
CONTINUOUS
 62
    7
 10
1420.194203263286
 20
475.34813792832517
 11
1570.194203263286
 21
475.34813792832517
  0
LINE
  8
_0-0_
  6
CONTINUOUS
 62
    7
 10
1570.194203263286
 20
475.34813792832517
 11
1570.194203263286
 21
535.34813792832517
  0
LINE
  8
_0-0_
  6
CONTINUOUS
 62
    7
 10
1570.194203263286
 20
535.34813792832517
 11
1420.194203263286
 21
535.34813792832517
  0
LINE
  8
_0-0_
  6
CONTINUOUS
 62
    7
 10
1420.194203263286
 20
535.34813792832517
 11
1420.194203263286
 21
475.34813792832517
  0
TEXT
  8
_0-0_
 62
    7
 10
1434.6506019042827
 20
603.62835148600209
 40
40
 41
1
 50
0
  1
PIN No.
  0
TEXT
  8
_0-0_
 62
    7
 10
1444.7412021307832
 20
661.92959723911645
 40
40
 41
1
 50
0
  1
XHP-2
  0
LINE
  8
_0-0_
  6
CONTINUOUS
 62
    7
 10
2580.2954207038292
 20
595.34813792832517
 11
2730.2954207038292
 21
595.34813792832517
  0
LINE
  8
_0-0_
  6
CONTINUOUS
 62
    7
 10
2730.2954207038292
 20
595.34813792832517
 11
2730.2954207038292
 21
655.34813792832517
  0
LINE
  8
_0-0_
  6
CONTINUOUS
 62
    7
 10
2730.2954207038292
 20
655.34813792832517
 11
2580.2954207038292
 21
655.34813792832517
  0
LINE
  8
_0-0_
  6
CONTINUOUS
 62
    7
 10
2580.2954207038292
 20
655.34813792832517
 11
2580.2954207038292
 21
595.34813792832517
  0
LINE
  8
_0-0_
  6
CONTINUOUS
 62
    7
 10
2580.2954207038292
 20
535.34813792832517
 11
2730.2954207038292
 21
535.34813792832517
  0
LINE
  8
_0-0_
  6
CONTINUOUS
 62
    7
 10
2730.2954207038292
 20
535.34813792832517
 11
2730.2954207038292
 21
595.34813792832517
  0
LINE
  8
_0-0_
  6
CONTINUOUS
 62
    7
 10
2730.2954207038292
 20
595.34813792832517
 11
2580.2954207038292
 21
595.34813792832517
  0
LINE
  8
_0-0_
  6
CONTINUOUS
 62
    7
 10
2580.2954207038292
 20
595.34813792832517
 11
2580.2954207038292
 21
535.34813792832517
  0
LINE
  8
_0-0_
  6
CONTINUOUS
 62
    7
 10
2580.2954207038292
 20
475.34813792832517
 11
2730.2954207038292
 21
475.34813792832517
  0
LINE
  8
_0-0_
  6
CONTINUOUS
 62
    7
 10
2730.2954207038292
 20
475.34813792832517
 11
2730.2954207038292
 21
535.34813792832517
  0
LINE
  8
_0-0_
  6
CONTINUOUS
 62
    7
 10
2730.2954207038292
 20
535.34813792832517
 11
2580.2954207038292
 21
535.34813792832517
  0
LINE
  8
_0-0_
  6
CONTINUOUS
 62
    7
 10
2580.2954207038292
 20
535.34813792832517
 11
2580.2954207038292
 21
475.34813792832517
  0
TEXT
  8
_0-0_
 62
    7
 10
2594.7518193448263
 20
603.62835148600209
 40
40
 41
1
 50
0
  1
PIN No.
  0
LINE
  8
_0-0_
  6
CONTINUOUS
 62
    7
 10
1570.194203263286
 20
565.34813792832517
 11
2580.2954207038292
 21
505.34813792832517
  0
LINE
  8
_0-0_
  6
CONTINUOUS
 62
    7
 10
1570.194203263286
 20
505.34813792832517
 11
2580.2954207038292
 21
565.34813792832517
  0
TEXT
  8
_2-3_
 62
    7
 10
2681.8467136445624
 20
1180.6404315162019
 40
64
 41
1
 50
0
  1
5
  0
LINE
  8
_0-0_
  6
CONTINUOUS
 62
    7
 10
2673.2510171553213
 20
1212.407135932963
 11
2567.1128518099076
 21
1273.6981891605963
  0
LINE
  8
_0-0_
  6
CONTINUOUS
 62
    7
 10
2567.1128518099076
 20
1273.6981891605963
 11
2596.0899596284053
 21
1265.9311290684414
  0
LINE
  8
_0-0_
  6
CONTINUOUS
 62
    7
 10
2567.1128518099076
 20
1273.6981891605963
 11
2588.3242332628497
 21
1252.4831638988207
  0
TEXT
  8
_0-0_
 62
    7
 10
2593.6306415418821
 20
1086.8653921182861
 40
40
 41
1
 50
0
  1
PIN No.
  0
LINE
  8
_0-0_
  6
CONTINUOUS
 62
    7
 10
2580.2954207038292
 20
897.58614927732174
 11
2580.2954207038292
 21
837.58614927732174
  0
LINE
  8
_0-0_
  6
CONTINUOUS
 62
    7
 10
2730.2954207038292
 20
897.58614927732174
 11
2580.2954207038292
 21
897.58614927732174
  0
LINE
  8
_0-0_
  6
CONTINUOUS
 62
    7
 10
2730.2954207038292
 20
837.58614927732174
 11
2730.2954207038292
 21
897.58614927732174
  0
LINE
  8
_0-0_
  6
CONTINUOUS
 62
    7
 10
2580.2954207038292
 20
837.58614927732174
 11
2730.2954207038292
 21
837.58614927732174
  0
LINE
  8
_0-0_
  6
CONTINUOUS
 62
    7
 10
2580.2954207038292
 20
897.58614927732174
 11
2730.2954207038292
 21
897.58614927732174
  0
LINE
  8
_0-0_
  6
CONTINUOUS
 62
    7
 10
2580.2954207038292
 20
957.58614927732185
 11
2580.2954207038292
 21
897.58614927732174
  0
LINE
  8
_0-0_
  6
CONTINUOUS
 62
    7
 10
2730.2954207038292
 20
957.58614927732185
 11
2580.2954207038292
 21
957.58614927732185
  0
LINE
  8
_0-0_
  6
CONTINUOUS
 62
    7
 10
2730.2954207038292
 20
897.58614927732174
 11
2730.2954207038292
 21
957.58614927732185
  0
LINE
  8
_0-0_
  6
CONTINUOUS
 62
    7
 10
2580.2954207038292
 20
897.58614927732174
 11
2730.2954207038292
 21
897.58614927732174
  0
LINE
  8
_0-0_
  6
CONTINUOUS
 62
    7
 10
2580.2954207038292
 20
1017.5861492773217
 11
2580.2954207038292
 21
957.58614927732185
  0
LINE
  8
_0-0_
  6
CONTINUOUS
 62
    7
 10
2730.2954207038292
 20
1017.5861492773217
 11
2580.2954207038292
 21
1017.5861492773217
  0
LINE
  8
_0-0_
  6
CONTINUOUS
 62
    7
 10
2730.2954207038292
 20
957.58614927732185
 11
2730.2954207038292
 21
1017.5861492773217
  0
LINE
  8
_0-0_
  6
CONTINUOUS
 62
    7
 10
2580.2954207038292
 20
957.58614927732185
 11
2730.2954207038292
 21
957.58614927732185
  0
LINE
  8
_0-0_
  6
CONTINUOUS
 62
    7
 10
2580.2954207038292
 20
1077.5861492773217
 11
2580.2954207038292
 21
1017.5861492773217
  0
LINE
  8
_0-0_
  6
CONTINUOUS
 62
    7
 10
2730.2954207038292
 20
1077.5861492773217
 11
2580.2954207038292
 21
1077.5861492773217
  0
LINE
  8
_0-0_
  6
CONTINUOUS
 62
    7
 10
2730.2954207038292
 20
1017.5861492773217
 11
2730.2954207038292
 21
1077.5861492773217
  0
LINE
  8
_0-0_
  6
CONTINUOUS
 62
    7
 10
2580.2954207038292
 20
1017.5861492773217
 11
2730.2954207038292
 21
1017.5861492773217
  0
LINE
  8
_0-0_
  6
CONTINUOUS
 62
    7
 10
2580.2954207038292
 20
1137.5861492773217
 11
2580.2954207038292
 21
1077.5861492773217
  0
LINE
  8
_0-0_
  6
CONTINUOUS
 62
    7
 10
2730.2954207038292
 20
1137.5861492773217
 11
2580.2954207038292
 21
1137.5861492773217
  0
LINE
  8
_0-0_
  6
CONTINUOUS
 62
    7
 10
2730.2954207038292
 20
1077.5861492773217
 11
2730.2954207038292
 21
1137.5861492773217
  0
LINE
  8
_0-0_
  6
CONTINUOUS
 62
    7
 10
2580.2954207038292
 20
1077.5861492773217
 11
2730.2954207038292
 21
1077.5861492773217
  0
LINE
  8
_0-0_
  6
CONTINUOUS
 62
    7
 10
2580.2954207038292
 20
777.58614927732174
 11
2580.2954207038292
 21
717.58614927732174
  0
LINE
  8
_0-0_
  6
CONTINUOUS
 62
    7
 10
2730.2954207038292
 20
777.58614927732174
 11
2580.2954207038292
 21
777.58614927732174
  0
LINE
  8
_0-0_
  6
CONTINUOUS
 62
    7
 10
2730.2954207038292
 20
717.58614927732174
 11
2730.2954207038292
 21
777.58614927732174
  0
LINE
  8
_0-0_
  6
CONTINUOUS
 62
    7
 10
2580.2954207038292
 20
717.58614927732174
 11
2730.2954207038292
 21
717.58614927732174
  0
LINE
  8
_0-0_
  6
CONTINUOUS
 62
    7
 10
2580.2954207038292
 20
777.58614927732174
 11
2730.2954207038292
 21
777.58614927732174
  0
LINE
  8
_0-0_
  6
CONTINUOUS
 62
    7
 10
2580.2954207038292
 20
837.58614927732174
 11
2580.2954207038292
 21
777.58614927732174
  0
LINE
  8
_0-0_
  6
CONTINUOUS
 62
    7
 10
2730.2954207038292
 20
837.58614927732174
 11
2580.2954207038292
 21
837.58614927732174
  0
LINE
  8
_0-0_
  6
CONTINUOUS
 62
    7
 10
2730.2954207038292
 20
777.58614927732174
 11
2730.2954207038292
 21
837.58614927732174
  0
LINE
  8
_0-0_
  6
CONTINUOUS
 62
    7
 10
2580.2954207038292
 20
777.58614927732174
 11
2730.2954207038292
 21
777.58614927732174
  0
LINE
  8
_0-0_
  6
CONTINUOUS
 62
    7
 10
2580.2954207038292
 20
837.58614927732174
 11
2730.2954207038292
 21
837.58614927732174
  0
LINE
  8
_0-0_
  6
CONTINUOUS
 62
    7
 10
1570.194203263286
 20
928.15302986119002
 11
2580.2954207038292
 21
747.58614927732174
  0
LINE
  8
_0-0_
  6
CONTINUOUS
 62
    1
 10
1570.194203263286
 20
868.15302986119002
 11
2580.2954207038292
 21
927.58614927732174
  0
LINE
  8
_0-0_
  6
CONTINUOUS
 62
    3
 10
1570.194203263286
 20
808.15302986119002
 11
2580.2954207038292
 21
867.58614927732174
  0
LINE
  8
_0-0_
  6
CONTINUOUS
 62
    7
 10
1570.194203263286
 20
748.15302986119002
 11
2580.2954207038292
 21
1047.5861492773217
  0
TEXT
  8
_0-0_
 62
    7
 10
1521.536690994506
 20
316.19850374471571
 40
40
 41
1
 50
0
  1
確認
  0
TEXT
  8
_2-3_
 62
    7
 10
749.54118776073926
 20
1355.4917928685059
 40
25
 41
1
 50
-55.000000000000057
  1
X1-Limit
  0
LINE
  8
_2-3_
  6
CONTINUOUS
 62
    7
 10
746.00055209708944
 20
1352.4676001624819
 11
806.23050514813531
 21
1269.2407559464914
  0
LINE
  8
_2-3_
  6
CONTINUOUS
 62
    7
 10
806.23050514813531
 20
1269.2407559464914
 11
835.03063367091556
 21
1289.1793064622625
  0
LINE
  8
_2-3_
  6
CONTINUOUS
 62
    7
 10
776.64731826624393
 20
1372.8987776085849
 11
835.03063367091556
 21
1289.1793064622625
  0
TEXT
  8
_2-3_
 62
    7
 10
2118.9918103267496
 20
1306.3005862915893
 40
64
 41
1
 50
0
  1
10
  0
TEXT
  8
_0-0_
 62
    7
 10
2132.4459439620832
 20
1513.1578909348509
 40
64
 41
1
 50
0
  1
11
  0
LINE
  8
_0-0_
  6
CONTINUOUS
 62
    7
 10
2140.6679145170101
 20
1520.819272588305
 11
2107.0325804286749
 21
1467.7501899155982
  0
LINE
  8
_0-0_
  6
CONTINUOUS
 62
    7
 10
2107.0325804286749
 20
1467.7501899155982
 11
2115.98713375024
 21
1496.382618642677
  0
LINE
  8
_0-0_
  6
CONTINUOUS
 62
    7
 10
2107.0325804286749
 20
1467.7501899155982
 11
2129.1036654482323
 21
1488.0693239045131
  0
TEXT
  8
_2-3_
 62
    7
 10
1955.9930896355027
 20
1004.6016747526431
 40
40
 41
1
 50
0
  1
ULAWM AWG24-6芯
  0
TEXT
  8
_0-0_
 62
    7
 10
2532.8958778994183
 20
660.61117519306163
 40
40
 41
1
 50
0
  1
G6P1-150S06A
  0
TEXT
  8
_0-0_
 62
    7
 10
2608.2059529801609
 20
1142.9242822655115
 40
40
 41
1
 50
0
  1
PHR-6
  0
LINE
  8
_0-0_
  6
CONTINUOUS
 62
    7
 10
1230.0373134328354
 20
817.69538670284965
 11
30.037313432835447
 21
817.69538670284965
  0
LINE
  8
_0-0_
  6
CONTINUOUS
 62
    7
 10
1230.0373134328354
 20
817.69538670284965
 11
1230.0373134328354
 21
791.23394391678039
  0
LINE
  8
_0-0_
  6
CONTINUOUS
 62
    7
 10
1230.0373134328354
 20
693.14993215739503
 11
30.037313432835447
 21
693.14993215739503
  0
LINE
  8
_0-0_
  6
CONTINUOUS
 62
    7
 10
1230.0373134328354
 20
638.60447761194064
 11
30.037313432835447
 21
638.60447761194064
  0
LINE
  8
_0-0_
  6
CONTINUOUS
 62
    7
 10
1230.0373134328354
 20
584.05902306648591
 11
30.037313432835447
 21
584.05902306648591
  0
LINE
  8
_0-0_
  6
CONTINUOUS
 62
    7
 10
1230.0373134328354
 20
747.69538670284965
 11
30.037313432835447
 21
747.69538670284965
  0
LINE
  8
_0-0_
  6
CONTINUOUS
 62
    7
 10
1230.0373134328354
 20
529.5135685210314
 11
30.037313432835447
 21
529.5135685210314
  0
LINE
  8
_0-0_
  6
CONTINUOUS
 62
    7
 10
1230.0373134328354
 20
474.9681139755769
 11
30.037313432835447
 21
474.9681139755769
  0
LINE
  8
_0-0_
  6
CONTINUOUS
 62
    7
 10
1230.0373134328354
 20
420.42265943012234
 11
30.037313432835447
 21
420.42265943012234
  0
LINE
  8
_0-0_
  6
CONTINUOUS
 62
    7
 10
1230.0373134328354
 20
365.87720488466789
 11
30.037313432835447
 21
365.87720488466789
  0
LINE
  8
_0-0_
  6
CONTINUOUS
 62
    7
 10
1230.0373134328354
 20
311.33175033921327
 11
30.037313432835447
 21
311.33175033921327
  0
LINE
  8
_0-0_
  6
CONTINUOUS
 62
    7
 10
1230.0373134328354
 20
256.78629579375877
 11
30.037313432835447
 21
256.78629579375877
  0
LINE
  8
_0-0_
  6
CONTINUOUS
 62
    7
 10
1230.0373134328354
 20
202.24084124830412
 11
30.037313432835447
 21
202.24084124830412
  0
TEXT
  8
_0-0_
 62
    7
 10
55.939054726367431
 20
697.20409317051167
 40
40
 41
1
 50
0
  1
1
  0
TEXT
  8
_0-0_
 62
    7
 10
55.939054726367431
 20
643.92051108095939
 40
40
 41
1
 50
0
  1
2
  0
TEXT
  8
_0-0_
 62
    7
 10
55.939054726367431
 20
590.6369289914071
 40
40
 41
1
 50
0
  1
3
  0
TEXT
  8
_0-0_
 62
    7
 10
52.804726368158271
 20
534.21901854364592
 40
40
 41
1
 50
0
  1
4
  0
TEXT
  8
_0-0_
 62
    7
 10
52.804726368158271
 20
480.93543645409369
 40
40
 41
1
 50
0
  1
5
  0
TEXT
  8
_0-0_
 62
    7
 10
52.804726368158271
 20
427.65185436454146
 40
40
 41
1
 50
0
  1
6
  0
TEXT
  8
_0-0_
 62
    7
 10
49.670398009949309
 20
374.36827227498918
 40
40
 41
1
 50
0
  1
7
  0
TEXT
  8
_0-0_
 62
    7
 10
55.939054726367431
 20
317.95036182722788
 40
40
 41
1
 50
0
  1
8
  0
TEXT
  8
_0-0_
 62
    7
 10
55.939054726367431
 20
264.66677973767582
 40
40
 41
1
 50
0
  1
9
  0
TEXT
  8
_0-0_
 62
    7
 10
40.267412935322625
 20
211.38319764812351
 40
40
 41
1
 50
0
  1
10
  0
TEXT
  8
_0-0_
 62
    7
 10
168.77487562189003
 20
759.89066033469055
 40
40
 41
1
 50
0
  1
名称
  0
TEXT
  8
_0-0_
 62
    7
 10
1112.2077114427852
 20
763.02498869289946
 40
40
 41
1
 50
0
  1
数
  0
TEXT
  8
_0-0_
 62
    7
 10
469.67039800994951
 20
763.02498869289946
 40
40
 41
1
 50
0
  1
部材　　規格    長さ　　　
  0
TEXT
  8
_2-3_
 62
    7
 10
100.03731343283545
 20
693.14993215739503
 40
40
 41
1
 50
0
  1
 ケーブル
  0
TEXT
  8
_2-3_
 62
    7
 10
100.03731343283545
 20
638.60447761194064
 40
40
 41
1
 50
0
  1
 コネクター
  0
TEXT
  8
_2-3_
 62
    7
 10
388.65671641791062
 20
638.60447761194064
 40
40
 41
1
 50
0
  1
 XHP-4
  0
TEXT
  8
_2-3_
 62
    7
 10
388.65671641791062
 20
584.05902306648591
 40
40
 41
1
 50
0
  1
 XHP-2
  0
TEXT
  8
_2-3_
 62
    7
 10
388.65671641791062
 20
529.5135685210314
 40
40
 41
1
 50
0
  1
 PHR-6
  0
TEXT
  8
_2-3_
 62
    7
 10
100.03731343283545
 20
529.5135685210314
 40
40
 41
1
 50
0
  1
 コネクター
  0
TEXT
  8
_2-3_
 62
    7
 10
100.03731343283545
 20
584.05902306648591
 40
40
 41
1
 50
0
  1
 コネクター
  0
TEXT
  8
_2-3_
 62
    7
 10
100.03731343283545
 20
474.9681139755769
 40
40
 41
1
 50
0
  1
 マイクロSW
  0
TEXT
  8
_2-3_
 62
    7
 10
100.03731343283545
 20
256.78629579375877
 40
40
 41
1
 50
0
  1
 表示
  0
TEXT
  8
_2-3_
 62
    7
 10
100.03731343283545
 20
311.33175033921327
 40
40
 41
1
 50
0
  1
 収縮チューブ
  0
TEXT
  8
_2-3_
 62
    7
 10
100.03731343283545
 20
365.87720488466789
 40
40
 41
1
 50
0
  1
 収縮チューブ
  0
TEXT
  8
_2-3_
 62
    7
 10
100.03731343283545
 20
420.42265943012234
 40
40
 41
1
 50
0
  1
 収縮チューブ
  0
TEXT
  8
_2-3_
 62
    7
 10
388.65671641791062
 20
420.42265943012234
 40
40
 41
1
 50
0
  1
 8Φ-20mm
  0
TEXT
  8
_2-3_
 62
    7
 10
388.65671641791062
 20
365.87720488466789
 40
40
 41
1
 50
0
  1
 3.5Φ-35mm
  0
TEXT
  8
_2-3_
 62
    7
 10
388.65671641791062
 20
311.33175033921327
 40
40
 41
1
 50
0
  1
 3.5Φ-5mm
  0
TEXT
  8
_0-0_
 62
    7
 10
100.03731343283545
 20
202.24084124830412
 40
40
 41
1
 50
0
  1
 収縮チューブ
  0
TEXT
  8
_2-3_
 62
    7
 10
388.65671641791062
 20
147.69538670284939
 40
40
 41
1
 50
0
  1
 3.5Φ-45mm
  0
TEXT
  8
_2-3_
 62
    7
 10
388.65671641791062
 20
693.14993215739503
 40
40
 41
1
 50
0
  1
 ULAWM AWG24-6芯
  0
TEXT
  8
_2-3_
 62
    7
 10
388.65671641791062
 20
474.9681139755769
 40
40
 41
1
 50
0
  1
 G6P1-150S06A
  0
LINE
  8
_0-0_
  6
CONTINUOUS
 62
    7
 10
1230.0373134328354
 20
93.149932157395057
 11
30.037313432835447
 21
93.149932157395057
  0
LINE
  8
_0-0_
  6
CONTINUOUS
 62
    7
 10
100.03731343283545
 20
817.69538670284965
 11
100.03731343283545
 21
38.604477611940325
  0
LINE
  8
_0-0_
  6
CONTINUOUS
 62
    7
 10
388.65671641791062
 20
816.35210312075981
 11
388.65671641791062
 21
38.604477611940325
  0
LINE
  8
_0-0_
  6
CONTINUOUS
 62
    7
 10
1030.0373134328352
 20
817.69538670284965
 11
1030.0373134328352
 21
38.604477611940325
  0
LINE
  8
_0-0_
  6
CONTINUOUS
 62
    7
 10
1230.0373134328354
 20
791.23394391678039
 11
1230.0373134328354
 21
38.604477611940325
  0
LINE
  8
_0-0_
  6
CONTINUOUS
 62
    7
 10
1230.0373134328354
 20
147.69538670284939
 11
30.037313432835447
 21
147.69538670284939
  0
TEXT
  8
_0-0_
 62
    7
 10
47.011110062498062
 20
158.47923861321996
 40
40
 41
1
 50
0
  1
11
  0
TEXT
  8
_0-0_
 62
    7
 10
44.519603833732646
 20
99.181390368599466
 40
40
 41
1
 50
0
  1
12
  0
TEXT
  8
_0-0_
 62
    7
 10
45.51620632523921
 20
47.358060810275418
 40
40
 41
1
 50
0
  1
13
  0
TEXT
  8
_0-0_
 62
    7
 10
99.083590243699149
 20
146.76915933802172
 40
40
 41
1
 50
0
  1
 収縮チューブ
  0
TEXT
  8
_0-0_
 62
    7
 10
100.03731343283545
 20
93.149932157395057
 40
40
 41
1
 50
0
  1
 PIN
  0
TEXT
  8
_0-0_
 62
    7
 10
100.03731343283545
 20
38.604477611940325
 40
40
 41
1
 50
0
  1
 PIN
  0
TEXT
  8
_0-0_
 62
    7
 10
388.65671641791062
 20
93.149932157395057
 40
40
 41
1
 50
0
  1
 BXH-001T-P0.6
  0
TEXT
  8
_0-0_
 62
    7
 10
388.65671641791062
 20
38.604477611940325
 40
40
 41
1
 50
0
  1
 BPH-002T-P0.5S
  0
TEXT
  8
_0-0_
 62
    7
 10
1510.5646359583957
 20
55.807578008915243
 40
64
 41
1
 50
0
  1
FABOOL Laser Co2
  0
TEXT
  8
_0-0_
 62
    7
 10
1959.4776119402986
 20
262.41873963515752
 40
40
 41
1
 50
0
  1
2
  0
TEXT
  8
_0-0_
 62
    7
 10
2170.8529645772787
 20
55.318919791522603
 40
70
 41
1
 50
0
  1
2018/05/06
  0
TEXT
  8
_0-0_
 62
    7
 10
2290.8259251802765
 20
154.70773855156676
 40
40
 41
1
 50
0
  1
日付
  0
TEXT
  8
_2-3_
 62
    7
 10
1120.0373134328356
 20
700.42265943012239
 40
40
 41
1
 50
0
  1
1
  0
TEXT
  8
_2-3_
 62
    7
 10
1120.0373134328356
 20
645.87720488466789
 40
40
 41
1
 50
0
  1
1
  0
TEXT
  8
_2-3_
 62
    7
 10
1120.0373134328356
 20
591.33175033921327
 40
40
 41
1
 50
0
  1
1
  0
TEXT
  8
_2-3_
 62
    7
 10
1120.0373134328356
 20
536.78629579375865
 40
40
 41
1
 50
0
  1
1
  0
TEXT
  8
_2-3_
 62
    7
 10
1120.0373134328356
 20
482.24084124830415
 40
40
 41
1
 50
0
  1
1
  0
TEXT
  8
_2-3_
 62
    7
 10
1120.0373134328356
 20
427.6953867028497
 40
40
 41
1
 50
0
  1
2
  0
TEXT
  8
_2-3_
 62
    7
 10
1120.0373134328356
 20
373.14993215739526
 40
40
 41
1
 50
0
  1
2
  0
TEXT
  8
_2-3_
 62
    7
 10
1120.0373134328356
 20
318.60447761194052
 40
40
 41
1
 50
0
  1
2
  0
TEXT
  8
_2-3_
 62
    7
 10
1120.0373134328356
 20
264.05902306648602
 40
40
 41
1
 50
0
  1
2
  0
TEXT
  8
_0-0_
 62
    7
 10
1120.0373134328356
 20
209.51356852103135
 40
40
 41
1
 50
0
  1
1
  0
TEXT
  8
_0-0_
 62
    7
 10
1120.0373134328356
 20
154.96811397557661
 40
40
 41
1
 50
0
  1
1
  0
TEXT
  8
_0-0_
 62
    7
 10
1120.0373134328356
 20
100.42265943012239
 40
40
 41
1
 50
0
  1
6
  0
TEXT
  8
_0-0_
 62
    7
 10
1120.0373134328356
 20
45.877204884667464
 40
40
 41
1
 50
0
  1
4
  0
TEXT
  8
_0-0_
 62
    7
 10
1485.194203263286
 20
908.15302986118991
 40
40
 41
1
 50
0
  1
1
  0
TEXT
  8
_0-0_
 62
    7
 10
1485.194203263286
 20
848.15302986119013
 40
40
 41
1
 50
0
  1
2
  0
TEXT
  8
_0-0_
 62
    7
 10
1485.194203263286
 20
788.15302986119002
 40
40
 41
1
 50
0
  1
3
  0
TEXT
  8
_0-0_
 62
    7
 10
1485.194203263286
 20
728.15302986119013
 40
40
 41
1
 50
0
  1
4
  0
TEXT
  8
_0-0_
 62
    7
 10
1485.194203263286
 20
545.34813792832517
 40
40
 41
1
 50
0
  1
1
  0
TEXT
  8
_0-0_
 62
    7
 10
1485.194203263286
 20
485.348137928325
 40
40
 41
1
 50
0
  1
2
  0
TEXT
  8
_0-0_
 62
    7
 10
2645.2954207038292
 20
1027.5861492773217
 40
40
 41
1
 50
0
  1
1
  0
TEXT
  8
_0-0_
 62
    7
 10
2645.2954207038292
 20
967.58614927732174
 40
40
 41
1
 50
0
  1
2
  0
TEXT
  8
_0-0_
 62
    7
 10
2645.2954207038292
 20
907.58614927732162
 40
40
 41
1
 50
0
  1
3
  0
TEXT
  8
_0-0_
 62
    7
 10
2645.2954207038292
 20
847.58614927732174
 40
40
 41
1
 50
0
  1
4
  0
TEXT
  8
_0-0_
 62
    7
 10
2645.2954207038292
 20
787.58614927732174
 40
40
 41
1
 50
0
  1
5
  0
TEXT
  8
_0-0_
 62
    7
 10
2645.2954207038292
 20
727.58614927732174
 40
40
 41
1
 50
0
  1
6
  0
TEXT
  8
_0-0_
 62
    7
 10
2625.2954207038292
 20
545.34813792832517
 40
40
 41
1
 50
0
  1
COM
  0
TEXT
  8
_0-0_
 62
    7
 10
2635.2954207038288
 20
485.348137928325
 40
40
 41
1
 50
0
  1
CN
  0
TEXT
  8
_0-0_
 62
    7
 10
1379.6433874418021
 20
1853.6481062035987
 40
64
 41
1
 50
0
  1
1370±30
  0
LINE
  8
_2-3_
  6
CONTINUOUS
 62
    7
 10
283.83706398210813
 20
1882.2948527882427
 11
1343.3081215828465
 21
1882.2948527882427
  0
LINE
  8
_2-3_
  6
CONTINUOUS
 62
    7
 10
2643.6599395141448
 20
1882.2948527882427
 11
1673.9129943486712
 21
1882.2948527882427
  0
TEXT
  8
_0-0_
 62
    7
 10
157.5880072275948
 20
1562.1082702687411
 40
28
 41
1
 50
0
  1
1
  0
TEXT
  8
_0-0_
 62
    7
 10
157.5880072275948
 20
1526.0634941493379
 40
28
 41
1
 50
0
  1
2
  0
TEXT
  8
_0-0_
 62
    7
 10
157.5880072275948
 20
1490.0187180299349
 40
28
 41
1
 50
0
  1
3
  0
TEXT
  8
_0-0_
 62
    7
 10
157.5880072275948
 20
1453.9739419105317
 40
28
 41
1
 50
0
  1
4
  0
TEXT
  8
_0-0_
 62
    7
 10
76.034450349837016
 20
1562.1082702687411
 40
28
 41
1
 50
0
  1
White
  0
TEXT
  8
_0-0_
 62
    7
 10
104.03445034983702
 20
1526.0634941493379
 40
28
 41
1
 50
0
  1
Red
  0
TEXT
  8
_0-0_
 62
    7
 10
76.034450349837016
 20
1490.0187180299349
 40
28
 41
1
 50
0
  1
Green
  0
TEXT
  8
_0-0_
 62
    7
 10
76.034450349837016
 20
1453.9739419105317
 40
28
 41
1
 50
0
  1
Black
  0
TEXT
  8
_2-3_
 62
    7
 10
2330.5804021039912
 20
1408.5996105467666
 40
30
 41
1
 50
0
  1
Brown
  0
TEXT
  8
_2-3_
 62
    7
 10
2290.5057752383195
 20
1314.5697598004976
 40
30
 41
1
 50
0
  1
Yellow
  0
TEXT
  8
_2-3_
 62
    7
 10
388.65671641791062
 20
202.24084124830443
 40
40
 41
1
 50
0
  1
 3.5Φ-150mm
  0
TEXT
  8
_0-0_
 62
    7
 10
1300.0978113668896
 20
908.15302986119013
 40
40
 41
1
 50
0
  1
White
  0
TEXT
  8
_0-0_
 62
    7
 10
1340.0978113668893
 20
848.15302986119013
 40
40
 41
1
 50
0
  1
Red
  0
TEXT
  8
_0-0_
 62
    7
 10
1300.0978113668896
 20
788.15302986119013
 40
40
 41
1
 50
0
  1
Green
  0
TEXT
  8
_0-0_
 62
    7
 10
1300.0978113668896
 20
728.15302986119013
 40
40
 41
1
 50
0
  1
Black
  0
TEXT
  8
_0-0_
 62
    7
 10
2754.6209144285958
 20
1027.5861492773217
 40
40
 41
1
 50
0
  1
Black
  0
TEXT
  8
_0-0_
 62
    7
 10
2754.6209144285958
 20
907.58614927732162
 40
40
 41
1
 50
0
  1
Red
  0
TEXT
  8
_0-0_
 62
    7
 10
2754.6209144285958
 20
847.58614927732174
 40
40
 41
1
 50
0
  1
Green
  0
TEXT
  8
_0-0_
 62
    7
 10
2754.6209144285958
 20
727.58614927732162
 40
40
 41
1
 50
0
  1
White
  0
TEXT
  8
_0-0_
 62
    7
 10
1280.0978113668898
 20
545.34813792832517
 40
40
 41
1
 50
0
  1
Yellow
  0
TEXT
  8
_0-0_
 62
    7
 10
1300.0978113668893
 20
485.34813792832529
 40
40
 41
1
 50
0
  1
Brown
  0
TEXT
  8
_0-0_
 62
    7
 10
2754.6209144285958
 20
545.34813792832517
 40
40
 41
1
 50
0
  1
Brown
  0
TEXT
  8
_0-0_
 62
    7
 10
2754.6209144285958
 20
485.348137928325
 40
40
 41
1
 50
0
  1
Yellow
  0
TEXT
  8
_0-0_
 62
    7
 10
1931.7974263179744
 20
210.06973848069751
 40
40
 41
1
 50
0
  1
Ver.
  0
TEXT
  8
_0-0_
 62
    7
 10
1941.4438225538968
 20
154.96811397557661
 40
40
 41
1
 50
0
  1
5.0
  0
TEXT
  8
_2-3_
 62
    7
 10
388.65671641791062
 20
256.78629579375877
 40
40
 41
1
 50
0
  1
 [Y-Motor-L][X1-Limit]
  0
LINE
  8
_2-3_
  6
CONTINUOUS
 62
    7
 10
1062.5924731879797
 20
1376.8618411302537
 11
1272.1388456658765
 21
1376.8618411302537
  0
LINE
  8
_2-3_
  6
CONTINUOUS
 62
    7
 10
1359.9000396957276
 20
1376.8618411302537
 11
1744.1418370962128
 21
1376.8618411302537
  0
TEXT
  8
_0-0_
 62
    7
 10
1587.4328358208954
 20
389.00000000000011
 40
35
 41
1
 50
0
  1
Y-Motor-L Cable_ver.5.0
  0
LINE
  8
_0-0_
  6
CONTINUOUS
 62
    7
 10
1272.1388456658765
 20
1454.4013059897206
 11
1272.1388456658765
 21
1214.1115049090349
  0
LINE
  8
_0-0_
  6
CONTINUOUS
 62
    7
 10
1359.9000396957276
 20
1454.4013059897206
 11
1359.9000396957276
 21
1214.1115049090349
  0
LINE
  8
_0-0_
  6
CONTINUOUS
 62
    7
 10
1272.1388456658765
 20
1214.1115049090349
 11
1359.9000396957276
 21
1214.1115049090349
  0
TEXT
  8
_0-0_
 62
    7
 10
1306.7556990263654
 20
1437.9728268864465
 40
24.5
 41
1
 50
-90
  1
Y-Motor-L Ver.5.0
  0
LINE
  8
_0-0_
  6
CONTINUOUS
 62
    7
 10
1869.5149714245708
 20
1782.8783302604884
 11
2643.6599395141448
 21
1782.8783302604884
  0
LINE
  8
_0-0_
  6
CONTINUOUS
 62
    7
 10
1869.5149714245708
 20
1615.9832757760905
 11
1869.5149714245708
 21
1782.8783302604884
  0
TEXT
  8
_2-3_
 62
    7
 10
2208.4809040570822
 20
1733.0737870463533
 40
40
 41
1
 50
0
  1
175
  0
LINE
  8
_0-0_
  6
CONTINUOUS
 62
    7
 10
1744.1418370962106
 20
1604.0285162423509
 11
1744.1418370962106
 21
1469.1756474226772
  0
LINE
  8
_2-3_
  6
CONTINUOUS
 62
    7
 10
2503.6334487916206
 20
1615.9832757760905
 11
2503.6334487916206
 21
1733.3508543278613
  0
LINE
  8
_2-3_
  6
CONTINUOUS
 62
    7
 10
1062.592473187982
 20
1454.4013059897206
 11
1062.592473187982
 21
1706.250076668839
  0
ENDSEC
  0
EOF
