  0
SECTION
  2
HEADER
  9
$ACADVER
  1
AC1009
  9
$INSBASE
 10
0
 20
0
 30
0
  9
$EXTMIN
 10
0
 20
0
  9
$EXTMAX
 10
2940
 20
2079
  9
$LIMMIN
 10
0
 20
0
  9
$LIMMAX
 10
2940
 20
2079
  9
$LTSCALE
 40
7
  0
ENDSEC
  0
SECTION
  2
TABLES
  0
TABLE
  2
LTYPE
 70
     9
  0
LTYPE
  2
CONTINUOUS
 70
    64
  3
実線
 72
    65
 73
     0
 40
0.0
  0
LTYPE
  2
DASHED1
 70
    64
  3
--  --  --  --  --  --  --  --  
 72
    65
 73
     2
 40
2.5
 49
1.25
 49
-1.25
  0
LTYPE
  2
DASHED2
 70
    64
  3
----    ----    ----    ----    
 72
    65
 73
     2
 40
5.0
 49
2.5
 49
-2.5
  0
LTYPE
  2
DASHED3
 70
    64
  3
------  ------  ------  ------  
 72
    65
 73
     2
 40
5.0
 49
3.75
 49
-1.25
  0
LTYPE
  2
CENTER1
 70
    64
  3
----- - ----- - ----- - ----- - 
 72
    65
 73
     4
 40
10.0
 49
6.25
 49
-1.25
 49
1.25
 49
-1.25
  0
LTYPE
  2
CENTER2
 70
    64
  3
----------  --  ----------  --  
 72
    65
 73
     4
 40
20.0
 49
12.5
 49
-2.5
 49
2.5
 49
-2.5
  0
LTYPE
  2
PHANTOM1
 70
    64
  3
--- - - --- - - --- - - --- - - 
 72
    65
 73
     6
 40
10.0
 49
3.25
 49
-1.25
 49
1.25
 49
-1.25
 49
1.25
 49
-1.25
  0
LTYPE
  2
PHANTOM2
 70
    64
  3
--------  -  -  --------  -  -  
 72
    65
 73
     6
 40
20.0
 49
10.0
 49
-2.5
 49
1.25
 49
-2.5
 49
1.25
 49
-2.5
  0
LTYPE
  2
DOT
 70
    64
  3
-   -   -   -   -   -   -   -   
 72
    65
 73
     2
 40
2.5
 49
0.625
 49
-1.875
  0
LTYPE
  2
DUMMY
 70
    64
  3
ダミー
 72
    65
 73
     0
 40
0.0
  0
LTYPE
  2
RAND1
 70
    64
  3
ランダム線1
 72
    65
 73
     4
 40
10.0
 49
1.0
 49
-2.0
 49
3.0
 49
-4.0
  0
LTYPE
  2
RAND2
 70
    64
  3
ランダム線2
 72
    65
 73
     4
 40
14.0
 49
2.0
 49
-3.0
 49
4.0
 49
-5.0
  0
LTYPE
  2
RAND3
 70
    64
  3
ランダム線3
 72
    65
 73
     4
 40
18.0
 49
3.0
 49
-4.0
 49
5.0
 49
-6.0
  0
LTYPE
  2
RAND4
 70
    64
  3
ランダム線4
 72
    65
 73
     4
 40
22.0
 49
4.0
 49
-5.0
 49
6.0
 49
-7.0
  0
LTYPE
  2
RAND5
 70
    64
  3
ランダム線5
 72
    65
 73
     4
 40
26.0
 49
5.0
 49
-6.0
 49
7.0
 49
-8.0
  0
LTYPE
  2
LONG1
 70
    64
  3
----------  --  ----------  --  
 72
    65
 73
     4
 40
40.0
 49
32.5
 49
-2.5
 49
2.5
 49
-2.5
  0
LTYPE
  2
LONG2
 70
    64
  3
--------  -  -  --------  -  -  
 72
    65
 73
     6
 40
40.0
 49
30.0
 49
-2.5
 49
1.25
 49
-2.5
 49
1.25
 49
-2.5
  0
LTYPE
  2
LONG3
 70
    64
  3
+++++++++++++++..+++++++++++++++
 72
    65
 73
     2
 40
40.0
 49
37.5
 49
-2.5
  0
LTYPE
  2
LONG4
 70
    64
  3
+++++++++++++++..+++++++++++++++
 72
    65
 73
     2
 40
80.0
 49
75.0
 49
-5.0
  0
LTYPE
  2
LONG5
 70
    64
  3
----------  --  ----------  --  
 72
    65
 73
     4
 40
60.0
 49
37.5
 49
-7.5
 49
7.5
 49
-7.5
  0
LTYPE
  2
dashed
 70
   64
  3
-------   -------------   ------
 72
   65
 73
    2
 40
7.5
 49
6
 49
-1.5
  0
LTYPE
  2
dashed_spaced
 70
   64
  3
----        --------        ----
 72
   65
 73
    2
 40
12
 49
6
 49
-6
  0
LTYPE
  2
long_dashed_dotted
 70
   64
  3
------------- --- --------------
 72
   65
 73
    4
 40
15.25
 49
12
 49
-1.5
 49
0.25
 49
-1.5
  0
LTYPE
  2
long_dashed_double-dotted
 70
   64
  3
----------- --- --- ------------
 72
   65
 73
    6
 40
17
 49
12
 49
-1.5
 49
0.25
 49
-1.5
 49
0.25
 49
-1.5
  0
LTYPE
  2
long_dashed_triplicate-dotted
 70
   64
  3
--------- --- --- --- ----------
 72
   65
 73
    8
 40
18.75
 49
12
 49
-1.5
 49
0.25
 49
-1.5
 49
0.25
 49
-1.5
 49
0.25
 49
-1.5
  0
LTYPE
  2
dotted
 70
   64
  3
   -       -       -       -    
 72
   65
 73
    2
 40
1.75
 49
0.25
 49
-1.5
  0
LTYPE
  2
chain
 70
   64
  3
-------------- -- --------------
 72
   65
 73
    4
 40
18.5
 49
12
 49
-1.5
 49
3.5
 49
-1.5
  0
LTYPE
  2
chain_double_dash
 70
   64
  3
------------ -- -- -------------
 72
   65
 73
    6
 40
23.5
 49
12
 49
-1.5
 49
3.5
 49
-1.5
 49
3.5
 49
-1.5
  0
LTYPE
  2
dashed_dotted
 70
   64
  3
-----------     -     ----------
 72
   65
 73
    4
 40
9.25
 49
6
 49
-1.5
 49
0.25
 49
-1.5
  0
LTYPE
  2
double-dashed_dotted
 70
   64
  3
------   -----------   -   -----
 72
   65
 73
    6
 40
16.75
 49
6
 49
-1.5
 49
6
 49
-1.5
 49
0.25
 49
-1.5
  0
LTYPE
  2
dashed_double-dotted
 70
   64
  3
---------    -    -    ---------
 72
   65
 73
    6
 40
11
 49
6
 49
-1.5
 49
0.25
 49
-1.5
 49
0.25
 49
-1.5
  0
LTYPE
  2
double-dashed_double-dotted
 70
   64
  3
-----   ---------   -   -   ----
 72
   65
 73
    8
 40
18.5
 49
6
 49
-1.5
 49
6
 49
-1.5
 49
0.25
 49
-1.5
 49
0.25
 49
-1.5
  0
LTYPE
  2
dashed_triplicate-dotted
 70
   64
  3
-------    -    -    -    ------
 72
   65
 73
    8
 40
12.75
 49
6
 49
-1.5
 49
0.25
 49
-1.5
 49
0.25
 49
-1.5
 49
0.25
 49
-1.5
  0
LTYPE
  2
double-dashed_triplicate-dotted
 70
   64
  3
-----  ---------  -  -  -  -----
 72
   65
 73
   10
 40
20.25
 49
6
 49
-1.5
 49
6
 49
-1.5
 49
0.25
 49
-1.5
 49
0.25
 49
-1.5
 49
0.25
 49
-1.5
  0
LTYPE
  2
undefined
 70
   64
  3
--------------------------------
 72
   65
 73
    0
 40
0
  0
LTYPE
  2
_
 70
   64
  3
                                
 72
   65
 73
    0
 40
0
  0
LTYPE
  2
__18
 70
   64
  3
                                
 72
   65
 73
    0
 40
0
  0
LTYPE
  2
__19
 70
   64
  3
                                
 72
   65
 73
    0
 40
0
  0
LTYPE
  2
__20
 70
   64
  3
                                
 72
   65
 73
    0
 40
0
  0
LTYPE
  2
__21
 70
   64
  3
                                
 72
   65
 73
    0
 40
0
  0
LTYPE
  2
__22
 70
   64
  3
                                
 72
   65
 73
    0
 40
0
  0
LTYPE
  2
__23
 70
   64
  3
                                
 72
   65
 73
    0
 40
0
  0
LTYPE
  2
__24
 70
   64
  3
                                
 72
   65
 73
    0
 40
0
  0
LTYPE
  2
__25
 70
   64
  3
                                
 72
   65
 73
    0
 40
0
  0
LTYPE
  2
__26
 70
   64
  3
                                
 72
   65
 73
    0
 40
0
  0
LTYPE
  2
__27
 70
   64
  3
                                
 72
   65
 73
    0
 40
0
  0
LTYPE
  2
__28
 70
   64
  3
                                
 72
   65
 73
    0
 40
0
  0
LTYPE
  2
__29
 70
   64
  3
                                
 72
   65
 73
    0
 40
0
  0
LTYPE
  2
__30
 70
   64
  3
                                
 72
   65
 73
    0
 40
0
  0
LTYPE
  2
__31
 70
   64
  3
                                
 72
   65
 73
    0
 40
0
  0
LTYPE
  2
__32
 70
   64
  3
                                
 72
   65
 73
    0
 40
0
  0
ENDTAB
  0
TABLE
  2
STYLE
  5
3
100
AcDbSymbolTable
 70
     1
  0
STYLE
  5
10
100
AcDbSymbolTableRecord
100
AcDbTextStyleTableRecord
  2
STANDARD
 70
     0
 40
0.0
 41
1.0
 50
0.0
 71
     0
 42
0.2
  3
txt
  4
bigfont.shx
  0
STYLE
  5
26
100
AcDbSymbolTableRecord
100
AcDbTextStyleTableRecord
  2
TATEGAKI
 70
    68
 40
0.0
 41
1.0
 50
0.0
 71
     0
 42
1.0
  3
txt
  4
bigfont.shx
  0
ENDTAB
  0
TABLE
  2
LAYER
 70
    3
  0
LAYER
  2
_0-0_
 70
   64
 62
    7
  6
CONTINUOUS
  0
LAYER
  2
_2-4_
 70
   64
 62
    7
  6
CONTINUOUS
  0
LAYER
  2
ADD_LINE
 70
   64
 62
    7
  6
CONTINUOUS
  0
ENDTAB
  0
ENDSEC
  0
SECTION
  2
BLOCKS
  0
ENDSEC
  0
SECTION
  2
ENTITIES
  0
LINE
  8
_0-0_
  6
CONTINUOUS
 62
    7
 10
1870.667495854063
 20
256.78629579375865
 11
2072.2201492537306
 21
256.78629579375865
  0
LINE
  8
_0-0_
  6
CONTINUOUS
 62
    7
 10
30.037313432835447
 20
2027.3358208955226
 11
30.037313432835447
 21
38.604477611940325
  0
TEXT
  8
_0-0_
 62
    7
 10
1266.9651741293526
 20
79.046019900497356
 40
40
 41
1
 50
0
  1
装置名称
  0
LINE
  8
_0-0_
  6
CONTINUOUS
 62
    7
 10
1870.667495854063
 20
365.87720488466761
 11
1870.667495854063
 21
147.69538670284939
  0
LINE
  8
_0-0_
  6
CONTINUOUS
 62
    7
 10
1669.1148424543942
 20
365.87720488466761
 11
1669.1148424543942
 21
147.69538670284939
  0
LINE
  8
_0-0_
  6
CONTINUOUS
 62
    7
 10
1230.0373134328354
 20
311.33175033921316
 11
2072.2201492537306
 21
311.33175033921316
  0
TEXT
  8
_0-0_
 62
    7
 10
1931.0945273631837
 20
320.04104477611918
 40
40
 41
1
 50
0
  1
Rev
  0
TEXT
  8
_0-0_
 62
    7
 10
1283.3333333333328
 20
152.87686567164167
 40
40
 41
1
 50
0
  1
/  /  /
  0
TEXT
  8
_0-0_
 62
    7
 10
1492.5207296849085
 20
155.19859038142619
 40
40
 41
1
 50
0
  1
/  /  /
  0
TEXT
  8
_0-0_
 62
    7
 10
1688.9386401326694
 20
156.59162520729683
 40
40
 41
1
 50
0
  1
/  /  /
  0
TEXT
  8
_0-0_
 62
    7
 10
2400.9907083239486
 20
273.48090992226798
 40
64
 41
1
 50
0
  1
SMART DIYs
  0
TEXT
  8
_0-0_
 62
    7
 10
2273.5280217567843
 20
235.86896962376056
 40
30
 41
1
 50
0
  1
makind your idea reality.
  0
LINE
  8
_0-0_
  6
CONTINUOUS
 62
    7
 10
2292.4216099421278
 20
332.54697645965109
 11
2257.9439980018292
 21
276.12906601188979
  0
LINE
  8
_0-0_
  6
CONTINUOUS
 62
    7
 10
2328.2607417009258
 20
276.12906601188979
 11
2292.4216099421278
 21
332.54697645965109
  0
LINE
  8
_0-0_
  6
CONTINUOUS
 62
    7
 10
2331.7953526992319
 20
276.15978679737373
 11
2331.814867889886
 21
276.12906601188979
  0
LINE
  8
_0-0_
  6
CONTINUOUS
 62
    7
 10
2257.9439980018292
 20
276.12906601188979
 11
2328.2607417009258
 21
276.12906601188979
  0
LINE
  8
_0-0_
  6
CONTINUOUS
 62
    7
 10
2331.7765788858806
 20
276.12906601188979
 11
2366.2541908261792
 21
332.54697645965109
  0
LINE
  8
_0-0_
  6
CONTINUOUS
 62
    7
 10
2366.2541908261792
 20
332.54697645965109
 11
2389.4697028161836
 21
332.54697645965109
  0
LINE
  8
_0-0_
  6
CONTINUOUS
 62
    7
 10
2354.992090875885
 20
276.12906601188979
 11
2331.7953526992319
 21
276.12906601188979
  0
LINE
  8
_0-0_
  6
CONTINUOUS
 62
    7
 10
2389.4697028161836
 20
332.54697645965109
 11
2354.992090875885
 21
276.12906601188979
  0
SOLID
  8
_0-0_
  6
CONTINUOUS
 62
    7
 10
2257.9439980018292
 20
276.12906601188979
 11
2328.2607417009258
 21
276.12906601188979
 12
2292.4216099421278
 22
332.54697645965109
 13
2292.4216099421278
 23
332.54697645965109
  0
SOLID
  8
_0-0_
  6
CONTINUOUS
 62
    7
 10
2331.7765788858806
 20
276.12906601188979
 11
2366.2541908261792
 21
332.54697645965109
 12
2331.7953526992319
 22
276.12906601188979
 13
2354.992090875885
 23
276.12906601188979
  0
SOLID
  8
_0-0_
  6
CONTINUOUS
 62
    7
 10
2366.2541908261792
 20
332.54697645965109
 11
2389.4697028161836
 21
332.54697645965109
 12
2354.992090875885
 22
276.12906601188979
 13
2354.992090875885
 23
276.12906601188979
  0
LINE
  8
_0-0_
  6
CONTINUOUS
 62
    7
 10
2298.3451535903941
 20
332.54697645965109
 11
2360.3944621845876
 21
332.54697645965109
  0
LINE
  8
_0-0_
  6
CONTINUOUS
 62
    7
 10
2329.9705279929094
 20
282.76235687326857
 11
2298.3451535903941
 21
332.54697645965109
  0
LINE
  8
_0-0_
  6
CONTINUOUS
 62
    7
 10
2360.3944621845876
 20
332.54697645965109
 11
2329.9705279929094
 21
282.76235687326857
  0
SOLID
  8
_0-0_
  6
CONTINUOUS
 62
    7
 10
2298.3451535903941
 20
332.54697645965109
 11
2360.3944621845876
 21
332.54697645965109
 12
2329.9705279929094
 22
282.76235687326857
 13
2329.9705279929094
 23
282.76235687326857
  0
TEXT
  8
_0-0_
 62
    7
 10
1521.1150864334013
 20
315.96847211132297
 40
40
 41
1
 50
0
  1
確認
  0
TEXT
  8
_0-0_
 62
    7
 10
1719.6225491199689
 20
315.96847211132297
 40
40
 41
1
 50
0
  1
承認
  0
LINE
  8
_0-0_
  6
CONTINUOUS
 62
    7
 10
2604.6268656716416
 20
202.24084124830412
 11
2604.6268656716416
 21
38.604477611940325
  0
LINE
  8
_0-0_
  6
CONTINUOUS
 62
    7
 10
2717.4626865671644
 20
145.05555555555571
 11
2717.4626865671644
 21
38.604477611940325
  0
TEXT
  8
_0-0_
 62
    7
 10
2638.28861174744
 20
76.349529596342848
 40
40
 41
1
 50
0
  1
頁
  0
LINE
  8
_0-0_
  6
CONTINUOUS
 62
    7
 10
1467.5621890547259
 20
450.60366377986566
 11
1467.5621890547259
 21
38.604477611940325
  0
LINE
  8
_0-0_
  6
CONTINUOUS
 62
    7
 10
2072.2201492537306
 20
450.60366377986566
 11
2072.2201492537306
 21
38.604477611940325
  0
TEXT
  8
_0-0_
 62
    7
 10
1296.204394693201
 20
318.96187273508951
 40
40
 41
1
 50
0
  1
設計
  0
TEXT
  8
_0-0_
 62
    7
 10
1243.9655887230517
 20
385.82754437688061
 40
40
 41
1
 50
0
  1
ハーネス名
  0
TEXT
  8
_0-0_
 62
    7
 10
2416.2043946932008
 20
392.09620109329853
 40
40
 41
1
 50
0
  1
会社名
  0
LINE
  8
_0-0_
  6
CONTINUOUS
 62
    7
 10
30.037313432835447
 20
2027.3358208955226
 11
2695.8899944720838
 21
2027.3358208955226
  0
LINE
  8
_0-0_
  6
CONTINUOUS
 62
    7
 10
2695.8899944720838
 20
2027.3358208955226
 11
2879.248203427308
 21
2027.3358208955226
  0
LINE
  8
_0-0_
  6
CONTINUOUS
 62
    7
 10
2879.248203427308
 20
2027.3358208955226
 11
2879.248203427308
 21
1897.1741293532334
  0
LINE
  8
_0-0_
  6
CONTINUOUS
 62
    7
 10
2879.248203427308
 20
38.604477611940325
 11
30.037313432835447
 21
38.604477611940325
  0
LINE
  8
_0-0_
  6
CONTINUOUS
 62
    7
 10
2879.248203427308
 20
1897.1741293532334
 11
2879.248203427308
 21
38.604477611940325
  0
LINE
  8
_0-0_
  6
CONTINUOUS
 62
    7
 10
1230.0373134328354
 20
450.60366377986566
 11
2879.248203427308
 21
450.60366377986566
  0
LINE
  8
_0-0_
  6
CONTINUOUS
 62
    7
 10
1230.0373134328354
 20
365.87720488466761
 11
2879.248203427308
 21
365.87720488466761
  0
LINE
  8
_0-0_
  6
CONTINUOUS
 62
    7
 10
1230.0373134328354
 20
202.24084124830412
 11
2879.248203427308
 21
202.24084124830412
  0
LINE
  8
_0-0_
  6
CONTINUOUS
 62
    7
 10
1230.0373134328354
 20
147.69538670284939
 11
2879.248203427308
 21
147.69538670284939
  0
LINE
  8
_0-0_
  6
CONTINUOUS
 62
    7
 10
1403.5622457111697
 20
588.07975756050553
 11
1553.5622457111697
 21
588.07975756050553
  0
LINE
  8
_0-0_
  6
CONTINUOUS
 62
    7
 10
1553.5622457111697
 20
588.07975756050553
 11
1553.5622457111697
 21
648.07975756050553
  0
LINE
  8
_0-0_
  6
CONTINUOUS
 62
    7
 10
1553.5622457111697
 20
648.07975756050553
 11
1403.5622457111697
 21
648.07975756050553
  0
LINE
  8
_0-0_
  6
CONTINUOUS
 62
    7
 10
1403.5622457111697
 20
648.07975756050553
 11
1403.5622457111697
 21
588.07975756050553
  0
LINE
  8
_0-0_
  6
CONTINUOUS
 62
    7
 10
1403.5622457111697
 20
528.07975756050553
 11
1553.5622457111697
 21
528.07975756050553
  0
LINE
  8
_0-0_
  6
CONTINUOUS
 62
    7
 10
1553.5622457111697
 20
528.07975756050553
 11
1553.5622457111697
 21
588.07975756050553
  0
LINE
  8
_0-0_
  6
CONTINUOUS
 62
    7
 10
1553.5622457111697
 20
588.07975756050553
 11
1403.5622457111697
 21
588.07975756050553
  0
LINE
  8
_0-0_
  6
CONTINUOUS
 62
    7
 10
1403.5622457111697
 20
588.07975756050553
 11
1403.5622457111697
 21
528.07975756050553
  0
LINE
  8
_0-0_
  6
CONTINUOUS
 62
    7
 10
1403.5622457111697
 20
468.07975756050553
 11
1553.5622457111697
 21
468.07975756050553
  0
LINE
  8
_0-0_
  6
CONTINUOUS
 62
    7
 10
1553.5622457111697
 20
468.07975756050553
 11
1553.5622457111697
 21
528.07975756050553
  0
LINE
  8
_0-0_
  6
CONTINUOUS
 62
    7
 10
1553.5622457111697
 20
528.07975756050553
 11
1403.5622457111697
 21
528.07975756050553
  0
LINE
  8
_0-0_
  6
CONTINUOUS
 62
    7
 10
1403.5622457111697
 20
528.07975756050553
 11
1403.5622457111697
 21
468.07975756050553
  0
LINE
  8
_0-0_
  6
CONTINUOUS
 62
    7
 10
2655.450694182291
 20
588.07975756050553
 11
2805.450694182291
 21
588.07975756050553
  0
LINE
  8
_0-0_
  6
CONTINUOUS
 62
    7
 10
2805.450694182291
 20
588.07975756050553
 11
2805.450694182291
 21
648.07975756050553
  0
LINE
  8
_0-0_
  6
CONTINUOUS
 62
    7
 10
2805.450694182291
 20
648.07975756050553
 11
2655.450694182291
 21
648.07975756050553
  0
LINE
  8
_0-0_
  6
CONTINUOUS
 62
    7
 10
2655.450694182291
 20
648.07975756050553
 11
2655.450694182291
 21
588.07975756050553
  0
LINE
  8
_0-0_
  6
CONTINUOUS
 62
    7
 10
2655.450694182291
 20
528.07975756050553
 11
2805.450694182291
 21
528.07975756050553
  0
LINE
  8
_0-0_
  6
CONTINUOUS
 62
    7
 10
2805.450694182291
 20
528.07975756050553
 11
2805.450694182291
 21
588.07975756050553
  0
LINE
  8
_0-0_
  6
CONTINUOUS
 62
    7
 10
2805.450694182291
 20
588.07975756050553
 11
2655.450694182291
 21
588.07975756050553
  0
LINE
  8
_0-0_
  6
CONTINUOUS
 62
    7
 10
2655.450694182291
 20
588.07975756050553
 11
2655.450694182291
 21
528.07975756050553
  0
LINE
  8
_0-0_
  6
CONTINUOUS
 62
    7
 10
2655.450694182291
 20
468.07975756050553
 11
2805.450694182291
 21
468.07975756050553
  0
LINE
  8
_0-0_
  6
CONTINUOUS
 62
    7
 10
2805.450694182291
 20
468.07975756050553
 11
2805.450694182291
 21
528.07975756050553
  0
LINE
  8
_0-0_
  6
CONTINUOUS
 62
    7
 10
2805.450694182291
 20
528.07975756050553
 11
2655.450694182291
 21
528.07975756050553
  0
LINE
  8
_0-0_
  6
CONTINUOUS
 62
    7
 10
2655.450694182291
 20
528.07975756050553
 11
2655.450694182291
 21
468.07975756050553
  0
LINE
  8
_0-0_
  6
CONTINUOUS
 62
    7
 10
2655.450694182291
 20
936.47026926954322
 11
2805.450694182291
 21
936.47026926954322
  0
LINE
  8
_0-0_
  6
CONTINUOUS
 62
    7
 10
2805.450694182291
 20
936.47026926954322
 11
2805.450694182291
 21
996.47026926954311
  0
LINE
  8
_0-0_
  6
CONTINUOUS
 62
    7
 10
2805.450694182291
 20
996.47026926954311
 11
2655.450694182291
 21
996.47026926954311
  0
LINE
  8
_0-0_
  6
CONTINUOUS
 62
    7
 10
2655.450694182291
 20
996.47026926954311
 11
2655.450694182291
 21
936.47026926954322
  0
LINE
  8
_0-0_
  6
CONTINUOUS
 62
    7
 10
2655.450694182291
 20
876.47026926954322
 11
2805.450694182291
 21
876.47026926954322
  0
LINE
  8
_0-0_
  6
CONTINUOUS
 62
    7
 10
2805.450694182291
 20
876.47026926954322
 11
2805.450694182291
 21
936.47026926954322
  0
LINE
  8
_0-0_
  6
CONTINUOUS
 62
    7
 10
2805.450694182291
 20
936.47026926954322
 11
2655.450694182291
 21
936.47026926954322
  0
LINE
  8
_0-0_
  6
CONTINUOUS
 62
    7
 10
2655.450694182291
 20
936.47026926954322
 11
2655.450694182291
 21
876.47026926954322
  0
LINE
  8
_0-0_
  6
CONTINUOUS
 62
    7
 10
2655.450694182291
 20
816.47026926954322
 11
2805.450694182291
 21
816.47026926954322
  0
LINE
  8
_0-0_
  6
CONTINUOUS
 62
    7
 10
2805.450694182291
 20
816.47026926954322
 11
2805.450694182291
 21
876.47026926954322
  0
LINE
  8
_0-0_
  6
CONTINUOUS
 62
    7
 10
2805.450694182291
 20
876.47026926954322
 11
2655.450694182291
 21
876.47026926954322
  0
LINE
  8
_0-0_
  6
CONTINUOUS
 62
    7
 10
2655.450694182291
 20
876.47026926954322
 11
2655.450694182291
 21
816.47026926954322
  0
LINE
  8
_0-0_
  6
CONTINUOUS
 62
    7
 10
2655.450694182291
 20
756.47026926954322
 11
2805.450694182291
 21
756.47026926954322
  0
LINE
  8
_0-0_
  6
CONTINUOUS
 62
    7
 10
2805.450694182291
 20
756.47026926954322
 11
2805.450694182291
 21
816.47026926954322
  0
LINE
  8
_0-0_
  6
CONTINUOUS
 62
    7
 10
2805.450694182291
 20
816.47026926954322
 11
2655.450694182291
 21
816.47026926954322
  0
LINE
  8
_0-0_
  6
CONTINUOUS
 62
    7
 10
2655.450694182291
 20
816.47026926954322
 11
2655.450694182291
 21
756.47026926954322
  0
LINE
  8
_0-0_
  6
CONTINUOUS
 62
    7
 10
2655.450694182291
 20
696.47026926954322
 11
2805.450694182291
 21
696.47026926954322
  0
LINE
  8
_0-0_
  6
CONTINUOUS
 62
    7
 10
2805.450694182291
 20
696.47026926954322
 11
2805.450694182291
 21
756.47026926954322
  0
LINE
  8
_0-0_
  6
CONTINUOUS
 62
    7
 10
2805.450694182291
 20
756.47026926954322
 11
2655.450694182291
 21
756.47026926954322
  0
LINE
  8
_0-0_
  6
CONTINUOUS
 62
    7
 10
2655.450694182291
 20
756.47026926954322
 11
2655.450694182291
 21
696.47026926954322
  0
LINE
  8
_0-0_
  6
CONTINUOUS
 62
    7
 10
2655.450694182291
 20
1056.4702692695432
 11
2805.450694182291
 21
1056.4702692695432
  0
LINE
  8
_0-0_
  6
CONTINUOUS
 62
    7
 10
2805.450694182291
 20
1056.4702692695432
 11
2805.450694182291
 21
1116.4702692695432
  0
LINE
  8
_0-0_
  6
CONTINUOUS
 62
    7
 10
2805.450694182291
 20
1116.4702692695432
 11
2655.450694182291
 21
1116.4702692695432
  0
LINE
  8
_0-0_
  6
CONTINUOUS
 62
    7
 10
2655.450694182291
 20
1116.4702692695432
 11
2655.450694182291
 21
1056.4702692695432
  0
LINE
  8
_0-0_
  6
CONTINUOUS
 62
    7
 10
2805.450694182291
 20
996.47026926954311
 11
2805.450694182291
 21
1056.4702692695432
  0
LINE
  8
_0-0_
  6
CONTINUOUS
 62
    7
 10
2655.450694182291
 20
1056.4702692695432
 11
2655.450694182291
 21
996.47026926954311
  0
LINE
  8
_2-4_
  6
CONTINUOUS
 62
    7
 10
176.09989269607811
 20
1660.0933247702112
 11
260.72675836771947
 21
1660.0933247702112
  0
LINE
  8
_2-4_
  6
CONTINUOUS
 62
    7
 10
176.09989269607811
 20
1660.0933247702112
 11
176.09989269607811
 21
1515.9142202925991
  0
LINE
  8
_2-4_
  6
CONTINUOUS
 62
    7
 10
260.72675836771947
 20
1509.1038278105648
 11
273.26407180055571
 21
1509.1038278105648
  0
LINE
  8
_2-4_
  6
CONTINUOUS
 62
    7
 10
273.26407180055571
 20
1509.1038278105648
 11
273.26407180055571
 21
1666.9037172522453
  0
LINE
  8
_2-4_
  6
CONTINUOUS
 62
    7
 10
260.72675836771947
 20
1666.9037172522453
 11
273.26407180055571
 21
1666.9037172522453
  0
LINE
  8
_2-4_
  6
CONTINUOUS
 62
    7
 10
260.72675836771947
 20
1666.9037172522453
 11
260.72675836771947
 21
1509.1038278105648
  0
LINE
  8
_2-4_
  6
CONTINUOUS
 62
    7
 10
176.09989269607811
 20
1515.9142202925991
 11
260.72675836771947
 21
1515.9142202925991
  0
LINE
  8
_2-4_
  6
CONTINUOUS
 62
    7
 10
234.45830638892997
 20
1644.0734242726985
 11
234.45830638892997
 21
1628.053523775186
  0
LINE
  8
_2-4_
  6
CONTINUOUS
 62
    7
 10
234.45830638892997
 20
1612.0336232776738
 11
234.45830638892997
 21
1596.0137227801615
  0
LINE
  8
_2-4_
  6
CONTINUOUS
 62
    7
 10
234.45830638892997
 20
1579.993822282649
 11
234.45830638892997
 21
1563.9739217851366
  0
LINE
  8
_2-4_
  6
CONTINUOUS
 62
    7
 10
234.45830638892997
 20
1547.9540212876241
 11
234.45830638892997
 21
1531.9341207901116
  0
LINE
  8
_2-4_
  6
CONTINUOUS
 62
    7
 10
176.09989269607811
 20
1644.0734242726985
 11
234.45830638892997
 21
1644.0734242726985
  0
LINE
  8
_2-4_
  6
CONTINUOUS
 62
    7
 10
176.09989269607811
 20
1628.053523775186
 11
234.45830638892997
 21
1628.053523775186
  0
LINE
  8
_2-4_
  6
CONTINUOUS
 62
    7
 10
176.09989269607811
 20
1612.0336232776738
 11
234.45830638892997
 21
1612.0336232776738
  0
LINE
  8
_2-4_
  6
CONTINUOUS
 62
    7
 10
176.09989269607811
 20
1596.0137227801615
 11
234.45830638892997
 21
1596.0137227801615
  0
LINE
  8
_2-4_
  6
CONTINUOUS
 62
    7
 10
176.09989269607811
 20
1579.993822282649
 11
234.45830638892997
 21
1579.993822282649
  0
LINE
  8
_2-4_
  6
CONTINUOUS
 62
    7
 10
176.09989269607811
 20
1563.9739217851366
 11
234.45830638892997
 21
1563.9739217851366
  0
LINE
  8
_2-4_
  6
CONTINUOUS
 62
    7
 10
176.09989269607811
 20
1547.9540212876241
 11
234.45830638892997
 21
1547.9540212876241
  0
LINE
  8
_2-4_
  6
CONTINUOUS
 62
    7
 10
176.09989269607811
 20
1531.9341207901116
 11
234.45830638892997
 21
1531.9341207901116
  0
LINE
  8
_2-4_
  6
CONTINUOUS
 62
    7
 10
801.27321234971066
 20
1509.174701049081
 11
801.27321234971066
 21
1456.4743140949629
  0
LINE
  8
_2-4_
  6
CONTINUOUS
 62
    7
 10
1052.019481006427
 20
1522.824507572022
 11
1052.019481006427
 21
1442.824507572022
  0
LINE
  8
_2-4_
  6
CONTINUOUS
 62
    7
 10
926.64634667806899
 20
1509.174701049081
 11
801.27321234971066
 21
1509.174701049081
  0
LINE
  8
_2-4_
  6
CONTINUOUS
 62
    7
 10
926.64634667806899
 20
1456.4743140949629
 11
801.27321234971066
 21
1456.4743140949629
  0
LINE
  8
_2-4_
  6
CONTINUOUS
 62
    7
 10
926.64634667806899
 20
1522.824507572022
 11
926.64634667806899
 21
1509.174701049081
  0
LINE
  8
_2-4_
  6
CONTINUOUS
 62
    7
 10
926.64634667806899
 20
1456.4743140949629
 11
926.64634667806899
 21
1442.824507572022
  0
LINE
  8
_2-4_
  6
CONTINUOUS
 62
    7
 10
1045.1906942656121
 20
1442.8245075720233
 11
1052.0194810064256
 21
1449.653294312837
  0
LINE
  8
_2-4_
  6
CONTINUOUS
 62
    7
 10
1031.0485586418802
 20
1442.8245075720245
 11
1052.0194810064245
 21
1463.7954299365692
  0
LINE
  8
_2-4_
  6
CONTINUOUS
 62
    7
 10
1016.9064230181423
 20
1442.8245075720201
 11
1052.0194810064286
 21
1477.9375655603067
  0
LINE
  8
_2-4_
  6
CONTINUOUS
 62
    7
 10
1002.7642873944296
 20
1442.8245075720233
 11
1052.0194810064263
 21
1492.0797011840195
  0
LINE
  8
_2-4_
  6
CONTINUOUS
 62
    7
 10
988.6221517706922
 20
1442.8245075720188
 11
1052.0194810064263
 21
1506.2218368077529
  0
LINE
  8
_2-4_
  6
CONTINUOUS
 62
    7
 10
974.48001614696022
 20
1442.8245075720201
 11
1052.0194810064293
 21
1520.3639724314889
  0
LINE
  8
_2-4_
  6
CONTINUOUS
 62
    7
 10
960.33788052322768
 20
1442.824507572021
 11
1040.3378805232276
 21
1522.824507572021
  0
LINE
  8
_2-4_
  6
CONTINUOUS
 62
    7
 10
946.19574489949571
 20
1442.8245075720222
 11
1026.1957448994956
 21
1522.824507572022
  0
LINE
  8
_2-4_
  6
CONTINUOUS
 62
    7
 10
932.05360927576339
 20
1442.8245075720233
 11
1012.0536092757634
 21
1522.8245075720231
  0
LINE
  8
_2-4_
  6
CONTINUOUS
 62
    7
 10
926.64634667807138
 20
1451.5593805980643
 11
997.91147365202892
 21
1522.824507572022
  0
LINE
  8
_2-4_
  6
CONTINUOUS
 62
    7
 10
917.4191445512356
 20
1456.4743140949618
 11
983.76933802829376
 21
1522.8245075720199
  0
LINE
  8
_2-4_
  6
CONTINUOUS
 62
    7
 10
903.27700892752307
 20
1456.4743140949645
 11
969.62720240458111
 21
1522.8245075720224
  0
LINE
  8
_2-4_
  6
CONTINUOUS
 62
    7
 10
889.13487330379076
 20
1456.4743140949654
 11
955.48506678084868
 21
1522.8245075720238
  0
LINE
  8
_2-4_
  6
CONTINUOUS
 62
    7
 10
874.9927376800531
 20
1456.4743140949615
 11
941.34293115711114
 21
1522.8245075720192
  0
LINE
  8
_2-4_
  6
CONTINUOUS
 62
    7
 10
860.85060205632089
 20
1456.4743140949622
 11
913.55098901043721
 21
1509.174701049079
  0
LINE
  8
_2-4_
  6
CONTINUOUS
 62
    7
 10
926.64634667807036
 20
1522.2700587167119
 11
927.20079553337882
 21
1522.8245075720206
  0
LINE
  8
_2-4_
  6
CONTINUOUS
 62
    7
 10
846.70846643258869
 20
1456.4743140949636
 11
899.40885338670523
 21
1509.1747010490799
  0
LINE
  8
_2-4_
  6
CONTINUOUS
 62
    7
 10
832.5663308088524
 20
1456.4743140949606
 11
885.26671776297121
 21
1509.1747010490797
  0
LINE
  8
_2-4_
  6
CONTINUOUS
 62
    7
 10
818.42419518511906
 20
1456.4743140949606
 11
871.1245821392356
 21
1509.1747010490772
  0
LINE
  8
_2-4_
  6
CONTINUOUS
 62
    7
 10
804.28205956138686
 20
1456.4743140949618
 11
856.9824465155034
 21
1509.1747010490781
  0
LINE
  8
_2-4_
  6
CONTINUOUS
 62
    7
 10
801.27321234971078
 20
1467.6076025070006
 11
842.84031089178552
 21
1509.1747010490753
  0
LINE
  8
_2-4_
  6
CONTINUOUS
 62
    7
 10
801.27321234971168
 20
1481.7497381307348
 11
828.69817526805309
 21
1509.1747010490765
  0
LINE
  8
_2-4_
  6
CONTINUOUS
 62
    7
 10
801.27321234971362
 20
1495.8918737544702
 11
814.55603964432112
 21
1509.1747010490776
  0
LINE
  8
_2-4_
  6
CONTINUOUS
 62
    7
 10
1045.1906942656121
 20
1442.8245075720233
 11
1052.0194810064256
 21
1449.653294312837
  0
LINE
  8
_2-4_
  6
CONTINUOUS
 62
    7
 10
1031.0485586418802
 20
1442.8245075720245
 11
1052.0194810064245
 21
1463.7954299365692
  0
LINE
  8
_2-4_
  6
CONTINUOUS
 62
    7
 10
1016.9064230181423
 20
1442.8245075720201
 11
1052.0194810064286
 21
1477.9375655603067
  0
LINE
  8
_2-4_
  6
CONTINUOUS
 62
    7
 10
1002.7642873944296
 20
1442.8245075720233
 11
1052.0194810064263
 21
1492.0797011840195
  0
LINE
  8
_2-4_
  6
CONTINUOUS
 62
    7
 10
988.6221517706922
 20
1442.8245075720188
 11
1052.0194810064263
 21
1506.2218368077529
  0
LINE
  8
_2-4_
  6
CONTINUOUS
 62
    7
 10
974.48001614696022
 20
1442.8245075720201
 11
1052.0194810064293
 21
1520.3639724314889
  0
LINE
  8
_2-4_
  6
CONTINUOUS
 62
    7
 10
960.33788052322768
 20
1442.824507572021
 11
1040.3378805232276
 21
1522.824507572021
  0
LINE
  8
_2-4_
  6
CONTINUOUS
 62
    7
 10
946.19574489949571
 20
1442.8245075720222
 11
1026.1957448994956
 21
1522.824507572022
  0
LINE
  8
_2-4_
  6
CONTINUOUS
 62
    7
 10
932.05360927576339
 20
1442.8245075720233
 11
1012.0536092757634
 21
1522.8245075720231
  0
LINE
  8
_2-4_
  6
CONTINUOUS
 62
    7
 10
926.64634667807138
 20
1451.5593805980643
 11
997.91147365202892
 21
1522.824507572022
  0
LINE
  8
_2-4_
  6
CONTINUOUS
 62
    7
 10
917.4191445512356
 20
1456.4743140949618
 11
983.76933802829376
 21
1522.8245075720199
  0
LINE
  8
_2-4_
  6
CONTINUOUS
 62
    7
 10
903.27700892752307
 20
1456.4743140949645
 11
969.62720240458111
 21
1522.8245075720224
  0
LINE
  8
_2-4_
  6
CONTINUOUS
 62
    7
 10
889.13487330379076
 20
1456.4743140949654
 11
955.48506678084868
 21
1522.8245075720238
  0
LINE
  8
_2-4_
  6
CONTINUOUS
 62
    7
 10
874.9927376800531
 20
1456.4743140949615
 11
941.34293115711114
 21
1522.8245075720192
  0
LINE
  8
_2-4_
  6
CONTINUOUS
 62
    7
 10
860.85060205632089
 20
1456.4743140949622
 11
913.55098901043721
 21
1509.174701049079
  0
LINE
  8
_2-4_
  6
CONTINUOUS
 62
    7
 10
926.64634667807036
 20
1522.2700587167119
 11
927.20079553337882
 21
1522.8245075720206
  0
LINE
  8
_2-4_
  6
CONTINUOUS
 62
    7
 10
846.70846643258869
 20
1456.4743140949636
 11
899.40885338670523
 21
1509.1747010490799
  0
LINE
  8
_2-4_
  6
CONTINUOUS
 62
    7
 10
832.5663308088524
 20
1456.4743140949606
 11
885.26671776297121
 21
1509.1747010490797
  0
LINE
  8
_2-4_
  6
CONTINUOUS
 62
    7
 10
818.42419518511906
 20
1456.4743140949606
 11
871.1245821392356
 21
1509.1747010490772
  0
LINE
  8
_2-4_
  6
CONTINUOUS
 62
    7
 10
804.28205956138686
 20
1456.4743140949618
 11
856.9824465155034
 21
1509.1747010490781
  0
LINE
  8
_2-4_
  6
CONTINUOUS
 62
    7
 10
801.27321234971078
 20
1467.6076025070006
 11
842.84031089178552
 21
1509.1747010490753
  0
LINE
  8
_2-4_
  6
CONTINUOUS
 62
    7
 10
801.27321234971168
 20
1481.7497381307348
 11
828.69817526805309
 21
1509.1747010490765
  0
LINE
  8
_2-4_
  6
CONTINUOUS
 62
    7
 10
801.27321234971362
 20
1495.8918737544702
 11
814.55603964432112
 21
1509.1747010490776
  0
LINE
  8
_2-4_
  6
CONTINUOUS
 62
    7
 10
926.64634667806899
 20
1522.824507572022
 11
1052.019481006427
 21
1522.824507572022
  0
LINE
  8
_2-4_
  6
CONTINUOUS
 62
    7
 10
926.64634667806899
 20
1442.824507572022
 11
1052.019481006427
 21
1442.824507572022
  0
LINE
  8
_2-4_
  6
CONTINUOUS
 62
    7
 10
926.64634667806899
 20
1595.4451132010954
 11
1052.019481006427
 21
1595.4451132010954
  0
LINE
  8
_2-4_
  6
CONTINUOUS
 62
    7
 10
673.638530308226
 20
1557.0458412967528
 11
673.638530308226
 21
1545.0275016225746
  0
LINE
  8
_2-4_
  6
CONTINUOUS
 62
    7
 10
673.638530308226
 20
1389.9016384013673
 11
673.638530308226
 21
1378.154809123997
  0
LINE
  8
_2-4_
  6
CONTINUOUS
 62
    7
 10
801.27321234971066
 20
1488.7180830748612
 11
673.638530308226
 21
1545.0275016225746
  0
LINE
  8
_2-4_
  6
CONTINUOUS
 62
    7
 10
801.27321234971066
 20
1476.5789224743157
 11
673.638530308226
 21
1389.9016384013673
  0
LINE
  8
_2-4_
  6
CONTINUOUS
 62
    7
 10
801.27321234971066
 20
1465.7289705247235
 11
673.638530308226
 21
1378.154809123997
  0
LINE
  8
_2-4_
  6
CONTINUOUS
 62
    7
 10
792.45088024808638
 20
1492.6102884138127
 11
798.24710422772966
 21
1498.4065123934556
  0
LINE
  8
_2-4_
  6
CONTINUOUS
 62
    7
 10
782.63796981529197
 20
1496.939513604751
 11
788.63045200359124
 21
1502.9319957930506
  0
LINE
  8
_2-4_
  6
CONTINUOUS
 62
    7
 10
772.82505938249778
 20
1501.2687387956903
 11
779.01379977945317
 21
1507.4574791926457
  0
LINE
  8
_2-4_
  6
CONTINUOUS
 62
    7
 10
763.01214894970235
 20
1505.5979639866282
 11
769.39714755531486
 21
1511.9829625922407
  0
LINE
  8
_2-4_
  6
CONTINUOUS
 62
    7
 10
753.19923851690817
 20
1509.9271891775675
 11
759.7804953311753
 21
1516.5084459918346
  0
LINE
  8
_2-4_
  6
CONTINUOUS
 62
    7
 10
743.38632808412626
 20
1514.2564143685004
 11
750.16384310704893
 21
1521.0339293914233
  0
LINE
  8
_2-4_
  6
CONTINUOUS
 62
    7
 10
733.57341765133231
 20
1518.5856395594401
 11
740.54719088291097
 21
1525.5594127910188
  0
LINE
  8
_2-4_
  6
CONTINUOUS
 62
    7
 10
723.76050721853846
 20
1522.9148647503794
 11
730.930538658773
 21
1530.084896190614
  0
LINE
  8
_2-4_
  6
CONTINUOUS
 62
    7
 10
713.94759678574462
 20
1527.2440899413191
 11
721.31388643463481
 21
1534.6103795902095
  0
LINE
  8
_2-4_
  6
CONTINUOUS
 62
    7
 10
704.13468635294771
 20
1531.5733151322552
 11
711.69723421049434
 21
1539.1358629898018
  0
LINE
  8
_2-4_
  6
CONTINUOUS
 62
    7
 10
694.32177592015353
 20
1535.9025403231949
 11
702.08058198635604
 21
1543.6613463893968
  0
LINE
  8
_2-4_
  6
CONTINUOUS
 62
    7
 10
684.50886548735912
 20
1540.2317655141335
 11
692.4639297622175
 21
1548.1868297889919
  0
LINE
  8
_2-4_
  6
CONTINUOUS
 62
    7
 10
674.69595505456505
 20
1544.560990705073
 11
682.84727753807931
 21
1552.7123131885871
  0
LINE
  8
_2-4_
  6
CONTINUOUS
 62
    7
 10
673.63853030822179
 20
1379.751722148018
 11
674.58561725320669
 21
1378.8046352030331
  0
LINE
  8
_2-4_
  6
CONTINUOUS
 62
    7
 10
676.01611873325271
 20
1391.5162693467203
 11
682.97294444130773
 21
1384.5594436386652
  0
LINE
  8
_2-4_
  6
CONTINUOUS
 62
    7
 10
684.43854617138686
 20
1397.2359775323193
 11
691.36027162940923
 21
1390.314252074297
  0
LINE
  8
_2-4_
  6
CONTINUOUS
 62
    7
 10
692.86097360951112
 20
1402.95568571791
 11
699.74759881750049
 21
1396.069060509921
  0
LINE
  8
_2-4_
  6
CONTINUOUS
 62
    7
 10
701.2834010476455
 20
1408.6753939035093
 11
708.13492600560176
 21
1401.8238689455529
  0
LINE
  8
_2-4_
  6
CONTINUOUS
 62
    7
 10
709.70582848577976
 20
1414.3951020891081
 11
716.52225319370348
 21
1407.5786773811847
  0
LINE
  8
_2-4_
  6
CONTINUOUS
 62
    7
 10
718.12825592391414
 20
1420.1148102747075
 11
724.90958038180497
 21
1413.3334858168164
  0
LINE
  8
_2-4_
  6
CONTINUOUS
 62
    7
 10
726.5506833620484
 20
1425.8345184603063
 11
733.29690756990635
 21
1419.0882942524483
  0
LINE
  8
_2-4_
  6
CONTINUOUS
 62
    7
 10
734.97311080018324
 20
1431.5542266459051
 11
741.68423475800796
 21
1424.8431026880801
  0
LINE
  8
_2-4_
  6
CONTINUOUS
 62
    7
 10
743.3955382383175
 20
1437.273934831504
 11
750.07156194610957
 21
1430.597911123712
  0
LINE
  8
_2-4_
  6
CONTINUOUS
 62
    7
 10
751.81796567645222
 20
1442.9936430171026
 11
758.45888913421072
 21
1436.3527195593442
  0
LINE
  8
_2-4_
  6
CONTINUOUS
 62
    7
 10
760.24039311457636
 20
1448.7133512026935
 11
766.8462163223021
 21
1442.107527994968
  0
LINE
  8
_2-4_
  6
CONTINUOUS
 62
    7
 10
768.66282055271074
 20
1454.4330593882928
 11
775.23354351040348
 21
1447.8623364306
  0
LINE
  8
_2-4_
  6
CONTINUOUS
 62
    7
 10
777.08524799084501
 20
1460.1527675738917
 11
783.62087069850554
 21
1453.6171448662312
  0
LINE
  8
_2-4_
  6
CONTINUOUS
 62
    7
 10
785.50767542897916
 20
1465.8724757594905
 11
792.00819788660681
 21
1459.371953301863
  0
LINE
  8
_2-4_
  6
CONTINUOUS
 62
    7
 10
793.93010286711376
 20
1471.5921839450898
 11
800.3955250747083
 21
1465.1267617374951
  0
LINE
  8
_2-4_
  6
CONTINUOUS
 62
    7
 10
273.26407180055571
 20
1539.9440710388678
 11
673.638530308226
 21
1547.187907290393
  0
LINE
  8
_2-4_
  6
CONTINUOUS
 62
    7
 10
273.26407180055571
 20
1571.9838720338926
 11
673.638530308226
 21
1548.9256005177399
  0
LINE
  8
_2-4_
  6
CONTINUOUS
 62
    7
 10
273.26407180055571
 20
1604.0236730289175
 11
673.638530308226
 21
1551.6280498208198
  0
LINE
  8
_2-4_
  6
CONTINUOUS
 62
    7
 10
273.26407180055571
 20
1636.0634740239425
 11
673.638530308226
 21
1554.443339093255
  0
LINE
  8
_2-4_
  6
CONTINUOUS
 62
    7
 10
1733.5688449146601
 20
1522.824507572022
 11
1733.5688449146601
 21
1442.824507572022
  0
LINE
  8
_2-4_
  6
CONTINUOUS
 62
    7
 10
1984.315113571377
 20
1509.174701049081
 11
1984.315113571377
 21
1456.4743140949629
  0
LINE
  8
_2-4_
  6
CONTINUOUS
 62
    7
 10
1858.9419792430183
 20
1509.174701049081
 11
1984.315113571377
 21
1509.174701049081
  0
LINE
  8
_2-4_
  6
CONTINUOUS
 62
    7
 10
1858.9419792430183
 20
1456.4743140949629
 11
1984.315113571377
 21
1456.4743140949629
  0
LINE
  8
_2-4_
  6
CONTINUOUS
 62
    7
 10
1858.9419792430183
 20
1522.824507572022
 11
1858.9419792430183
 21
1509.174701049081
  0
LINE
  8
_2-4_
  6
CONTINUOUS
 62
    7
 10
1858.9419792430183
 20
1456.4743140949629
 11
1858.9419792430183
 21
1442.824507572022
  0
LINE
  8
_2-4_
  6
CONTINUOUS
 62
    7
 10
1740.3976316554749
 20
1442.8245075720233
 11
1733.5688449146619
 21
1449.653294312837
  0
LINE
  8
_2-4_
  6
CONTINUOUS
 62
    7
 10
1754.5397672792074
 20
1442.8245075720245
 11
1733.5688449146628
 21
1463.7954299365692
  0
LINE
  8
_2-4_
  6
CONTINUOUS
 62
    7
 10
1768.6819029029448
 20
1442.8245075720201
 11
1733.5688449146587
 21
1477.9375655603067
  0
LINE
  8
_2-4_
  6
CONTINUOUS
 62
    7
 10
1782.8240385266574
 20
1442.8245075720233
 11
1733.568844914661
 21
1492.0797011840195
  0
LINE
  8
_2-4_
  6
CONTINUOUS
 62
    7
 10
1796.9661741503951
 20
1442.8245075720188
 11
1733.568844914661
 21
1506.2218368077529
  0
LINE
  8
_2-4_
  6
CONTINUOUS
 62
    7
 10
1811.1083097741271
 20
1442.8245075720201
 11
1733.5688449146578
 21
1520.3639724314889
  0
LINE
  8
_2-4_
  6
CONTINUOUS
 62
    7
 10
1825.2504453978595
 20
1442.824507572021
 11
1745.2504453978599
 21
1522.824507572021
  0
LINE
  8
_2-4_
  6
CONTINUOUS
 62
    7
 10
1839.3925810215915
 20
1442.8245075720222
 11
1759.3925810215915
 21
1522.824507572022
  0
LINE
  8
_2-4_
  6
CONTINUOUS
 62
    7
 10
1853.5347166453239
 20
1442.8245075720233
 11
1773.5347166453241
 21
1522.8245075720231
  0
LINE
  8
_2-4_
  6
CONTINUOUS
 62
    7
 10
1858.9419792430162
 20
1451.5593805980643
 11
1787.6768522690586
 21
1522.824507572022
  0
LINE
  8
_2-4_
  6
CONTINUOUS
 62
    7
 10
1868.1691813698521
 20
1456.4743140949618
 11
1801.8189878927938
 21
1522.8245075720199
  0
LINE
  8
_2-4_
  6
CONTINUOUS
 62
    7
 10
1882.3113169935641
 20
1456.4743140949645
 11
1815.9611235165062
 21
1522.8245075720224
  0
LINE
  8
_2-4_
  6
CONTINUOUS
 62
    7
 10
1896.4534526172965
 20
1456.4743140949654
 11
1830.1032591402386
 21
1522.8245075720238
  0
LINE
  8
_2-4_
  6
CONTINUOUS
 62
    7
 10
1910.5955882410344
 20
1456.4743140949615
 11
1844.245394763976
 21
1522.8245075720192
  0
LINE
  8
_2-4_
  6
CONTINUOUS
 62
    7
 10
1924.7377238647664
 20
1456.4743140949622
 11
1872.0373369106501
 21
1509.174701049079
  0
LINE
  8
_2-4_
  6
CONTINUOUS
 62
    7
 10
1858.9419792430172
 20
1522.2700587167119
 11
1858.3875303877085
 21
1522.8245075720206
  0
LINE
  8
_2-4_
  6
CONTINUOUS
 62
    7
 10
1938.8798594884984
 20
1456.4743140949636
 11
1886.1794725343821
 21
1509.1747010490799
  0
LINE
  8
_2-4_
  6
CONTINUOUS
 62
    7
 10
1953.0219951122356
 20
1456.4743140949606
 11
1900.3216081581159
 21
1509.1747010490797
  0
LINE
  8
_2-4_
  6
CONTINUOUS
 62
    7
 10
1967.1641307359687
 20
1456.4743140949606
 11
1914.4637437818521
 21
1509.1747010490772
  0
LINE
  8
_2-4_
  6
CONTINUOUS
 62
    7
 10
1981.3062663597007
 20
1456.4743140949618
 11
1928.6058794055843
 21
1509.1747010490781
  0
LINE
  8
_2-4_
  6
CONTINUOUS
 62
    7
 10
1984.3151135713763
 20
1467.6076025070006
 11
1942.7480150293022
 21
1509.1747010490753
  0
LINE
  8
_2-4_
  6
CONTINUOUS
 62
    7
 10
1984.3151135713756
 20
1481.7497381307348
 11
1956.8901506530349
 21
1509.1747010490765
  0
LINE
  8
_2-4_
  6
CONTINUOUS
 62
    7
 10
1984.3151135713738
 20
1495.8918737544702
 11
1971.0322862767669
 21
1509.1747010490776
  0
LINE
  8
_2-4_
  6
CONTINUOUS
 62
    7
 10
1740.3976316554749
 20
1442.8245075720233
 11
1733.5688449146619
 21
1449.653294312837
  0
LINE
  8
_2-4_
  6
CONTINUOUS
 62
    7
 10
1754.5397672792074
 20
1442.8245075720245
 11
1733.5688449146628
 21
1463.7954299365692
  0
LINE
  8
_2-4_
  6
CONTINUOUS
 62
    7
 10
1768.6819029029448
 20
1442.8245075720201
 11
1733.5688449146587
 21
1477.9375655603067
  0
LINE
  8
_2-4_
  6
CONTINUOUS
 62
    7
 10
1782.8240385266574
 20
1442.8245075720233
 11
1733.568844914661
 21
1492.0797011840195
  0
LINE
  8
_2-4_
  6
CONTINUOUS
 62
    7
 10
1796.9661741503951
 20
1442.8245075720188
 11
1733.568844914661
 21
1506.2218368077529
  0
LINE
  8
_2-4_
  6
CONTINUOUS
 62
    7
 10
1811.1083097741271
 20
1442.8245075720201
 11
1733.5688449146578
 21
1520.3639724314889
  0
LINE
  8
_2-4_
  6
CONTINUOUS
 62
    7
 10
1825.2504453978595
 20
1442.824507572021
 11
1745.2504453978599
 21
1522.824507572021
  0
LINE
  8
_2-4_
  6
CONTINUOUS
 62
    7
 10
1839.3925810215915
 20
1442.8245075720222
 11
1759.3925810215915
 21
1522.824507572022
  0
LINE
  8
_2-4_
  6
CONTINUOUS
 62
    7
 10
1853.5347166453239
 20
1442.8245075720233
 11
1773.5347166453241
 21
1522.8245075720231
  0
LINE
  8
_2-4_
  6
CONTINUOUS
 62
    7
 10
1858.9419792430162
 20
1451.5593805980643
 11
1787.6768522690586
 21
1522.824507572022
  0
LINE
  8
_2-4_
  6
CONTINUOUS
 62
    7
 10
1868.1691813698521
 20
1456.4743140949618
 11
1801.8189878927938
 21
1522.8245075720199
  0
LINE
  8
_2-4_
  6
CONTINUOUS
 62
    7
 10
1882.3113169935641
 20
1456.4743140949645
 11
1815.9611235165062
 21
1522.8245075720224
  0
LINE
  8
_2-4_
  6
CONTINUOUS
 62
    7
 10
1896.4534526172965
 20
1456.4743140949654
 11
1830.1032591402386
 21
1522.8245075720238
  0
LINE
  8
_2-4_
  6
CONTINUOUS
 62
    7
 10
1910.5955882410344
 20
1456.4743140949615
 11
1844.245394763976
 21
1522.8245075720192
  0
LINE
  8
_2-4_
  6
CONTINUOUS
 62
    7
 10
1924.7377238647664
 20
1456.4743140949622
 11
1872.0373369106501
 21
1509.174701049079
  0
LINE
  8
_2-4_
  6
CONTINUOUS
 62
    7
 10
1858.9419792430172
 20
1522.2700587167119
 11
1858.3875303877085
 21
1522.8245075720206
  0
LINE
  8
_2-4_
  6
CONTINUOUS
 62
    7
 10
1938.8798594884984
 20
1456.4743140949636
 11
1886.1794725343821
 21
1509.1747010490799
  0
LINE
  8
_2-4_
  6
CONTINUOUS
 62
    7
 10
1953.0219951122356
 20
1456.4743140949606
 11
1900.3216081581159
 21
1509.1747010490797
  0
LINE
  8
_2-4_
  6
CONTINUOUS
 62
    7
 10
1967.1641307359687
 20
1456.4743140949606
 11
1914.4637437818521
 21
1509.1747010490772
  0
LINE
  8
_2-4_
  6
CONTINUOUS
 62
    7
 10
1981.3062663597007
 20
1456.4743140949618
 11
1928.6058794055843
 21
1509.1747010490781
  0
LINE
  8
_2-4_
  6
CONTINUOUS
 62
    7
 10
1984.3151135713763
 20
1467.6076025070006
 11
1942.7480150293022
 21
1509.1747010490753
  0
LINE
  8
_2-4_
  6
CONTINUOUS
 62
    7
 10
1984.3151135713756
 20
1481.7497381307348
 11
1956.8901506530349
 21
1509.1747010490765
  0
LINE
  8
_2-4_
  6
CONTINUOUS
 62
    7
 10
1984.3151135713738
 20
1495.8918737544702
 11
1971.0322862767669
 21
1509.1747010490776
  0
LINE
  8
_2-4_
  6
CONTINUOUS
 62
    7
 10
1733.5688449146601
 20
1442.824507572022
 11
1853.5347166453239
 21
1442.824507572022
  0
LINE
  8
_2-4_
  6
CONTINUOUS
 62
    7
 10
1733.5688449146578
 20
1522.824507572022
 11
1858.3875303877085
 21
1522.824507572022
  0
LINE
  8
_2-4_
  6
CONTINUOUS
 62
    7
 10
1052.019481006427
 20
1522.824507572022
 11
1733.5688449146601
 21
1522.824507572022
  0
LINE
  8
_2-4_
  6
CONTINUOUS
 62
    7
 10
1984.315113571377
 20
1503.3259014897626
 11
2232.7125427516985
 21
1538.3141895321851
  0
LINE
  8
_2-4_
  6
CONTINUOUS
 62
    7
 10
2232.7125427516985
 20
1538.3141895321851
 11
2232.7125427516985
 21
1526.3225038054807
  0
LINE
  8
_2-4_
  6
CONTINUOUS
 62
    7
 10
1984.315113571377
 20
1491.3840018685964
 11
2232.7125427516985
 21
1526.3225038054807
  0
LINE
  8
_2-4_
  6
CONTINUOUS
 62
    7
 10
1984.315113571377
 20
1476.037642959785
 11
2232.7125427516985
 21
1476.037642959785
  0
LINE
  8
_2-4_
  6
CONTINUOUS
 62
    7
 10
2232.7125427516985
 20
1476.037642959785
 11
2232.7125427516985
 21
1463.7038387299058
  0
LINE
  8
_2-4_
  6
CONTINUOUS
 62
    7
 10
1984.315113571377
 20
1463.7038387299058
 11
2232.7125427516985
 21
1463.7038387299058
  0
LINE
  8
_2-4_
  6
CONTINUOUS
 62
    7
 10
2730.2511264370696
 20
1641.070385783602
 11
2730.2511264370696
 21
1496.8912813059901
  0
LINE
  8
_2-4_
  6
CONTINUOUS
 62
    7
 10
2645.6242607654281
 20
1490.0808888239558
 11
2633.086947332592
 21
1490.0808888239558
  0
LINE
  8
_2-4_
  6
CONTINUOUS
 62
    7
 10
2633.086947332592
 20
1490.0808888239558
 11
2633.086947332592
 21
1647.8807782656363
  0
LINE
  8
_2-4_
  6
CONTINUOUS
 62
    7
 10
2645.6242607654281
 20
1647.8807782656363
 11
2633.086947332592
 21
1647.8807782656363
  0
LINE
  8
_2-4_
  6
CONTINUOUS
 62
    7
 10
2645.6242607654281
 20
1647.8807782656363
 11
2645.6242607654281
 21
1490.0808888239558
  0
LINE
  8
_2-4_
  6
CONTINUOUS
 62
    7
 10
2232.7124888249218
 20
1538.0229023101438
 11
2232.7124888249218
 21
1526.0045626359654
  0
LINE
  8
_2-4_
  6
CONTINUOUS
 62
    7
 10
2633.086947332592
 20
1520.9211320522588
 11
2232.7124888249218
 21
1528.1649683037836
  0
LINE
  8
_2-4_
  6
CONTINUOUS
 62
    7
 10
2633.086947332592
 20
1552.9609330472836
 11
2232.7124888249218
 21
1529.9026615311309
  0
LINE
  8
_2-4_
  6
CONTINUOUS
 62
    7
 10
2633.086947332592
 20
1585.0007340423083
 11
2232.7124888249218
 21
1532.6051108342103
  0
LINE
  8
_2-4_
  6
CONTINUOUS
 62
    7
 10
2633.086947332592
 20
1617.0405350373333
 11
2232.7124888249218
 21
1535.4204001066455
  0
LINE
  8
_2-4_
  6
CONTINUOUS
 62
    7
 10
2462.3504642552921
 20
1477.1189647459162
 11
2491.6041955985752
 21
1477.1189647459162
  0
LINE
  8
_2-4_
  6
CONTINUOUS
 62
    7
 10
2453.9922553000679
 20
1475.02941250711
 11
2453.9922553000679
 21
1445.7756811638267
  0
LINE
  8
_2-4_
  6
CONTINUOUS
 62
    7
 10
2453.9922553000679
 20
1477.1189647459162
 11
2453.9922553000679
 21
1299.5070244474086
  0
LINE
  8
_2-4_
  6
CONTINUOUS
 62
    7
 10
2453.9922553000679
 20
1477.1189647459162
 11
2556.3803150015606
 21
1477.1189647459162
  0
CIRCLE
  8
_2-4_
  6
CONTINUOUS
 62
    7
 10
2470.0121557975808
 20
1426.969711014573
 40
12.000000000000002
  0
CIRCLE
  8
_2-4_
  6
CONTINUOUS
 62
    7
 10
2470.0121557975808
 20
1349.6562781787518
 40
12.000000000000002
  0
LINE
  8
_2-4_
  6
CONTINUOUS
 62
    7
 10
2556.3803150015606
 20
1477.1189647459162
 11
2556.3803150015606
 21
1450.6513030543738
  0
LINE
  8
_2-4_
  6
CONTINUOUS
 62
    7
 10
2546.6290712204664
 20
1420.0045368852193
 11
2556.1739394718015
 21
1420.0045368852193
  0
LINE
  8
_2-4_
  6
CONTINUOUS
 62
    7
 10
2556.1739394718015
 20
1438.1139896215379
 11
2556.1739394718015
 21
1420.0045368852193
  0
LINE
  8
_2-4_
  6
CONTINUOUS
 62
    7
 10
2546.6290712204664
 20
1299.5070244474086
 11
2453.9922553000679
 21
1299.5070244474086
  0
LINE
  8
_2-4_
  6
CONTINUOUS
 62
    7
 10
2546.6290712204664
 20
1420.0045368852193
 11
2546.6290712204664
 21
1299.5070244474086
  0
LINE
  8
_2-4_
  6
CONTINUOUS
 62
    7
 10
2567.2448641237452
 20
1438.1139896215379
 11
2556.1739394718015
 21
1438.1139896215379
  0
LINE
  8
_2-4_
  6
CONTINUOUS
 62
    7
 10
2556.3803150015606
 20
1450.6513030543738
 11
2567.2448641237452
 21
1450.6513030543738
  0
LINE
  8
_2-4_
  6
CONTINUOUS
 62
    7
 10
2567.2448641237452
 20
1450.6513030543738
 11
2567.2448641237452
 21
1438.1139896215379
  0
LINE
  8
_2-4_
  6
CONTINUOUS
 62
    7
 10
2556.3803150015606
 20
1465.384222817697
 11
2561.0740076783741
 21
1465.384222817697
  0
LINE
  8
_2-4_
  6
CONTINUOUS
 62
    7
 10
2561.0740076783741
 20
1465.384222817697
 11
2608.2954567467368
 21
1352.6430131669808
  0
LINE
  8
_2-4_
  6
CONTINUOUS
 62
    7
 10
2643.853219678711
 20
1381.7841649390593
 11
2643.9294008480483
 21
1381.8135985726672
  0
ARC
  8
_2-4_
  6
CONTINUOUS
 62
    7
 10
2644.3765478291916
 20
1373.455389617443
 40
12.000000000000002
 50
237.34813714402995
 51
159.58497371313902
  0
LINE
  8
_2-4_
  6
CONTINUOUS
 62
    7
 10
2642.0627193582523
 20
1381.0923807243366
 11
2603.0670459558423
 21
1366.0258705461329
  0
ARC
  8
_2-4_
  6
CONTINUOUS
 62
    7
 10
2644.2251150334646
 20
1375.4955919179033
 40
6.0000000000000009
 50
21.037511025422219
 51
111.12471914607239
  0
LINE
  8
_2-4_
  6
CONTINUOUS
 62
    7
 10
2650.9989461019231
 20
1374.5976970725333
 11
2649.8251886706835
 21
1377.6494663937565
  0
LINE
  8
_2-4_
  6
CONTINUOUS
 62
    7
 10
2647.4396889546315
 20
1366.801565242177
 11
2608.2954567467368
 21
1352.6430131669808
  0
ARC
  8
_2-4_
  6
CONTINUOUS
 62
    7
 10
2645.3988724647047
 20
1372.4438225966801
 40
6.0000000000000009
 50
289.88516511385546
 51
21.037511025422614
  0
CIRCLE
  8
_2-4_
  6
CONTINUOUS
 62
    7
 10
2643.8950049264213
 20
1373.4209936958168
 40
6.0000000000000009
  0
LINE
  8
_2-4_
  6
CONTINUOUS
 62
    7
 10
2453.9922553000679
 20
1320.5859917508096
 11
2428.266972250296
 21
1320.5859917508096
  0
TEXT
  8
_2-4_
 62
    7
 10
2479.8092608075099
 20
1446.7530986033776
 40
30
 41
1
 50
0
  1
COM
  0
TEXT
  8
_2-4_
 62
    7
 10
2485.3814001109922
 20
1374.9344142473797
 40
30
 41
1
 50
0
  1
CN
  0
TEXT
  8
_2-4_
 62
    7
 10
2486.000526700268
 20
1301.2583501235545
 40
30
 41
1
 50
0
  1
NC
  0
LINE
  8
_2-4_
  6
CONTINUOUS
 62
    7
 10
2430.2791336654423
 20
1391.4960505105087
 11
2443.0744165104766
 21
1391.0832994509913
  0
LINE
  8
_2-4_
  6
CONTINUOUS
 62
    7
 10
2232.7125427516985
 20
1467.7717596607515
 11
2430.2791336654423
 21
1391.4960505105087
  0
LINE
  8
_2-4_
  6
CONTINUOUS
 62
    7
 10
2416.7615364662533
 20
1468.6804986402306
 11
2416.7615364662533
 21
1450.1067009619551
  0
LINE
  8
_2-4_
  6
CONTINUOUS
 62
    7
 10
2416.7615364662533
 20
1450.1067009619551
 11
2450.1943722871488
 21
1450.1067009619551
  0
LINE
  8
_2-4_
  6
CONTINUOUS
 62
    7
 10
2416.7615364662533
 20
1468.6804986402306
 11
2450.1943722871488
 21
1468.6804986402306
  0
LINE
  8
_2-4_
  6
CONTINUOUS
 62
    7
 10
2450.1943722871488
 20
1450.1067009619551
 11
2450.1943722871488
 21
1468.6804986402306
  0
LINE
  8
_2-4_
  6
CONTINUOUS
 62
    7
 10
2416.8096907565305
 20
1398.0725507254829
 11
2416.8096907565305
 21
1379.4987530472076
  0
LINE
  8
_2-4_
  6
CONTINUOUS
 62
    7
 10
2416.8096907565305
 20
1379.4987530472076
 11
2450.2425265774259
 21
1379.4987530472076
  0
LINE
  8
_2-4_
  6
CONTINUOUS
 62
    7
 10
2416.8096907565305
 20
1398.0725507254829
 11
2450.2425265774259
 21
1398.0725507254829
  0
LINE
  8
_2-4_
  6
CONTINUOUS
 62
    7
 10
2450.2425265774259
 20
1379.4987530472076
 11
2450.2425265774259
 21
1398.0725507254829
  0
LINE
  8
_2-4_
  6
CONTINUOUS
 62
    7
 10
1984.3151135713783
 20
1497.4308368816921
 11
1989.6163059263606
 21
1492.1296445267094
  0
LINE
  8
_2-4_
  6
CONTINUOUS
 62
    7
 10
1991.5439579133906
 20
1504.3441281633955
 11
2002.0145574230855
 21
1493.8735286537003
  0
LINE
  8
_2-4_
  6
CONTINUOUS
 62
    7
 10
2003.9400312458138
 20
1506.0901904547054
 11
2014.4128089198275
 21
1495.6174127806919
  0
LINE
  8
_2-4_
  6
CONTINUOUS
 62
    7
 10
2016.3361045782408
 20
1507.8362527460117
 11
2026.8110604165727
 21
1497.3612969076794
  0
LINE
  8
_2-4_
  6
CONTINUOUS
 62
    7
 10
2028.7321779106642
 20
1509.5823150373217
 11
2039.2093119133149
 21
1499.1051810346717
  0
LINE
  8
_2-4_
  6
CONTINUOUS
 62
    7
 10
2041.1282512430876
 20
1511.3283773286314
 11
2051.6075634100562
 21
1500.8490651616635
  0
LINE
  8
_2-4_
  6
CONTINUOUS
 62
    7
 10
2053.524324575515
 20
1513.0744396199375
 11
2064.0058149067972
 21
1502.5929492886548
  0
LINE
  8
_2-4_
  6
CONTINUOUS
 62
    7
 10
2065.9203979079384
 20
1514.8205019112474
 11
2076.4040664035419
 21
1504.3368334156442
  0
LINE
  8
_2-4_
  6
CONTINUOUS
 62
    7
 10
2078.3164712403618
 20
1516.5665642025574
 11
2088.802317900283
 21
1506.0807175426362
  0
LINE
  8
_2-4_
  6
CONTINUOUS
 62
    7
 10
2090.7125445727697
 20
1518.3126264938642
 11
2101.2005693970095
 21
1507.8246016696251
  0
LINE
  8
_2-4_
  6
CONTINUOUS
 62
    7
 10
2103.1086179051954
 20
1520.0586887851721
 11
2113.5988208937542
 21
1509.568485796613
  0
LINE
  8
_2-4_
  6
CONTINUOUS
 62
    7
 10
2115.504691237621
 20
1521.8047510764795
 11
2125.9970723904985
 21
1511.3123699236025
  0
LINE
  8
_2-4_
  6
CONTINUOUS
 62
    7
 10
2127.9007645700444
 20
1523.5508133677897
 11
2138.39532388724
 21
1513.0562540505941
  0
LINE
  8
_2-4_
  6
CONTINUOUS
 62
    7
 10
2140.2968379024678
 20
1525.2968756590994
 11
2150.793575383982
 21
1514.8001381775857
  0
LINE
  8
_2-4_
  6
CONTINUOUS
 62
    7
 10
2152.6929112348957
 20
1527.0429379504053
 11
2163.191826880724
 21
1516.5440223045773
  0
LINE
  8
_2-4_
  6
CONTINUOUS
 62
    7
 10
2165.0889845673196
 20
1528.789000241715
 11
2175.5900783774659
 21
1518.2879064315678
  0
LINE
  8
_2-4_
  6
CONTINUOUS
 62
    7
 10
2177.485057899723
 20
1530.5350625330266
 11
2187.988329874187
 21
1520.0317905585616
  0
LINE
  8
_2-4_
  6
CONTINUOUS
 62
    7
 10
2189.8811312321495
 20
1532.2811248243333
 11
2200.3865813709326
 21
1521.7756746855503
  0
LINE
  8
_2-4_
  6
CONTINUOUS
 62
    7
 10
2202.2772045645734
 20
1534.0271871156424
 11
2212.7848328676778
 21
1523.519558812538
  0
LINE
  8
_2-4_
  6
CONTINUOUS
 62
    7
 10
2214.6732778969972
 20
1535.7732494069523
 11
2225.1830843644193
 21
1525.2634429395298
  0
LINE
  8
_2-4_
  6
CONTINUOUS
 62
    7
 10
2227.0693512294206
 20
1537.5193116982623
 11
2232.7125427517021
 21
1531.8761201759812
  0
LINE
  8
_2-4_
  6
CONTINUOUS
 62
    7
 10
1984.315113571377
 20
1469.146565634227
 11
1989.7578404756998
 21
1463.7038387299044
  0
LINE
  8
_2-4_
  6
CONTINUOUS
 62
    7
 10
1991.5661718695492
 20
1476.0376429597877
 11
2003.8999760994318
 21
1463.7038387299056
  0
LINE
  8
_2-4_
  6
CONTINUOUS
 62
    7
 10
2005.7083074932818
 20
1476.0376429597886
 11
2018.0421117231638
 21
1463.7038387299065
  0
LINE
  8
_2-4_
  6
CONTINUOUS
 62
    7
 10
2019.8504431169936
 20
1476.0376429597923
 11
2032.184247346876
 21
1463.7038387299099
  0
LINE
  8
_2-4_
  6
CONTINUOUS
 62
    7
 10
2033.9925787407319
 20
1476.037642959787
 11
2046.3263829706093
 21
1463.7038387299099
  0
LINE
  8
_2-4_
  6
CONTINUOUS
 62
    7
 10
2048.134714364468
 20
1476.0376429597839
 11
2060.4685185943508
 21
1463.7038387299019
  0
LINE
  8
_2-4_
  6
CONTINUOUS
 62
    7
 10
2062.2768499882004
 20
1476.0376429597854
 11
2074.6106542180828
 21
1463.7038387299031
  0
LINE
  8
_2-4_
  6
CONTINUOUS
 62
    7
 10
2076.4189856119319
 20
1476.0376429597864
 11
2088.7527898418148
 21
1463.7038387299044
  0
LINE
  8
_2-4_
  6
CONTINUOUS
 62
    7
 10
2090.5611212356648
 20
1476.0376429597877
 11
2102.8949254655472
 21
1463.7038387299056
  0
LINE
  8
_2-4_
  6
CONTINUOUS
 62
    7
 10
2104.7032568593968
 20
1476.0376429597891
 11
2117.0370610892792
 21
1463.7038387299067
  0
LINE
  8
_2-4_
  6
CONTINUOUS
 62
    7
 10
2118.8453924831288
 20
1476.0376429597902
 11
2131.1791967130112
 21
1463.7038387299078
  0
LINE
  8
_2-4_
  6
CONTINUOUS
 62
    7
 10
2132.9875281068444
 20
1476.03764295979
 11
2145.3213323367272
 21
1463.7038387299071
  0
LINE
  8
_2-4_
  6
CONTINUOUS
 62
    7
 10
2147.1296637305841
 20
1476.0376429597836
 11
2159.4634679604615
 21
1463.7038387299067
  0
LINE
  8
_2-4_
  6
CONTINUOUS
 62
    7
 10
2161.2717993543197
 20
1476.0376429597811
 11
2173.6056035842021
 21
1463.7038387298987
  0
LINE
  8
_2-4_
  6
CONTINUOUS
 62
    7
 10
2175.4139349780521
 20
1476.0376429597823
 11
2187.7477392079345
 21
1463.7038387298994
  0
LINE
  8
_2-4_
  6
CONTINUOUS
 62
    7
 10
2189.556070601785
 20
1476.0376429597832
 11
2201.8898748316669
 21
1463.7038387299003
  0
LINE
  8
_2-4_
  6
CONTINUOUS
 62
    7
 10
2203.6982062255165
 20
1476.0376429597839
 11
2216.0320104553994
 21
1463.7038387299017
  0
LINE
  8
_2-4_
  6
CONTINUOUS
 62
    7
 10
2217.8403418492494
 20
1476.0376429597845
 11
2230.1741460791318
 21
1463.7038387299024
  0
LINE
  8
_2-4_
  6
CONTINUOUS
 62
    7
 10
2231.9824774729568
 20
1476.0376429597927
 11
2232.7125427517058
 21
1475.3075776810438
  0
LINE
  8
_2-4_
  6
CONTINUOUS
 62
    7
 10
2443.1053091437889
 20
1391.0251767130576
 11
2443.1053091437889
 21
1388.4569478982839
  0
LINE
  8
_2-4_
  6
CONTINUOUS
 62
    7
 10
2428.4297159165098
 20
1459.3584076775769
 11
2428.4297159165098
 21
1456.0399974425154
  0
LINE
  8
_2-4_
  6
CONTINUOUS
 62
    7
 10
2453.9922553000679
 20
1456.0399974425154
 11
2428.4297159165098
 21
1456.0399974425154
  0
LINE
  8
_2-4_
  6
CONTINUOUS
 62
    7
 10
2430.2791336654423
 20
1391.4960505105087
 11
2430.2791336654423
 21
1388.3129945966625
  0
LINE
  8
_2-4_
  6
CONTINUOUS
 62
    7
 10
2430.2791336654423
 20
1388.3129945966625
 11
2453.9922553000679
 21
1388.3129945966625
  0
LINE
  8
_2-4_
  6
CONTINUOUS
 62
    7
 10
2446.3764249866144
 20
1459.1872242713339
 11
2446.3764249866144
 21
1456.0399974425154
  0
LINE
  8
_2-4_
  6
CONTINUOUS
 62
    7
 10
2232.7125427516985
 20
1472.970596180865
 11
2430.6918847249599
 21
1459.1872242713339
  0
LINE
  8
_2-4_
  6
CONTINUOUS
 62
    7
 10
2430.6918847249599
 20
1459.1872242713339
 11
2446.3764249866144
 21
1459.1872242713339
  0
LINE
  8
_2-4_
  6
CONTINUOUS
 62
    7
 10
2416.7615364662506
 20
1460.9642114512808
 11
2427.6190469555777
 21
1450.1067009619542
  0
LINE
  8
_2-4_
  6
CONTINUOUS
 62
    7
 10
2423.1873849010367
 20
1468.6804986402281
 11
2441.7611825793092
 21
1450.1067009619555
  0
LINE
  8
_2-4_
  6
CONTINUOUS
 62
    7
 10
2437.3295205247687
 20
1468.6804986402294
 11
2450.1943722871501
 21
1455.8156468778484
  0
LINE
  8
_2-4_
  6
CONTINUOUS
 62
    7
 10
2416.8096907565305
 20
1390.2053790423524
 11
2427.5163167516762
 21
1379.4987530472063
  0
LINE
  8
_2-4_
  6
CONTINUOUS
 62
    7
 10
2423.0846546971111
 20
1398.072550725487
 11
2441.6584523753886
 21
1379.4987530472094
  0
LINE
  8
_2-4_
  6
CONTINUOUS
 62
    7
 10
2437.2267903208431
 20
1398.0725507254883
 11
2450.24252657743
 21
1385.0568144689018
  0
LINE
  8
_2-4_
  6
CONTINUOUS
 62
    7
 10
2645.6242607654281
 20
1647.8807782656363
 11
2651.5855080759129
 21
1641.070385783602
  0
LINE
  8
_2-4_
  6
CONTINUOUS
 62
    7
 10
2730.2511264370696
 20
1641.070385783602
 11
2651.5855080759129
 21
1641.070385783602
  0
LINE
  8
_2-4_
  6
CONTINUOUS
 62
    7
 10
2730.2511264370696
 20
1496.8912813059901
 11
2653.7682441709567
 21
1496.8912813059901
  0
LINE
  8
_2-4_
  6
CONTINUOUS
 62
    7
 10
2645.6242607654281
 20
1490.0808888239558
 11
2653.7682441709567
 21
1496.8912813059901
  0
LINE
  8
_2-4_
  6
CONTINUOUS
 62
    7
 10
2652.3063603577693
 20
1528.0742534600947
 11
2652.3063603577693
 21
1610.2633081864628
  0
LINE
  8
_2-4_
  6
CONTINUOUS
 62
    7
 10
2730.2511264370696
 20
1515.5369400272589
 11
2645.6242607654281
 21
1515.5369400272589
  0
LINE
  8
_2-4_
  6
CONTINUOUS
 62
    7
 10
2730.2511264370696
 20
1528.0742534600947
 11
2652.3063603577693
 21
1528.0742534600947
  0
LINE
  8
_2-4_
  6
CONTINUOUS
 62
    7
 10
2730.2511264370696
 20
1610.2633081864628
 11
2652.3063603577693
 21
1610.2633081864628
  0
LINE
  8
_2-4_
  6
CONTINUOUS
 62
    7
 10
2730.2511264370696
 20
1624.1936564451696
 11
2645.6242607654281
 21
1624.1936564451696
  0
LINE
  8
_2-4_
  6
CONTINUOUS
 62
    7
 10
801.27321234971066
 20
1496.9824615125249
 11
676.12812767217724
 21
1555.8742660666583
  0
LINE
  8
_2-4_
  6
CONTINUOUS
 62
    7
 10
676.12812767217724
 20
1555.8742660666583
 11
673.638530308226
 21
1557.0458412967528
  0
LINE
  8
_2-4_
  6
CONTINUOUS
 62
    7
 10
1379.2031265269243
 20
1461.3047829116026
 11
1564.1284996612526
 21
1357.871947090707
  0
LINE
  8
_2-4_
  6
CONTINUOUS
 62
    7
 10
1379.2031265269243
 20
1461.3047829116026
 11
1408.2840132870579
 21
1453.9357921228789
  0
LINE
  8
_2-4_
  6
CONTINUOUS
 62
    7
 10
1379.2031265269243
 20
1461.3047829116026
 11
1400.7034178314166
 21
1440.3826063082474
  0
TEXT
  8
_2-4_
 62
    7
 10
1564.1284996612526
 20
1326.5286635086175
 40
64
 41
1
 50
0
  1
1
  0
LINE
  8
_2-4_
  6
CONTINUOUS
 62
    7
 10
260.24790264632702
 20
1533.3943351504086
 11
432.63596234781966
 21
1467.5734396280204
  0
LINE
  8
_2-4_
  6
CONTINUOUS
 62
    7
 10
260.24790264632702
 20
1533.3943351504086
 11
290.08910740257397
 21
1530.3117228335987
  0
LINE
  8
_2-4_
  6
CONTINUOUS
 62
    7
 10
260.24790264632702
 20
1533.3943351504086
 11
284.54983788636542
 21
1515.8041121959091
  0
LINE
  8
_2-4_
  6
CONTINUOUS
 62
    7
 10
2695.621036974685
 20
1508.3197082847369
 11
2767.7105892134909
 21
1386.0809023145875
  0
LINE
  8
_2-4_
  6
CONTINUOUS
 62
    7
 10
2695.621036974685
 20
1508.3197082847369
 11
2717.0294494965801
 21
1487.303527059491
  0
LINE
  8
_2-4_
  6
CONTINUOUS
 62
    7
 10
2695.621036974685
 20
1508.3197082847369
 11
2703.6531754607204
 21
1479.4149551921887
  0
TEXT
  8
_2-4_
 62
    7
 10
2773.9792459299092
 20
1357.871947090707
 40
64
 41
1
 50
0
  1
4
  0
LINE
  8
_2-4_
  6
CONTINUOUS
 62
    7
 10
1009.3523802582673
 20
1461.3047829116026
 11
1169.2031265269243
 21
1354.7376187324978
  0
LINE
  8
_2-4_
  6
CONTINUOUS
 62
    7
 10
1009.3523802582673
 20
1461.3047829116026
 11
1037.7703555535938
 21
1451.6913194298895
  0
LINE
  8
_2-4_
  6
CONTINUOUS
 62
    7
 10
1009.3523802582673
 20
1461.3047829116026
 11
1029.1563370472818
 21
1438.7702916704218
  0
LINE
  8
_2-4_
  6
CONTINUOUS
 62
    7
 10
2034.277753392596
 20
1464.4391112698113
 11
2106.3673056314019
 21
1408.0212008220503
  0
LINE
  8
_2-4_
  6
CONTINUOUS
 62
    7
 10
2034.277753392596
 20
1464.4391112698113
 11
2061.8832654298812
 21
1452.6945080343121
  0
LINE
  8
_2-4_
  6
CONTINUOUS
 62
    7
 10
2034.277753392596
 20
1464.4391112698113
 11
2052.3125264836126
 21
1440.4652304918573
  0
LINE
  8
_2-4_
  6
CONTINUOUS
 62
    7
 10
2416.6658130940887
 20
1373.5435888817519
 11
2335.1732757806558
 21
1304.5883650011547
  0
LINE
  8
_2-4_
  6
CONTINUOUS
 62
    7
 10
2416.6658130940887
 20
1373.5435888817519
 11
2399.5600418637314
 21
1348.8982527993469
  0
LINE
  8
_2-4_
  6
CONTINUOUS
 62
    7
 10
2416.6658130940887
 20
1373.5435888817519
 11
2389.5291126160719
 21
1360.7529873647627
  0
TEXT
  8
_2-4_
 62
    7
 10
2297.561335482148
 20
1266.9764247026474
 40
64
 41
1
 50
0
  1
8
  0
LINE
  8
_2-4_
  6
CONTINUOUS
 62
    7
 10
686.24166302996161
 20
1385.6953008491892
 11
789.67449885085716
 21
1323.0087336850099
  0
LINE
  8
_2-4_
  6
CONTINUOUS
 62
    7
 10
686.24166302996161
 20
1385.6953008491892
 11
715.04778384952283
 21
1377.3163150317507
  0
LINE
  8
_2-4_
  6
CONTINUOUS
 62
    7
 10
686.24166302996161
 20
1385.6953008491892
 11
706.99900253546605
 21
1364.0358258635574
  0
TEXT
  8
_2-4_
 62
    7
 10
792.80882720906573
 20
1291.6654501029204
 40
64
 41
1
 50
0
  1
7
  0
TEXT
  8
_2-4_
 62
    7
 10
738.96819557918673
 20
1421.4544593102742
 40
25
 41
1
 50
-55.000000000000462
  1
X-Limit
  0
TEXT
  8
_2-4_
 62
    7
 10
774.43253503991514
 20
1637.6010792078987
 40
25
 41
1
 50
-125.00000000000027
  1
Y-Moter-R
  0
LINE
  8
_2-4_
  6
CONTINUOUS
 62
    7
 10
774.03072647932447
 20
1645.1349897189702
 11
703.85210386246877
 21
1542.8747110486947
  0
LINE
  8
_2-4_
  6
CONTINUOUS
 62
    7
 10
774.03072647932447
 20
1645.1349897189702
 11
802.56516837416461
 21
1627.5753331682993
  0
LINE
  8
_2-4_
  6
CONTINUOUS
 62
    7
 10
802.56516837416461
 20
1627.5753331682993
 11
734.49887003162291
 21
1528.0156729060745
  0
LINE
  8
_2-4_
  6
CONTINUOUS
 62
    7
 10
735.42755991553679
 20
1418.4302666042502
 11
786.22996506220193
 21
1348.2305794924951
  0
LINE
  8
_2-4_
  6
CONTINUOUS
 62
    7
 10
786.22996506220193
 20
1348.2305794924951
 11
815.26129227761703
 21
1368.3291906416289
  0
LINE
  8
_2-4_
  6
CONTINUOUS
 62
    7
 10
766.07432608469117
 20
1438.8614440503532
 11
815.26129227761703
 21
1368.3291906416289
  0
TEXT
  8
_2-4_
 62
    7
 10
904.32403698700932
 20
1638.5866210454967
 40
40
 41
1
 50
0
  1
20
  0
TEXT
  8
_2-4_
 62
    7
 10
969.54889577491701
 20
1551.6201426616199
 40
40
 41
1
 50
0
  1
10
  0
TEXT
  8
_2-4_
 62
    7
 10
1769.1573498044527
 20
1546.7886716402932
 40
40
 41
1
 50
0
  1
10
  0
TEXT
  8
_2-4_
 62
    7
 10
1839.213679613687
 20
1626.5079434921804
 40
40
 41
1
 50
0
  1
20
  0
TEXT
  8
_2-4_
 62
    7
 10
2017.9781074027678
 20
1310.046591595295
 40
40
 41
1
 50
0
  1
35
  0
TEXT
  8
_2-4_
 62
    7
 10
2141.1806184465931
 20
1167.5181964661633
 40
40
 41
1
 50
0
  1
70
  0
TEXT
  8
_2-4_
 62
    7
 10
558.8738589621646
 20
1110.7484119655769
 40
40
 41
1
 50
0
  1
70
  0
TEXT
  8
_2-4_
 62
    7
 10
773.87431941119394
 20
1195.2991548387906
 40
40
 41
1
 50
0
  1
30
  0
LINE
  8
_2-4_
  6
CONTINUOUS
 62
    7
 10
806.14342503438684
 20
1684.4515490807566
 11
1052.0194810064293
 21
1684.4515490807566
  0
LINE
  8
_2-4_
  6
CONTINUOUS
 62
    7
 10
806.14342503438684
 20
1535.1383138644455
 11
806.14342503438684
 21
1684.4515490807566
  0
LINE
  8
_2-4_
  6
CONTINUOUS
 62
    7
 10
674.5016339896107
 20
1589.6190016153892
 11
674.5016339896107
 21
1772.2127431106076
  0
LINE
  8
_2-4_
  6
CONTINUOUS
 62
    7
 10
674.58561725320669
 20
1243.5560266926971
 11
926.64634667806899
 21
1243.5560266926971
  0
LINE
  8
_2-4_
  6
CONTINUOUS
 62
    7
 10
926.64634667806899
 20
1414.4522720318985
 11
926.64634667806899
 21
1162.237618732498
  0
LINE
  8
_2-4_
  6
CONTINUOUS
 62
    7
 10
674.58561725320669
 20
1347.3061791666662
 11
674.58561725320669
 21
1243.5560266926971
  0
LINE
  8
_2-4_
  6
CONTINUOUS
 62
    7
 10
273.26407180055571
 20
1709.1974588948656
 11
273.26407180055571
 21
1948.257519230011
  0
LINE
  8
_2-4_
  6
CONTINUOUS
 62
    7
 10
1860.8449175717008
 20
1355.5792439397949
 11
2232.7125427516985
 21
1355.5792439397949
  0
LINE
  8
_2-4_
  6
CONTINUOUS
 62
    7
 10
2232.7125427516985
 20
1415.9160319412983
 11
2232.7125427516985
 21
1355.5792439397949
  0
LINE
  8
_2-4_
  6
CONTINUOUS
 62
    7
 10
1858.9419792430183
 20
1208.7301560459307
 11
2453.9922553000679
 21
1208.7301560459307
  0
LINE
  8
_2-4_
  6
CONTINUOUS
 62
    7
 10
1858.9419792430183
 20
1415.9160319412983
 11
1858.9419792430183
 21
1208.7301560459307
  0
LINE
  8
_2-4_
  6
CONTINUOUS
 62
    7
 10
926.64634667806899
 20
1535.1383138644455
 11
926.64634667806899
 21
1595.4451132010954
  0
LINE
  8
_2-4_
  6
CONTINUOUS
 62
    7
 10
674.5016339896107
 20
1772.2127431106076
 11
1052.0194810064293
 21
1772.2127431106076
  0
LINE
  8
_2-4_
  6
CONTINUOUS
 62
    7
 10
1858.9419792430183
 20
1535.1383138644455
 11
1858.9419792430183
 21
1592.6876463428953
  0
LINE
  8
_2-4_
  6
CONTINUOUS
 62
    7
 10
1733.5688449146578
 20
1592.6876463428953
 11
1858.9419792430183
 21
1592.6876463428953
  0
LINE
  8
_2-4_
  6
CONTINUOUS
 62
    7
 10
1733.5688449146578
 20
1669.9911826841192
 11
1984.315113571377
 21
1669.9911826841192
  0
LINE
  8
_2-4_
  6
CONTINUOUS
 62
    7
 10
1984.315113571377
 20
1535.1383138644455
 11
1984.315113571377
 21
1669.9911826841192
  0
LINE
  8
_2-4_
  6
CONTINUOUS
 62
    7
 10
1733.5688449146578
 20
1535.1383138644455
 11
1733.5688449146578
 21
1567.2361579772148
  0
LINE
  8
_2-4_
  6
CONTINUOUS
 62
    7
 10
1733.5688449146578
 20
1778.1331411205579
 11
2232.7125427516985
 21
1778.1331411205579
  0
LINE
  8
_2-4_
  6
CONTINUOUS
 62
    7
 10
2232.7125427516985
 20
1573.2546502878445
 11
2232.7125427516985
 21
1778.1331411205579
  0
TEXT
  8
_2-4_
 62
    7
 10
830.61490709282339
 20
1722.9422682568893
 40
40
 41
1
 50
0
  1
30
  0
TEXT
  8
_2-4_
 62
    7
 10
1163.6047145673419
 20
1321.8409092534916
 40
64
 41
1
 50
0
  1
6
  0
LINE
  8
_0-0_
  6
CONTINUOUS
 62
    7
 10
2632.3476364246467
 20
1292.5034234097773
 11
2561.7134348391428
 21
1333.9870021187239
  0
LINE
  8
_0-0_
  6
CONTINUOUS
 62
    7
 10
2561.7134348391428
 20
1333.9870021187239
 11
2590.632708932606
 21
1326.0073037593174
  0
LINE
  8
_0-0_
  6
CONTINUOUS
 62
    7
 10
2561.7134348391428
 20
1333.9870021187239
 11
2582.7684116833834
 21
1312.616743578209
  0
TEXT
  8
_0-0_
 62
    7
 10
1425.9473438614157
 20
598.79724529172449
 40
40
 41
1
 50
0
  1
PinNo.
  0
TEXT
  8
_0-0_
 62
    7
 10
2672.1364718342352
 20
1064.6466224151673
 40
40
 41
1
 50
0
  1
PinNo.
  0
TEXT
  8
_0-0_
 62
    7
 10
2673.8182385386522
 20
598.79724529172449
 40
40
 41
1
 50
0
  1
PinNo.
  0
TEXT
  8
_2-4_
 62
    7
 10
2804.9960414831594
 20
1010.830087873831
 40
30
 41
1
 50
0
  1
黒
  0
TEXT
  8
_2-4_
 62
    7
 10
2810.0413415964103
 20
893.10641856465782
 40
30
 41
1
 50
0
  1
赤
  0
TEXT
  8
_2-4_
 62
    7
 10
2810.0413415964103
 20
832.56281720565426
 40
30
 41
1
 50
0
  1
緑
  0
TEXT
  8
_2-4_
 62
    7
 10
2806.6778081875764
 20
714.83914789648088
 40
30
 41
1
 50
0
  1
白
  0
TEXT
  8
_2-4_
 62
    7
 10
1373.8125760244957
 20
546.66247745480484
 40
30
 41
1
 50
0
  1
黄
  0
TEXT
  8
_2-4_
 62
    7
 10
1370.4490426156624
 20
482.75534268696811
 40
30
 41
1
 50
0
  1
茶
  0
TEXT
  8
_2-4_
 62
    7
 10
2803.3142747787433
 20
539.93541063713781
 40
30
 41
1
 50
0
  1
茶
  0
TEXT
  8
_2-4_
 62
    7
 10
2805.450694182291
 20
468.07975756050553
 40
30
 41
1
 50
0
  1
黄
  0
LINE
  8
_0-0_
  6
CONTINUOUS
 62
    7
 10
1553.5622457111697
 20
558.07975756050553
 11
2655.450694182291
 21
498.07975756050553
  0
LINE
  8
_0-0_
  6
CONTINUOUS
 62
    7
 10
2655.450694182291
 20
558.07975756050553
 11
1553.5622457111697
 21
498.07975756050553
  0
LINE
  8
_0-0_
  6
CONTINUOUS
 62
    7
 10
1403.5622457111697
 20
945.64987049620424
 11
1553.5622457111697
 21
945.64987049620424
  0
LINE
  8
_0-0_
  6
CONTINUOUS
 62
    7
 10
1553.5622457111697
 20
945.64987049620424
 11
1553.5622457111697
 21
1005.6498704962044
  0
LINE
  8
_0-0_
  6
CONTINUOUS
 62
    7
 10
1553.5622457111697
 20
1005.6498704962044
 11
1403.5622457111697
 21
1005.6498704962044
  0
LINE
  8
_0-0_
  6
CONTINUOUS
 62
    7
 10
1403.5622457111697
 20
1005.6498704962044
 11
1403.5622457111697
 21
945.64987049620424
  0
LINE
  8
_0-0_
  6
CONTINUOUS
 62
    7
 10
1403.5622457111697
 20
885.64987049620424
 11
1553.5622457111697
 21
885.64987049620424
  0
LINE
  8
_0-0_
  6
CONTINUOUS
 62
    7
 10
1553.5622457111697
 20
885.64987049620424
 11
1553.5622457111697
 21
945.64987049620424
  0
LINE
  8
_0-0_
  6
CONTINUOUS
 62
    7
 10
1553.5622457111697
 20
945.64987049620424
 11
1403.5622457111697
 21
945.64987049620424
  0
LINE
  8
_0-0_
  6
CONTINUOUS
 62
    7
 10
1403.5622457111697
 20
945.64987049620424
 11
1403.5622457111697
 21
885.64987049620424
  0
LINE
  8
_0-0_
  6
CONTINUOUS
 62
    7
 10
1403.5622457111697
 20
825.64987049620424
 11
1553.5622457111697
 21
825.64987049620424
  0
LINE
  8
_0-0_
  6
CONTINUOUS
 62
    7
 10
1553.5622457111697
 20
825.64987049620424
 11
1553.5622457111697
 21
885.64987049620424
  0
LINE
  8
_0-0_
  6
CONTINUOUS
 62
    7
 10
1553.5622457111697
 20
885.64987049620424
 11
1403.5622457111697
 21
885.64987049620424
  0
LINE
  8
_0-0_
  6
CONTINUOUS
 62
    7
 10
1403.5622457111697
 20
885.64987049620424
 11
1403.5622457111697
 21
825.64987049620424
  0
LINE
  8
_0-0_
  6
CONTINUOUS
 62
    7
 10
1403.5622457111697
 20
765.64987049620424
 11
1553.5622457111697
 21
765.64987049620424
  0
LINE
  8
_0-0_
  6
CONTINUOUS
 62
    7
 10
1553.5622457111697
 20
765.64987049620424
 11
1553.5622457111697
 21
825.64987049620424
  0
LINE
  8
_0-0_
  6
CONTINUOUS
 62
    7
 10
1553.5622457111697
 20
825.64987049620424
 11
1403.5622457111697
 21
825.64987049620424
  0
LINE
  8
_0-0_
  6
CONTINUOUS
 62
    7
 10
1403.5622457111697
 20
825.64987049620424
 11
1403.5622457111697
 21
765.64987049620424
  0
LINE
  8
_0-0_
  6
CONTINUOUS
 62
    7
 10
1403.5622457111697
 20
705.64987049620424
 11
1553.5622457111697
 21
705.64987049620424
  0
LINE
  8
_0-0_
  6
CONTINUOUS
 62
    7
 10
1553.5622457111697
 20
705.64987049620424
 11
1553.5622457111697
 21
765.64987049620424
  0
LINE
  8
_0-0_
  6
CONTINUOUS
 62
    7
 10
1553.5622457111697
 20
765.64987049620424
 11
1403.5622457111697
 21
765.64987049620424
  0
LINE
  8
_0-0_
  6
CONTINUOUS
 62
    7
 10
1403.5622457111697
 20
765.64987049620424
 11
1403.5622457111697
 21
705.64987049620424
  0
TEXT
  8
_0-0_
 62
    7
 10
1424.2655771569989
 20
955.51798110398033
 40
40
 41
1
 50
0
  1
PinNo.
  0
TEXT
  8
_2-4_
 62
    7
 10
1375.4943427289129
 20
893.29261304056035
 40
30
 41
1
 50
0
  1
黒
  0
TEXT
  8
_2-4_
 62
    7
 10
1370.4490426156624
 20
782.29601054905413
 40
30
 41
1
 50
0
  1
赤
  0
TEXT
  8
_2-4_
 62
    7
 10
1375.4943427289129
 20
721.75240919005068
 40
30
 41
1
 50
0
  1
白
  0
TEXT
  8
_2-4_
 62
    7
 10
1368.7672759112456
 20
841.1578452036407
 40
30
 41
1
 50
0
  1
緑
  0
LINE
  8
_0-0_
  6
CONTINUOUS
 62
    7
 10
2655.450694182291
 20
1026.4702692695432
 11
1553.5622457111697
 21
915.64987049620424
  0
LINE
  8
_0-0_
  6
CONTINUOUS
 62
    7
 10
1553.5622457111697
 20
855.64987049620413
 11
2655.450694182291
 21
846.47026926954322
  0
LINE
  8
_0-0_
  6
CONTINUOUS
 62
    7
 10
2655.450694182291
 20
906.47026926954334
 11
1553.5622457111697
 21
795.64987049620436
  0
LINE
  8
_0-0_
  6
CONTINUOUS
 62
    7
 10
1553.5622457111697
 20
735.64987049620424
 11
2655.450694182291
 21
726.47026926954322
  0
TEXT
  8
_0-0_
 62
    7
 10
1426.7882272136239
 20
1009.1483211694142
 40
40
 41
1
 50
0
  1
XHP-4
  0
TEXT
  8
_0-0_
 62
    7
 10
1425.1064605092072
 20
652.6137798330609
 40
40
 41
1
 50
0
  1
XHP-2
  0
TEXT
  8
_0-0_
 62
    7
 10
2681.3861887085277
 20
1116.781390252087
 40
40
 41
1
 50
0
  1
PHR-6
  0
TEXT
  8
_0-0_
 62
    7
 10
1471.7287708149831
 20
895.44220565412547
 40
40
 41
1
 50
0
  1
1
  0
TEXT
  8
_0-0_
 62
    7
 10
1466.1228818002605
 20
837.140959901011
 40
40
 41
1
 50
0
  1
2
  0
TEXT
  8
_0-0_
 62
    7
 10
1466.1228818002605
 20
772.11264733022949
 40
40
 41
1
 50
0
  1
3
  0
TEXT
  8
_0-0_
 62
    7
 10
1467.244059603205
 20
716.05375718300422
 40
40
 41
1
 50
0
  1
4
  0
TEXT
  8
_0-0_
 62
    7
 10
1461.6381705884826
 20
536.66530871188297
 40
40
 41
1
 50
0
  1
1
  0
TEXT
  8
_0-0_
 62
    7
 10
1458.2746371796493
 20
478.36406295876873
 40
40
 41
1
 50
0
  1
2
  0
TEXT
  8
_0-0_
 62
    7
 10
2722.9631989010531
 20
999.71174132796466
 40
40
 41
1
 50
0
  1
1
  0
TEXT
  8
_0-0_
 62
    7
 10
2728.5690879157755
 20
940.28931777190564
 40
40
 41
1
 50
0
  1
2
  0
TEXT
  8
_0-0_
 62
    7
 10
2725.2055545069425
 20
883.10924982173583
 40
40
 41
1
 50
0
  1
3
  0
TEXT
  8
_0-0_
 62
    7
 10
2724.0843767039978
 20
821.44447065978795
 40
40
 41
1
 50
0
  1
4
  0
TEXT
  8
_0-0_
 62
    7
 10
2719.5996654922196
 20
759.77969149783996
 40
40
 41
1
 50
0
  1
5
  0
TEXT
  8
_0-0_
 62
    7
 10
2721.8420210981089
 20
699.23609013883674
 40
40
 41
1
 50
0
  1
6
  0
TEXT
  8
_0-0_
 62
    7
 10
2720.7208432951643
 20
535.54413090893854
 40
40
 41
1
 50
0
  1
1
  0
TEXT
  8
_0-0_
 62
    7
 10
2719.5996654922196
 20
470.51581833815703
 40
40
 41
1
 50
0
  1
2
  0
TEXT
  8
_0-0_
 62
    7
 10
2606.7344333291394
 20
649.53054087496344
 40
40
 41
1
 50
0
  1
G6P1-150S06A
  0
TEXT
  8
_0-0_
 62
    7
 10
2004.1947957300456
 20
1025.4988307956883
 40
40
 41
1
 50
0
  1
ULAWM AWG24-6芯
  0
TEXT
  8
_2-4_
 62
    7
 10
2106.3673056314019
 20
1379.8122455981697
 40
64
 41
1
 50
0
  1
10
  0
TEXT
  8
_0-0_
 62
    7
 10
882.36297240048657
 20
1346.8564185646578
 40
64
 41
1
 50
0
  1
9
  0
LINE
  8
_0-0_
  6
CONTINUOUS
 62
    7
 10
867.22707206073562
 20
1389.7414695272851
 11
796.59287047523162
 21
1412.4453200369112
  0
LINE
  8
_0-0_
  6
CONTINUOUS
 62
    7
 10
796.59287047523162
 20
1412.4453200369112
 11
826.55656983255335
 21
1410.9699486178993
  0
LINE
  8
_0-0_
  6
CONTINUOUS
 62
    7
 10
796.59287047523162
 20
1412.4453200369112
 11
821.80450960052553
 21
1396.1857612293686
  0
TEXT
  8
_2-4_
 62
    7
 10
1117.5302409547844
 20
315.86488034974366
 40
40
 41
1
 50
0
  1
2
  0
TEXT
  8
_2-4_
 62
    7
 10
130.21680811896346
 20
695.11861169302711
 40
40
 41
1
 50
0
  1
ケーブル
  0
TEXT
  8
_2-4_
 62
    7
 10
120.81382304433697
 20
641.83502960347494
 40
40
 41
1
 50
0
  1
コネクター
  0
TEXT
  8
_2-4_
 62
    7
 10
120.81382304433697
 20
538.40219378257927
 40
40
 41
1
 50
0
  1
コネクター
  0
TEXT
  8
_2-4_
 62
    7
 10
117.67949468612781
 20
588.55144751392277
 40
40
 41
1
 50
0
  1
コネクター
  0
TEXT
  8
_2-4_
 62
    7
 10
111.41083796970969
 20
425.56637288705679
 40
40
 41
1
 50
0
  1
収縮チューブ
  0
TEXT
  8
_2-4_
 62
    7
 10
108.27650961150093
 20
369.14846243929583
 40
40
 41
1
 50
0
  1
収縮チューブ
  0
TEXT
  8
_2-4_
 62
    7
 10
1117.5302409547844
 20
638.70070124526592
 40
40
 41
1
 50
0
  1
1
  0
TEXT
  8
_2-4_
 62
    7
 10
1117.5302409547844
 20
585.41711915571352
 40
40
 41
1
 50
0
  1
1
  0
TEXT
  8
_2-4_
 62
    7
 10
1123.7988976712022
 20
528.99920870795245
 40
40
 41
1
 50
0
  1
1
  0
TEXT
  8
_2-4_
 62
    7
 10
1120.6645693129935
 20
478.84995497660918
 40
40
 41
1
 50
0
  1
1
  0
TEXT
  8
_2-4_
 62
    7
 10
1120.6645693129935
 20
425.56637288705679
 40
40
 41
1
 50
0
  1
2
  0
TEXT
  8
_2-4_
 62
    7
 10
108.68281143571454
 20
312.35327172619441
 40
40
 41
1
 50
0
  1
収縮チューブ
  0
TEXT
  8
_2-4_
 62
    7
 10
117.04102039093738
 20
478.12441600480133
 40
40
 41
1
 50
0
  1
マイクロSW
  0
LINE
  8
_0-0_
  6
CONTINUOUS
 62
    7
 10
1230.0373134328354
 20
817.69538670284965
 11
30.037313432835447
 21
817.69538670284965
  0
LINE
  8
_0-0_
  6
CONTINUOUS
 62
    7
 10
1230.0373134328354
 20
817.69538670284965
 11
1230.0373134328354
 21
791.23394391678039
  0
LINE
  8
_0-0_
  6
CONTINUOUS
 62
    7
 10
1230.0373134328354
 20
693.14993215739503
 11
30.037313432835447
 21
693.14993215739503
  0
LINE
  8
_0-0_
  6
CONTINUOUS
 62
    7
 10
1230.0373134328354
 20
638.60447761194064
 11
30.037313432835447
 21
638.60447761194064
  0
LINE
  8
_0-0_
  6
CONTINUOUS
 62
    7
 10
1230.0373134328354
 20
584.05902306648591
 11
30.037313432835447
 21
584.05902306648591
  0
LINE
  8
_0-0_
  6
CONTINUOUS
 62
    7
 10
1230.0373134328354
 20
747.69538670284965
 11
30.037313432835447
 21
747.69538670284965
  0
LINE
  8
_0-0_
  6
CONTINUOUS
 62
    7
 10
1230.0373134328354
 20
529.5135685210314
 11
30.037313432835447
 21
529.5135685210314
  0
LINE
  8
_0-0_
  6
CONTINUOUS
 62
    7
 10
1230.0373134328354
 20
474.9681139755769
 11
30.037313432835447
 21
474.9681139755769
  0
LINE
  8
_0-0_
  6
CONTINUOUS
 62
    7
 10
1230.0373134328354
 20
420.42265943012234
 11
30.037313432835447
 21
420.42265943012234
  0
LINE
  8
_0-0_
  6
CONTINUOUS
 62
    7
 10
1230.0373134328354
 20
365.87720488466789
 11
30.037313432835447
 21
365.87720488466789
  0
LINE
  8
_0-0_
  6
CONTINUOUS
 62
    7
 10
1230.0373134328354
 20
311.33175033921327
 11
30.037313432835447
 21
311.33175033921327
  0
LINE
  8
_0-0_
  6
CONTINUOUS
 62
    7
 10
1230.0373134328354
 20
256.78629579375877
 11
30.037313432835447
 21
256.78629579375877
  0
LINE
  8
_0-0_
  6
CONTINUOUS
 62
    7
 10
1230.0373134328354
 20
202.24084124830412
 11
30.037313432835447
 21
202.24084124830412
  0
TEXT
  8
_0-0_
 62
    7
 10
55.939054726367431
 20
697.20409317051167
 40
40
 41
1
 50
0
  1
1
  0
TEXT
  8
_0-0_
 62
    7
 10
55.939054726367431
 20
643.92051108095939
 40
40
 41
1
 50
0
  1
2
  0
TEXT
  8
_0-0_
 62
    7
 10
55.939054726367431
 20
590.6369289914071
 40
40
 41
1
 50
0
  1
3
  0
TEXT
  8
_0-0_
 62
    7
 10
52.804726368158271
 20
534.21901854364592
 40
40
 41
1
 50
0
  1
4
  0
TEXT
  8
_0-0_
 62
    7
 10
52.804726368158271
 20
480.93543645409369
 40
40
 41
1
 50
0
  1
5
  0
TEXT
  8
_0-0_
 62
    7
 10
52.804726368158271
 20
427.65185436454146
 40
40
 41
1
 50
0
  1
6
  0
TEXT
  8
_0-0_
 62
    7
 10
49.670398009949309
 20
374.36827227498918
 40
40
 41
1
 50
0
  1
7
  0
TEXT
  8
_0-0_
 62
    7
 10
55.939054726367431
 20
317.95036182722788
 40
40
 41
1
 50
0
  1
8
  0
TEXT
  8
_0-0_
 62
    7
 10
55.939054726367431
 20
264.66677973767582
 40
40
 41
1
 50
0
  1
9
  0
TEXT
  8
_0-0_
 62
    7
 10
40.267412935322625
 20
211.38319764812351
 40
40
 41
1
 50
0
  1
10
  0
TEXT
  8
_0-0_
 62
    7
 10
168.77487562189003
 20
759.89066033469055
 40
40
 41
1
 50
0
  1
名称
  0
TEXT
  8
_0-0_
 62
    7
 10
1112.2077114427852
 20
763.02498869289946
 40
40
 41
1
 50
0
  1
数
  0
TEXT
  8
_0-0_
 62
    7
 10
469.67039800994951
 20
763.02498869289946
 40
40
 41
1
 50
0
  1
部材　　規格    長さ　　　
  0
TEXT
  8
_2-4_
 62
    7
 10
1122.3884537141903
 20
692.7522540428829
 40
40
 41
1
 50
0
  1
1
  0
TEXT
  8
_2-4_
 62
    7
 10
388.65671641791062
 20
693.14993215739503
 40
40
 41
1
 50
0
  1
 ULAWM AWG24-6芯
  0
TEXT
  8
_2-4_
 62
    7
 10
388.65671641791062
 20
638.60447761194064
 40
40
 41
1
 50
0
  1
 XHP-4
  0
TEXT
  8
_2-4_
 62
    7
 10
388.65671641791062
 20
584.05902306648591
 40
40
 41
1
 50
0
  1
 XHP-2
  0
TEXT
  8
_2-4_
 62
    7
 10
388.65671641791062
 20
529.5135685210314
 40
40
 41
1
 50
0
  1
 PHR-6
  0
TEXT
  8
_0-0_
 62
    7
 10
388.65671641791062
 20
474.9681139755769
 40
40
 41
1
 50
0
  1
 G6P1-150S06A
  0
TEXT
  8
_2-4_
 62
    7
 10
391.66082064510732
 20
421.00678405420774
 40
40
 41
1
 50
0
  1
 8Φ-20mm 
  0
TEXT
  8
_2-4_
 62
    7
 10
100.03731343283545
 20
256.78629579375877
 40
40
 41
1
 50
0
  1
 表示
  0
TEXT
  8
_2-4_
 62
    7
 10
388.65671641791062
 20
256.78629579375877
 40
40
 41
1
 50
0
  1
 テプラ9mm[Y-Motor-R][X2-Limit]
  0
TEXT
  8
_0-0_
 62
    7
 10
100.03731343283545
 20
202.24084124830412
 40
40
 41
1
 50
0
  1
 収縮チューブ
  0
TEXT
  8
_0-0_
 62
    7
 10
388.65671641791062
 20
202.24084124830412
 40
40
 41
1
 50
0
  1
 3.5Φ-35mm
  0
TEXT
  8
_2-4_
 62
    7
 10
1114.4467776099998
 20
267.77915098512517
 40
40
 41
1
 50
0
  1
2
  0
LINE
  8
_0-0_
  6
CONTINUOUS
 62
    7
 10
1230.0373134328354
 20
147.69538670284939
 11
30.037313432835447
 21
147.69538670284939
  0
LINE
  8
_0-0_
  6
CONTINUOUS
 62
    7
 10
1230.0373134328354
 20
93.149932157395057
 11
30.037313432835447
 21
93.149932157395057
  0
LINE
  8
_0-0_
  6
CONTINUOUS
 62
    7
 10
100.03731343283545
 20
817.69538670284965
 11
100.03731343283545
 21
38.604477611940325
  0
LINE
  8
_0-0_
  6
CONTINUOUS
 62
    7
 10
1230.0373134328354
 20
791.23394391678039
 11
1230.0373134328354
 21
38.604477611940325
  0
LINE
  8
_0-0_
  6
CONTINUOUS
 62
    7
 10
1030.0373134328352
 20
817.69538670284965
 11
1030.0373134328352
 21
38.604477611940325
  0
LINE
  8
_0-0_
  6
CONTINUOUS
 62
    7
 10
388.65671641791062
 20
816.35210312075981
 11
388.65671641791062
 21
38.604477611940325
  0
TEXT
  8
_0-0_
 62
    7
 10
47.085509206828618
 20
158.68824189421571
 40
40
 41
1
 50
0
  1
11
  0
TEXT
  8
_0-0_
 62
    7
 10
42.60079799505047
 20
101.50817394404595
 40
40
 41
1
 50
0
  1
12
  0
TEXT
  8
_0-0_
 62
    7
 10
100.03731343283545
 20
147.69538670284939
 40
40
 41
1
 50
0
  1
 PIN
  0
TEXT
  8
_0-0_
 62
    7
 10
100.03731343283545
 20
93.149932157395057
 40
40
 41
1
 50
0
  1
 PIN
  0
TEXT
  8
_0-0_
 62
    7
 10
388.65671641791062
 20
147.69538670284939
 40
40
 41
1
 50
0
  1
 BXH-001T-P0.6
  0
TEXT
  8
_0-0_
 62
    7
 10
388.65671641791062
 20
93.149932157395057
 40
40
 41
1
 50
0
  1
 BPH-002T-P0.5S
  0
TEXT
  8
_0-0_
 62
    7
 10
1117.8103110188331
 20
150.8399972736043
 40
40
 41
1
 50
0
  1
6
  0
TEXT
  8
_0-0_
 62
    7
 10
1121.1738444276666
 20
98.144640535212289
 40
40
 41
1
 50
0
  1
4
  0
LINE
  8
_0-0_
  6
CONTINUOUS
 62
    7
 10
401.93828383876496
 20
1722.7312770018034
 11
285.89638123400835
 21
1657.14237552955
  0
LINE
  8
_0-0_
  6
CONTINUOUS
 62
    7
 10
285.89638123400835
 20
1657.14237552955
 11
307.30274143463106
 21
1678.1606471749826
  0
LINE
  8
_0-0_
  6
CONTINUOUS
 62
    7
 10
285.89638123400835
 20
1657.14237552955
 11
314.9439687930244
 21
1664.6415526178257
  0
TEXT
  8
_2-4_
 62
    7
 10
430.52831781385021
 20
1435.1491705465373
 40
64
 41
1
 50
0
  1
2
  0
TEXT
  8
_0-0_
 62
    7
 10
418.75595088293267
 20
1697.5047764355522
 40
64
 41
1
 50
0
  1
11
  0
TEXT
  8
_2-4_
 62
    7
 10
2637.8471173608486
 20
1254.3592498217358
 40
64
 41
1
 50
0
  1
5
  0
TEXT
  8
_0-0_
 62
    7
 10
2516.7599146428424
 20
1680.6871093913846
 40
64
 41
1
 50
0
  1
12
  0
LINE
  8
_0-0_
  6
CONTINUOUS
 62
    7
 10
2562.4479101128309
 20
1679.0053426869681
 11
2609.5373778365001
 21
1644.2488307956883
  0
LINE
  8
_0-0_
  6
CONTINUOUS
 62
    7
 10
2609.5373778365001
 20
1644.2488307956883
 11
2581.611602825481
 21
1655.2101760613909
  0
LINE
  8
_0-0_
  6
CONTINUOUS
 62
    7
 10
2609.5373778365001
 20
1644.2488307956883
 11
2590.8336198894403
 21
1667.7045217609484
  0
LINE
  8
_2-4_
  6
CONTINUOUS
 62
    7
 10
2633.086947332592
 20
1681.187429218573
 11
2633.086947332592
 21
1948.257519230011
  0
LINE
  8
_2-4_
  6
CONTINUOUS
 62
    7
 10
2453.9922553000679
 20
1257.4562357918078
 11
2453.9922553000679
 21
1208.7301560459307
  0
LINE
  8
_2-4_
  6
CONTINUOUS
 62
    7
 10
305.35770330091214
 20
1409.7870372776326
 11
389.98456897255352
 21
1409.7870372776326
  0
LINE
  8
_2-4_
  6
CONTINUOUS
 62
    7
 10
389.98456897255352
 20
1416.5974297596672
 11
402.52188240538976
 21
1416.5974297596672
  0
LINE
  8
_2-4_
  6
CONTINUOUS
 62
    7
 10
363.71611699376399
 20
1393.7671367801199
 11
363.71611699376399
 21
1377.7472362826074
  0
LINE
  8
_2-4_
  6
CONTINUOUS
 62
    7
 10
363.71611699376399
 20
1361.7273357850952
 11
363.71611699376399
 21
1345.7074352875829
  0
LINE
  8
_2-4_
  6
CONTINUOUS
 62
    7
 10
305.35770330091214
 20
1393.7671367801199
 11
363.71611699376399
 21
1393.7671367801199
  0
LINE
  8
_2-4_
  6
CONTINUOUS
 62
    7
 10
305.35770330091214
 20
1377.7472362826074
 11
363.71611699376399
 21
1377.7472362826074
  0
LINE
  8
_2-4_
  6
CONTINUOUS
 62
    7
 10
305.35770330091214
 20
1361.7273357850952
 11
363.71611699376399
 21
1361.7273357850952
  0
LINE
  8
_2-4_
  6
CONTINUOUS
 62
    7
 10
305.35770330091214
 20
1345.7074352875829
 11
363.71611699376399
 21
1345.7074352875829
  0
LINE
  8
_2-4_
  6
CONTINUOUS
 62
    7
 10
305.35770330091214
 20
1409.7870372776326
 11
305.35770330091214
 21
1329.6875347900705
  0
LINE
  8
_2-4_
  6
CONTINUOUS
 62
    7
 10
305.35770330091214
 20
1329.6875347900705
 11
389.98456897255352
 21
1329.6875347900705
  0
LINE
  8
_2-4_
  6
CONTINUOUS
 62
    7
 10
363.71611699376399
 20
1329.6875347900705
 11
389.98456897255352
 21
1329.6875347900705
  0
LINE
  8
_2-4_
  6
CONTINUOUS
 62
    7
 10
402.52188240538976
 20
1321.4884069723689
 11
402.52188240538976
 21
1416.5974297596672
  0
LINE
  8
_2-4_
  6
CONTINUOUS
 62
    7
 10
389.98456897255352
 20
1416.5974297596672
 11
389.98456897255352
 21
1321.4884069723689
  0
LINE
  8
_2-4_
  6
CONTINUOUS
 62
    7
 10
389.98456897255352
 20
1321.4884069723689
 11
402.52188240538976
 21
1321.4884069723689
  0
LINE
  8
_2-4_
  6
CONTINUOUS
 62
    7
 10
380.10272817653436
 20
1339.0659769414528
 11
555.62511623623595
 21
1279.513738135483
  0
LINE
  8
_2-4_
  6
CONTINUOUS
 62
    7
 10
380.10272817653436
 20
1339.0659769414528
 11
410.03879207822592
 21
1337.1084075113104
  0
LINE
  8
_2-4_
  6
CONTINUOUS
 62
    7
 10
380.10272817653436
 20
1339.0659769414528
 11
405.04933528964204
 21
1322.402640134432
  0
TEXT
  8
_2-4_
 62
    7
 10
552.49078787802637
 20
1251.3047829116024
 40
64
 41
1
 50
0
  1
3
  0
LINE
  8
_2-4_
  6
CONTINUOUS
 62
    7
 10
402.52188240538976
 20
1286.1397012504715
 11
402.52188240538976
 21
1162.237618732498
  0
LINE
  8
_2-4_
  6
CONTINUOUS
 62
    7
 10
926.64634667806899
 20
1162.237618732498
 11
402.52188240538976
 21
1162.237618732498
  0
LINE
  8
_2-4_
  6
CONTINUOUS
 62
    7
 10
402.52188240538976
 20
1362.6659654076334
 11
673.638530308226
 21
1381.4355002376267
  0
LINE
  8
_2-4_
  6
CONTINUOUS
 62
    7
 10
402.52188240538976
 20
1386.3676714380545
 11
673.638530308226
 21
1387.6481559265569
  0
LINE
  8
_0-0_
  6
CONTINUOUS
 62
    7
 10
926.64634667806899
 20
1801.8578248235781
 11
926.64634667806899
 21
1866.2425938568763
  0
LINE
  8
_2-4_
  6
CONTINUOUS
 62
    7
 10
273.26407180055571
 20
1866.2425938568763
 11
926.64634667806899
 21
1866.2425938568763
  0
LINE
  8
_2-4_
  6
CONTINUOUS
 62
    7
 10
1052.0194810064293
 20
1535.1383138644455
 11
1052.0194810064293
 21
1772.2127431106076
  0
TEXT
  8
_2-4_
 62
    7
 10
552.82234386141545
 20
1819.3531780341639
 40
40
 41
1
 50
0
  1
130
  0
TEXT
  8
_2-4_
 62
    7
 10
1968.3649854711502
 20
1730.3845704507005
 40
40
 41
1
 50
0
  1
45 
  0
LINE
  8
_2-4_
  6
CONTINUOUS
 62
    7
 10
1733.5688449146578
 20
1567.2361579772148
 11
1733.5688449146578
 21
1778.1331411205579
  0
LINE
  8
_2-4_
  6
CONTINUOUS
 62
    7
 10
1858.9419792430183
 20
1858.0585142548859
 11
2633.086947332592
 21
1858.0585142548859
  0
LINE
  8
_0-0_
  6
CONTINUOUS
 62
    7
 10
1858.9419792430183
 20
1797.3829389788293
 11
1858.9419792430183
 21
1858.0585142548859
  0
TEXT
  8
_2-4_
 62
    7
 10
2213.602290023523
 20
1807.6881067919246
 40
40
 41
1
 50
0
  1
95
  0
TEXT
  8
_0-0_
 62
    7
 10
2748.2239430557261
 20
1603.9974477317528
 40
28
 41
1
 50
0
  1
2
  0
TEXT
  8
_0-0_
 62
    7
 10
2748.2239430557261
 20
1633.9974477317528
 40
28
 41
1
 50
0
  1
1
  0
TEXT
  8
_0-0_
 62
    7
 10
2748.2239430557261
 20
1633.9974477317528
 40
28
 41
1
 50
0
  1
1
  0
TEXT
  8
_0-0_
 62
    7
 10
2748.2239430557261
 20
1573.9974477317528
 40
28
 41
1
 50
0
  1
3
  0
TEXT
  8
_0-0_
 62
    7
 10
2748.2239430557261
 20
1543.9974477317528
 40
28
 41
1
 50
0
  1
4
  0
TEXT
  8
_0-0_
 62
    7
 10
2748.2239430557261
 20
1513.997447731753
 40
28
 41
1
 50
0
  1
5
  0
TEXT
  8
_0-0_
 62
    7
 10
2748.2239430557261
 20
1483.997447731753
 40
28
 41
1
 50
0
  1
6
  0
TEXT
  8
_0-0_
 62
    7
 10
2776.4984708467437
 20
1633.9974477317528
 40
28
 41
1
 50
0
  1
Black
  0
TEXT
  8
_0-0_
 62
    7
 10
2776.4984708467437
 20
1573.9974477317528
 40
28
 41
1
 50
0
  1
Red
  0
TEXT
  8
_0-0_
 62
    7
 10
2776.4984708467437
 20
1543.9974477317528
 40
28
 41
1
 50
0
  1
Green
  0
TEXT
  8
_0-0_
 62
    7
 10
2776.4984708467437
 20
1483.997447731753
 40
28
 41
1
 50
0
  1
White
  0
TEXT
  8
_2-4_
 62
    7
 10
2314.0537192423599
 20
1464.8260653881089
 40
30
 41
1
 50
0
  1
Brown
  0
TEXT
  8
_2-4_
 62
    7
 10
2289.3024754612652
 20
1378.4579061841287
 40
30
 41
1
 50
0
  1
Yellow
  0
TEXT
  8
_0-0_
 62
    7
 10
147.01501504604255
 20
1628.0709367105096
 40
28
 41
1
 50
0
  1
1
  0
TEXT
  8
_0-0_
 62
    7
 10
147.01501504604255
 20
1592.0261605911064
 40
28
 41
1
 50
0
  1
2
  0
TEXT
  8
_0-0_
 62
    7
 10
147.01501504604255
 20
1555.9813844717034
 40
28
 41
1
 50
0
  1
3
  0
TEXT
  8
_0-0_
 62
    7
 10
147.01501504604255
 20
1519.9366083523005
 40
28
 41
1
 50
0
  1
4
  0
TEXT
  8
_0-0_
 62
    7
 10
65.461458168284764
 20
1628.0709367105096
 40
28
 41
1
 50
0
  1
Black
  0
TEXT
  8
_0-0_
 62
    7
 10
65.461458168284764
 20
1592.0261605911064
 40
28
 41
1
 50
0
  1
Green
  0
TEXT
  8
_0-0_
 62
    7
 10
93.461458168284764
 20
1555.9813844717034
 40
28
 41
1
 50
0
  1
Red
  0
TEXT
  8
_0-0_
 62
    7
 10
65.461458168284764
 20
1519.9366083523005
 40
28
 41
1
 50
0
  1
White
  0
TEXT
  8
_0-0_
 62
    7
 10
276.2728256508766
 20
1372.2376959664796
 40
28
 41
1
 50
0
  1
1
  0
TEXT
  8
_0-0_
 62
    7
 10
276.2728256508766
 20
1336.1929198470759
 40
28
 41
1
 50
0
  1
2
  0
TEXT
  8
_0-0_
 62
    7
 10
180.71926877311881
 20
1372.2376959664796
 40
28
 41
1
 50
0
  1
Yellow
  0
TEXT
  8
_0-0_
 62
    7
 10
194.71926877311881
 20
1336.1929198470759
 40
28
 41
1
 50
0
  1
Brown
  0
LINE
  8
_0-0_
  6
CONTINUOUS
 62
    7
 10
1245.0164787657118
 20
1282.5347064913362
 11
1332.7776727955629
 21
1282.5347064913362
  0
LINE
  8
_0-0_
  6
CONTINUOUS
 62
    7
 10
1332.7776727955629
 20
1522.824507572022
 11
1332.7776727955629
 21
1282.5347064913362
  0
LINE
  8
_0-0_
  6
CONTINUOUS
 62
    7
 10
1245.0164787657118
 20
1522.824507572022
 11
1245.0164787657118
 21
1282.5347064913362
  0
TEXT
  8
_0-0_
 62
    7
 10
1279.6333321262007
 20
1506.3960284687478
 40
24.5
 41
1
 50
-90
  1
Y-Motor-R Ver.5.0
  0
TEXT
  8
_2-4_
 62
    7
 10
1961.4438225538966
 20
264.05902306648591
 40
40
 41
1
 50
0
  1
1
  0
TEXT
  8
_0-0_
 62
    7
 10
1510.5646359583957
 20
55.807578008915243
 40
64
 41
1
 50
0
  1
FABOOL Laser Co2
  0
TEXT
  8
_0-0_
 62
    7
 10
1941.4438225538968
 20
154.96811397557661
 40
40
 41
1
 50
0
  1
5.0
  0
TEXT
  8
_0-0_
 62
    7
 10
1931.7974263179744
 20
210.06973848069751
 40
40
 41
1
 50
0
  1
Ver.
  0
TEXT
  8
_0-0_
 62
    7
 10
1959.4776119402986
 20
262.41873963515752
 40
40
 41
1
 50
0
  1
2
  0
TEXT
  8
_0-0_
 62
    7
 10
2170.8529645772787
 20
55.318919791522603
 40
70
 41
1
 50
0
  1
2018/05/06
  0
TEXT
  8
_0-0_
 62
    7
 10
2290.8259251802765
 20
154.70773855156676
 40
40
 41
1
 50
0
  1
日付
  0
TEXT
  8
_0-0_
 62
    7
 10
1587.4328358208954
 20
389.00000000000011
 40
35
 41
1
 50
0
  1
Y-Motor-R Cable_ver.5.0
  0
LINE
  8
_2-4_
  6
CONTINUOUS
 62
    7
 10
1332.7776727955629
 20
1442.824507572022
 11
1733.5688449146601
 21
1442.824507572022
  0
LINE
  8
_2-4_
  6
CONTINUOUS
 62
    7
 10
1052.019481006427
 20
1442.824507572022
 11
1245.0164787657118
 21
1442.824507572022
  0
TEXT
  8
_0-0_
 62
    7
 10
1362.5673419739105
 20
1920.5498560258588
 40
64
 41
1
 50
0
  1
2080±30
  0
LINE
  8
_2-4_
  6
CONTINUOUS
 62
    7
 10
273.26407180055571
 20
1948.257519230011
 11
1347.9618963608686
 21
1948.257519230011
  0
LINE
  8
_2-4_
  6
CONTINUOUS
 62
    7
 10
2633.086947332592
 20
1948.257519230011
 11
1631.9137436003873
 21
1948.257519230011
  0
TEXT
  8
_2-4_
 62
    7
 10
388.65671641791062
 20
365.87720488466789
 40
40
 41
1
 50
0
  1
 3.5Φ-20mm
  0
TEXT
  8
_2-4_
 62
    7
 10
388.65671641791062
 20
311.33175033921327
 40
40
 41
1
 50
0
  1
 3.5Φ-10mm
  0
TEXT
  8
_2-4_
 62
    7
 10
1120.6645693129935
 20
366.01413408108692
 40
40
 41
1
 50
0
  1
2
  0
TEXT
  8
_0-0_
 62
    7
 10
1115.9416813472592
 20
209.47790523201073
 40
40
 41
1
 50
0
  1
2
  0
ENDSEC
  0
EOF
