  0
SECTION
  2
HEADER
  9
$ACADVER
  1
AC1009
  9
$INSBASE
 10
0
 20
0
 30
0
  9
$EXTMIN
 10
0
 20
0
  9
$EXTMAX
 10
2940
 20
2079
  9
$LIMMIN
 10
0
 20
0
  9
$LIMMAX
 10
2940
 20
2079
  9
$LTSCALE
 40
7
  0
ENDSEC
  0
SECTION
  2
TABLES
  0
TABLE
  2
LTYPE
 70
     9
  0
LTYPE
  2
CONTINUOUS
 70
    64
  3
実線
 72
    65
 73
     0
 40
0.0
  0
LTYPE
  2
DASHED1
 70
    64
  3
--  --  --  --  --  --  --  --  
 72
    65
 73
     2
 40
2.5
 49
1.25
 49
-1.25
  0
LTYPE
  2
DASHED2
 70
    64
  3
----    ----    ----    ----    
 72
    65
 73
     2
 40
5.0
 49
2.5
 49
-2.5
  0
LTYPE
  2
DASHED3
 70
    64
  3
------  ------  ------  ------  
 72
    65
 73
     2
 40
5.0
 49
3.75
 49
-1.25
  0
LTYPE
  2
CENTER1
 70
    64
  3
----- - ----- - ----- - ----- - 
 72
    65
 73
     4
 40
10.0
 49
6.25
 49
-1.25
 49
1.25
 49
-1.25
  0
LTYPE
  2
CENTER2
 70
    64
  3
----------  --  ----------  --  
 72
    65
 73
     4
 40
20.0
 49
12.5
 49
-2.5
 49
2.5
 49
-2.5
  0
LTYPE
  2
PHANTOM1
 70
    64
  3
--- - - --- - - --- - - --- - - 
 72
    65
 73
     6
 40
10.0
 49
3.25
 49
-1.25
 49
1.25
 49
-1.25
 49
1.25
 49
-1.25
  0
LTYPE
  2
PHANTOM2
 70
    64
  3
--------  -  -  --------  -  -  
 72
    65
 73
     6
 40
20.0
 49
10.0
 49
-2.5
 49
1.25
 49
-2.5
 49
1.25
 49
-2.5
  0
LTYPE
  2
DOT
 70
    64
  3
-   -   -   -   -   -   -   -   
 72
    65
 73
     2
 40
2.5
 49
0.625
 49
-1.875
  0
LTYPE
  2
DUMMY
 70
    64
  3
ダミー
 72
    65
 73
     0
 40
0.0
  0
LTYPE
  2
RAND1
 70
    64
  3
ランダム線1
 72
    65
 73
     4
 40
10.0
 49
1.0
 49
-2.0
 49
3.0
 49
-4.0
  0
LTYPE
  2
RAND2
 70
    64
  3
ランダム線2
 72
    65
 73
     4
 40
14.0
 49
2.0
 49
-3.0
 49
4.0
 49
-5.0
  0
LTYPE
  2
RAND3
 70
    64
  3
ランダム線3
 72
    65
 73
     4
 40
18.0
 49
3.0
 49
-4.0
 49
5.0
 49
-6.0
  0
LTYPE
  2
RAND4
 70
    64
  3
ランダム線4
 72
    65
 73
     4
 40
22.0
 49
4.0
 49
-5.0
 49
6.0
 49
-7.0
  0
LTYPE
  2
RAND5
 70
    64
  3
ランダム線5
 72
    65
 73
     4
 40
26.0
 49
5.0
 49
-6.0
 49
7.0
 49
-8.0
  0
LTYPE
  2
LONG1
 70
    64
  3
----------  --  ----------  --  
 72
    65
 73
     4
 40
40.0
 49
32.5
 49
-2.5
 49
2.5
 49
-2.5
  0
LTYPE
  2
LONG2
 70
    64
  3
--------  -  -  --------  -  -  
 72
    65
 73
     6
 40
40.0
 49
30.0
 49
-2.5
 49
1.25
 49
-2.5
 49
1.25
 49
-2.5
  0
LTYPE
  2
LONG3
 70
    64
  3
+++++++++++++++..+++++++++++++++
 72
    65
 73
     2
 40
40.0
 49
37.5
 49
-2.5
  0
LTYPE
  2
LONG4
 70
    64
  3
+++++++++++++++..+++++++++++++++
 72
    65
 73
     2
 40
80.0
 49
75.0
 49
-5.0
  0
LTYPE
  2
LONG5
 70
    64
  3
----------  --  ----------  --  
 72
    65
 73
     4
 40
60.0
 49
37.5
 49
-7.5
 49
7.5
 49
-7.5
  0
LTYPE
  2
dashed
 70
   64
  3
-------   -------------   ------
 72
   65
 73
    2
 40
7.5
 49
6
 49
-1.5
  0
LTYPE
  2
dashed_spaced
 70
   64
  3
----        --------        ----
 72
   65
 73
    2
 40
12
 49
6
 49
-6
  0
LTYPE
  2
long_dashed_dotted
 70
   64
  3
------------- --- --------------
 72
   65
 73
    4
 40
15.25
 49
12
 49
-1.5
 49
0.25
 49
-1.5
  0
LTYPE
  2
long_dashed_double-dotted
 70
   64
  3
----------- --- --- ------------
 72
   65
 73
    6
 40
17
 49
12
 49
-1.5
 49
0.25
 49
-1.5
 49
0.25
 49
-1.5
  0
LTYPE
  2
long_dashed_triplicate-dotted
 70
   64
  3
--------- --- --- --- ----------
 72
   65
 73
    8
 40
18.75
 49
12
 49
-1.5
 49
0.25
 49
-1.5
 49
0.25
 49
-1.5
 49
0.25
 49
-1.5
  0
LTYPE
  2
dotted
 70
   64
  3
   -       -       -       -    
 72
   65
 73
    2
 40
1.75
 49
0.25
 49
-1.5
  0
LTYPE
  2
chain
 70
   64
  3
-------------- -- --------------
 72
   65
 73
    4
 40
18.5
 49
12
 49
-1.5
 49
3.5
 49
-1.5
  0
LTYPE
  2
chain_double_dash
 70
   64
  3
------------ -- -- -------------
 72
   65
 73
    6
 40
23.5
 49
12
 49
-1.5
 49
3.5
 49
-1.5
 49
3.5
 49
-1.5
  0
LTYPE
  2
dashed_dotted
 70
   64
  3
-----------     -     ----------
 72
   65
 73
    4
 40
9.25
 49
6
 49
-1.5
 49
0.25
 49
-1.5
  0
LTYPE
  2
double-dashed_dotted
 70
   64
  3
------   -----------   -   -----
 72
   65
 73
    6
 40
16.75
 49
6
 49
-1.5
 49
6
 49
-1.5
 49
0.25
 49
-1.5
  0
LTYPE
  2
dashed_double-dotted
 70
   64
  3
---------    -    -    ---------
 72
   65
 73
    6
 40
11
 49
6
 49
-1.5
 49
0.25
 49
-1.5
 49
0.25
 49
-1.5
  0
LTYPE
  2
double-dashed_double-dotted
 70
   64
  3
-----   ---------   -   -   ----
 72
   65
 73
    8
 40
18.5
 49
6
 49
-1.5
 49
6
 49
-1.5
 49
0.25
 49
-1.5
 49
0.25
 49
-1.5
  0
LTYPE
  2
dashed_triplicate-dotted
 70
   64
  3
-------    -    -    -    ------
 72
   65
 73
    8
 40
12.75
 49
6
 49
-1.5
 49
0.25
 49
-1.5
 49
0.25
 49
-1.5
 49
0.25
 49
-1.5
  0
LTYPE
  2
double-dashed_triplicate-dotted
 70
   64
  3
-----  ---------  -  -  -  -----
 72
   65
 73
   10
 40
20.25
 49
6
 49
-1.5
 49
6
 49
-1.5
 49
0.25
 49
-1.5
 49
0.25
 49
-1.5
 49
0.25
 49
-1.5
  0
LTYPE
  2
undefined
 70
   64
  3
--------------------------------
 72
   65
 73
    0
 40
0
  0
LTYPE
  2
_
 70
   64
  3
                                
 72
   65
 73
    0
 40
0
  0
LTYPE
  2
__18
 70
   64
  3
                                
 72
   65
 73
    0
 40
0
  0
LTYPE
  2
__19
 70
   64
  3
                                
 72
   65
 73
    0
 40
0
  0
LTYPE
  2
__20
 70
   64
  3
                                
 72
   65
 73
    0
 40
0
  0
LTYPE
  2
__21
 70
   64
  3
                                
 72
   65
 73
    0
 40
0
  0
LTYPE
  2
__22
 70
   64
  3
                                
 72
   65
 73
    0
 40
0
  0
LTYPE
  2
__23
 70
   64
  3
                                
 72
   65
 73
    0
 40
0
  0
LTYPE
  2
__24
 70
   64
  3
                                
 72
   65
 73
    0
 40
0
  0
LTYPE
  2
__25
 70
   64
  3
                                
 72
   65
 73
    0
 40
0
  0
LTYPE
  2
__26
 70
   64
  3
                                
 72
   65
 73
    0
 40
0
  0
LTYPE
  2
__27
 70
   64
  3
                                
 72
   65
 73
    0
 40
0
  0
LTYPE
  2
__28
 70
   64
  3
                                
 72
   65
 73
    0
 40
0
  0
LTYPE
  2
__29
 70
   64
  3
                                
 72
   65
 73
    0
 40
0
  0
LTYPE
  2
__30
 70
   64
  3
                                
 72
   65
 73
    0
 40
0
  0
LTYPE
  2
__31
 70
   64
  3
                                
 72
   65
 73
    0
 40
0
  0
LTYPE
  2
__32
 70
   64
  3
                                
 72
   65
 73
    0
 40
0
  0
ENDTAB
  0
TABLE
  2
STYLE
  5
3
100
AcDbSymbolTable
 70
     1
  0
STYLE
  5
10
100
AcDbSymbolTableRecord
100
AcDbTextStyleTableRecord
  2
STANDARD
 70
     0
 40
0.0
 41
1.0
 50
0.0
 71
     0
 42
0.2
  3
txt
  4
bigfont.shx
  0
STYLE
  5
26
100
AcDbSymbolTableRecord
100
AcDbTextStyleTableRecord
  2
TATEGAKI
 70
    68
 40
0.0
 41
1.0
 50
0.0
 71
     0
 42
1.0
  3
txt
  4
bigfont.shx
  0
ENDTAB
  0
TABLE
  2
LAYER
 70
    3
  0
LAYER
  2
_0-0_
 70
   64
 62
    7
  6
CONTINUOUS
  0
LAYER
  2
_2-7_
 70
   64
 62
    7
  6
CONTINUOUS
  0
LAYER
  2
ADD_LINE
 70
   64
 62
    7
  6
CONTINUOUS
  0
ENDTAB
  0
ENDSEC
  0
SECTION
  2
BLOCKS
  0
ENDSEC
  0
SECTION
  2
ENTITIES
  0
LINE
  8
_0-0_
  6
CONTINUOUS
 62
    7
 10
1230.0373134328354
 20
311.33175033921316
 11
2072.2201492537306
 21
311.33175033921316
  0
LINE
  8
_2-7_
  6
CONTINUOUS
 62
    7
 10
1145.3871465140819
 20
1513.1276008329978
 11
1145.3871465140819
 21
1734.5252442750766
  0
LINE
  8
_2-7_
  6
CONTINUOUS
 62
    7
 10
1952.3096447506714
 20
1506.2625256981332
 11
1951.7551958953627
 21
1506.8169745534417
  0
LINE
  8
_2-7_
  6
CONTINUOUS
 62
    7
 10
1145.3871465140819
 20
1506.8169745534435
 11
1826.9365104223148
 21
1506.8169745534435
  0
TEXT
  8
_2-7_
 62
    7
 10
123.85087146331071
 20
590.34181717776335
 40
40
 41
1
 50
0
  1
ケーブル
  0
TEXT
  8
_2-7_
 62
    7
 10
114.44788638868303
 20
533.92390673000227
 40
40
 41
1
 50
0
  1
コネクター
  0
TEXT
  8
_2-7_
 62
    7
 10
128.55236400062375
 20
477.50599628224097
 40
40
 41
1
 50
0
  1
マイクロSW
  0
TEXT
  8
_2-7_
 62
    7
 10
107.87705727400549
 20
427.47454545471277
 40
40
 41
1
 50
0
  1
収縮チューブ
  0
TEXT
  8
_2-7_
 62
    7
 10
101.60840055758757
 20
371.05663500695169
 40
40
 41
1
 50
0
  1
収縮チューブ
  0
TEXT
  8
_2-7_
 62
    7
 10
95.33974384116965
 20
320.90738127560803
 40
40
 41
1
 50
0
  1
表示
  0
LINE
  8
_2-7_
  6
CONTINUOUS
 62
    7
 10
894.64087785736547
 20
1493.1671680305026
 11
894.64087785736547
 21
1440.4667810763838
  0
LINE
  8
_2-7_
  6
CONTINUOUS
 62
    7
 10
1145.3871465140819
 20
1506.8169745534435
 11
1145.3871465140819
 21
1426.8169745534437
  0
LINE
  8
_2-7_
  6
CONTINUOUS
 62
    7
 10
1020.0140121857237
 20
1493.1671680305026
 11
894.64087785736547
 21
1493.1671680305026
  0
LINE
  8
_2-7_
  6
CONTINUOUS
 62
    7
 10
1020.0140121857237
 20
1440.4667810763838
 11
894.64087785736547
 21
1440.4667810763838
  0
LINE
  8
_2-7_
  6
CONTINUOUS
 62
    7
 10
1020.0140121857237
 20
1440.4667810763838
 11
1020.0140121857237
 21
1426.8169745534437
  0
LINE
  8
_2-7_
  6
CONTINUOUS
 62
    7
 10
1138.5583597732671
 20
1426.8169745534447
 11
1145.3871465140805
 21
1433.6457612942579
  0
LINE
  8
_2-7_
  6
CONTINUOUS
 62
    7
 10
1124.4162241495349
 20
1426.8169745534458
 11
1145.3871465140792
 21
1447.7878969179901
  0
LINE
  8
_2-7_
  6
CONTINUOUS
 62
    7
 10
1110.2740885257972
 20
1426.8169745534417
 11
1145.3871465140835
 21
1461.930032541728
  0
LINE
  8
_2-7_
  6
CONTINUOUS
 62
    7
 10
1096.1319529020848
 20
1426.816974553444
 11
1145.387146514081
 21
1476.0721681654404
  0
LINE
  8
_2-7_
  6
CONTINUOUS
 62
    7
 10
1081.9898172783471
 20
1426.8169745534401
 11
1145.387146514081
 21
1490.2143037891738
  0
LINE
  8
_2-7_
  6
CONTINUOUS
 62
    7
 10
1067.8476816546149
 20
1426.8169745534412
 11
1145.3871465140842
 21
1504.3564394129107
  0
LINE
  8
_2-7_
  6
CONTINUOUS
 62
    7
 10
1053.7055460308827
 20
1426.8169745534424
 11
1133.7055460308825
 21
1506.8169745534417
  0
LINE
  8
_2-7_
  6
CONTINUOUS
 62
    7
 10
1039.5634104071505
 20
1426.8169745534437
 11
1119.5634104071503
 21
1506.8169745534428
  0
LINE
  8
_2-7_
  6
CONTINUOUS
 62
    7
 10
1025.4212747834185
 20
1426.8169745534447
 11
1105.4212747834181
 21
1506.816974553444
  0
LINE
  8
_2-7_
  6
CONTINUOUS
 62
    7
 10
1020.0140121857261
 20
1435.5518475794854
 11
1091.2791391596836
 21
1506.8169745534428
  0
LINE
  8
_2-7_
  6
CONTINUOUS
 62
    7
 10
1010.7868100588903
 20
1440.4667810763833
 11
1077.1370035359485
 21
1506.8169745534415
  0
LINE
  8
_2-7_
  6
CONTINUOUS
 62
    7
 10
996.64467443517776
 20
1440.4667810763856
 11
1062.9948679122358
 21
1506.816974553444
  0
LINE
  8
_2-7_
  6
CONTINUOUS
 62
    7
 10
982.50253881144545
 20
1440.4667810763867
 11
1048.8527322885034
 21
1506.8169745534451
  0
LINE
  8
_2-7_
  6
CONTINUOUS
 62
    7
 10
968.36040318770779
 20
1440.4667810763826
 11
1034.7105966647659
 21
1506.8169745534406
  0
LINE
  8
_2-7_
  6
CONTINUOUS
 62
    7
 10
954.21826756397581
 20
1440.4667810763838
 11
1006.9186545180921
 21
1493.1671680305003
  0
LINE
  8
_2-7_
  6
CONTINUOUS
 62
    7
 10
1020.0140121857251
 20
1506.2625256981332
 11
1020.5684610410335
 21
1506.8169745534417
  0
LINE
  8
_2-7_
  6
CONTINUOUS
 62
    7
 10
940.0761319402435
 20
1440.4667810763849
 11
992.77651889435992
 21
1493.1671680305014
  0
LINE
  8
_2-7_
  6
CONTINUOUS
 62
    7
 10
925.93399631650755
 20
1440.4667810763822
 11
978.63438327062579
 21
1493.1671680305008
  0
LINE
  8
_2-7_
  6
CONTINUOUS
 62
    7
 10
911.79186069277398
 20
1440.4667810763813
 11
964.49224764689029
 21
1493.1671680304985
  0
LINE
  8
_2-7_
  6
CONTINUOUS
 62
    7
 10
897.64972506904178
 20
1440.4667810763826
 11
950.35011202315809
 21
1493.1671680304992
  0
LINE
  8
_2-7_
  6
CONTINUOUS
 62
    7
 10
894.64087785736569
 20
1451.6000694884224
 11
936.20797639944021
 21
1493.1671680304969
  0
LINE
  8
_2-7_
  6
CONTINUOUS
 62
    7
 10
894.64087785736638
 20
1465.7422051121562
 11
922.06584077570824
 21
1493.167168030498
  0
LINE
  8
_2-7_
  6
CONTINUOUS
 62
    7
 10
894.64087785736865
 20
1479.8843407358918
 11
907.92370515197581
 21
1493.1671680304992
  0
LINE
  8
_2-7_
  6
CONTINUOUS
 62
    7
 10
1138.5583597732671
 20
1426.8169745534447
 11
1145.3871465140805
 21
1433.6457612942579
  0
LINE
  8
_2-7_
  6
CONTINUOUS
 62
    7
 10
1124.4162241495349
 20
1426.8169745534458
 11
1145.3871465140792
 21
1447.7878969179901
  0
LINE
  8
_2-7_
  6
CONTINUOUS
 62
    7
 10
1110.2740885257972
 20
1426.8169745534417
 11
1145.3871465140835
 21
1461.930032541728
  0
LINE
  8
_2-7_
  6
CONTINUOUS
 62
    7
 10
1096.1319529020848
 20
1426.816974553444
 11
1145.387146514081
 21
1476.0721681654404
  0
LINE
  8
_2-7_
  6
CONTINUOUS
 62
    7
 10
1081.9898172783471
 20
1426.8169745534401
 11
1145.387146514081
 21
1490.2143037891738
  0
LINE
  8
_2-7_
  6
CONTINUOUS
 62
    7
 10
1067.8476816546149
 20
1426.8169745534412
 11
1145.3871465140842
 21
1504.3564394129107
  0
LINE
  8
_2-7_
  6
CONTINUOUS
 62
    7
 10
1053.7055460308827
 20
1426.8169745534424
 11
1133.7055460308825
 21
1506.8169745534417
  0
LINE
  8
_2-7_
  6
CONTINUOUS
 62
    7
 10
1039.5634104071505
 20
1426.8169745534437
 11
1119.5634104071503
 21
1506.8169745534428
  0
LINE
  8
_2-7_
  6
CONTINUOUS
 62
    7
 10
1025.4212747834185
 20
1426.8169745534447
 11
1105.4212747834181
 21
1506.816974553444
  0
LINE
  8
_2-7_
  6
CONTINUOUS
 62
    7
 10
1020.0140121857261
 20
1435.5518475794854
 11
1091.2791391596836
 21
1506.8169745534428
  0
LINE
  8
_2-7_
  6
CONTINUOUS
 62
    7
 10
1010.7868100588903
 20
1440.4667810763833
 11
1077.1370035359485
 21
1506.8169745534415
  0
LINE
  8
_2-7_
  6
CONTINUOUS
 62
    7
 10
996.64467443517776
 20
1440.4667810763856
 11
1062.9948679122358
 21
1506.816974553444
  0
LINE
  8
_2-7_
  6
CONTINUOUS
 62
    7
 10
982.50253881144545
 20
1440.4667810763867
 11
1048.8527322885034
 21
1506.8169745534451
  0
LINE
  8
_2-7_
  6
CONTINUOUS
 62
    7
 10
968.36040318770779
 20
1440.4667810763826
 11
1034.7105966647659
 21
1506.8169745534406
  0
LINE
  8
_2-7_
  6
CONTINUOUS
 62
    7
 10
954.21826756397581
 20
1440.4667810763838
 11
1006.9186545180921
 21
1493.1671680305003
  0
LINE
  8
_2-7_
  6
CONTINUOUS
 62
    7
 10
1020.0140121857251
 20
1506.2625256981332
 11
1020.5684610410335
 21
1506.8169745534417
  0
LINE
  8
_2-7_
  6
CONTINUOUS
 62
    7
 10
940.0761319402435
 20
1440.4667810763849
 11
992.77651889435992
 21
1493.1671680305014
  0
LINE
  8
_2-7_
  6
CONTINUOUS
 62
    7
 10
925.93399631650755
 20
1440.4667810763822
 11
978.63438327062579
 21
1493.1671680305008
  0
LINE
  8
_2-7_
  6
CONTINUOUS
 62
    7
 10
911.79186069277398
 20
1440.4667810763813
 11
964.49224764689029
 21
1493.1671680304985
  0
LINE
  8
_2-7_
  6
CONTINUOUS
 62
    7
 10
897.64972506904178
 20
1440.4667810763826
 11
950.35011202315809
 21
1493.1671680304992
  0
LINE
  8
_2-7_
  6
CONTINUOUS
 62
    7
 10
894.64087785736569
 20
1451.6000694884224
 11
936.20797639944021
 21
1493.1671680304969
  0
LINE
  8
_2-7_
  6
CONTINUOUS
 62
    7
 10
894.64087785736638
 20
1465.7422051121562
 11
922.06584077570824
 21
1493.167168030498
  0
LINE
  8
_2-7_
  6
CONTINUOUS
 62
    7
 10
1020.0140121857237
 20
1426.8169745534437
 11
1145.3871465140819
 21
1426.8169745534437
  0
LINE
  8
_2-7_
  6
CONTINUOUS
 62
    7
 10
1826.9365104223148
 20
1506.8169745534435
 11
1826.9365104223148
 21
1426.8169745534437
  0
LINE
  8
_2-7_
  6
CONTINUOUS
 62
    7
 10
2077.6827790790317
 20
1493.1671680305026
 11
2077.6827790790317
 21
1440.4667810763838
  0
LINE
  8
_2-7_
  6
CONTINUOUS
 62
    7
 10
1952.3096447506732
 20
1493.1671680305026
 11
2077.6827790790317
 21
1493.1671680305026
  0
LINE
  8
_2-7_
  6
CONTINUOUS
 62
    7
 10
1952.3096447506732
 20
1440.4667810763838
 11
2077.6827790790317
 21
1440.4667810763838
  0
LINE
  8
_2-7_
  6
CONTINUOUS
 62
    7
 10
1833.7652971631296
 20
1426.8169745534447
 11
1826.9365104223166
 21
1433.6457612942579
  0
LINE
  8
_2-7_
  6
CONTINUOUS
 62
    7
 10
1847.907432786862
 20
1426.8169745534458
 11
1826.9365104223177
 21
1447.7878969179901
  0
LINE
  8
_2-7_
  6
CONTINUOUS
 62
    7
 10
1862.0495684105995
 20
1426.8169745534417
 11
1826.9365104223134
 21
1461.930032541728
  0
LINE
  8
_2-7_
  6
CONTINUOUS
 62
    7
 10
1876.1917040343124
 20
1426.816974553444
 11
1826.9365104223157
 21
1476.0721681654404
  0
LINE
  8
_2-7_
  6
CONTINUOUS
 62
    7
 10
1890.3338396580498
 20
1426.8169745534401
 11
1826.9365104223157
 21
1490.2143037891738
  0
LINE
  8
_2-7_
  6
CONTINUOUS
 62
    7
 10
1904.4759752817818
 20
1426.8169745534412
 11
1826.9365104223129
 21
1504.3564394129107
  0
LINE
  8
_2-7_
  6
CONTINUOUS
 62
    7
 10
1918.6181109055142
 20
1426.8169745534424
 11
1838.6181109055142
 21
1506.8169745534417
  0
LINE
  8
_2-7_
  6
CONTINUOUS
 62
    7
 10
1932.7602465292466
 20
1426.8169745534437
 11
1852.7602465292466
 21
1506.8169745534428
  0
LINE
  8
_2-7_
  6
CONTINUOUS
 62
    7
 10
1946.9023821529786
 20
1426.8169745534447
 11
1866.9023821529788
 21
1506.816974553444
  0
LINE
  8
_2-7_
  6
CONTINUOUS
 62
    7
 10
1952.3096447506709
 20
1435.5518475794854
 11
1881.0445177767133
 21
1506.8169745534428
  0
LINE
  8
_2-7_
  6
CONTINUOUS
 62
    7
 10
1961.5368468775068
 20
1440.4667810763833
 11
1895.1866534004484
 21
1506.8169745534415
  0
LINE
  8
_2-7_
  6
CONTINUOUS
 62
    7
 10
1975.6789825012193
 20
1440.4667810763856
 11
1909.3287890241613
 21
1506.816974553444
  0
LINE
  8
_2-7_
  6
CONTINUOUS
 62
    7
 10
1989.8211181249512
 20
1440.4667810763867
 11
1923.4709246478933
 21
1506.8169745534451
  0
LINE
  8
_2-7_
  6
CONTINUOUS
 62
    7
 10
2003.9632537486891
 20
1440.4667810763826
 11
1937.6130602716307
 21
1506.8169745534406
  0
LINE
  8
_2-7_
  6
CONTINUOUS
 62
    7
 10
2018.1053893724215
 20
1440.4667810763838
 11
1965.4050024183048
 21
1493.1671680305003
  0
LINE
  8
_2-7_
  6
CONTINUOUS
 62
    7
 10
2032.2475249961535
 20
1440.4667810763849
 11
1979.5471380420367
 21
1493.1671680305014
  0
LINE
  8
_2-7_
  6
CONTINUOUS
 62
    7
 10
2046.3896606198896
 20
1440.4667810763822
 11
1993.6892736657712
 21
1493.1671680305008
  0
LINE
  8
_2-7_
  6
CONTINUOUS
 62
    7
 10
2060.5317962436229
 20
1440.4667810763813
 11
2007.8314092895064
 21
1493.1671680304985
  0
LINE
  8
_2-7_
  6
CONTINUOUS
 62
    7
 10
2074.6739318673553
 20
1440.4667810763826
 11
2021.973544913239
 21
1493.1671680304992
  0
LINE
  8
_2-7_
  6
CONTINUOUS
 62
    7
 10
2077.6827790790317
 20
1451.6000694884224
 11
2036.1156805369569
 21
1493.1671680304969
  0
LINE
  8
_2-7_
  6
CONTINUOUS
 62
    7
 10
2077.6827790790303
 20
1465.7422051121562
 11
2050.2578161606889
 21
1493.167168030498
  0
LINE
  8
_2-7_
  6
CONTINUOUS
 62
    7
 10
2077.6827790790285
 20
1479.8843407358918
 11
2064.3999517844213
 21
1493.1671680304992
  0
LINE
  8
_2-7_
  6
CONTINUOUS
 62
    7
 10
1833.7652971631296
 20
1426.8169745534447
 11
1826.9365104223166
 21
1433.6457612942579
  0
LINE
  8
_2-7_
  6
CONTINUOUS
 62
    7
 10
1847.907432786862
 20
1426.8169745534458
 11
1826.9365104223177
 21
1447.7878969179901
  0
LINE
  8
_2-7_
  6
CONTINUOUS
 62
    7
 10
1862.0495684105995
 20
1426.8169745534417
 11
1826.9365104223134
 21
1461.930032541728
  0
LINE
  8
_2-7_
  6
CONTINUOUS
 62
    7
 10
1876.1917040343124
 20
1426.816974553444
 11
1826.9365104223157
 21
1476.0721681654404
  0
LINE
  8
_2-7_
  6
CONTINUOUS
 62
    7
 10
1890.3338396580498
 20
1426.8169745534401
 11
1826.9365104223157
 21
1490.2143037891738
  0
LINE
  8
_2-7_
  6
CONTINUOUS
 62
    7
 10
1904.4759752817818
 20
1426.8169745534412
 11
1826.9365104223129
 21
1504.3564394129107
  0
LINE
  8
_2-7_
  6
CONTINUOUS
 62
    7
 10
1918.6181109055142
 20
1426.8169745534424
 11
1838.6181109055142
 21
1506.8169745534417
  0
LINE
  8
_2-7_
  6
CONTINUOUS
 62
    7
 10
1932.7602465292466
 20
1426.8169745534437
 11
1852.7602465292466
 21
1506.8169745534428
  0
LINE
  8
_2-7_
  6
CONTINUOUS
 62
    7
 10
1946.9023821529786
 20
1426.8169745534447
 11
1866.9023821529788
 21
1506.816974553444
  0
LINE
  8
_2-7_
  6
CONTINUOUS
 62
    7
 10
1952.3096447506709
 20
1435.5518475794854
 11
1881.0445177767133
 21
1506.8169745534428
  0
LINE
  8
_2-7_
  6
CONTINUOUS
 62
    7
 10
1961.5368468775068
 20
1440.4667810763833
 11
1895.1866534004484
 21
1506.8169745534415
  0
LINE
  8
_2-7_
  6
CONTINUOUS
 62
    7
 10
1975.6789825012193
 20
1440.4667810763856
 11
1909.3287890241613
 21
1506.816974553444
  0
LINE
  8
_2-7_
  6
CONTINUOUS
 62
    7
 10
1989.8211181249512
 20
1440.4667810763867
 11
1923.4709246478933
 21
1506.8169745534451
  0
LINE
  8
_2-7_
  6
CONTINUOUS
 62
    7
 10
2003.9632537486891
 20
1440.4667810763826
 11
1937.6130602716307
 21
1506.8169745534406
  0
LINE
  8
_2-7_
  6
CONTINUOUS
 62
    7
 10
2018.1053893724215
 20
1440.4667810763838
 11
1965.4050024183048
 21
1493.1671680305003
  0
LINE
  8
_2-7_
  6
CONTINUOUS
 62
    7
 10
1952.3096447506714
 20
1506.2625256981332
 11
1951.7551958953627
 21
1506.8169745534417
  0
LINE
  8
_2-7_
  6
CONTINUOUS
 62
    7
 10
2032.2475249961535
 20
1440.4667810763849
 11
1979.5471380420367
 21
1493.1671680305014
  0
LINE
  8
_2-7_
  6
CONTINUOUS
 62
    7
 10
2046.3896606198896
 20
1440.4667810763822
 11
1993.6892736657712
 21
1493.1671680305008
  0
LINE
  8
_2-7_
  6
CONTINUOUS
 62
    7
 10
2060.5317962436229
 20
1440.4667810763813
 11
2007.8314092895064
 21
1493.1671680304985
  0
LINE
  8
_2-7_
  6
CONTINUOUS
 62
    7
 10
2074.6739318673553
 20
1440.4667810763826
 11
2021.973544913239
 21
1493.1671680304992
  0
LINE
  8
_2-7_
  6
CONTINUOUS
 62
    7
 10
2077.6827790790317
 20
1451.6000694884224
 11
2036.1156805369569
 21
1493.1671680304969
  0
LINE
  8
_2-7_
  6
CONTINUOUS
 62
    7
 10
2077.6827790790303
 20
1465.7422051121562
 11
2050.2578161606889
 21
1493.167168030498
  0
LINE
  8
_2-7_
  6
CONTINUOUS
 62
    7
 10
2077.6827790790285
 20
1479.8843407358918
 11
2064.3999517844213
 21
1493.1671680304992
  0
LINE
  8
_2-7_
  6
CONTINUOUS
 62
    7
 10
1826.9365104223129
 20
1506.8169745534435
 11
1951.7551958953627
 21
1506.8169745534435
  0
LINE
  8
_2-7_
  6
CONTINUOUS
 62
    7
 10
1102.7200457659224
 20
1445.2972498930237
 11
1262.570792034579
 21
1338.7300857139194
  0
LINE
  8
_2-7_
  6
CONTINUOUS
 62
    7
 10
1102.7200457659224
 20
1445.2972498930237
 11
1131.1380210612485
 21
1435.6837864113104
  0
LINE
  8
_2-7_
  6
CONTINUOUS
 62
    7
 10
1102.7200457659224
 20
1445.2972498930237
 11
1122.5240025549369
 21
1422.7627586518429
  0
TEXT
  8
_2-7_
 62
    7
 10
989.67206745115459
 20
1632.1210190443153
 40
40
 41
1
 50
0
  1
20
  0
TEXT
  8
_2-7_
 62
    7
 10
1054.4481868541393
 20
1517.195645909987
 40
40
 41
1
 50
0
  1
10
  0
TEXT
  8
_2-7_
 62
    7
 10
1874.713526820972
 20
1524.7412512167866
 40
40
 41
1
 50
0
  1
10
  0
LINE
  8
_2-7_
  6
CONTINUOUS
 62
    7
 10
1826.9365104223148
 20
1426.8169745534437
 11
1952.3096447506732
 21
1426.8169745534437
  0
LINE
  8
_2-7_
  6
CONTINUOUS
 62
    7
 10
1952.3096447506732
 20
1440.4667810763838
 11
1952.3096447506732
 21
1426.8169745534437
  0
TEXT
  8
_2-7_
 62
    7
 10
595.67362519165158
 20
1552.1722803270786
 40
40
 41
1
 50
0
  1
黒
  0
LINE
  8
_2-7_
  6
CONTINUOUS
 62
    7
 10
517.85711562326696
 20
1556.4804099358771
 11
488.60338427998352
 21
1556.4804099358771
  0
LINE
  8
_2-7_
  6
CONTINUOUS
 62
    7
 10
526.21532457849116
 20
1554.3908576970712
 11
526.21532457849116
 21
1525.1371263537876
  0
LINE
  8
_2-7_
  6
CONTINUOUS
 62
    7
 10
526.21532457849116
 20
1556.4804099358771
 11
526.21532457849116
 21
1378.8684696373698
  0
LINE
  8
_2-7_
  6
CONTINUOUS
 62
    7
 10
526.21532457849116
 20
1556.4804099358771
 11
423.82726487699796
 21
1556.4804099358771
  0
CIRCLE
  8
_2-7_
  6
CONTINUOUS
 62
    7
 10
510.19542408097857
 20
1506.3311562045337
 40
12.000000000000002
  0
CIRCLE
  8
_2-7_
  6
CONTINUOUS
 62
    7
 10
510.19542408097857
 20
1429.0177233687132
 40
12.000000000000002
  0
LINE
  8
_2-7_
  6
CONTINUOUS
 62
    7
 10
423.82726487699796
 20
1556.4804099358771
 11
423.82726487699796
 21
1530.0127482443347
  0
LINE
  8
_2-7_
  6
CONTINUOUS
 62
    7
 10
433.57850865809303
 20
1499.3659820751805
 11
424.03364040675734
 21
1499.3659820751805
  0
LINE
  8
_2-7_
  6
CONTINUOUS
 62
    7
 10
424.03364040675734
 20
1517.4754348114989
 11
424.03364040675734
 21
1499.3659820751805
  0
LINE
  8
_2-7_
  6
CONTINUOUS
 62
    7
 10
433.57850865809303
 20
1378.8684696373698
 11
526.21532457849116
 21
1378.8684696373698
  0
LINE
  8
_2-7_
  6
CONTINUOUS
 62
    7
 10
433.57850865809303
 20
1499.3659820751805
 11
433.57850865809303
 21
1378.8684696373698
  0
LINE
  8
_2-7_
  6
CONTINUOUS
 62
    7
 10
412.96271575481398
 20
1517.4754348114989
 11
424.03364040675734
 21
1517.4754348114989
  0
LINE
  8
_2-7_
  6
CONTINUOUS
 62
    7
 10
423.82726487699796
 20
1530.0127482443347
 11
412.96271575481398
 21
1530.0127482443347
  0
LINE
  8
_2-7_
  6
CONTINUOUS
 62
    7
 10
412.96271575481398
 20
1530.0127482443347
 11
412.96271575481398
 21
1517.4754348114989
  0
LINE
  8
_2-7_
  6
CONTINUOUS
 62
    7
 10
423.82726487699875
 20
1544.745668007658
 11
419.13357220018503
 21
1544.745668007658
  0
LINE
  8
_2-7_
  6
CONTINUOUS
 62
    7
 10
419.13357220018503
 20
1544.745668007658
 11
371.91212313182223
 21
1432.0044583569422
  0
LINE
  8
_2-7_
  6
CONTINUOUS
 62
    7
 10
336.35436019984803
 20
1461.1456101290205
 11
336.27817903051101
 21
1461.1750437626279
  0
ARC
  8
_2-7_
  6
CONTINUOUS
 62
    7
 10
335.83103204936714
 20
1452.8168348074041
 40
12.000000000000002
 50
20.415026286860972
 51
302.65186285597002
  0
LINE
  8
_2-7_
  6
CONTINUOUS
 62
    7
 10
338.14486052030708
 20
1460.4538259142978
 11
377.14053392271632
 21
1445.387315736094
  0
ARC
  8
_2-7_
  6
CONTINUOUS
 62
    7
 10
335.98246484509389
 20
1454.857037107864
 40
6.0000000000000009
 50
68.875280853927592
 51
158.96248897457778
  0
LINE
  8
_2-7_
  6
CONTINUOUS
 62
    7
 10
329.20863377663591
 20
1453.9591422624944
 11
330.38239120787586
 21
1457.0109115837176
  0
LINE
  8
_2-7_
  6
CONTINUOUS
 62
    7
 10
332.76789092392767
 20
1446.163010432138
 11
371.91212313182223
 21
1432.0044583569422
  0
ARC
  8
_2-7_
  6
CONTINUOUS
 62
    7
 10
334.80870741385434
 20
1451.8052677866413
 40
6.0000000000000009
 50
158.96248897457738
 51
250.11483488614456
  0
CIRCLE
  8
_2-7_
  6
CONTINUOUS
 62
    7
 10
336.31257495213731
 20
1452.7824388857775
 40
6.0000000000000009
  0
LINE
  8
_2-7_
  6
CONTINUOUS
 62
    7
 10
526.21532457849116
 20
1399.9474369407706
 11
551.94060762826302
 21
1399.9474369407706
  0
TEXT
  8
_2-7_
 62
    7
 10
450.39831907104883
 20
1526.1145437933387
 40
30
 41
1
 50
0
  1
COM
  0
TEXT
  8
_2-7_
 62
    7
 10
462.32617976756677
 20
1454.2958594373406
 40
30
 41
1
 50
0
  1
CN
  0
TEXT
  8
_2-7_
 62
    7
 10
461.70705317829061
 20
1380.6197953135156
 40
30
 41
1
 50
0
  1
NC
  0
LINE
  8
_2-7_
  6
CONTINUOUS
 62
    7
 10
549.92844621311679
 20
1470.8574957004696
 11
537.13316336808259
 21
1470.4447446409522
  0
LINE
  8
_2-7_
  6
CONTINUOUS
 62
    7
 10
563.44604341230581
 20
1548.0419438301915
 11
563.44604341230581
 21
1529.4681461519162
  0
LINE
  8
_2-7_
  6
CONTINUOUS
 62
    7
 10
563.44604341230581
 20
1529.4681461519162
 11
530.01320759141049
 21
1529.4681461519162
  0
LINE
  8
_2-7_
  6
CONTINUOUS
 62
    7
 10
563.44604341230581
 20
1548.0419438301915
 11
530.01320759141049
 21
1548.0419438301915
  0
LINE
  8
_2-7_
  6
CONTINUOUS
 62
    7
 10
530.01320759141049
 20
1529.4681461519162
 11
530.01320759141049
 21
1548.0419438301915
  0
LINE
  8
_2-7_
  6
CONTINUOUS
 62
    7
 10
563.39788912202835
 20
1477.433995915444
 11
563.39788912202835
 21
1458.8601982371683
  0
LINE
  8
_2-7_
  6
CONTINUOUS
 62
    7
 10
563.39788912202835
 20
1458.8601982371683
 11
529.96505330113314
 21
1458.8601982371683
  0
LINE
  8
_2-7_
  6
CONTINUOUS
 62
    7
 10
563.39788912202835
 20
1477.433995915444
 11
529.96505330113314
 21
1477.433995915444
  0
LINE
  8
_2-7_
  6
CONTINUOUS
 62
    7
 10
529.96505330113314
 20
1458.8601982371683
 11
529.96505330113314
 21
1477.433995915444
  0
LINE
  8
_2-7_
  6
CONTINUOUS
 62
    7
 10
537.10227073477006
 20
1470.3866219030185
 11
537.10227073477006
 21
1467.8183930882446
  0
LINE
  8
_2-7_
  6
CONTINUOUS
 62
    7
 10
551.77786396204897
 20
1538.7198528675376
 11
551.77786396204897
 21
1535.4014426324761
  0
LINE
  8
_2-7_
  6
CONTINUOUS
 62
    7
 10
526.21532457849116
 20
1535.4014426324761
 11
551.77786396204897
 21
1535.4014426324761
  0
LINE
  8
_2-7_
  6
CONTINUOUS
 62
    7
 10
549.92844621311679
 20
1470.8574957004696
 11
549.92844621311679
 21
1467.6744397866235
  0
LINE
  8
_2-7_
  6
CONTINUOUS
 62
    7
 10
549.92844621311679
 20
1467.6744397866235
 11
526.21532457849116
 21
1467.6744397866235
  0
LINE
  8
_2-7_
  6
CONTINUOUS
 62
    7
 10
533.83115489194472
 20
1538.5486694612948
 11
533.83115489194472
 21
1535.4014426324761
  0
LINE
  8
_2-7_
  6
CONTINUOUS
 62
    7
 10
549.51569515359949
 20
1538.5486694612948
 11
533.83115489194472
 21
1538.5486694612948
  0
LINE
  8
_2-7_
  6
CONTINUOUS
 62
    7
 10
563.44604341230854
 20
1540.3256566412415
 11
552.58853292298159
 21
1529.4681461519151
  0
LINE
  8
_2-7_
  6
CONTINUOUS
 62
    7
 10
557.02019497752246
 20
1548.041943830189
 11
538.44639729925007
 21
1529.4681461519165
  0
LINE
  8
_2-7_
  6
CONTINUOUS
 62
    7
 10
542.87805935379026
 20
1548.0419438301901
 11
530.01320759140924
 21
1535.1770920678096
  0
LINE
  8
_2-7_
  6
CONTINUOUS
 62
    7
 10
563.39788912202891
 20
1469.5668242323131
 11
552.69126312688252
 21
1458.8601982371672
  0
LINE
  8
_2-7_
  6
CONTINUOUS
 62
    7
 10
557.12292518144795
 20
1477.4339959154477
 11
538.54912750317044
 21
1458.8601982371704
  0
LINE
  8
_2-7_
  6
CONTINUOUS
 62
    7
 10
542.98078955771587
 20
1477.4339959154495
 11
529.96505330112939
 21
1464.4182596588628
  0
LINE
  8
_2-7_
  6
CONTINUOUS
 62
    7
 10
551.77786396204897
 20
1538.7198528675376
 11
603.41754448407869
 21
1538.7198528675376
  0
LINE
  8
_2-7_
  6
CONTINUOUS
 62
    7
 10
549.92844621311679
 20
1470.8574957004696
 11
594.13064564494084
 21
1470.8574957004696
  0
LINE
  8
_2-7_
  6
CONTINUOUS
 62
    7
 10
552.59112104571466
 20
1456.4591791662165
 11
618.4120165681029
 21
1378.1009702109927
  0
LINE
  8
_2-7_
  6
CONTINUOUS
 62
    7
 10
552.59112104571466
 20
1456.4591791662165
 11
577.1747665300004
 21
1439.2648668885197
  0
LINE
  8
_2-7_
  6
CONTINUOUS
 62
    7
 10
552.59112104571466
 20
1456.4591791662165
 11
565.28402641388811
 21
1429.2766451909856
  0
TEXT
  8
_2-7_
 62
    7
 10
573.7333266841888
 20
1480.0827280882727
 40
40
 41
1
 50
0
  1
白
  0
LINE
  8
_2-7_
  6
CONTINUOUS
 62
    7
 10
443.78929683344256
 20
1390.3134034153409
 11
382.49576449513444
 21
1323.4477317735495
  0
LINE
  8
_2-7_
  6
CONTINUOUS
 62
    7
 10
443.78929683344256
 20
1390.3134034153409
 11
429.93198664891179
 21
1363.7056046629132
  0
LINE
  8
_2-7_
  6
CONTINUOUS
 62
    7
 10
443.78929683344256
 20
1390.3134034153409
 11
418.48461480930439
 21
1374.1990288492202
  0
LINE
  8
_2-7_
  6
CONTINUOUS
 62
    7
 10
2462.3777594535863
 20
1514.0036022195827
 11
2377.7508937819443
 21
1514.0036022195827
  0
LINE
  8
_2-7_
  6
CONTINUOUS
 62
    7
 10
2462.3777594535863
 20
1514.0036022195827
 11
2462.3777594535863
 21
1433.9040997320208
  0
LINE
  8
_2-7_
  6
CONTINUOUS
 62
    7
 10
2462.3777594535863
 20
1433.9040997320208
 11
2377.7508937819443
 21
1433.9040997320208
  0
LINE
  8
_2-7_
  6
CONTINUOUS
 62
    7
 10
2404.0193457607343
 20
1433.9040997320208
 11
2377.7508937819443
 21
1433.9040997320208
  0
LINE
  8
_2-7_
  6
CONTINUOUS
 62
    7
 10
2377.7508937819443
 20
1520.813994701617
 11
2377.7508937819443
 21
1425.704971914319
  0
LINE
  8
_2-7_
  6
CONTINUOUS
 62
    7
 10
2377.7508937819443
 20
1425.704971914319
 11
2365.2135803491087
 21
1425.704971914319
  0
TEXT
  8
_2-7_
 62
    7
 10
2464.6165654237357
 20
1473.0731720658246
 40
30
 41
1
 50
0
  1
1
  0
TEXT
  8
_2-7_
 62
    7
 10
2467.2224889708427
 20
1439.6381871046819
 40
30
 41
1
 50
0
  1
2
  0
TEXT
  8
_2-7_
 62
    7
 10
2491.8637416323554
 20
1479.7221961451783
 40
40
 41
1
 50
0
  1
白
  0
TEXT
  8
_2-7_
 62
    7
 10
2494.6498112840959
 20
1433.752046891447
 40
40
 41
1
 50
0
  1
黒
  0
LINE
  8
_2-7_
  6
CONTINUOUS
 62
    7
 10
2410.2277088333867
 20
1446.2482464492139
 11
2433.8021443481211
 21
1460.1785947079202
  0
LINE
  8
_2-7_
  6
CONTINUOUS
 62
    7
 10
2412.0850886012149
 20
1500.1122597162121
 11
2433.5776259146473
 21
1483.3958418057643
  0
LINE
  8
_2-7_
  6
CONTINUOUS
 62
    7
 10
2412.0850886012149
 20
1492.682740644902
 11
2412.0850886012149
 21
1500.1122597162121
  0
LINE
  8
_2-7_
  6
CONTINUOUS
 62
    7
 10
2410.2277088333867
 20
1451.8203857526964
 11
2410.2277088333867
 21
1446.2482464492139
  0
LINE
  8
_2-7_
  6
CONTINUOUS
 62
    7
 10
2377.7508937819443
 20
1483.3958418057643
 11
2433.5776259146473
 21
1483.3958418057643
  0
LINE
  8
_2-7_
  6
CONTINUOUS
 62
    7
 10
2377.7508937819443
 20
1492.682740644902
 11
2412.0850886012149
 21
1492.682740644902
  0
LINE
  8
_2-7_
  6
CONTINUOUS
 62
    7
 10
2377.7508937819443
 20
1451.8203857526964
 11
2410.2277088333867
 21
1451.8203857526964
  0
LINE
  8
_2-7_
  6
CONTINUOUS
 62
    7
 10
2377.7508937819443
 20
1460.1785947079202
 11
2433.8021443481211
 21
1460.1785947079202
  0
LINE
  8
_2-7_
  6
CONTINUOUS
 62
    7
 10
603.41754448407869
 20
1538.7198528675376
 11
894.64087785736865
 21
1479.8843407358918
  0
LINE
  8
_2-7_
  6
CONTINUOUS
 62
    7
 10
594.13064564494084
 20
1470.8574957004696
 11
894.64087785736638
 21
1465.7422051121562
  0
LINE
  8
_2-7_
  6
CONTINUOUS
 62
    7
 10
2077.6827790790317
 20
1481.9190153740046
 11
2365.2135803491087
 21
1481.9190153740046
  0
LINE
  8
_2-7_
  6
CONTINUOUS
 62
    7
 10
2077.6827790790317
 20
1453.1296289726779
 11
2365.2135803491087
 21
1453.1296289726779
  0
LINE
  8
_2-7_
  6
CONTINUOUS
 62
    7
 10
2445.105664508088
 20
1444.8106528655594
 11
2329.1355152543565
 21
1363.3181155521261
  0
LINE
  8
_2-7_
  6
CONTINUOUS
 62
    7
 10
2445.105664508088
 20
1444.8106528655594
 11
2425.8604952711466
 21
1421.7971033557274
  0
LINE
  8
_2-7_
  6
CONTINUOUS
 62
    7
 10
2445.105664508088
 20
1444.8106528655594
 11
2416.93208429385
 21
1434.5029189772647
  0
TEXT
  8
_2-7_
 62
    7
 10
2297.7922316722675
 20
1331.974831970037
 40
64
 41
1
 50
0
  1
2
  0
TEXT
  8
_2-7_
 62
    7
 10
345.10566450808801
 20
1281.8255782386937
 40
64
 41
1
 50
0
  1
3
  0
TEXT
  8
_2-7_
 62
    7
 10
1266.5982018215209
 20
1300.6315483879475
 40
64
 41
1
 50
0
  1
4
  0
TEXT
  8
_2-7_
 62
    7
 10
620.92656003047625
 20
1341.377817044664
 40
64
 41
1
 50
0
  1
5
  0
TEXT
  8
_2-7_
 62
    7
 10
1450.478798836446
 20
1299.5867722685443
 40
64
 41
1
 50
0
  1
1
  0
LINE
  8
_2-7_
  6
CONTINUOUS
 62
    7
 10
1542.419097343909
 20
1437.4972200297384
 11
1475.5534257021179
 21
1330.9300558506341
  0
LINE
  8
_2-7_
  6
CONTINUOUS
 62
    7
 10
1542.419097343909
 20
1437.4972200297384
 11
1533.5947568339507
 21
1408.8243929182674
  0
LINE
  8
_2-7_
  6
CONTINUOUS
 62
    7
 10
1542.419097343909
 20
1437.4972200297384
 11
1520.4405807349053
 21
1417.0779936078643
  0
LINE
  8
_2-7_
  6
CONTINUOUS
 62
    7
 10
1145.3871465140819
 20
1426.8169745534437
 11
1600.9265600304761
 21
1426.8169745534437
  0
LINE
  8
_2-7_
  6
CONTINUOUS
 62
    7
 10
1692.8668585379387
 20
1426.8169745534437
 11
1826.9365104223148
 21
1426.8169745534437
  0
TEXT
  8
_2-7_
 62
    7
 10
729.58327644838641
 20
1685.4574190347134
 40
40
 41
1
 50
0
  1
35
  0
TEXT
  8
_2-7_
 62
    7
 10
1930.0310376424165
 20
1653.0693593332212
 40
40
 41
1
 50
0
  1
20
  0
TEXT
  8
_2-7_
 62
    7
 10
2155.7026794334611
 20
1707.1655450711974
 40
40
 41
1
 50
0
  1
35
  0
LINE
  8
_0-0_
  6
CONTINUOUS
 62
    7
 10
30.037313432835447
 20
2027.3358208955226
 11
30.037313432835447
 21
38.604477611940325
  0
LINE
  8
_0-0_
  6
CONTINUOUS
 62
    7
 10
1230.0373134328354
 20
708.60447761194041
 11
30.037313432835447
 21
708.60447761194041
  0
LINE
  8
_0-0_
  6
CONTINUOUS
 62
    7
 10
1230.0373134328354
 20
708.60447761194041
 11
1230.0373134328354
 21
682.14303482587115
  0
LINE
  8
_0-0_
  6
CONTINUOUS
 62
    7
 10
1230.0373134328354
 20
682.14303482587115
 11
1230.0373134328354
 21
38.604477611940325
  0
LINE
  8
_0-0_
  6
CONTINUOUS
 62
    7
 10
1230.0373134328354
 20
584.05902306648579
 11
30.037313432835447
 21
584.05902306648579
  0
LINE
  8
_0-0_
  6
CONTINUOUS
 62
    7
 10
1230.0373134328354
 20
529.51356852103129
 11
30.037313432835447
 21
529.51356852103129
  0
LINE
  8
_0-0_
  6
CONTINUOUS
 62
    7
 10
1230.0373134328354
 20
474.96811397557678
 11
30.037313432835447
 21
474.96811397557678
  0
LINE
  8
_0-0_
  6
CONTINUOUS
 62
    7
 10
1230.0373134328354
 20
638.60447761194041
 11
30.037313432835447
 21
638.60447761194041
  0
LINE
  8
_0-0_
  6
CONTINUOUS
 62
    7
 10
1230.0373134328354
 20
420.42265943012217
 11
30.037313432835447
 21
420.42265943012217
  0
LINE
  8
_0-0_
  6
CONTINUOUS
 62
    7
 10
1230.0373134328354
 20
365.87720488466761
 11
30.037313432835447
 21
365.87720488466761
  0
LINE
  8
_0-0_
  6
CONTINUOUS
 62
    7
 10
1230.0373134328354
 20
311.33175033921316
 11
30.037313432835447
 21
311.33175033921316
  0
LINE
  8
_0-0_
  6
CONTINUOUS
 62
    7
 10
1230.0373134328354
 20
256.78629579375865
 11
30.037313432835447
 21
256.78629579375865
  0
LINE
  8
_0-0_
  6
CONTINUOUS
 62
    7
 10
1230.0373134328354
 20
202.24084124830412
 11
30.037313432835447
 21
202.24084124830412
  0
LINE
  8
_0-0_
  6
CONTINUOUS
 62
    7
 10
1230.0373134328354
 20
147.69538670284939
 11
30.037313432835447
 21
147.69538670284939
  0
LINE
  8
_0-0_
  6
CONTINUOUS
 62
    7
 10
1230.0373134328354
 20
93.149932157395057
 11
30.037313432835447
 21
93.149932157395057
  0
LINE
  8
_0-0_
  6
CONTINUOUS
 62
    7
 10
1030.0373134328352
 20
708.60447761194041
 11
1030.0373134328352
 21
38.604477611940325
  0
LINE
  8
_0-0_
  6
CONTINUOUS
 62
    7
 10
100.03731343283545
 20
708.60447761194041
 11
100.03731343283545
 21
38.604477611940325
  0
TEXT
  8
_0-0_
 62
    7
 10
55.939054726367431
 20
588.11318407960232
 40
40
 41
1
 50
0
  1
1
  0
TEXT
  8
_0-0_
 62
    7
 10
55.939054726367431
 20
534.82960199005015
 40
40
 41
1
 50
0
  1
2
  0
TEXT
  8
_0-0_
 62
    7
 10
55.939054726367431
 20
481.54601990049787
 40
40
 41
1
 50
0
  1
3
  0
TEXT
  8
_0-0_
 62
    7
 10
52.804726368158271
 20
425.12810945273668
 40
40
 41
1
 50
0
  1
4
  0
TEXT
  8
_0-0_
 62
    7
 10
52.804726368158271
 20
371.8445273631844
 40
40
 41
1
 50
0
  1
5
  0
TEXT
  8
_0-0_
 62
    7
 10
52.804726368158271
 20
318.56094527363234
 40
40
 41
1
 50
0
  1
6
  0
TEXT
  8
_0-0_
 62
    7
 10
49.670398009949309
 20
265.27736318408006
 40
40
 41
1
 50
0
  1
7
  0
TEXT
  8
_0-0_
 62
    7
 10
55.939054726367431
 20
208.85945273631873
 40
40
 41
1
 50
0
  1
8
  0
TEXT
  8
_0-0_
 62
    7
 10
55.939054726367431
 20
155.57587064676648
 40
40
 41
1
 50
0
  1
9
  0
TEXT
  8
_0-0_
 62
    7
 10
40.267412935322625
 20
102.29228855721425
 40
40
 41
1
 50
0
  1
10
  0
TEXT
  8
_0-0_
 62
    7
 10
46.536069651740547
 20
49.008706467662108
 40
40
 41
1
 50
0
  1
11
  0
TEXT
  8
_0-0_
 62
    7
 10
168.77487562189003
 20
650.79975124378143
 40
40
 41
1
 50
0
  1
名称
  0
TEXT
  8
_0-0_
 62
    7
 10
1112.2077114427852
 20
653.93407960199033
 40
40
 41
1
 50
0
  1
数
  0
TEXT
  8
_0-0_
 62
    7
 10
1266.9651741293526
 20
79.046019900497356
 40
40
 41
1
 50
0
  1
装置名称
  0
LINE
  8
_0-0_
  6
CONTINUOUS
 62
    7
 10
1870.667495854063
 20
365.87720488466761
 11
1870.667495854063
 21
147.69538670284939
  0
LINE
  8
_0-0_
  6
CONTINUOUS
 62
    7
 10
1669.1148424543942
 20
365.87720488466761
 11
1669.1148424543942
 21
147.69538670284939
  0
TEXT
  8
_0-0_
 62
    7
 10
1931.0945273631837
 20
320.04104477611918
 40
40
 41
1
 50
0
  1
Rev
  0
LINE
  8
_0-0_
  6
CONTINUOUS
 62
    7
 10
1870.667495854063
 20
256.78629579375865
 11
2072.2201492537306
 21
256.78629579375865
  0
TEXT
  8
_0-0_
 62
    7
 10
1283.3333333333328
 20
152.87686567164167
 40
40
 41
1
 50
0
  1
/  /  /
  0
TEXT
  8
_0-0_
 62
    7
 10
1492.5207296849085
 20
155.19859038142619
 40
40
 41
1
 50
0
  1
/  /  /
  0
TEXT
  8
_0-0_
 62
    7
 10
1688.9386401326694
 20
156.59162520729683
 40
40
 41
1
 50
0
  1
/  /  /
  0
TEXT
  8
_0-0_
 62
    7
 10
2400.9907083239486
 20
273.48090992226798
 40
64
 41
1
 50
0
  1
SMART DIYs
  0
TEXT
  8
_0-0_
 62
    7
 10
2273.5280217567843
 20
235.86896962376056
 40
30
 41
1
 50
0
  1
makind your idea reality.
  0
LINE
  8
_0-0_
  6
CONTINUOUS
 62
    7
 10
2292.4216099421278
 20
332.54697645965109
 11
2257.9439980018292
 21
276.12906601188979
  0
LINE
  8
_0-0_
  6
CONTINUOUS
 62
    7
 10
2328.2607417009258
 20
276.12906601188979
 11
2292.4216099421278
 21
332.54697645965109
  0
LINE
  8
_0-0_
  6
CONTINUOUS
 62
    7
 10
2331.7953526992319
 20
276.15978679737373
 11
2331.814867889886
 21
276.12906601188979
  0
LINE
  8
_0-0_
  6
CONTINUOUS
 62
    7
 10
2257.9439980018292
 20
276.12906601188979
 11
2328.2607417009258
 21
276.12906601188979
  0
LINE
  8
_0-0_
  6
CONTINUOUS
 62
    7
 10
2331.7765788858806
 20
276.12906601188979
 11
2366.2541908261792
 21
332.54697645965109
  0
LINE
  8
_0-0_
  6
CONTINUOUS
 62
    7
 10
2366.2541908261792
 20
332.54697645965109
 11
2389.4697028161836
 21
332.54697645965109
  0
LINE
  8
_0-0_
  6
CONTINUOUS
 62
    7
 10
2354.992090875885
 20
276.12906601188979
 11
2331.7953526992319
 21
276.12906601188979
  0
LINE
  8
_0-0_
  6
CONTINUOUS
 62
    7
 10
2389.4697028161836
 20
332.54697645965109
 11
2354.992090875885
 21
276.12906601188979
  0
SOLID
  8
_0-0_
  6
CONTINUOUS
 62
    7
 10
2257.9439980018292
 20
276.12906601188979
 11
2328.2607417009258
 21
276.12906601188979
 12
2292.4216099421278
 22
332.54697645965109
 13
2292.4216099421278
 23
332.54697645965109
  0
SOLID
  8
_0-0_
  6
CONTINUOUS
 62
    7
 10
2331.7765788858806
 20
276.12906601188979
 11
2366.2541908261792
 21
332.54697645965109
 12
2331.7953526992319
 22
276.12906601188979
 13
2354.992090875885
 23
276.12906601188979
  0
SOLID
  8
_0-0_
  6
CONTINUOUS
 62
    7
 10
2366.2541908261792
 20
332.54697645965109
 11
2389.4697028161836
 21
332.54697645965109
 12
2354.992090875885
 22
276.12906601188979
 13
2354.992090875885
 23
276.12906601188979
  0
LINE
  8
_0-0_
  6
CONTINUOUS
 62
    7
 10
2298.3451535903941
 20
332.54697645965109
 11
2360.3944621845876
 21
332.54697645965109
  0
LINE
  8
_0-0_
  6
CONTINUOUS
 62
    7
 10
2329.9705279929094
 20
282.76235687326857
 11
2298.3451535903941
 21
332.54697645965109
  0
LINE
  8
_0-0_
  6
CONTINUOUS
 62
    7
 10
2360.3944621845876
 20
332.54697645965109
 11
2329.9705279929094
 21
282.76235687326857
  0
SOLID
  8
_0-0_
  6
CONTINUOUS
 62
    7
 10
2298.3451535903941
 20
332.54697645965109
 11
2360.3944621845876
 21
332.54697645965109
 12
2329.9705279929094
 22
282.76235687326857
 13
2329.9705279929094
 23
282.76235687326857
  0
TEXT
  8
_0-0_
 62
    7
 10
1521.1150864334013
 20
315.96847211132297
 40
40
 41
1
 50
0
  1
確認
  0
TEXT
  8
_0-0_
 62
    7
 10
1719.6225491199689
 20
315.96847211132297
 40
40
 41
1
 50
0
  1
承認
  0
TEXT
  8
_0-0_
 62
    7
 10
469.67039800994951
 20
653.93407960199033
 40
40
 41
1
 50
0
  1
部材　　規格    長さ　　　
  0
LINE
  8
_0-0_
  6
CONTINUOUS
 62
    7
 10
388.65671641791062
 20
707.26119402985069
 11
388.65671641791062
 21
38.604477611940325
  0
LINE
  8
_0-0_
  6
CONTINUOUS
 62
    7
 10
2604.6268656716416
 20
202.24084124830412
 11
2604.6268656716416
 21
38.604477611940325
  0
LINE
  8
_0-0_
  6
CONTINUOUS
 62
    7
 10
2717.4626865671644
 20
145.05555555555571
 11
2717.4626865671644
 21
38.604477611940325
  0
TEXT
  8
_0-0_
 62
    7
 10
2638.28861174744
 20
76.349529596342848
 40
40
 41
1
 50
0
  1
頁
  0
LINE
  8
_0-0_
  6
CONTINUOUS
 62
    7
 10
1467.5621890547259
 20
450.60366377986566
 11
1467.5621890547259
 21
38.604477611940325
  0
LINE
  8
_0-0_
  6
CONTINUOUS
 62
    7
 10
2072.2201492537306
 20
450.60366377986566
 11
2072.2201492537306
 21
38.604477611940325
  0
TEXT
  8
_0-0_
 62
    7
 10
1296.204394693201
 20
318.96187273508951
 40
40
 41
1
 50
0
  1
設計
  0
TEXT
  8
_0-0_
 62
    7
 10
1243.9655887230517
 20
385.82754437688061
 40
40
 41
1
 50
0
  1
ハーネス名
  0
TEXT
  8
_0-0_
 62
    7
 10
2416.2043946932008
 20
392.09620109329853
 40
40
 41
1
 50
0
  1
会社名
  0
LINE
  8
_0-0_
  6
CONTINUOUS
 62
    7
 10
30.037313432835447
 20
2027.3358208955226
 11
2695.8899944720838
 21
2027.3358208955226
  0
LINE
  8
_0-0_
  6
CONTINUOUS
 62
    7
 10
2695.8899944720838
 20
2027.3358208955226
 11
2879.248203427308
 21
2027.3358208955226
  0
LINE
  8
_0-0_
  6
CONTINUOUS
 62
    7
 10
2879.248203427308
 20
2027.3358208955226
 11
2879.248203427308
 21
1897.1741293532334
  0
LINE
  8
_0-0_
  6
CONTINUOUS
 62
    7
 10
2879.248203427308
 20
38.604477611940325
 11
30.037313432835447
 21
38.604477611940325
  0
LINE
  8
_0-0_
  6
CONTINUOUS
 62
    7
 10
2879.248203427308
 20
1897.1741293532334
 11
2879.248203427308
 21
38.604477611940325
  0
LINE
  8
_0-0_
  6
CONTINUOUS
 62
    7
 10
1230.0373134328354
 20
450.60366377986566
 11
2879.248203427308
 21
450.60366377986566
  0
LINE
  8
_0-0_
  6
CONTINUOUS
 62
    7
 10
1230.0373134328354
 20
365.87720488466761
 11
2879.248203427308
 21
365.87720488466761
  0
LINE
  8
_0-0_
  6
CONTINUOUS
 62
    7
 10
1230.0373134328354
 20
202.24084124830412
 11
2879.248203427308
 21
202.24084124830412
  0
LINE
  8
_0-0_
  6
CONTINUOUS
 62
    7
 10
1230.0373134328354
 20
147.69538670284939
 11
2879.248203427308
 21
147.69538670284939
  0
TEXT
  8
_2-7_
 62
    7
 10
1121.4192978622666
 20
594.19509086274059
 40
40
 41
1
 50
0
  1
1
  0
TEXT
  8
_0-0_
 62
    7
 10
105.13611202155849
 20
263.22163953530713
 40
40
 41
1
 50
0
  1
PIN
  0
TEXT
  8
_2-7_
 62
    7
 10
406.31783832652394
 20
593.25010879580464
 40
40
 41
1
 50
0
  1
ULAWM AWG24 2芯
  0
LINE
  8
_0-0_
  6
CONTINUOUS
 62
    7
 10
1563.8751942289718
 20
902.94976829090706
 11
1713.8751942289718
 21
902.94976829090706
  0
LINE
  8
_0-0_
  6
CONTINUOUS
 62
    7
 10
1713.8751942289718
 20
902.94976829090706
 11
1713.8751942289718
 21
962.94976829090717
  0
LINE
  8
_0-0_
  6
CONTINUOUS
 62
    7
 10
1563.8751942289718
 20
962.94976829090717
 11
1563.8751942289718
 21
902.94976829090706
  0
LINE
  8
_0-0_
  6
CONTINUOUS
 62
    7
 10
2270.0640576253086
 20
963.02333251393065
 11
2420.0640576253086
 21
963.02333251393065
  0
LINE
  8
_0-0_
  6
CONTINUOUS
 62
    7
 10
2420.0640576253086
 20
963.02333251393065
 11
2420.0640576253086
 21
1023.0233325139307
  0
LINE
  8
_0-0_
  6
CONTINUOUS
 62
    7
 10
2420.0640576253086
 20
1023.0233325139307
 11
2270.0640576253086
 21
1023.0233325139307
  0
LINE
  8
_0-0_
  6
CONTINUOUS
 62
    7
 10
1713.8751942289718
 20
962.90608565565174
 11
1563.8751942289718
 21
962.90608565565174
  0
LINE
  8
_0-0_
  6
CONTINUOUS
 62
    7
 10
1563.8751942289718
 20
962.88599785137512
 11
1713.8751942289718
 21
962.88599785137512
  0
LINE
  8
_0-0_
  6
CONTINUOUS
 62
    7
 10
1713.8751942289718
 20
962.88599785137512
 11
1713.8751942289718
 21
1022.885997851375
  0
LINE
  8
_0-0_
  6
CONTINUOUS
 62
    7
 10
1713.8751942289718
 20
1022.885997851375
 11
1563.8751942289718
 21
1022.885997851375
  0
LINE
  8
_0-0_
  6
CONTINUOUS
 62
    7
 10
1563.8751942289718
 20
1022.885997851375
 11
1563.8751942289718
 21
962.88599785137512
  0
LINE
  8
_0-0_
  6
CONTINUOUS
 62
    7
 10
1563.8751942289718
 20
842.95185617217066
 11
1713.8751942289718
 21
842.95185617217066
  0
LINE
  8
_0-0_
  6
CONTINUOUS
 62
    7
 10
1713.8751942289718
 20
842.95185617217066
 11
1713.8751942289718
 21
902.95185617217044
  0
LINE
  8
_0-0_
  6
CONTINUOUS
 62
    7
 10
1713.8751942289718
 20
902.95185617217044
 11
1563.8751942289718
 21
902.95185617217044
  0
LINE
  8
_0-0_
  6
CONTINUOUS
 62
    7
 10
1563.8751942289718
 20
902.95185617217044
 11
1563.8751942289718
 21
842.95185617217066
  0
LINE
  8
_0-0_
  6
CONTINUOUS
 62
    7
 10
1713.8751942289718
 20
842.93897138872126
 11
1563.8751942289718
 21
842.93897138872126
  0
LINE
  8
_0-0_
  6
CONTINUOUS
 62
    7
 10
2270.0640576253086
 20
903.05678824551092
 11
2420.0640576253086
 21
903.05678824551092
  0
LINE
  8
_0-0_
  6
CONTINUOUS
 62
    7
 10
2420.0640576253086
 20
903.05678824551092
 11
2420.0640576253086
 21
963.05678824551092
  0
LINE
  8
_0-0_
  6
CONTINUOUS
 62
    7
 10
2420.0640576253086
 20
963.05678824551092
 11
2270.0640576253086
 21
963.05678824551092
  0
LINE
  8
_0-0_
  6
CONTINUOUS
 62
    7
 10
2270.0640576253086
 20
963.05678824551092
 11
2270.0640576253086
 21
903.05678824551092
  0
LINE
  8
_0-0_
  6
CONTINUOUS
 62
    7
 10
2270.0640576253086
 20
843.05088044762238
 11
2420.0640576253086
 21
843.05088044762238
  0
LINE
  8
_0-0_
  6
CONTINUOUS
 62
    7
 10
2420.0640576253086
 20
843.05088044762238
 11
2420.0640576253086
 21
903.05088044762238
  0
LINE
  8
_0-0_
  6
CONTINUOUS
 62
    7
 10
2420.0640576253086
 20
903.05088044762238
 11
2270.0640576253086
 21
903.05088044762238
  0
LINE
  8
_0-0_
  6
CONTINUOUS
 62
    7
 10
2270.0640576253086
 20
903.05088044762238
 11
2270.0640576253086
 21
843.05088044762238
  0
TEXT
  8
_2-7_
 62
    7
 10
2460.9030176211563
 20
915.25262405250157
 40
40
 41
1
 50
0
  1
白
  0
TEXT
  8
_2-7_
 62
    7
 10
2463.4606279543541
 20
850.03356055595395
 40
40
 41
1
 50
0
  1
黒
  0
TEXT
  8
_2-7_
 62
    7
 10
2329.1860854614624
 20
915.88869641401152
 40
40
 41
1
 50
0
  1
1
  0
TEXT
  8
_2-7_
 62
    7
 10
2331.7436957946602
 20
851.94843808406301
 40
40
 41
1
 50
0
  1
2
  0
TEXT
  8
_2-7_
 62
    7
 10
386.83228115460224
 20
320.90738127560803
 40
40
 41
1
 50
0
  1
テプラ9mm[Y1-Limit]
  0
TEXT
  8
_2-7_
 62
    7
 10
1121.4192978622666
 20
427.69463290602874
 40
40
 41
1
 50
0
  1
2
  0
LINE
  8
_2-7_
  6
CONTINUOUS
 62
    7
 10
894.59846101017035
 20
1678.1439861988929
 11
1145.3442192315515
 21
1678.1439861988929
  0
LINE
  8
_2-7_
  6
CONTINUOUS
 62
    7
 10
1826.9016456963407
 20
1697.0132246827893
 11
2077.681966297002
 21
1697.0132246827893
  0
LINE
  8
_2-7_
  6
CONTINUOUS
 62
    7
 10
2365.2135803491087
 20
1563.5871213650489
 11
2365.2135803491087
 21
1798.7054062420339
  0
LINE
  8
_2-7_
  6
CONTINUOUS
 62
    7
 10
2077.6827790790317
 20
1493.1671680305026
 11
2077.6827790790317
 21
1493.3574308345587
  0
LINE
  8
_2-7_
  6
CONTINUOUS
 62
    7
 10
2077.6827790790317
 20
1512.5552960516493
 11
2077.6827790790317
 21
1697.00492532823
  0
LINE
  8
_2-7_
  6
CONTINUOUS
 62
    7
 10
526.21532457849116
 20
1583.0384671672887
 11
526.21532457849116
 21
1798.4239866710368
  0
LINE
  8
_2-7_
  6
CONTINUOUS
 62
    7
 10
894.64087785736547
 20
1493.1671680305026
 11
894.64087785736547
 21
1493.2999810825613
  0
LINE
  8
_2-7_
  6
CONTINUOUS
 62
    7
 10
894.64087785736547
 20
1509.8034090762005
 11
894.64087785736547
 21
1678.0588181883049
  0
LINE
  8
_2-7_
  6
CONTINUOUS
 62
    7
 10
1952.3096447506732
 20
1506.2629767099731
 11
1952.3096447506732
 21
1493.1671680305026
  0
LINE
  8
_2-7_
  6
CONTINUOUS
 62
    7
 10
1952.3096447506714
 20
1506.2625256981332
 11
1952.3096447506714
 21
1506.2670530374071
  0
LINE
  8
_2-7_
  6
CONTINUOUS
 62
    7
 10
1827.0142787057205
 20
1573.8457288287264
 11
1952.431911341057
 21
1573.8457288287264
  0
TEXT
  8
_2-7_
 62
    7
 10
1122.234754728627
 20
483.22163953530702
 40
40
 41
1
 50
0
  1
1
  0
TEXT
  8
_2-7_
 62
    7
 10
1122.234754728627
 20
535.78801121672291
 40
40
 41
1
 50
0
  1
1
  0
TEXT
  8
_2-7_
 62
    7
 10
1122.234754728627
 20
263.10085506446148
 40
40
 41
1
 50
0
  1
2
  0
TEXT
  8
_2-7_
 62
    7
 10
1122.234754728627
 20
372.70601074227329
 40
40
 41
1
 50
0
  1
2
  0
LINE
  8
_0-0_
  6
CONTINUOUS
 62
    7
 10
2270.0640576253086
 20
1023.0233325139307
 11
2270.0640576253086
 21
963.04548901836381
  0
LINE
  8
_0-0_
  6
CONTINUOUS
 62
    7
 10
2270.0640576253086
 20
963.03672795641683
 11
2270.0640576253086
 21
963.02333251393065
  0
LINE
  8
_0-0_
  6
CONTINUOUS
 62
    7
 10
2270.0641498754198
 20
933.30390585343366
 11
1714.2472229722739
 21
873.36286471681979
  0
LINE
  8
_0-0_
  6
CONTINUOUS
 62
    7
 10
1713.8536180997776
 20
941.53958165608469
 11
2270.1210862315211
 21
872.84795726209222
  0
LINE
  8
_2-7_
  6
CONTINUOUS
 62
    7
 10
526.72005429950354
 20
1734.5618966466538
 11
1145.3581133616517
 21
1734.5618966466538
  0
LINE
  8
_2-7_
  6
CONTINUOUS
 62
    7
 10
1826.9365104223129
 20
1518.167829838389
 11
1826.9365104223129
 21
1751.16783808017
  0
LINE
  8
_2-7_
  6
CONTINUOUS
 62
    7
 10
1826.9611209763275
 20
1751.2783145571016
 11
2364.9725665855631
 21
1751.2783145571016
  0
LINE
  8
_2-7_
  6
CONTINUOUS
 62
    7
 10
1020.0140121857237
 20
1567.4119557562215
 11
1020.0140121857237
 21
1514.333257663111
  0
LINE
  8
_2-7_
  6
CONTINUOUS
 62
    7
 10
1020.0132244486748
 20
1506.8169745534435
 11
1145.3871465140819
 21
1506.8169745534435
  0
LINE
  8
_2-7_
  6
CONTINUOUS
 62
    7
 10
1020.0140121857237
 20
1506.8192724238961
 11
1020.0140121857237
 21
1493.1671680305026
  0
LINE
  8
_2-7_
  6
CONTINUOUS
 62
    7
 10
1020.0619065214071
 20
1567.3448996413299
 11
1145.6239463743932
 21
1567.3448996413299
  0
LINE
  8
_2-7_
  6
CONTINUOUS
 62
    7
 10
2365.2135803491087
 20
1425.704971914319
 11
2365.2135803491087
 21
1515.8760380507867
  0
LINE
  8
_2-7_
  6
CONTINUOUS
 62
    7
 10
2365.2135803491087
 20
1515.7387568601221
 11
2365.2135803491087
 21
1520.8120686915154
  0
LINE
  8
_2-7_
  6
CONTINUOUS
 62
    7
 10
2377.7508937819443
 20
1520.813994701617
 11
2365.2163018439537
 21
1520.813994701617
  0
LINE
  8
_2-7_
  6
CONTINUOUS
 62
    7
 10
2365.2135803491087
 20
1515.7387568601221
 11
2365.2135803491087
 21
1520.8076881605423
  0
LINE
  8
_2-7_
  6
CONTINUOUS
 62
    7
 10
1952.3096447506732
 20
1573.3339239647958
 11
1952.3096447506732
 21
1515.8748452592188
  0
TEXT
  8
_2-7_
 62
    7
 10
1627.7910178202801
 20
916.53142921910057
 40
40
 41
1
 50
0
  1
1
  0
TEXT
  8
_2-7_
 62
    7
 10
1627.7910178202801
 20
856.42758638894884
 40
40
 41
1
 50
0
  1
2
  0
TEXT
  8
_2-7_
 62
    7
 10
1581.754031822717
 20
973.90416090049496
 40
40
 41
1
 50
0
  1
PinNo.
  0
TEXT
  8
_0-0_
 62
    7
 10
2294.0485096183434
 20
973.43492891096503
 40
40
 41
1
 50
0
  1
PinNo.
  0
LINE
  8
_0-0_
  6
CONTINUOUS
 62
    7
 10
2404.8824021085097
 20
1510.8290247703317
 11
2502.071594770031
 21
1611.8546329316503
  0
LINE
  8
_0-0_
  6
CONTINUOUS
 62
    7
 10
2404.8800782210974
 20
1510.8207124605942
 11
2430.1904374764108
 21
1519.8419437716166
  0
LINE
  8
_0-0_
  6
CONTINUOUS
 62
    7
 10
2404.8763027699783
 20
1510.822636310324
 11
2415.4695385309215
 21
1535.5163653951158
  0
TEXT
  8
_2-7_
 62
    7
 10
2516.1025499179013
 20
1615.3482026497325
 40
64
 41
1
 50
0
  1
7
  0
LINE
  8
_0-0_
  6
CONTINUOUS
 62
    7
 10
1684.191450248811
 20
1313.4003233519156
 11
1861.5191000172013
 21
1197.4553215802755
  0
LINE
  8
_0-0_
  6
CONTINUOUS
 62
    7
 10
1684.2301588904036
 20
1313.3830089234341
 11
1700.9633387354197
 21
1292.3592701437988
  0
LINE
  8
_0-0_
  6
CONTINUOUS
 62
    7
 10
1684.235647863025
 20
1313.3796940554862
 11
1710.4657941701678
 21
1307.5507726538983
  0
TEXT
  8
_2-7_
 62
    7
 10
1871.5368617932061
 20
1158.7961443709785
 40
64
 41
1
 50
0
  1
6
  0
TEXT
  8
_2-7_
 62
    7
 10
1504.249627381882
 20
911.28074019831752
 40
40
 41
1
 50
0
  1
黒
  0
TEXT
  8
_2-7_
 62
    7
 10
1506.6066270397994
 20
851.97923962550112
 40
40
 41
1
 50
0
  1
白
  0
TEXT
  8
_2-7_
 62
    7
 10
403.32848340360852
 20
478.6813694165694
 40
40
 41
1
 50
0
  1
G6P1-150S06A
  0
TEXT
  8
_0-0_
 62
    7
 10
403.01221821624904
 20
265.16854219017432
 40
40
 41
1
 50
0
  1
BXH-001T-P0.6
  0
TEXT
  8
_0-0_
 62
    7
 10
1526.7654096589615
 20
1048.3739799984446
 40
40
 41
1
 50
0
  1
G6P1-150S06A
  0
TEXT
  8
_2-7_
 62
    7
 10
1120.3165469787286
 20
319.51876551222244
 40
40
 41
1
 50
0
  1
1
  0
TEXT
  8
_2-7_
 62
    7
 10
402.50392294564722
 20
426.89537967690467
 40
40
 41
1
 50
0
  1
8Φ-20mm
  0
TEXT
  8
_2-7_
 62
    7
 10
393.10093787101994
 20
374.19096336516054
 40
40
 41
1
 50
0
  1
3.5Φ-5mm+はんだ付け
  0
TEXT
  8
_0-0_
 62
    7
 10
1959.4776119402986
 20
262.41873963515752
 40
40
 41
1
 50
0
  1
2
  0
TEXT
  8
_0-0_
 62
    7
 10
1931.7974263179744
 20
210.06973848069751
 40
40
 41
1
 50
0
  1
Ver.
  0
TEXT
  8
_0-0_
 62
    7
 10
1941.4438225538968
 20
154.96811397557661
 40
40
 41
1
 50
0
  1
5.0
  0
TEXT
  8
_0-0_
 62
    7
 10
1510.5646359583957
 20
55.807578008915243
 40
64
 41
1
 50
0
  1
FABOOL Laser Co2
  0
TEXT
  8
_0-0_
 62
    7
 10
2170.8529645772787
 20
55.318919791522603
 40
70
 41
1
 50
0
  1
2018/05/06
  0
TEXT
  8
_0-0_
 62
    7
 10
2290.8259251802765
 20
154.70773855156676
 40
40
 41
1
 50
0
  1
日付
  0
TEXT
  8
_0-0_
 62
    7
 10
1604.9328358208954
 20
389.00000000000017
 40
35
 41
1
 50
0
  1
Y1-limit Cable_ver.5.0
  0
TEXT
  8
_2-7_
 62
    7
 10
1634.4890192765481
 20
1487.4923474484829
 40
21
 41
1
 50
-90
  1
Y1-limit Cable_ver.5.0
  0
LINE
  8
_2-7_
  6
CONTINUOUS
 62
    7
 10
1600.9265600304761
 20
1506.8169745534435
 11
1600.9265600304761
 21
1245.2836620959479
  0
LINE
  8
_2-7_
  6
CONTINUOUS
 62
    7
 10
1692.8668585379387
 20
1506.8169745534435
 11
1692.8668585379387
 21
1245.2836620959479
  0
LINE
  8
_2-7_
  6
CONTINUOUS
 62
    7
 10
1600.9265600304761
 20
1245.2836620959479
 11
1692.8668585379387
 21
1245.2836620959479
  0
TEXT
  8
_2-7_
 62
    7
 10
2298.7352774811102
 20
1036.0963820743148
 40
40
 41
1
 50
0
  1
XHP-2
  0
TEXT
  8
_2-7_
 62
    7
 10
405.94042370211582
 20
533.92390673000227
 40
40
 41
1
 50
0
  1
XHP-2
  0
TEXT
  8
_0-0_
 62
    7
 10
1340.6965384755445
 20
1774.2529498525073
 40
40
 41
1
 50
0
  1
1450±20
  0
LINE
  8
_2-7_
  6
CONTINUOUS
 62
    7
 10
526.16148925063931
 20
1798.8156279899376
 11
1329.041095890411
 21
1798.8156279899376
  0
LINE
  8
_2-7_
  6
CONTINUOUS
 62
    7
 10
2365.1522573048301
 20
1798.8156279899376
 11
1517.596513075965
 21
1798.8156279899376
  0
ENDSEC
  0
EOF
