  0
SECTION
  2
HEADER
  9
$ACADVER
  1
AC1009
  9
$INSBASE
 10
0
 20
0
 30
0
  9
$EXTMIN
 10
0
 20
0
  9
$EXTMAX
 10
2100
 20
1485
  9
$LIMMIN
 10
0
 20
0
  9
$LIMMAX
 10
2100
 20
1485
  9
$LTSCALE
 40
5
  0
ENDSEC
  0
SECTION
  2
TABLES
  0
TABLE
  2
LTYPE
 70
     9
  0
LTYPE
  2
CONTINUOUS
 70
    64
  3
é¿ê¸
 72
    65
 73
     0
 40
0.0
  0
LTYPE
  2
DASHED1
 70
    64
  3
--  --  --  --  --  --  --  --  
 72
    65
 73
     2
 40
2.5
 49
1.25
 49
-1.25
  0
LTYPE
  2
DASHED2
 70
    64
  3
----    ----    ----    ----    
 72
    65
 73
     2
 40
5.0
 49
2.5
 49
-2.5
  0
LTYPE
  2
DASHED3
 70
    64
  3
------  ------  ------  ------  
 72
    65
 73
     2
 40
5.0
 49
3.75
 49
-1.25
  0
LTYPE
  2
CENTER1
 70
    64
  3
----- - ----- - ----- - ----- - 
 72
    65
 73
     4
 40
10.0
 49
6.25
 49
-1.25
 49
1.25
 49
-1.25
  0
LTYPE
  2
CENTER2
 70
    64
  3
----------  --  ----------  --  
 72
    65
 73
     4
 40
20.0
 49
12.5
 49
-2.5
 49
2.5
 49
-2.5
  0
LTYPE
  2
PHANTOM1
 70
    64
  3
--- - - --- - - --- - - --- - - 
 72
    65
 73
     6
 40
10.0
 49
3.25
 49
-1.25
 49
1.25
 49
-1.25
 49
1.25
 49
-1.25
  0
LTYPE
  2
PHANTOM2
 70
    64
  3
--------  -  -  --------  -  -  
 72
    65
 73
     6
 40
20.0
 49
10.0
 49
-2.5
 49
1.25
 49
-2.5
 49
1.25
 49
-2.5
  0
LTYPE
  2
DOT
 70
    64
  3
-   -   -   -   -   -   -   -   
 72
    65
 73
     2
 40
2.5
 49
0.625
 49
-1.875
  0
LTYPE
  2
DUMMY
 70
    64
  3
É_É~Å[
 72
    65
 73
     0
 40
0.0
  0
LTYPE
  2
RAND1
 70
    64
  3
ÉâÉìÉ_ÉÄê¸1
 72
    65
 73
     4
 40
10.0
 49
1.0
 49
-2.0
 49
3.0
 49
-4.0
  0
LTYPE
  2
RAND2
 70
    64
  3
ÉâÉìÉ_ÉÄê¸2
 72
    65
 73
     4
 40
14.0
 49
2.0
 49
-3.0
 49
4.0
 49
-5.0
  0
LTYPE
  2
RAND3
 70
    64
  3
ÉâÉìÉ_ÉÄê¸3
 72
    65
 73
     4
 40
18.0
 49
3.0
 49
-4.0
 49
5.0
 49
-6.0
  0
LTYPE
  2
RAND4
 70
    64
  3
ÉâÉìÉ_ÉÄê¸4
 72
    65
 73
     4
 40
22.0
 49
4.0
 49
-5.0
 49
6.0
 49
-7.0
  0
LTYPE
  2
RAND5
 70
    64
  3
ÉâÉìÉ_ÉÄê¸5
 72
    65
 73
     4
 40
26.0
 49
5.0
 49
-6.0
 49
7.0
 49
-8.0
  0
LTYPE
  2
LONG1
 70
    64
  3
----------  --  ----------  --  
 72
    65
 73
     4
 40
40.0
 49
32.5
 49
-2.5
 49
2.5
 49
-2.5
  0
LTYPE
  2
LONG2
 70
    64
  3
--------  -  -  --------  -  -  
 72
    65
 73
     6
 40
40.0
 49
30.0
 49
-2.5
 49
1.25
 49
-2.5
 49
1.25
 49
-2.5
  0
LTYPE
  2
LONG3
 70
    64
  3
+++++++++++++++..+++++++++++++++
 72
    65
 73
     2
 40
40.0
 49
37.5
 49
-2.5
  0
LTYPE
  2
LONG4
 70
    64
  3
+++++++++++++++..+++++++++++++++
 72
    65
 73
     2
 40
80.0
 49
75.0
 49
-5.0
  0
LTYPE
  2
LONG5
 70
    64
  3
----------  --  ----------  --  
 72
    65
 73
     4
 40
60.0
 49
37.5
 49
-7.5
 49
7.5
 49
-7.5
  0
LTYPE
  2
dashed
 70
   64
  3
-------   -------------   ------
 72
   65
 73
    2
 40
7.5
 49
6
 49
-1.5
  0
LTYPE
  2
dashed_spaced
 70
   64
  3
----        --------        ----
 72
   65
 73
    2
 40
12
 49
6
 49
-6
  0
LTYPE
  2
long_dashed_dotted
 70
   64
  3
------------- --- --------------
 72
   65
 73
    4
 40
15.25
 49
12
 49
-1.5
 49
0.25
 49
-1.5
  0
LTYPE
  2
long_dashed_double-dotted
 70
   64
  3
----------- --- --- ------------
 72
   65
 73
    6
 40
17
 49
12
 49
-1.5
 49
0.25
 49
-1.5
 49
0.25
 49
-1.5
  0
LTYPE
  2
long_dashed_triplicate-dotted
 70
   64
  3
--------- --- --- --- ----------
 72
   65
 73
    8
 40
18.75
 49
12
 49
-1.5
 49
0.25
 49
-1.5
 49
0.25
 49
-1.5
 49
0.25
 49
-1.5
  0
LTYPE
  2
dotted
 70
   64
  3
   -       -       -       -    
 72
   65
 73
    2
 40
1.75
 49
0.25
 49
-1.5
  0
LTYPE
  2
chain
 70
   64
  3
-------------- -- --------------
 72
   65
 73
    4
 40
18.5
 49
12
 49
-1.5
 49
3.5
 49
-1.5
  0
LTYPE
  2
chain_double_dash
 70
   64
  3
------------ -- -- -------------
 72
   65
 73
    6
 40
23.5
 49
12
 49
-1.5
 49
3.5
 49
-1.5
 49
3.5
 49
-1.5
  0
LTYPE
  2
dashed_dotted
 70
   64
  3
-----------     -     ----------
 72
   65
 73
    4
 40
9.25
 49
6
 49
-1.5
 49
0.25
 49
-1.5
  0
LTYPE
  2
double-dashed_dotted
 70
   64
  3
------   -----------   -   -----
 72
   65
 73
    6
 40
16.75
 49
6
 49
-1.5
 49
6
 49
-1.5
 49
0.25
 49
-1.5
  0
LTYPE
  2
dashed_double-dotted
 70
   64
  3
---------    -    -    ---------
 72
   65
 73
    6
 40
11
 49
6
 49
-1.5
 49
0.25
 49
-1.5
 49
0.25
 49
-1.5
  0
LTYPE
  2
double-dashed_double-dotted
 70
   64
  3
-----   ---------   -   -   ----
 72
   65
 73
    8
 40
18.5
 49
6
 49
-1.5
 49
6
 49
-1.5
 49
0.25
 49
-1.5
 49
0.25
 49
-1.5
  0
LTYPE
  2
dashed_triplicate-dotted
 70
   64
  3
-------    -    -    -    ------
 72
   65
 73
    8
 40
12.75
 49
6
 49
-1.5
 49
0.25
 49
-1.5
 49
0.25
 49
-1.5
 49
0.25
 49
-1.5
  0
LTYPE
  2
double-dashed_triplicate-dotted
 70
   64
  3
-----  ---------  -  -  -  -----
 72
   65
 73
   10
 40
20.25
 49
6
 49
-1.5
 49
6
 49
-1.5
 49
0.25
 49
-1.5
 49
0.25
 49
-1.5
 49
0.25
 49
-1.5
  0
LTYPE
  2
undefined
 70
   64
  3
--------------------------------
 72
   65
 73
    0
 40
0
  0
LTYPE
  2
_
 70
   64
  3
                                
 72
   65
 73
    0
 40
0
  0
LTYPE
  2
__18
 70
   64
  3
                                
 72
   65
 73
    0
 40
0
  0
LTYPE
  2
__19
 70
   64
  3
                                
 72
   65
 73
    0
 40
0
  0
LTYPE
  2
__20
 70
   64
  3
                                
 72
   65
 73
    0
 40
0
  0
LTYPE
  2
__21
 70
   64
  3
                                
 72
   65
 73
    0
 40
0
  0
LTYPE
  2
__22
 70
   64
  3
                                
 72
   65
 73
    0
 40
0
  0
LTYPE
  2
__23
 70
   64
  3
                                
 72
   65
 73
    0
 40
0
  0
LTYPE
  2
__24
 70
   64
  3
                                
 72
   65
 73
    0
 40
0
  0
LTYPE
  2
__25
 70
   64
  3
                                
 72
   65
 73
    0
 40
0
  0
LTYPE
  2
__26
 70
   64
  3
                                
 72
   65
 73
    0
 40
0
  0
LTYPE
  2
__27
 70
   64
  3
                                
 72
   65
 73
    0
 40
0
  0
LTYPE
  2
__28
 70
   64
  3
                                
 72
   65
 73
    0
 40
0
  0
LTYPE
  2
__29
 70
   64
  3
                                
 72
   65
 73
    0
 40
0
  0
LTYPE
  2
__30
 70
   64
  3
                                
 72
   65
 73
    0
 40
0
  0
LTYPE
  2
__31
 70
   64
  3
                                
 72
   65
 73
    0
 40
0
  0
LTYPE
  2
__32
 70
   64
  3
                                
 72
   65
 73
    0
 40
0
  0
ENDTAB
  0
TABLE
  2
STYLE
  5
3
100
AcDbSymbolTable
 70
     1
  0
STYLE
  5
10
100
AcDbSymbolTableRecord
100
AcDbTextStyleTableRecord
  2
STANDARD
 70
     0
 40
0.0
 41
1.0
 50
0.0
 71
     0
 42
0.2
  3
txt
  4
bigfont.shx
  0
STYLE
  5
26
100
AcDbSymbolTableRecord
100
AcDbTextStyleTableRecord
  2
TATEGAKI
 70
    68
 40
0.0
 41
1.0
 50
0.0
 71
     0
 42
1.0
  3
txt
  4
bigfont.shx
  0
ENDTAB
  0
TABLE
  2
LAYER
 70
    5
  0
LAYER
  2
_0-0_
 70
   64
 62
    7
  6
CONTINUOUS
  0
LAYER
  2
_0-1_
 70
   64
 62
    7
  6
CONTINUOUS
  0
LAYER
  2
_0-2_
 70
   64
 62
    7
  6
CONTINUOUS
  0
LAYER
  2
_0-8_
 70
   64
 62
    7
  6
CONTINUOUS
  0
LAYER
  2
ADD_LINE
 70
   64
 62
    7
  6
CONTINUOUS
  0
ENDTAB
  0
ENDSEC
  0
SECTION
  2
BLOCKS
  0
ENDSEC
  0
SECTION
  2
ENTITIES
  0
LINE
  8
_0-2_
  6
CONTINUOUS
 62
    7
 10
603.82562060762586
 20
709.7269973548656
 11
603.82562060762586
 21
790.72699735486549
  0
LINE
  8
_0-2_
  6
CONTINUOUS
 62
    7
 10
1395.825620607626
 20
813.22699735486549
 11
707.82562060762586
 21
813.22699735486549
  0
LINE
  8
_0-2_
  6
CONTINUOUS
 62
    7
 10
705.82562060762586
 20
811.22699735486549
 11
705.82562060762586
 21
797.2269973548656
  0
LINE
  8
_0-2_
  6
CONTINUOUS
 62
    7
 10
653.82562060762575
 20
811.22699735486549
 11
653.82562060762575
 21
797.2269973548656
  0
LINE
  8
_0-0_
  6
CONTINUOUS
 62
    4
 10
1397.6256206076264
 20
134.02699735486584
 11
1098.6256206076257
 21
134.02699735486584
  0
LINE
  8
_0-0_
  6
CONTINUOUS
 62
    4
 10
2091.8256206076258
 20
89.826997354865625
 11
1493.8256206076262
 21
89.826997354865625
  0
LINE
  8
_0-0_
  6
CONTINUOUS
 62
    4
 10
1683.6256206076259
 20
141.82699735486557
 11
2076.2256206076263
 21
141.82699735486557
  0
LINE
  8
_0-0_
  6
CONTINUOUS
 62
    4
 10
1668.025620607626
 20
32.626997354865352
 11
1668.0256206076263
 21
193.82699735486563
  0
LINE
  8
_0-0_
  6
CONTINUOUS
 62
    4
 10
1098.6256206076257
 20
256.22699735486583
 11
2091.8256206076258
 21
256.22699735486583
  0
LINE
  8
_0-0_
  6
CONTINUOUS
 62
    4
 10
1098.6256206076257
 20
193.82699735486563
 11
2091.8256206076267
 21
193.82699735486545
  0
LINE
  8
_0-0_
  6
CONTINUOUS
 62
    4
 10
1322.2256206076258
 20
256.22699735486583
 11
1322.2256206076258
 21
193.82699735486591
  0
TEXT
  8
_0-0_
 62
    7
 10
1591.2534617989184
 20
198.88699350678996
 40
18.999999761581421
 41
1.178947400782578
 50
0
  1
Å|
  0
LINE
  8
_0-0_
  6
CONTINUOUS
 62
    4
 10
1493.8256206076262
 20
256.22699735486555
 11
1493.8256206076262
 21
32.6269973548645
  0
LINE
  8
_0-0_
  6
CONTINUOUS
 62
    4
 10
1972.2256206076258
 20
256.22699735486583
 11
1972.2256206076258
 21
193.82699735486591
  0
LINE
  8
_0-0_
  6
CONTINUOUS
 62
    4
 10
1852.6256206076273
 20
193.82699735486563
 11
1852.6256206076273
 21
256.22699735486583
  0
LINE
  8
_0-0_
  6
CONTINUOUS
 62
    4
 10
1647.2256206076263
 20
193.82699735486563
 11
1647.2256206076258
 21
256.22699735486583
  0
LINE
  8
_0-0_
  6
CONTINUOUS
 62
    4
 10
1561.2965564415172
 20
42.63804347354295
 11
1590.4165564415166
 21
37.646043473542932
  0
LINE
  8
_0-0_
  6
CONTINUOUS
 62
    4
 10
1590.4165564415166
 20
60.110043473542589
 11
1590.4165564415166
 21
37.646043473542932
  0
LINE
  8
_0-0_
  6
CONTINUOUS
 62
    4
 10
1561.2965564415172
 20
55.118043473542855
 11
1590.4165564415166
 21
60.110043473542589
  0
LINE
  8
_0-0_
  6
CONTINUOUS
 62
    4
 10
1561.2965564415172
 20
55.118043473542855
 11
1561.2965564415172
 21
42.63804347354295
  0
CIRCLE
  8
_0-0_
  6
CONTINUOUS
 62
    4
 10
1544.6565564415164
 20
48.878043473542903
 40
6.2400000000000002
  0
CIRCLE
  8
_0-0_
  6
CONTINUOUS
 62
    4
 10
1544.6565564415164
 20
48.878043473542903
 40
11.440000000000003
  0
LINE
  8
_0-0_
  6
_
 62
    7
 10
1594.868990179702
 20
48.878043473542903
 11
1530.4894414143221
 21
48.878043473542903
  0
LINE
  8
_0-0_
  6
_
 62
    7
 10
1544.6565564415164
 20
36.050617842216184
 11
1544.6565564415164
 21
62.642036573345479
  0
LINE
  8
_0-0_
  6
CONTINUOUS
 62
    4
 10
1657.6256206076259
 20
141.82699735486557
 11
1504.2256206076258
 21
141.82699735486557
  0
LINE
  8
_0-0_
  6
CONTINUOUS
 62
    4
 10
1397.6256206076257
 20
32.626997354865352
 11
1397.6256206076268
 21
193.82699735486563
  0
LINE
  8
_0-0_
  6
CONTINUOUS
 62
    4
 10
1493.8256206076262
 20
102.82699735486567
 11
1397.6256206076264
 21
102.82699735486567
  0
LINE
  8
_0-0_
  6
CONTINUOUS
 62
    4
 10
1397.6256206076264
 20
102.82699735486567
 11
1098.6256206076257
 21
102.82699735486581
  0
TEXT
  8
_0-0_
 62
    7
 10
1626.8193473032943
 20
39.87804396474445
 40
17.999999523162838
 41
1.060606088702527
 50
0
  1
Ç`ÇR
  0
LINE
  8
_0-0_
  6
CONTINUOUS
 62
    4
 10
1098.6256206076257
 20
256.22699735486583
 11
1098.6256206076257
 21
32.626997354865352
  0
TEXT
  8
_0-0_
 62
    7
 10
1328.7597382782469
 20
237.281614545227
 40
16.000000238418579
 41
1.0422794146408489
 50
0
  1
Material
  0
TEXT
  8
_0-0_
 62
    7
 10
1104.6594441517639
 20
237.281614545227
 40
16.000000238418579
 41
1.0422794146408489
 50
0
  1
Model
  0
LINE
  8
_0-0_
  6
CONTINUOUS
 62
    3
 10
2091.8256206076262
 20
32.626997354865352
 11
2091.8256206076267
 21
1467.8269973548661
  0
LINE
  8
_0-0_
  6
CONTINUOUS
 62
    3
 10
11.825620607625353
 20
32.626997354865921
 11
2091.8256206076262
 21
32.626997354865352
  0
LINE
  8
_0-0_
  6
CONTINUOUS
 62
    3
 10
11.825620607625353
 20
1467.8269973548665
 11
11.825620607625353
 21
32.626997354865921
  0
LINE
  8
_0-0_
  6
CONTINUOUS
 62
    3
 10
2091.8256206076267
 20
1467.8269973548661
 11
11.825620607625353
 21
1467.8269973548665
  0
TEXT
  8
_0-0_
 62
    7
 10
1375.5245918667019
 20
198.88695383393843
 40
18.999999761581421
 41
1.025171652854415
 50
0
  1
SPCC
  0
TEXT
  8
_0-0_
 62
    7
 10
1498.5847115318895
 20
122.90700517022678
 40
16.000000238418579
 41
1.0738636393269361
 50
0
  1
Grade
  0
TEXT
  8
_0-0_
 62
    7
 10
1549.1006294817305
 20
97.590806439758069
 40
16.000000238418579
 41
1.018318968327266
 50
0
  1
ÇçÅiMediumÅj
  0
TEXT
  8
_0-0_
 62
    7
 10
1674.609398899217
 20
68.677087620139901
 40
17.999999523162838
 41
1.029411791975982
 50
0
  1
Drawing number
  0
TEXT
  8
_0-0_
 62
    7
 10
1499.5959355991008
 20
72.467001202942072
 40
16.000000238418579
 41
1.0422794146408489
 50
0
  1
Projection method
  0
TEXT
  8
_0-0_
 62
    7
 10
1401.136648229849
 20
84.998464825988549
 40
16.000000238418579
 41
1.0738636393269361
 50
0
  1
Unit
  0
TEXT
  8
_0-0_
 62
    7
 10
1430.5074387894444
 20
47.006486729026733
 40
17.999999523162838
 41
1.060606088702527
 50
0
  1
mm
  0
TEXT
  8
_0-0_
 62
    7
 10
1401.0847115318893
 20
174.90700517022697
 40
16.000000238418579
 41
1.0738636393269361
 50
0
  1
Scale
  0
TEXT
  8
_0-0_
 62
    7
 10
1254.3262088605916
 20
174.90700517022697
 40
16.000000238418579
 41
1.0422794146408489
 50
0
  1
Finish
  0
TEXT
  8
_0-0_
 62
    7
 10
1104.4773447570672
 20
174.90700517022697
 40
16.000000238418579
 41
1.018318968327266
 50
0
  1
Date
  0
TEXT
  8
_0-0_
 62
    7
 10
1223.932925945971
 20
110.93447414048789
 40
15
 41
1.103030262571393
 50
0
  1
Author
  0
LINE
  8
_0-0_
  6
CONTINUOUS
 62
    4
 10
1248.1256206076257
 20
193.82699735486563
 11
1248.1256206076257
 21
134.02699735486584
  0
TEXT
  8
_0-0_
 62
    7
 10
1544.2975423638472
 20
146.82699723565656
 40
16.000000238418579
 41
1.001059324796296
 50
0
  1
JIS B 0405
  0
TEXT
  8
_0-0_
 62
    7
 10
1500.7745829256241
 20
174.90700517022697
 40
16.000000238418579
 41
1.002948115975157
 50
0
  1
Machining tolerance
  0
TEXT
  8
_0-0_
 62
    7
 10
1501.3603265312117
 20
237.281614545227
 40
16.000000238418579
 41
1.0422794146408489
 50
0
  1
Heat treatment
  0
TEXT
  8
_0-0_
 62
    7
 10
1654.3509455472717
 20
237.281614545227
 40
16.000000238418579
 41
1.027173915877938
 50
0
  1
Surface
  0
TEXT
  8
_0-0_
 62
    7
 10
1654.1154696396661
 20
200.18989850640344
 40
18.999999761581421
 41
1.178947400782578
 50
0
  1
Matte black paint
  0
TEXT
  8
_0-0_
 62
    7
 10
1672.5596628333403
 20
171.82697775685875
 40
17.999999523162838
 41
1.014492780498069
 50
0
  1
Equipment
  0
TEXT
  8
_0-0_
 62
    7
 10
1860.8619089267104
 20
239.05984124494302
 40
16.000000238418579
 41
1.0422794146408489
 50
0
  1
Quantity
  0
TEXT
  8
_0-2_
 62
    7
 10
1979.8270588661653
 20
238.92246027413171
 40
15
 41
1.103030262571393
 50
0
  1
Thickness
  0
TEXT
  8
_0-2_
 62
    7
 10
2016.4770786379042
 20
201.94226014408898
 40
15
 41
1.103030262571393
 50
0
  1
1.2mm
  0
TEXT
  8
_0-0_
 62
    7
 10
1175.3167990003985
 20
61.12561865131255
 40
15
 41
1.103030262571393
 50
0
  1
Hirotaka Shiojima
  0
LINE
  8
_0-1_
  6
CENTER1
 62
    4
 10
1041.2808523411395
 20
750.22699735486549
 11
1065.7128430544024
 21
750.22699735486549
  0
LINE
  8
_0-1_
  6
CENTER1
 62
    4
 10
1051.825620607626
 20
762.02923608495416
 11
1051.825620607626
 21
737.02880989364655
  0
LINE
  8
_0-1_
  6
CENTER1
 62
    4
 10
1051.825620607626
 20
816.27519696240392
 11
1051.825620607626
 21
792.31242005710169
  0
LINE
  8
_0-1_
  6
CENTER1
 62
    4
 10
1051.825620607626
 20
710.04021934889749
 11
1051.825620607626
 21
682.08364629271159
  0
LINE
  8
_0-1_
  6
CENTER1
 62
    4
 10
633.82562060762586
 20
819.47023388311095
 11
633.82562060762586
 21
798.27330983453999
  0
LINE
  8
_0-1_
  6
CENTER1
 62
    4
 10
633.82562060762586
 20
705.18805507006277
 11
633.82562060762586
 21
681.15374748743125
  0
LINE
  8
_0-1_
  6
CENTER1
 62
    4
 10
1469.8256206076258
 20
819.47023388311095
 11
1469.8256206076258
 21
798.27330983453999
  0
LINE
  8
_0-1_
  6
CENTER1
 62
    4
 10
1469.8256206076258
 20
705.18805507006277
 11
1469.8256206076258
 21
681.15374748743125
  0
CIRCLE
  8
_0-2_
  6
CONTINUOUS
 62
    7
 10
633.82562060762586
 20
805.22699735486549
 40
2.75
  0
CIRCLE
  8
_0-2_
  6
CONTINUOUS
 62
    7
 10
633.82562060762586
 20
695.22699735486549
 40
2.75
  0
CIRCLE
  8
_0-2_
  6
CONTINUOUS
 62
    7
 10
1051.825620607626
 20
805.22699735486549
 40
2.75
  0
CIRCLE
  8
_0-2_
  6
CONTINUOUS
 62
    7
 10
1051.825620607626
 20
695.22699735486549
 40
2.75
  0
CIRCLE
  8
_0-2_
  6
CONTINUOUS
 62
    7
 10
1469.8256206076258
 20
805.22699735486549
 40
2.75
  0
CIRCLE
  8
_0-2_
  6
CONTINUOUS
 62
    7
 10
1469.8256206076258
 20
695.22699735486549
 40
2.75
  0
LINE
  8
_0-8_
  6
CONTINUOUS
 62
    4
 10
1471.6255252079286
 20
697.00780549621413
 11
1517.7363366668919
 21
743.11861695517734
  0
LINE
  8
_0-8_
  6
CONTINUOUS
 62
    4
 10
1471.6255252079286
 20
697.00780549621413
 11
1479.1255252079286
 21
709.99818655298077
  0
LINE
  8
_0-8_
  6
CONTINUOUS
 62
    4
 10
1471.6255252079286
 20
697.00780549621413
 11
1484.615906264695
 21
704.50780549621413
  0
LINE
  8
_0-1_
  6
CENTER1
 62
    4
 10
616.24428027076829
 20
805.22699735486549
 11
649.83919662199582
 21
805.22699735486549
  0
LINE
  8
_0-1_
  6
CENTER1
 62
    4
 10
616.24428027076829
 20
695.22699735486549
 11
649.83919662199582
 21
695.22699735486549
  0
LINE
  8
_0-1_
  6
CENTER1
 62
    4
 10
1037.4342763160084
 20
805.22699735486549
 11
1066.0425111091201
 21
805.22699735486549
  0
LINE
  8
_0-1_
  6
CENTER1
 62
    4
 10
1037.4342763160084
 20
695.22699735486549
 11
1066.0425111091201
 21
695.22699735486549
  0
LINE
  8
_0-1_
  6
CENTER1
 62
    4
 10
1457.0904307541286
 20
805.22699735486549
 11
1485.8311792441718
 21
805.22699735486549
  0
LINE
  8
_0-1_
  6
CENTER1
 62
    4
 10
1457.0904307541286
 20
695.22699735486549
 11
1485.8311792441718
 21
695.22699735486549
  0
LINE
  8
_0-8_
  6
CONTINUOUS
 62
    4
 10
792.79424220029625
 20
687.2269973548656
 11
707.89136343234736
 21
687.2269973548656
  0
TEXT
  8
_0-0_
 62
    7
 10
1932.9296204869866
 20
199.92701731050096
 40
18.999999761581421
 41
1.178947400782578
 50
0
  1
1
  0
LINE
  8
_0-1_
  6
CENTER1
 62
    4
 10
679.82562060762575
 20
805.79347127408153
 11
679.82562060762575
 21
787.42707705019473
  0
LINE
  8
_0-1_
  6
CENTER1
 62
    4
 10
1423.8256206076258
 20
805.79347127408153
 11
1423.8256206076258
 21
787.42707705019473
  0
POINT
  8
_0-8_
 62
    4
 10
756.49290029099245
 20
813.22699735486549
  0
LINE
  8
_0-8_
  6
CONTINUOUS
 62
    4
 10
756.49290029099245
 20
813.22699735486549
 11
720.89362935982672
 21
813.22699735486549
  0
POINT
  8
_0-8_
 62
    4
 10
1355.5170502580995
 20
813.22699735486549
  0
LINE
  8
_0-8_
  6
CONTINUOUS
 62
    4
 10
1355.5170502580995
 20
813.22699735486549
 11
1355.5170502580995
 21
797.2269973548656
  0
POINT
  8
_0-8_
 62
    4
 10
1355.5170502580995
 20
813.22699735486549
  0
POINT
  8
_0-8_
 62
    4
 10
1355.5170502580995
 20
797.2269973548656
  0
LINE
  8
_0-8_
  6
CONTINUOUS
 62
    4
 10
1355.5170502580995
 20
813.22699735486549
 11
1393.5271842096263
 21
813.22699735486549
  0
LINE
  8
_0-8_
  6
CONTINUOUS
 62
    4
 10
1355.5170502580995
 20
797.2269973548656
 11
1393.5271842096263
 21
797.2269973548656
  0
TEXT
  8
_0-8_
 62
    4
 10
1353.0170502580995
 20
798.97699735486549
 40
12.5
 41
1
 50
90
  1
16
  0
LINE
  8
_0-8_
  6
CONTINUOUS
 62
    4
 10
756.49290029099245
 20
797.2269973548656
 11
756.49290029099245
 21
813.22699735486549
  0
POINT
  8
_0-8_
 62
    4
 10
756.49290029099245
 20
797.2269973548656
  0
POINT
  8
_0-8_
 62
    4
 10
756.49290029099245
 20
813.22699735486549
  0
LINE
  8
_0-8_
  6
CONTINUOUS
 62
    4
 10
756.49290029099245
 20
797.2269973548656
 11
720.89362935982672
 21
797.2269973548656
  0
LINE
  8
_0-8_
  6
CONTINUOUS
 62
    4
 10
756.49290029099245
 20
813.22699735486549
 11
720.89362935982672
 21
813.22699735486549
  0
TEXT
  8
_0-8_
 62
    4
 10
753.99290029099245
 20
798.97699735486549
 40
12.5
 41
1
 50
90
  1
16
  0
LINE
  8
_0-8_
  6
CONTINUOUS
 62
    4
 10
1482.0949638080383
 20
686.94811367005002
 11
1539.0763868008962
 21
629.96669067719199
  0
LINE
  8
_0-8_
  6
CONTINUOUS
 62
    4
 10
1482.0949638080383
 20
686.94811367005002
 11
1495.0853448648047
 21
679.44811367005002
  0
LINE
  8
_0-8_
  6
CONTINUOUS
 62
    4
 10
1482.0949638080383
 20
686.94811367005002
 11
1489.5949638080383
 21
673.9577326132835
  0
LINE
  8
_0-2_
  6
CONTINUOUS
 62
    4
 10
1397.8256206076258
 20
758.76212584315397
 11
1449.8256206076258
 21
758.76212584315397
  0
POINT
  8
_0-2_
 62
    4
 10
1397.8256206076258
 20
758.76212584315397
  0
POINT
  8
_0-2_
 62
    4
 10
1449.8256206076258
 20
758.76212584315397
  0
LINE
  8
_0-2_
  6
CONTINUOUS
 62
    4
 10
1397.8256206076258
 20
758.76212584315397
 11
1397.8256206076258
 21
779.79384274512825
  0
LINE
  8
_0-2_
  6
CONTINUOUS
 62
    4
 10
1449.8256206076258
 20
758.76212584315397
 11
1449.8256206076258
 21
779.79384274512825
  0
TEXT
  8
_0-2_
 62
    4
 10
1417.5756206076258
 20
761.26212584315397
 40
12.5
 41
1
 50
0
  1
52
  0
LINE
  8
_0-2_
  6
CONTINUOUS
 62
    4
 10
653.82562060762575
 20
758.76212584315397
 11
705.82562060762586
 21
758.76212584315397
  0
POINT
  8
_0-2_
 62
    4
 10
653.82562060762575
 20
758.76212584315397
  0
POINT
  8
_0-2_
 62
    4
 10
705.82562060762586
 20
758.76212584315397
  0
LINE
  8
_0-2_
  6
CONTINUOUS
 62
    4
 10
653.82562060762575
 20
758.76212584315397
 11
653.82562060762575
 21
779.79384274512825
  0
LINE
  8
_0-2_
  6
CONTINUOUS
 62
    4
 10
705.82562060762586
 20
758.76212584315397
 11
705.82562060762586
 21
779.79384274512825
  0
TEXT
  8
_0-2_
 62
    4
 10
673.57562060762575
 20
761.26212584315397
 40
12.5
 41
1
 50
0
  1
52
  0
LINE
  8
_0-8_
  6
CONTINUOUS
 62
    4
 10
776.62128783181265
 20
687.2269973548656
 11
703.75186026266647
 21
687.2269973548656
  0
LINE
  8
_0-8_
  6
CONTINUOUS
 62
    4
 10
571.92782430594559
 20
813.22699735486549
 11
571.92782430594559
 21
805.22699735486549
  0
POINT
  8
_0-8_
 62
    4
 10
571.92782430594559
 20
813.22699735486549
  0
POINT
  8
_0-8_
 62
    4
 10
571.92782430594559
 20
805.22699735486549
  0
LINE
  8
_0-8_
  6
CONTINUOUS
 62
    4
 10
571.92782430594559
 20
813.22699735486549
 11
597.97038393192099
 21
813.22699735486549
  0
LINE
  8
_0-8_
  6
CONTINUOUS
 62
    4
 10
571.92782430594559
 20
805.22699735486549
 11
597.97038393192099
 21
805.22699735486549
  0
TEXT
  8
_0-8_
 62
    4
 10
569.42782430594559
 20
806.1019973548656
 40
12.5
 41
1
 50
90
  1
8
  0
LINE
  8
_0-8_
  6
CONTINUOUS
 62
    4
 10
571.92782430594559
 20
695.22699735486549
 11
571.92782430594559
 21
687.2269973548656
  0
POINT
  8
_0-8_
 62
    4
 10
571.92782430594559
 20
695.22699735486549
  0
POINT
  8
_0-8_
 62
    4
 10
571.92782430594559
 20
687.2269973548656
  0
LINE
  8
_0-8_
  6
CONTINUOUS
 62
    4
 10
571.92782430594559
 20
695.22699735486549
 11
597.97038393192099
 21
695.22699735486549
  0
LINE
  8
_0-8_
  6
CONTINUOUS
 62
    4
 10
571.92782430594559
 20
687.2269973548656
 11
597.97038393192099
 21
687.2269973548656
  0
TEXT
  8
_0-8_
 62
    4
 10
569.42782430594559
 20
688.10199735486549
 40
12.5
 41
1
 50
90
  1
8
  0
LINE
  8
_0-8_
  6
CONTINUOUS
 62
    4
 10
530.25972890438481
 20
813.22699735486549
 11
597.97038393192099
 21
813.22699735486549
  0
LINE
  8
_0-8_
  6
CONTINUOUS
 62
    4
 10
530.25972890438481
 20
687.2269973548656
 11
597.97038393192099
 21
687.2269973548656
  0
LINE
  8
_0-8_
  6
CONTINUOUS
 62
    4
 10
447.60896114584807
 20
813.22699735486549
 11
447.60896114584807
 21
687.2269973548656
  0
POINT
  8
_0-8_
 62
    4
 10
447.60896114584807
 20
813.22699735486549
  0
POINT
  8
_0-8_
 62
    4
 10
447.60896114584807
 20
687.2269973548656
  0
LINE
  8
_0-8_
  6
CONTINUOUS
 62
    4
 10
447.60896114584807
 20
813.22699735486549
 11
597.97038393192099
 21
813.22699735486549
  0
LINE
  8
_0-8_
  6
CONTINUOUS
 62
    4
 10
447.60896114584807
 20
687.2269973548656
 11
597.97038393192099
 21
687.2269973548656
  0
TEXT
  8
_0-8_
 62
    4
 10
445.10896114584807
 20
740.85199735486549
 40
12.5
 41
1
 50
90
  1
126
  0
LINE
  8
_0-8_
  6
CONTINUOUS
 62
    4
 10
603.82562060762586
 20
843.94932194576859
 11
679.82562060762575
 21
843.94932194576859
  0
POINT
  8
_0-8_
 62
    4
 10
603.82562060762586
 20
843.94932194576859
  0
POINT
  8
_0-8_
 62
    4
 10
679.82562060762575
 20
843.94932194576859
  0
LINE
  8
_0-8_
  6
CONTINUOUS
 62
    4
 10
603.82562060762586
 20
843.94932194576859
 11
603.82562060762586
 21
822.1376437347817
  0
LINE
  8
_0-8_
  6
CONTINUOUS
 62
    4
 10
679.82562060762575
 20
843.94932194576859
 11
679.82562060762575
 21
822.1376437347817
  0
TEXT
  8
_0-8_
 62
    4
 10
635.57562060762586
 20
846.44932194576859
 40
12.5
 41
1
 50
0
  1
76
  0
LINE
  8
_0-8_
  6
CONTINUOUS
 62
    4
 10
679.82562060762575
 20
843.94932194576859
 11
1423.8256206076258
 21
843.94932194576859
  0
POINT
  8
_0-8_
 62
    4
 10
1423.8256206076258
 20
843.94932194576859
  0
LINE
  8
_0-8_
  6
CONTINUOUS
 62
    4
 10
1423.8256206076258
 20
843.94932194576859
 11
1423.8256206076258
 21
822.1376437347817
  0
TEXT
  8
_0-8_
 62
    4
 10
1042.450620607626
 20
846.44932194576859
 40
12.5
 41
1
 50
0
  1
744
  0
LINE
  8
_0-8_
  6
CONTINUOUS
 62
    4
 10
1423.8256206076258
 20
843.94932194576859
 11
1499.8256206076258
 21
843.94932194576859
  0
POINT
  8
_0-8_
 62
    4
 10
1499.8256206076258
 20
843.94932194576859
  0
LINE
  8
_0-8_
  6
CONTINUOUS
 62
    4
 10
1499.8256206076258
 20
843.94932194576859
 11
1499.8256206076258
 21
822.1376437347817
  0
TEXT
  8
_0-8_
 62
    4
 10
1455.5756206076258
 20
846.44932194576859
 40
12.5
 41
1
 50
0
  1
76
  0
LINE
  8
_0-8_
  6
CONTINUOUS
 62
    4
 10
603.82562060762586
 20
899.32177413024124
 11
603.82562060762586
 21
822.1376437347817
  0
LINE
  8
_0-8_
  6
CONTINUOUS
 62
    4
 10
633.82562060762586
 20
899.32177413024124
 11
633.82562060762586
 21
822.1376437347817
  0
LINE
  8
_0-8_
  6
CONTINUOUS
 62
    4
 10
633.82562060762586
 20
899.32177413024124
 11
1051.825620607626
 21
899.32177413024124
  0
POINT
  8
_0-8_
 62
    4
 10
1051.825620607626
 20
899.32177413024124
  0
TEXT
  8
_0-8_
 62
    4
 10
833.45062060762586
 20
901.82177413024124
 40
12.5
 41
1
 50
0
  1
418
  0
LINE
  8
_0-8_
  6
CONTINUOUS
 62
    4
 10
1051.825620607626
 20
899.32177413024124
 11
1469.8256206076258
 21
899.32177413024124
  0
LINE
  8
_0-8_
  6
CONTINUOUS
 62
    4
 10
1469.8256206076258
 20
899.32177413024124
 11
1469.8256206076258
 21
822.1376437347817
  0
TEXT
  8
_0-8_
 62
    4
 10
1251.4506206076258
 20
901.82177413024124
 40
12.5
 41
1
 50
0
  1
418
  0
LINE
  8
_0-8_
  6
CONTINUOUS
 62
    4
 10
1499.8256206076258
 20
899.32177413024124
 11
1499.8256206076258
 21
822.1376437347817
  0
LINE
  8
_0-8_
  6
CONTINUOUS
 62
    4
 10
603.82562060762586
 20
992.07698870241973
 11
1499.8256206076258
 21
992.07698870241973
  0
POINT
  8
_0-8_
 62
    4
 10
603.82562060762586
 20
992.07698870241973
  0
POINT
  8
_0-8_
 62
    4
 10
1499.8256206076258
 20
992.07698870241973
  0
LINE
  8
_0-8_
  6
CONTINUOUS
 62
    4
 10
603.82562060762586
 20
992.07698870241973
 11
603.82562060762586
 21
822.1376437347817
  0
LINE
  8
_0-8_
  6
CONTINUOUS
 62
    4
 10
1499.8256206076258
 20
992.07698870241973
 11
1499.8256206076258
 21
822.1376437347817
  0
TEXT
  8
_0-8_
 62
    4
 10
1042.450620607626
 20
994.57698870241973
 40
12.5
 41
1
 50
0
  1
896
  0
LINE
  8
_0-8_
  6
CONTINUOUS
 62
    4
 10
1051.825620607626
 20
899.32177413024124
 11
1051.825620607626
 21
865.14171329763042
  0
LINE
  8
_0-8_
  6
CONTINUOUS
 62
    4
 10
1051.825620607626
 20
841.05578948296147
 11
1051.825620607626
 21
822.1376437347817
  0
ARC
  8
_0-8_
  6
CONTINUOUS
 62
    7
 10
605.82562060762586
 20
790.72699735486549
 40
2
 50
90
 51
180
  0
ARC
  8
_0-2_
  6
CONTINUOUS
 62
    7
 10
651.82562060762575
 20
811.22699735486549
 40
2
 50
0
 51
90
  0
ARC
  8
_0-2_
  6
CONTINUOUS
 62
    7
 10
707.82562060762586
 20
811.22699735486549
 40
2
 50
90
 51
180
  0
LINE
  8
_0-2_
  6
CONTINUOUS
 62
    7
 10
705.82562060762586
 20
797.2269973548656
 11
653.82562060762575
 21
797.2269973548656
  0
ARC
  8
_0-8_
  6
CONTINUOUS
 62
    7
 10
605.82562060762586
 20
709.7269973548656
 40
2
 50
180
 51
270
  0
ARC
  8
_0-8_
  6
CONTINUOUS
 62
    7
 10
1497.8256206076258
 20
709.7269973548656
 40
2
 50
270
 51
0
  0
ARC
  8
_0-2_
  6
CONTINUOUS
 62
    7
 10
1451.825620607626
 20
811.22699735486549
 40
2
 50
90
 51
180
  0
LINE
  8
_0-2_
  6
CONTINUOUS
 62
    7
 10
1499.8256206076258
 20
790.72699735486549
 11
1499.8256206076258
 21
709.7269973548656
  0
ARC
  8
_0-8_
  6
CONTINUOUS
 62
    7
 10
1497.8256206076258
 20
790.72699735486549
 40
2
 50
0
 51
90
  0
LINE
  8
_0-2_
  6
CONTINUOUS
 62
    7
 10
1397.8256206076258
 20
797.2269973548656
 11
1449.8256206076258
 21
797.2269973548656
  0
LINE
  8
_0-2_
  6
CONTINUOUS
 62
    7
 10
1449.8256206076258
 20
811.22699735486549
 11
1449.8256206076258
 21
797.2269973548656
  0
LINE
  8
_0-8_
  6
CONTINUOUS
 62
    4
 10
1395.825620607626
 20
813.22699735486549
 11
1355.5170502580995
 21
813.22699735486549
  0
ARC
  8
_0-8_
  6
CONTINUOUS
 62
    7
 10
1395.825620607626
 20
811.22699735486549
 40
2
 50
0
 51
90
  0
LINE
  8
_0-2_
  6
CONTINUOUS
 62
    7
 10
1397.8256206076258
 20
811.22699735486549
 11
1397.8256206076258
 21
797.2269973548656
  0
ARC
  8
_0-2_
  6
CONTINUOUS
 62
    7
 10
1395.825620607626
 20
811.22699735486549
 40
2
 50
0
 51
90
  0
TEXT
  8
_0-8_
 62
    7
 10
1542.4177131053689
 20
631.86037083619374
 40
15
 41
1.103030262571393
 50
0
  1
12Å~R2
  0
LINE
  8
_0-8_
  6
CONTINUOUS
 62
    4
 10
516.81851064261843
 20
813.22699735486549
 11
516.81851064261843
 21
792.72699735486549
  0
POINT
  8
_0-8_
 62
    4
 10
516.81851064261843
 20
813.22699735486549
  0
POINT
  8
_0-8_
 62
    4
 10
516.81851064261843
 20
792.72699735486549
  0
LINE
  8
_0-8_
  6
CONTINUOUS
 62
    4
 10
516.81851064261843
 20
813.22699735486549
 11
597.97038393192099
 21
813.22699735486549
  0
LINE
  8
_0-8_
  6
CONTINUOUS
 62
    4
 10
516.81851064261843
 20
792.72699735486549
 11
597.97038393192099
 21
792.72699735486549
  0
TEXT
  8
_0-8_
 62
    4
 10
514.31851064261843
 20
790.4769973548656
 40
12.5
 41
1
 50
90
  1
20.5
  0
LINE
  8
_0-8_
  6
CONTINUOUS
 62
    4
 10
516.81851064261843
 20
792.72699735486549
 11
516.81851064261843
 21
707.72699735486549
  0
POINT
  8
_0-8_
 62
    4
 10
516.81851064261843
 20
707.72699735486549
  0
LINE
  8
_0-8_
  6
CONTINUOUS
 62
    4
 10
516.81851064261843
 20
707.72699735486549
 11
597.97038393192099
 21
707.72699735486549
  0
TEXT
  8
_0-8_
 62
    4
 10
514.31851064261843
 20
743.97699735486549
 40
12.5
 41
1
 50
90
  1
85
  0
LINE
  8
_0-8_
  6
CONTINUOUS
 62
    4
 10
516.81851064261843
 20
707.72699735486549
 11
516.81851064261843
 21
687.2269973548656
  0
POINT
  8
_0-8_
 62
    4
 10
516.81851064261843
 20
687.2269973548656
  0
LINE
  8
_0-8_
  6
CONTINUOUS
 62
    4
 10
516.81851064261843
 20
687.2269973548656
 11
597.97038393192099
 21
687.2269973548656
  0
TEXT
  8
_0-8_
 62
    4
 10
514.31851064261843
 20
684.97699735486549
 40
12.5
 41
1
 50
90
  1
20.5
  0
LINE
  8
_0-8_
  6
CONTINUOUS
 62
    7
 10
605.82562060762586
 20
792.72699735486549
 11
624.82562060762586
 21
792.72699735486549
  0
LINE
  8
_0-8_
  6
CONTINUOUS
 62
    7
 10
605.82562060762586
 20
707.72699735486549
 11
624.82562060762586
 21
707.72699735486549
  0
LINE
  8
_0-8_
  6
CONTINUOUS
 62
    7
 10
1497.8256206076258
 20
707.72699735486549
 11
1478.8256206076258
 21
707.72699735486549
  0
LINE
  8
_0-8_
  6
CONTINUOUS
 62
    7
 10
1497.8256206076258
 20
792.72699735486549
 11
1478.8256206076258
 21
792.72699735486549
  0
LINE
  8
_0-8_
  6
CONTINUOUS
 62
    4
 10
603.82562060762586
 20
899.32177413024124
 11
624.82562060762586
 21
899.32177413024124
  0
POINT
  8
_0-8_
 62
    4
 10
603.82562060762586
 20
899.32177413024124
  0
POINT
  8
_0-8_
 62
    4
 10
624.82562060762586
 20
899.32177413024124
  0
LINE
  8
_0-8_
  6
CONTINUOUS
 62
    4
 10
603.82562060762586
 20
899.32177413024124
 11
603.82562060762586
 21
822.1376437347817
  0
LINE
  8
_0-8_
  6
CONTINUOUS
 62
    4
 10
624.82562060762586
 20
899.32177413024124
 11
624.82562060762586
 21
822.1376437347817
  0
TEXT
  8
_0-8_
 62
    4
 10
608.07562060762598
 20
901.82177413024124
 40
12.5
 41
1
 50
0
  1
21
  0
LINE
  8
_0-8_
  6
CONTINUOUS
 62
    4
 10
624.82562060762586
 20
899.32177413024124
 11
633.82562060762586
 21
899.32177413024124
  0
POINT
  8
_0-8_
 62
    4
 10
633.82562060762586
 20
899.32177413024124
  0
LINE
  8
_0-8_
  6
CONTINUOUS
 62
    4
 10
633.82562060762586
 20
899.32177413024124
 11
633.82562060762586
 21
822.1376437347817
  0
TEXT
  8
_0-8_
 62
    4
 10
626.20062060762598
 20
901.82177413024124
 40
12.5
 41
1
 50
0
  1
9
  0
LINE
  8
_0-8_
  6
CONTINUOUS
 62
    4
 10
1499.8256206076258
 20
899.32177413024124
 11
1478.8256206076258
 21
899.32177413024124
  0
POINT
  8
_0-8_
 62
    4
 10
1499.8256206076258
 20
899.32177413024124
  0
POINT
  8
_0-8_
 62
    4
 10
1478.8256206076258
 20
899.32177413024124
  0
LINE
  8
_0-8_
  6
CONTINUOUS
 62
    4
 10
1499.8256206076258
 20
899.32177413024124
 11
1499.8256206076258
 21
822.1376437347817
  0
LINE
  8
_0-8_
  6
CONTINUOUS
 62
    4
 10
1478.8256206076258
 20
899.32177413024124
 11
1478.8256206076258
 21
822.1376437347817
  0
TEXT
  8
_0-8_
 62
    4
 10
1483.0756206076258
 20
901.82177413024124
 40
12.5
 41
1
 50
0
  1
21
  0
LINE
  8
_0-8_
  6
CONTINUOUS
 62
    4
 10
1478.8256206076258
 20
899.32177413024124
 11
1469.8256206076258
 21
899.32177413024124
  0
POINT
  8
_0-8_
 62
    4
 10
1469.8256206076258
 20
899.32177413024124
  0
LINE
  8
_0-8_
  6
CONTINUOUS
 62
    4
 10
1469.8256206076258
 20
899.32177413024124
 11
1469.8256206076258
 21
822.1376437347817
  0
TEXT
  8
_0-8_
 62
    4
 10
1471.2006206076258
 20
901.82177413024124
 40
12.5
 41
1
 50
0
  1
9
  0
LINE
  8
_0-2_
  6
CONTINUOUS
 62
    7
 10
1476.8256206076258
 20
813.22699735486549
 11
1451.825620607626
 21
813.22699735486549
  0
LINE
  8
_0-2_
  6
CONTINUOUS
 62
    7
 10
1478.8256206076258
 20
811.22699735486549
 11
1478.8256206076258
 21
792.72699735486549
  0
ARC
  8
_0-2_
  6
CONTINUOUS
 62
    7
 10
1476.8256206076258
 20
811.22699735486549
 40
2
 50
0
 51
90
  0
LINE
  8
_0-2_
  6
CONTINUOUS
 62
    7
 10
1478.8256206076258
 20
689.2269973548656
 11
1478.8256206076258
 21
707.72699735486549
  0
ARC
  8
_0-2_
  6
CONTINUOUS
 62
    7
 10
1476.8256206076258
 20
689.2269973548656
 40
2
 50
270
 51
0
  0
LINE
  8
_0-2_
  6
CONTINUOUS
 62
    7
 10
624.82562060762586
 20
811.22699735486549
 11
624.82562060762586
 21
792.72699735486549
  0
LINE
  8
_0-2_
  6
CONTINUOUS
 62
    7
 10
626.82562060762598
 20
813.22699735486549
 11
651.82562060762575
 21
813.22699735486549
  0
ARC
  8
_0-2_
  6
CONTINUOUS
 62
    7
 10
626.82562060762598
 20
811.22699735486549
 40
2
 50
90
 51
180
  0
LINE
  8
_0-2_
  6
CONTINUOUS
 62
    7
 10
624.82562060762586
 20
689.2269973548656
 11
624.82562060762586
 21
707.72699735486549
  0
LINE
  8
_0-2_
  6
CONTINUOUS
 62
    7
 10
626.82562060762598
 20
687.2269973548656
 11
1476.8256206076258
 21
687.2269973548656
  0
ARC
  8
_0-2_
  6
CONTINUOUS
 62
    7
 10
626.82562060762598
 20
689.2269973548656
 40
2
 50
180
 51
270
  0
LINE
  8
_0-2_
  6
CONTINUOUS
 62
    4
 10
624.82562060762586
 20
504.27708253861545
 11
1478.8256206076258
 21
504.27708253861545
  0
POINT
  8
_0-2_
 62
    4
 10
624.82562060762586
 20
504.27708253861545
  0
POINT
  8
_0-2_
 62
    4
 10
1478.8256206076258
 20
504.27708253861545
  0
LINE
  8
_0-2_
  6
CONTINUOUS
 62
    4
 10
624.82562060762586
 20
504.27708253861545
 11
624.82562060762586
 21
674.99732971527692
  0
LINE
  8
_0-2_
  6
CONTINUOUS
 62
    4
 10
1478.8256206076258
 20
504.27708253861545
 11
1478.8256206076258
 21
674.99732971527692
  0
TEXT
  8
_0-2_
 62
    4
 10
1042.4506206076258
 20
506.77708253861545
 40
12.5
 41
1
 50
0
  1
854
  0
LINE
  8
_0-8_
  6
CONTINUOUS
 62
    4
 10
701.58031808830344
 20
740.50832018930703
 11
751.89761588943384
 21
764.60919300200476
  0
LINE
  8
_0-8_
  6
CONTINUOUS
 62
    4
 10
701.58031808830344
 20
740.50832018930703
 11
712.97051375420426
 21
750.26861950298053
  0
LINE
  8
_0-8_
  6
CONTINUOUS
 62
    4
 10
701.58031808830344
 20
740.50832018930703
 11
716.32466654588575
 21
743.26588951053782
  0
LINE
  8
_0-8_
  6
CONTINUOUS
 62
    4
 10
751.89761588943384
 20
764.60919300200476
 11
797.47369159376717
 21
764.60919300200476
  0
LINE
  8
_0-8_
  6
CONTINUOUS
 62
    4
 10
782.6164612487089
 20
733.22699735486549
 11
782.6164612487089
 21
687.2269973548656
  0
POINT
  8
_0-8_
 62
    4
 10
782.6164612487089
 20
733.22699735486549
  0
POINT
  8
_0-8_
 62
    4
 10
782.6164612487089
 20
687.2269973548656
  0
LINE
  8
_0-8_
  6
CONTINUOUS
 62
    4
 10
782.6164612487089
 20
733.22699735486549
 11
728.20652099070458
 21
733.22699735486549
  0
LINE
  8
_0-8_
  6
CONTINUOUS
 62
    4
 10
782.6164612487089
 20
687.2269973548656
 11
728.20652099070458
 21
687.2269973548656
  0
TEXT
  8
_0-8_
 62
    4
 10
780.1164612487089
 20
703.97699735486549
 40
12.5
 41
1
 50
90
  1
46
  0
TEXT
  8
_0-0_
 62
    7
 10
1728.1273125714661
 20
38.826996878028694
 40
24.000000953674316
 41
0.9871794479524999
 50
0
  1
FLC_cover_inner_2016.10.09
  0
TEXT
  8
_0-0_
 62
    7
 10
1123.0212791765291
 20
199.50907659386507
 40
18.999999761581421
 41
1.0717703643477983
 50
0
  1
FLC_cover_inner
  0
TEXT
  8
_0-0_
 62
    7
 10
1238.3220250174213
 20
42.025086802864848
 40
15
 41
1.103030262571393
 50
0
  1
smartDIYs Co.,Ltd.
  0
TEXT
  8
_0-0_
 62
    7
 10
1796.3077718166503
 20
147.94696958386987
 40
20
 41
1.0069231051665091
 50
0
  1
FABOOL Laser CO2
  0
TEXT
  8
_0-0_
 62
    7
 10
1114.235275406224
 20
141.62697739923084
 40
16.000000238418579
 41
0.965801836975482
 50
0
  1
09/Oct/2016
  0
LINE
  8
_0-1_
  6
CENTER1
 62
    4
 10
686.82562060762598
 20
738.44067695030913
 11
686.82562060762598
 21
728.06349954063012
  0
CIRCLE
  8
_0-2_
  6
CONTINUOUS
 62
    7
 10
686.82562060762598
 20
733.22699735486549
 40
15
  0
LINE
  8
_0-1_
  6
CENTER1
 62
    4
 10
682.52207889602323
 20
733.22699735486549
 11
690.87223288652376
 21
733.22699735486549
  0
TEXT
  8
_0-8_
 62
    7
 10
753.97213092439733
 20
766.68370803696826
 40
15
 41
1.103030262571393
 50
0
  1
É”30
  0
LINE
  8
_0-8_
  6
CONTINUOUS
 62
    4
 10
603.82562060762586
 20
594.65867488919127
 11
686.82562060762598
 21
594.65867488919127
  0
POINT
  8
_0-8_
 62
    4
 10
603.82562060762586
 20
594.65867488919127
  0
POINT
  8
_0-8_
 62
    4
 10
686.82562060762598
 20
594.65867488919127
  0
LINE
  8
_0-8_
  6
CONTINUOUS
 62
    4
 10
603.82562060762586
 20
594.65867488919127
 11
603.82562060762586
 21
674.99732971527692
  0
LINE
  8
_0-8_
  6
CONTINUOUS
 62
    4
 10
686.82562060762598
 20
594.65867488919127
 11
686.82562060762598
 21
674.99732971527692
  0
TEXT
  8
_0-8_
 62
    4
 10
639.07562060762586
 20
597.15867488919127
 40
12.5
 41
1
 50
0
  1
83
  0
TEXT
  8
_0-8_
 62
    7
 10
1519.810851701855
 20
745.19313199014096
 40
15
 41
1.103030262571393
 50
0
  1
É”5.5+Å~6
  0
LINE
  8
_0-8_
  6
CONTINUOUS
 62
    4
 10
1517.7363366668919
 20
743.11861695517734
 11
1599.9576997137242
 21
743.11861695517734
  0
LINE
  8
_0-8_
  6
CONTINUOUS
 62
    4
 10
1539.0763868008962
 20
629.96669067719199
 11
1596.7199421954429
 21
629.96669067719199
  0
ENDSEC
  0
EOF
