  0
SECTION
  2
HEADER
  9
$ACADVER
  1
AC1009
  9
$INSBASE
 10
0
 20
0
 30
0
  9
$EXTMIN
 10
0
 20
0
  9
$EXTMAX
 10
2100
 20
1485
  9
$LIMMIN
 10
0
 20
0
  9
$LIMMAX
 10
2100
 20
1485
  9
$LTSCALE
 40
5
  0
ENDSEC
  0
SECTION
  2
TABLES
  0
TABLE
  2
LTYPE
 70
     9
  0
LTYPE
  2
CONTINUOUS
 70
    64
  3
é¿ê¸
 72
    65
 73
     0
 40
0.0
  0
LTYPE
  2
DASHED1
 70
    64
  3
--  --  --  --  --  --  --  --  
 72
    65
 73
     2
 40
2.5
 49
1.25
 49
-1.25
  0
LTYPE
  2
DASHED2
 70
    64
  3
----    ----    ----    ----    
 72
    65
 73
     2
 40
5.0
 49
2.5
 49
-2.5
  0
LTYPE
  2
DASHED3
 70
    64
  3
------  ------  ------  ------  
 72
    65
 73
     2
 40
5.0
 49
3.75
 49
-1.25
  0
LTYPE
  2
CENTER1
 70
    64
  3
----- - ----- - ----- - ----- - 
 72
    65
 73
     4
 40
10.0
 49
6.25
 49
-1.25
 49
1.25
 49
-1.25
  0
LTYPE
  2
CENTER2
 70
    64
  3
----------  --  ----------  --  
 72
    65
 73
     4
 40
20.0
 49
12.5
 49
-2.5
 49
2.5
 49
-2.5
  0
LTYPE
  2
PHANTOM1
 70
    64
  3
--- - - --- - - --- - - --- - - 
 72
    65
 73
     6
 40
10.0
 49
3.25
 49
-1.25
 49
1.25
 49
-1.25
 49
1.25
 49
-1.25
  0
LTYPE
  2
PHANTOM2
 70
    64
  3
--------  -  -  --------  -  -  
 72
    65
 73
     6
 40
20.0
 49
10.0
 49
-2.5
 49
1.25
 49
-2.5
 49
1.25
 49
-2.5
  0
LTYPE
  2
DOT
 70
    64
  3
-   -   -   -   -   -   -   -   
 72
    65
 73
     2
 40
2.5
 49
0.625
 49
-1.875
  0
LTYPE
  2
DUMMY
 70
    64
  3
É_É~Å[
 72
    65
 73
     0
 40
0.0
  0
LTYPE
  2
RAND1
 70
    64
  3
ÉâÉìÉ_ÉÄê¸1
 72
    65
 73
     4
 40
10.0
 49
1.0
 49
-2.0
 49
3.0
 49
-4.0
  0
LTYPE
  2
RAND2
 70
    64
  3
ÉâÉìÉ_ÉÄê¸2
 72
    65
 73
     4
 40
14.0
 49
2.0
 49
-3.0
 49
4.0
 49
-5.0
  0
LTYPE
  2
RAND3
 70
    64
  3
ÉâÉìÉ_ÉÄê¸3
 72
    65
 73
     4
 40
18.0
 49
3.0
 49
-4.0
 49
5.0
 49
-6.0
  0
LTYPE
  2
RAND4
 70
    64
  3
ÉâÉìÉ_ÉÄê¸4
 72
    65
 73
     4
 40
22.0
 49
4.0
 49
-5.0
 49
6.0
 49
-7.0
  0
LTYPE
  2
RAND5
 70
    64
  3
ÉâÉìÉ_ÉÄê¸5
 72
    65
 73
     4
 40
26.0
 49
5.0
 49
-6.0
 49
7.0
 49
-8.0
  0
LTYPE
  2
LONG1
 70
    64
  3
----------  --  ----------  --  
 72
    65
 73
     4
 40
40.0
 49
32.5
 49
-2.5
 49
2.5
 49
-2.5
  0
LTYPE
  2
LONG2
 70
    64
  3
--------  -  -  --------  -  -  
 72
    65
 73
     6
 40
40.0
 49
30.0
 49
-2.5
 49
1.25
 49
-2.5
 49
1.25
 49
-2.5
  0
LTYPE
  2
LONG3
 70
    64
  3
+++++++++++++++..+++++++++++++++
 72
    65
 73
     2
 40
40.0
 49
37.5
 49
-2.5
  0
LTYPE
  2
LONG4
 70
    64
  3
+++++++++++++++..+++++++++++++++
 72
    65
 73
     2
 40
80.0
 49
75.0
 49
-5.0
  0
LTYPE
  2
LONG5
 70
    64
  3
----------  --  ----------  --  
 72
    65
 73
     4
 40
60.0
 49
37.5
 49
-7.5
 49
7.5
 49
-7.5
  0
LTYPE
  2
dashed
 70
   64
  3
-------   -------------   ------
 72
   65
 73
    2
 40
7.5
 49
6
 49
-1.5
  0
LTYPE
  2
dashed_spaced
 70
   64
  3
----        --------        ----
 72
   65
 73
    2
 40
12
 49
6
 49
-6
  0
LTYPE
  2
long_dashed_dotted
 70
   64
  3
------------- --- --------------
 72
   65
 73
    4
 40
15.25
 49
12
 49
-1.5
 49
0.25
 49
-1.5
  0
LTYPE
  2
long_dashed_double-dotted
 70
   64
  3
----------- --- --- ------------
 72
   65
 73
    6
 40
17
 49
12
 49
-1.5
 49
0.25
 49
-1.5
 49
0.25
 49
-1.5
  0
LTYPE
  2
long_dashed_triplicate-dotted
 70
   64
  3
--------- --- --- --- ----------
 72
   65
 73
    8
 40
18.75
 49
12
 49
-1.5
 49
0.25
 49
-1.5
 49
0.25
 49
-1.5
 49
0.25
 49
-1.5
  0
LTYPE
  2
dotted
 70
   64
  3
   -       -       -       -    
 72
   65
 73
    2
 40
1.75
 49
0.25
 49
-1.5
  0
LTYPE
  2
chain
 70
   64
  3
-------------- -- --------------
 72
   65
 73
    4
 40
18.5
 49
12
 49
-1.5
 49
3.5
 49
-1.5
  0
LTYPE
  2
chain_double_dash
 70
   64
  3
------------ -- -- -------------
 72
   65
 73
    6
 40
23.5
 49
12
 49
-1.5
 49
3.5
 49
-1.5
 49
3.5
 49
-1.5
  0
LTYPE
  2
dashed_dotted
 70
   64
  3
-----------     -     ----------
 72
   65
 73
    4
 40
9.25
 49
6
 49
-1.5
 49
0.25
 49
-1.5
  0
LTYPE
  2
double-dashed_dotted
 70
   64
  3
------   -----------   -   -----
 72
   65
 73
    6
 40
16.75
 49
6
 49
-1.5
 49
6
 49
-1.5
 49
0.25
 49
-1.5
  0
LTYPE
  2
dashed_double-dotted
 70
   64
  3
---------    -    -    ---------
 72
   65
 73
    6
 40
11
 49
6
 49
-1.5
 49
0.25
 49
-1.5
 49
0.25
 49
-1.5
  0
LTYPE
  2
double-dashed_double-dotted
 70
   64
  3
-----   ---------   -   -   ----
 72
   65
 73
    8
 40
18.5
 49
6
 49
-1.5
 49
6
 49
-1.5
 49
0.25
 49
-1.5
 49
0.25
 49
-1.5
  0
LTYPE
  2
dashed_triplicate-dotted
 70
   64
  3
-------    -    -    -    ------
 72
   65
 73
    8
 40
12.75
 49
6
 49
-1.5
 49
0.25
 49
-1.5
 49
0.25
 49
-1.5
 49
0.25
 49
-1.5
  0
LTYPE
  2
double-dashed_triplicate-dotted
 70
   64
  3
-----  ---------  -  -  -  -----
 72
   65
 73
   10
 40
20.25
 49
6
 49
-1.5
 49
6
 49
-1.5
 49
0.25
 49
-1.5
 49
0.25
 49
-1.5
 49
0.25
 49
-1.5
  0
LTYPE
  2
undefined
 70
   64
  3
--------------------------------
 72
   65
 73
    0
 40
0
  0
LTYPE
  2
_
 70
   64
  3
                                
 72
   65
 73
    0
 40
0
  0
LTYPE
  2
__18
 70
   64
  3
                                
 72
   65
 73
    0
 40
0
  0
LTYPE
  2
__19
 70
   64
  3
                                
 72
   65
 73
    0
 40
0
  0
LTYPE
  2
__20
 70
   64
  3
                                
 72
   65
 73
    0
 40
0
  0
LTYPE
  2
__21
 70
   64
  3
                                
 72
   65
 73
    0
 40
0
  0
LTYPE
  2
__22
 70
   64
  3
                                
 72
   65
 73
    0
 40
0
  0
LTYPE
  2
__23
 70
   64
  3
                                
 72
   65
 73
    0
 40
0
  0
LTYPE
  2
__24
 70
   64
  3
                                
 72
   65
 73
    0
 40
0
  0
LTYPE
  2
__25
 70
   64
  3
                                
 72
   65
 73
    0
 40
0
  0
LTYPE
  2
__26
 70
   64
  3
                                
 72
   65
 73
    0
 40
0
  0
LTYPE
  2
__27
 70
   64
  3
                                
 72
   65
 73
    0
 40
0
  0
LTYPE
  2
__28
 70
   64
  3
                                
 72
   65
 73
    0
 40
0
  0
LTYPE
  2
__29
 70
   64
  3
                                
 72
   65
 73
    0
 40
0
  0
LTYPE
  2
__30
 70
   64
  3
                                
 72
   65
 73
    0
 40
0
  0
LTYPE
  2
__31
 70
   64
  3
                                
 72
   65
 73
    0
 40
0
  0
LTYPE
  2
__32
 70
   64
  3
                                
 72
   65
 73
    0
 40
0
  0
ENDTAB
  0
TABLE
  2
STYLE
  5
3
100
AcDbSymbolTable
 70
     1
  0
STYLE
  5
10
100
AcDbSymbolTableRecord
100
AcDbTextStyleTableRecord
  2
STANDARD
 70
     0
 40
0.0
 41
1.0
 50
0.0
 71
     0
 42
0.2
  3
txt
  4
bigfont.shx
  0
STYLE
  5
26
100
AcDbSymbolTableRecord
100
AcDbTextStyleTableRecord
  2
TATEGAKI
 70
    68
 40
0.0
 41
1.0
 50
0.0
 71
     0
 42
1.0
  3
txt
  4
bigfont.shx
  0
ENDTAB
  0
TABLE
  2
LAYER
 70
    5
  0
LAYER
  2
_0-0_
 70
   64
 62
    7
  6
CONTINUOUS
  0
LAYER
  2
_0-1_
 70
   64
 62
    7
  6
CONTINUOUS
  0
LAYER
  2
_0-2_
 70
   64
 62
    7
  6
CONTINUOUS
  0
LAYER
  2
_0-8_
 70
   64
 62
    7
  6
CONTINUOUS
  0
LAYER
  2
ADD_LINE
 70
   64
 62
    7
  6
CONTINUOUS
  0
ENDTAB
  0
ENDSEC
  0
SECTION
  2
BLOCKS
  0
ENDSEC
  0
SECTION
  2
ENTITIES
  0
ARC
  8
_0-2_
  6
CONTINUOUS
 62
    7
 10
1404.8256206076258
 20
647.72699735486549
 40
2.5
 50
270
 51
89.999999999999972
  0
ARC
  8
_0-2_
  6
CONTINUOUS
 62
    7
 10
1304.8256206076258
 20
647.72699735486549
 40
2.5
 50
90
 51
270
  0
LINE
  8
_0-2_
  6
CONTINUOUS
 62
    7
 10
1304.8256206076258
 20
650.22699735486549
 11
1404.8256206076258
 21
650.22699735486549
  0
LINE
  8
_0-2_
  6
CONTINUOUS
 62
    7
 10
1304.8256206076258
 20
645.22699735486549
 11
1404.8256206076258
 21
645.22699735486549
  0
LINE
  8
_0-8_
  6
CONTINUOUS
 62
    4
 10
1459.8256206076258
 20
1093.3876277124955
 11
1459.8256206076258
 21
934.75297946846877
  0
LINE
  8
_0-8_
  6
CONTINUOUS
 62
    4
 10
1459.8256206076258
 20
1015.6890244909314
 11
1459.8256206076258
 21
934.75297946846877
  0
LINE
  8
_0-8_
  6
CONTINUOUS
 62
    4
 10
486.10372407289458
 20
594.7269973548656
 11
624.77776056545622
 21
594.7269973548656
  0
LINE
  8
_0-1_
  6
CENTER1
 62
    4
 10
957.77619269470415
 20
750.22699735486549
 11
1149.6684947664353
 21
750.22699735486549
  0
LINE
  8
_0-0_
  6
CONTINUOUS
 62
    4
 10
1397.6256206076264
 20
134.02699735486584
 11
1098.6256206076257
 21
134.02699735486584
  0
LINE
  8
_0-0_
  6
CONTINUOUS
 62
    4
 10
2091.8256206076258
 20
89.826997354865625
 11
1493.8256206076262
 21
89.826997354865625
  0
LINE
  8
_0-0_
  6
CONTINUOUS
 62
    4
 10
1683.6256206076259
 20
141.82699735486557
 11
2076.2256206076263
 21
141.82699735486557
  0
LINE
  8
_0-0_
  6
CONTINUOUS
 62
    4
 10
1668.025620607626
 20
32.626997354865352
 11
1668.0256206076263
 21
193.82699735486563
  0
LINE
  8
_0-0_
  6
CONTINUOUS
 62
    4
 10
1098.6256206076257
 20
256.22699735486583
 11
2091.8256206076258
 21
256.22699735486583
  0
LINE
  8
_0-0_
  6
CONTINUOUS
 62
    4
 10
1098.6256206076257
 20
193.82699735486563
 11
2091.8256206076267
 21
193.82699735486545
  0
LINE
  8
_0-0_
  6
CONTINUOUS
 62
    4
 10
1322.2256206076258
 20
256.22699735486583
 11
1322.2256206076258
 21
193.82699735486591
  0
TEXT
  8
_0-0_
 62
    7
 10
1591.2534617989184
 20
198.88699350678996
 40
18.999999761581421
 41
1.178947400782578
 50
0
  1
Å|
  0
LINE
  8
_0-0_
  6
CONTINUOUS
 62
    4
 10
1493.8256206076262
 20
256.22699735486555
 11
1493.8256206076262
 21
32.6269973548645
  0
LINE
  8
_0-0_
  6
CONTINUOUS
 62
    4
 10
1972.2256206076258
 20
256.22699735486583
 11
1972.2256206076258
 21
193.82699735486591
  0
LINE
  8
_0-0_
  6
CONTINUOUS
 62
    4
 10
1852.6256206076273
 20
193.82699735486563
 11
1852.6256206076273
 21
256.22699735486583
  0
LINE
  8
_0-0_
  6
CONTINUOUS
 62
    4
 10
1647.2256206076263
 20
193.82699735486563
 11
1647.2256206076258
 21
256.22699735486583
  0
LINE
  8
_0-0_
  6
CONTINUOUS
 62
    4
 10
1561.2965564415172
 20
42.63804347354295
 11
1590.4165564415166
 21
37.646043473542932
  0
LINE
  8
_0-0_
  6
CONTINUOUS
 62
    4
 10
1590.4165564415166
 20
60.110043473542589
 11
1590.4165564415166
 21
37.646043473542932
  0
LINE
  8
_0-0_
  6
CONTINUOUS
 62
    4
 10
1561.2965564415172
 20
55.118043473542855
 11
1590.4165564415166
 21
60.110043473542589
  0
LINE
  8
_0-0_
  6
CONTINUOUS
 62
    4
 10
1561.2965564415172
 20
55.118043473542855
 11
1561.2965564415172
 21
42.63804347354295
  0
CIRCLE
  8
_0-0_
  6
CONTINUOUS
 62
    4
 10
1544.6565564415164
 20
48.878043473542903
 40
6.2400000000000002
  0
CIRCLE
  8
_0-0_
  6
CONTINUOUS
 62
    4
 10
1544.6565564415164
 20
48.878043473542903
 40
11.440000000000003
  0
LINE
  8
_0-0_
  6
_
 62
    7
 10
1594.868990179702
 20
48.878043473542903
 11
1530.4894414143221
 21
48.878043473542903
  0
LINE
  8
_0-0_
  6
_
 62
    7
 10
1544.6565564415164
 20
36.050617842216184
 11
1544.6565564415164
 21
62.642036573345479
  0
LINE
  8
_0-0_
  6
CONTINUOUS
 62
    4
 10
1657.6256206076259
 20
141.82699735486557
 11
1504.2256206076258
 21
141.82699735486557
  0
LINE
  8
_0-0_
  6
CONTINUOUS
 62
    4
 10
1397.6256206076257
 20
32.626997354865352
 11
1397.6256206076268
 21
193.82699735486563
  0
LINE
  8
_0-0_
  6
CONTINUOUS
 62
    4
 10
1493.8256206076262
 20
102.82699735486567
 11
1397.6256206076264
 21
102.82699735486567
  0
LINE
  8
_0-0_
  6
CONTINUOUS
 62
    4
 10
1397.6256206076264
 20
102.82699735486567
 11
1098.6256206076257
 21
102.82699735486581
  0
TEXT
  8
_0-0_
 62
    7
 10
1626.8193473032943
 20
39.87804396474445
 40
17.999999523162838
 41
1.060606088702527
 50
0
  1
Ç`ÇR
  0
LINE
  8
_0-0_
  6
CONTINUOUS
 62
    4
 10
1098.6256206076257
 20
256.22699735486583
 11
1098.6256206076257
 21
32.626997354865352
  0
TEXT
  8
_0-0_
 62
    7
 10
1932.9296204869866
 20
199.92701731050096
 40
18.999999761581421
 41
1.178947400782578
 50
0
  1
1
  0
TEXT
  8
_0-0_
 62
    7
 10
1328.7597382782469
 20
237.281614545227
 40
16.000000238418579
 41
1.0422794146408489
 50
0
  1
Material
  0
TEXT
  8
_0-0_
 62
    7
 10
1104.6594441517639
 20
237.281614545227
 40
16.000000238418579
 41
1.0422794146408489
 50
0
  1
Model
  0
LINE
  8
_0-0_
  6
CONTINUOUS
 62
    3
 10
2091.8256206076262
 20
32.626997354865352
 11
2091.8256206076267
 21
1467.8269973548661
  0
LINE
  8
_0-0_
  6
CONTINUOUS
 62
    3
 10
11.825620607625353
 20
32.626997354865921
 11
2091.8256206076262
 21
32.626997354865352
  0
LINE
  8
_0-0_
  6
CONTINUOUS
 62
    3
 10
11.825620607625353
 20
1467.8269973548665
 11
11.825620607625353
 21
32.626997354865921
  0
LINE
  8
_0-0_
  6
CONTINUOUS
 62
    3
 10
2091.8256206076267
 20
1467.8269973548661
 11
11.825620607625353
 21
1467.8269973548665
  0
TEXT
  8
_0-0_
 62
    7
 10
1375.5245918667019
 20
198.88695383393843
 40
18.999999761581421
 41
1.025171652854415
 50
0
  1
SPCC
  0
TEXT
  8
_0-0_
 62
    7
 10
1498.5847115318895
 20
122.90700517022678
 40
16.000000238418579
 41
1.0738636393269361
 50
0
  1
Grade
  0
TEXT
  8
_0-0_
 62
    7
 10
1549.1006294817305
 20
97.590806439758069
 40
16.000000238418579
 41
1.018318968327266
 50
0
  1
ÇçÅiMediumÅj
  0
TEXT
  8
_0-0_
 62
    7
 10
1674.609398899217
 20
68.677087620139901
 40
17.999999523162838
 41
1.029411791975982
 50
0
  1
Drawing number
  0
TEXT
  8
_0-0_
 62
    7
 10
1499.5959355991008
 20
72.467001202942072
 40
16.000000238418579
 41
1.0422794146408489
 50
0
  1
Projection method
  0
TEXT
  8
_0-0_
 62
    7
 10
1401.136648229849
 20
84.998464825988549
 40
16.000000238418579
 41
1.0738636393269361
 50
0
  1
Unit
  0
TEXT
  8
_0-0_
 62
    7
 10
1430.5074387894444
 20
47.006486729026733
 40
17.999999523162838
 41
1.060606088702527
 50
0
  1
mm
  0
TEXT
  8
_0-0_
 62
    7
 10
1401.0847115318893
 20
174.90700517022697
 40
16.000000238418579
 41
1.0738636393269361
 50
0
  1
Scale
  0
TEXT
  8
_0-0_
 62
    7
 10
1254.3262088605916
 20
174.90700517022697
 40
16.000000238418579
 41
1.0422794146408489
 50
0
  1
Finish
  0
TEXT
  8
_0-0_
 62
    7
 10
1104.4773447570672
 20
174.90700517022697
 40
16.000000238418579
 41
1.018318968327266
 50
0
  1
Date
  0
TEXT
  8
_0-0_
 62
    7
 10
1223.932925945971
 20
110.93447414048789
 40
15
 41
1.103030262571393
 50
0
  1
Author
  0
TEXT
  8
_0-0_
 62
    7
 10
1175.3167990003985
 20
61.12561865131255
 40
15
 41
1.103030262571393
 50
0
  1
Hirotaka Shiojima
  0
LINE
  8
_0-0_
  6
CONTINUOUS
 62
    4
 10
1248.1256206076257
 20
193.82699735486563
 11
1248.1256206076257
 21
134.02699735486584
  0
TEXT
  8
_0-0_
 62
    7
 10
1544.2975423638472
 20
146.82699723565656
 40
16.000000238418579
 41
1.001059324796296
 50
0
  1
JIS B 0405
  0
TEXT
  8
_0-0_
 62
    7
 10
1500.7745829256241
 20
174.90700517022697
 40
16.000000238418579
 41
1.002948115975157
 50
0
  1
Machining tolerance
  0
TEXT
  8
_0-0_
 62
    7
 10
1501.3603265312117
 20
237.281614545227
 40
16.000000238418579
 41
1.0422794146408489
 50
0
  1
Heat treatment
  0
TEXT
  8
_0-0_
 62
    7
 10
1654.3509455472717
 20
237.281614545227
 40
16.000000238418579
 41
1.027173915877938
 50
0
  1
Surface
  0
TEXT
  8
_0-0_
 62
    7
 10
1654.1154696396661
 20
200.18989850640344
 40
18.999999761581421
 41
1.178947400782578
 50
0
  1
Matte black paint
  0
TEXT
  8
_0-0_
 62
    7
 10
1672.5596628333403
 20
171.82697775685875
 40
17.999999523162838
 41
1.014492780498069
 50
0
  1
Equipment
  0
TEXT
  8
_0-0_
 62
    7
 10
1860.8619089267104
 20
239.05984124494302
 40
16.000000238418579
 41
1.0422794146408489
 50
0
  1
Quantity
  0
LINE
  8
_0-1_
  6
CENTER1
 62
    4
 10
1051.825620607626
 20
828.71980410097592
 11
1051.825620607626
 21
673.37841670957459
  0
LINE
  8
_0-1_
  6
CENTER1
 62
    4
 10
1036.0723046935923
 20
602.72699735486549
 11
1067.5919994142619
 21
602.72699735486549
  0
LINE
  8
_0-1_
  6
CENTER1
 62
    4
 10
1036.0723046935923
 20
897.72699735486549
 11
1067.5919994142619
 21
897.72699735486549
  0
LINE
  8
_0-1_
  6
CENTER1
 62
    4
 10
1051.825620607626
 20
911.38610240759351
 11
1051.825620607626
 21
886.90224386867226
  0
LINE
  8
_0-1_
  6
CENTER1
 62
    4
 10
1051.825620607626
 20
614.69954508084106
 11
1051.825620607626
 21
592.99773465847045
  0
CIRCLE
  8
_0-2_
  6
CONTINUOUS
 62
    7
 10
1051.825620607626
 20
897.72699735486549
 40
2.8499999999999996
  0
CIRCLE
  8
_0-2_
  6
CONTINUOUS
 62
    7
 10
1051.825620607626
 20
602.72699735486549
 40
2.8499999999999996
  0
TEXT
  8
_0-2_
 62
    7
 10
1979.8270588661653
 20
238.92246027413171
 40
15
 41
1.103030262571393
 50
0
  1
Thickness
  0
TEXT
  8
_0-2_
 62
    7
 10
2016.4770786379042
 20
201.94226014408898
 40
15
 41
1.103030262571393
 50
0
  1
1.2mm
  0
LINE
  8
_0-8_
  6
CONTINUOUS
 62
    4
 10
643.82562060762575
 20
1093.3876277124955
 11
1459.8256206076258
 21
1093.3876277124955
  0
POINT
  8
_0-8_
 62
    4
 10
643.82562060762575
 20
1093.3876277124955
  0
POINT
  8
_0-8_
 62
    4
 10
1459.8256206076258
 20
1093.3876277124955
  0
LINE
  8
_0-8_
  6
CONTINUOUS
 62
    4
 10
643.82562060762575
 20
1093.3876277124955
 11
643.82562060762575
 21
934.75297946846877
  0
TEXT
  8
_0-8_
 62
    4
 10
1042.450620607626
 20
1095.8876277124955
 40
12.5
 41
1
 50
0
  1
816
  0
LINE
  8
_0-8_
  6
CONTINUOUS
 62
    4
 10
643.82562060762575
 20
1015.6890244909314
 11
643.82562060762575
 21
934.75297946846877
  0
LINE
  8
_0-8_
  6
CONTINUOUS
 62
    4
 10
486.10372407289458
 20
905.72699735486549
 11
486.10372407289458
 21
594.7269973548656
  0
POINT
  8
_0-8_
 62
    4
 10
486.10372407289458
 20
905.72699735486549
  0
POINT
  8
_0-8_
 62
    4
 10
486.10372407289458
 20
594.7269973548656
  0
LINE
  8
_0-8_
  6
CONTINUOUS
 62
    4
 10
486.10372407289458
 20
905.72699735486549
 11
624.77776056545622
 21
905.72699735486549
  0
TEXT
  8
_0-8_
 62
    4
 10
483.60372407289458
 20
740.85199735486549
 40
12.5
 41
1
 50
90
  1
311
  0
LINE
  8
_0-8_
  6
CONTINUOUS
 62
    4
 10
555.3651061928939
 20
905.72699735486549
 11
555.3651061928939
 21
897.72699735486549
  0
POINT
  8
_0-8_
 62
    4
 10
555.3651061928939
 20
905.72699735486549
  0
POINT
  8
_0-8_
 62
    4
 10
555.3651061928939
 20
897.72699735486549
  0
LINE
  8
_0-8_
  6
CONTINUOUS
 62
    4
 10
555.3651061928939
 20
905.72699735486549
 11
624.77776056545622
 21
905.72699735486549
  0
LINE
  8
_0-8_
  6
CONTINUOUS
 62
    4
 10
555.3651061928939
 20
897.72699735486549
 11
624.77776056545622
 21
897.72699735486549
  0
TEXT
  8
_0-8_
 62
    4
 10
552.8651061928939
 20
898.6019973548656
 40
12.5
 41
1
 50
90
  1
8
  0
LINE
  8
_0-8_
  6
CONTINUOUS
 62
    4
 10
555.3651061928939
 20
602.72699735486549
 11
555.3651061928939
 21
594.7269973548656
  0
POINT
  8
_0-8_
 62
    4
 10
555.3651061928939
 20
602.72699735486549
  0
POINT
  8
_0-8_
 62
    4
 10
555.3651061928939
 20
594.7269973548656
  0
LINE
  8
_0-8_
  6
CONTINUOUS
 62
    4
 10
555.3651061928939
 20
602.72699735486549
 11
624.77776056545622
 21
602.72699735486549
  0
LINE
  8
_0-8_
  6
CONTINUOUS
 62
    4
 10
555.3651061928939
 20
594.7269973548656
 11
624.77776056545622
 21
594.7269973548656
  0
TEXT
  8
_0-8_
 62
    4
 10
552.8651061928939
 20
595.6019973548656
 40
12.5
 41
1
 50
90
  1
8
  0
LINE
  8
_0-1_
  6
CENTER1
 62
    4
 10
673.82562060762575
 20
911.38610240759351
 11
673.82562060762575
 21
886.90224386867226
  0
LINE
  8
_0-1_
  6
CENTER1
 62
    4
 10
673.82562060762575
 20
614.69954508084106
 11
673.82562060762575
 21
592.99773465847045
  0
LINE
  8
_0-1_
  6
CENTER1
 62
    4
 10
1429.8256206076258
 20
911.38610240759351
 11
1429.8256206076258
 21
886.90224386867226
  0
LINE
  8
_0-1_
  6
CENTER1
 62
    4
 10
1429.8256206076258
 20
614.69954508084106
 11
1429.8256206076258
 21
592.99773465847045
  0
LINE
  8
_0-1_
  6
CENTER1
 62
    4
 10
1421.3766776388068
 20
897.72699735486549
 11
1441.2477329661519
 21
897.72699735486549
  0
LINE
  8
_0-1_
  6
CENTER1
 62
    4
 10
1421.3766776388068
 20
602.72699735486549
 11
1441.2477329661519
 21
602.72699735486549
  0
CIRCLE
  8
_0-2_
  6
CONTINUOUS
 62
    7
 10
1429.8256206076258
 20
602.72699735486549
 40
2.75
  0
CIRCLE
  8
_0-2_
  6
CONTINUOUS
 62
    7
 10
1429.8256206076258
 20
897.72699735486549
 40
2.75
  0
LINE
  8
_0-8_
  6
CONTINUOUS
 62
    4
 10
1478.3364321147787
 20
945.89468926380255
 11
1552.5578049407909
 21
945.89468926380255
  0
LINE
  8
_0-8_
  6
CONTINUOUS
 62
    4
 10
1432.2256206558154
 20
899.78387780483911
 11
1478.3364321147787
 21
945.89468926380255
  0
LINE
  8
_0-8_
  6
CONTINUOUS
 62
    4
 10
1432.2256206558154
 20
899.78387780483911
 11
1439.7256206558154
 21
912.77425886160574
  0
LINE
  8
_0-8_
  6
CONTINUOUS
 62
    4
 10
1432.2256206558154
 20
899.78387780483911
 11
1445.2160017125821
 21
907.28387780483911
  0
LINE
  8
_0-1_
  6
CENTER1
 62
    4
 10
662.05144248557929
 20
897.72699735486549
 11
684.85313210937329
 21
897.72699735486549
  0
LINE
  8
_0-1_
  6
CENTER1
 62
    4
 10
663.3646637230047
 20
602.72699735486549
 11
687.53917683907378
 21
602.72699735486549
  0
CIRCLE
  8
_0-2_
  6
CONTINUOUS
 62
    7
 10
673.82562060762575
 20
897.72699735486549
 40
2.75
  0
CIRCLE
  8
_0-2_
  6
CONTINUOUS
 62
    7
 10
673.82562060762575
 20
602.72699735486549
 40
2.75
  0
LINE
  8
_0-8_
  6
CONTINUOUS
 62
    4
 10
643.82562060762575
 20
1010.0901408078762
 11
673.82562060762575
 21
1010.0901408078762
  0
POINT
  8
_0-8_
 62
    4
 10
643.82562060762575
 20
1010.0901408078762
  0
POINT
  8
_0-8_
 62
    4
 10
673.82562060762575
 20
1010.0901408078762
  0
LINE
  8
_0-8_
  6
CONTINUOUS
 62
    4
 10
643.82562060762575
 20
1010.0901408078762
 11
643.82562060762575
 21
934.75297946846877
  0
LINE
  8
_0-8_
  6
CONTINUOUS
 62
    4
 10
673.82562060762575
 20
1010.0901408078762
 11
673.82562060762575
 21
934.75297946846877
  0
TEXT
  8
_0-8_
 62
    4
 10
652.57562060762575
 20
1012.5901408078762
 40
12.5
 41
1
 50
0
  1
30
  0
LINE
  8
_0-8_
  6
CONTINUOUS
 62
    4
 10
673.82562060762575
 20
1010.0901408078762
 11
1051.825620607626
 21
1010.0901408078762
  0
POINT
  8
_0-8_
 62
    4
 10
1051.825620607626
 20
1010.0901408078762
  0
LINE
  8
_0-8_
  6
CONTINUOUS
 62
    4
 10
1051.825620607626
 20
1010.0901408078762
 11
1051.825620607626
 21
934.75297946846877
  0
TEXT
  8
_0-8_
 62
    4
 10
853.45062060762586
 20
1012.5901408078762
 40
12.5
 41
1
 50
0
  1
378
  0
LINE
  8
_0-8_
  6
CONTINUOUS
 62
    4
 10
1051.825620607626
 20
1010.0901408078762
 11
1429.8256206076258
 21
1010.0901408078762
  0
POINT
  8
_0-8_
 62
    4
 10
1429.8256206076258
 20
1010.0901408078762
  0
LINE
  8
_0-8_
  6
CONTINUOUS
 62
    4
 10
1429.8256206076258
 20
1010.0901408078762
 11
1429.8256206076258
 21
934.75297946846877
  0
TEXT
  8
_0-8_
 62
    4
 10
1231.4506206076258
 20
1012.5901408078762
 40
12.5
 41
1
 50
0
  1
378
  0
LINE
  8
_0-8_
  6
CONTINUOUS
 62
    4
 10
1429.8256206076258
 20
1010.0901408078762
 11
1459.8256206076258
 21
1010.0901408078762
  0
POINT
  8
_0-8_
 62
    4
 10
1459.8256206076258
 20
1010.0901408078762
  0
LINE
  8
_0-8_
  6
CONTINUOUS
 62
    4
 10
1459.8256206076258
 20
1010.0901408078762
 11
1459.8256206076258
 21
934.75297946846877
  0
TEXT
  8
_0-8_
 62
    4
 10
1438.5756206076258
 20
1012.5901408078762
 40
12.5
 41
1
 50
0
  1
30
  0
LINE
  8
_0-1_
  6
CENTER1
 62
    4
 10
1293.4020204717058
 20
635.22699735486549
 11
1315.0613013338202
 21
635.22699735486549
  0
LINE
  8
_0-1_
  6
CENTER1
 62
    4
 10
1293.4020204717058
 20
740.22699735486549
 11
1315.0613013338202
 21
740.22699735486549
  0
LINE
  8
_0-1_
  6
CENTER1
 62
    4
 10
1398.7109377668144
 20
635.22699735486549
 11
1415.1421163518669
 21
635.22699735486549
  0
LINE
  8
_0-1_
  6
CENTER1
 62
    4
 10
1398.7109377668144
 20
740.22699735486549
 11
1415.1421163518669
 21
740.22699735486549
  0
LINE
  8
_0-1_
  6
CENTER1
 62
    4
 10
1302.3256206076258
 20
746.04291992294998
 11
1302.3256206076258
 21
733.30906514422611
  0
LINE
  8
_0-1_
  6
CENTER1
 62
    4
 10
1407.3256206076258
 20
746.04291992294998
 11
1407.3256206076258
 21
733.30906514422611
  0
LINE
  8
_0-1_
  6
CENTER1
 62
    4
 10
1302.3256206076258
 20
643.97456189048307
 11
1302.3256206076258
 21
627.94459540461503
  0
LINE
  8
_0-1_
  6
CENTER1
 62
    4
 10
1407.3256206076258
 20
643.97456189048307
 11
1407.3256206076258
 21
627.94459540461503
  0
LINE
  8
_0-8_
  6
CONTINUOUS
 62
    4
 10
1459.8256206076258
 20
481.25191430924269
 11
1354.8256206076258
 21
481.25191430924269
  0
POINT
  8
_0-8_
 62
    4
 10
1459.8256206076258
 20
481.25191430924269
  0
POINT
  8
_0-8_
 62
    4
 10
1354.8256206076258
 20
481.25191430924269
  0
LINE
  8
_0-8_
  6
CONTINUOUS
 62
    4
 10
1459.8256206076258
 20
481.25191430924269
 11
1459.8256206076258
 21
567.87525559236497
  0
LINE
  8
_0-8_
  6
CONTINUOUS
 62
    4
 10
1354.8256206076258
 20
481.25191430924269
 11
1354.8256206076258
 21
567.87525559236497
  0
TEXT
  8
_0-8_
 62
    4
 10
1397.9506206076258
 20
483.75191430924269
 40
12.5
 41
1
 50
0
  1
105
  0
LINE
  8
_0-8_
  6
CONTINUOUS
 62
    4
 10
1459.8256206076258
 20
794.93340774357932
 11
1407.3256206076258
 21
794.93340774357932
  0
POINT
  8
_0-8_
 62
    4
 10
1459.8256206076258
 20
794.93340774357932
  0
POINT
  8
_0-8_
 62
    4
 10
1407.3256206076258
 20
794.93340774357932
  0
LINE
  8
_0-8_
  6
CONTINUOUS
 62
    4
 10
1459.8256206076258
 20
794.93340774357932
 11
1459.8256206076258
 21
753.59044940390731
  0
LINE
  8
_0-8_
  6
CONTINUOUS
 62
    4
 10
1407.3256206076258
 20
794.93340774357932
 11
1407.3256206076258
 21
753.59044940390731
  0
TEXT
  8
_0-8_
 62
    4
 10
1421.0756206076258
 20
797.43340774357932
 40
12.5
 41
1
 50
0
  1
52.5
  0
LINE
  8
_0-8_
  6
CONTINUOUS
 62
    4
 10
1407.3256206076258
 20
794.93340774357932
 11
1302.3256206076258
 21
794.93340774357932
  0
POINT
  8
_0-8_
 62
    4
 10
1302.3256206076258
 20
794.93340774357932
  0
LINE
  8
_0-8_
  6
CONTINUOUS
 62
    4
 10
1302.3256206076258
 20
794.93340774357932
 11
1302.3256206076258
 21
753.59044940390731
  0
TEXT
  8
_0-8_
 62
    4
 10
1345.4506206076258
 20
797.43340774357932
 40
12.5
 41
1
 50
0
  1
105
  0
LINE
  8
_0-8_
  6
CONTINUOUS
 62
    4
 10
1231.1354311452401
 20
594.7269973548656
 11
1231.1354311452401
 21
635.22699735486549
  0
POINT
  8
_0-8_
 62
    4
 10
1231.1354311452401
 20
594.7269973548656
  0
POINT
  8
_0-8_
 62
    4
 10
1231.1354311452401
 20
635.22699735486549
  0
LINE
  8
_0-8_
  6
CONTINUOUS
 62
    4
 10
1231.1354311452401
 20
594.7269973548656
 11
1284.290663296247
 21
594.7269973548656
  0
LINE
  8
_0-8_
  6
CONTINUOUS
 62
    4
 10
1231.1354311452401
 20
635.22699735486549
 11
1284.290663296247
 21
635.22699735486549
  0
TEXT
  8
_0-8_
 62
    4
 10
1228.6354311452401
 20
602.4769973548656
 40
12.5
 41
1
 50
90
  1
40.5
  0
LINE
  8
_0-8_
  6
CONTINUOUS
 62
    4
 10
1231.1354311452401
 20
635.22699735486549
 11
1231.1354311452401
 21
740.22699735486549
  0
POINT
  8
_0-8_
 62
    4
 10
1231.1354311452401
 20
740.22699735486549
  0
LINE
  8
_0-8_
  6
CONTINUOUS
 62
    4
 10
1231.1354311452401
 20
740.22699735486549
 11
1284.290663296247
 21
740.22699735486549
  0
TEXT
  8
_0-8_
 62
    4
 10
1228.6354311452401
 20
678.35199735486549
 40
12.5
 41
1
 50
90
  1
105
  0
LINE
  8
_0-8_
  6
CONTINUOUS
 62
    4
 10
1300.5535981522505
 20
743.24932279527775
 11
1249.2495432403334
 21
794.55337770719461
  0
LINE
  8
_0-8_
  6
CONTINUOUS
 62
    4
 10
1300.5535981522505
 20
743.24932279527775
 11
1287.5632170954839
 21
750.74932279527775
  0
LINE
  8
_0-8_
  6
CONTINUOUS
 62
    4
 10
1300.5535981522505
 20
743.24932279527775
 11
1293.0535981522505
 21
756.23970385204427
  0
TEXT
  8
_0-8_
 62
    7
 10
1480.410947149742
 20
947.96920429876604
 40
15
 41
1.103030262571393
 50
0
  1
É”5.5+ Å~6
  0
LINE
  8
_0-2_
  6
CONTINUOUS
 62
    7
 10
1304.8256206076258
 20
725.22699735486549
 11
1404.8256206076258
 21
725.22699735486549
  0
LINE
  8
_0-2_
  6
CONTINUOUS
 62
    7
 10
1304.8256206076258
 20
730.22699735486549
 11
1404.8256206076258
 21
730.22699735486549
  0
ARC
  8
_0-2_
  6
CONTINUOUS
 62
    7
 10
1304.8256206076258
 20
727.72699735486549
 40
2.5
 50
90
 51
270
  0
ARC
  8
_0-2_
  6
CONTINUOUS
 62
    7
 10
1404.8256206076258
 20
727.72699735486549
 40
2.5
 50
270
 51
89.999999999999972
  0
LINE
  8
_0-2_
  6
CONTINUOUS
 62
    7
 10
1304.8256206076258
 20
715.22699735486549
 11
1404.8256206076258
 21
715.22699735486549
  0
LINE
  8
_0-2_
  6
CONTINUOUS
 62
    7
 10
1304.8256206076258
 20
720.22699735486549
 11
1404.8256206076258
 21
720.22699735486549
  0
ARC
  8
_0-2_
  6
CONTINUOUS
 62
    7
 10
1304.8256206076258
 20
717.72699735486549
 40
2.5
 50
90
 51
270
  0
ARC
  8
_0-2_
  6
CONTINUOUS
 62
    7
 10
1404.8256206076258
 20
717.72699735486549
 40
2.5
 50
270
 51
89.999999999999972
  0
LINE
  8
_0-2_
  6
CONTINUOUS
 62
    7
 10
1304.8256206076258
 20
705.22699735486549
 11
1404.8256206076258
 21
705.22699735486549
  0
LINE
  8
_0-2_
  6
CONTINUOUS
 62
    7
 10
1304.8256206076258
 20
710.22699735486549
 11
1404.8256206076258
 21
710.22699735486549
  0
ARC
  8
_0-2_
  6
CONTINUOUS
 62
    7
 10
1304.8256206076258
 20
707.72699735486549
 40
2.5
 50
90
 51
270
  0
ARC
  8
_0-2_
  6
CONTINUOUS
 62
    7
 10
1404.8256206076258
 20
707.72699735486549
 40
2.5
 50
270
 51
89.999999999999972
  0
LINE
  8
_0-2_
  6
CONTINUOUS
 62
    7
 10
1304.8256206076258
 20
695.22699735486549
 11
1404.8256206076258
 21
695.22699735486549
  0
LINE
  8
_0-2_
  6
CONTINUOUS
 62
    7
 10
1304.8256206076258
 20
700.22699735486549
 11
1404.8256206076258
 21
700.22699735486549
  0
ARC
  8
_0-2_
  6
CONTINUOUS
 62
    7
 10
1304.8256206076258
 20
697.72699735486549
 40
2.5
 50
90
 51
270
  0
ARC
  8
_0-2_
  6
CONTINUOUS
 62
    7
 10
1404.8256206076258
 20
697.72699735486549
 40
2.5
 50
270
 51
89.999999999999972
  0
LINE
  8
_0-2_
  6
CONTINUOUS
 62
    7
 10
1304.8256206076258
 20
685.22699735486549
 11
1404.8256206076258
 21
685.22699735486549
  0
LINE
  8
_0-2_
  6
CONTINUOUS
 62
    7
 10
1304.8256206076258
 20
690.22699735486549
 11
1404.8256206076258
 21
690.22699735486549
  0
ARC
  8
_0-2_
  6
CONTINUOUS
 62
    7
 10
1304.8256206076258
 20
687.72699735486549
 40
2.5
 50
90
 51
270
  0
ARC
  8
_0-2_
  6
CONTINUOUS
 62
    7
 10
1404.8256206076258
 20
687.72699735486549
 40
2.5
 50
270
 51
89.999999999999972
  0
LINE
  8
_0-2_
  6
CONTINUOUS
 62
    7
 10
1304.8256206076258
 20
675.22699735486549
 11
1404.8256206076258
 21
675.22699735486549
  0
LINE
  8
_0-2_
  6
CONTINUOUS
 62
    7
 10
1304.8256206076258
 20
680.22699735486549
 11
1404.8256206076258
 21
680.22699735486549
  0
ARC
  8
_0-2_
  6
CONTINUOUS
 62
    7
 10
1304.8256206076258
 20
677.72699735486549
 40
2.5
 50
90
 51
270
  0
ARC
  8
_0-2_
  6
CONTINUOUS
 62
    7
 10
1404.8256206076258
 20
677.72699735486549
 40
2.5
 50
270
 51
89.999999999999972
  0
LINE
  8
_0-2_
  6
CONTINUOUS
 62
    7
 10
1304.8256206076258
 20
665.22699735486549
 11
1404.8256206076258
 21
665.22699735486549
  0
LINE
  8
_0-2_
  6
CONTINUOUS
 62
    7
 10
1304.8256206076258
 20
670.22699735486549
 11
1404.8256206076258
 21
670.22699735486549
  0
ARC
  8
_0-2_
  6
CONTINUOUS
 62
    7
 10
1304.8256206076258
 20
667.72699735486549
 40
2.5
 50
90
 51
270
  0
ARC
  8
_0-2_
  6
CONTINUOUS
 62
    7
 10
1404.8256206076258
 20
667.72699735486549
 40
2.5
 50
270
 51
89.999999999999972
  0
LINE
  8
_0-2_
  6
CONTINUOUS
 62
    7
 10
1304.8256206076258
 20
655.22699735486549
 11
1404.8256206076258
 21
655.22699735486549
  0
LINE
  8
_0-2_
  6
CONTINUOUS
 62
    7
 10
1304.8256206076258
 20
660.22699735486549
 11
1404.8256206076258
 21
660.22699735486549
  0
ARC
  8
_0-2_
  6
CONTINUOUS
 62
    7
 10
1304.8256206076258
 20
657.72699735486549
 40
2.5
 50
90
 51
270
  0
ARC
  8
_0-2_
  6
CONTINUOUS
 62
    7
 10
1404.8256206076258
 20
657.72699735486549
 40
2.5
 50
270
 51
89.999999999999972
  0
LINE
  8
_0-1_
  6
CENTER1
 62
    4
 10
1354.8256206076258
 20
732.12783434248104
 11
1354.8256206076258
 21
642.39459360960245
  0
LINE
  8
_0-8_
  6
CONTINUOUS
 62
    4
 10
1433.2568763204931
 20
647.72699735486549
 11
1433.2568763204931
 21
657.72699735486549
  0
POINT
  8
_0-8_
 62
    4
 10
1433.2568763204931
 20
647.72699735486549
  0
POINT
  8
_0-8_
 62
    4
 10
1433.2568763204931
 20
657.72699735486549
  0
LINE
  8
_0-8_
  6
CONTINUOUS
 62
    4
 10
1433.2568763204931
 20
647.72699735486549
 11
1419.9234764244511
 21
647.72699735486549
  0
LINE
  8
_0-8_
  6
CONTINUOUS
 62
    4
 10
1433.2568763204931
 20
657.72699735486549
 11
1419.9234764244511
 21
657.72699735486549
  0
LINE
  8
_0-8_
  6
CONTINUOUS
 62
    4
 10
1449.6934201336512
 20
647.72699735486549
 11
1449.6934201336512
 21
727.72699735486549
  0
POINT
  8
_0-8_
 62
    4
 10
1449.6934201336512
 20
647.72699735486549
  0
POINT
  8
_0-8_
 62
    4
 10
1449.6934201336512
 20
727.72699735486549
  0
LINE
  8
_0-8_
  6
CONTINUOUS
 62
    4
 10
1449.6934201336512
 20
647.72699735486549
 11
1419.9234764244511
 21
647.72699735486549
  0
LINE
  8
_0-8_
  6
CONTINUOUS
 62
    4
 10
1449.6934201336512
 20
727.72699735486549
 11
1419.9234764244511
 21
727.72699735486549
  0
TEXT
  8
_0-8_
 62
    4
 10
1447.1934201336512
 20
681.47699735486549
 40
12.5
 41
1
 50
90
  1
80
  0
TEXT
  8
_0-8_
 62
    4
 10
1447.9178821358578
 20
646.63509784794144
 40
12.5
 41
1
 50
90
  1
10
  0
LINE
  8
_0-8_
  6
CONTINUOUS
 62
    4
 10
1304.8256206076258
 20
611.78857262956751
 11
1404.8256206076258
 21
611.78857262956751
  0
POINT
  8
_0-8_
 62
    4
 10
1304.8256206076258
 20
611.78857262956751
  0
POINT
  8
_0-8_
 62
    4
 10
1404.8256206076258
 20
611.78857262956751
  0
LINE
  8
_0-8_
  6
CONTINUOUS
 62
    4
 10
1304.8256206076258
 20
611.78857262956751
 11
1304.8256206076258
 21
643.63961217522433
  0
LINE
  8
_0-8_
  6
CONTINUOUS
 62
    4
 10
1404.8256206076258
 20
611.78857262956751
 11
1404.8256206076258
 21
643.63961217522433
  0
TEXT
  8
_0-8_
 62
    4
 10
1345.4506206076258
 20
614.28857262956751
 40
12.5
 41
1
 50
0
  1
100
  0
LINE
  8
_0-8_
  6
CONTINUOUS
 62
    4
 10
1265.4481162869836
 20
725.22699735486549
 11
1265.4481162869836
 21
720.22699735486549
  0
POINT
  8
_0-8_
 62
    4
 10
1265.4481162869836
 20
725.22699735486549
  0
POINT
  8
_0-8_
 62
    4
 10
1265.4481162869836
 20
720.22699735486549
  0
LINE
  8
_0-8_
  6
CONTINUOUS
 62
    4
 10
1265.4481162869836
 20
725.22699735486549
 11
1299.2090505841343
 21
725.22699735486549
  0
LINE
  8
_0-8_
  6
CONTINUOUS
 62
    4
 10
1265.4481162869836
 20
720.22699735486549
 11
1299.2090505841343
 21
720.22699735486549
  0
TEXT
  8
_0-8_
 62
    4
 10
1262.9481162869836
 20
719.60199735486549
 40
12.5
 41
1
 50
90
  1
5
  0
LINE
  8
_0-8_
  6
CONTINUOUS
 62
    4
 10
1454.7697211941986
 20
774.7821077624701
 11
1528.9910940202108
 21
774.7821077624701
  0
LINE
  8
_0-8_
  6
CONTINUOUS
 62
    4
 10
1408.6589097352353
 20
728.67129630350678
 11
1454.7697211941986
 21
774.7821077624701
  0
LINE
  8
_0-8_
  6
CONTINUOUS
 62
    4
 10
1408.6589097352353
 20
728.67129630350678
 11
1416.1589097352353
 21
741.6616773602733
  0
LINE
  8
_0-8_
  6
CONTINUOUS
 62
    4
 10
1408.6589097352353
 20
728.67129630350678
 11
1421.6492907920019
 21
736.17129630350678
  0
TEXT
  8
_0-8_
 62
    7
 10
1469.0656819836681
 20
777.37807272141549
 40
15
 41
1.103030262571393
 50
0
  1
R2.5
  0
LINE
  8
_0-1_
  6
CENTER1
 62
    4
 10
1341.0996784211898
 20
647.72699735486549
 11
1367.2268513070535
 21
647.72699735486549
  0
LINE
  8
_0-1_
  6
CENTER1
 62
    4
 10
1341.0996784211898
 20
657.72699735486549
 11
1367.2268513070535
 21
657.72699735486549
  0
LINE
  8
_0-1_
  6
CENTER1
 62
    4
 10
1341.0996784211898
 20
667.72699735486549
 11
1367.2268513070535
 21
667.72699735486549
  0
LINE
  8
_0-1_
  6
CENTER1
 62
    4
 10
1341.0996784211898
 20
677.72699735486549
 11
1367.2268513070535
 21
677.72699735486549
  0
LINE
  8
_0-1_
  6
CENTER1
 62
    4
 10
1341.0996784211898
 20
687.72699735486549
 11
1367.2268513070535
 21
687.72699735486549
  0
LINE
  8
_0-1_
  6
CENTER1
 62
    4
 10
1341.0996784211898
 20
687.72699735486549
 11
1367.2268513070535
 21
687.72699735486549
  0
LINE
  8
_0-1_
  6
CENTER1
 62
    4
 10
1341.0996784211898
 20
697.72699735486549
 11
1367.2268513070535
 21
697.72699735486549
  0
LINE
  8
_0-1_
  6
CENTER1
 62
    4
 10
1341.0996784211898
 20
707.72699735486549
 11
1367.2268513070535
 21
707.72699735486549
  0
LINE
  8
_0-1_
  6
CENTER1
 62
    4
 10
1341.0996784211898
 20
717.72699735486549
 11
1367.2268513070535
 21
717.72699735486549
  0
LINE
  8
_0-1_
  6
CENTER1
 62
    4
 10
1341.0996784211898
 20
727.72699735486549
 11
1367.2268513070535
 21
727.72699735486549
  0
LINE
  8
_0-8_
  6
CONTINUOUS
 62
    4
 10
1498.8120872094996
 20
594.7269973548656
 11
1498.8120872094996
 21
647.72699735486549
  0
POINT
  8
_0-8_
 62
    4
 10
1498.8120872094996
 20
594.7269973548656
  0
POINT
  8
_0-8_
 62
    4
 10
1498.8120872094996
 20
647.72699735486549
  0
LINE
  8
_0-8_
  6
CONTINUOUS
 62
    4
 10
1498.8120872094996
 20
594.7269973548656
 11
1449.6934201336512
 21
594.7269973548656
  0
LINE
  8
_0-8_
  6
CONTINUOUS
 62
    4
 10
1498.8120872094996
 20
647.72699735486549
 11
1449.6934201336512
 21
647.72699735486549
  0
TEXT
  8
_0-8_
 62
    4
 10
1496.3120872094996
 20
614.9769973548656
 40
12.5
 41
1
 50
90
  1
53
  0
LINE
  8
_0-8_
  6
CONTINUOUS
 62
    4
 10
1551.3242135668495
 20
594.7269973548656
 11
1551.3242135668495
 21
727.72699735486549
  0
POINT
  8
_0-8_
 62
    4
 10
1551.3242135668495
 20
594.7269973548656
  0
POINT
  8
_0-8_
 62
    4
 10
1551.3242135668495
 20
727.72699735486549
  0
LINE
  8
_0-8_
  6
CONTINUOUS
 62
    4
 10
1551.3242135668495
 20
594.7269973548656
 11
1449.6934201336512
 21
594.7269973548656
  0
LINE
  8
_0-8_
  6
CONTINUOUS
 62
    4
 10
1551.3242135668495
 20
727.72699735486549
 11
1449.6934201336512
 21
727.72699735486549
  0
TEXT
  8
_0-8_
 62
    4
 10
1548.8242135668495
 20
651.85199735486549
 40
12.5
 41
1
 50
90
  1
133
  0
LINE
  8
_0-8_
  6
CONTINUOUS
 62
    4
 10
643.86745864510442
 20
594.37753689335693
 11
473.76292522882454
 21
424.273003477077
  0
LINE
  8
_0-8_
  6
CONTINUOUS
 62
    4
 10
643.86745864510442
 20
594.37753689335693
 11
636.36745864510442
 21
581.38715583659041
  0
LINE
  8
_0-8_
  6
CONTINUOUS
 62
    4
 10
643.86745864510442
 20
594.37753689335693
 11
630.8770775883379
 21
586.87753689335693
  0
LINE
  8
_0-8_
  6
CONTINUOUS
 62
    4
 10
421.27188611312107
 20
424.273003477077
 11
473.76292522882454
 21
424.273003477077
  0
ARC
  8
_0-2_
  6
CONTINUOUS
 62
    7
 10
645.82562060762598
 20
903.72699735486549
 40
2
 50
90
 51
180
  0
LINE
  8
_0-2_
  6
CONTINUOUS
 62
    7
 10
1457.8256206076258
 20
905.72699735486549
 11
645.82562060762598
 21
905.72699735486549
  0
ARC
  8
_0-2_
  6
CONTINUOUS
 62
    7
 10
1457.8256206076258
 20
903.72699735486549
 40
2
 50
0
 51
90
  0
LINE
  8
_0-2_
  6
CONTINUOUS
 62
    7
 10
1459.8256206076258
 20
596.72699735486549
 11
1459.8256206076258
 21
903.72699735486549
  0
ARC
  8
_0-2_
  6
CONTINUOUS
 62
    7
 10
1457.8256206076258
 20
596.72699735486549
 40
2
 50
270
 51
0
  0
LINE
  8
_0-2_
  6
CONTINUOUS
 62
    7
 10
645.82562060762598
 20
594.7269973548656
 11
1457.8256206076258
 21
594.7269973548656
  0
LINE
  8
_0-2_
  6
CONTINUOUS
 62
    7
 10
643.82562060762575
 20
596.72699735486549
 11
643.82562060762575
 21
903.72699735486549
  0
ARC
  8
_0-2_
  6
CONTINUOUS
 62
    7
 10
645.82562060762598
 20
596.72699735486549
 40
2
 50
180
 51
270
  0
TEXT
  8
_0-8_
 62
    7
 10
424.6132124175935
 20
426.1666836360788
 40
15
 41
1.103030262571393
 50
0
  1
4Å~R2
  0
CIRCLE
  8
_0-2_
  6
CONTINUOUS
 62
    7
 10
1302.3256206076258
 20
635.22699735486549
 40
1.5000000000000002
  0
CIRCLE
  8
_0-2_
  6
CONTINUOUS
 62
    4
 10
1302.3256206076258
 20
635.22699735486549
 40
2
  0
CIRCLE
  8
_0-2_
  6
CONTINUOUS
 62
    7
 10
1407.3256206076258
 20
635.22699735486549
 40
1.5000000000000002
  0
CIRCLE
  8
_0-2_
  6
CONTINUOUS
 62
    4
 10
1407.3256206076258
 20
635.22699735486549
 40
2
  0
CIRCLE
  8
_0-2_
  6
CONTINUOUS
 62
    7
 10
1302.3256206076258
 20
740.22699735486549
 40
1.5000000000000002
  0
CIRCLE
  8
_0-2_
  6
CONTINUOUS
 62
    4
 10
1302.3256206076258
 20
740.22699735486549
 40
2
  0
CIRCLE
  8
_0-2_
  6
CONTINUOUS
 62
    7
 10
1407.3256206076258
 20
740.22699735486549
 40
1.5000000000000002
  0
CIRCLE
  8
_0-2_
  6
CONTINUOUS
 62
    4
 10
1407.3256206076258
 20
740.22699735486549
 40
2
  0
TEXT
  8
_0-8_
 62
    7
 10
1138.3629862236266
 20
797.30544409844128
 40
15
 41
1.103030262571393
 50
0
  1
4Å~M4 Burring
  0
LINE
  8
_0-8_
  6
CONTINUOUS
 62
    4
 10
1249.2495432403334
 20
794.55337770719461
 11
1129.2367305424248
 21
794.55337770719461
  0
TEXT
  8
_0-0_
 62
    7
 10
1123.0212791765291
 20
199.50907659386507
 40
18.999999761581421
 41
1.0717703643477983
 50
0
  1
FLC_cover right
  0
TEXT
  8
_0-0_
 62
    7
 10
1722.090162047286
 20
40.329372177454985
 40
24.000000953674316
 41
0.9871794479524999
 50
0
  1
FLC_cover right_2016.10.06
  0
TEXT
  8
_0-0_
 62
    7
 10
1796.3077718166503
 20
147.94696958386987
 40
20
 41
1.0069231051665091
 50
0
  1
FABOOL Laser CO2
  0
TEXT
  8
_0-0_
 62
    7
 10
1114.235275406224
 20
141.62697739923084
 40
16.000000238418579
 41
0.965801836975482
 50
0
  1
06/Oct/2016
  0
TEXT
  8
_0-0_
 62
    7
 10
1246.1735793558883
 20
42.025086802864848
 40
15
 41
1.103030262571393
 50
0
  1
smartDIYs Co.,Ltd.
  0
ENDSEC
  0
EOF
