  0
SECTION
  2
HEADER
  9
$ACADVER
  1
AC1009
  9
$INSBASE
 10
0
 20
0
 30
0
  9
$EXTMIN
 10
0
 20
0
  9
$EXTMAX
 10
2100
 20
1485
  9
$LIMMIN
 10
0
 20
0
  9
$LIMMAX
 10
2100
 20
1485
  9
$LTSCALE
 40
5
  0
ENDSEC
  0
SECTION
  2
TABLES
  0
TABLE
  2
LTYPE
 70
     9
  0
LTYPE
  2
CONTINUOUS
 70
    64
  3
é¿ê¸
 72
    65
 73
     0
 40
0.0
  0
LTYPE
  2
DASHED1
 70
    64
  3
--  --  --  --  --  --  --  --  
 72
    65
 73
     2
 40
2.5
 49
1.25
 49
-1.25
  0
LTYPE
  2
DASHED2
 70
    64
  3
----    ----    ----    ----    
 72
    65
 73
     2
 40
5.0
 49
2.5
 49
-2.5
  0
LTYPE
  2
DASHED3
 70
    64
  3
------  ------  ------  ------  
 72
    65
 73
     2
 40
5.0
 49
3.75
 49
-1.25
  0
LTYPE
  2
CENTER1
 70
    64
  3
----- - ----- - ----- - ----- - 
 72
    65
 73
     4
 40
10.0
 49
6.25
 49
-1.25
 49
1.25
 49
-1.25
  0
LTYPE
  2
CENTER2
 70
    64
  3
----------  --  ----------  --  
 72
    65
 73
     4
 40
20.0
 49
12.5
 49
-2.5
 49
2.5
 49
-2.5
  0
LTYPE
  2
PHANTOM1
 70
    64
  3
--- - - --- - - --- - - --- - - 
 72
    65
 73
     6
 40
10.0
 49
3.25
 49
-1.25
 49
1.25
 49
-1.25
 49
1.25
 49
-1.25
  0
LTYPE
  2
PHANTOM2
 70
    64
  3
--------  -  -  --------  -  -  
 72
    65
 73
     6
 40
20.0
 49
10.0
 49
-2.5
 49
1.25
 49
-2.5
 49
1.25
 49
-2.5
  0
LTYPE
  2
DOT
 70
    64
  3
-   -   -   -   -   -   -   -   
 72
    65
 73
     2
 40
2.5
 49
0.625
 49
-1.875
  0
LTYPE
  2
DUMMY
 70
    64
  3
É_É~Å[
 72
    65
 73
     0
 40
0.0
  0
LTYPE
  2
RAND1
 70
    64
  3
ÉâÉìÉ_ÉÄê¸1
 72
    65
 73
     4
 40
10.0
 49
1.0
 49
-2.0
 49
3.0
 49
-4.0
  0
LTYPE
  2
RAND2
 70
    64
  3
ÉâÉìÉ_ÉÄê¸2
 72
    65
 73
     4
 40
14.0
 49
2.0
 49
-3.0
 49
4.0
 49
-5.0
  0
LTYPE
  2
RAND3
 70
    64
  3
ÉâÉìÉ_ÉÄê¸3
 72
    65
 73
     4
 40
18.0
 49
3.0
 49
-4.0
 49
5.0
 49
-6.0
  0
LTYPE
  2
RAND4
 70
    64
  3
ÉâÉìÉ_ÉÄê¸4
 72
    65
 73
     4
 40
22.0
 49
4.0
 49
-5.0
 49
6.0
 49
-7.0
  0
LTYPE
  2
RAND5
 70
    64
  3
ÉâÉìÉ_ÉÄê¸5
 72
    65
 73
     4
 40
26.0
 49
5.0
 49
-6.0
 49
7.0
 49
-8.0
  0
LTYPE
  2
LONG1
 70
    64
  3
----------  --  ----------  --  
 72
    65
 73
     4
 40
40.0
 49
32.5
 49
-2.5
 49
2.5
 49
-2.5
  0
LTYPE
  2
LONG2
 70
    64
  3
--------  -  -  --------  -  -  
 72
    65
 73
     6
 40
40.0
 49
30.0
 49
-2.5
 49
1.25
 49
-2.5
 49
1.25
 49
-2.5
  0
LTYPE
  2
LONG3
 70
    64
  3
+++++++++++++++..+++++++++++++++
 72
    65
 73
     2
 40
40.0
 49
37.5
 49
-2.5
  0
LTYPE
  2
LONG4
 70
    64
  3
+++++++++++++++..+++++++++++++++
 72
    65
 73
     2
 40
80.0
 49
75.0
 49
-5.0
  0
LTYPE
  2
LONG5
 70
    64
  3
----------  --  ----------  --  
 72
    65
 73
     4
 40
60.0
 49
37.5
 49
-7.5
 49
7.5
 49
-7.5
  0
LTYPE
  2
dashed
 70
   64
  3
-------   -------------   ------
 72
   65
 73
    2
 40
7.5
 49
6
 49
-1.5
  0
LTYPE
  2
dashed_spaced
 70
   64
  3
----        --------        ----
 72
   65
 73
    2
 40
12
 49
6
 49
-6
  0
LTYPE
  2
long_dashed_dotted
 70
   64
  3
------------- --- --------------
 72
   65
 73
    4
 40
15.25
 49
12
 49
-1.5
 49
0.25
 49
-1.5
  0
LTYPE
  2
long_dashed_double-dotted
 70
   64
  3
----------- --- --- ------------
 72
   65
 73
    6
 40
17
 49
12
 49
-1.5
 49
0.25
 49
-1.5
 49
0.25
 49
-1.5
  0
LTYPE
  2
long_dashed_triplicate-dotted
 70
   64
  3
--------- --- --- --- ----------
 72
   65
 73
    8
 40
18.75
 49
12
 49
-1.5
 49
0.25
 49
-1.5
 49
0.25
 49
-1.5
 49
0.25
 49
-1.5
  0
LTYPE
  2
dotted
 70
   64
  3
   -       -       -       -    
 72
   65
 73
    2
 40
1.75
 49
0.25
 49
-1.5
  0
LTYPE
  2
chain
 70
   64
  3
-------------- -- --------------
 72
   65
 73
    4
 40
18.5
 49
12
 49
-1.5
 49
3.5
 49
-1.5
  0
LTYPE
  2
chain_double_dash
 70
   64
  3
------------ -- -- -------------
 72
   65
 73
    6
 40
23.5
 49
12
 49
-1.5
 49
3.5
 49
-1.5
 49
3.5
 49
-1.5
  0
LTYPE
  2
dashed_dotted
 70
   64
  3
-----------     -     ----------
 72
   65
 73
    4
 40
9.25
 49
6
 49
-1.5
 49
0.25
 49
-1.5
  0
LTYPE
  2
double-dashed_dotted
 70
   64
  3
------   -----------   -   -----
 72
   65
 73
    6
 40
16.75
 49
6
 49
-1.5
 49
6
 49
-1.5
 49
0.25
 49
-1.5
  0
LTYPE
  2
dashed_double-dotted
 70
   64
  3
---------    -    -    ---------
 72
   65
 73
    6
 40
11
 49
6
 49
-1.5
 49
0.25
 49
-1.5
 49
0.25
 49
-1.5
  0
LTYPE
  2
double-dashed_double-dotted
 70
   64
  3
-----   ---------   -   -   ----
 72
   65
 73
    8
 40
18.5
 49
6
 49
-1.5
 49
6
 49
-1.5
 49
0.25
 49
-1.5
 49
0.25
 49
-1.5
  0
LTYPE
  2
dashed_triplicate-dotted
 70
   64
  3
-------    -    -    -    ------
 72
   65
 73
    8
 40
12.75
 49
6
 49
-1.5
 49
0.25
 49
-1.5
 49
0.25
 49
-1.5
 49
0.25
 49
-1.5
  0
LTYPE
  2
double-dashed_triplicate-dotted
 70
   64
  3
-----  ---------  -  -  -  -----
 72
   65
 73
   10
 40
20.25
 49
6
 49
-1.5
 49
6
 49
-1.5
 49
0.25
 49
-1.5
 49
0.25
 49
-1.5
 49
0.25
 49
-1.5
  0
LTYPE
  2
undefined
 70
   64
  3
--------------------------------
 72
   65
 73
    0
 40
0
  0
LTYPE
  2
_
 70
   64
  3
                                
 72
   65
 73
    0
 40
0
  0
LTYPE
  2
__18
 70
   64
  3
                                
 72
   65
 73
    0
 40
0
  0
LTYPE
  2
__19
 70
   64
  3
                                
 72
   65
 73
    0
 40
0
  0
LTYPE
  2
__20
 70
   64
  3
                                
 72
   65
 73
    0
 40
0
  0
LTYPE
  2
__21
 70
   64
  3
                                
 72
   65
 73
    0
 40
0
  0
LTYPE
  2
__22
 70
   64
  3
                                
 72
   65
 73
    0
 40
0
  0
LTYPE
  2
__23
 70
   64
  3
                                
 72
   65
 73
    0
 40
0
  0
LTYPE
  2
__24
 70
   64
  3
                                
 72
   65
 73
    0
 40
0
  0
LTYPE
  2
__25
 70
   64
  3
                                
 72
   65
 73
    0
 40
0
  0
LTYPE
  2
__26
 70
   64
  3
                                
 72
   65
 73
    0
 40
0
  0
LTYPE
  2
__27
 70
   64
  3
                                
 72
   65
 73
    0
 40
0
  0
LTYPE
  2
__28
 70
   64
  3
                                
 72
   65
 73
    0
 40
0
  0
LTYPE
  2
__29
 70
   64
  3
                                
 72
   65
 73
    0
 40
0
  0
LTYPE
  2
__30
 70
   64
  3
                                
 72
   65
 73
    0
 40
0
  0
LTYPE
  2
__31
 70
   64
  3
                                
 72
   65
 73
    0
 40
0
  0
LTYPE
  2
__32
 70
   64
  3
                                
 72
   65
 73
    0
 40
0
  0
ENDTAB
  0
TABLE
  2
STYLE
  5
3
100
AcDbSymbolTable
 70
     1
  0
STYLE
  5
10
100
AcDbSymbolTableRecord
100
AcDbTextStyleTableRecord
  2
STANDARD
 70
     0
 40
0.0
 41
1.0
 50
0.0
 71
     0
 42
0.2
  3
txt
  4
bigfont.shx
  0
STYLE
  5
26
100
AcDbSymbolTableRecord
100
AcDbTextStyleTableRecord
  2
TATEGAKI
 70
    68
 40
0.0
 41
1.0
 50
0.0
 71
     0
 42
1.0
  3
txt
  4
bigfont.shx
  0
ENDTAB
  0
TABLE
  2
LAYER
 70
    5
  0
LAYER
  2
_0-0_
 70
   64
 62
    7
  6
CONTINUOUS
  0
LAYER
  2
_0-1_
 70
   64
 62
    7
  6
CONTINUOUS
  0
LAYER
  2
_0-2_
 70
   64
 62
    7
  6
CONTINUOUS
  0
LAYER
  2
_0-8_
 70
   64
 62
    7
  6
CONTINUOUS
  0
LAYER
  2
ADD_LINE
 70
   64
 62
    7
  6
CONTINUOUS
  0
ENDTAB
  0
ENDSEC
  0
SECTION
  2
BLOCKS
  0
ENDSEC
  0
SECTION
  2
ENTITIES
  0
LINE
  8
_0-0_
  6
CONTINUOUS
 62
    4
 10
1397.6256206076264
 20
134.02699735486593
 11
1098.6256206076257
 21
134.02699735486593
  0
LINE
  8
_0-0_
  6
CONTINUOUS
 62
    4
 10
2091.8256206076258
 20
89.826997354865625
 11
1493.8256206076262
 21
89.826997354865625
  0
LINE
  8
_0-0_
  6
CONTINUOUS
 62
    4
 10
1683.6256206076259
 20
141.82699735486565
 11
2076.2256206076263
 21
141.82699735486565
  0
LINE
  8
_0-0_
  6
CONTINUOUS
 62
    4
 10
1668.025620607626
 20
32.626997354865352
 11
1668.0256206076263
 21
193.82699735486563
  0
LINE
  8
_0-0_
  6
CONTINUOUS
 62
    4
 10
1098.6256206076257
 20
256.22699735486583
 11
2091.8256206076258
 21
256.22699735486583
  0
LINE
  8
_0-0_
  6
CONTINUOUS
 62
    4
 10
1098.6256206076257
 20
193.82699735486563
 11
2091.8256206076267
 21
193.8269973548654
  0
LINE
  8
_0-0_
  6
CONTINUOUS
 62
    4
 10
1322.2256206076258
 20
256.22699735486583
 11
1322.2256206076258
 21
193.82699735486582
  0
TEXT
  8
_0-0_
 62
    7
 10
1591.2534617989184
 20
198.88699350678996
 40
18.999999761581421
 41
1.178947400782578
 50
0
  1
Å|
  0
LINE
  8
_0-0_
  6
CONTINUOUS
 62
    4
 10
1493.8256206076262
 20
256.22699735486555
 11
1493.8256206076262
 21
32.6269973548645
  0
LINE
  8
_0-0_
  6
CONTINUOUS
 62
    4
 10
1972.2256206076258
 20
256.22699735486583
 11
1972.2256206076258
 21
193.82699735486582
  0
LINE
  8
_0-0_
  6
CONTINUOUS
 62
    4
 10
1852.6256206076273
 20
193.82699735486563
 11
1852.6256206076273
 21
256.22699735486583
  0
LINE
  8
_0-0_
  6
CONTINUOUS
 62
    4
 10
1647.2256206076263
 20
193.82699735486563
 11
1647.2256206076258
 21
256.22699735486583
  0
LINE
  8
_0-0_
  6
CONTINUOUS
 62
    4
 10
1561.2965564415172
 20
42.63804347354295
 11
1590.4165564415166
 21
37.646043473542932
  0
LINE
  8
_0-0_
  6
CONTINUOUS
 62
    4
 10
1590.4165564415166
 20
60.110043473542589
 11
1590.4165564415166
 21
37.646043473542932
  0
LINE
  8
_0-0_
  6
CONTINUOUS
 62
    4
 10
1561.2965564415172
 20
55.118043473542855
 11
1590.4165564415166
 21
60.110043473542589
  0
LINE
  8
_0-0_
  6
CONTINUOUS
 62
    4
 10
1561.2965564415172
 20
55.118043473542855
 11
1561.2965564415172
 21
42.63804347354295
  0
CIRCLE
  8
_0-0_
  6
CONTINUOUS
 62
    4
 10
1544.6565564415164
 20
48.878043473542903
 40
6.2400000000000002
  0
CIRCLE
  8
_0-0_
  6
CONTINUOUS
 62
    4
 10
1544.6565564415164
 20
48.878043473542903
 40
11.440000000000003
  0
LINE
  8
_0-0_
  6
CONTINUOUS
 62
    7
 10
1594.868990179702
 20
48.878043473542903
 11
1530.4894414143221
 21
48.878043473542903
  0
LINE
  8
_0-0_
  6
CONTINUOUS
 62
    7
 10
1544.6565564415164
 20
36.050617842216184
 11
1544.6565564415164
 21
62.642036573345479
  0
LINE
  8
_0-0_
  6
CONTINUOUS
 62
    4
 10
1657.6256206076259
 20
141.82699735486565
 11
1504.2256206076258
 21
141.82699735486565
  0
LINE
  8
_0-0_
  6
CONTINUOUS
 62
    4
 10
1397.6256206076257
 20
32.626997354865352
 11
1397.6256206076268
 21
193.82699735486563
  0
LINE
  8
_0-0_
  6
CONTINUOUS
 62
    4
 10
1493.8256206076262
 20
102.8269973548656
 11
1397.6256206076264
 21
102.8269973548656
  0
LINE
  8
_0-0_
  6
CONTINUOUS
 62
    4
 10
1397.6256206076264
 20
102.8269973548656
 11
1098.6256206076257
 21
102.82699735486588
  0
TEXT
  8
_0-0_
 62
    7
 10
1626.8193473032943
 20
39.87804396474445
 40
17.999999523162838
 41
1.060606088702527
 50
0
  1
Ç`ÇR
  0
LINE
  8
_0-0_
  6
CONTINUOUS
 62
    4
 10
1098.6256206076257
 20
256.22699735486583
 11
1098.6256206076257
 21
32.626997354865352
  0
TEXT
  8
_0-0_
 62
    7
 10
1328.7597382782469
 20
237.281614545227
 40
16.000000238418579
 41
1.0422794146408489
 50
0
  1
Material
  0
TEXT
  8
_0-0_
 62
    7
 10
1104.6594441517639
 20
237.281614545227
 40
16.000000238418579
 41
1.0422794146408489
 50
0
  1
Model
  0
LINE
  8
_0-0_
  6
CONTINUOUS
 62
    3
 10
2091.8256206076262
 20
32.626997354865352
 11
2091.8256206076267
 21
1467.8269973548661
  0
LINE
  8
_0-0_
  6
CONTINUOUS
 62
    3
 10
11.825620607625353
 20
32.626997354865921
 11
2091.8256206076262
 21
32.626997354865352
  0
LINE
  8
_0-0_
  6
CONTINUOUS
 62
    3
 10
11.825620607625353
 20
1467.8269973548665
 11
11.825620607625353
 21
32.626997354865921
  0
LINE
  8
_0-0_
  6
CONTINUOUS
 62
    3
 10
2091.8256206076267
 20
1467.8269973548661
 11
11.825620607625353
 21
1467.8269973548665
  0
TEXT
  8
_0-0_
 62
    7
 10
1375.5245918667019
 20
198.88695383393838
 40
18.999999761581421
 41
1.025171652854415
 50
0
  1
SPCC
  0
TEXT
  8
_0-0_
 62
    7
 10
1498.5847115318895
 20
122.90700517022671
 40
16.000000238418579
 41
1.0738636393269361
 50
0
  1
Grade
  0
TEXT
  8
_0-0_
 62
    7
 10
1549.1006294817305
 20
97.590806439758069
 40
16.000000238418579
 41
1.018318968327266
 50
0
  1
ÇçÅiMediumÅj
  0
TEXT
  8
_0-0_
 62
    7
 10
1499.5959355991008
 20
72.467001202942072
 40
16.000000238418579
 41
1.0422794146408489
 50
0
  1
Projection method
  0
TEXT
  8
_0-0_
 62
    7
 10
1401.136648229849
 20
84.998464825988549
 40
16.000000238418579
 41
1.0738636393269361
 50
0
  1
Unit
  0
TEXT
  8
_0-0_
 62
    7
 10
1430.5074387894444
 20
47.006486729026733
 40
17.999999523162838
 41
1.060606088702527
 50
0
  1
mm
  0
TEXT
  8
_0-0_
 62
    7
 10
1401.0847115318893
 20
174.90700517022697
 40
16.000000238418579
 41
1.0738636393269361
 50
0
  1
Scale
  0
TEXT
  8
_0-0_
 62
    7
 10
1254.3262088605916
 20
174.90700517022697
 40
16.000000238418579
 41
1.0422794146408489
 50
0
  1
Finish
  0
TEXT
  8
_0-0_
 62
    7
 10
1104.4773447570672
 20
174.90700517022697
 40
16.000000238418579
 41
1.018318968327266
 50
0
  1
Date
  0
TEXT
  8
_0-0_
 62
    7
 10
1223.932925945971
 20
110.93447414048782
 40
15
 41
1.103030262571393
 50
0
  1
Author
  0
LINE
  8
_0-0_
  6
CONTINUOUS
 62
    4
 10
1248.1256206076257
 20
193.82699735486563
 11
1248.1256206076257
 21
134.02699735486593
  0
TEXT
  8
_0-0_
 62
    7
 10
1544.2975423638472
 20
146.82699723565656
 40
16.000000238418579
 41
1.001059324796296
 50
0
  1
JIS B 0405
  0
TEXT
  8
_0-0_
 62
    7
 10
1500.7745829256241
 20
174.90700517022697
 40
16.000000238418579
 41
1.002948115975157
 50
0
  1
Machining tolerance
  0
TEXT
  8
_0-0_
 62
    7
 10
1501.3603265312117
 20
237.281614545227
 40
16.000000238418579
 41
1.0422794146408489
 50
0
  1
Heat treatment
  0
TEXT
  8
_0-0_
 62
    7
 10
1654.3509455472717
 20
237.281614545227
 40
16.000000238418579
 41
1.027173915877938
 50
0
  1
Surface
  0
TEXT
  8
_0-0_
 62
    7
 10
1654.1154696396661
 20
200.18989850640344
 40
18.999999761581421
 41
1.178947400782578
 50
0
  1
Matte black paint
  0
TEXT
  8
_0-0_
 62
    7
 10
1672.5596628333403
 20
171.82697775685867
 40
17.999999523162838
 41
1.014492780498069
 50
0
  1
Equipment
  0
TEXT
  8
_0-0_
 62
    7
 10
1860.8619089267104
 20
239.05984124494302
 40
16.000000238418579
 41
1.0422794146408489
 50
0
  1
Quantity
  0
TEXT
  8
_0-0_
 62
    7
 10
1175.3167990003985
 20
61.12561865131255
 40
15
 41
1.103030262571393
 50
0
  1
Hirotaka Shiojima
  0
LINE
  8
_0-1_
  6
CENTER1
 62
    4
 10
633.82562060762586
 20
587.336098894413
 11
633.82562060762586
 21
526.09120055697531
  0
LINE
  8
_0-1_
  6
CENTER1
 62
    4
 10
1469.8256206076258
 20
593.95716898494686
 11
1469.8256206076258
 21
540.9886082606763
  0
LINE
  8
_0-1_
  6
CENTER1
 62
    4
 10
1030.1759541602905
 20
945.22699735486549
 11
1089.2319464901861
 21
945.22699735486549
  0
LINE
  8
_0-1_
  6
CENTER1
 62
    4
 10
612.47784174363323
 20
555.22699735486549
 11
658.41028022244109
 21
555.22699735486549
  0
LINE
  8
_0-1_
  6
CENTER1
 62
    4
 10
1030.1759541602905
 20
555.22699735486549
 11
1089.2319464901861
 21
555.22699735486549
  0
LINE
  8
_0-1_
  6
CENTER1
 62
    4
 10
1450.1296773951037
 20
555.22699735486549
 11
1487.8598947169814
 21
555.22699735486549
  0
LINE
  8
_0-1_
  6
CENTER1
 62
    4
 10
1051.825620607626
 20
968.04762910010697
 11
1051.825620607626
 21
915.07906837583641
  0
LINE
  8
_0-1_
  6
CENTER1
 62
    4
 10
1051.825620607626
 20
593.95716898494686
 11
1051.825620607626
 21
540.9886082606763
  0
CIRCLE
  8
_0-2_
  6
CONTINUOUS
 62
    7
 10
1051.825620607626
 20
945.22699735486549
 40
2.75
  0
CIRCLE
  8
_0-2_
  6
CONTINUOUS
 62
    7
 10
633.82562060762586
 20
555.22699735486549
 40
2.75
  0
CIRCLE
  8
_0-2_
  6
CONTINUOUS
 62
    7
 10
1051.825620607626
 20
555.22699735486549
 40
2.75
  0
CIRCLE
  8
_0-2_
  6
CONTINUOUS
 62
    7
 10
1469.8256206076258
 20
555.22699735486549
 40
2.75
  0
LINE
  8
_0-8_
  6
CONTINUOUS
 62
    4
 10
1471.8071205041742
 20
557.80044428629549
 11
1517.9179319631373
 21
603.91125574525881
  0
LINE
  8
_0-8_
  6
CONTINUOUS
 62
    4
 10
1471.8071205041742
 20
557.80044428629549
 11
1479.3071205041742
 21
570.79082534306212
  0
LINE
  8
_0-8_
  6
CONTINUOUS
 62
    4
 10
1471.8071205041742
 20
557.80044428629549
 11
1484.7975015609406
 21
565.30044428629549
  0
LINE
  8
_0-8_
  6
CONTINUOUS
 62
    4
 10
603.82562060762586
 20
1199.4303078150574
 11
1499.8256206076258
 21
1199.4303078150574
  0
POINT
  8
_0-8_
 62
    4
 10
603.82562060762586
 20
1199.4303078150574
  0
POINT
  8
_0-8_
 62
    4
 10
1499.8256206076258
 20
1199.4303078150574
  0
LINE
  8
_0-8_
  6
CONTINUOUS
 62
    4
 10
603.82562060762586
 20
1199.4303078150574
 11
603.82562060762586
 21
987.60664068512187
  0
LINE
  8
_0-8_
  6
CONTINUOUS
 62
    4
 10
1499.8256206076258
 20
1199.4303078150574
 11
1499.8256206076258
 21
987.60664068512187
  0
TEXT
  8
_0-8_
 62
    7
 10
1042.450620607626
 20
1201.9303078150574
 40
12.5
 41
1
 50
0
  1
896
  0
LINE
  8
_0-8_
  6
CONTINUOUS
 62
    4
 10
603.82562060762586
 20
1094.3030063505707
 11
603.82562060762586
 21
987.60664068512187
  0
LINE
  8
_0-8_
  6
CONTINUOUS
 62
    4
 10
1499.8256206076258
 20
1094.3030063505707
 11
1499.8256206076258
 21
987.60664068512187
  0
TEXT
  8
_0-8_
 62
    7
 10
1519.9924469981008
 20
605.98577078022242
 40
15
 41
1.103030262571393
 50
0
  1
É”5.5+ Å~8
  0
TEXT
  8
_0-0_
 62
    7
 10
1674.609398899217
 20
68.677087620139901
 40
17.999999523162838
 41
1.029411791975982
 50
0
  1
Drawing number
  0
LINE
  8
_0-2_
  6
CONTINUOUS
 62
    7
 10
603.82562060762586
 20
549.22699735486549
 11
603.82562060762586
 21
951.22699735486549
  0
ARC
  8
_0-2_
  6
CONTINUOUS
 62
    7
 10
605.82562060762586
 20
549.22699735486549
 40
2
 50
180
 51
270
  0
LINE
  8
_0-2_
  6
CONTINUOUS
 62
    7
 10
1497.8256206076258
 20
547.2269973548656
 11
605.82562060762586
 21
547.2269973548656
  0
ARC
  8
_0-2_
  6
CONTINUOUS
 62
    7
 10
1497.8256206076258
 20
549.22699735486549
 40
2
 50
270
 51
0
  0
LINE
  8
_0-2_
  6
CONTINUOUS
 62
    7
 10
1497.8256206076258
 20
953.22699735486549
 11
605.82562060762586
 21
953.22699735486549
  0
LINE
  8
_0-2_
  6
CONTINUOUS
 62
    7
 10
1499.8256206076258
 20
951.22699735486549
 11
1499.8256206076258
 21
549.22699735486549
  0
ARC
  8
_0-2_
  6
CONTINUOUS
 62
    7
 10
1497.8256206076258
 20
951.22699735486549
 40
2
 50
0
 51
90
  0
LINE
  8
_0-1_
  6
CENTER1
 62
    4
 10
642.47784174363323
 20
945.22699735486549
 11
688.41028022244109
 21
945.22699735486549
  0
CIRCLE
  8
_0-2_
  6
CONTINUOUS
 62
    7
 10
661.82562060762598
 20
945.22699735486549
 40
2.75
  0
LINE
  8
_0-1_
  6
CENTER1
 62
    4
 10
661.82562060762598
 20
977.9792342359076
 11
661.82562060762598
 21
909.78583133637869
  0
LINE
  8
_0-1_
  6
CENTER1
 62
    4
 10
1420.1296773951037
 20
945.22699735486549
 11
1457.8598947169814
 21
945.22699735486549
  0
CIRCLE
  8
_0-2_
  6
CONTINUOUS
 62
    7
 10
1441.825620607626
 20
945.22699735486549
 40
2.75
  0
LINE
  8
_0-1_
  6
CENTER1
 62
    4
 10
1441.825620607626
 20
968.04762910010697
 11
1441.825620607626
 21
915.07906837583641
  0
ARC
  8
_0-2_
  6
CONTINUOUS
 62
    7
 10
605.82562060762586
 20
951.22699735486549
 40
2
 50
90
 51
180
  0
LINE
  8
_0-1_
  6
CENTER1
 62
    4
 10
1480.7662889662347
 20
928.22699735486549
 11
1468.1029429715995
 21
928.22699735486549
  0
CIRCLE
  8
_0-2_
  6
CONTINUOUS
 62
    7
 10
1474.8256206076258
 20
928.22699735486549
 40
2.75
  0
LINE
  8
_0-1_
  6
CENTER1
 62
    4
 10
1474.8256206076258
 20
928.22699735486549
 11
1474.8256206076258
 21
952.8335251131075
  0
LINE
  8
_0-1_
  6
CENTER1
 62
    4
 10
1474.8256206076258
 20
928.22699735486549
 11
1474.8256206076258
 21
906.0859489459209
  0
LINE
  8
_0-1_
  6
CENTER1
 62
    4
 10
628.82562060762586
 20
938.53131639914807
 11
628.82562060762586
 21
918.86601665434318
  0
LINE
  8
_0-1_
  6
CENTER1
 62
    4
 10
620.04964287497592
 20
928.22699735486549
 11
644.55700055681746
 21
928.22699735486549
  0
CIRCLE
  8
_0-2_
  6
CONTINUOUS
 62
    7
 10
628.82562060762586
 20
928.22699735486549
 40
2.75
  0
LINE
  8
_0-8_
  6
CONTINUOUS
 62
    4
 10
1499.8256206076258
 20
1081.1230789374026
 11
1499.8256206076258
 21
987.60664068512187
  0
LINE
  8
_0-8_
  6
CONTINUOUS
 62
    4
 10
603.82562060762586
 20
1106.5961146899831
 11
661.82562060762598
 21
1106.5961146899831
  0
POINT
  8
_0-8_
 62
    4
 10
603.82562060762586
 20
1106.5961146899831
  0
POINT
  8
_0-8_
 62
    4
 10
661.82562060762598
 20
1106.5961146899831
  0
LINE
  8
_0-8_
  6
CONTINUOUS
 62
    4
 10
603.82562060762586
 20
1106.5961146899831
 11
603.82562060762586
 21
987.60664068512187
  0
LINE
  8
_0-8_
  6
CONTINUOUS
 62
    4
 10
661.82562060762598
 20
1106.5961146899831
 11
661.82562060762598
 21
987.60664068512187
  0
TEXT
  8
_0-8_
 62
    7
 10
626.57562060762586
 20
1109.0961146899831
 40
12.5
 41
1
 50
0
  1
58
  0
LINE
  8
_0-8_
  6
CONTINUOUS
 62
    4
 10
661.82562060762598
 20
1106.5961146899831
 11
1051.825620607626
 21
1106.5961146899831
  0
POINT
  8
_0-8_
 62
    4
 10
1051.825620607626
 20
1106.5961146899831
  0
LINE
  8
_0-8_
  6
CONTINUOUS
 62
    4
 10
1051.825620607626
 20
1106.5961146899831
 11
1051.825620607626
 21
987.60664068512187
  0
TEXT
  8
_0-8_
 62
    7
 10
847.45062060762598
 20
1109.0961146899831
 40
12.5
 41
1
 50
0
  1
390
  0
LINE
  8
_0-8_
  6
CONTINUOUS
 62
    4
 10
1051.825620607626
 20
1106.5961146899831
 11
1441.825620607626
 21
1106.5961146899831
  0
POINT
  8
_0-8_
 62
    4
 10
1441.825620607626
 20
1106.5961146899831
  0
LINE
  8
_0-8_
  6
CONTINUOUS
 62
    4
 10
1441.825620607626
 20
1106.5961146899831
 11
1441.825620607626
 21
987.60664068512187
  0
TEXT
  8
_0-8_
 62
    7
 10
1237.450620607626
 20
1109.0961146899831
 40
12.5
 41
1
 50
0
  1
390
  0
LINE
  8
_0-8_
  6
CONTINUOUS
 62
    4
 10
1441.825620607626
 20
1106.5961146899831
 11
1499.8256206076258
 21
1106.5961146899831
  0
POINT
  8
_0-8_
 62
    4
 10
1499.8256206076258
 20
1106.5961146899831
  0
LINE
  8
_0-8_
  6
CONTINUOUS
 62
    4
 10
1499.8256206076258
 20
1106.5961146899831
 11
1499.8256206076258
 21
987.60664068512187
  0
TEXT
  8
_0-8_
 62
    7
 10
1464.575620607626
 20
1109.0961146899831
 40
12.5
 41
1
 50
0
  1
58
  0
POINT
  8
_0-8_
 62
    4
 10
442.60344542927146
 20
945.22699735486549
  0
LINE
  8
_0-8_
  6
CONTINUOUS
 62
    4
 10
442.60344542927146
 20
945.22699735486549
 11
556.6402313047239
 21
945.22699735486549
  0
LINE
  8
_0-8_
  6
CONTINUOUS
 62
    4
 10
330.89797161227892
 20
953.22699735486572
 11
330.89797161227892
 21
547.2269973548656
  0
POINT
  8
_0-8_
 62
    4
 10
330.89797161227892
 20
953.22699735486572
  0
POINT
  8
_0-8_
 62
    4
 10
330.89797161227892
 20
547.2269973548656
  0
LINE
  8
_0-8_
  6
CONTINUOUS
 62
    4
 10
330.89797161227892
 20
953.22699735486572
 11
556.6402313047239
 21
953.22699735486572
  0
LINE
  8
_0-8_
  6
CONTINUOUS
 62
    4
 10
330.89797161227892
 20
547.2269973548656
 11
556.6402313047239
 21
547.2269973548656
  0
TEXT
  8
_0-8_
 62
    7
 10
328.39797161227892
 20
740.85199735486549
 40
12.5
 41
1
 50
90
  1
406
  0
LINE
  8
_0-8_
  6
CONTINUOUS
 62
    4
 10
442.60344542927146
 20
953.22699735486549
 11
442.60344542927146
 21
945.22699735486549
  0
POINT
  8
_0-8_
 62
    4
 10
442.60344542927146
 20
953.22699735486549
  0
LINE
  8
_0-8_
  6
CONTINUOUS
 62
    4
 10
442.60344542927146
 20
953.22699735486549
 11
556.6402313047239
 21
953.22699735486549
  0
POINT
  8
_0-8_
 62
    4
 10
442.60344542927146
 20
555.22699735486549
  0
LINE
  8
_0-8_
  6
CONTINUOUS
 62
    4
 10
442.60344542927146
 20
555.22699735486549
 11
556.6402313047239
 21
555.22699735486549
  0
LINE
  8
_0-8_
  6
CONTINUOUS
 62
    4
 10
442.60344542927146
 20
555.22699735486549
 11
442.60344542927146
 21
547.2269973548656
  0
POINT
  8
_0-8_
 62
    4
 10
442.60344542927146
 20
547.2269973548656
  0
LINE
  8
_0-8_
  6
CONTINUOUS
 62
    4
 10
442.60344542927146
 20
547.2269973548656
 11
556.6402313047239
 21
547.2269973548656
  0
TEXT
  8
_0-8_
 62
    7
 10
440.10344542927146
 20
548.1019973548656
 40
12.5
 41
1
 50
90
  1
8
  0
TEXT
  8
_0-8_
 62
    7
 10
438.94286275043214
 20
945.82265247331543
 40
12.5
 41
1
 50
90
  1
8
  0
LINE
  8
_0-8_
  6
CONTINUOUS
 62
    4
 10
442.60344542927146
 20
945.22699735486549
 11
442.60344542927146
 21
555.22699735486549
  0
POINT
  8
_0-8_
 62
    4
 10
442.60344542927146
 20
945.22699735486549
  0
POINT
  8
_0-8_
 62
    4
 10
442.60344542927146
 20
555.22699735486549
  0
LINE
  8
_0-8_
  6
CONTINUOUS
 62
    4
 10
442.60344542927146
 20
945.22699735486549
 11
556.6402313047239
 21
945.22699735486549
  0
LINE
  8
_0-8_
  6
CONTINUOUS
 62
    4
 10
442.60344542927146
 20
555.22699735486549
 11
556.6402313047239
 21
555.22699735486549
  0
TEXT
  8
_0-8_
 62
    7
 10
440.10344542927146
 20
740.85199735486549
 40
12.5
 41
1
 50
90
  1
390
  0
POINT
  8
_0-8_
 62
    4
 10
719.28061000947832
 20
953.22699735486549
  0
LINE
  8
_0-8_
  6
CONTINUOUS
 62
    4
 10
719.28061000947832
 20
953.22699735486549
 11
646.98101255066513
 21
953.22699735486549
  0
LINE
  8
_0-8_
  6
CONTINUOUS
 62
    4
 10
719.28061000947832
 20
953.22699735486549
 11
719.28061000947832
 21
928.22699735486549
  0
TEXT
  8
_0-8_
 62
    7
 10
716.78061000947832
 20
934.47699735486549
 40
12.5
 41
1
 50
90
  1
25
  0
POINT
  8
_0-8_
 62
    4
 10
719.28061000947832
 20
928.22699735486549
  0
LINE
  8
_0-8_
  6
CONTINUOUS
 62
    4
 10
719.28061000947832
 20
928.22699735486549
 11
646.98101255066513
 21
928.22699735486549
  0
LINE
  8
_0-8_
  6
CONTINUOUS
 62
    4
 10
628.82562060762586
 20
852.7746557716066
 11
628.82562060762586
 21
905.90087931869016
  0
POINT
  8
_0-8_
 62
    4
 10
628.82562060762586
 20
852.7746557716066
  0
LINE
  8
_0-8_
  6
CONTINUOUS
 62
    4
 10
628.82562060762586
 20
852.7746557716066
 11
603.82562060762586
 21
852.7746557716066
  0
TEXT
  8
_0-8_
 62
    7
 10
610.07562060762586
 20
855.2746557716066
 40
12.5
 41
1
 50
0
  1
25
  0
LINE
  8
_0-8_
  6
CONTINUOUS
 62
    4
 10
603.82562060762586
 20
852.7746557716066
 11
603.82562060762586
 21
905.90087931869016
  0
POINT
  8
_0-8_
 62
    4
 10
603.82562060762586
 20
852.7746557716066
  0
LINE
  8
_0-8_
  6
CONTINUOUS
 62
    4
 10
1557.1976129505679
 20
489.88407263341844
 11
1609.6886520662713
 21
489.88407263341844
  0
TEXT
  8
_0-8_
 62
    7
 10
1560.5389392550405
 20
491.7777527924203
 40
15
 41
1.103030262571393
 50
0
  1
4Å~R2
  0
LINE
  8
_0-8_
  6
CONTINUOUS
 62
    4
 10
1500.2161899577097
 20
546.86549562627658
 11
1557.1976129505679
 21
489.88407263341844
  0
LINE
  8
_0-8_
  6
CONTINUOUS
 62
    4
 10
1500.2161899577097
 20
546.86549562627658
 11
1513.2065710144764
 21
539.36549562627658
  0
LINE
  8
_0-8_
  6
CONTINUOUS
 62
    4
 10
1500.2161899577097
 20
546.86549562627658
 11
1507.7161899577097
 21
533.87511456950995
  0
LINE
  8
_0-8_
  6
CONTINUOUS
 62
    4
 10
1474.8256206076258
 20
852.7746557716066
 11
1499.8256206076258
 21
852.7746557716066
  0
POINT
  8
_0-8_
 62
    4
 10
1474.8256206076258
 20
852.7746557716066
  0
POINT
  8
_0-8_
 62
    4
 10
1499.8256206076258
 20
852.7746557716066
  0
LINE
  8
_0-8_
  6
CONTINUOUS
 62
    4
 10
1474.8256206076258
 20
852.7746557716066
 11
1474.8256206076258
 21
905.90087931869016
  0
LINE
  8
_0-8_
  6
CONTINUOUS
 62
    4
 10
1499.8256206076258
 20
852.7746557716066
 11
1499.8256206076258
 21
905.90087931869016
  0
TEXT
  8
_0-8_
 62
    7
 10
1481.0756206076258
 20
855.2746557716066
 40
12.5
 41
1
 50
0
  1
25
  0
POINT
  8
_0-8_
 62
    4
 10
1393.6557906991502
 20
953.22699735486549
  0
LINE
  8
_0-8_
  6
CONTINUOUS
 62
    4
 10
1393.6557906991502
 20
953.22699735486549
 11
1451.7319075319851
 21
953.22699735486549
  0
TEXT
  8
_0-8_
 62
    7
 10
1391.1557906991502
 20
934.47699735486549
 40
12.5
 41
1
 50
90
  1
25
  0
LINE
  8
_0-8_
  6
CONTINUOUS
 62
    4
 10
1393.6557906991502
 20
953.22699735486549
 11
1393.6557906991502
 21
928.22699735486549
  0
POINT
  8
_0-8_
 62
    4
 10
1393.6557906991502
 20
928.22699735486549
  0
LINE
  8
_0-8_
  6
CONTINUOUS
 62
    4
 10
1393.6557906991502
 20
928.22699735486549
 11
1451.7319075319851
 21
928.22699735486549
  0
LINE
  8
_0-8_
  6
CONTINUOUS
 62
    4
 10
1581.0298019495931
 20
945.22699735486549
 11
1520.6614996847416
 21
945.22699735486549
  0
LINE
  8
_0-8_
  6
CONTINUOUS
 62
    4
 10
1581.0298019495931
 20
953.22699735486549
 11
1520.6614996847416
 21
953.22699735486549
  0
POINT
  8
_0-8_
 62
    4
 10
1581.0298019495931
 20
953.22699735486549
  0
LINE
  8
_0-8_
  6
CONTINUOUS
 62
    4
 10
1581.0298019495931
 20
953.22699735486549
 11
1581.0298019495931
 21
945.22699735486549
  0
POINT
  8
_0-8_
 62
    4
 10
1581.0298019495931
 20
945.22699735486549
  0
TEXT
  8
_0-8_
 62
    7
 10
1578.5298019495931
 20
946.1019973548656
 40
12.5
 41
1
 50
90
  1
8
  0
LINE
  8
_0-1_
  6
DASHED1
 62
    4
 10
692.82562060762586
 20
931.3161530938329
 11
692.82562060762586
 21
902.59576259907942
  0
LINE
  8
_0-1_
  6
DASHED1
 62
    4
 10
692.82562060762586
 20
822.56394274479692
 11
692.82562060762586
 21
797.17091456345997
  0
LINE
  8
_0-1_
  6
DASHED1
 62
    4
 10
685.80435824023368
 20
917.72699735486549
 11
698.71861857297961
 21
917.72699735486549
  0
LINE
  8
_0-1_
  6
DASHED1
 62
    4
 10
685.80435824023368
 20
810.22699735486549
 11
698.71861857297961
 21
810.22699735486549
  0
LINE
  8
_0-1_
  6
DASHED1
 62
    4
 10
977.89978695222544
 20
810.22699735486549
 11
986.98368984844478
 21
810.22699735486549
  0
LINE
  8
_0-1_
  6
DASHED1
 62
    4
 10
982.82562060762586
 20
930.84557045824806
 11
982.82562060762586
 21
903.69208188394009
  0
LINE
  8
_0-1_
  6
DASHED1
 62
    4
 10
977.89978695222544
 20
917.72699735486549
 11
986.98368984844478
 21
917.72699735486549
  0
CIRCLE
  8
_0-2_
  6
CONTINUOUS
 62
    7
 10
692.82562060762586
 20
917.72699735486549
 40
2
  0
CIRCLE
  8
_0-2_
  6
CONTINUOUS
 62
    7
 10
692.82562060762586
 20
810.22699735486549
 40
2
  0
CIRCLE
  8
_0-2_
  6
CONTINUOUS
 62
    7
 10
982.82562060762586
 20
810.22699735486549
 40
2
  0
CIRCLE
  8
_0-2_
  6
CONTINUOUS
 62
    7
 10
982.82562060762586
 20
917.72699735486549
 40
2
  0
CIRCLE
  8
_0-2_
  6
CONTINUOUS
 62
    4
 10
982.82562060762586
 20
917.72699735486549
 40
2.5
  0
CIRCLE
  8
_0-2_
  6
CONTINUOUS
 62
    4
 10
982.82562060762586
 20
810.22699735486549
 40
2.5
  0
CIRCLE
  8
_0-2_
  6
CONTINUOUS
 62
    4
 10
692.82562060762586
 20
917.72699735486549
 40
2.5
  0
CIRCLE
  8
_0-2_
  6
CONTINUOUS
 62
    4
 10
692.82562060762586
 20
810.22699735486549
 40
2.5
  0
ARC
  8
_0-2_
  6
CONTINUOUS
 62
    7
 10
732.32562060762575
 20
920.22699735486549
 40
2
 50
90
 51
180
  0
LINE
  8
_0-2_
  6
CONTINUOUS
 62
    7
 10
969.32562060762598
 20
922.2269973548656
 11
732.32562060762575
 21
922.2269973548656
  0
ARC
  8
_0-2_
  6
CONTINUOUS
 62
    7
 10
969.32562060762598
 20
920.22699735486549
 40
2
 50
0
 51
90
  0
LINE
  8
_0-2_
  6
CONTINUOUS
 62
    7
 10
971.32562060762598
 20
807.72699735486549
 11
971.32562060762598
 21
920.22699735486549
  0
ARC
  8
_0-2_
  6
CONTINUOUS
 62
    7
 10
969.32562060762598
 20
807.72699735486549
 40
2
 50
270
 51
0
  0
LINE
  8
_0-2_
  6
CONTINUOUS
 62
    7
 10
732.32562060762575
 20
805.72699735486549
 11
969.32562060762598
 21
805.72699735486549
  0
LINE
  8
_0-2_
  6
CONTINUOUS
 62
    7
 10
730.32562060762586
 20
807.72699735486549
 11
730.32562060762586
 21
920.22699735486549
  0
ARC
  8
_0-2_
  6
CONTINUOUS
 62
    7
 10
732.32562060762575
 20
807.72699735486549
 40
2
 50
180
 51
270
  0
LINE
  8
_0-1_
  6
DASHED1
 62
    4
 10
982.82562060762586
 20
824.24298568503889
 11
982.82562060762586
 21
803.67757179611647
  0
TEXT
  8
_0-8_
 62
    7
 10
1034.2239508042767
 20
749.76100055259144
 40
15
 41
1.103030262571393
 50
0
  1
4Å~R2
  0
LINE
  8
_0-8_
  6
CONTINUOUS
 62
    4
 10
1030.8826244998043
 20
747.86732039358958
 11
1083.3736636155077
 21
747.86732039358958
  0
TEXT
  8
_0-8_
 62
    7
 10
1045.9693052469968
 20
859.87369845309013
 40
15
 41
1.103030262571393
 50
0
  1
4Å~M5 Burring
  0
LINE
  8
_0-8_
  6
CONTINUOUS
 62
    4
 10
1042.6279789425244
 20
857.98001829408827
 11
1162.4441359470754
 21
857.98001829408827
  0
LINE
  8
_0-8_
  6
CONTINUOUS
 62
    4
 10
985.64655594966609
 20
914.96144128694652
 11
1042.6279789425244
 21
857.98001829408827
  0
LINE
  8
_0-8_
  6
CONTINUOUS
 62
    4
 10
985.64655594966609
 20
914.96144128694652
 11
998.63693700643262
 21
907.46144128694652
  0
LINE
  8
_0-8_
  6
CONTINUOUS
 62
    4
 10
985.64655594966609
 20
914.96144128694652
 11
993.14655594966609
 21
901.97106023018
  0
LINE
  8
_0-8_
  6
CONTINUOUS
 62
    4
 10
973.90120150694634
 20
804.84874338644761
 11
986.89158256371286
 21
797.34874338644761
  0
LINE
  8
_0-8_
  6
CONTINUOUS
 62
    4
 10
973.90120150694634
 20
804.84874338644761
 11
981.40120150694634
 21
791.85836232968097
  0
LINE
  8
_0-8_
  6
CONTINUOUS
 62
    4
 10
973.90120150694634
 20
804.84874338644761
 11
1030.8826244998043
 21
747.86732039358958
  0
LINE
  8
_0-1_
  6
DASHED1
 62
    4
 10
850.82562060762586
 20
882.96229505970223
 11
850.82562060762586
 21
850.02960814902372
  0
LINE
  8
_0-1_
  6
DASHED1
 62
    4
 10
837.70070311993663
 20
863.97699735486549
 11
864.68169962507068
 21
863.97699735486549
  0
LINE
  8
_0-8_
  6
CONTINUOUS
 62
    4
 10
603.82562060762586
 20
1030.9609964775702
 11
850.82562060762586
 21
1030.9609964775702
  0
POINT
  8
_0-8_
 62
    4
 10
603.82562060762586
 20
1030.9609964775702
  0
POINT
  8
_0-8_
 62
    4
 10
850.82562060762586
 20
1030.9609964775702
  0
LINE
  8
_0-8_
  6
CONTINUOUS
 62
    4
 10
603.82562060762586
 20
1030.9609964775702
 11
603.82562060762586
 21
974.61832730508422
  0
TEXT
  8
_0-8_
 62
    7
 10
717.95062060762586
 20
1033.4609964775702
 40
12.5
 41
1
 50
0
  1
247
  0
LINE
  8
_0-8_
  6
CONTINUOUS
 62
    4
 10
850.82562060762586
 20
944.6244529668229
 11
850.82562060762586
 21
936.09957609216565
  0
LINE
  8
_0-8_
  6
CONTINUOUS
 62
    4
 10
850.82562060762586
 20
1030.9609964775702
 11
850.82562060762586
 21
962.83668992631817
  0
LINE
  8
_0-8_
  6
CONTINUOUS
 62
    4
 10
730.32562060762586
 20
829.87402273826115
 11
971.32562060762575
 21
829.87402273826115
  0
POINT
  8
_0-8_
 62
    4
 10
730.32562060762586
 20
829.87402273826115
  0
POINT
  8
_0-8_
 62
    4
 10
971.32562060762575
 20
829.87402273826115
  0
LINE
  8
_0-8_
  6
CONTINUOUS
 62
    4
 10
730.32562060762586
 20
829.87402273826115
 11
730.32562060762586
 21
817.74884144755242
  0
LINE
  8
_0-8_
  6
CONTINUOUS
 62
    4
 10
971.32562060762575
 20
829.87402273826115
 11
971.32562060762575
 21
817.74884144755242
  0
TEXT
  8
_0-8_
 62
    7
 10
841.45062060762586
 20
832.37402273826115
 40
12.5
 41
1
 50
0
  1
241
  0
LINE
  8
_0-8_
  6
CONTINUOUS
 62
    4
 10
778.9518606558006
 20
922.2269973548656
 11
778.9518606558006
 21
805.72699735486549
  0
POINT
  8
_0-8_
 62
    4
 10
778.9518606558006
 20
922.2269973548656
  0
POINT
  8
_0-8_
 62
    4
 10
778.9518606558006
 20
805.72699735486549
  0
LINE
  8
_0-8_
  6
CONTINUOUS
 62
    4
 10
778.9518606558006
 20
922.2269973548656
 11
791.07704194650921
 21
922.2269973548656
  0
LINE
  8
_0-8_
  6
CONTINUOUS
 62
    4
 10
778.9518606558006
 20
805.72699735486549
 11
791.07704194650921
 21
805.72699735486549
  0
TEXT
  8
_0-8_
 62
    7
 10
776.4518606558006
 20
848.35199735486549
 40
12.5
 41
1
 50
90
  1
116.5
  0
LINE
  8
_0-8_
  6
CONTINUOUS
 62
    4
 10
907.11142867363958
 20
953.22699735486549
 11
907.11142867363958
 21
863.97699735486549
  0
POINT
  8
_0-8_
 62
    4
 10
907.11142867363958
 20
953.22699735486549
  0
POINT
  8
_0-8_
 62
    4
 10
907.11142867363958
 20
863.97699735486549
  0
LINE
  8
_0-8_
  6
CONTINUOUS
 62
    4
 10
907.11142867363958
 20
953.22699735486549
 11
885.9870987329798
 21
953.22699735486549
  0
LINE
  8
_0-8_
  6
CONTINUOUS
 62
    4
 10
907.11142867363958
 20
863.97699735486549
 11
885.9870987329798
 21
863.97699735486549
  0
TEXT
  8
_0-8_
 62
    7
 10
904.61142867363958
 20
881.73149729124771
 40
12.5
 41
1
 50
90
  1
89.25
  0
LINE
  8
_0-8_
  6
CONTINUOUS
 62
    4
 10
670.10675129062633
 20
917.72699735486549
 11
670.10675129062633
 21
810.22699735486549
  0
POINT
  8
_0-8_
 62
    4
 10
670.10675129062633
 20
917.72699735486549
  0
POINT
  8
_0-8_
 62
    4
 10
670.10675129062633
 20
810.22699735486549
  0
LINE
  8
_0-8_
  6
CONTINUOUS
 62
    4
 10
670.10675129062633
 20
917.72699735486549
 11
685.5635780764751
 21
917.72699735486549
  0
LINE
  8
_0-8_
  6
CONTINUOUS
 62
    4
 10
670.10675129062633
 20
810.22699735486549
 11
685.5635780764751
 21
810.22699735486549
  0
TEXT
  8
_0-8_
 62
    7
 10
667.60675129062633
 20
848.35199735486549
 40
12.5
 41
1
 50
90
  1
107.5
  0
LINE
  8
_0-8_
  6
CONTINUOUS
 62
    4
 10
692.82562060762586
 20
768.89666175455216
 11
982.82562060762586
 21
768.89666175455216
  0
POINT
  8
_0-8_
 62
    4
 10
692.82562060762586
 20
768.89666175455216
  0
POINT
  8
_0-8_
 62
    4
 10
982.82562060762586
 20
768.89666175455216
  0
LINE
  8
_0-8_
  6
CONTINUOUS
 62
    4
 10
692.82562060762586
 20
768.89666175455216
 11
692.82562060762586
 21
790.02099169521216
  0
LINE
  8
_0-8_
  6
CONTINUOUS
 62
    4
 10
982.82562060762586
 20
768.89666175455216
 11
982.82562060762586
 21
790.02099169521216
  0
TEXT
  8
_0-8_
 62
    7
 10
828.45062060762586
 20
771.39666175455216
 40
12.5
 41
1
 50
0
  1
290
  0
LINE
  8
_0-8_
  6
CONTINUOUS
 62
    4
 10
1342.2738351703556
 20
953.22699735486549
 11
1342.2738351703556
 21
905.22699735486549
  0
POINT
  8
_0-8_
 62
    4
 10
1342.2738351703556
 20
953.22699735486549
  0
LINE
  8
_0-8_
  6
CONTINUOUS
 62
    4
 10
1342.2738351703556
 20
953.22699735486549
 11
1357.9435715699383
 21
953.22699735486549
  0
TEXT
  8
_0-8_
 62
    7
 10
1339.7738351703556
 20
922.9769973548656
 40
12.5
 41
1
 50
90
  1
48
  0
LINE
  8
_0-8_
  6
CONTINUOUS
 62
    4
 10
1499.8256206076258
 20
822.70676242840841
 11
1441.825620607626
 21
822.70676242840841
  0
POINT
  8
_0-8_
 62
    4
 10
1499.8256206076258
 20
822.70676242840841
  0
LINE
  8
_0-8_
  6
CONTINUOUS
 62
    4
 10
1499.8256206076258
 20
822.70676242840841
 11
1499.8256206076258
 21
841.20575678902696
  0
TEXT
  8
_0-8_
 62
    7
 10
1464.575620607626
 20
825.20676242840841
 40
12.5
 41
1
 50
0
  1
58
  0
TEXT
  8
_0-0_
 62
    7
 10
1796.3077718166503
 20
147.94696958386987
 40
20
 41
1.0069231051665091
 50
0
  1
Fabool Laser CO2
  0
TEXT
  8
_0-0_
 62
    7
 10
1932.9296204869866
 20
199.92701731050104
 40
18.999999761581421
 41
1.178947400782578
 50
0
  1
1
  0
TEXT
  8
_0-0_
 62
    7
 10
1236.3303718159661
 20
42.025086802864848
 40
15
 41
1.103030262571393
 50
0
  1
smartDIYs Co.,Ltd.
  0
TEXT
  8
_0-0_
 62
    7
 10
1979.8270588661653
 20
238.92246027413171
 40
15
 41
1.103030262571393
 50
0
  1
Thickness
  0
TEXT
  8
_0-0_
 62
    7
 10
2016.4770786379042
 20
201.94226014408898
 40
15
 41
1.103030262571393
 50
0
  1
1.2mm
  0
TEXT
  8
_0-0_
 62
    7
 10
1104.7519639220252
 20
199.50907659386507
 40
18.999999761581421
 41
1.0717703643477983
 50
0
  1
FLC_cover bottom_back
  0
LINE
  8
_0-1_
  6
DASHED1
 62
    4
 10
1396.4941573573628
 20
871.22699735486549
 11
1402.91948776493
 21
871.22699735486549
  0
LINE
  8
_0-1_
  6
DASHED1
 62
    4
 10
1399.8256206076258
 20
874.81426846689578
 11
1399.8256206076258
 21
867.69355598058746
  0
LINE
  8
_0-1_
  6
DASHED1
 62
    4
 10
1396.4941573573628
 20
833.22699735486549
 11
1402.91948776493
 21
833.22699735486549
  0
LINE
  8
_0-1_
  6
DASHED1
 62
    4
 10
1399.8256206076258
 20
837.76431131157335
 11
1399.8256206076258
 21
829.73013979567077
  0
LINE
  8
_0-1_
  6
DASHED1
 62
    4
 10
1323.5624849390033
 20
871.22699735486549
 11
1330.4606751601141
 21
871.22699735486549
  0
LINE
  8
_0-1_
  6
DASHED1
 62
    4
 10
1326.825620607626
 20
875.03679073209287
 11
1326.825620607626
 21
867.35977258279172
  0
LINE
  8
_0-1_
  6
DASHED1
 62
    4
 10
1326.825620607626
 20
836.65169998558781
 11
1326.825620607626
 21
829.73013979567077
  0
LINE
  8
_0-1_
  6
DASHED1
 62
    4
 10
1323.5624849390033
 20
833.22699735486549
 11
1330.3494140275156
 21
833.22699735486549
  0
CIRCLE
  8
_0-2_
  6
CONTINUOUS
 62
    7
 10
1326.825620607626
 20
871.22699735486549
 40
1.5
  0
CIRCLE
  8
_0-2_
  6
CONTINUOUS
 62
    7
 10
1399.8256206076258
 20
871.22699735486549
 40
1.5
  0
CIRCLE
  8
_0-2_
  6
CONTINUOUS
 62
    7
 10
1399.8256206076258
 20
833.22699735486549
 40
1.5
  0
CIRCLE
  8
_0-2_
  6
CONTINUOUS
 62
    7
 10
1326.825620607626
 20
833.22699735486549
 40
1.5
  0
CIRCLE
  8
_0-2_
  6
CONTINUOUS
 62
    4
 10
1326.825620607626
 20
871.22699735486549
 40
2
  0
CIRCLE
  8
_0-2_
  6
CONTINUOUS
 62
    4
 10
1399.8256206076258
 20
871.22699735486549
 40
2
  0
CIRCLE
  8
_0-2_
  6
CONTINUOUS
 62
    4
 10
1399.8256206076258
 20
833.22699735486549
 40
2
  0
CIRCLE
  8
_0-2_
  6
CONTINUOUS
 62
    4
 10
1326.825620607626
 20
833.22699735486549
 40
2
  0
LINE
  8
_0-8_
  6
CONTINUOUS
 62
    4
 10
1324.7606794127901
 20
831.04058184601854
 11
1311.7702983560234
 21
823.54058184601854
  0
LINE
  8
_0-8_
  6
CONTINUOUS
 62
    4
 10
1324.7606794127901
 20
831.04058184601854
 11
1260.3654739327212
 21
766.64537636594969
  0
LINE
  8
_0-8_
  6
CONTINUOUS
 62
    4
 10
1324.7606794127901
 20
831.04058184601854
 11
1317.2606794127901
 21
818.0502007892519
  0
TEXT
  8
_0-8_
 62
    7
 10
1143.8906432326426
 20
768.53905652495143
 40
15
 41
1.103030262571393
 50
0
  1
4Å~M4 Burring
  0
LINE
  8
_0-8_
  6
CONTINUOUS
 62
    4
 10
1140.5493169281701
 20
766.64537636594969
 11
1260.3654739327212
 21
766.64537636594969
  0
LINE
  8
_0-8_
  6
CONTINUOUS
 62
    4
 10
1326.825620607626
 20
788.7067624284083
 11
1326.825620607626
 21
807.20575678902696
  0
POINT
  8
_0-8_
 62
    4
 10
1326.825620607626
 20
788.7067624284083
  0
LINE
  8
_0-8_
  6
CONTINUOUS
 62
    4
 10
1399.8256206076258
 20
788.7067624284083
 11
1326.825620607626
 21
788.7067624284083
  0
POINT
  8
_0-8_
 62
    4
 10
1399.8256206076258
 20
788.7067624284083
  0
LINE
  8
_0-8_
  6
CONTINUOUS
 62
    4
 10
1399.8256206076258
 20
788.7067624284083
 11
1399.8256206076258
 21
807.20575678902696
  0
TEXT
  8
_0-8_
 62
    7
 10
1357.075620607626
 20
791.2067624284083
 40
12.5
 41
1
 50
0
  1
73
  0
LINE
  8
_0-8_
  6
CONTINUOUS
 62
    4
 10
1300.2738351703554
 20
833.22699735486549
 11
1315.9435715699383
 21
833.22699735486549
  0
POINT
  8
_0-8_
 62
    4
 10
1300.2738351703554
 20
833.22699735486549
  0
LINE
  8
_0-8_
  6
CONTINUOUS
 62
    4
 10
1300.2738351703554
 20
871.22699735486549
 11
1300.2738351703554
 21
833.22699735486549
  0
TEXT
  8
_0-8_
 62
    7
 10
1297.7738351703554
 20
845.9769973548656
 40
12.5
 41
1
 50
90
  1
38
  0
LINE
  8
_0-8_
  6
CONTINUOUS
 62
    4
 10
1300.2738351703554
 20
871.22699735486549
 11
1315.9435715699383
 21
871.22699735486549
  0
POINT
  8
_0-8_
 62
    4
 10
1300.2738351703554
 20
871.22699735486549
  0
LINE
  8
_0-8_
  6
CONTINUOUS
 62
    4
 10
1499.8256206076258
 20
788.7067624284083
 11
1399.8256206076258
 21
788.7067624284083
  0
POINT
  8
_0-8_
 62
    4
 10
1499.8256206076258
 20
788.7067624284083
  0
POINT
  8
_0-8_
 62
    4
 10
1399.8256206076258
 20
788.7067624284083
  0
LINE
  8
_0-8_
  6
CONTINUOUS
 62
    4
 10
1499.8256206076258
 20
788.7067624284083
 11
1499.8256206076258
 21
807.20575678902696
  0
LINE
  8
_0-8_
  6
CONTINUOUS
 62
    4
 10
1399.8256206076258
 20
788.7067624284083
 11
1399.8256206076258
 21
807.20575678902696
  0
TEXT
  8
_0-8_
 62
    7
 10
1440.4506206076258
 20
791.2067624284083
 40
12.5
 41
1
 50
0
  1
100
  0
LINE
  8
_0-8_
  6
CONTINUOUS
 62
    4
 10
1300.2738351703554
 20
953.22699735486549
 11
1300.2738351703554
 21
871.22699735486549
  0
POINT
  8
_0-8_
 62
    4
 10
1300.2738351703554
 20
953.22699735486549
  0
POINT
  8
_0-8_
 62
    4
 10
1300.2738351703554
 20
871.22699735486549
  0
LINE
  8
_0-8_
  6
CONTINUOUS
 62
    4
 10
1300.2738351703554
 20
953.22699735486549
 11
1315.9435715699383
 21
953.22699735486549
  0
LINE
  8
_0-8_
  6
CONTINUOUS
 62
    4
 10
1300.2738351703554
 20
871.22699735486549
 11
1315.9435715699383
 21
871.22699735486549
  0
TEXT
  8
_0-8_
 62
    7
 10
1297.7738351703554
 20
905.9769973548656
 40
12.5
 41
1
 50
90
  1
82
  0
LINE
  8
_0-1_
  6
DASHED1
 62
    4
 10
849.97562060762573
 20
923.69771636419046
 11
849.97562060762573
 21
967.54858706766026
  0
LINE
  8
_0-1_
  6
DASHED1
 62
    4
 10
849.82562060762586
 20
777.60778148645443
 11
849.82562060762586
 21
733.14663050503395
  0
LINE
  8
_0-1_
  6
DASHED1
 62
    4
 10
838.74825981056028
 20
755.22699735486549
 11
861.917760937867
 21
755.22699735486549
  0
CIRCLE
  8
_0-2_
  6
CONTINUOUS
 62
    7
 10
849.82562060762586
 20
755.22699735486549
 40
3
  0
LINE
  8
_0-8_
  6
CONTINUOUS
 62
    4
 10
603.82562060762586
 20
718.46537201757315
 11
849.82562060762586
 21
718.46537201757315
  0
POINT
  8
_0-8_
 62
    4
 10
603.82562060762586
 20
718.46537201757315
  0
POINT
  8
_0-8_
 62
    4
 10
849.82562060762586
 20
718.46537201757315
  0
LINE
  8
_0-8_
  6
CONTINUOUS
 62
    4
 10
603.82562060762586
 20
718.46537201757315
 11
603.82562060762586
 21
737.19883788075208
  0
LINE
  8
_0-8_
  6
CONTINUOUS
 62
    4
 10
849.82562060762586
 20
718.46537201757315
 11
849.82562060762586
 21
737.19883788075208
  0
TEXT
  8
_0-8_
 62
    7
 10
717.45062060762598
 20
720.96537201757315
 40
12.5
 41
1
 50
0
  1
246
  0
LINE
  8
_0-8_
  6
CONTINUOUS
 62
    4
 10
559.29016219451717
 20
953.22699735486549
 11
559.29016219451717
 21
755.22699735486549
  0
POINT
  8
_0-8_
 62
    4
 10
559.29016219451717
 20
953.22699735486549
  0
POINT
  8
_0-8_
 62
    4
 10
559.29016219451717
 20
755.22699735486549
  0
LINE
  8
_0-8_
  6
CONTINUOUS
 62
    4
 10
559.29016219451717
 20
953.22699735486549
 11
595.81374178786177
 21
953.22699735486549
  0
TEXT
  8
_0-8_
 62
    7
 10
556.79016219451717
 20
844.8519973548656
 40
12.5
 41
1
 50
90
  1
198
  0
LINE
  8
_0-8_
  6
CONTINUOUS
 62
    4
 10
559.29016219451717
 20
755.22699735486549
 11
595.81374178786177
 21
755.22699735486549
  0
LINE
  8
_0-8_
  6
CONTINUOUS
 62
    4
 10
614.75189416959608
 20
755.22699735486549
 11
824.42429553879663
 21
755.22699735486549
  0
TEXT
  8
_0-0_
 62
    7
 10
1114.235275406224
 20
141.62697739923075
 40
16.000000238418579
 41
0.965801836975482
 50
0
  1
13/Oct/2016
  0
TEXT
  8
_0-0_
 62
    7
 10
1693.3724385884702
 20
38.826996878028694
 40
24.000000953674316
 41
0.9871794479524999
 50
0
  1
FLC_cover bottom_back_2016.10.13
  0
LINE
  8
_0-8_
  6
CONTINUOUS
 62
    4
 10
1517.9179319631373
 20
603.91125574525881
 11
1616.2093393921546
 21
603.91125574525881
  0
LINE
  8
_0-8_
  6
CONTINUOUS
 62
    4
 10
853.50966970342699
 20
752.99659021186915
 11
898.11437510616531
 21
704.55174460889509
  0
LINE
  8
_0-8_
  6
CONTINUOUS
 62
    4
 10
853.50966970342699
 20
752.99659021186915
 11
866.17974170902824
 21
744.96731406934668
  0
LINE
  8
_0-8_
  6
CONTINUOUS
 62
    4
 10
853.50966970342699
 20
752.99659021186915
 11
860.46763585679457
 21
739.7079970956438
  0
TEXT
  8
_0-8_
 62
    7
 10
900.1888901411287
 20
706.6262596438587
 40
15
 41
1.103030262571393
 50
0
  1
É”6
  0
LINE
  8
_0-8_
  6
CONTINUOUS
 62
    4
 10
898.11437510616531
 20
704.55174460889509
 11
931.59813556117399
 21
704.55174460889509
  0
ENDSEC
  0
EOF
