  0
SECTION
  2
HEADER
  9
$ACADVER
  1
AC1009
  9
$INSBASE
 10
0
 20
0
 30
0
  9
$EXTMIN
 10
0
 20
0
  9
$EXTMAX
 10
2100
 20
1485
  9
$LIMMIN
 10
0
 20
0
  9
$LIMMAX
 10
2100
 20
1485
  9
$LTSCALE
 40
5
  0
ENDSEC
  0
SECTION
  2
TABLES
  0
TABLE
  2
LTYPE
 70
     9
  0
LTYPE
  2
CONTINUOUS
 70
    64
  3
é¿ê¸
 72
    65
 73
     0
 40
0.0
  0
LTYPE
  2
DASHED1
 70
    64
  3
--  --  --  --  --  --  --  --  
 72
    65
 73
     2
 40
2.5
 49
1.25
 49
-1.25
  0
LTYPE
  2
DASHED2
 70
    64
  3
----    ----    ----    ----    
 72
    65
 73
     2
 40
5.0
 49
2.5
 49
-2.5
  0
LTYPE
  2
DASHED3
 70
    64
  3
------  ------  ------  ------  
 72
    65
 73
     2
 40
5.0
 49
3.75
 49
-1.25
  0
LTYPE
  2
CENTER1
 70
    64
  3
----- - ----- - ----- - ----- - 
 72
    65
 73
     4
 40
10.0
 49
6.25
 49
-1.25
 49
1.25
 49
-1.25
  0
LTYPE
  2
CENTER2
 70
    64
  3
----------  --  ----------  --  
 72
    65
 73
     4
 40
20.0
 49
12.5
 49
-2.5
 49
2.5
 49
-2.5
  0
LTYPE
  2
PHANTOM1
 70
    64
  3
--- - - --- - - --- - - --- - - 
 72
    65
 73
     6
 40
10.0
 49
3.25
 49
-1.25
 49
1.25
 49
-1.25
 49
1.25
 49
-1.25
  0
LTYPE
  2
PHANTOM2
 70
    64
  3
--------  -  -  --------  -  -  
 72
    65
 73
     6
 40
20.0
 49
10.0
 49
-2.5
 49
1.25
 49
-2.5
 49
1.25
 49
-2.5
  0
LTYPE
  2
DOT
 70
    64
  3
-   -   -   -   -   -   -   -   
 72
    65
 73
     2
 40
2.5
 49
0.625
 49
-1.875
  0
LTYPE
  2
DUMMY
 70
    64
  3
É_É~Å[
 72
    65
 73
     0
 40
0.0
  0
LTYPE
  2
RAND1
 70
    64
  3
ÉâÉìÉ_ÉÄê¸1
 72
    65
 73
     4
 40
10.0
 49
1.0
 49
-2.0
 49
3.0
 49
-4.0
  0
LTYPE
  2
RAND2
 70
    64
  3
ÉâÉìÉ_ÉÄê¸2
 72
    65
 73
     4
 40
14.0
 49
2.0
 49
-3.0
 49
4.0
 49
-5.0
  0
LTYPE
  2
RAND3
 70
    64
  3
ÉâÉìÉ_ÉÄê¸3
 72
    65
 73
     4
 40
18.0
 49
3.0
 49
-4.0
 49
5.0
 49
-6.0
  0
LTYPE
  2
RAND4
 70
    64
  3
ÉâÉìÉ_ÉÄê¸4
 72
    65
 73
     4
 40
22.0
 49
4.0
 49
-5.0
 49
6.0
 49
-7.0
  0
LTYPE
  2
RAND5
 70
    64
  3
ÉâÉìÉ_ÉÄê¸5
 72
    65
 73
     4
 40
26.0
 49
5.0
 49
-6.0
 49
7.0
 49
-8.0
  0
LTYPE
  2
LONG1
 70
    64
  3
----------  --  ----------  --  
 72
    65
 73
     4
 40
40.0
 49
32.5
 49
-2.5
 49
2.5
 49
-2.5
  0
LTYPE
  2
LONG2
 70
    64
  3
--------  -  -  --------  -  -  
 72
    65
 73
     6
 40
40.0
 49
30.0
 49
-2.5
 49
1.25
 49
-2.5
 49
1.25
 49
-2.5
  0
LTYPE
  2
LONG3
 70
    64
  3
+++++++++++++++..+++++++++++++++
 72
    65
 73
     2
 40
40.0
 49
37.5
 49
-2.5
  0
LTYPE
  2
LONG4
 70
    64
  3
+++++++++++++++..+++++++++++++++
 72
    65
 73
     2
 40
80.0
 49
75.0
 49
-5.0
  0
LTYPE
  2
LONG5
 70
    64
  3
----------  --  ----------  --  
 72
    65
 73
     4
 40
60.0
 49
37.5
 49
-7.5
 49
7.5
 49
-7.5
  0
LTYPE
  2
dashed
 70
   64
  3
-------   -------------   ------
 72
   65
 73
    2
 40
7.5
 49
6
 49
-1.5
  0
LTYPE
  2
dashed_spaced
 70
   64
  3
----        --------        ----
 72
   65
 73
    2
 40
12
 49
6
 49
-6
  0
LTYPE
  2
long_dashed_dotted
 70
   64
  3
------------- --- --------------
 72
   65
 73
    4
 40
15.25
 49
12
 49
-1.5
 49
0.25
 49
-1.5
  0
LTYPE
  2
long_dashed_double-dotted
 70
   64
  3
----------- --- --- ------------
 72
   65
 73
    6
 40
17
 49
12
 49
-1.5
 49
0.25
 49
-1.5
 49
0.25
 49
-1.5
  0
LTYPE
  2
long_dashed_triplicate-dotted
 70
   64
  3
--------- --- --- --- ----------
 72
   65
 73
    8
 40
18.75
 49
12
 49
-1.5
 49
0.25
 49
-1.5
 49
0.25
 49
-1.5
 49
0.25
 49
-1.5
  0
LTYPE
  2
dotted
 70
   64
  3
   -       -       -       -    
 72
   65
 73
    2
 40
1.75
 49
0.25
 49
-1.5
  0
LTYPE
  2
chain
 70
   64
  3
-------------- -- --------------
 72
   65
 73
    4
 40
18.5
 49
12
 49
-1.5
 49
3.5
 49
-1.5
  0
LTYPE
  2
chain_double_dash
 70
   64
  3
------------ -- -- -------------
 72
   65
 73
    6
 40
23.5
 49
12
 49
-1.5
 49
3.5
 49
-1.5
 49
3.5
 49
-1.5
  0
LTYPE
  2
dashed_dotted
 70
   64
  3
-----------     -     ----------
 72
   65
 73
    4
 40
9.25
 49
6
 49
-1.5
 49
0.25
 49
-1.5
  0
LTYPE
  2
double-dashed_dotted
 70
   64
  3
------   -----------   -   -----
 72
   65
 73
    6
 40
16.75
 49
6
 49
-1.5
 49
6
 49
-1.5
 49
0.25
 49
-1.5
  0
LTYPE
  2
dashed_double-dotted
 70
   64
  3
---------    -    -    ---------
 72
   65
 73
    6
 40
11
 49
6
 49
-1.5
 49
0.25
 49
-1.5
 49
0.25
 49
-1.5
  0
LTYPE
  2
double-dashed_double-dotted
 70
   64
  3
-----   ---------   -   -   ----
 72
   65
 73
    8
 40
18.5
 49
6
 49
-1.5
 49
6
 49
-1.5
 49
0.25
 49
-1.5
 49
0.25
 49
-1.5
  0
LTYPE
  2
dashed_triplicate-dotted
 70
   64
  3
-------    -    -    -    ------
 72
   65
 73
    8
 40
12.75
 49
6
 49
-1.5
 49
0.25
 49
-1.5
 49
0.25
 49
-1.5
 49
0.25
 49
-1.5
  0
LTYPE
  2
double-dashed_triplicate-dotted
 70
   64
  3
-----  ---------  -  -  -  -----
 72
   65
 73
   10
 40
20.25
 49
6
 49
-1.5
 49
6
 49
-1.5
 49
0.25
 49
-1.5
 49
0.25
 49
-1.5
 49
0.25
 49
-1.5
  0
LTYPE
  2
undefined
 70
   64
  3
--------------------------------
 72
   65
 73
    0
 40
0
  0
LTYPE
  2
_
 70
   64
  3
                                
 72
   65
 73
    0
 40
0
  0
LTYPE
  2
__18
 70
   64
  3
                                
 72
   65
 73
    0
 40
0
  0
LTYPE
  2
__19
 70
   64
  3
                                
 72
   65
 73
    0
 40
0
  0
LTYPE
  2
__20
 70
   64
  3
                                
 72
   65
 73
    0
 40
0
  0
LTYPE
  2
__21
 70
   64
  3
                                
 72
   65
 73
    0
 40
0
  0
LTYPE
  2
__22
 70
   64
  3
                                
 72
   65
 73
    0
 40
0
  0
LTYPE
  2
__23
 70
   64
  3
                                
 72
   65
 73
    0
 40
0
  0
LTYPE
  2
__24
 70
   64
  3
                                
 72
   65
 73
    0
 40
0
  0
LTYPE
  2
__25
 70
   64
  3
                                
 72
   65
 73
    0
 40
0
  0
LTYPE
  2
__26
 70
   64
  3
                                
 72
   65
 73
    0
 40
0
  0
LTYPE
  2
__27
 70
   64
  3
                                
 72
   65
 73
    0
 40
0
  0
LTYPE
  2
__28
 70
   64
  3
                                
 72
   65
 73
    0
 40
0
  0
LTYPE
  2
__29
 70
   64
  3
                                
 72
   65
 73
    0
 40
0
  0
LTYPE
  2
__30
 70
   64
  3
                                
 72
   65
 73
    0
 40
0
  0
LTYPE
  2
__31
 70
   64
  3
                                
 72
   65
 73
    0
 40
0
  0
LTYPE
  2
__32
 70
   64
  3
                                
 72
   65
 73
    0
 40
0
  0
ENDTAB
  0
TABLE
  2
STYLE
  5
3
100
AcDbSymbolTable
 70
     1
  0
STYLE
  5
10
100
AcDbSymbolTableRecord
100
AcDbTextStyleTableRecord
  2
STANDARD
 70
     0
 40
0.0
 41
1.0
 50
0.0
 71
     0
 42
0.2
  3
txt
  4
bigfont.shx
  0
STYLE
  5
26
100
AcDbSymbolTableRecord
100
AcDbTextStyleTableRecord
  2
TATEGAKI
 70
    68
 40
0.0
 41
1.0
 50
0.0
 71
     0
 42
1.0
  3
txt
  4
bigfont.shx
  0
ENDTAB
  0
TABLE
  2
LAYER
 70
    5
  0
LAYER
  2
_0-0_
 70
   64
 62
    7
  6
CONTINUOUS
  0
LAYER
  2
_0-1_
 70
   64
 62
    7
  6
CONTINUOUS
  0
LAYER
  2
_0-2_
 70
   64
 62
    7
  6
CONTINUOUS
  0
LAYER
  2
_0-8_
 70
   64
 62
    7
  6
CONTINUOUS
  0
LAYER
  2
ADD_LINE
 70
   64
 62
    7
  6
CONTINUOUS
  0
ENDTAB
  0
ENDSEC
  0
SECTION
  2
BLOCKS
  0
ENDSEC
  0
SECTION
  2
ENTITIES
  0
LINE
  8
_0-8_
  6
CONTINUOUS
 62
    4
 10
859.17147157984289
 20
940.72699735486549
 11
891.59680971495493
 21
940.72699735486549
  0
POINT
  8
_0-8_
 62
    4
 10
859.17147157984289
 20
940.72699735486549
  0
LINE
  8
_0-1_
  6
CENTER1
 62
    4
 10
903.82562060762575
 20
948.81081971575793
 11
903.82562060762575
 21
848.06491434719987
  0
LINE
  8
_0-1_
  6
CENTER1
 62
    4
 10
896.72403396574873
 20
940.72699735486549
 11
911.07986066595015
 21
940.72699735486549
  0
LINE
  8
_0-1_
  6
CENTER1
 62
    4
 10
896.72403396574873
 20
880.72699735486549
 11
911.07986066595015
 21
880.72699735486549
  0
ARC
  8
_0-2_
  6
CONTINUOUS
 62
    7
 10
903.82562060762575
 20
940.72699735486549
 40
2
 50
0
 51
180
  0
ARC
  8
_0-2_
  6
CONTINUOUS
 62
    7
 10
903.82562060762575
 20
880.72699735486549
 40
2
 50
180
 51
0
  0
LINE
  8
_0-2_
  6
CONTINUOUS
 62
    7
 10
901.82562060762598
 20
940.72699735486549
 11
901.82562060762598
 21
880.72699735486549
  0
LINE
  8
_0-2_
  6
CONTINUOUS
 62
    7
 10
905.82562060762586
 20
940.72699735486549
 11
905.82562060762586
 21
880.72699735486549
  0
LINE
  8
_0-0_
  6
CONTINUOUS
 62
    4
 10
1397.6256206076264
 20
134.02699735486584
 11
1098.6256206076257
 21
134.02699735486584
  0
LINE
  8
_0-0_
  6
CONTINUOUS
 62
    4
 10
2091.8256206076258
 20
89.826997354865625
 11
1493.8256206076262
 21
89.826997354865625
  0
LINE
  8
_0-0_
  6
CONTINUOUS
 62
    4
 10
1683.6256206076259
 20
141.82699735486557
 11
2076.2256206076263
 21
141.82699735486557
  0
LINE
  8
_0-0_
  6
CONTINUOUS
 62
    4
 10
1668.025620607626
 20
32.626997354865352
 11
1668.0256206076263
 21
193.82699735486563
  0
LINE
  8
_0-0_
  6
CONTINUOUS
 62
    4
 10
1098.6256206076257
 20
256.22699735486583
 11
2091.8256206076258
 21
256.22699735486583
  0
LINE
  8
_0-0_
  6
CONTINUOUS
 62
    4
 10
1098.6256206076257
 20
193.82699735486563
 11
2091.8256206076267
 21
193.82699735486545
  0
LINE
  8
_0-0_
  6
CONTINUOUS
 62
    4
 10
1322.2256206076258
 20
256.22699735486583
 11
1322.2256206076258
 21
193.82699735486591
  0
TEXT
  8
_0-0_
 62
    7
 10
1591.2534617989184
 20
198.88699350678996
 40
18.999999761581421
 41
1.178947400782578
 50
0
  1
Å|
  0
LINE
  8
_0-0_
  6
CONTINUOUS
 62
    4
 10
1493.8256206076262
 20
256.22699735486555
 11
1493.8256206076262
 21
32.6269973548645
  0
LINE
  8
_0-0_
  6
CONTINUOUS
 62
    4
 10
1972.2256206076258
 20
256.22699735486583
 11
1972.2256206076258
 21
193.82699735486591
  0
LINE
  8
_0-0_
  6
CONTINUOUS
 62
    4
 10
1852.6256206076273
 20
193.82699735486563
 11
1852.6256206076273
 21
256.22699735486583
  0
LINE
  8
_0-0_
  6
CONTINUOUS
 62
    4
 10
1647.2256206076263
 20
193.82699735486563
 11
1647.2256206076258
 21
256.22699735486583
  0
LINE
  8
_0-0_
  6
CONTINUOUS
 62
    4
 10
1561.2965564415172
 20
42.63804347354295
 11
1590.4165564415166
 21
37.646043473542932
  0
LINE
  8
_0-0_
  6
CONTINUOUS
 62
    4
 10
1590.4165564415166
 20
60.110043473542589
 11
1590.4165564415166
 21
37.646043473542932
  0
LINE
  8
_0-0_
  6
CONTINUOUS
 62
    4
 10
1561.2965564415172
 20
55.118043473542855
 11
1590.4165564415166
 21
60.110043473542589
  0
LINE
  8
_0-0_
  6
CONTINUOUS
 62
    4
 10
1561.2965564415172
 20
55.118043473542855
 11
1561.2965564415172
 21
42.63804347354295
  0
CIRCLE
  8
_0-0_
  6
CONTINUOUS
 62
    4
 10
1544.6565564415164
 20
48.878043473542903
 40
6.2400000000000002
  0
CIRCLE
  8
_0-0_
  6
CONTINUOUS
 62
    4
 10
1544.6565564415164
 20
48.878043473542903
 40
11.440000000000003
  0
LINE
  8
_0-0_
  6
_
 62
    7
 10
1594.868990179702
 20
48.878043473542903
 11
1530.4894414143221
 21
48.878043473542903
  0
LINE
  8
_0-0_
  6
_
 62
    7
 10
1544.6565564415164
 20
36.050617842216184
 11
1544.6565564415164
 21
62.642036573345479
  0
LINE
  8
_0-0_
  6
CONTINUOUS
 62
    4
 10
1657.6256206076259
 20
141.82699735486557
 11
1504.2256206076258
 21
141.82699735486557
  0
LINE
  8
_0-0_
  6
CONTINUOUS
 62
    4
 10
1397.6256206076257
 20
32.626997354865352
 11
1397.6256206076268
 21
193.82699735486563
  0
LINE
  8
_0-0_
  6
CONTINUOUS
 62
    4
 10
1493.8256206076262
 20
102.82699735486567
 11
1397.6256206076264
 21
102.82699735486567
  0
LINE
  8
_0-0_
  6
CONTINUOUS
 62
    4
 10
1397.6256206076264
 20
102.82699735486567
 11
1098.6256206076257
 21
102.82699735486581
  0
TEXT
  8
_0-0_
 62
    7
 10
1626.8193473032943
 20
39.87804396474445
 40
17.999999523162838
 41
1.060606088702527
 50
0
  1
Ç`ÇR
  0
LINE
  8
_0-0_
  6
CONTINUOUS
 62
    4
 10
1098.6256206076257
 20
256.22699735486583
 11
1098.6256206076257
 21
32.626997354865352
  0
TEXT
  8
_0-0_
 62
    7
 10
1932.9296204869866
 20
199.92701731050096
 40
18.999999761581421
 41
1.178947400782578
 50
0
  1
1
  0
TEXT
  8
_0-0_
 62
    7
 10
1328.7597382782469
 20
237.281614545227
 40
16.000000238418579
 41
1.0422794146408489
 50
0
  1
Material
  0
TEXT
  8
_0-0_
 62
    7
 10
1104.6594441517639
 20
237.281614545227
 40
16.000000238418579
 41
1.0422794146408489
 50
0
  1
Model
  0
LINE
  8
_0-0_
  6
CONTINUOUS
 62
    3
 10
2091.8256206076262
 20
32.626997354865352
 11
2091.8256206076267
 21
1467.8269973548661
  0
LINE
  8
_0-0_
  6
CONTINUOUS
 62
    3
 10
11.825620607625353
 20
32.626997354865921
 11
2091.8256206076262
 21
32.626997354865352
  0
LINE
  8
_0-0_
  6
CONTINUOUS
 62
    3
 10
11.825620607625353
 20
1467.8269973548665
 11
11.825620607625353
 21
32.626997354865921
  0
LINE
  8
_0-0_
  6
CONTINUOUS
 62
    3
 10
2091.8256206076267
 20
1467.8269973548661
 11
11.825620607625353
 21
1467.8269973548665
  0
TEXT
  8
_0-0_
 62
    7
 10
1375.5245918667019
 20
198.88695383393843
 40
18.999999761581421
 41
1.025171652854415
 50
0
  1
SPCC
  0
TEXT
  8
_0-0_
 62
    7
 10
1498.5847115318895
 20
122.90700517022678
 40
16.000000238418579
 41
1.0738636393269361
 50
0
  1
Grade
  0
TEXT
  8
_0-0_
 62
    7
 10
1549.1006294817305
 20
97.590806439758069
 40
16.000000238418579
 41
1.018318968327266
 50
0
  1
ÇçÅiMediumÅj
  0
TEXT
  8
_0-0_
 62
    7
 10
1674.609398899217
 20
68.677087620139901
 40
17.999999523162838
 41
1.029411791975982
 50
0
  1
Drawing number
  0
TEXT
  8
_0-0_
 62
    7
 10
1499.5959355991008
 20
72.467001202942072
 40
16.000000238418579
 41
1.0422794146408489
 50
0
  1
Projection method
  0
TEXT
  8
_0-0_
 62
    7
 10
1401.136648229849
 20
84.998464825988549
 40
16.000000238418579
 41
1.0738636393269361
 50
0
  1
Unit
  0
TEXT
  8
_0-0_
 62
    7
 10
1430.5074387894444
 20
47.006486729026733
 40
17.999999523162838
 41
1.060606088702527
 50
0
  1
mm
  0
TEXT
  8
_0-0_
 62
    7
 10
1401.0847115318893
 20
174.90700517022697
 40
16.000000238418579
 41
1.0738636393269361
 50
0
  1
Scale
  0
TEXT
  8
_0-0_
 62
    7
 10
1254.3262088605916
 20
174.90700517022697
 40
16.000000238418579
 41
1.0422794146408489
 50
0
  1
Finish
  0
TEXT
  8
_0-0_
 62
    7
 10
1104.4773447570672
 20
174.90700517022697
 40
16.000000238418579
 41
1.018318968327266
 50
0
  1
Date
  0
TEXT
  8
_0-0_
 62
    7
 10
1223.932925945971
 20
110.93447414048789
 40
15
 41
1.103030262571393
 50
0
  1
Author
  0
TEXT
  8
_0-0_
 62
    7
 10
1246.1735793558883
 20
42.025086802864848
 40
15
 41
1.103030262571393
 50
0
  1
ASsystem Co.,Ltd
  0
LINE
  8
_0-0_
  6
CONTINUOUS
 62
    4
 10
1248.1256206076257
 20
193.82699735486563
 11
1248.1256206076257
 21
134.02699735486584
  0
TEXT
  8
_0-0_
 62
    7
 10
1544.2975423638472
 20
146.82699723565656
 40
16.000000238418579
 41
1.001059324796296
 50
0
  1
JIS B 0405
  0
TEXT
  8
_0-0_
 62
    7
 10
1500.7745829256241
 20
174.90700517022697
 40
16.000000238418579
 41
1.002948115975157
 50
0
  1
Machining tolerance
  0
TEXT
  8
_0-0_
 62
    7
 10
1501.3603265312117
 20
237.281614545227
 40
16.000000238418579
 41
1.0422794146408489
 50
0
  1
Heat treatment
  0
TEXT
  8
_0-0_
 62
    7
 10
1654.3509455472717
 20
237.281614545227
 40
16.000000238418579
 41
1.027173915877938
 50
0
  1
Surface
  0
TEXT
  8
_0-0_
 62
    7
 10
1654.1154696396661
 20
200.18989850640344
 40
18.999999761581421
 41
1.178947400782578
 50
0
  1
Matte black paint
  0
TEXT
  8
_0-0_
 62
    7
 10
1672.5596628333403
 20
171.82697775685875
 40
17.999999523162838
 41
1.014492780498069
 50
0
  1
Equipment
  0
TEXT
  8
_0-0_
 62
    7
 10
1796.3077718166503
 20
147.94696958386987
 40
20
 41
1.0069231051665091
 50
0
  1
CO2 Laser Cutter
  0
TEXT
  8
_0-0_
 62
    7
 10
1860.8619089267104
 20
239.05984124494302
 40
16.000000238418579
 41
1.0422794146408489
 50
0
  1
Quantity
  0
TEXT
  8
_0-2_
 62
    7
 10
1979.8270588661653
 20
238.92246027413171
 40
15
 41
1.103030262571393
 50
0
  1
Thickness
  0
TEXT
  8
_0-2_
 62
    7
 10
2016.4770786379042
 20
201.94226014408898
 40
15
 41
1.103030262571393
 50
0
  1
1.2mm
  0
TEXT
  8
_0-0_
 62
    7
 10
1175.3167990003985
 20
61.12561865131255
 40
15
 41
1.103030262571393
 50
0
  1
Hirotaka Shiojima
  0
LINE
  8
_0-1_
  6
CENTER1
 62
    4
 10
633.82562060762586
 20
692.80461329715058
 11
633.82562060762586
 21
640.48982360922651
  0
LINE
  8
_0-1_
  6
CENTER1
 62
    4
 10
1469.8256206076258
 20
692.80461329715058
 11
1469.8256206076258
 21
640.48982360922651
  0
LINE
  8
_0-1_
  6
CENTER1
 62
    4
 10
622.48778833107178
 20
667.72699735486549
 11
642.41723202170965
 21
667.72699735486549
  0
LINE
  8
_0-1_
  6
CENTER1
 62
    4
 10
1455.7876526458617
 20
667.72699735486549
 11
1480.6994572591589
 21
667.72699735486549
  0
CIRCLE
  8
_0-2_
  6
CONTINUOUS
 62
    7
 10
633.82562060762586
 20
667.72699735486549
 40
2.75
  0
CIRCLE
  8
_0-2_
  6
CONTINUOUS
 62
    7
 10
1469.8256206076258
 20
667.72699735486549
 40
2.75
  0
LINE
  8
_0-8_
  6
CONTINUOUS
 62
    4
 10
635.92662360854035
 20
669.35111659636675
 11
682.03743506750357
 21
715.46192805532996
  0
LINE
  8
_0-8_
  6
CONTINUOUS
 62
    4
 10
635.92662360854035
 20
669.35111659636675
 11
643.42662360854035
 21
682.34149765313327
  0
LINE
  8
_0-8_
  6
CONTINUOUS
 62
    4
 10
635.92662360854035
 20
669.35111659636675
 11
648.91700466530688
 21
676.85111659636675
  0
TEXT
  8
_0-0_
 62
    7
 10
1123.0212791765291
 20
199.50907659386507
 40
18.999999761581421
 41
1.0717703643477983
 50
0
  1
Cover front under
  0
LINE
  8
_0-1_
  6
CENTER1
 62
    4
 10
622.48778833107178
 20
962.72699735486549
 11
642.41723202170965
 21
962.72699735486549
  0
LINE
  8
_0-1_
  6
CENTER1
 62
    4
 10
1455.7876526458617
 20
962.72699735486549
 11
1480.6994572591589
 21
962.72699735486549
  0
LINE
  8
_0-1_
  6
CENTER1
 62
    4
 10
1189.8256206076258
 20
692.66430332554353
 11
1189.8256206076258
 21
642.67986325762718
  0
LINE
  8
_0-1_
  6
CENTER1
 62
    4
 10
913.82562060762575
 20
692.66430332554353
 11
913.82562060762575
 21
642.67986325762718
  0
LINE
  8
_0-1_
  6
CENTER1
 62
    4
 10
897.34871841940526
 20
667.72699735486549
 11
934.49391348453901
 21
667.72699735486549
  0
LINE
  8
_0-1_
  6
CENTER1
 62
    4
 10
1168.2921008989865
 20
667.72699735486549
 11
1210.7075828334514
 21
667.72699735486549
  0
LINE
  8
_0-1_
  6
CENTER1
 62
    4
 10
1152.7960996103907
 20
962.72699735486549
 11
1222.1205889059133
 21
962.72699735486549
  0
LINE
  8
_0-1_
  6
CENTER1
 62
    4
 10
1189.8256206076258
 20
986.72711511852367
 11
1189.8256206076258
 21
937.74929978758507
  0
LINE
  8
_0-1_
  6
CENTER1
 62
    4
 10
892.25790907117312
 20
962.72699735486549
 11
943.2990165744701
 21
962.72699735486549
  0
LINE
  8
_0-1_
  6
CENTER1
 62
    4
 10
913.82562060762575
 20
989.01253784255209
 11
913.82562060762575
 21
937.74929978758507
  0
LINE
  8
_0-1_
  6
CENTER1
 62
    4
 10
633.82562060762586
 20
977.35150907680372
 11
633.82562060762586
 21
943.88229005029916
  0
LINE
  8
_0-1_
  6
CENTER1
 62
    4
 10
1469.8256206076258
 20
983.04839742174079
 11
1469.8256206076258
 21
941.03384587783069
  0
CIRCLE
  8
_0-2_
  6
CONTINUOUS
 62
    7
 10
633.82562060762586
 20
962.72699735486549
 40
2.75
  0
CIRCLE
  8
_0-2_
  6
CONTINUOUS
 62
    7
 10
913.82562060762575
 20
962.72699735486549
 40
2.75
  0
CIRCLE
  8
_0-2_
  6
CONTINUOUS
 62
    7
 10
1189.8256206076258
 20
962.72699735486549
 40
2.75
  0
CIRCLE
  8
_0-2_
  6
CONTINUOUS
 62
    7
 10
1469.8256206076258
 20
962.72699735486549
 40
2.75
  0
CIRCLE
  8
_0-2_
  6
CONTINUOUS
 62
    7
 10
1189.8256206076258
 20
667.72699735486549
 40
2.75
  0
CIRCLE
  8
_0-2_
  6
CONTINUOUS
 62
    7
 10
913.82562060762575
 20
667.72699735486549
 40
2.75
  0
LINE
  8
_0-8_
  6
CONTINUOUS
 62
    4
 10
603.82562060762586
 20
1264.1290631337765
 11
1499.8256206076258
 21
1264.1290631337765
  0
POINT
  8
_0-8_
 62
    4
 10
603.82562060762586
 20
1264.1290631337765
  0
POINT
  8
_0-8_
 62
    4
 10
1499.8256206076258
 20
1264.1290631337765
  0
LINE
  8
_0-8_
  6
CONTINUOUS
 62
    4
 10
603.82562060762586
 20
1264.1290631337765
 11
603.82562060762586
 21
1021.3383383761911
  0
LINE
  8
_0-8_
  6
CONTINUOUS
 62
    4
 10
1499.8256206076258
 20
1264.1290631337765
 11
1499.8256206076258
 21
1021.3383383761911
  0
TEXT
  8
_0-8_
 62
    4
 10
1042.450620607626
 20
1266.6290631337765
 40
12.5
 41
1
 50
0
  1
896
  0
LINE
  8
_0-8_
  6
CONTINUOUS
 62
    4
 10
603.82562060762586
 20
1159.7517422099545
 11
633.82562060762586
 21
1159.7517422099545
  0
POINT
  8
_0-8_
 62
    4
 10
603.82562060762586
 20
1159.7517422099545
  0
POINT
  8
_0-8_
 62
    4
 10
633.82562060762586
 20
1159.7517422099545
  0
LINE
  8
_0-8_
  6
CONTINUOUS
 62
    4
 10
603.82562060762586
 20
1159.7517422099545
 11
603.82562060762586
 21
1021.3383383761911
  0
LINE
  8
_0-8_
  6
CONTINUOUS
 62
    4
 10
633.82562060762586
 20
1159.7517422099545
 11
633.82562060762586
 21
1021.3383383761911
  0
TEXT
  8
_0-8_
 62
    4
 10
612.57562060762586
 20
1162.2517422099545
 40
12.5
 41
1
 50
0
  1
30
  0
LINE
  8
_0-8_
  6
CONTINUOUS
 62
    4
 10
633.82562060762586
 20
1159.7517422099545
 11
913.82562060762575
 21
1159.7517422099545
  0
POINT
  8
_0-8_
 62
    4
 10
913.82562060762575
 20
1159.7517422099545
  0
LINE
  8
_0-8_
  6
CONTINUOUS
 62
    4
 10
913.82562060762575
 20
1159.7517422099545
 11
913.82562060762575
 21
1021.3383383761911
  0
TEXT
  8
_0-8_
 62
    4
 10
764.45062060762575
 20
1162.2517422099545
 40
12.5
 41
1
 50
0
  1
280
  0
LINE
  8
_0-8_
  6
CONTINUOUS
 62
    4
 10
913.82562060762575
 20
1159.7517422099545
 11
1189.8256206076258
 21
1159.7517422099545
  0
POINT
  8
_0-8_
 62
    4
 10
1189.8256206076258
 20
1159.7517422099545
  0
LINE
  8
_0-8_
  6
CONTINUOUS
 62
    4
 10
1189.8256206076258
 20
1159.7517422099545
 11
1189.8256206076258
 21
1021.3383383761911
  0
TEXT
  8
_0-8_
 62
    4
 10
1042.450620607626
 20
1162.2517422099545
 40
12.5
 41
1
 50
0
  1
276
  0
LINE
  8
_0-8_
  6
CONTINUOUS
 62
    4
 10
1189.8256206076258
 20
1159.7517422099545
 11
1469.8256206076258
 21
1159.7517422099545
  0
POINT
  8
_0-8_
 62
    4
 10
1469.8256206076258
 20
1159.7517422099545
  0
LINE
  8
_0-8_
  6
CONTINUOUS
 62
    4
 10
1469.8256206076258
 20
1159.7517422099545
 11
1469.8256206076258
 21
1021.3383383761911
  0
TEXT
  8
_0-8_
 62
    4
 10
1320.4506206076258
 20
1162.2517422099545
 40
12.5
 41
1
 50
0
  1
280
  0
LINE
  8
_0-8_
  6
CONTINUOUS
 62
    4
 10
1469.8256206076258
 20
1159.7517422099545
 11
1499.8256206076258
 21
1159.7517422099545
  0
POINT
  8
_0-8_
 62
    4
 10
1499.8256206076258
 20
1159.7517422099545
  0
LINE
  8
_0-8_
  6
CONTINUOUS
 62
    4
 10
1499.8256206076258
 20
1159.7517422099545
 11
1499.8256206076258
 21
1021.3383383761911
  0
TEXT
  8
_0-8_
 62
    4
 10
1478.5756206076258
 20
1162.2517422099545
 40
12.5
 41
1
 50
0
  1
30
  0
LINE
  8
_0-8_
  6
CONTINUOUS
 62
    4
 10
267.02147313363326
 20
970.72699735486572
 11
267.02147313363326
 21
659.7269973548656
  0
POINT
  8
_0-8_
 62
    4
 10
267.02147313363326
 20
970.72699735486572
  0
POINT
  8
_0-8_
 62
    4
 10
267.02147313363326
 20
659.7269973548656
  0
LINE
  8
_0-8_
  6
CONTINUOUS
 62
    4
 10
267.02147313363326
 20
970.72699735486572
 11
536.7954043370122
 21
970.72699735486572
  0
LINE
  8
_0-8_
  6
CONTINUOUS
 62
    4
 10
267.02147313363326
 20
659.7269973548656
 11
536.7954043370122
 21
659.7269973548656
  0
TEXT
  8
_0-8_
 62
    4
 10
264.52147313363326
 20
805.85199735486549
 40
12.5
 41
1
 50
90
  1
311
  0
LINE
  8
_0-8_
  6
CONTINUOUS
 62
    4
 10
438.90275419570173
 20
970.72699735486549
 11
438.90275419570173
 21
962.72699735486549
  0
POINT
  8
_0-8_
 62
    4
 10
438.90275419570173
 20
970.72699735486549
  0
POINT
  8
_0-8_
 62
    4
 10
438.90275419570173
 20
962.72699735486549
  0
LINE
  8
_0-8_
  6
CONTINUOUS
 62
    4
 10
438.90275419570173
 20
970.72699735486549
 11
536.7954043370122
 21
970.72699735486549
  0
LINE
  8
_0-8_
  6
CONTINUOUS
 62
    4
 10
438.90275419570173
 20
962.72699735486549
 11
536.7954043370122
 21
962.72699735486549
  0
TEXT
  8
_0-8_
 62
    4
 10
436.40275419570173
 20
963.6019973548656
 40
12.5
 41
1
 50
90
  1
8
  0
LINE
  8
_0-8_
  6
CONTINUOUS
 62
    4
 10
438.90275419570173
 20
962.72699735486549
 11
438.90275419570173
 21
667.72699735486549
  0
POINT
  8
_0-8_
 62
    4
 10
438.90275419570173
 20
667.72699735486549
  0
LINE
  8
_0-8_
  6
CONTINUOUS
 62
    4
 10
438.90275419570173
 20
667.72699735486549
 11
536.7954043370122
 21
667.72699735486549
  0
TEXT
  8
_0-8_
 62
    4
 10
436.40275419570173
 20
805.85199735486549
 40
12.5
 41
1
 50
90
  1
295
  0
LINE
  8
_0-8_
  6
CONTINUOUS
 62
    4
 10
438.90275419570173
 20
667.72699735486549
 11
438.90275419570173
 21
659.7269973548656
  0
POINT
  8
_0-8_
 62
    4
 10
438.90275419570173
 20
659.7269973548656
  0
LINE
  8
_0-8_
  6
CONTINUOUS
 62
    4
 10
438.90275419570173
 20
659.7269973548656
 11
536.7954043370122
 21
659.7269973548656
  0
TEXT
  8
_0-8_
 62
    4
 10
436.40275419570173
 20
660.60199735486549
 40
12.5
 41
1
 50
90
  1
8
  0
LINE
  8
_0-8_
  6
CONTINUOUS
 62
    4
 10
603.82562060762586
 20
922.32240373553861
 11
603.82562060762586
 21
880.20579844218423
  0
TEXT
  8
_0-8_
 62
    7
 10
684.11195010246706
 20
717.53644309029369
 40
15
 41
1.103030262571393
 50
0
  1
É”5.5Å{Å~8
  0
LINE
  8
_0-8_
  6
CONTINUOUS
 62
    4
 10
682.03743506750357
 20
715.46192805532996
 11
770.49223451291414
 21
715.46192805532996
  0
LINE
  8
_0-8_
  6
CONTINUOUS
 62
    4
 10
1557.4796929147733
 20
603.03364394280243
 11
1609.9707320304765
 21
603.03364394280243
  0
LINE
  8
_0-8_
  6
CONTINUOUS
 62
    4
 10
1500.4982699219149
 20
660.01506693566057
 11
1557.4796929147733
 21
603.03364394280243
  0
LINE
  8
_0-8_
  6
CONTINUOUS
 62
    4
 10
1500.4982699219149
 20
660.01506693566057
 11
1513.4886509786816
 21
652.51506693566057
  0
LINE
  8
_0-8_
  6
CONTINUOUS
 62
    4
 10
1500.4982699219149
 20
660.01506693566057
 11
1507.9982699219149
 21
647.02468587889393
  0
LINE
  8
_0-8_
  6
CONTINUOUS
 62
    4
 10
518.59295685065251
 20
970.72699735486549
 11
586.36628558061943
 21
970.72699735486549
  0
TEXT
  8
_0-8_
 62
    7
 10
1560.8210192192455
 20
604.92732410180429
 40
15
 41
1.103030262571393
 50
0
  1
4Å~R2
  0
LINE
  8
_0-2_
  6
CONTINUOUS
 62
    7
 10
1499.8256206076258
 20
661.7269973548656
 11
1499.8256206076258
 21
840.72699735486549
  0
ARC
  8
_0-2_
  6
CONTINUOUS
 62
    7
 10
1497.8256206076258
 20
661.7269973548656
 40
2
 50
270
 51
0
  0
LINE
  8
_0-2_
  6
CONTINUOUS
 62
    7
 10
1499.8256206076258
 20
968.72699735486549
 11
1499.8256206076258
 21
840.72699735486549
  0
ARC
  8
_0-2_
  6
CONTINUOUS
 62
    7
 10
1497.8256206076258
 20
968.72699735486549
 40
2
 50
0
 51
90
  0
LINE
  8
_0-2_
  6
CONTINUOUS
 62
    7
 10
605.82562060762586
 20
970.72699735486549
 11
1497.8256206076258
 21
970.72699735486549
  0
LINE
  8
_0-2_
  6
CONTINUOUS
 62
    7
 10
603.82562060762586
 20
968.72699735486549
 11
603.82562060762586
 21
840.72699735486549
  0
ARC
  8
_0-2_
  6
CONTINUOUS
 62
    7
 10
605.82562060762586
 20
968.72699735486549
 40
2
 50
90
 51
180
  0
LINE
  8
_0-2_
  6
CONTINUOUS
 62
    7
 10
603.82562060762586
 20
661.7269973548656
 11
603.82562060762586
 21
840.72699735486549
  0
LINE
  8
_0-2_
  6
CONTINUOUS
 62
    7
 10
605.82562060762586
 20
659.7269973548656
 11
1497.8256206076258
 21
659.7269973548656
  0
ARC
  8
_0-2_
  6
CONTINUOUS
 62
    7
 10
605.82562060762586
 20
661.7269973548656
 40
2
 50
180
 51
270
  0
TEXT
  8
_0-0_
 62
    7
 10
1114.235275406224
 20
141.6269773992309
 40
16.000000238418579
 41
0.965801836975482
 50
0
  1
15/Jul/2015
  0
TEXT
  8
_0-0_
 62
    7
 10
1779.4794667614728
 20
38.826996878028694
 40
24.000000953674316
 41
0.9871794479524999
 50
0
  1
laser-150807-04
  0
LINE
  8
_0-2_
  6
CONTINUOUS
 62
    7
 10
1433.3756206076259
 20
805.62699735486558
 11
1446.2756206076258
 21
805.62699735486558
  0
LINE
  8
_0-2_
  6
CONTINUOUS
 62
    7
 10
1446.2756206076258
 20
805.62699735486558
 11
1446.2756206076258
 21
824.82699735486563
  0
LINE
  8
_0-2_
  6
CONTINUOUS
 62
    7
 10
1446.2756206076258
 20
824.82699735486563
 11
1433.3756206076259
 21
824.82699735486563
  0
LINE
  8
_0-2_
  6
CONTINUOUS
 62
    7
 10
1433.3756206076259
 20
824.82699735486563
 11
1433.3756206076259
 21
805.62699735486558
  0
LINE
  8
_0-8_
  6
CONTINUOUS
 62
    4
 10
1433.3756206076259
 20
838.96408851113495
 11
1446.2756206076258
 21
838.96408851113495
  0
POINT
  8
_0-8_
 62
    4
 10
1433.3756206076259
 20
838.96408851113495
  0
POINT
  8
_0-8_
 62
    4
 10
1446.2756206076258
 20
838.96408851113495
  0
LINE
  8
_0-8_
  6
CONTINUOUS
 62
    4
 10
1433.3756206076259
 20
838.96408851113495
 11
1433.3756206076259
 21
827.85076497394539
  0
LINE
  8
_0-8_
  6
CONTINUOUS
 62
    4
 10
1446.2756206076258
 20
838.96408851113495
 11
1446.2756206076258
 21
827.85076497394539
  0
LINE
  8
_0-8_
  6
CONTINUOUS
 62
    4
 10
1416.6578919902363
 20
824.82699735486563
 11
1416.6578919902363
 21
805.62699735486558
  0
POINT
  8
_0-8_
 62
    4
 10
1416.6578919902363
 20
824.82699735486563
  0
POINT
  8
_0-8_
 62
    4
 10
1416.6578919902363
 20
805.62699735486558
  0
LINE
  8
_0-8_
  6
CONTINUOUS
 62
    4
 10
1416.6578919902363
 20
824.82699735486563
 11
1430.187155426815
 21
824.82699735486563
  0
LINE
  8
_0-8_
  6
CONTINUOUS
 62
    4
 10
1416.6578919902363
 20
805.62699735486558
 11
1430.187155426815
 21
805.62699735486558
  0
TEXT
  8
_0-8_
 62
    4
 10
1420.6741620146095
 20
841.34048327088112
 40
12.5
 41
1
 50
0
  1
12.9Å}0.1
  0
TEXT
  8
_0-8_
 62
    4
 10
1413.3413292526009
 20
779.36621928229204
 40
12.5
 41
1
 50
90
  1
19.2Å}0.1
  0
LINE
  8
_0-1_
  6
CENTER1
 62
    4
 10
1439.8256206076258
 20
821.63079011743446
 11
1439.8256206076258
 21
808.86179460884944
  0
LINE
  8
_0-1_
  6
CENTER1
 62
    4
 10
1431.3015972194335
 20
815.22699735486549
 11
1447.9222319884789
 21
815.22699735486549
  0
LINE
  8
_0-8_
  6
CONTINUOUS
 62
    4
 10
1499.8256206076258
 20
738.58907391870639
 11
1439.8256206076258
 21
738.58907391870639
  0
POINT
  8
_0-8_
 62
    4
 10
1499.8256206076258
 20
738.58907391870639
  0
POINT
  8
_0-8_
 62
    4
 10
1439.8256206076258
 20
738.58907391870639
  0
LINE
  8
_0-8_
  6
CONTINUOUS
 62
    4
 10
1499.8256206076258
 20
738.58907391870639
 11
1499.8256206076258
 21
790.6117868838295
  0
LINE
  8
_0-8_
  6
CONTINUOUS
 62
    4
 10
1439.8256206076258
 20
738.58907391870639
 11
1439.8256206076258
 21
790.6117868838295
  0
TEXT
  8
_0-8_
 62
    4
 10
1463.5756206076258
 20
741.08907391870639
 40
12.5
 41
1
 50
0
  1
60
  0
LINE
  8
_0-8_
  6
CONTINUOUS
 62
    4
 10
1627.7781630717964
 20
970.72699735486549
 11
1627.7781630717964
 21
815.22699735486549
  0
POINT
  8
_0-8_
 62
    4
 10
1627.7781630717964
 20
970.72699735486549
  0
POINT
  8
_0-8_
 62
    4
 10
1627.7781630717964
 20
815.22699735486549
  0
LINE
  8
_0-8_
  6
CONTINUOUS
 62
    4
 10
1627.7781630717964
 20
970.72699735486549
 11
1516.5571905256711
 21
970.72699735486549
  0
LINE
  8
_0-8_
  6
CONTINUOUS
 62
    4
 10
1627.7781630717964
 20
815.22699735486549
 11
1516.5571905256711
 21
815.22699735486549
  0
TEXT
  8
_0-8_
 62
    4
 10
1625.2781630717964
 20
877.3519973548656
 40
12.5
 41
1
 50
90
  1
155.5
  0
LINE
  8
_0-8_
  6
CONTINUOUS
 62
    4
 10
901.82562060762598
 20
819.40533872644608
 11
905.82562060762586
 21
819.40533872644608
  0
POINT
  8
_0-8_
 62
    4
 10
901.82562060762598
 20
819.40533872644608
  0
POINT
  8
_0-8_
 62
    4
 10
905.82562060762586
 20
819.40533872644608
  0
LINE
  8
_0-8_
  6
CONTINUOUS
 62
    4
 10
901.82562060762598
 20
819.40533872644608
 11
901.82562060762598
 21
844.20307870967576
  0
LINE
  8
_0-8_
  6
CONTINUOUS
 62
    4
 10
905.82562060762586
 20
819.40533872644608
 11
905.82562060762586
 21
844.20307870967576
  0
TEXT
  8
_0-8_
 62
    4
 10
901.29222719704171
 20
803.23289960694854
 40
12.5
 41
1
 50
0
  1
4
  0
LINE
  8
_0-8_
  6
CONTINUOUS
 62
    4
 10
859.17147157984289
 20
940.72699735486549
 11
859.17147157984289
 21
880.72699735486549
  0
POINT
  8
_0-8_
 62
    4
 10
859.17147157984289
 20
880.72699735486549
  0
LINE
  8
_0-8_
  6
CONTINUOUS
 62
    4
 10
859.17147157984289
 20
880.72699735486549
 11
891.59680971495493
 21
880.72699735486549
  0
TEXT
  8
_0-8_
 62
    4
 10
856.67147157984289
 20
904.47699735486549
 40
12.5
 41
1
 50
90
  1
60
  0
LINE
  8
_0-8_
  6
CONTINUOUS
 62
    4
 10
1569.4166552747247
 20
970.72699735486549
 11
1516.5571905256711
 21
970.72699735486549
  0
LINE
  8
_0-1_
  6
CENTER1
 62
    4
 10
953.82562060762575
 20
948.81081971575793
 11
953.82562060762575
 21
848.06491434719987
  0
LINE
  8
_0-1_
  6
CENTER1
 62
    4
 10
946.72403396574873
 20
940.72699735486549
 11
961.07986066595015
 21
940.72699735486549
  0
LINE
  8
_0-1_
  6
CENTER1
 62
    4
 10
946.72403396574873
 20
880.72699735486549
 11
961.07986066595015
 21
880.72699735486549
  0
ARC
  8
_0-2_
  6
CONTINUOUS
 62
    7
 10
953.82562060762575
 20
940.72699735486549
 40
2
 50
0
 51
180
  0
ARC
  8
_0-2_
  6
CONTINUOUS
 62
    7
 10
953.82562060762575
 20
880.72699735486549
 40
2
 50
180
 51
0
  0
LINE
  8
_0-2_
  6
CONTINUOUS
 62
    7
 10
951.82562060762598
 20
940.72699735486549
 11
951.82562060762598
 21
880.72699735486549
  0
LINE
  8
_0-2_
  6
CONTINUOUS
 62
    7
 10
955.82562060762586
 20
940.72699735486549
 11
955.82562060762586
 21
880.72699735486549
  0
LINE
  8
_0-1_
  6
CENTER1
 62
    4
 10
1003.8256206076258
 20
948.81081971575793
 11
1003.8256206076258
 21
848.06491434719987
  0
LINE
  8
_0-1_
  6
CENTER1
 62
    4
 10
996.72403396574873
 20
940.72699735486549
 11
1011.0798606659502
 21
940.72699735486549
  0
LINE
  8
_0-1_
  6
CENTER1
 62
    4
 10
996.72403396574873
 20
880.72699735486549
 11
1011.0798606659502
 21
880.72699735486549
  0
ARC
  8
_0-2_
  6
CONTINUOUS
 62
    7
 10
1003.8256206076258
 20
940.72699735486549
 40
2
 50
0
 51
180
  0
ARC
  8
_0-2_
  6
CONTINUOUS
 62
    7
 10
1003.8256206076258
 20
880.72699735486549
 40
2
 50
180
 51
0
  0
LINE
  8
_0-2_
  6
CONTINUOUS
 62
    7
 10
1001.825620607626
 20
940.72699735486549
 11
1001.825620607626
 21
880.72699735486549
  0
LINE
  8
_0-2_
  6
CONTINUOUS
 62
    7
 10
1005.8256206076259
 20
940.72699735486549
 11
1005.8256206076259
 21
880.72699735486549
  0
LINE
  8
_0-1_
  6
CENTER1
 62
    4
 10
1053.8256206076258
 20
948.81081971575793
 11
1053.8256206076258
 21
848.06491434719987
  0
LINE
  8
_0-1_
  6
CENTER1
 62
    4
 10
1046.7240339657487
 20
940.72699735486549
 11
1061.0798606659503
 21
940.72699735486549
  0
LINE
  8
_0-1_
  6
CENTER1
 62
    4
 10
1046.7240339657487
 20
880.72699735486549
 11
1061.0798606659503
 21
880.72699735486549
  0
ARC
  8
_0-2_
  6
CONTINUOUS
 62
    7
 10
1053.8256206076258
 20
940.72699735486549
 40
2
 50
0
 51
180
  0
ARC
  8
_0-2_
  6
CONTINUOUS
 62
    7
 10
1053.8256206076258
 20
880.72699735486549
 40
2
 50
180
 51
0
  0
LINE
  8
_0-2_
  6
CONTINUOUS
 62
    7
 10
1051.825620607626
 20
940.72699735486549
 11
1051.825620607626
 21
880.72699735486549
  0
LINE
  8
_0-2_
  6
CONTINUOUS
 62
    7
 10
1055.8256206076258
 20
940.72699735486549
 11
1055.8256206076258
 21
880.72699735486549
  0
LINE
  8
_0-1_
  6
CENTER1
 62
    4
 10
1103.8256206076258
 20
948.81081971575793
 11
1103.8256206076258
 21
848.06491434719987
  0
LINE
  8
_0-1_
  6
CENTER1
 62
    4
 10
1096.7240339657487
 20
940.72699735486549
 11
1111.0798606659503
 21
940.72699735486549
  0
LINE
  8
_0-1_
  6
CENTER1
 62
    4
 10
1096.7240339657487
 20
880.72699735486549
 11
1111.0798606659503
 21
880.72699735486549
  0
ARC
  8
_0-2_
  6
CONTINUOUS
 62
    7
 10
1103.8256206076258
 20
940.72699735486549
 40
2
 50
0
 51
180
  0
ARC
  8
_0-2_
  6
CONTINUOUS
 62
    7
 10
1103.8256206076258
 20
880.72699735486549
 40
2
 50
180
 51
0
  0
LINE
  8
_0-2_
  6
CONTINUOUS
 62
    7
 10
1101.825620607626
 20
940.72699735486549
 11
1101.825620607626
 21
880.72699735486549
  0
LINE
  8
_0-2_
  6
CONTINUOUS
 62
    7
 10
1105.8256206076258
 20
940.72699735486549
 11
1105.8256206076258
 21
880.72699735486549
  0
LINE
  8
_0-1_
  6
CENTER1
 62
    4
 10
1153.8256206076258
 20
948.81081971575793
 11
1153.8256206076258
 21
848.06491434719987
  0
LINE
  8
_0-1_
  6
CENTER1
 62
    4
 10
1146.7240339657487
 20
940.72699735486549
 11
1161.0798606659503
 21
940.72699735486549
  0
LINE
  8
_0-1_
  6
CENTER1
 62
    4
 10
1146.7240339657487
 20
880.72699735486549
 11
1161.0798606659503
 21
880.72699735486549
  0
ARC
  8
_0-2_
  6
CONTINUOUS
 62
    7
 10
1153.8256206076258
 20
940.72699735486549
 40
2
 50
0
 51
180
  0
ARC
  8
_0-2_
  6
CONTINUOUS
 62
    7
 10
1153.8256206076258
 20
880.72699735486549
 40
2
 50
180
 51
0
  0
LINE
  8
_0-2_
  6
CONTINUOUS
 62
    7
 10
1151.825620607626
 20
940.72699735486549
 11
1151.825620607626
 21
880.72699735486549
  0
LINE
  8
_0-2_
  6
CONTINUOUS
 62
    7
 10
1155.8256206076258
 20
940.72699735486549
 11
1155.8256206076258
 21
880.72699735486549
  0
LINE
  8
_0-1_
  6
CENTER1
 62
    4
 10
1203.8256206076258
 20
948.81081971575793
 11
1203.8256206076258
 21
848.06491434719987
  0
LINE
  8
_0-1_
  6
CENTER1
 62
    4
 10
1196.7240339657487
 20
940.72699735486549
 11
1211.0798606659503
 21
940.72699735486549
  0
LINE
  8
_0-1_
  6
CENTER1
 62
    4
 10
1196.7240339657487
 20
880.72699735486549
 11
1211.0798606659503
 21
880.72699735486549
  0
ARC
  8
_0-2_
  6
CONTINUOUS
 62
    7
 10
1203.8256206076258
 20
940.72699735486549
 40
2
 50
0
 51
180
  0
ARC
  8
_0-2_
  6
CONTINUOUS
 62
    7
 10
1203.8256206076258
 20
880.72699735486549
 40
2
 50
180
 51
0
  0
LINE
  8
_0-2_
  6
CONTINUOUS
 62
    7
 10
1201.825620607626
 20
940.72699735486549
 11
1201.825620607626
 21
880.72699735486549
  0
LINE
  8
_0-2_
  6
CONTINUOUS
 62
    7
 10
1205.8256206076258
 20
940.72699735486549
 11
1205.8256206076258
 21
880.72699735486549
  0
LINE
  8
_0-1_
  6
CENTER1
 62
    4
 10
1253.8256206076258
 20
948.81081971575793
 11
1253.8256206076258
 21
848.06491434719987
  0
LINE
  8
_0-1_
  6
CENTER1
 62
    4
 10
1246.7240339657487
 20
940.72699735486549
 11
1261.0798606659503
 21
940.72699735486549
  0
LINE
  8
_0-1_
  6
CENTER1
 62
    4
 10
1246.7240339657487
 20
880.72699735486549
 11
1261.0798606659503
 21
880.72699735486549
  0
ARC
  8
_0-2_
  6
CONTINUOUS
 62
    7
 10
1253.8256206076258
 20
940.72699735486549
 40
2
 50
0
 51
180
  0
ARC
  8
_0-2_
  6
CONTINUOUS
 62
    7
 10
1253.8256206076258
 20
880.72699735486549
 40
2
 50
180
 51
0
  0
LINE
  8
_0-2_
  6
CONTINUOUS
 62
    7
 10
1251.825620607626
 20
940.72699735486549
 11
1251.825620607626
 21
880.72699735486549
  0
LINE
  8
_0-2_
  6
CONTINUOUS
 62
    7
 10
1255.8256206076258
 20
940.72699735486549
 11
1255.8256206076258
 21
880.72699735486549
  0
LINE
  8
_0-1_
  6
CENTER1
 62
    4
 10
1303.8256206076258
 20
948.81081971575793
 11
1303.8256206076258
 21
848.06491434719987
  0
LINE
  8
_0-1_
  6
CENTER1
 62
    4
 10
1296.7240339657487
 20
940.72699735486549
 11
1311.07986066595
 21
940.72699735486549
  0
LINE
  8
_0-1_
  6
CENTER1
 62
    4
 10
1296.7240339657487
 20
880.72699735486549
 11
1311.07986066595
 21
880.72699735486549
  0
ARC
  8
_0-2_
  6
CONTINUOUS
 62
    7
 10
1303.8256206076258
 20
940.72699735486549
 40
2
 50
0
 51
180
  0
ARC
  8
_0-2_
  6
CONTINUOUS
 62
    7
 10
1303.8256206076258
 20
880.72699735486549
 40
2
 50
180
 51
0
  0
LINE
  8
_0-2_
  6
CONTINUOUS
 62
    7
 10
1301.825620607626
 20
940.72699735486549
 11
1301.825620607626
 21
880.72699735486549
  0
LINE
  8
_0-2_
  6
CONTINUOUS
 62
    7
 10
1305.825620607626
 20
940.72699735486549
 11
1305.825620607626
 21
880.72699735486549
  0
LINE
  8
_0-1_
  6
CENTER1
 62
    4
 10
1403.8256206076258
 20
948.81081971575793
 11
1403.8256206076258
 21
848.06491434719987
  0
LINE
  8
_0-1_
  6
CENTER1
 62
    4
 10
1396.7240339657487
 20
940.72699735486549
 11
1411.07986066595
 21
940.72699735486549
  0
LINE
  8
_0-1_
  6
CENTER1
 62
    4
 10
1396.7240339657487
 20
880.72699735486549
 11
1411.07986066595
 21
880.72699735486549
  0
ARC
  8
_0-2_
  6
CONTINUOUS
 62
    7
 10
1403.8256206076258
 20
940.72699735486549
 40
2
 50
0
 51
180
  0
ARC
  8
_0-2_
  6
CONTINUOUS
 62
    7
 10
1403.8256206076258
 20
880.72699735486549
 40
2
 50
180
 51
0
  0
LINE
  8
_0-2_
  6
CONTINUOUS
 62
    7
 10
1401.825620607626
 20
940.72699735486549
 11
1401.825620607626
 21
880.72699735486549
  0
LINE
  8
_0-2_
  6
CONTINUOUS
 62
    7
 10
1405.825620607626
 20
940.72699735486549
 11
1405.825620607626
 21
880.72699735486549
  0
LINE
  8
_0-1_
  6
CENTER1
 62
    4
 10
1453.8256206076258
 20
948.81081971575793
 11
1453.8256206076258
 21
848.06491434719987
  0
LINE
  8
_0-1_
  6
CENTER1
 62
    4
 10
1446.7240339657487
 20
940.72699735486549
 11
1461.07986066595
 21
940.72699735486549
  0
LINE
  8
_0-1_
  6
CENTER1
 62
    4
 10
1446.7240339657487
 20
880.72699735486549
 11
1461.07986066595
 21
880.72699735486549
  0
ARC
  8
_0-2_
  6
CONTINUOUS
 62
    7
 10
1453.8256206076258
 20
940.72699735486549
 40
2
 50
0
 51
180
  0
ARC
  8
_0-2_
  6
CONTINUOUS
 62
    7
 10
1453.8256206076258
 20
880.72699735486549
 40
2
 50
180
 51
0
  0
LINE
  8
_0-2_
  6
CONTINUOUS
 62
    7
 10
1451.825620607626
 20
940.72699735486549
 11
1451.825620607626
 21
880.72699735486549
  0
LINE
  8
_0-2_
  6
CONTINUOUS
 62
    7
 10
1455.825620607626
 20
940.72699735486549
 11
1455.825620607626
 21
880.72699735486549
  0
LINE
  8
_0-1_
  6
CENTER1
 62
    4
 10
1353.8256206076258
 20
948.81081971575793
 11
1353.8256206076258
 21
848.06491434719987
  0
LINE
  8
_0-1_
  6
CENTER1
 62
    4
 10
1346.7240339657487
 20
940.72699735486549
 11
1361.07986066595
 21
940.72699735486549
  0
LINE
  8
_0-1_
  6
CENTER1
 62
    4
 10
1346.7240339657487
 20
880.72699735486549
 11
1361.07986066595
 21
880.72699735486549
  0
ARC
  8
_0-2_
  6
CONTINUOUS
 62
    7
 10
1353.8256206076258
 20
940.72699735486549
 40
2
 50
0
 51
180
  0
ARC
  8
_0-2_
  6
CONTINUOUS
 62
    7
 10
1353.8256206076258
 20
880.72699735486549
 40
2
 50
180
 51
0
  0
LINE
  8
_0-2_
  6
CONTINUOUS
 62
    7
 10
1351.825620607626
 20
940.72699735486549
 11
1351.825620607626
 21
880.72699735486549
  0
LINE
  8
_0-2_
  6
CONTINUOUS
 62
    7
 10
1355.825620607626
 20
940.72699735486549
 11
1355.825620607626
 21
880.72699735486549
  0
LINE
  8
_0-1_
  6
CENTER1
 62
    4
 10
1449.1944764954978
 20
910.72699735486549
 11
1459.4971306242066
 21
910.72699735486549
  0
LINE
  8
_0-8_
  6
CONTINUOUS
 62
    4
 10
1576.8329137567227
 20
970.72699735486549
 11
1576.8329137567227
 21
910.72699735486549
  0
POINT
  8
_0-8_
 62
    4
 10
1576.8329137567227
 20
970.72699735486549
  0
POINT
  8
_0-8_
 62
    4
 10
1576.8329137567227
 20
910.72699735486549
  0
LINE
  8
_0-8_
  6
CONTINUOUS
 62
    4
 10
1576.8329137567227
 20
970.72699735486549
 11
1516.5571905256711
 21
970.72699735486549
  0
LINE
  8
_0-8_
  6
CONTINUOUS
 62
    4
 10
1576.8329137567227
 20
910.72699735486549
 11
1516.5571905256711
 21
910.72699735486549
  0
TEXT
  8
_0-8_
 62
    4
 10
1574.3329137567227
 20
934.47699735486549
 40
12.5
 41
1
 50
90
  1
60
  0
LINE
  8
_0-8_
  6
CONTINUOUS
 62
    4
 10
903.82562060762575
 20
1039.1417284898812
 11
953.82562060762575
 21
1039.1417284898812
  0
POINT
  8
_0-8_
 62
    4
 10
903.82562060762575
 20
1039.1417284898812
  0
POINT
  8
_0-8_
 62
    4
 10
953.82562060762575
 20
1039.1417284898812
  0
LINE
  8
_0-8_
  6
CONTINUOUS
 62
    4
 10
903.82562060762575
 20
1039.1417284898812
 11
903.82562060762575
 21
985.65677246250186
  0
LINE
  8
_0-8_
  6
CONTINUOUS
 62
    4
 10
953.82562060762575
 20
1039.1417284898812
 11
953.82562060762575
 21
985.65677246250186
  0
TEXT
  8
_0-8_
 62
    4
 10
922.57562060762575
 20
1041.6417284898812
 40
12.5
 41
1
 50
0
  1
50
  0
LINE
  8
_0-8_
  6
CONTINUOUS
 62
    4
 10
953.82562060762575
 20
1039.1417284898812
 11
1003.8256206076258
 21
1039.1417284898812
  0
POINT
  8
_0-8_
 62
    4
 10
1003.8256206076258
 20
1039.1417284898812
  0
LINE
  8
_0-8_
  6
CONTINUOUS
 62
    4
 10
1003.8256206076258
 20
1039.1417284898812
 11
1003.8256206076258
 21
985.65677246250186
  0
TEXT
  8
_0-8_
 62
    4
 10
972.57562060762575
 20
1041.6417284898812
 40
12.5
 41
1
 50
0
  1
50
  0
LINE
  8
_0-8_
  6
CONTINUOUS
 62
    4
 10
1453.8256206076258
 20
1003.826042746889
 11
1499.8256206076258
 21
1003.826042746889
  0
POINT
  8
_0-8_
 62
    4
 10
1453.8256206076258
 20
1003.826042746889
  0
POINT
  8
_0-8_
 62
    4
 10
1499.8256206076258
 20
1003.826042746889
  0
LINE
  8
_0-8_
  6
CONTINUOUS
 62
    4
 10
1453.8256206076258
 20
1003.826042746889
 11
1453.8256206076258
 21
985.65677246250186
  0
LINE
  8
_0-8_
  6
CONTINUOUS
 62
    4
 10
1499.8256206076258
 20
1003.826042746889
 11
1499.8256206076258
 21
985.65677246250186
  0
TEXT
  8
_0-8_
 62
    4
 10
1470.575620607626
 20
1006.326042746889
 40
12.5
 41
1
 50
0
  1
46
  0
ENDSEC
  0
EOF
