  0
SECTION
  2
HEADER
  9
$ACADVER
  1
AC1009
  9
$INSBASE
 10
0
 20
0
 30
0
  9
$EXTMIN
 10
0
 20
0
  9
$EXTMAX
 10
2100
 20
1485
  9
$LIMMIN
 10
0
 20
0
  9
$LIMMAX
 10
2100
 20
1485
  9
$LTSCALE
 40
5
  0
ENDSEC
  0
SECTION
  2
TABLES
  0
TABLE
  2
LTYPE
 70
     9
  0
LTYPE
  2
CONTINUOUS
 70
    64
  3
é¿ê¸
 72
    65
 73
     0
 40
0.0
  0
LTYPE
  2
DASHED1
 70
    64
  3
--  --  --  --  --  --  --  --  
 72
    65
 73
     2
 40
2.5
 49
1.25
 49
-1.25
  0
LTYPE
  2
DASHED2
 70
    64
  3
----    ----    ----    ----    
 72
    65
 73
     2
 40
5.0
 49
2.5
 49
-2.5
  0
LTYPE
  2
DASHED3
 70
    64
  3
------  ------  ------  ------  
 72
    65
 73
     2
 40
5.0
 49
3.75
 49
-1.25
  0
LTYPE
  2
CENTER1
 70
    64
  3
----- - ----- - ----- - ----- - 
 72
    65
 73
     4
 40
10.0
 49
6.25
 49
-1.25
 49
1.25
 49
-1.25
  0
LTYPE
  2
CENTER2
 70
    64
  3
----------  --  ----------  --  
 72
    65
 73
     4
 40
20.0
 49
12.5
 49
-2.5
 49
2.5
 49
-2.5
  0
LTYPE
  2
PHANTOM1
 70
    64
  3
--- - - --- - - --- - - --- - - 
 72
    65
 73
     6
 40
10.0
 49
3.25
 49
-1.25
 49
1.25
 49
-1.25
 49
1.25
 49
-1.25
  0
LTYPE
  2
PHANTOM2
 70
    64
  3
--------  -  -  --------  -  -  
 72
    65
 73
     6
 40
20.0
 49
10.0
 49
-2.5
 49
1.25
 49
-2.5
 49
1.25
 49
-2.5
  0
LTYPE
  2
DOT
 70
    64
  3
-   -   -   -   -   -   -   -   
 72
    65
 73
     2
 40
2.5
 49
0.625
 49
-1.875
  0
LTYPE
  2
DUMMY
 70
    64
  3
É_É~Å[
 72
    65
 73
     0
 40
0.0
  0
LTYPE
  2
RAND1
 70
    64
  3
ÉâÉìÉ_ÉÄê¸1
 72
    65
 73
     4
 40
10.0
 49
1.0
 49
-2.0
 49
3.0
 49
-4.0
  0
LTYPE
  2
RAND2
 70
    64
  3
ÉâÉìÉ_ÉÄê¸2
 72
    65
 73
     4
 40
14.0
 49
2.0
 49
-3.0
 49
4.0
 49
-5.0
  0
LTYPE
  2
RAND3
 70
    64
  3
ÉâÉìÉ_ÉÄê¸3
 72
    65
 73
     4
 40
18.0
 49
3.0
 49
-4.0
 49
5.0
 49
-6.0
  0
LTYPE
  2
RAND4
 70
    64
  3
ÉâÉìÉ_ÉÄê¸4
 72
    65
 73
     4
 40
22.0
 49
4.0
 49
-5.0
 49
6.0
 49
-7.0
  0
LTYPE
  2
RAND5
 70
    64
  3
ÉâÉìÉ_ÉÄê¸5
 72
    65
 73
     4
 40
26.0
 49
5.0
 49
-6.0
 49
7.0
 49
-8.0
  0
LTYPE
  2
LONG1
 70
    64
  3
----------  --  ----------  --  
 72
    65
 73
     4
 40
40.0
 49
32.5
 49
-2.5
 49
2.5
 49
-2.5
  0
LTYPE
  2
LONG2
 70
    64
  3
--------  -  -  --------  -  -  
 72
    65
 73
     6
 40
40.0
 49
30.0
 49
-2.5
 49
1.25
 49
-2.5
 49
1.25
 49
-2.5
  0
LTYPE
  2
LONG3
 70
    64
  3
+++++++++++++++..+++++++++++++++
 72
    65
 73
     2
 40
40.0
 49
37.5
 49
-2.5
  0
LTYPE
  2
LONG4
 70
    64
  3
+++++++++++++++..+++++++++++++++
 72
    65
 73
     2
 40
80.0
 49
75.0
 49
-5.0
  0
LTYPE
  2
LONG5
 70
    64
  3
----------  --  ----------  --  
 72
    65
 73
     4
 40
60.0
 49
37.5
 49
-7.5
 49
7.5
 49
-7.5
  0
LTYPE
  2
dashed
 70
   64
  3
-------   -------------   ------
 72
   65
 73
    2
 40
7.5
 49
6
 49
-1.5
  0
LTYPE
  2
dashed_spaced
 70
   64
  3
----        --------        ----
 72
   65
 73
    2
 40
12
 49
6
 49
-6
  0
LTYPE
  2
long_dashed_dotted
 70
   64
  3
------------- --- --------------
 72
   65
 73
    4
 40
15.25
 49
12
 49
-1.5
 49
0.25
 49
-1.5
  0
LTYPE
  2
long_dashed_double-dotted
 70
   64
  3
----------- --- --- ------------
 72
   65
 73
    6
 40
17
 49
12
 49
-1.5
 49
0.25
 49
-1.5
 49
0.25
 49
-1.5
  0
LTYPE
  2
long_dashed_triplicate-dotted
 70
   64
  3
--------- --- --- --- ----------
 72
   65
 73
    8
 40
18.75
 49
12
 49
-1.5
 49
0.25
 49
-1.5
 49
0.25
 49
-1.5
 49
0.25
 49
-1.5
  0
LTYPE
  2
dotted
 70
   64
  3
   -       -       -       -    
 72
   65
 73
    2
 40
1.75
 49
0.25
 49
-1.5
  0
LTYPE
  2
chain
 70
   64
  3
-------------- -- --------------
 72
   65
 73
    4
 40
18.5
 49
12
 49
-1.5
 49
3.5
 49
-1.5
  0
LTYPE
  2
chain_double_dash
 70
   64
  3
------------ -- -- -------------
 72
   65
 73
    6
 40
23.5
 49
12
 49
-1.5
 49
3.5
 49
-1.5
 49
3.5
 49
-1.5
  0
LTYPE
  2
dashed_dotted
 70
   64
  3
-----------     -     ----------
 72
   65
 73
    4
 40
9.25
 49
6
 49
-1.5
 49
0.25
 49
-1.5
  0
LTYPE
  2
double-dashed_dotted
 70
   64
  3
------   -----------   -   -----
 72
   65
 73
    6
 40
16.75
 49
6
 49
-1.5
 49
6
 49
-1.5
 49
0.25
 49
-1.5
  0
LTYPE
  2
dashed_double-dotted
 70
   64
  3
---------    -    -    ---------
 72
   65
 73
    6
 40
11
 49
6
 49
-1.5
 49
0.25
 49
-1.5
 49
0.25
 49
-1.5
  0
LTYPE
  2
double-dashed_double-dotted
 70
   64
  3
-----   ---------   -   -   ----
 72
   65
 73
    8
 40
18.5
 49
6
 49
-1.5
 49
6
 49
-1.5
 49
0.25
 49
-1.5
 49
0.25
 49
-1.5
  0
LTYPE
  2
dashed_triplicate-dotted
 70
   64
  3
-------    -    -    -    ------
 72
   65
 73
    8
 40
12.75
 49
6
 49
-1.5
 49
0.25
 49
-1.5
 49
0.25
 49
-1.5
 49
0.25
 49
-1.5
  0
LTYPE
  2
double-dashed_triplicate-dotted
 70
   64
  3
-----  ---------  -  -  -  -----
 72
   65
 73
   10
 40
20.25
 49
6
 49
-1.5
 49
6
 49
-1.5
 49
0.25
 49
-1.5
 49
0.25
 49
-1.5
 49
0.25
 49
-1.5
  0
LTYPE
  2
undefined
 70
   64
  3
--------------------------------
 72
   65
 73
    0
 40
0
  0
LTYPE
  2
_
 70
   64
  3
                                
 72
   65
 73
    0
 40
0
  0
LTYPE
  2
__18
 70
   64
  3
                                
 72
   65
 73
    0
 40
0
  0
LTYPE
  2
__19
 70
   64
  3
                                
 72
   65
 73
    0
 40
0
  0
LTYPE
  2
__20
 70
   64
  3
                                
 72
   65
 73
    0
 40
0
  0
LTYPE
  2
__21
 70
   64
  3
                                
 72
   65
 73
    0
 40
0
  0
LTYPE
  2
__22
 70
   64
  3
                                
 72
   65
 73
    0
 40
0
  0
LTYPE
  2
__23
 70
   64
  3
                                
 72
   65
 73
    0
 40
0
  0
LTYPE
  2
__24
 70
   64
  3
                                
 72
   65
 73
    0
 40
0
  0
LTYPE
  2
__25
 70
   64
  3
                                
 72
   65
 73
    0
 40
0
  0
LTYPE
  2
__26
 70
   64
  3
                                
 72
   65
 73
    0
 40
0
  0
LTYPE
  2
__27
 70
   64
  3
                                
 72
   65
 73
    0
 40
0
  0
LTYPE
  2
__28
 70
   64
  3
                                
 72
   65
 73
    0
 40
0
  0
LTYPE
  2
__29
 70
   64
  3
                                
 72
   65
 73
    0
 40
0
  0
LTYPE
  2
__30
 70
   64
  3
                                
 72
   65
 73
    0
 40
0
  0
LTYPE
  2
__31
 70
   64
  3
                                
 72
   65
 73
    0
 40
0
  0
LTYPE
  2
__32
 70
   64
  3
                                
 72
   65
 73
    0
 40
0
  0
ENDTAB
  0
TABLE
  2
STYLE
  5
3
100
AcDbSymbolTable
 70
     1
  0
STYLE
  5
10
100
AcDbSymbolTableRecord
100
AcDbTextStyleTableRecord
  2
STANDARD
 70
     0
 40
0.0
 41
1.0
 50
0.0
 71
     0
 42
0.2
  3
txt
  4
bigfont.shx
  0
STYLE
  5
26
100
AcDbSymbolTableRecord
100
AcDbTextStyleTableRecord
  2
TATEGAKI
 70
    68
 40
0.0
 41
1.0
 50
0.0
 71
     0
 42
1.0
  3
txt
  4
bigfont.shx
  0
ENDTAB
  0
TABLE
  2
LAYER
 70
    5
  0
LAYER
  2
_0-0_
 70
   64
 62
    7
  6
CONTINUOUS
  0
LAYER
  2
_0-1_
 70
   64
 62
    7
  6
CONTINUOUS
  0
LAYER
  2
_0-2_
 70
   64
 62
    7
  6
CONTINUOUS
  0
LAYER
  2
_0-8_
 70
   64
 62
    7
  6
CONTINUOUS
  0
LAYER
  2
ADD_LINE
 70
   64
 62
    7
  6
CONTINUOUS
  0
ENDTAB
  0
ENDSEC
  0
SECTION
  2
BLOCKS
  0
ENDSEC
  0
SECTION
  2
ENTITIES
  0
POINT
  8
_0-1_
 62
    4
 10
442.60344542927146
 20
945.22699735486549
  0
LINE
  8
_0-1_
  6
CONTINUOUS
 62
    4
 10
442.60344542927146
 20
945.22699735486549
 11
556.6402313047239
 21
945.22699735486549
  0
LINE
  8
_0-0_
  6
CONTINUOUS
 62
    4
 10
1397.6256206076264
 20
134.02699735486584
 11
1098.6256206076257
 21
134.02699735486584
  0
LINE
  8
_0-0_
  6
CONTINUOUS
 62
    4
 10
2091.8256206076258
 20
89.826997354865625
 11
1493.8256206076262
 21
89.826997354865625
  0
LINE
  8
_0-0_
  6
CONTINUOUS
 62
    4
 10
1683.6256206076259
 20
141.82699735486557
 11
2076.2256206076263
 21
141.82699735486557
  0
LINE
  8
_0-0_
  6
CONTINUOUS
 62
    4
 10
1668.025620607626
 20
32.626997354865352
 11
1668.0256206076263
 21
193.82699735486563
  0
LINE
  8
_0-0_
  6
CONTINUOUS
 62
    4
 10
1098.6256206076257
 20
256.22699735486583
 11
2091.8256206076258
 21
256.22699735486583
  0
LINE
  8
_0-0_
  6
CONTINUOUS
 62
    4
 10
1098.6256206076257
 20
193.82699735486563
 11
2091.8256206076267
 21
193.82699735486545
  0
LINE
  8
_0-0_
  6
CONTINUOUS
 62
    4
 10
1322.2256206076258
 20
256.22699735486583
 11
1322.2256206076258
 21
193.82699735486591
  0
TEXT
  8
_0-0_
 62
    7
 10
1591.2534617989184
 20
198.88699350678996
 40
18.999999761581421
 41
1.178947400782578
 50
0
  1
Å|
  0
LINE
  8
_0-0_
  6
CONTINUOUS
 62
    4
 10
1493.8256206076262
 20
256.22699735486555
 11
1493.8256206076262
 21
32.6269973548645
  0
LINE
  8
_0-0_
  6
CONTINUOUS
 62
    4
 10
1972.2256206076258
 20
256.22699735486583
 11
1972.2256206076258
 21
193.82699735486591
  0
LINE
  8
_0-0_
  6
CONTINUOUS
 62
    4
 10
1852.6256206076273
 20
193.82699735486563
 11
1852.6256206076273
 21
256.22699735486583
  0
LINE
  8
_0-0_
  6
CONTINUOUS
 62
    4
 10
1647.2256206076263
 20
193.82699735486563
 11
1647.2256206076258
 21
256.22699735486583
  0
LINE
  8
_0-0_
  6
CONTINUOUS
 62
    4
 10
1561.2965564415172
 20
42.63804347354295
 11
1590.4165564415166
 21
37.646043473542932
  0
LINE
  8
_0-0_
  6
CONTINUOUS
 62
    4
 10
1590.4165564415166
 20
60.110043473542589
 11
1590.4165564415166
 21
37.646043473542932
  0
LINE
  8
_0-0_
  6
CONTINUOUS
 62
    4
 10
1561.2965564415172
 20
55.118043473542855
 11
1590.4165564415166
 21
60.110043473542589
  0
LINE
  8
_0-0_
  6
CONTINUOUS
 62
    4
 10
1561.2965564415172
 20
55.118043473542855
 11
1561.2965564415172
 21
42.63804347354295
  0
CIRCLE
  8
_0-0_
  6
CONTINUOUS
 62
    4
 10
1544.6565564415164
 20
48.878043473542903
 40
6.2400000000000002
  0
CIRCLE
  8
_0-0_
  6
CONTINUOUS
 62
    4
 10
1544.6565564415164
 20
48.878043473542903
 40
11.440000000000003
  0
LINE
  8
_0-0_
  6
_
 62
    7
 10
1594.868990179702
 20
48.878043473542903
 11
1530.4894414143221
 21
48.878043473542903
  0
LINE
  8
_0-0_
  6
_
 62
    7
 10
1544.6565564415164
 20
36.050617842216184
 11
1544.6565564415164
 21
62.642036573345479
  0
LINE
  8
_0-0_
  6
CONTINUOUS
 62
    4
 10
1657.6256206076259
 20
141.82699735486557
 11
1504.2256206076258
 21
141.82699735486557
  0
LINE
  8
_0-0_
  6
CONTINUOUS
 62
    4
 10
1397.6256206076257
 20
32.626997354865352
 11
1397.6256206076268
 21
193.82699735486563
  0
LINE
  8
_0-0_
  6
CONTINUOUS
 62
    4
 10
1493.8256206076262
 20
102.82699735486567
 11
1397.6256206076264
 21
102.82699735486567
  0
LINE
  8
_0-0_
  6
CONTINUOUS
 62
    4
 10
1397.6256206076264
 20
102.82699735486567
 11
1098.6256206076257
 21
102.82699735486581
  0
TEXT
  8
_0-0_
 62
    7
 10
1626.8193473032943
 20
39.87804396474445
 40
17.999999523162838
 41
1.060606088702527
 50
0
  1
Ç`ÇR
  0
LINE
  8
_0-0_
  6
CONTINUOUS
 62
    4
 10
1098.6256206076257
 20
256.22699735486583
 11
1098.6256206076257
 21
32.626997354865352
  0
TEXT
  8
_0-0_
 62
    7
 10
1328.7597382782469
 20
237.281614545227
 40
16.000000238418579
 41
1.0422794146408489
 50
0
  1
Material
  0
TEXT
  8
_0-0_
 62
    7
 10
1104.6594441517639
 20
237.281614545227
 40
16.000000238418579
 41
1.0422794146408489
 50
0
  1
Model
  0
LINE
  8
_0-0_
  6
CONTINUOUS
 62
    3
 10
2091.8256206076262
 20
32.626997354865352
 11
2091.8256206076267
 21
1467.8269973548661
  0
LINE
  8
_0-0_
  6
CONTINUOUS
 62
    3
 10
11.825620607625353
 20
32.626997354865921
 11
2091.8256206076262
 21
32.626997354865352
  0
LINE
  8
_0-0_
  6
CONTINUOUS
 62
    3
 10
11.825620607625353
 20
1467.8269973548665
 11
11.825620607625353
 21
32.626997354865921
  0
LINE
  8
_0-0_
  6
CONTINUOUS
 62
    3
 10
2091.8256206076267
 20
1467.8269973548661
 11
11.825620607625353
 21
1467.8269973548665
  0
TEXT
  8
_0-0_
 62
    7
 10
1375.5245918667019
 20
198.88695383393843
 40
18.999999761581421
 41
1.025171652854415
 50
0
  1
SPCC
  0
TEXT
  8
_0-0_
 62
    7
 10
1498.5847115318895
 20
122.90700517022678
 40
16.000000238418579
 41
1.0738636393269361
 50
0
  1
Grade
  0
TEXT
  8
_0-0_
 62
    7
 10
1549.1006294817305
 20
97.590806439758069
 40
16.000000238418579
 41
1.018318968327266
 50
0
  1
ÇçÅiMediumÅj
  0
TEXT
  8
_0-0_
 62
    7
 10
1499.5959355991008
 20
72.467001202942072
 40
16.000000238418579
 41
1.0422794146408489
 50
0
  1
Projection method
  0
TEXT
  8
_0-0_
 62
    7
 10
1401.136648229849
 20
84.998464825988549
 40
16.000000238418579
 41
1.0738636393269361
 50
0
  1
Unit
  0
TEXT
  8
_0-0_
 62
    7
 10
1430.5074387894444
 20
47.006486729026733
 40
17.999999523162838
 41
1.060606088702527
 50
0
  1
mm
  0
TEXT
  8
_0-0_
 62
    7
 10
1401.0847115318893
 20
174.90700517022697
 40
16.000000238418579
 41
1.0738636393269361
 50
0
  1
Scale
  0
TEXT
  8
_0-0_
 62
    7
 10
1254.3262088605916
 20
174.90700517022697
 40
16.000000238418579
 41
1.0422794146408489
 50
0
  1
Finish
  0
TEXT
  8
_0-0_
 62
    7
 10
1104.4773447570672
 20
174.90700517022697
 40
16.000000238418579
 41
1.018318968327266
 50
0
  1
Date
  0
TEXT
  8
_0-0_
 62
    7
 10
1223.932925945971
 20
110.93447414048789
 40
15
 41
1.103030262571393
 50
0
  1
Author
  0
TEXT
  8
_0-0_
 62
    7
 10
1246.1735793558883
 20
42.025086802864848
 40
15
 41
1.103030262571393
 50
0
  1
ASsystem Co.,Ltd
  0
LINE
  8
_0-0_
  6
CONTINUOUS
 62
    4
 10
1248.1256206076257
 20
193.82699735486563
 11
1248.1256206076257
 21
134.02699735486584
  0
TEXT
  8
_0-0_
 62
    7
 10
1544.2975423638472
 20
146.82699723565656
 40
16.000000238418579
 41
1.001059324796296
 50
0
  1
JIS B 0405
  0
TEXT
  8
_0-0_
 62
    7
 10
1500.7745829256241
 20
174.90700517022697
 40
16.000000238418579
 41
1.002948115975157
 50
0
  1
Machining tolerance
  0
TEXT
  8
_0-0_
 62
    7
 10
1501.3603265312117
 20
237.281614545227
 40
16.000000238418579
 41
1.0422794146408489
 50
0
  1
Heat treatment
  0
TEXT
  8
_0-0_
 62
    7
 10
1654.3509455472717
 20
237.281614545227
 40
16.000000238418579
 41
1.027173915877938
 50
0
  1
Surface
  0
TEXT
  8
_0-0_
 62
    7
 10
1654.1154696396661
 20
200.18989850640344
 40
18.999999761581421
 41
1.178947400782578
 50
0
  1
Matte black paint
  0
TEXT
  8
_0-0_
 62
    7
 10
1672.5596628333403
 20
171.82697775685875
 40
17.999999523162838
 41
1.014492780498069
 50
0
  1
Equipment
  0
TEXT
  8
_0-0_
 62
    7
 10
1796.3077718166503
 20
147.94696958386987
 40
20
 41
1.0069231051665091
 50
0
  1
CO2 Laser Cutter
  0
TEXT
  8
_0-0_
 62
    7
 10
1860.8619089267104
 20
239.05984124494302
 40
16.000000238418579
 41
1.0422794146408489
 50
0
  1
Quantity
  0
TEXT
  8
_0-2_
 62
    7
 10
1979.8270588661653
 20
238.92246027413171
 40
15
 41
1.103030262571393
 50
0
  1
Thickness
  0
TEXT
  8
_0-2_
 62
    7
 10
2016.4770786379042
 20
201.94226014408898
 40
15
 41
1.103030262571393
 50
0
  1
1.2mm
  0
TEXT
  8
_0-0_
 62
    7
 10
1175.3167990003985
 20
61.12561865131255
 40
15
 41
1.103030262571393
 50
0
  1
Hirotaka Shiojima
  0
LINE
  8
_0-1_
  6
CENTER1
 62
    4
 10
1041.2808523411395
 20
750.22699735486549
 11
1065.7128430544024
 21
750.22699735486549
  0
LINE
  8
_0-1_
  6
CENTER1
 62
    4
 10
1051.825620607626
 20
762.02923608495416
 11
1051.825620607626
 21
737.02880989364655
  0
TEXT
  8
_0-0_
 62
    7
 10
1123.0212791765291
 20
199.50907659386507
 40
18.999999761581421
 41
1.0717703643477983
 50
0
  1
Cover bottom
  0
LINE
  8
_0-1_
  6
CENTER1
 62
    4
 10
633.82562060762586
 20
587.336098894413
 11
633.82562060762586
 21
526.09120055697531
  0
LINE
  8
_0-1_
  6
CENTER1
 62
    4
 10
1469.8256206076258
 20
593.95716898494686
 11
1469.8256206076258
 21
540.9886082606763
  0
LINE
  8
_0-1_
  6
CENTER1
 62
    4
 10
1030.1759541602905
 20
945.22699735486549
 11
1089.2319464901861
 21
945.22699735486549
  0
LINE
  8
_0-1_
  6
CENTER1
 62
    4
 10
612.47784174363323
 20
555.22699735486549
 11
658.41028022244109
 21
555.22699735486549
  0
LINE
  8
_0-1_
  6
CENTER1
 62
    4
 10
1030.1759541602905
 20
555.22699735486549
 11
1089.2319464901861
 21
555.22699735486549
  0
LINE
  8
_0-1_
  6
CENTER1
 62
    4
 10
1450.1296773951037
 20
555.22699735486549
 11
1487.8598947169814
 21
555.22699735486549
  0
LINE
  8
_0-1_
  6
CENTER1
 62
    4
 10
1051.825620607626
 20
968.04762910010697
 11
1051.825620607626
 21
915.07906837583641
  0
LINE
  8
_0-1_
  6
CENTER1
 62
    4
 10
1051.825620607626
 20
593.95716898494686
 11
1051.825620607626
 21
540.9886082606763
  0
CIRCLE
  8
_0-2_
  6
CONTINUOUS
 62
    7
 10
1051.825620607626
 20
945.22699735486549
 40
2.75
  0
CIRCLE
  8
_0-2_
  6
CONTINUOUS
 62
    7
 10
633.82562060762586
 20
555.22699735486549
 40
2.75
  0
CIRCLE
  8
_0-2_
  6
CONTINUOUS
 62
    7
 10
1051.825620607626
 20
555.22699735486549
 40
2.75
  0
CIRCLE
  8
_0-2_
  6
CONTINUOUS
 62
    7
 10
1469.8256206076258
 20
555.22699735486549
 40
2.75
  0
LINE
  8
_0-8_
  6
CONTINUOUS
 62
    4
 10
1517.9179319631373
 20
603.91125574525881
 11
1592.1393047891497
 21
603.91125574525881
  0
LINE
  8
_0-8_
  6
CONTINUOUS
 62
    4
 10
1471.8071205041742
 20
557.80044428629549
 11
1517.9179319631373
 21
603.91125574525881
  0
LINE
  8
_0-8_
  6
CONTINUOUS
 62
    4
 10
1471.8071205041742
 20
557.80044428629549
 11
1479.3071205041742
 21
570.79082534306212
  0
LINE
  8
_0-8_
  6
CONTINUOUS
 62
    4
 10
1471.8071205041742
 20
557.80044428629549
 11
1484.7975015609406
 21
565.30044428629549
  0
LINE
  8
_0-8_
  6
CONTINUOUS
 62
    4
 10
603.82562060762586
 20
1199.4303078150574
 11
1499.8256206076258
 21
1199.4303078150574
  0
POINT
  8
_0-8_
 62
    4
 10
603.82562060762586
 20
1199.4303078150574
  0
POINT
  8
_0-8_
 62
    4
 10
1499.8256206076258
 20
1199.4303078150574
  0
LINE
  8
_0-8_
  6
CONTINUOUS
 62
    4
 10
603.82562060762586
 20
1199.4303078150574
 11
603.82562060762586
 21
987.60664068512187
  0
LINE
  8
_0-8_
  6
CONTINUOUS
 62
    4
 10
1499.8256206076258
 20
1199.4303078150574
 11
1499.8256206076258
 21
987.60664068512187
  0
TEXT
  8
_0-8_
 62
    4
 10
1042.450620607626
 20
1201.9303078150574
 40
12.5
 41
1
 50
0
  1
896
  0
LINE
  8
_0-8_
  6
CONTINUOUS
 62
    4
 10
603.82562060762586
 20
1094.3030063505707
 11
603.82562060762586
 21
987.60664068512187
  0
LINE
  8
_0-8_
  6
CONTINUOUS
 62
    4
 10
1499.8256206076258
 20
1094.3030063505707
 11
1499.8256206076258
 21
987.60664068512187
  0
TEXT
  8
_0-0_
 62
    7
 10
1932.9296204869866
 20
199.92701731050096
 40
18.999999761581421
 41
1.178947400782578
 50
0
  1
2
  0
TEXT
  8
_0-8_
 62
    7
 10
1519.9924469981008
 20
605.98577078022242
 40
15
 41
1.103030262571393
 50
0
  1
É”5.5+ Å~8
  0
LINE
  8
_0-1_
  6
CONTINUOUS
 62
    4
 10
1499.8256206076258
 20
1081.1230789374026
 11
1499.8256206076258
 21
987.60664068512187
  0
LINE
  8
_0-1_
  6
CONTINUOUS
 62
    4
 10
1581.0298019495931
 20
953.22699735486549
 11
1581.0298019495931
 21
945.22699735486549
  0
POINT
  8
_0-1_
 62
    4
 10
1581.0298019495931
 20
953.22699735486549
  0
POINT
  8
_0-1_
 62
    4
 10
1581.0298019495931
 20
945.22699735486549
  0
LINE
  8
_0-1_
  6
CONTINUOUS
 62
    4
 10
1581.0298019495931
 20
953.22699735486549
 11
1520.6614996847416
 21
953.22699735486549
  0
LINE
  8
_0-1_
  6
CONTINUOUS
 62
    4
 10
1581.0298019495931
 20
945.22699735486549
 11
1520.6614996847416
 21
945.22699735486549
  0
TEXT
  8
_0-1_
 62
    4
 10
1578.5298019495931
 20
946.1019973548656
 40
12.5
 41
1
 50
90
  1
8
  0
LINE
  8
_0-1_
  6
CONTINUOUS
 62
    4
 10
1557.1976129505679
 20
489.88407263341844
 11
1609.6886520662713
 21
489.88407263341844
  0
LINE
  8
_0-1_
  6
CONTINUOUS
 62
    4
 10
1500.2161899577097
 20
546.86549562627658
 11
1557.1976129505679
 21
489.88407263341844
  0
LINE
  8
_0-1_
  6
CONTINUOUS
 62
    4
 10
1500.2161899577097
 20
546.86549562627658
 11
1513.2065710144764
 21
539.36549562627658
  0
LINE
  8
_0-1_
  6
CONTINUOUS
 62
    4
 10
1500.2161899577097
 20
546.86549562627658
 11
1507.7161899577097
 21
533.87511456950995
  0
TEXT
  8
_0-0_
 62
    7
 10
1674.609398899217
 20
68.677087620139901
 40
17.999999523162838
 41
1.029411791975982
 50
0
  1
Drawing number
  0
LINE
  8
_0-2_
  6
CONTINUOUS
 62
    7
 10
603.82562060762586
 20
549.22699735486549
 11
603.82562060762586
 21
951.22699735486549
  0
ARC
  8
_0-2_
  6
CONTINUOUS
 62
    7
 10
605.82562060762586
 20
549.22699735486549
 40
2
 50
180
 51
270
  0
LINE
  8
_0-2_
  6
CONTINUOUS
 62
    7
 10
1497.8256206076258
 20
547.2269973548656
 11
605.82562060762586
 21
547.2269973548656
  0
ARC
  8
_0-2_
  6
CONTINUOUS
 62
    7
 10
1497.8256206076258
 20
549.22699735486549
 40
2
 50
270
 51
0
  0
LINE
  8
_0-2_
  6
CONTINUOUS
 62
    7
 10
1497.8256206076258
 20
953.22699735486549
 11
605.82562060762586
 21
953.22699735486549
  0
LINE
  8
_0-2_
  6
CONTINUOUS
 62
    7
 10
1499.8256206076258
 20
951.22699735486549
 11
1499.8256206076258
 21
549.22699735486549
  0
ARC
  8
_0-2_
  6
CONTINUOUS
 62
    7
 10
1497.8256206076258
 20
951.22699735486549
 40
2
 50
0
 51
90
  0
TEXT
  8
_0-1_
 62
    7
 10
1560.5389392550405
 20
491.7777527924203
 40
15
 41
1.103030262571393
 50
0
  1
4Å~R2
  0
LINE
  8
_0-1_
  6
CONTINUOUS
 62
    4
 10
330.89797161227892
 20
953.22699735486572
 11
330.89797161227892
 21
547.2269973548656
  0
POINT
  8
_0-1_
 62
    4
 10
330.89797161227892
 20
953.22699735486572
  0
POINT
  8
_0-1_
 62
    4
 10
330.89797161227892
 20
547.2269973548656
  0
LINE
  8
_0-1_
  6
CONTINUOUS
 62
    4
 10
330.89797161227892
 20
953.22699735486572
 11
556.6402313047239
 21
953.22699735486572
  0
LINE
  8
_0-1_
  6
CONTINUOUS
 62
    4
 10
330.89797161227892
 20
547.2269973548656
 11
556.6402313047239
 21
547.2269973548656
  0
TEXT
  8
_0-1_
 62
    4
 10
328.39797161227892
 20
740.85199735486549
 40
12.5
 41
1
 50
90
  1
406
  0
LINE
  8
_0-1_
  6
CONTINUOUS
 62
    4
 10
442.60344542927146
 20
953.22699735486549
 11
442.60344542927146
 21
945.22699735486549
  0
POINT
  8
_0-1_
 62
    4
 10
442.60344542927146
 20
953.22699735486549
  0
LINE
  8
_0-1_
  6
CONTINUOUS
 62
    4
 10
442.60344542927146
 20
953.22699735486549
 11
556.6402313047239
 21
953.22699735486549
  0
POINT
  8
_0-1_
 62
    4
 10
442.60344542927146
 20
555.22699735486549
  0
LINE
  8
_0-1_
  6
CONTINUOUS
 62
    4
 10
442.60344542927146
 20
555.22699735486549
 11
556.6402313047239
 21
555.22699735486549
  0
LINE
  8
_0-1_
  6
CONTINUOUS
 62
    4
 10
442.60344542927146
 20
555.22699735486549
 11
442.60344542927146
 21
547.2269973548656
  0
POINT
  8
_0-1_
 62
    4
 10
442.60344542927146
 20
547.2269973548656
  0
LINE
  8
_0-1_
  6
CONTINUOUS
 62
    4
 10
442.60344542927146
 20
547.2269973548656
 11
556.6402313047239
 21
547.2269973548656
  0
TEXT
  8
_0-1_
 62
    4
 10
440.10344542927146
 20
548.1019973548656
 40
12.5
 41
1
 50
90
  1
8
  0
TEXT
  8
_0-1_
 62
    4
 10
438.94286275043214
 20
945.82265247331543
 40
12.5
 41
1
 50
90
  1
8
  0
TEXT
  8
_0-0_
 62
    7
 10
1779.4794667614728
 20
38.826996878028694
 40
24.000000953674316
 41
0.9871794479524999
 50
0
  1
laser-150912-06
  0
TEXT
  8
_0-0_
 62
    7
 10
1114.235275406224
 20
141.62697739923084
 40
16.000000238418579
 41
0.965801836975482
 50
0
  1
12/Sep/2015
  0
LINE
  8
_0-1_
  6
CENTER1
 62
    4
 10
642.47784174363323
 20
945.22699735486549
 11
688.41028022244109
 21
945.22699735486549
  0
CIRCLE
  8
_0-2_
  6
CONTINUOUS
 62
    7
 10
661.82562060762598
 20
945.22699735486549
 40
2.75
  0
LINE
  8
_0-1_
  6
CENTER1
 62
    4
 10
661.82562060762598
 20
977.9792342359076
 11
661.82562060762598
 21
909.78583133637869
  0
LINE
  8
_0-1_
  6
CENTER1
 62
    4
 10
1420.1296773951037
 20
945.22699735486549
 11
1457.8598947169814
 21
945.22699735486549
  0
CIRCLE
  8
_0-2_
  6
CONTINUOUS
 62
    7
 10
1441.825620607626
 20
945.22699735486549
 40
2.75
  0
LINE
  8
_0-1_
  6
CENTER1
 62
    4
 10
1441.825620607626
 20
968.04762910010697
 11
1441.825620607626
 21
915.07906837583641
  0
ARC
  8
_0-2_
  6
CONTINUOUS
 62
    7
 10
605.82562060762586
 20
951.22699735486549
 40
2
 50
90
 51
180
  0
LINE
  8
_0-1_
  6
CENTER1
 62
    4
 10
1480.7662889662347
 20
928.22699735486549
 11
1468.1029429715995
 21
928.22699735486549
  0
CIRCLE
  8
_0-2_
  6
CONTINUOUS
 62
    7
 10
1474.8256206076258
 20
928.22699735486549
 40
2.75
  0
LINE
  8
_0-1_
  6
CENTER1
 62
    4
 10
1474.8256206076258
 20
928.22699735486549
 11
1474.8256206076258
 21
952.8335251131075
  0
LINE
  8
_0-1_
  6
CENTER1
 62
    4
 10
1474.8256206076258
 20
928.22699735486549
 11
1474.8256206076258
 21
906.0859489459209
  0
LINE
  8
_0-1_
  6
CONTINUOUS
 62
    4
 10
603.82562060762586
 20
1106.5961146899831
 11
661.82562060762598
 21
1106.5961146899831
  0
POINT
  8
_0-1_
 62
    4
 10
603.82562060762586
 20
1106.5961146899831
  0
POINT
  8
_0-1_
 62
    4
 10
661.82562060762598
 20
1106.5961146899831
  0
LINE
  8
_0-1_
  6
CONTINUOUS
 62
    4
 10
603.82562060762586
 20
1106.5961146899831
 11
603.82562060762586
 21
987.60664068512187
  0
LINE
  8
_0-1_
  6
CONTINUOUS
 62
    4
 10
661.82562060762598
 20
1106.5961146899831
 11
661.82562060762598
 21
987.60664068512187
  0
TEXT
  8
_0-1_
 62
    4
 10
626.57562060762586
 20
1109.0961146899831
 40
12.5
 41
1
 50
0
  1
58
  0
LINE
  8
_0-1_
  6
CONTINUOUS
 62
    4
 10
661.82562060762598
 20
1106.5961146899831
 11
1051.825620607626
 21
1106.5961146899831
  0
POINT
  8
_0-1_
 62
    4
 10
1051.825620607626
 20
1106.5961146899831
  0
LINE
  8
_0-1_
  6
CONTINUOUS
 62
    4
 10
1051.825620607626
 20
1106.5961146899831
 11
1051.825620607626
 21
987.60664068512187
  0
TEXT
  8
_0-1_
 62
    4
 10
847.45062060762598
 20
1109.0961146899831
 40
12.5
 41
1
 50
0
  1
390
  0
LINE
  8
_0-1_
  6
CONTINUOUS
 62
    4
 10
1051.825620607626
 20
1106.5961146899831
 11
1441.825620607626
 21
1106.5961146899831
  0
POINT
  8
_0-1_
 62
    4
 10
1441.825620607626
 20
1106.5961146899831
  0
LINE
  8
_0-1_
  6
CONTINUOUS
 62
    4
 10
1441.825620607626
 20
1106.5961146899831
 11
1441.825620607626
 21
987.60664068512187
  0
TEXT
  8
_0-1_
 62
    4
 10
1237.450620607626
 20
1109.0961146899831
 40
12.5
 41
1
 50
0
  1
390
  0
LINE
  8
_0-1_
  6
CONTINUOUS
 62
    4
 10
1441.825620607626
 20
1106.5961146899831
 11
1499.8256206076258
 21
1106.5961146899831
  0
POINT
  8
_0-1_
 62
    4
 10
1499.8256206076258
 20
1106.5961146899831
  0
LINE
  8
_0-1_
  6
CONTINUOUS
 62
    4
 10
1499.8256206076258
 20
1106.5961146899831
 11
1499.8256206076258
 21
987.60664068512187
  0
TEXT
  8
_0-1_
 62
    4
 10
1464.575620607626
 20
1109.0961146899831
 40
12.5
 41
1
 50
0
  1
58
  0
LINE
  8
_0-1_
  6
CENTER1
 62
    4
 10
628.82562060762586
 20
938.53131639914807
 11
628.82562060762586
 21
918.86601665434318
  0
LINE
  8
_0-1_
  6
CENTER1
 62
    4
 10
620.04964287497592
 20
928.22699735486549
 11
644.55700055681746
 21
928.22699735486549
  0
CIRCLE
  8
_0-2_
  6
CONTINUOUS
 62
    7
 10
628.82562060762586
 20
928.22699735486549
 40
2.75
  0
LINE
  8
_0-1_
  6
CONTINUOUS
 62
    4
 10
628.82562060762586
 20
852.7746557716066
 11
603.82562060762586
 21
852.7746557716066
  0
POINT
  8
_0-1_
 62
    4
 10
628.82562060762586
 20
852.7746557716066
  0
POINT
  8
_0-1_
 62
    4
 10
603.82562060762586
 20
852.7746557716066
  0
LINE
  8
_0-1_
  6
CONTINUOUS
 62
    4
 10
628.82562060762586
 20
852.7746557716066
 11
628.82562060762586
 21
905.90087931869016
  0
LINE
  8
_0-1_
  6
CONTINUOUS
 62
    4
 10
603.82562060762586
 20
852.7746557716066
 11
603.82562060762586
 21
905.90087931869016
  0
TEXT
  8
_0-1_
 62
    4
 10
610.07562060762586
 20
855.2746557716066
 40
12.5
 41
1
 50
0
  1
25
  0
LINE
  8
_0-1_
  6
CONTINUOUS
 62
    4
 10
719.28061000947832
 20
953.22699735486549
 11
719.28061000947832
 21
928.22699735486549
  0
POINT
  8
_0-1_
 62
    4
 10
719.28061000947832
 20
953.22699735486549
  0
POINT
  8
_0-1_
 62
    4
 10
719.28061000947832
 20
928.22699735486549
  0
LINE
  8
_0-1_
  6
CONTINUOUS
 62
    4
 10
719.28061000947832
 20
953.22699735486549
 11
646.98101255066513
 21
953.22699735486549
  0
LINE
  8
_0-1_
  6
CONTINUOUS
 62
    4
 10
719.28061000947832
 20
928.22699735486549
 11
646.98101255066513
 21
928.22699735486549
  0
TEXT
  8
_0-1_
 62
    4
 10
716.78061000947832
 20
934.47699735486549
 40
12.5
 41
1
 50
90
  1
25
  0
LINE
  8
_0-1_
  6
CONTINUOUS
 62
    4
 10
1474.8256206076258
 20
852.7746557716066
 11
1499.8256206076258
 21
852.7746557716066
  0
POINT
  8
_0-1_
 62
    4
 10
1474.8256206076258
 20
852.7746557716066
  0
POINT
  8
_0-1_
 62
    4
 10
1499.8256206076258
 20
852.7746557716066
  0
LINE
  8
_0-1_
  6
CONTINUOUS
 62
    4
 10
1474.8256206076258
 20
852.7746557716066
 11
1474.8256206076258
 21
905.90087931869016
  0
LINE
  8
_0-1_
  6
CONTINUOUS
 62
    4
 10
1499.8256206076258
 20
852.7746557716066
 11
1499.8256206076258
 21
905.90087931869016
  0
TEXT
  8
_0-1_
 62
    4
 10
1481.0756206076258
 20
855.2746557716066
 40
12.5
 41
1
 50
0
  1
25
  0
LINE
  8
_0-1_
  6
CONTINUOUS
 62
    4
 10
1393.6557906991502
 20
953.22699735486549
 11
1393.6557906991502
 21
928.22699735486549
  0
POINT
  8
_0-1_
 62
    4
 10
1393.6557906991502
 20
953.22699735486549
  0
POINT
  8
_0-1_
 62
    4
 10
1393.6557906991502
 20
928.22699735486549
  0
LINE
  8
_0-1_
  6
CONTINUOUS
 62
    4
 10
1393.6557906991502
 20
953.22699735486549
 11
1451.7319075319851
 21
953.22699735486549
  0
LINE
  8
_0-1_
  6
CONTINUOUS
 62
    4
 10
1393.6557906991502
 20
928.22699735486549
 11
1451.7319075319851
 21
928.22699735486549
  0
TEXT
  8
_0-1_
 62
    4
 10
1391.1557906991502
 20
934.47699735486549
 40
12.5
 41
1
 50
90
  1
25
  0
LINE
  8
_0-1_
  6
CONTINUOUS
 62
    4
 10
442.60344542927146
 20
945.22699735486549
 11
442.60344542927146
 21
555.22699735486549
  0
POINT
  8
_0-1_
 62
    4
 10
442.60344542927146
 20
945.22699735486549
  0
POINT
  8
_0-1_
 62
    4
 10
442.60344542927146
 20
555.22699735486549
  0
LINE
  8
_0-1_
  6
CONTINUOUS
 62
    4
 10
442.60344542927146
 20
945.22699735486549
 11
556.6402313047239
 21
945.22699735486549
  0
LINE
  8
_0-1_
  6
CONTINUOUS
 62
    4
 10
442.60344542927146
 20
555.22699735486549
 11
556.6402313047239
 21
555.22699735486549
  0
TEXT
  8
_0-1_
 62
    4
 10
440.10344542927146
 20
740.85199735486549
 40
12.5
 41
1
 50
90
  1
390
  0
ENDSEC
  0
EOF
