  0
SECTION
  2
HEADER
  9
$ACADVER
  1
AC1009
  9
$INSBASE
 10
0
 20
0
 30
0
  9
$EXTMIN
 10
0
 20
0
  9
$EXTMAX
 10
210
 20
148.5
  9
$LIMMIN
 10
0
 20
0
  9
$LIMMAX
 10
210
 20
148.5
  9
$LTSCALE
 40
0.5
  0
ENDSEC
  0
SECTION
  2
TABLES
  0
TABLE
  2
LTYPE
 70
     9
  0
LTYPE
  2
CONTINUOUS
 70
    64
  3
é¿ê¸
 72
    65
 73
     0
 40
0.0
  0
LTYPE
  2
DASHED1
 70
    64
  3
--  --  --  --  --  --  --  --  
 72
    65
 73
     2
 40
2.5
 49
1.25
 49
-1.25
  0
LTYPE
  2
DASHED2
 70
    64
  3
----    ----    ----    ----    
 72
    65
 73
     2
 40
5.0
 49
2.5
 49
-2.5
  0
LTYPE
  2
DASHED3
 70
    64
  3
------  ------  ------  ------  
 72
    65
 73
     2
 40
5.0
 49
3.75
 49
-1.25
  0
LTYPE
  2
CENTER1
 70
    64
  3
----- - ----- - ----- - ----- - 
 72
    65
 73
     4
 40
10.0
 49
6.25
 49
-1.25
 49
1.25
 49
-1.25
  0
LTYPE
  2
CENTER2
 70
    64
  3
----------  --  ----------  --  
 72
    65
 73
     4
 40
20.0
 49
12.5
 49
-2.5
 49
2.5
 49
-2.5
  0
LTYPE
  2
PHANTOM1
 70
    64
  3
--- - - --- - - --- - - --- - - 
 72
    65
 73
     6
 40
10.0
 49
3.25
 49
-1.25
 49
1.25
 49
-1.25
 49
1.25
 49
-1.25
  0
LTYPE
  2
PHANTOM2
 70
    64
  3
--------  -  -  --------  -  -  
 72
    65
 73
     6
 40
20.0
 49
10.0
 49
-2.5
 49
1.25
 49
-2.5
 49
1.25
 49
-2.5
  0
LTYPE
  2
DOT
 70
    64
  3
-   -   -   -   -   -   -   -   
 72
    65
 73
     2
 40
2.5
 49
0.625
 49
-1.875
  0
LTYPE
  2
DUMMY
 70
    64
  3
É_É~Å[
 72
    65
 73
     0
 40
0.0
  0
LTYPE
  2
RAND1
 70
    64
  3
ÉâÉìÉ_ÉÄê¸1
 72
    65
 73
     4
 40
10.0
 49
1.0
 49
-2.0
 49
3.0
 49
-4.0
  0
LTYPE
  2
RAND2
 70
    64
  3
ÉâÉìÉ_ÉÄê¸2
 72
    65
 73
     4
 40
14.0
 49
2.0
 49
-3.0
 49
4.0
 49
-5.0
  0
LTYPE
  2
RAND3
 70
    64
  3
ÉâÉìÉ_ÉÄê¸3
 72
    65
 73
     4
 40
18.0
 49
3.0
 49
-4.0
 49
5.0
 49
-6.0
  0
LTYPE
  2
RAND4
 70
    64
  3
ÉâÉìÉ_ÉÄê¸4
 72
    65
 73
     4
 40
22.0
 49
4.0
 49
-5.0
 49
6.0
 49
-7.0
  0
LTYPE
  2
RAND5
 70
    64
  3
ÉâÉìÉ_ÉÄê¸5
 72
    65
 73
     4
 40
26.0
 49
5.0
 49
-6.0
 49
7.0
 49
-8.0
  0
LTYPE
  2
LONG1
 70
    64
  3
----------  --  ----------  --  
 72
    65
 73
     4
 40
40.0
 49
32.5
 49
-2.5
 49
2.5
 49
-2.5
  0
LTYPE
  2
LONG2
 70
    64
  3
--------  -  -  --------  -  -  
 72
    65
 73
     6
 40
40.0
 49
30.0
 49
-2.5
 49
1.25
 49
-2.5
 49
1.25
 49
-2.5
  0
LTYPE
  2
LONG3
 70
    64
  3
+++++++++++++++..+++++++++++++++
 72
    65
 73
     2
 40
40.0
 49
37.5
 49
-2.5
  0
LTYPE
  2
LONG4
 70
    64
  3
+++++++++++++++..+++++++++++++++
 72
    65
 73
     2
 40
80.0
 49
75.0
 49
-5.0
  0
LTYPE
  2
LONG5
 70
    64
  3
----------  --  ----------  --  
 72
    65
 73
     4
 40
60.0
 49
37.5
 49
-7.5
 49
7.5
 49
-7.5
  0
LTYPE
  2
dashed
 70
   64
  3
-------   -------------   ------
 72
   65
 73
    2
 40
7.5
 49
6
 49
-1.5
  0
LTYPE
  2
dashed_spaced
 70
   64
  3
----        --------        ----
 72
   65
 73
    2
 40
12
 49
6
 49
-6
  0
LTYPE
  2
long_dashed_dotted
 70
   64
  3
------------- --- --------------
 72
   65
 73
    4
 40
15.25
 49
12
 49
-1.5
 49
0.25
 49
-1.5
  0
LTYPE
  2
long_dashed_double-dotted
 70
   64
  3
----------- --- --- ------------
 72
   65
 73
    6
 40
17
 49
12
 49
-1.5
 49
0.25
 49
-1.5
 49
0.25
 49
-1.5
  0
LTYPE
  2
long_dashed_triplicate-dotted
 70
   64
  3
--------- --- --- --- ----------
 72
   65
 73
    8
 40
18.75
 49
12
 49
-1.5
 49
0.25
 49
-1.5
 49
0.25
 49
-1.5
 49
0.25
 49
-1.5
  0
LTYPE
  2
dotted
 70
   64
  3
   -       -       -       -    
 72
   65
 73
    2
 40
1.75
 49
0.25
 49
-1.5
  0
LTYPE
  2
chain
 70
   64
  3
-------------- -- --------------
 72
   65
 73
    4
 40
18.5
 49
12
 49
-1.5
 49
3.5
 49
-1.5
  0
LTYPE
  2
chain_double_dash
 70
   64
  3
------------ -- -- -------------
 72
   65
 73
    6
 40
23.5
 49
12
 49
-1.5
 49
3.5
 49
-1.5
 49
3.5
 49
-1.5
  0
LTYPE
  2
dashed_dotted
 70
   64
  3
-----------     -     ----------
 72
   65
 73
    4
 40
9.25
 49
6
 49
-1.5
 49
0.25
 49
-1.5
  0
LTYPE
  2
double-dashed_dotted
 70
   64
  3
------   -----------   -   -----
 72
   65
 73
    6
 40
16.75
 49
6
 49
-1.5
 49
6
 49
-1.5
 49
0.25
 49
-1.5
  0
LTYPE
  2
dashed_double-dotted
 70
   64
  3
---------    -    -    ---------
 72
   65
 73
    6
 40
11
 49
6
 49
-1.5
 49
0.25
 49
-1.5
 49
0.25
 49
-1.5
  0
LTYPE
  2
double-dashed_double-dotted
 70
   64
  3
-----   ---------   -   -   ----
 72
   65
 73
    8
 40
18.5
 49
6
 49
-1.5
 49
6
 49
-1.5
 49
0.25
 49
-1.5
 49
0.25
 49
-1.5
  0
LTYPE
  2
dashed_triplicate-dotted
 70
   64
  3
-------    -    -    -    ------
 72
   65
 73
    8
 40
12.75
 49
6
 49
-1.5
 49
0.25
 49
-1.5
 49
0.25
 49
-1.5
 49
0.25
 49
-1.5
  0
LTYPE
  2
double-dashed_triplicate-dotted
 70
   64
  3
-----  ---------  -  -  -  -----
 72
   65
 73
   10
 40
20.25
 49
6
 49
-1.5
 49
6
 49
-1.5
 49
0.25
 49
-1.5
 49
0.25
 49
-1.5
 49
0.25
 49
-1.5
  0
LTYPE
  2
undefined
 70
   64
  3
--------------------------------
 72
   65
 73
    0
 40
0
  0
LTYPE
  2
_
 70
   64
  3
                                
 72
   65
 73
    0
 40
0
  0
LTYPE
  2
__18
 70
   64
  3
                                
 72
   65
 73
    0
 40
0
  0
LTYPE
  2
__19
 70
   64
  3
                                
 72
   65
 73
    0
 40
0
  0
LTYPE
  2
__20
 70
   64
  3
                                
 72
   65
 73
    0
 40
0
  0
LTYPE
  2
__21
 70
   64
  3
                                
 72
   65
 73
    0
 40
0
  0
LTYPE
  2
__22
 70
   64
  3
                                
 72
   65
 73
    0
 40
0
  0
LTYPE
  2
__23
 70
   64
  3
                                
 72
   65
 73
    0
 40
0
  0
LTYPE
  2
__24
 70
   64
  3
                                
 72
   65
 73
    0
 40
0
  0
LTYPE
  2
__25
 70
   64
  3
                                
 72
   65
 73
    0
 40
0
  0
LTYPE
  2
__26
 70
   64
  3
                                
 72
   65
 73
    0
 40
0
  0
LTYPE
  2
__27
 70
   64
  3
                                
 72
   65
 73
    0
 40
0
  0
LTYPE
  2
__28
 70
   64
  3
                                
 72
   65
 73
    0
 40
0
  0
LTYPE
  2
__29
 70
   64
  3
                                
 72
   65
 73
    0
 40
0
  0
LTYPE
  2
__30
 70
   64
  3
                                
 72
   65
 73
    0
 40
0
  0
LTYPE
  2
__31
 70
   64
  3
                                
 72
   65
 73
    0
 40
0
  0
LTYPE
  2
__32
 70
   64
  3
                                
 72
   65
 73
    0
 40
0
  0
ENDTAB
  0
TABLE
  2
STYLE
  5
3
100
AcDbSymbolTable
 70
     1
  0
STYLE
  5
10
100
AcDbSymbolTableRecord
100
AcDbTextStyleTableRecord
  2
STANDARD
 70
     0
 40
0.0
 41
1.0
 50
0.0
 71
     0
 42
0.2
  3
txt
  4
bigfont.shx
  0
STYLE
  5
26
100
AcDbSymbolTableRecord
100
AcDbTextStyleTableRecord
  2
TATEGAKI
 70
    68
 40
0.0
 41
1.0
 50
0.0
 71
     0
 42
1.0
  3
txt
  4
bigfont.shx
  0
ENDTAB
  0
TABLE
  2
LAYER
 70
    5
  0
LAYER
  2
_0-0_
 70
   64
 62
    7
  6
CONTINUOUS
  0
LAYER
  2
_0-1_
 70
   64
 62
    7
  6
CONTINUOUS
  0
LAYER
  2
_0-2_
 70
   64
 62
    7
  6
CONTINUOUS
  0
LAYER
  2
_0-8_
 70
   64
 62
    7
  6
CONTINUOUS
  0
LAYER
  2
ADD_LINE
 70
   64
 62
    7
  6
CONTINUOUS
  0
ENDTAB
  0
ENDSEC
  0
SECTION
  2
BLOCKS
  0
ENDSEC
  0
SECTION
  2
ENTITIES
  0
LINE
  8
_0-0_
  6
CONTINUOUS
 62
    4
 10
138.23158611743949
 20
15.290571528029062
 11
109.48158611743943
 21
15.290571528029062
  0
LINE
  8
_0-0_
  6
CONTINUOUS
 62
    4
 10
204.98158611743935
 20
11.040571528029062
 11
147.48158611743943
 21
11.040571528029062
  0
LINE
  8
_0-0_
  6
CONTINUOUS
 62
    4
 10
165.73158611743943
 20
16.040571528029062
 11
203.48158611743943
 21
16.040571528029062
  0
LINE
  8
_0-0_
  6
CONTINUOUS
 62
    4
 10
164.23158611743943
 20
5.5405715280290337
 11
164.23158611743949
 21
21.040571528029062
  0
LINE
  8
_0-0_
  6
CONTINUOUS
 62
    4
 10
109.48158611743943
 20
27.040571528029062
 11
204.98158611743935
 21
27.040571528029062
  0
LINE
  8
_0-0_
  6
CONTINUOUS
 62
    4
 10
109.48158611743943
 20
21.040571528029062
 11
204.98158611743949
 21
21.040571528029062
  0
LINE
  8
_0-0_
  6
CONTINUOUS
 62
    4
 10
130.98158611743943
 20
27.040571528029062
 11
130.98158611743943
 21
21.040571528029062
  0
LINE
  8
_0-0_
  6
CONTINUOUS
 62
    4
 10
147.48158611743943
 20
27.040571528029034
 11
147.48158611743943
 21
5.5405715280289485
  0
LINE
  8
_0-0_
  6
CONTINUOUS
 62
    4
 10
193.48158611743938
 20
27.040571528029062
 11
193.48158611743938
 21
21.040571528029062
  0
LINE
  8
_0-0_
  6
CONTINUOUS
 62
    4
 10
181.98158611743955
 20
21.040571528029062
 11
181.98158611743955
 21
27.040571528029062
  0
LINE
  8
_0-0_
  6
CONTINUOUS
 62
    4
 10
162.23158611743949
 20
21.040571528029062
 11
162.23158611743943
 21
27.040571528029062
  0
LINE
  8
_0-0_
  6
CONTINUOUS
 62
    4
 10
153.96917610146744
 20
6.5031721163634018
 11
156.76917610146739
 21
6.0231721163633836
  0
LINE
  8
_0-0_
  6
CONTINUOUS
 62
    4
 10
156.76917610146739
 20
8.1831721163633802
 11
156.76917610146739
 21
6.0231721163633836
  0
LINE
  8
_0-0_
  6
CONTINUOUS
 62
    4
 10
153.96917610146744
 20
7.7031721163633904
 11
156.76917610146739
 21
8.1831721163633802
  0
LINE
  8
_0-0_
  6
CONTINUOUS
 62
    4
 10
153.96917610146744
 20
7.7031721163633904
 11
153.96917610146744
 21
6.5031721163634018
  0
CIRCLE
  8
_0-0_
  6
CONTINUOUS
 62
    4
 10
152.36917610146739
 20
7.1031721163633961
 40
0.5999999999999996
  0
CIRCLE
  8
_0-0_
  6
CONTINUOUS
 62
    4
 10
152.36917610146739
 20
7.1031721163633961
 40
1.1000000000000001
  0
LINE
  8
_0-0_
  6
CONTINUOUS
 62
    7
 10
157.19729473013905
 20
7.1031721163633961
 11
151.00695350269868
 21
7.1031721163633961
  0
LINE
  8
_0-0_
  6
CONTINUOUS
 62
    7
 10
152.36917610146739
 20
5.8697658056588864
 11
152.36917610146739
 21
8.4266329913444338
  0
LINE
  8
_0-0_
  6
CONTINUOUS
 62
    4
 10
163.23158611743943
 20
16.040571528029062
 11
148.48158611743943
 21
16.040571528029062
  0
LINE
  8
_0-0_
  6
CONTINUOUS
 62
    4
 10
138.23158611743943
 20
5.5405715280290337
 11
138.23158611743955
 21
21.040571528029062
  0
LINE
  8
_0-0_
  6
CONTINUOUS
 62
    4
 10
147.48158611743943
 20
12.290571528029062
 11
138.23158611743949
 21
12.290571528029062
  0
LINE
  8
_0-0_
  6
CONTINUOUS
 62
    4
 10
138.23158611743949
 20
12.290571528029062
 11
109.48158611743943
 21
12.290571528029062
  0
TEXT
  8
_0-0_
 62
    7
 10
160.19601788013483
 20
6.2031721645113009
 40
1.799999952316284
 41
1.060606088702527
 50
0
  1
Ç`ÇR
  0
LINE
  8
_0-0_
  6
CONTINUOUS
 62
    4
 10
109.48158611743943
 20
27.040571528029062
 11
109.48158611743943
 21
5.5405715280290337
  0
TEXT
  8
_0-0_
 62
    7
 10
152.18064638788945
 20
16.490571516108162
 40
1.6000000238418579
 41
1.001059324796296
 50
0
  1
JIS B 0405
  0
TEXT
  8
_0-0_
 62
    7
 10
131.48158611743949
 20
25.188130872797615
 40
1.6000000238418579
 41
1.0422794146408489
 50
0
  1
Material
  0
TEXT
  8
_0-0_
 62
    7
 10
109.98158611743949
 20
25.188130872797615
 40
1.6000000238418579
 41
1.0422794146408489
 50
0
  1
Model
  0
TEXT
  8
_0-0_
 62
    7
 10
162.80609478443168
 20
25.188130872797615
 40
1.6000000238418579
 41
1.027173915877938
 50
0
  1
Surface
  0
TEXT
  8
_0-0_
 62
    7
 10
182.64525637209945
 20
25.359114209308757
 40
1.6000000238418579
 41
1.0422794146408489
 50
0
  1
Quantity
  0
TEXT
  8
_0-0_
 62
    7
 10
164.50952496021293
 20
18.890569644522316
 40
1.799999952316284
 41
1.014492780498069
 50
0
  1
Equipment
  0
TEXT
  8
_0-0_
 62
    7
 10
147.85658611743952
 20
19.190572279047586
 40
1.6000000238418579
 41
1.002948115975157
 50
0
  1
Machining tolerance
  0
TEXT
  8
_0-0_
 62
    7
 10
147.85658611743949
 20
14.190572279047615
 40
1.6000000238418579
 41
1.0738636393269361
 50
0
  1
Grade
  0
TEXT
  8
_0-0_
 62
    7
 10
152.6084934660723
 20
11.756322401117927
 40
1.6000000238418579
 41
1.018318968327266
 50
0
  1
ÇçÅiMediumÅj
  0
TEXT
  8
_0-0_
 62
    7
 10
164.6152073332598
 20
8.9723109775301282
 40
1.799999952316284
 41
1.029411791975982
 50
0
  1
Drawing number
  0
TEXT
  8
_0-0_
 62
    7
 10
147.76382793872855
 20
9.3405718975778882
 40
1.6000000238418579
 41
1.0422794146408489
 50
0
  1
Projection method
  0
TEXT
  8
_0-0_
 62
    7
 10
138.50310101001759
 20
10.545520322870829
 40
1.6000000238418579
 41
1.0738636393269361
 50
0
  1
Unit
  0
TEXT
  8
_0-0_
 62
    7
 10
141.35658611743949
 20
6.888599353384592
 40
1.799999952316284
 41
1.060606088702527
 50
0
  1
mm
  0
TEXT
  8
_0-0_
 62
    7
 10
138.48158611743949
 20
19.190572279047586
 40
1.6000000238418579
 41
1.0738636393269361
 50
0
  1
Scale
  0
TEXT
  8
_0-0_
 62
    7
 10
124.35658611743949
 20
19.190572279047586
 40
1.6000000238418579
 41
1.0422794146408489
 50
0
  1
Finish
  0
TEXT
  8
_0-0_
 62
    7
 10
109.98158611743949
 20
19.190572279047586
 40
1.6000000238418579
 41
1.018318968327266
 50
0
  1
Date
  0
TEXT
  8
_0-0_
 62
    7
 10
121.43491093494239
 20
13.041290449723505
 40
1.5
 41
1.103030262571393
 50
0
  1
Author
  0
TEXT
  8
_0-0_
 62
    7
 10
116.58528335044096
 20
8.2519774219181556
 40
1.5
 41
1.103030262571393
 50
0
  1
Hirotaka Shiojima
  0
LINE
  8
_0-0_
  6
CONTINUOUS
 62
    4
 10
123.85658611743943
 20
21.040571528029062
 11
123.85658611743943
 21
15.290571528029062
  0
TEXT
  8
_0-0_
 62
    7
 10
122.15351766207269
 20
6.4153878211058952
 40
1.5
 41
1.103030262571393
 50
0
  1
smartDIYs Co.,Ltd.
  0
TEXT
  8
_0-0_
 62
    7
 10
154.90851612409486
 20
21.490571158480293
 40
1.8999999761581421
 41
1.178947400782578
 50
0
  1
Black
  0
TEXT
  8
_0-0_
 62
    7
 10
147.98158611743949
 20
25.188130872797615
 40
1.6000000238418579
 41
1.0422794146408489
 50
0
  1
Color
  0
TEXT
  8
_0-0_
 62
    7
 10
189.68158610551851
 20
21.590573447298624
 40
1.8999999761581421
 41
1.178947400782578
 50
0
  1
1
  0
TEXT
  8
_0-0_
 62
    7
 10
176.25658585517903
 20
16.590568857741005
 40
2
 41
1.0069231051665091
 50
0
  1
Fabool Laser CO2
  0
LINE
  8
_0-0_
  6
CONTINUOUS
 62
    3
 10
4.9815861174394769
 20
5.5405715280290622
 11
204.98158611743943
 21
5.5405715280290337
  0
LINE
  8
_0-0_
  6
CONTINUOUS
 62
    3
 10
4.9815861174395053
 20
143.54057152802909
 11
4.9815861174394769
 21
5.5405715280290622
  0
LINE
  8
_0-0_
  6
CONTINUOUS
 62
    3
 10
204.98158611743943
 20
5.5405715280290337
 11
204.98158611743949
 21
143.54057152802903
  0
LINE
  8
_0-0_
  6
CONTINUOUS
 62
    3
 10
204.98158611743949
 20
143.54057152802903
 11
4.9815861174395053
 21
143.54057152802909
  0
TEXT
  8
_0-0_
 62
    7
 10
165.29671913286427
 20
21.76101336758154
 40
1.8999999761581421
 41
1.178947400782578
 50
0
  1
Powder corting
  0
TEXT
  8
_0-0_
 62
    7
 10
136.03157081096668
 20
21.490567343782999
 40
1.8999999761581421
 41
1.025171652854415
 50
0
  1
SUS304
  0
TEXT
  8
_0-0_
 62
    7
 10
110.91787171844932
 20
21.91957783510162
 40
1.5
 41
1
 50
0
  1
FLC_carrier mount x-axis
  0
LINE
  8
_0-1_
  6
CONTINUOUS
 62
    7
 10
84.193204709081243
 20
129.75621635025797
 11
59.193204709081236
 21
129.75621635025797
  0
LINE
  8
_0-1_
  6
CONTINUOUS
 62
    7
 10
59.193204709081236
 20
128.15621635025798
 11
84.193204709081243
 21
128.15621635025798
  0
LINE
  8
_0-2_
  6
DASHED1
 62
    4
 10
76.193204709081243
 20
106.40051231053452
 11
76.193204709081243
 21
96.346962029793488
  0
LINE
  8
_0-2_
  6
DASHED1
 62
    4
 10
68.193204709081243
 20
132.64869239308337
 11
68.193204709081243
 21
125.57354773597091
  0
LINE
  8
_0-1_
  6
DASHED1
 62
    7
 10
65.443204709081243
 20
129.75621635025797
 11
65.443204709081243
 21
128.15621635025798
  0
LINE
  8
_0-1_
  6
DASHED1
 62
    7
 10
70.943204709081243
 20
129.75621635025797
 11
70.943204709081243
 21
128.15621635025798
  0
TEXT
  8
_0-8_
 62
    7
 10
58.728824029967456
 20
19.070168681165953
 40
2
 41
1
 50
0
  1
Remarks
  0
TEXT
  8
_0-8_
 62
    7
 10
64.728824029967456
 20
14.070168681165953
 40
2
 41
1
 50
0
  1
No indication: ÅÖR2
  0
LINE
  8
_0-1_
  6
CONTINUOUS
 62
    7
 10
59.193204709081236
 20
37.510401748948894
 11
84.193204709081243
 21
37.510401748948894
  0
LINE
  8
_0-1_
  6
CONTINUOUS
 62
    7
 10
59.193204709081236
 20
39.110401748948902
 11
84.193204709081243
 21
39.110401748948902
  0
LINE
  8
_0-2_
  6
DASHED1
 62
    4
 10
63.840106109222141
 20
67.510401748948894
 11
72.908166236582474
 21
67.510401748948894
  0
LINE
  8
_0-2_
  6
DASHED1
 62
    4
 10
63.840106109222141
 20
47.510401748948894
 11
72.908166236582474
 21
47.510401748948894
  0
CIRCLE
  8
_0-1_
  6
CONTINUOUS
 62
    7
 10
68.193204709081243
 20
67.510401748948894
 40
2.75
  0
CIRCLE
  8
_0-1_
  6
CONTINUOUS
 62
    7
 10
68.193204709081243
 20
47.510401748948894
 40
2.75
  0
LINE
  8
_0-1_
  6
DASHED1
 62
    7
 10
64.093204709081235
 20
39.110401748948902
 11
64.093204709081235
 21
37.510401748948894
  0
LINE
  8
_0-1_
  6
DASHED1
 62
    7
 10
68.293204709081238
 20
39.110401748948902
 11
68.293204709081238
 21
37.510401748948894
  0
LINE
  8
_0-1_
  6
DASHED1
 62
    7
 10
74.093204709081235
 20
39.110401748948888
 11
74.093204709081235
 21
37.510401748948894
  0
LINE
  8
_0-1_
  6
DASHED1
 62
    7
 10
78.293204709081238
 20
39.110401748948888
 11
78.293204709081238
 21
37.510401748948894
  0
LINE
  8
_0-2_
  6
DASHED1
 62
    4
 10
66.193204709081243
 20
41.045509230672565
 11
66.193204709081243
 21
34.997748462353954
  0
LINE
  8
_0-2_
  6
DASHED1
 62
    4
 10
76.193204709081243
 20
41.045509230672565
 11
76.193204709081243
 21
34.997748462353954
  0
LINE
  8
_0-2_
  6
DASHED1
 62
    4
 10
68.193204709081243
 20
52.723117812289161
 11
68.193204709081243
 21
43.020735358232699
  0
LINE
  8
_0-2_
  6
DASHED1
 62
    4
 10
68.193204709081243
 20
72.127882720402084
 11
68.193204709081243
 21
62.946433552469458
  0
LINE
  8
_0-8_
  6
CONTINUOUS
 62
    4
 10
105.04282141955808
 20
129.75621635025797
 11
105.04282141955808
 21
128.15621635025798
  0
POINT
  8
_0-8_
 62
    4
 10
105.04282141955808
 20
129.75621635025797
  0
POINT
  8
_0-8_
 62
    4
 10
105.04282141955808
 20
128.15621635025798
  0
LINE
  8
_0-8_
  6
CONTINUOUS
 62
    4
 10
105.04282141955808
 20
129.75621635025797
 11
88.610469338698664
 21
129.75621635025797
  0
LINE
  8
_0-8_
  6
CONTINUOUS
 62
    4
 10
105.04282141955808
 20
128.15621635025798
 11
88.610469338698664
 21
128.15621635025798
  0
LINE
  8
_0-8_
  6
CONTINUOUS
 62
    4
 10
105.04282141955808
 20
128.15621635025798
 11
105.04282141955808
 21
89.756216350257972
  0
POINT
  8
_0-8_
 62
    4
 10
105.04282141955808
 20
89.756216350257972
  0
TEXT
  8
_0-8_
 62
    7
 10
104.79282141955808
 20
107.70621635025796
 40
1.25
 41
1
 50
90
  1
38.4
  0
TEXT
  8
_0-8_
 62
    7
 10
106.92505437980047
 20
128.01871635025796
 40
1.25
 41
1
 50
90
  1
1.6
  0
LINE
  8
_0-8_
  6
CONTINUOUS
 62
    4
 10
59.193204709081236
 20
136.7794846510937
 11
84.193204709081243
 21
136.7794846510937
  0
POINT
  8
_0-8_
 62
    4
 10
59.193204709081236
 20
136.7794846510937
  0
POINT
  8
_0-8_
 62
    4
 10
84.193204709081243
 20
136.7794846510937
  0
LINE
  8
_0-8_
  6
CONTINUOUS
 62
    4
 10
59.193204709081236
 20
136.7794846510937
 11
59.193204709081236
 21
131.53494062383805
  0
LINE
  8
_0-8_
  6
CONTINUOUS
 62
    4
 10
84.193204709081243
 20
136.7794846510937
 11
84.193204709081243
 21
131.53494062383805
  0
TEXT
  8
_0-8_
 62
    7
 10
71.068204709081243
 20
137.0294846510937
 40
1.25
 41
1
 50
0
  1
25
  0
LINE
  8
_0-8_
  6
CONTINUOUS
 62
    4
 10
59.193204709081236
 20
133.41358326046694
 11
68.193204709081243
 21
133.41358326046694
  0
POINT
  8
_0-8_
 62
    4
 10
59.193204709081236
 20
133.41358326046694
  0
POINT
  8
_0-8_
 62
    4
 10
68.193204709081243
 20
133.41358326046694
  0
LINE
  8
_0-8_
  6
CONTINUOUS
 62
    4
 10
59.193204709081236
 20
133.41358326046694
 11
59.193204709081236
 21
131.53494062383805
  0
LINE
  8
_0-8_
  6
CONTINUOUS
 62
    4
 10
68.193204709081243
 20
133.41358326046694
 11
68.193204709081243
 21
131.53494062383805
  0
TEXT
  8
_0-8_
 62
    7
 10
63.380704709081236
 20
133.66358326046694
 40
1.25
 41
1
 50
0
  1
9
  0
LINE
  8
_0-8_
  6
CONTINUOUS
 62
    4
 10
105.04282141955808
 20
37.510401748948894
 11
105.04282141955808
 21
39.110401748948902
  0
POINT
  8
_0-8_
 62
    4
 10
105.04282141955808
 20
37.510401748948894
  0
POINT
  8
_0-8_
 62
    4
 10
105.04282141955808
 20
39.110401748948902
  0
LINE
  8
_0-8_
  6
CONTINUOUS
 62
    4
 10
105.04282141955808
 20
37.510401748948894
 11
88.610469338698664
 21
37.510401748948894
  0
LINE
  8
_0-8_
  6
CONTINUOUS
 62
    4
 10
105.04282141955808
 20
39.110401748948902
 11
88.610469338698664
 21
39.110401748948902
  0
LINE
  8
_0-8_
  6
CONTINUOUS
 62
    4
 10
105.04282141955808
 20
39.110401748948902
 11
105.04282141955808
 21
75.510401748948894
  0
POINT
  8
_0-8_
 62
    4
 10
105.04282141955808
 20
75.510401748948894
  0
LINE
  8
_0-8_
  6
CONTINUOUS
 62
    4
 10
105.04282141955808
 20
75.510401748948894
 11
88.610469338698664
 21
75.510401748948894
  0
TEXT
  8
_0-8_
 62
    7
 10
104.79282141955808
 20
56.060401748948898
 40
1.25
 41
1
 50
90
  1
36.4
  0
TEXT
  8
_0-8_
 62
    7
 10
107.11965438202049
 20
37.372901748948898
 40
1.25
 41
1
 50
90
  1
1.6
  0
LINE
  8
_0-1_
  6
CONTINUOUS
 62
    7
 10
122.89389477673527
 20
39.110401748948888
 11
122.89389477673527
 21
37.510401748948894
  0
LINE
  8
_0-1_
  6
CONTINUOUS
 62
    7
 10
161.29389477673527
 20
75.510401748948894
 11
162.89389477673527
 21
75.510401748948894
  0
LINE
  8
_0-2_
  6
DASHED1
 62
    4
 10
158.23284707748292
 20
67.510401748948894
 11
165.90863896564386
 21
67.510401748948894
  0
LINE
  8
_0-2_
  6
DASHED1
 62
    4
 10
158.23284707748292
 20
47.510401748948894
 11
165.90863896564386
 21
47.510401748948894
  0
LINE
  8
_0-1_
  6
DASHED1
 62
    7
 10
161.29389477673527
 20
64.760401748948894
 11
162.89389477673527
 21
64.760401748948894
  0
LINE
  8
_0-1_
  6
DASHED1
 62
    7
 10
161.29389477673527
 20
70.260401748948894
 11
162.89389477673527
 21
70.260401748948894
  0
LINE
  8
_0-1_
  6
DASHED1
 62
    7
 10
161.29389477673527
 20
44.760401748948894
 11
162.89389477673527
 21
44.760401748948894
  0
LINE
  8
_0-1_
  6
DASHED1
 62
    7
 10
161.29389477673527
 20
50.260401748948894
 11
162.89389477673527
 21
50.260401748948894
  0
LINE
  8
_0-8_
  6
CONTINUOUS
 62
    4
 10
64.093204709081235
 20
113.9531383424178
 11
68.293204709081238
 21
113.9531383424178
  0
POINT
  8
_0-8_
 62
    4
 10
64.093204709081235
 20
113.9531383424178
  0
POINT
  8
_0-8_
 62
    4
 10
68.293204709081238
 20
113.9531383424178
  0
LINE
  8
_0-8_
  6
CONTINUOUS
 62
    4
 10
64.093204709081235
 20
113.9531383424178
 11
64.093204709081235
 21
110.42888613662336
  0
LINE
  8
_0-8_
  6
CONTINUOUS
 62
    4
 10
68.293204709081238
 20
113.9531383424178
 11
68.293204709081238
 21
110.42888613662336
  0
TEXT
  8
_0-8_
 62
    7
 10
65.255704709081243
 20
114.2031383424178
 40
1.25
 41
1
 50
0
  1
4.2
  0
LINE
  8
_0-8_
  6
CONTINUOUS
 62
    4
 10
59.193204709081236
 20
82.831280402017697
 11
66.193204709081243
 21
82.831280402017697
  0
POINT
  8
_0-8_
 62
    4
 10
59.193204709081236
 20
82.831280402017697
  0
POINT
  8
_0-8_
 62
    4
 10
66.193204709081243
 20
82.831280402017697
  0
LINE
  8
_0-8_
  6
CONTINUOUS
 62
    4
 10
59.193204709081236
 20
82.831280402017697
 11
59.193204709081236
 21
88.795399519515968
  0
LINE
  8
_0-8_
  6
CONTINUOUS
 62
    4
 10
66.193204709081243
 20
82.831280402017697
 11
66.193204709081243
 21
88.795399519515968
  0
TEXT
  8
_0-8_
 62
    7
 10
62.380704709081236
 20
83.081280402017697
 40
1.25
 41
1
 50
0
  1
7
  0
LINE
  8
_0-8_
  6
CONTINUOUS
 62
    4
 10
66.193204709081243
 20
82.831280402017697
 11
76.193204709081243
 21
82.831280402017697
  0
POINT
  8
_0-8_
 62
    4
 10
76.193204709081243
 20
82.831280402017697
  0
LINE
  8
_0-8_
  6
CONTINUOUS
 62
    4
 10
76.193204709081243
 20
82.831280402017697
 11
76.193204709081243
 21
88.795399519515968
  0
TEXT
  8
_0-8_
 62
    7
 10
70.568204709081243
 20
83.081280402017697
 40
1.25
 41
1
 50
0
  1
10
  0
LINE
  8
_0-8_
  6
CONTINUOUS
 62
    4
 10
46.407585108946535
 20
129.75621635025797
 11
46.407585108946535
 21
89.756216350257972
  0
POINT
  8
_0-8_
 62
    4
 10
46.407585108946535
 20
129.75621635025797
  0
POINT
  8
_0-8_
 62
    4
 10
46.407585108946535
 20
89.756216350257972
  0
LINE
  8
_0-8_
  6
CONTINUOUS
 62
    4
 10
46.407585108946535
 20
89.756216350257972
 11
55.73791308084202
 21
89.756216350257972
  0
TEXT
  8
_0-8_
 62
    7
 10
46.157585108946535
 20
109.13121635025797
 40
1.25
 41
1
 50
90
  1
40
  0
LINE
  8
_0-8_
  6
CONTINUOUS
 62
    4
 10
46.407585108946535
 20
75.510401748948894
 11
46.407585108946535
 21
37.510401748948894
  0
POINT
  8
_0-8_
 62
    4
 10
46.407585108946535
 20
75.510401748948894
  0
POINT
  8
_0-8_
 62
    4
 10
46.407585108946535
 20
37.510401748948894
  0
LINE
  8
_0-8_
  6
CONTINUOUS
 62
    4
 10
46.407585108946535
 20
75.510401748948894
 11
55.73791308084202
 21
75.510401748948894
  0
LINE
  8
_0-8_
  6
CONTINUOUS
 62
    4
 10
46.407585108946535
 20
37.510401748948894
 11
55.73791308084202
 21
37.510401748948894
  0
TEXT
  8
_0-8_
 62
    7
 10
46.157585108946535
 20
55.885401748948894
 40
1.25
 41
1
 50
90
  1
38
  0
LINE
  8
_0-8_
  6
CONTINUOUS
 62
    4
 10
52.051059291256493
 20
75.510402679443359
 11
52.051059291256493
 21
67.510401748948894
  0
POINT
  8
_0-8_
 62
    4
 10
52.051059291256493
 20
75.510402679443359
  0
POINT
  8
_0-8_
 62
    4
 10
52.051059291256493
 20
67.510401748948894
  0
LINE
  8
_0-8_
  6
CONTINUOUS
 62
    4
 10
52.051059291256493
 20
75.510402679443359
 11
55.73791308084202
 21
75.510402679443359
  0
LINE
  8
_0-8_
  6
CONTINUOUS
 62
    4
 10
52.051059291256493
 20
67.510401748948894
 11
55.73791308084202
 21
67.510401748948894
  0
TEXT
  8
_0-8_
 62
    7
 10
51.801059291256493
 20
71.197902214196134
 40
1.25
 41
1
 50
90
  1
8
  0
LINE
  8
_0-8_
  6
CONTINUOUS
 62
    4
 10
52.051059291256493
 20
67.510401748948894
 11
52.051059291256493
 21
47.510401748948894
  0
POINT
  8
_0-8_
 62
    4
 10
52.051059291256493
 20
47.510401748948894
  0
LINE
  8
_0-8_
  6
CONTINUOUS
 62
    4
 10
52.051059291256493
 20
47.510401748948894
 11
55.73791308084202
 21
47.510401748948894
  0
TEXT
  8
_0-8_
 62
    7
 10
51.801059291256493
 20
56.885401748948894
 40
1.25
 41
1
 50
90
  1
20
  0
LINE
  8
_0-2_
  6
DASHED1
 62
    4
 10
65.139349434566128
 20
106.20621635025796
 11
67.392275855739129
 21
106.20621635025796
  0
LINE
  8
_0-2_
  6
DASHED1
 62
    4
 10
75.1609876528874
 20
101.30621635025797
 11
77.491601192031879
 21
101.30621635025797
  0
LINE
  8
_0-8_
  6
CONTINUOUS
 62
    4
 10
105.04282141955808
 20
89.756216350257972
 11
88.215350583466105
 21
89.756216350257972
  0
LINE
  8
_0-8_
  6
CONTINUOUS
 62
    4
 10
46.407585108946535
 20
129.75621635025797
 11
57.480681202691102
 21
129.75621635025797
  0
LINE
  8
_0-2_
  6
DASHED1
 62
    4
 10
134.49389477673526
 20
41.947861729288306
 11
134.49389477673526
 21
34.76104030684953
  0
LINE
  8
_0-2_
  6
DASHED1
 62
    4
 10
139.39389477673527
 20
41.947861729288306
 11
139.39389477673527
 21
34.76104030684953
  0
LINE
  8
_0-1_
  6
DASHED1
 62
    7
 10
130.94389477673525
 20
39.110401748948895
 11
130.94389477673525
 21
37.510401748948894
  0
LINE
  8
_0-1_
  6
DASHED1
 62
    7
 10
138.04389477673527
 20
39.110401748948895
 11
138.04389477673527
 21
37.510401748948894
  0
LINE
  8
_0-1_
  6
DASHED1
 62
    7
 10
135.84389477673525
 20
39.110401748948895
 11
135.84389477673525
 21
37.510401748948894
  0
LINE
  8
_0-1_
  6
DASHED1
 62
    7
 10
142.94389477673525
 20
39.110401748948895
 11
142.94389477673525
 21
37.510401748948894
  0
LINE
  8
_0-8_
  6
CONTINUOUS
 62
    4
 10
88.215350583466105
 20
101.30621635025797
 11
85.266483656391742
 21
101.30621635025797
  0
POINT
  8
_0-8_
 62
    4
 10
88.215350583466105
 20
101.30621635025797
  0
LINE
  8
_0-8_
  6
CONTINUOUS
 62
    4
 10
88.215350583466105
 20
89.756216350257972
 11
88.215350583466105
 21
101.30621635025797
  0
LINE
  8
_0-8_
  6
CONTINUOUS
 62
    4
 10
88.215350583466105
 20
89.756216350257972
 11
85.266483656391742
 21
89.756216350257972
  0
POINT
  8
_0-8_
 62
    4
 10
88.215350583466105
 20
89.756216350257972
  0
TEXT
  8
_0-8_
 62
    7
 10
87.965350583466105
 20
94.281216350257964
 40
1.25
 41
1
 50
90
  1
11.6
  0
LINE
  8
_0-8_
  6
CONTINUOUS
 62
    4
 10
54.656414286619885
 20
106.20621635025796
 11
57.480681202691102
 21
106.20621635025796
  0
POINT
  8
_0-8_
 62
    4
 10
54.656414286619885
 20
106.20621635025796
  0
LINE
  8
_0-8_
  6
CONTINUOUS
 62
    4
 10
54.656414286619885
 20
89.756216350257972
 11
57.480681202691102
 21
89.756216350257972
  0
POINT
  8
_0-8_
 62
    4
 10
54.656414286619885
 20
89.756216350257972
  0
LINE
  8
_0-8_
  6
CONTINUOUS
 62
    4
 10
54.656414286619885
 20
89.756216350257972
 11
54.656414286619885
 21
106.20621635025796
  0
TEXT
  8
_0-8_
 62
    7
 10
54.406414286619885
 20
96.731216350257966
 40
1.25
 41
1
 50
90
  1
16.5
  0
LINE
  8
_0-1_
  6
CONTINUOUS
 62
    7
 10
59.193204709081236
 20
73.510401748948894
 11
59.193204709081236
 21
37.510401748948894
  0
ARC
  8
_0-1_
  6
CONTINUOUS
 62
    7
 10
61.193204709081236
 20
73.510401748948894
 40
2
 50
90
 51
180
  0
LINE
  8
_0-1_
  6
CONTINUOUS
 62
    7
 10
82.193204709081243
 20
75.510401748948894
 11
61.193204709081236
 21
75.510401748948894
  0
LINE
  8
_0-1_
  6
CONTINUOUS
 62
    7
 10
84.193204709081243
 20
73.510401748948894
 11
84.193204709081243
 21
37.510401748948894
  0
ARC
  8
_0-1_
  6
CONTINUOUS
 62
    7
 10
82.193204709081243
 20
73.510401748948894
 40
2
 50
0
 51
90
  0
LINE
  8
_0-1_
  6
CONTINUOUS
 62
    7
 10
59.193204709081236
 20
91.756216350257972
 11
59.193204709081236
 21
129.75621635025797
  0
ARC
  8
_0-1_
  6
CONTINUOUS
 62
    7
 10
61.193204709081236
 20
91.756216350257972
 40
2
 50
180
 51
270
  0
LINE
  8
_0-1_
  6
CONTINUOUS
 62
    7
 10
84.193204709081243
 20
91.756216350257972
 11
84.193204709081243
 21
129.75621635025797
  0
LINE
  8
_0-1_
  6
CONTINUOUS
 62
    7
 10
82.193204709081243
 20
89.756216350257972
 11
61.193204709081236
 21
89.756216350257972
  0
ARC
  8
_0-1_
  6
CONTINUOUS
 62
    7
 10
82.193204709081243
 20
91.756216350257972
 40
2
 50
270
 51
0
  0
LINE
  8
_0-1_
  6
CONTINUOUS
 62
    7
 10
159.29389477673527
 20
39.110401748948895
 11
122.89389477673527
 21
39.110401748948895
  0
LINE
  8
_0-1_
  6
CONTINUOUS
 62
    7
 10
161.29389477673527
 20
41.110401748948895
 11
161.29389477673527
 21
75.510401748948894
  0
ARC
  8
_0-1_
  6
CONTINUOUS
 62
    7
 10
159.29389477673527
 20
41.110401748948895
 40
2
 50
270
 51
0
  0
LINE
  8
_0-1_
  6
CONTINUOUS
 62
    7
 10
162.89389477673527
 20
39.510401748948894
 11
162.89389477673527
 21
75.510401748948894
  0
LINE
  8
_0-1_
  6
CONTINUOUS
 62
    7
 10
160.89389477673527
 20
37.510401748948894
 11
122.89389477673527
 21
37.510401748948894
  0
ARC
  8
_0-1_
  6
CONTINUOUS
 62
    7
 10
160.89389477673527
 20
39.510401748948894
 40
2
 50
270
 51
0
  0
TEXT
  8
_0-8_
 62
    7
 10
172.09347042402675
 20
30.44151981478096
 40
1.5
 41
1.103030262571393
 50
0
  1
R2
  0
LINE
  8
_0-8_
  6
CONTINUOUS
 62
    4
 10
171.13141291047893
 20
29.885369484603594
 11
175.44376140506631
 21
29.885369484603594
  0
LINE
  8
_0-8_
  6
CONTINUOUS
 62
    4
 10
163.86418206153056
 20
37.152600333551945
 11
171.13141291047893
 21
29.885369484603594
  0
LINE
  8
_0-8_
  6
CONTINUOUS
 62
    4
 10
163.86418206153056
 20
37.152600333551945
 11
164.61418206153056
 21
35.853562227875287
  0
LINE
  8
_0-8_
  6
CONTINUOUS
 62
    4
 10
163.86418206153056
 20
37.152600333551945
 11
165.16322016720724
 21
36.402600333551945
  0
LINE
  8
_0-8_
  6
CONTINUOUS
 62
    4
 10
59.058626519650517
 20
89.451105974152611
 11
58.308626519650517
 21
88.152067868475953
  0
LINE
  8
_0-8_
  6
CONTINUOUS
 62
    4
 10
59.058626519650517
 20
89.451105974152611
 11
57.759588413973859
 21
88.701105974152611
  0
LINE
  8
_0-8_
  6
CONTINUOUS
 62
    4
 10
59.058626519650517
 20
89.451105974152611
 11
54.731878884150959
 21
85.124358338653053
  0
LINE
  8
_0-8_
  6
CONTINUOUS
 62
    4
 10
49.492075303081236
 20
85.124358338653053
 11
54.731878884150959
 21
85.124358338653053
  0
TEXT
  8
_0-8_
 62
    7
 10
50.218562315027214
 20
85.365053784189072
 40
1.5
 41
1.103030262571393
 50
0
  1
R2Å~2
  0
LINE
  8
_0-8_
  6
CONTINUOUS
 62
    4
 10
59.533545055179857
 20
75.702211149223459
 11
58.234506949503199
 21
76.452211149223459
  0
LINE
  8
_0-8_
  6
CONTINUOUS
 62
    4
 10
59.533545055179857
 20
75.702211149223459
 11
58.783545055179857
 21
77.001249254900117
  0
LINE
  8
_0-8_
  6
CONTINUOUS
 62
    4
 10
59.533545055179857
 20
75.702211149223459
 11
56.197283310613642
 21
79.03847289378966
  0
TEXT
  8
_0-8_
 62
    7
 10
51.683966741489883
 20
79.279168339325665
 40
1.5
 41
1.103030262571393
 50
0
  1
R2Å~2
  0
LINE
  8
_0-8_
  6
CONTINUOUS
 62
    4
 10
50.957479729543934
 20
79.03847289378966
 11
56.197283310613642
 21
79.03847289378966
  0
LINE
  8
_0-8_
  6
CONTINUOUS
 62
    4
 10
70.576729884766934
 20
69.62103461968681
 11
95.609267161220089
 21
81.610728849185406
  0
LINE
  8
_0-8_
  6
CONTINUOUS
 62
    4
 10
70.576729884766934
 20
69.62103461968681
 11
71.715760154930564
 21
70.597052059925971
  0
LINE
  8
_0-8_
  6
CONTINUOUS
 62
    4
 10
70.576729884766934
 20
69.62103461968681
 11
72.051167754527654
 21
69.896775382388768
  0
TEXT
  8
_0-8_
 62
    7
 10
96.296661182531835
 20
82.080118751352103
 40
1.5
 41
1.103030262571393
 50
0
  1
É≥5.5Å~2
  0
LINE
  8
_0-8_
  6
CONTINUOUS
 62
    4
 10
95.609267161220089
 20
81.610728849185406
 11
103.79142335837793
 21
81.610728849185406
  0
LINE
  8
_0-2_
  6
DASHED1
 62
    4
 10
63.624868717694298
 20
103.70621635025796
 11
68.827881723064849
 21
103.70621635025796
  0
LINE
  8
_0-2_
  6
DASHED1
 62
    4
 10
63.624868717694298
 20
108.70621635025796
 11
68.827881723064849
 21
108.70621635025796
  0
LINE
  8
_0-1_
  6
CONTINUOUS
 62
    7
 10
68.293204709081238
 20
108.70621635025796
 11
68.293204709081238
 21
103.70621635025796
  0
LINE
  8
_0-1_
  6
CONTINUOUS
 62
    7
 10
64.093204709081235
 20
108.70621635025796
 11
64.093204709081235
 21
103.70621635025796
  0
ARC
  8
_0-1_
  6
CONTINUOUS
 62
    7
 10
66.193204709081243
 20
108.70621635025796
 40
2.1000000000000014
 50
0
 51
180
  0
ARC
  8
_0-1_
  6
CONTINUOUS
 62
    7
 10
66.193204709081243
 20
103.70621635025796
 40
2.1000000000000014
 50
180
 51
0
  0
LINE
  8
_0-2_
  6
DASHED1
 62
    4
 10
66.193204709081243
 20
111.21061610864768
 11
66.193204709081243
 21
101.03606786947709
  0
LINE
  8
_0-2_
  6
DASHED1
 62
    4
 10
73.624868717694298
 20
98.806216350257969
 11
78.827881723064849
 21
98.806216350257969
  0
LINE
  8
_0-2_
  6
DASHED1
 62
    4
 10
73.624868717694298
 20
103.80621635025797
 11
78.827881723064849
 21
103.80621635025797
  0
LINE
  8
_0-1_
  6
CONTINUOUS
 62
    7
 10
78.293204709081238
 20
103.80621635025797
 11
78.293204709081238
 21
98.806216350257969
  0
LINE
  8
_0-1_
  6
CONTINUOUS
 62
    7
 10
74.093204709081235
 20
103.80621635025797
 11
74.093204709081235
 21
98.806216350257969
  0
ARC
  8
_0-1_
  6
CONTINUOUS
 62
    7
 10
76.193204709081243
 20
103.80621635025797
 40
2.1000000000000014
 50
0
 51
180
  0
ARC
  8
_0-1_
  6
CONTINUOUS
 62
    7
 10
76.193204709081243
 20
98.806216350257969
 40
2.1000000000000014
 50
180
 51
0
  0
LINE
  8
_0-8_
  6
CONTINUOUS
 62
    4
 10
61.411615215402051
 20
110.80621635025796
 11
61.411615215402051
 21
101.60621635025797
  0
POINT
  8
_0-8_
 62
    4
 10
61.411615215402051
 20
110.80621635025796
  0
POINT
  8
_0-8_
 62
    4
 10
61.411615215402051
 20
101.60621635025797
  0
LINE
  8
_0-8_
  6
CONTINUOUS
 62
    4
 10
61.411615215402051
 20
110.80621635025796
 11
63.393033489440135
 21
110.80621635025796
  0
LINE
  8
_0-8_
  6
CONTINUOUS
 62
    4
 10
61.411615215402051
 20
101.60621635025797
 11
63.393033489440135
 21
101.60621635025797
  0
TEXT
  8
_0-8_
 62
    4
 10
61.161615215402051
 20
104.95621635025796
 40
1.25
 41
1
 50
90
  1
9.20
  0
LINE
  8
_0-8_
  6
CONTINUOUS
 62
    4
 10
70.977817420166588
 20
108.70621635025796
 11
70.977817420166588
 21
103.70621635025796
  0
POINT
  8
_0-8_
 62
    4
 10
70.977817420166588
 20
108.70621635025796
  0
POINT
  8
_0-8_
 62
    4
 10
70.977817420166588
 20
103.70621635025796
  0
LINE
  8
_0-8_
  6
CONTINUOUS
 62
    4
 10
70.977817420166588
 20
108.70621635025796
 11
69.358593884393514
 21
108.70621635025796
  0
LINE
  8
_0-8_
  6
CONTINUOUS
 62
    4
 10
70.977817420166588
 20
103.70621635025796
 11
69.358593884393514
 21
103.70621635025796
  0
TEXT
  8
_0-8_
 62
    4
 10
70.727817420166588
 20
104.95621635025796
 40
1.25
 41
1
 50
90
  1
5.00
  0
TEXT
  8
_0-0_
 62
    7
 10
166.812752074272
 20
6.1587755263920201
 40
1.5
 41
1
 50
0
  1
FLC_carrier mount x-axis_2016.10.09
  0
TEXT
  8
_0-0_
 62
    7
 10
110.81907107322715
 20
15.990569608759529
 40
1.6000000238418579
 41
0.965801836975482
 50
0
  1
09/Oct/2016
  0
ENDSEC
  0
EOF
