  0
SECTION
  2
HEADER
  9
$ACADVER
  1
AC1009
  9
$INSBASE
 10
0
 20
0
 30
0
  9
$EXTMIN
 10
0
 20
0
  9
$EXTMAX
 10
210
 20
148.5
  9
$LIMMIN
 10
0
 20
0
  9
$LIMMAX
 10
210
 20
148.5
  9
$LTSCALE
 40
0.5
  0
ENDSEC
  0
SECTION
  2
TABLES
  0
TABLE
  2
LTYPE
 70
     9
  0
LTYPE
  2
CONTINUOUS
 70
    64
  3
é¿ê¸
 72
    65
 73
     0
 40
0.0
  0
LTYPE
  2
DASHED1
 70
    64
  3
--  --  --  --  --  --  --  --  
 72
    65
 73
     2
 40
2.5
 49
1.25
 49
-1.25
  0
LTYPE
  2
DASHED2
 70
    64
  3
----    ----    ----    ----    
 72
    65
 73
     2
 40
5.0
 49
2.5
 49
-2.5
  0
LTYPE
  2
DASHED3
 70
    64
  3
------  ------  ------  ------  
 72
    65
 73
     2
 40
5.0
 49
3.75
 49
-1.25
  0
LTYPE
  2
CENTER1
 70
    64
  3
----- - ----- - ----- - ----- - 
 72
    65
 73
     4
 40
10.0
 49
6.25
 49
-1.25
 49
1.25
 49
-1.25
  0
LTYPE
  2
CENTER2
 70
    64
  3
----------  --  ----------  --  
 72
    65
 73
     4
 40
20.0
 49
12.5
 49
-2.5
 49
2.5
 49
-2.5
  0
LTYPE
  2
PHANTOM1
 70
    64
  3
--- - - --- - - --- - - --- - - 
 72
    65
 73
     6
 40
10.0
 49
3.25
 49
-1.25
 49
1.25
 49
-1.25
 49
1.25
 49
-1.25
  0
LTYPE
  2
PHANTOM2
 70
    64
  3
--------  -  -  --------  -  -  
 72
    65
 73
     6
 40
20.0
 49
10.0
 49
-2.5
 49
1.25
 49
-2.5
 49
1.25
 49
-2.5
  0
LTYPE
  2
DOT
 70
    64
  3
-   -   -   -   -   -   -   -   
 72
    65
 73
     2
 40
2.5
 49
0.625
 49
-1.875
  0
LTYPE
  2
DUMMY
 70
    64
  3
É_É~Å[
 72
    65
 73
     0
 40
0.0
  0
LTYPE
  2
RAND1
 70
    64
  3
ÉâÉìÉ_ÉÄê¸1
 72
    65
 73
     4
 40
10.0
 49
1.0
 49
-2.0
 49
3.0
 49
-4.0
  0
LTYPE
  2
RAND2
 70
    64
  3
ÉâÉìÉ_ÉÄê¸2
 72
    65
 73
     4
 40
14.0
 49
2.0
 49
-3.0
 49
4.0
 49
-5.0
  0
LTYPE
  2
RAND3
 70
    64
  3
ÉâÉìÉ_ÉÄê¸3
 72
    65
 73
     4
 40
18.0
 49
3.0
 49
-4.0
 49
5.0
 49
-6.0
  0
LTYPE
  2
RAND4
 70
    64
  3
ÉâÉìÉ_ÉÄê¸4
 72
    65
 73
     4
 40
22.0
 49
4.0
 49
-5.0
 49
6.0
 49
-7.0
  0
LTYPE
  2
RAND5
 70
    64
  3
ÉâÉìÉ_ÉÄê¸5
 72
    65
 73
     4
 40
26.0
 49
5.0
 49
-6.0
 49
7.0
 49
-8.0
  0
LTYPE
  2
LONG1
 70
    64
  3
----------  --  ----------  --  
 72
    65
 73
     4
 40
40.0
 49
32.5
 49
-2.5
 49
2.5
 49
-2.5
  0
LTYPE
  2
LONG2
 70
    64
  3
--------  -  -  --------  -  -  
 72
    65
 73
     6
 40
40.0
 49
30.0
 49
-2.5
 49
1.25
 49
-2.5
 49
1.25
 49
-2.5
  0
LTYPE
  2
LONG3
 70
    64
  3
+++++++++++++++..+++++++++++++++
 72
    65
 73
     2
 40
40.0
 49
37.5
 49
-2.5
  0
LTYPE
  2
LONG4
 70
    64
  3
+++++++++++++++..+++++++++++++++
 72
    65
 73
     2
 40
80.0
 49
75.0
 49
-5.0
  0
LTYPE
  2
LONG5
 70
    64
  3
----------  --  ----------  --  
 72
    65
 73
     4
 40
60.0
 49
37.5
 49
-7.5
 49
7.5
 49
-7.5
  0
LTYPE
  2
dashed
 70
   64
  3
-------   -------------   ------
 72
   65
 73
    2
 40
7.5
 49
6
 49
-1.5
  0
LTYPE
  2
dashed_spaced
 70
   64
  3
----        --------        ----
 72
   65
 73
    2
 40
12
 49
6
 49
-6
  0
LTYPE
  2
long_dashed_dotted
 70
   64
  3
------------- --- --------------
 72
   65
 73
    4
 40
15.25
 49
12
 49
-1.5
 49
0.25
 49
-1.5
  0
LTYPE
  2
long_dashed_double-dotted
 70
   64
  3
----------- --- --- ------------
 72
   65
 73
    6
 40
17
 49
12
 49
-1.5
 49
0.25
 49
-1.5
 49
0.25
 49
-1.5
  0
LTYPE
  2
long_dashed_triplicate-dotted
 70
   64
  3
--------- --- --- --- ----------
 72
   65
 73
    8
 40
18.75
 49
12
 49
-1.5
 49
0.25
 49
-1.5
 49
0.25
 49
-1.5
 49
0.25
 49
-1.5
  0
LTYPE
  2
dotted
 70
   64
  3
   -       -       -       -    
 72
   65
 73
    2
 40
1.75
 49
0.25
 49
-1.5
  0
LTYPE
  2
chain
 70
   64
  3
-------------- -- --------------
 72
   65
 73
    4
 40
18.5
 49
12
 49
-1.5
 49
3.5
 49
-1.5
  0
LTYPE
  2
chain_double_dash
 70
   64
  3
------------ -- -- -------------
 72
   65
 73
    6
 40
23.5
 49
12
 49
-1.5
 49
3.5
 49
-1.5
 49
3.5
 49
-1.5
  0
LTYPE
  2
dashed_dotted
 70
   64
  3
-----------     -     ----------
 72
   65
 73
    4
 40
9.25
 49
6
 49
-1.5
 49
0.25
 49
-1.5
  0
LTYPE
  2
double-dashed_dotted
 70
   64
  3
------   -----------   -   -----
 72
   65
 73
    6
 40
16.75
 49
6
 49
-1.5
 49
6
 49
-1.5
 49
0.25
 49
-1.5
  0
LTYPE
  2
dashed_double-dotted
 70
   64
  3
---------    -    -    ---------
 72
   65
 73
    6
 40
11
 49
6
 49
-1.5
 49
0.25
 49
-1.5
 49
0.25
 49
-1.5
  0
LTYPE
  2
double-dashed_double-dotted
 70
   64
  3
-----   ---------   -   -   ----
 72
   65
 73
    8
 40
18.5
 49
6
 49
-1.5
 49
6
 49
-1.5
 49
0.25
 49
-1.5
 49
0.25
 49
-1.5
  0
LTYPE
  2
dashed_triplicate-dotted
 70
   64
  3
-------    -    -    -    ------
 72
   65
 73
    8
 40
12.75
 49
6
 49
-1.5
 49
0.25
 49
-1.5
 49
0.25
 49
-1.5
 49
0.25
 49
-1.5
  0
LTYPE
  2
double-dashed_triplicate-dotted
 70
   64
  3
-----  ---------  -  -  -  -----
 72
   65
 73
   10
 40
20.25
 49
6
 49
-1.5
 49
6
 49
-1.5
 49
0.25
 49
-1.5
 49
0.25
 49
-1.5
 49
0.25
 49
-1.5
  0
LTYPE
  2
undefined
 70
   64
  3
--------------------------------
 72
   65
 73
    0
 40
0
  0
LTYPE
  2
_
 70
   64
  3
                                
 72
   65
 73
    0
 40
0
  0
LTYPE
  2
__18
 70
   64
  3
                                
 72
   65
 73
    0
 40
0
  0
LTYPE
  2
__19
 70
   64
  3
                                
 72
   65
 73
    0
 40
0
  0
LTYPE
  2
__20
 70
   64
  3
                                
 72
   65
 73
    0
 40
0
  0
LTYPE
  2
__21
 70
   64
  3
                                
 72
   65
 73
    0
 40
0
  0
LTYPE
  2
__22
 70
   64
  3
                                
 72
   65
 73
    0
 40
0
  0
LTYPE
  2
__23
 70
   64
  3
                                
 72
   65
 73
    0
 40
0
  0
LTYPE
  2
__24
 70
   64
  3
                                
 72
   65
 73
    0
 40
0
  0
LTYPE
  2
__25
 70
   64
  3
                                
 72
   65
 73
    0
 40
0
  0
LTYPE
  2
__26
 70
   64
  3
                                
 72
   65
 73
    0
 40
0
  0
LTYPE
  2
__27
 70
   64
  3
                                
 72
   65
 73
    0
 40
0
  0
LTYPE
  2
__28
 70
   64
  3
                                
 72
   65
 73
    0
 40
0
  0
LTYPE
  2
__29
 70
   64
  3
                                
 72
   65
 73
    0
 40
0
  0
LTYPE
  2
__30
 70
   64
  3
                                
 72
   65
 73
    0
 40
0
  0
LTYPE
  2
__31
 70
   64
  3
                                
 72
   65
 73
    0
 40
0
  0
LTYPE
  2
__32
 70
   64
  3
                                
 72
   65
 73
    0
 40
0
  0
ENDTAB
  0
TABLE
  2
STYLE
  5
3
100
AcDbSymbolTable
 70
     1
  0
STYLE
  5
10
100
AcDbSymbolTableRecord
100
AcDbTextStyleTableRecord
  2
STANDARD
 70
     0
 40
0.0
 41
1.0
 50
0.0
 71
     0
 42
0.2
  3
txt
  4
bigfont.shx
  0
STYLE
  5
26
100
AcDbSymbolTableRecord
100
AcDbTextStyleTableRecord
  2
TATEGAKI
 70
    68
 40
0.0
 41
1.0
 50
0.0
 71
     0
 42
1.0
  3
txt
  4
bigfont.shx
  0
ENDTAB
  0
TABLE
  2
LAYER
 70
    5
  0
LAYER
  2
_0-0_
 70
   64
 62
    7
  6
CONTINUOUS
  0
LAYER
  2
_0-1_
 70
   64
 62
    7
  6
CONTINUOUS
  0
LAYER
  2
_0-2_
 70
   64
 62
    7
  6
CONTINUOUS
  0
LAYER
  2
_0-8_
 70
   64
 62
    7
  6
CONTINUOUS
  0
LAYER
  2
ADD_LINE
 70
   64
 62
    7
  6
CONTINUOUS
  0
ENDTAB
  0
ENDSEC
  0
SECTION
  2
BLOCKS
  0
ENDSEC
  0
SECTION
  2
ENTITIES
  0
LINE
  8
_0-8_
  6
CONTINUOUS
 62
    4
 10
103.25436122456289
 20
82.453178424969792
 11
109.94782314077953
 21
82.453178424969792
  0
LINE
  8
_0-0_
  6
CONTINUOUS
 62
    4
 10
138.23158611743949
 20
15.290571528029062
 11
109.48158611743943
 21
15.290571528029062
  0
LINE
  8
_0-0_
  6
CONTINUOUS
 62
    4
 10
204.98158611743935
 20
11.040571528029062
 11
147.48158611743943
 21
11.040571528029062
  0
LINE
  8
_0-0_
  6
CONTINUOUS
 62
    4
 10
165.73158611743943
 20
16.040571528029062
 11
203.48158611743943
 21
16.040571528029062
  0
LINE
  8
_0-0_
  6
CONTINUOUS
 62
    4
 10
164.23158611743943
 20
5.5405715280290337
 11
164.23158611743949
 21
21.040571528029062
  0
LINE
  8
_0-0_
  6
CONTINUOUS
 62
    4
 10
109.48158611743943
 20
27.040571528029062
 11
204.98158611743935
 21
27.040571528029062
  0
LINE
  8
_0-0_
  6
CONTINUOUS
 62
    4
 10
109.48158611743943
 20
21.040571528029062
 11
204.98158611743949
 21
21.040571528029062
  0
LINE
  8
_0-0_
  6
CONTINUOUS
 62
    4
 10
130.98158611743943
 20
27.040571528029062
 11
130.98158611743943
 21
21.040571528029062
  0
LINE
  8
_0-0_
  6
CONTINUOUS
 62
    4
 10
147.48158611743943
 20
27.040571528029034
 11
147.48158611743943
 21
5.5405715280289485
  0
LINE
  8
_0-0_
  6
CONTINUOUS
 62
    4
 10
193.48158611743938
 20
27.040571528029062
 11
193.48158611743938
 21
21.040571528029062
  0
LINE
  8
_0-0_
  6
CONTINUOUS
 62
    4
 10
181.98158611743955
 20
21.040571528029062
 11
181.98158611743955
 21
27.040571528029062
  0
LINE
  8
_0-0_
  6
CONTINUOUS
 62
    4
 10
162.23158611743949
 20
21.040571528029062
 11
162.23158611743943
 21
27.040571528029062
  0
LINE
  8
_0-0_
  6
CONTINUOUS
 62
    4
 10
153.96917610146744
 20
6.5031721163634018
 11
156.76917610146739
 21
6.0231721163633836
  0
LINE
  8
_0-0_
  6
CONTINUOUS
 62
    4
 10
156.76917610146739
 20
8.1831721163633802
 11
156.76917610146739
 21
6.0231721163633836
  0
LINE
  8
_0-0_
  6
CONTINUOUS
 62
    4
 10
153.96917610146744
 20
7.7031721163633904
 11
156.76917610146739
 21
8.1831721163633802
  0
LINE
  8
_0-0_
  6
CONTINUOUS
 62
    4
 10
153.96917610146744
 20
7.7031721163633904
 11
153.96917610146744
 21
6.5031721163634018
  0
CIRCLE
  8
_0-0_
  6
CONTINUOUS
 62
    4
 10
152.36917610146739
 20
7.1031721163633961
 40
0.5999999999999996
  0
CIRCLE
  8
_0-0_
  6
CONTINUOUS
 62
    4
 10
152.36917610146739
 20
7.1031721163633961
 40
1.1000000000000001
  0
LINE
  8
_0-0_
  6
CONTINUOUS
 62
    7
 10
157.19729473013905
 20
7.1031721163633961
 11
151.00695350269868
 21
7.1031721163633961
  0
LINE
  8
_0-0_
  6
CONTINUOUS
 62
    7
 10
152.36917610146739
 20
5.8697658056588864
 11
152.36917610146739
 21
8.4266329913444338
  0
LINE
  8
_0-0_
  6
CONTINUOUS
 62
    4
 10
163.23158611743943
 20
16.040571528029062
 11
148.48158611743943
 21
16.040571528029062
  0
LINE
  8
_0-0_
  6
CONTINUOUS
 62
    4
 10
138.23158611743943
 20
5.5405715280290337
 11
138.23158611743955
 21
21.040571528029062
  0
LINE
  8
_0-0_
  6
CONTINUOUS
 62
    4
 10
147.48158611743943
 20
12.290571528029062
 11
138.23158611743949
 21
12.290571528029062
  0
LINE
  8
_0-0_
  6
CONTINUOUS
 62
    4
 10
138.23158611743949
 20
12.290571528029062
 11
109.48158611743943
 21
12.290571528029062
  0
TEXT
  8
_0-0_
 62
    7
 10
160.19601788013483
 20
6.2031721645113009
 40
1.799999952316284
 41
1.060606088702527
 50
0
  1
Ç`ÇR
  0
LINE
  8
_0-0_
  6
CONTINUOUS
 62
    4
 10
109.48158611743943
 20
27.040571528029062
 11
109.48158611743943
 21
5.5405715280290337
  0
TEXT
  8
_0-0_
 62
    7
 10
152.18064638788945
 20
16.490571516108162
 40
1.6000000238418579
 41
1.001059324796296
 50
0
  1
JIS B 0405
  0
TEXT
  8
_0-0_
 62
    7
 10
131.48158611743949
 20
25.188130872797615
 40
1.6000000238418579
 41
1.0422794146408489
 50
0
  1
Material
  0
TEXT
  8
_0-0_
 62
    7
 10
109.98158611743949
 20
25.188130872797615
 40
1.6000000238418579
 41
1.0422794146408489
 50
0
  1
Model
  0
TEXT
  8
_0-0_
 62
    7
 10
162.80609478443168
 20
25.188130872797615
 40
1.6000000238418579
 41
1.027173915877938
 50
0
  1
Surface
  0
TEXT
  8
_0-0_
 62
    7
 10
182.64525637209945
 20
25.359114209308757
 40
1.6000000238418579
 41
1.0422794146408489
 50
0
  1
Quantity
  0
TEXT
  8
_0-0_
 62
    7
 10
164.50952496021293
 20
18.890569644522316
 40
1.799999952316284
 41
1.014492780498069
 50
0
  1
Equipment
  0
TEXT
  8
_0-0_
 62
    7
 10
147.85658611743952
 20
19.190572279047586
 40
1.6000000238418579
 41
1.002948115975157
 50
0
  1
Machining tolerance
  0
TEXT
  8
_0-0_
 62
    7
 10
147.85658611743949
 20
14.190572279047615
 40
1.6000000238418579
 41
1.0738636393269361
 50
0
  1
Grade
  0
TEXT
  8
_0-0_
 62
    7
 10
152.6084934660723
 20
11.756322401117927
 40
1.6000000238418579
 41
1.018318968327266
 50
0
  1
ÇçÅiMediumÅj
  0
TEXT
  8
_0-0_
 62
    7
 10
164.6152073332598
 20
8.9723109775301282
 40
1.799999952316284
 41
1.029411791975982
 50
0
  1
Drawing number
  0
TEXT
  8
_0-0_
 62
    7
 10
147.76382793872855
 20
9.3405718975778882
 40
1.6000000238418579
 41
1.0422794146408489
 50
0
  1
Projection method
  0
TEXT
  8
_0-0_
 62
    7
 10
138.50310101001759
 20
10.545520322870829
 40
1.6000000238418579
 41
1.0738636393269361
 50
0
  1
Unit
  0
TEXT
  8
_0-0_
 62
    7
 10
141.35658611743949
 20
6.888599353384592
 40
1.799999952316284
 41
1.060606088702527
 50
0
  1
mm
  0
TEXT
  8
_0-0_
 62
    7
 10
138.48158611743949
 20
19.190572279047586
 40
1.6000000238418579
 41
1.0738636393269361
 50
0
  1
Scale
  0
TEXT
  8
_0-0_
 62
    7
 10
124.35658611743949
 20
19.190572279047586
 40
1.6000000238418579
 41
1.0422794146408489
 50
0
  1
Finish
  0
TEXT
  8
_0-0_
 62
    7
 10
109.98158611743949
 20
19.190572279047586
 40
1.6000000238418579
 41
1.018318968327266
 50
0
  1
Date
  0
TEXT
  8
_0-0_
 62
    7
 10
121.43491093494239
 20
13.041290449723505
 40
1.5
 41
1.103030262571393
 50
0
  1
Author
  0
TEXT
  8
_0-0_
 62
    7
 10
116.58528335044096
 20
8.2519774219181556
 40
1.5
 41
1.103030262571393
 50
0
  1
Hirotaka Shiojima
  0
LINE
  8
_0-0_
  6
CONTINUOUS
 62
    4
 10
123.85658611743943
 20
21.040571528029062
 11
123.85658611743943
 21
15.290571528029062
  0
TEXT
  8
_0-0_
 62
    7
 10
110.91787171844932
 20
21.91957783510162
 40
1.5
 41
1
 50
0
  1
FLC_carrier mount y-axis
  0
TEXT
  8
_0-0_
 62
    7
 10
122.15351766207269
 20
6.4153878211058952
 40
1.5
 41
1.103030262571393
 50
0
  1
smartDIYs Co.,Ltd.
  0
TEXT
  8
_0-0_
 62
    7
 10
154.90851612409486
 20
21.490571158480293
 40
1.8999999761581421
 41
1.178947400782578
 50
0
  1
Black
  0
TEXT
  8
_0-0_
 62
    7
 10
147.98158611743949
 20
25.188130872797615
 40
1.6000000238418579
 41
1.0422794146408489
 50
0
  1
Color
  0
TEXT
  8
_0-0_
 62
    7
 10
189.68158610551851
 20
21.590573447298624
 40
1.8999999761581421
 41
1.178947400782578
 50
0
  1
1
  0
TEXT
  8
_0-0_
 62
    7
 10
176.25658585517903
 20
16.590568857741005
 40
2
 41
1.0069231051665091
 50
0
  1
Fabool Laser CO2
  0
LINE
  8
_0-0_
  6
CONTINUOUS
 62
    3
 10
4.9815861174394769
 20
5.5405715280290622
 11
204.98158611743943
 21
5.5405715280290337
  0
LINE
  8
_0-0_
  6
CONTINUOUS
 62
    3
 10
4.9815861174395053
 20
143.54057152802909
 11
4.9815861174394769
 21
5.5405715280290622
  0
LINE
  8
_0-0_
  6
CONTINUOUS
 62
    3
 10
204.98158611743943
 20
5.5405715280290337
 11
204.98158611743949
 21
143.54057152802903
  0
LINE
  8
_0-0_
  6
CONTINUOUS
 62
    3
 10
204.98158611743949
 20
143.54057152802903
 11
4.9815861174395053
 21
143.54057152802909
  0
TEXT
  8
_0-8_
 62
    7
 10
58.425064045916685
 20
27.720781458093619
 40
2
 41
1
 50
0
  1
Remarks
  0
TEXT
  8
_0-8_
 62
    7
 10
64.425064045916685
 20
22.720781458093619
 40
2
 41
1
 50
0
  1
No indication: ÅÖR2
  0
LINE
  8
_0-2_
  6
DASHED1
 62
    4
 10
79.214271346765599
 20
112.88088816991186
 11
79.214271346765599
 21
102.60900689019807
  0
LINE
  8
_0-2_
  6
DASHED1
 62
    4
 10
89.214271346765599
 20
121.5084622492567
 11
89.214271346765599
 21
116.02243757734098
  0
LINE
  8
_0-1_
  6
CONTINUOUS
 62
    7
 10
79.214271346765599
 20
47.87478589497875
 11
99.214271346765585
 21
47.87478589497875
  0
LINE
  8
_0-2_
  6
DASHED1
 62
    4
 10
89.214271346765585
 20
72.250009479986744
 11
89.214271346765585
 21
51.375775160882768
  0
LINE
  8
_0-2_
  6
DASHED1
 62
    4
 10
85.025131148492846
 20
57.87478589497875
 11
93.57740677385128
 21
57.87478589497875
  0
CIRCLE
  8
_0-1_
  6
CONTINUOUS
 62
    7
 10
89.214271346765585
 20
67.874785894978757
 40
3
  0
CIRCLE
  8
_0-1_
  6
CONTINUOUS
 62
    7
 10
89.214271346765585
 20
57.87478589497875
 40
3
  0
LINE
  8
_0-1_
  6
CONTINUOUS
 62
    7
 10
99.214271346765599
 20
99.65737053000349
 11
99.214271346765599
 21
117.6573705300035
  0
ARC
  8
_0-1_
  6
CONTINUOUS
 62
    7
 10
97.214271346765599
 20
99.65737053000349
 40
2
 50
270
 51
0
  0
ARC
  8
_0-1_
  6
CONTINUOUS
 62
    7
 10
81.214271346765599
 20
73.874785894978757
 40
2
 50
90
 51
180
  0
LINE
  8
_0-1_
  6
CONTINUOUS
 62
    7
 10
97.214271346765585
 20
75.874785894978757
 11
81.214271346765599
 21
75.874785894978757
  0
LINE
  8
_0-1_
  6
CONTINUOUS
 62
    7
 10
99.214271346765585
 20
73.874785894978757
 11
99.214271346765585
 21
47.87478589497875
  0
ARC
  8
_0-1_
  6
CONTINUOUS
 62
    7
 10
97.214271346765585
 20
73.874785894978757
 40
2
 50
0
 51
90
  0
LINE
  8
_0-2_
  6
DASHED1
 62
    4
 10
138.72535269449344
 20
48.735484704976727
 11
138.72535269449344
 21
44.890332541625945
  0
LINE
  8
_0-2_
  6
DASHED1
 62
    4
 10
133.22535269449347
 20
48.735484704976727
 11
133.22535269449347
 21
44.890332541625945
  0
LINE
  8
_0-2_
  6
DASHED1
 62
    4
 10
144.22535269449344
 20
48.735484704976727
 11
144.22535269449344
 21
44.890332541625945
  0
LINE
  8
_0-1_
  6
CONTINUOUS
 62
    7
 10
130.22535269449347
 20
47.87478589497875
 11
130.22535269449347
 21
49.87478589497875
  0
LINE
  8
_0-1_
  6
CONTINUOUS
 62
    7
 10
136.22535269449347
 20
47.87478589497875
 11
136.22535269449347
 21
49.87478589497875
  0
LINE
  8
_0-1_
  6
CONTINUOUS
 62
    7
 10
130.22535269449347
 20
49.87478589497875
 11
136.22535269449347
 21
49.87478589497875
  0
LINE
  8
_0-1_
  6
CONTINUOUS
 62
    7
 10
141.22535269449344
 20
47.87478589497875
 11
141.22535269449344
 21
49.87478589497875
  0
LINE
  8
_0-1_
  6
CONTINUOUS
 62
    7
 10
147.22535269449344
 20
47.87478589497875
 11
147.22535269449344
 21
49.87478589497875
  0
LINE
  8
_0-1_
  6
CONTINUOUS
 62
    7
 10
141.22535269449344
 20
49.87478589497875
 11
147.22535269449344
 21
49.87478589497875
  0
LINE
  8
_0-2_
  6
DASHED1
 62
    4
 10
85.025131148492846
 20
67.874785894978757
 11
93.57740677385128
 21
67.874785894978757
  0
LINE
  8
_0-2_
  6
DASHED1
 62
    4
 10
146.63214521225984
 20
67.874785894978757
 11
152.72579001806838
 21
67.874785894978757
  0
LINE
  8
_0-2_
  6
DASHED1
 62
    4
 10
146.63214521225984
 20
57.87478589497875
 11
152.72579001806838
 21
57.87478589497875
  0
LINE
  8
_0-8_
  6
CONTINUOUS
 62
    4
 10
79.214271346765599
 20
126.38454101132297
 11
99.214271346765599
 21
126.38454101132297
  0
POINT
  8
_0-8_
 62
    4
 10
79.214271346765599
 20
126.38454101132297
  0
POINT
  8
_0-8_
 62
    4
 10
99.214271346765599
 20
126.38454101132297
  0
LINE
  8
_0-8_
  6
CONTINUOUS
 62
    4
 10
79.214271346765599
 20
126.38454101132297
 11
79.214271346765599
 21
120.94000385015499
  0
LINE
  8
_0-8_
  6
CONTINUOUS
 62
    4
 10
99.214271346765599
 20
126.38454101132297
 11
99.214271346765599
 21
120.94000385015499
  0
TEXT
  8
_0-8_
 62
    7
 10
88.589271346765599
 20
126.63454101132297
 40
1.25
 41
1
 50
0
  1
20
  0
LINE
  8
_0-8_
  6
CONTINUOUS
 62
    4
 10
99.214271346765599
 20
123.26127059771467
 11
89.214271346765599
 21
123.26127059771467
  0
POINT
  8
_0-8_
 62
    4
 10
99.214271346765599
 20
123.26127059771467
  0
POINT
  8
_0-8_
 62
    4
 10
89.214271346765599
 20
123.26127059771467
  0
LINE
  8
_0-8_
  6
CONTINUOUS
 62
    4
 10
99.214271346765599
 20
123.26127059771467
 11
99.214271346765599
 21
120.94000385015499
  0
LINE
  8
_0-8_
  6
CONTINUOUS
 62
    4
 10
89.214271346765599
 20
123.26127059771467
 11
89.214271346765599
 21
120.94000385015499
  0
TEXT
  8
_0-8_
 62
    7
 10
93.589271346765599
 20
123.51127059771467
 40
1.25
 41
1
 50
0
  1
10
  0
POINT
  8
_0-8_
 62
    4
 10
108.8183117961746
 20
117.6573705300035
  0
LINE
  8
_0-8_
  6
CONTINUOUS
 62
    4
 10
108.8183117961746
 20
117.6573705300035
 11
100.50129285878441
 21
117.6573705300035
  0
LINE
  8
_0-8_
  6
CONTINUOUS
 62
    4
 10
108.8183117961746
 20
117.6573705300035
 11
108.8183117961746
 21
97.65737053000349
  0
POINT
  8
_0-8_
 62
    4
 10
108.8183117961746
 20
117.6573705300035
  0
POINT
  8
_0-8_
 62
    4
 10
108.8183117961746
 20
97.65737053000349
  0
LINE
  8
_0-8_
  6
CONTINUOUS
 62
    4
 10
108.8183117961746
 20
117.6573705300035
 11
100.50129285878441
 21
117.6573705300035
  0
LINE
  8
_0-8_
  6
CONTINUOUS
 62
    4
 10
108.8183117961746
 20
97.65737053000349
 11
100.50129285878441
 21
97.65737053000349
  0
TEXT
  8
_0-8_
 62
    7
 10
108.5683117961746
 20
107.03237053000349
 40
1.25
 41
1
 50
90
  1
20
  0
LINE
  8
_0-8_
  6
CONTINUOUS
 62
    4
 10
103.60658725313294
 20
117.6573705300035
 11
103.60658725313294
 21
113.1573705300035
  0
POINT
  8
_0-8_
 62
    4
 10
103.60658725313294
 20
117.6573705300035
  0
POINT
  8
_0-8_
 62
    4
 10
103.60658725313294
 20
113.1573705300035
  0
LINE
  8
_0-8_
  6
CONTINUOUS
 62
    4
 10
103.60658725313294
 20
117.6573705300035
 11
100.50129285878441
 21
117.6573705300035
  0
LINE
  8
_0-8_
  6
CONTINUOUS
 62
    4
 10
103.60658725313294
 20
113.1573705300035
 11
100.50129285878441
 21
113.1573705300035
  0
TEXT
  8
_0-8_
 62
    7
 10
103.35658725313294
 20
114.4698705300035
 40
1.25
 41
1
 50
90
  1
4.5
  0
LINE
  8
_0-8_
  6
CONTINUOUS
 62
    4
 10
103.60658725313294
 20
113.1573705300035
 11
103.60658725313294
 21
102.1573705300035
  0
POINT
  8
_0-8_
 62
    4
 10
103.60658725313294
 20
102.1573705300035
  0
LINE
  8
_0-8_
  6
CONTINUOUS
 62
    4
 10
103.60658725313294
 20
102.1573705300035
 11
100.50129285878441
 21
102.1573705300035
  0
TEXT
  8
_0-8_
 62
    7
 10
103.35658725313294
 20
107.0323705300035
 40
1.25
 41
1
 50
90
  1
11
  0
LINE
  8
_0-8_
  6
CONTINUOUS
 62
    4
 10
108.07991370651156
 20
47.87478589497875
 11
108.07991370651156
 21
75.874785894978757
  0
POINT
  8
_0-8_
 62
    4
 10
108.07991370651156
 20
75.874785894978757
  0
LINE
  8
_0-8_
  6
CONTINUOUS
 62
    4
 10
108.07991370651156
 20
75.874785894978757
 11
100.89703765578112
 21
75.874785894978757
  0
TEXT
  8
_0-8_
 62
    7
 10
107.82991370651156
 20
61.24978589497875
 40
1.25
 41
1
 50
90
  1
28
  0
LINE
  8
_0-8_
  6
CONTINUOUS
 62
    4
 10
103.65606558583417
 20
75.874785894978757
 11
103.65606558583417
 21
67.874785894978757
  0
POINT
  8
_0-8_
 62
    4
 10
103.65606558583417
 20
75.874785894978757
  0
POINT
  8
_0-8_
 62
    4
 10
103.65606558583417
 20
67.874785894978757
  0
LINE
  8
_0-8_
  6
CONTINUOUS
 62
    4
 10
103.65606558583417
 20
75.874785894978757
 11
100.89703765578112
 21
75.874785894978757
  0
LINE
  8
_0-8_
  6
CONTINUOUS
 62
    4
 10
103.65606558583417
 20
67.874785894978757
 11
100.89703765578112
 21
67.874785894978757
  0
TEXT
  8
_0-8_
 62
    7
 10
103.40606558583417
 20
71.562285894978757
 40
1.25
 41
1
 50
90
  1
8
  0
LINE
  8
_0-8_
  6
CONTINUOUS
 62
    4
 10
103.65606558583417
 20
67.874785894978757
 11
103.65606558583417
 21
57.87478589497875
  0
POINT
  8
_0-8_
 62
    4
 10
103.65606558583417
 20
57.87478589497875
  0
LINE
  8
_0-8_
  6
CONTINUOUS
 62
    4
 10
103.65606558583417
 20
57.87478589497875
 11
100.89703765578112
 21
57.87478589497875
  0
TEXT
  8
_0-8_
 62
    7
 10
103.40606558583417
 20
62.24978589497875
 40
1.25
 41
1
 50
90
  1
10
  0
LINE
  8
_0-8_
  6
CONTINUOUS
 62
    4
 10
78.718118111282152
 20
76.203202352725384
 11
72.814608502478478
 21
82.106711961529058
  0
LINE
  8
_0-8_
  6
CONTINUOUS
 62
    4
 10
78.718118111282152
 20
76.203202352725384
 11
77.419080005605494
 21
76.953202352725384
  0
LINE
  8
_0-8_
  6
CONTINUOUS
 62
    4
 10
78.718118111282152
 20
76.203202352725384
 11
77.968118111282152
 21
77.502240458402042
  0
LINE
  8
_0-8_
  6
CONTINUOUS
 62
    4
 10
150.84148136537465
 20
46.151738374764136
 11
158.10871221432302
 21
38.884507525815792
  0
LINE
  8
_0-8_
  6
CONTINUOUS
 62
    4
 10
150.84148136537465
 20
46.151738374764136
 11
152.14051947105133
 21
45.401738374764136
  0
LINE
  8
_0-8_
  6
CONTINUOUS
 62
    4
 10
150.84148136537465
 20
46.151738374764136
 11
151.59148136537465
 21
44.852700269087478
  0
TEXT
  8
_0-8_
 62
    7
 10
159.07076972787084
 20
39.440657855993159
 40
1.5
 41
1.103030262571393
 50
0
  1
R2
  0
LINE
  8
_0-8_
  6
CONTINUOUS
 62
    4
 10
158.10871221432302
 20
38.884507525815792
 11
162.4210607089104
 21
38.884507525815792
  0
TEXT
  8
_0-8_
 62
    7
 10
68.301291933354733
 20
82.347407407065077
 40
1.5
 41
1.103030262571393
 50
0
  1
R2Å~2
  0
LINE
  8
_0-8_
  6
CONTINUOUS
 62
    4
 10
67.574804921408756
 20
82.106711961529072
 11
72.814608502478478
 21
82.106711961529072
  0
LINE
  8
_0-8_
  6
CONTINUOUS
 62
    4
 10
91.340791092420403
 20
70.539608292827296
 11
103.25436122456289
 21
82.453178424969792
  0
LINE
  8
_0-8_
  6
CONTINUOUS
 62
    4
 10
91.340791092420403
 20
70.539608292827296
 11
92.090791092420403
 21
71.838646398503954
  0
LINE
  8
_0-8_
  6
CONTINUOUS
 62
    4
 10
91.340791092420403
 20
70.539608292827296
 11
92.639829198097061
 21
71.289608292827296
  0
TEXT
  8
_0-8_
 62
    7
 10
103.94175524587463
 20
82.922568327136489
 40
1.5
 41
1.103030262571393
 50
0
  1
É≥6Å~2
  0
TEXT
  8
_0-0_
 62
    7
 10
165.29671913286427
 20
21.76101336758154
 40
1.8999999761581421
 41
1.178947400782578
 50
0
  1
Powder corting
  0
LINE
  8
_0-1_
  6
CONTINUOUS
 62
    7
 10
99.214271346765585
 20
46.274785894978749
 11
99.214271346765585
 21
47.87478589497875
  0
LINE
  8
_0-1_
  6
CONTINUOUS
 62
    7
 10
128.72535269449347
 20
46.274785894978749
 11
128.72535269449347
 21
47.87478589497875
  0
LINE
  8
_0-1_
  6
DASHED1
 62
    7
 10
148.72535269449344
 20
47.87478589497875
 11
148.72535269449344
 21
46.274785894978749
  0
LINE
  8
_0-1_
  6
DASHED1
 62
    4
 10
135.22535269449347
 20
46.274785894978749
 11
135.22535269449347
 21
49.87478589497875
  0
LINE
  8
_0-1_
  6
DASHED1
 62
    7
 10
134.72535269449347
 20
46.274785894978749
 11
134.72535269449347
 21
49.87478589497875
  0
LINE
  8
_0-1_
  6
DASHED1
 62
    7
 10
131.72535269449347
 20
46.274785894978749
 11
131.72535269449347
 21
49.87478589497875
  0
LINE
  8
_0-1_
  6
DASHED1
 62
    4
 10
131.22535269449347
 20
46.274785894978749
 11
131.22535269449347
 21
49.87478589497875
  0
LINE
  8
_0-1_
  6
DASHED1
 62
    4
 10
146.22535269449344
 20
46.274785894978749
 11
146.22535269449344
 21
49.87478589497875
  0
LINE
  8
_0-1_
  6
DASHED1
 62
    7
 10
145.72535269449344
 20
46.274785894978749
 11
145.72535269449344
 21
49.87478589497875
  0
LINE
  8
_0-1_
  6
DASHED1
 62
    7
 10
142.72535269449344
 20
46.274785894978749
 11
142.72535269449344
 21
49.87478589497875
  0
LINE
  8
_0-1_
  6
DASHED1
 62
    4
 10
142.22535269449344
 20
46.274785894978749
 11
142.22535269449344
 21
49.87478589497875
  0
LINE
  8
_0-1_
  6
CONTINUOUS
 62
    7
 10
148.72535269449344
 20
75.874785894978757
 11
150.32535269449343
 21
75.874785894978757
  0
LINE
  8
_0-1_
  6
DASHED1
 62
    7
 10
148.72535269449344
 20
64.874785894978757
 11
150.32535269449343
 21
64.874785894978757
  0
LINE
  8
_0-1_
  6
DASHED1
 62
    7
 10
148.72535269449344
 20
70.874785894978757
 11
150.32535269449343
 21
70.874785894978757
  0
LINE
  8
_0-1_
  6
DASHED1
 62
    7
 10
148.72535269449344
 20
54.87478589497875
 11
150.32535269449343
 21
54.87478589497875
  0
LINE
  8
_0-1_
  6
DASHED1
 62
    7
 10
148.72535269449344
 20
60.87478589497875
 11
150.32535269449343
 21
60.87478589497875
  0
LINE
  8
_0-1_
  6
CONTINUOUS
 62
    7
 10
148.32535269449343
 20
46.274785894978749
 11
128.72535269449347
 21
46.274785894978749
  0
LINE
  8
_0-1_
  6
CONTINUOUS
 62
    7
 10
150.32535269449343
 20
48.274785894978749
 11
150.32535269449343
 21
75.874785894978757
  0
ARC
  8
_0-1_
  6
CONTINUOUS
 62
    7
 10
148.32535269449343
 20
48.274785894978749
 40
2
 50
270
 51
0
  0
LINE
  8
_0-1_
  6
CONTINUOUS
 62
    7
 10
147.72535269449344
 20
47.87478589497875
 11
128.72535269449347
 21
47.87478589497875
  0
LINE
  8
_0-1_
  6
CONTINUOUS
 62
    7
 10
148.72535269449344
 20
48.87478589497875
 11
148.72535269449344
 21
75.874785894978757
  0
ARC
  8
_0-1_
  6
CONTINUOUS
 62
    7
 10
147.72535269449344
 20
48.87478589497875
 40
1
 50
270
 51
0
  0
LINE
  8
_0-8_
  6
CONTINUOUS
 62
    4
 10
108.07991370651156
 20
47.87478589497875
 11
108.07991370651156
 21
46.274785894978749
  0
POINT
  8
_0-8_
 62
    4
 10
108.07991370651156
 20
47.87478589497875
  0
POINT
  8
_0-8_
 62
    4
 10
108.07991370651156
 20
46.274785894978749
  0
LINE
  8
_0-8_
  6
CONTINUOUS
 62
    4
 10
108.07991370651156
 20
47.87478589497875
 11
100.89703765578112
 21
47.87478589497875
  0
LINE
  8
_0-8_
  6
CONTINUOUS
 62
    4
 10
108.07991370651156
 20
46.274785894978749
 11
100.89703765578112
 21
46.274785894978749
  0
TEXT
  8
_0-8_
 62
    7
 10
109.77081362103125
 20
46.137285894978746
 40
1.25
 41
1
 50
90
  1
1.6
  0
TEXT
  8
_0-0_
 62
    7
 10
136.03157081096668
 20
21.490567343782999
 40
1.8999999761581421
 41
1.025171652854415
 50
0
  1
SUS304
  0
LINE
  8
_0-1_
  6
CONTINUOUS
 62
    7
 10
79.214271346765599
 20
119.2573705300035
 11
99.214271346765599
 21
119.2573705300035
  0
LINE
  8
_0-1_
  6
CONTINUOUS
 62
    7
 10
99.214271346765599
 20
117.6573705300035
 11
99.214271346765599
 21
119.2573705300035
  0
LINE
  8
_0-1_
  6
DASHED1
 62
    7
 10
86.214271346765599
 20
119.2573705300035
 11
86.214271346765599
 21
117.6573705300035
  0
LINE
  8
_0-1_
  6
DASHED1
 62
    7
 10
92.214271346765599
 20
119.2573705300035
 11
92.214271346765599
 21
117.6573705300035
  0
LINE
  8
_0-8_
  6
CONTINUOUS
 62
    4
 10
108.8183117961746
 20
119.2573705300035
 11
108.8183117961746
 21
117.6573705300035
  0
POINT
  8
_0-8_
 62
    4
 10
108.8183117961746
 20
119.2573705300035
  0
POINT
  8
_0-8_
 62
    4
 10
108.8183117961746
 20
117.6573705300035
  0
LINE
  8
_0-8_
  6
CONTINUOUS
 62
    4
 10
108.8183117961746
 20
119.2573705300035
 11
100.50129285878441
 21
119.2573705300035
  0
LINE
  8
_0-8_
  6
CONTINUOUS
 62
    4
 10
108.8183117961746
 20
117.6573705300035
 11
100.50129285878441
 21
117.6573705300035
  0
TEXT
  8
_0-8_
 62
    7
 10
110.36965930752071
 20
117.5198705300035
 40
1.25
 41
1
 50
90
  1
1.6
  0
TEXT
  8
_0-0_
 62
    7
 10
166.812752074272
 20
6.1587755263920201
 40
1.5
 41
1
 50
0
  1
FLC_carrier mount y-axis_2016.09.28
  0
TEXT
  8
_0-0_
 62
    7
 10
110.81907107322715
 20
15.990569608759529
 40
1.6000000238418579
 41
0.965801836975482
 50
0
  1
28/Sep/2016
  0
LINE
  8
_0-2_
  6
DASHED1
 62
    4
 10
89.214271346765599
 20
115.35123893753956
 11
89.214271346765599
 21
111.00289630216048
  0
LINE
  8
_0-2_
  6
DASHED1
 62
    4
 10
87.080973613686709
 20
113.1573705300035
 11
91.377329821388614
 21
113.1573705300035
  0
LINE
  8
_0-2_
  6
DASHED1
 62
    4
 10
89.214271346765599
 20
104.65859688379494
 11
89.214271346765599
 21
100.01909574915746
  0
LINE
  8
_0-2_
  6
DASHED1
 62
    4
 10
87.027492001142704
 20
102.1573705300035
 11
91.377329821388614
 21
102.1573705300035
  0
CIRCLE
  8
_0-1_
  6
CONTINUOUS
 62
    7
 10
89.214271346765599
 20
113.1573705300035
 40
1.5
  0
CIRCLE
  8
_0-1_
  6
CONTINUOUS
 62
    7
 10
89.214271346765599
 20
102.1573705300035
 40
1.5
  0
CIRCLE
  8
_0-1_
  6
CONTINUOUS
 62
    4
 10
89.214271346765599
 20
113.1573705300035
 40
2
  0
CIRCLE
  8
_0-1_
  6
CONTINUOUS
 62
    4
 10
89.214271346765599
 20
102.1573705300035
 40
2
  0
LINE
  8
_0-8_
  6
CONTINUOUS
 62
    4
 10
87.856894456744286
 20
100.3023350998167
 11
86.557856351067628
 21
99.552335099816702
  0
LINE
  8
_0-8_
  6
CONTINUOUS
 62
    4
 10
87.856894456744286
 20
100.3023350998167
 11
87.106894456744286
 21
99.003296994140044
  0
LINE
  8
_0-8_
  6
CONTINUOUS
 62
    4
 10
87.856894456744286
 20
100.3023350998167
 11
75.510941744818638
 21
87.956382387891054
  0
TEXT
  8
_0-8_
 62
    7
 10
48.457186708197526
 20
88.394821688636171
 40
1.5
 41
1.103030262571393
 50
0
  1
M4Å~2 Burring or Pressing rivets
  0
LINE
  8
_0-8_
  6
CONTINUOUS
 62
    4
 10
75.510941744818638
 20
87.956382387891054
 11
47.084760719637416
 21
87.956382387891054
  0
LINE
  8
_0-1_
  6
CONTINUOUS
 62
    7
 10
86.214271346765585
 20
47.87478589497875
 11
86.214271346765585
 21
49.87478589497875
  0
LINE
  8
_0-1_
  6
CONTINUOUS
 62
    7
 10
92.214271346765585
 20
47.87478589497875
 11
92.214271346765585
 21
49.87478589497875
  0
LINE
  8
_0-1_
  6
CONTINUOUS
 62
    7
 10
86.214271346765585
 20
49.87478589497875
 11
92.214271346765585
 21
49.87478589497875
  0
LINE
  8
_0-1_
  6
DASHED1
 62
    4
 10
87.214271346765585
 20
46.274785894978749
 11
87.214271346765585
 21
49.87478589497875
  0
LINE
  8
_0-1_
  6
DASHED1
 62
    7
 10
87.714271346765585
 20
46.274785894978749
 11
87.714271346765585
 21
49.87478589497875
  0
LINE
  8
_0-2_
  6
DASHED1
 62
    4
 10
89.214271346765585
 20
50.428310536429279
 11
89.214271346765585
 21
46.274785894978749
  0
LINE
  8
_0-1_
  6
DASHED1
 62
    7
 10
90.714271346765585
 20
46.274785894978749
 11
90.714271346765585
 21
49.87478589497875
  0
LINE
  8
_0-1_
  6
DASHED1
 62
    4
 10
91.214271346765585
 20
46.274785894978749
 11
91.214271346765585
 21
49.87478589497875
  0
LINE
  8
_0-8_
  6
CONTINUOUS
 62
    4
 10
85.842173343844763
 20
49.46771290467845
 11
85.092173343844763
 21
50.766751010355108
  0
LINE
  8
_0-8_
  6
CONTINUOUS
 62
    4
 10
85.842173343844763
 20
49.46771290467845
 11
84.543135238168105
 21
50.21771290467845
  0
LINE
  8
_0-8_
  6
CONTINUOUS
 62
    4
 10
85.842173343844763
 20
49.46771290467845
 11
69.69202780453557
 21
65.617858443987643
  0
TEXT
  8
_0-8_
 62
    7
 10
42.638272767914465
 20
66.05629774473276
 40
1.5
 41
1.103030262571393
 50
0
  1
M4Å~2 Burring or Pressing rivets
  0
LINE
  8
_0-8_
  6
CONTINUOUS
 62
    4
 10
69.69202780453557
 20
65.617858443987643
 11
41.265846779354355
 21
65.617858443987643
  0
LINE
  8
_0-1_
  6
CONTINUOUS
 62
    7
 10
79.214271346765599
 20
73.874785894978757
 11
79.214271346765599
 21
46.274785894978749
  0
LINE
  8
_0-1_
  6
CONTINUOUS
 62
    7
 10
99.214271346765585
 20
47.87478589497875
 11
79.214271346765599
 21
47.87478589497875
  0
LINE
  8
_0-1_
  6
CONTINUOUS
 62
    7
 10
79.214271346765599
 20
46.274785894978749
 11
99.214271346765585
 21
46.274785894978749
  0
LINE
  8
_0-1_
  6
CONTINUOUS
 62
    7
 10
79.214271346765599
 20
117.6573705300035
 11
99.214271346765599
 21
117.6573705300035
  0
LINE
  8
_0-1_
  6
CONTINUOUS
 62
    7
 10
79.214271346765599
 20
99.65737053000349
 11
79.214271346765599
 21
119.2573705300035
  0
LINE
  8
_0-1_
  6
CONTINUOUS
 62
    7
 10
81.214271346765599
 20
97.65737053000349
 11
97.214271346765599
 21
97.65737053000349
  0
ARC
  8
_0-1_
  6
CONTINUOUS
 62
    7
 10
81.214271346765599
 20
99.65737053000349
 40
2
 50
180
 51
270
  0
LINE
  8
_0-8_
  6
CONTINUOUS
 62
    4
 10
79.635090211874996
 20
97.811804521442667
 11
78.885090211874996
 21
96.512766415766009
  0
LINE
  8
_0-8_
  6
CONTINUOUS
 62
    4
 10
79.635090211874996
 20
97.811804521442667
 11
78.336052106198338
 21
97.061804521442667
  0
LINE
  8
_0-8_
  6
CONTINUOUS
 62
    4
 10
79.635090211874996
 20
97.811804521442667
 11
75.308342576375438
 21
93.485056885943109
  0
LINE
  8
_0-8_
  6
CONTINUOUS
 62
    4
 10
70.068538995305715
 20
93.485056885943109
 11
75.308342576375438
 21
93.485056885943109
  0
TEXT
  8
_0-8_
 62
    7
 10
70.795026007251693
 20
93.725752331479129
 40
1.5
 41
1.103030262571393
 50
0
  1
R2Å~2
  0
LINE
  8
_0-8_
  6
CONTINUOUS
 62
    4
 10
99.214271346765599
 20
89.48885775701271
 11
89.214271346765599
 21
89.48885775701271
  0
POINT
  8
_0-8_
 62
    4
 10
99.214271346765599
 20
89.48885775701271
  0
POINT
  8
_0-8_
 62
    4
 10
89.214271346765599
 20
89.48885775701271
  0
LINE
  8
_0-8_
  6
CONTINUOUS
 62
    4
 10
99.214271346765599
 20
89.48885775701271
 11
99.214271346765599
 21
96.261351478983329
  0
LINE
  8
_0-8_
  6
CONTINUOUS
 62
    4
 10
89.214271346765599
 20
89.48885775701271
 11
89.214271346765599
 21
96.261351478983329
  0
TEXT
  8
_0-8_
 62
    4
 10
93.589271346765599
 20
89.73885775701271
 40
1.25
 41
1
 50
0
  1
10
  0
ENDSEC
  0
EOF
