  0
SECTION
  2
HEADER
  9
$ACADVER
  1
AC1009
  9
$INSBASE
 10
0
 20
0
 30
0
  9
$EXTMIN
 10
0
 20
0
  9
$EXTMAX
 10
420
 20
297
  9
$LIMMIN
 10
0
 20
0
  9
$LIMMAX
 10
420
 20
297
  9
$LTSCALE
 40
1
  0
ENDSEC
  0
SECTION
  2
TABLES
  0
TABLE
  2
LTYPE
 70
     9
  0
LTYPE
  2
CONTINUOUS
 70
    64
  3
é¿ê¸
 72
    65
 73
     0
 40
0.0
  0
LTYPE
  2
DASHED1
 70
    64
  3
--  --  --  --  --  --  --  --  
 72
    65
 73
     2
 40
2.5
 49
1.25
 49
-1.25
  0
LTYPE
  2
DASHED2
 70
    64
  3
----    ----    ----    ----    
 72
    65
 73
     2
 40
5.0
 49
2.5
 49
-2.5
  0
LTYPE
  2
DASHED3
 70
    64
  3
------  ------  ------  ------  
 72
    65
 73
     2
 40
5.0
 49
3.75
 49
-1.25
  0
LTYPE
  2
CENTER1
 70
    64
  3
----- - ----- - ----- - ----- - 
 72
    65
 73
     4
 40
10.0
 49
6.25
 49
-1.25
 49
1.25
 49
-1.25
  0
LTYPE
  2
CENTER2
 70
    64
  3
----------  --  ----------  --  
 72
    65
 73
     4
 40
20.0
 49
12.5
 49
-2.5
 49
2.5
 49
-2.5
  0
LTYPE
  2
PHANTOM1
 70
    64
  3
--- - - --- - - --- - - --- - - 
 72
    65
 73
     6
 40
10.0
 49
3.25
 49
-1.25
 49
1.25
 49
-1.25
 49
1.25
 49
-1.25
  0
LTYPE
  2
PHANTOM2
 70
    64
  3
--------  -  -  --------  -  -  
 72
    65
 73
     6
 40
20.0
 49
10.0
 49
-2.5
 49
1.25
 49
-2.5
 49
1.25
 49
-2.5
  0
LTYPE
  2
DOT
 70
    64
  3
-   -   -   -   -   -   -   -   
 72
    65
 73
     2
 40
2.5
 49
0.625
 49
-1.875
  0
LTYPE
  2
DUMMY
 70
    64
  3
É_É~Å[
 72
    65
 73
     0
 40
0.0
  0
LTYPE
  2
RAND1
 70
    64
  3
ÉâÉìÉ_ÉÄê¸1
 72
    65
 73
     4
 40
10.0
 49
1.0
 49
-2.0
 49
3.0
 49
-4.0
  0
LTYPE
  2
RAND2
 70
    64
  3
ÉâÉìÉ_ÉÄê¸2
 72
    65
 73
     4
 40
14.0
 49
2.0
 49
-3.0
 49
4.0
 49
-5.0
  0
LTYPE
  2
RAND3
 70
    64
  3
ÉâÉìÉ_ÉÄê¸3
 72
    65
 73
     4
 40
18.0
 49
3.0
 49
-4.0
 49
5.0
 49
-6.0
  0
LTYPE
  2
RAND4
 70
    64
  3
ÉâÉìÉ_ÉÄê¸4
 72
    65
 73
     4
 40
22.0
 49
4.0
 49
-5.0
 49
6.0
 49
-7.0
  0
LTYPE
  2
RAND5
 70
    64
  3
ÉâÉìÉ_ÉÄê¸5
 72
    65
 73
     4
 40
26.0
 49
5.0
 49
-6.0
 49
7.0
 49
-8.0
  0
LTYPE
  2
LONG1
 70
    64
  3
----------  --  ----------  --  
 72
    65
 73
     4
 40
40.0
 49
32.5
 49
-2.5
 49
2.5
 49
-2.5
  0
LTYPE
  2
LONG2
 70
    64
  3
--------  -  -  --------  -  -  
 72
    65
 73
     6
 40
40.0
 49
30.0
 49
-2.5
 49
1.25
 49
-2.5
 49
1.25
 49
-2.5
  0
LTYPE
  2
LONG3
 70
    64
  3
+++++++++++++++..+++++++++++++++
 72
    65
 73
     2
 40
40.0
 49
37.5
 49
-2.5
  0
LTYPE
  2
LONG4
 70
    64
  3
+++++++++++++++..+++++++++++++++
 72
    65
 73
     2
 40
80.0
 49
75.0
 49
-5.0
  0
LTYPE
  2
LONG5
 70
    64
  3
----------  --  ----------  --  
 72
    65
 73
     4
 40
60.0
 49
37.5
 49
-7.5
 49
7.5
 49
-7.5
  0
LTYPE
  2
dashed
 70
   64
  3
-------   -------------   ------
 72
   65
 73
    2
 40
7.5
 49
6
 49
-1.5
  0
LTYPE
  2
dashed_spaced
 70
   64
  3
----        --------        ----
 72
   65
 73
    2
 40
12
 49
6
 49
-6
  0
LTYPE
  2
long_dashed_dotted
 70
   64
  3
------------- --- --------------
 72
   65
 73
    4
 40
15.25
 49
12
 49
-1.5
 49
0.25
 49
-1.5
  0
LTYPE
  2
long_dashed_double-dotted
 70
   64
  3
----------- --- --- ------------
 72
   65
 73
    6
 40
17
 49
12
 49
-1.5
 49
0.25
 49
-1.5
 49
0.25
 49
-1.5
  0
LTYPE
  2
long_dashed_triplicate-dotted
 70
   64
  3
--------- --- --- --- ----------
 72
   65
 73
    8
 40
18.75
 49
12
 49
-1.5
 49
0.25
 49
-1.5
 49
0.25
 49
-1.5
 49
0.25
 49
-1.5
  0
LTYPE
  2
dotted
 70
   64
  3
   -       -       -       -    
 72
   65
 73
    2
 40
1.75
 49
0.25
 49
-1.5
  0
LTYPE
  2
chain
 70
   64
  3
-------------- -- --------------
 72
   65
 73
    4
 40
18.5
 49
12
 49
-1.5
 49
3.5
 49
-1.5
  0
LTYPE
  2
chain_double_dash
 70
   64
  3
------------ -- -- -------------
 72
   65
 73
    6
 40
23.5
 49
12
 49
-1.5
 49
3.5
 49
-1.5
 49
3.5
 49
-1.5
  0
LTYPE
  2
dashed_dotted
 70
   64
  3
-----------     -     ----------
 72
   65
 73
    4
 40
9.25
 49
6
 49
-1.5
 49
0.25
 49
-1.5
  0
LTYPE
  2
double-dashed_dotted
 70
   64
  3
------   -----------   -   -----
 72
   65
 73
    6
 40
16.75
 49
6
 49
-1.5
 49
6
 49
-1.5
 49
0.25
 49
-1.5
  0
LTYPE
  2
dashed_double-dotted
 70
   64
  3
---------    -    -    ---------
 72
   65
 73
    6
 40
11
 49
6
 49
-1.5
 49
0.25
 49
-1.5
 49
0.25
 49
-1.5
  0
LTYPE
  2
double-dashed_double-dotted
 70
   64
  3
-----   ---------   -   -   ----
 72
   65
 73
    8
 40
18.5
 49
6
 49
-1.5
 49
6
 49
-1.5
 49
0.25
 49
-1.5
 49
0.25
 49
-1.5
  0
LTYPE
  2
dashed_triplicate-dotted
 70
   64
  3
-------    -    -    -    ------
 72
   65
 73
    8
 40
12.75
 49
6
 49
-1.5
 49
0.25
 49
-1.5
 49
0.25
 49
-1.5
 49
0.25
 49
-1.5
  0
LTYPE
  2
double-dashed_triplicate-dotted
 70
   64
  3
-----  ---------  -  -  -  -----
 72
   65
 73
   10
 40
20.25
 49
6
 49
-1.5
 49
6
 49
-1.5
 49
0.25
 49
-1.5
 49
0.25
 49
-1.5
 49
0.25
 49
-1.5
  0
LTYPE
  2
undefined
 70
   64
  3
--------------------------------
 72
   65
 73
    0
 40
0
  0
LTYPE
  2
_
 70
   64
  3
                                
 72
   65
 73
    0
 40
0
  0
LTYPE
  2
__18
 70
   64
  3
                                
 72
   65
 73
    0
 40
0
  0
LTYPE
  2
__19
 70
   64
  3
                                
 72
   65
 73
    0
 40
0
  0
LTYPE
  2
__20
 70
   64
  3
                                
 72
   65
 73
    0
 40
0
  0
LTYPE
  2
__21
 70
   64
  3
                                
 72
   65
 73
    0
 40
0
  0
LTYPE
  2
__22
 70
   64
  3
                                
 72
   65
 73
    0
 40
0
  0
LTYPE
  2
__23
 70
   64
  3
                                
 72
   65
 73
    0
 40
0
  0
LTYPE
  2
__24
 70
   64
  3
                                
 72
   65
 73
    0
 40
0
  0
LTYPE
  2
__25
 70
   64
  3
                                
 72
   65
 73
    0
 40
0
  0
LTYPE
  2
__26
 70
   64
  3
                                
 72
   65
 73
    0
 40
0
  0
LTYPE
  2
__27
 70
   64
  3
                                
 72
   65
 73
    0
 40
0
  0
LTYPE
  2
__28
 70
   64
  3
                                
 72
   65
 73
    0
 40
0
  0
LTYPE
  2
__29
 70
   64
  3
                                
 72
   65
 73
    0
 40
0
  0
LTYPE
  2
__30
 70
   64
  3
                                
 72
   65
 73
    0
 40
0
  0
LTYPE
  2
__31
 70
   64
  3
                                
 72
   65
 73
    0
 40
0
  0
LTYPE
  2
__32
 70
   64
  3
                                
 72
   65
 73
    0
 40
0
  0
ENDTAB
  0
TABLE
  2
STYLE
  5
3
100
AcDbSymbolTable
 70
     1
  0
STYLE
  5
10
100
AcDbSymbolTableRecord
100
AcDbTextStyleTableRecord
  2
STANDARD
 70
     0
 40
0.0
 41
1.0
 50
0.0
 71
     0
 42
0.2
  3
txt
  4
bigfont.shx
  0
STYLE
  5
26
100
AcDbSymbolTableRecord
100
AcDbTextStyleTableRecord
  2
TATEGAKI
 70
    68
 40
0.0
 41
1.0
 50
0.0
 71
     0
 42
1.0
  3
txt
  4
bigfont.shx
  0
ENDTAB
  0
TABLE
  2
LAYER
 70
    6
  0
LAYER
  2
_0-0_
 70
   64
 62
    7
  6
CONTINUOUS
  0
LAYER
  2
_0-1_ADD_LINE
 70
   64
 62
    7
  6
CONTINUOUS
  0
LAYER
  2
_0-3_
 70
   64
 62
    7
  6
CONTINUOUS
  0
LAYER
  2
_0-8_
 70
   64
 62
    7
  6
CONTINUOUS
  0
LAYER
  2
_0-9_
 70
   64
 62
    7
  6
CONTINUOUS
  0
LAYER
  2
ADD_LINE
 70
   64
 62
    7
  6
CONTINUOUS
  0
ENDTAB
  0
ENDSEC
  0
SECTION
  2
BLOCKS
  0
ENDSEC
  0
SECTION
  2
ENTITIES
  0
LINE
  8
_0-9_
  6
CONTINUOUS
 62
    4
 10
227.00045636474101
 20
85.150493007160577
 11
198.07938236474092
 21
85.150493007160577
  0
LINE
  8
_0-9_
  6
CONTINUOUS
 62
    4
 10
294.14764556474097
 20
80.875203807160545
 11
236.30549756474096
 21
80.875203807160545
  0
LINE
  8
_0-9_
  6
CONTINUOUS
 62
    4
 10
254.66409236474095
 20
85.904955807160547
 11
292.63871996474103
 21
85.904955807160547
  0
LINE
  8
_0-9_
  6
CONTINUOUS
 62
    4
 10
253.15516676474095
 20
75.342476607160506
 11
253.15516676474101
 21
90.934707807160549
  0
LINE
  8
_0-9_
  6
CONTINUOUS
 62
    4
 10
198.07938236474092
 20
96.970410207160569
 11
294.14764556474097
 21
96.970410207160569
  0
LINE
  8
_0-9_
  6
CONTINUOUS
 62
    4
 10
198.07938236474092
 20
90.934707807160549
 11
294.14764556474108
 21
90.934707807160521
  0
LINE
  8
_0-9_
  6
CONTINUOUS
 62
    4
 10
219.70731596474093
 20
96.970410207160569
 11
219.70731596474093
 21
90.934707807160578
  0
LINE
  8
_0-9_
  6
CONTINUOUS
 62
    4
 10
236.30549756474096
 20
96.97041020716054
 11
236.30549756474096
 21
75.342476607160449
  0
LINE
  8
_0-9_
  6
CONTINUOUS
 62
    4
 10
282.57921596474091
 20
96.970410207160569
 11
282.57921596474091
 21
90.934707807160578
  0
LINE
  8
_0-9_
  6
CONTINUOUS
 62
    4
 10
271.01078636474108
 20
90.934707807160549
 11
271.01078636474108
 21
96.970410207160569
  0
LINE
  8
_0-9_
  6
CONTINUOUS
 62
    4
 10
252.14921636474094
 20
85.904955807160547
 11
237.31144796474092
 21
85.904955807160547
  0
LINE
  8
_0-9_
  6
CONTINUOUS
 62
    4
 10
227.0004563647409
 20
75.342476607160506
 11
227.00045636474107
 21
90.934707807160549
  0
LINE
  8
_0-9_
  6
CONTINUOUS
 62
    4
 10
236.30549756474096
 20
82.132641807160553
 11
227.00045636474101
 21
82.132641807160553
  0
LINE
  8
_0-9_
  6
CONTINUOUS
 62
    4
 10
227.00045636474101
 20
82.132641807160553
 11
198.07938236474092
 21
82.132641807160581
  0
LINE
  8
_0-9_
  6
CONTINUOUS
 62
    4
 10
198.07938236474092
 20
96.970410207160569
 11
198.07938236474092
 21
75.342476607160506
  0
LINE
  8
_0-9_
  6
CONTINUOUS
 62
    3
 10
294.14764556474097
 20
75.342476607160506
 11
294.14764556474108
 21
214.16363180716058
  0
LINE
  8
_0-9_
  6
CONTINUOUS
 62
    3
 10
92.957565564740833
 20
75.342476607160563
 11
294.14764556474097
 21
75.342476607160506
  0
LINE
  8
_0-9_
  6
CONTINUOUS
 62
    3
 10
92.957565564740833
 20
214.16363180716058
 11
92.957565564740833
 21
75.342476607160563
  0
LINE
  8
_0-9_
  6
CONTINUOUS
 62
    3
 10
294.14764556474108
 20
214.16363180716058
 11
92.957565564740833
 21
214.16363180716058
  0
LINE
  8
_0-9_
  6
CONTINUOUS
 62
    4
 10
212.53991936474091
 20
90.934707807160549
 11
212.53991936474091
 21
85.150493007160577
  0
TEXT
  8
_0-9_
 62
    7
 10
272.57097735428886
 20
95.221922787908909
 40
1.5476160230612805
 41
1.0422794146408463
 50
0
  1
Quantity
  0
TEXT
  8
_0-9_
 62
    7
 10
198.62001358516477
 20
95.049922032152153
 40
1.5476160230612805
 41
1.0422794146408467
 50
0
  1
Model
  0
TEXT
  8
_0-9_
 62
    7
 10
221.10286279614553
 20
95.049922032152153
 40
1.5476160230612805
 41
1.0422794146408458
 50
0
  1
Material
  0
TEXT
  8
_0-9_
 62
    7
 10
279.139381462453
 20
92.137336329702265
 40
1.8377939769387197
 41
1.1789474007825778
 50
0
  1
1
  0
TEXT
  8
_0-9_
 62
    7
 10
227.69670477128096
 20
89.185459080956463
 40
1.5476160230612805
 41
1.0738636393269338
 50
0
  1
Scale
  0
TEXT
  8
_0-9_
 62
    7
 10
236.74928833336875
 20
89.123825018062234
 40
1.5476160230612805
 41
1.0029481159751541
 50
0
  1
Machining tolerance
  0
TEXT
  8
_0-9_
 62
    7
 10
255.11659779295144
 20
88.846582611125115
 40
1.7410679538774545
 41
1.0144927804980652
 50
0
  1
Equipment
  0
TEXT
  8
_0-9_
 62
    7
 10
240.80686612242488
 20
86.935511722717166
 40
1.5476160230612805
 41
1.0010593247962936
 50
0
  1
JIS B 0405
  0
TEXT
  8
_0-9_
 62
    7
 10
236.73781514986172
 20
84.087176041922959
 40
1.5476160230612805
 41
1.0738636393269323
 50
0
  1
Grade
  0
TEXT
  8
_0-9_
 62
    7
 10
210.27263847087596
 20
82.816560260243278
 40
1.4508900000000011
 41
1.1030302625713944
 50
0
  1
Author
  0
TEXT
  8
_0-9_
 62
    7
 10
270.97397346319389
 20
82.265945102086761
 40
1.8377939769387268
 41
1.1789474007825784
 50
0
  1
Main
  0
TEXT
  8
_0-9_
 62
    7
 10
228.01615251485021
 20
80.182757394340854
 40
1.5476160230612663
 41
1.0738636393269418
 50
0
  1
Unit
  0
TEXT
  8
_0-9_
 62
    7
 10
203.85627889286411
 20
78.957887762364834
 40
1.4508900000000011
 41
1.1030302625713917
 50
0
  1
Hirotaka Shiojima
  0
TEXT
  8
_0-9_
 62
    7
 10
236.95722013857159
 20
78.935166563123914
 40
1.5476160230612734
 41
1.0422794146408507
 50
0
  1
Projection method
  0
TEXT
  8
_0-9_
 62
    7
 10
230.79651220110463
 20
77.313703080991473
 40
1.7410679538774474
 41
1.0606060887025277
 50
0
  1
mm
  0
TEXT
  8
_0-9_
 62
    7
 10
247.76967400911838
 20
76.232053095487203
 40
1.7410679538774474
 41
1.060606088702527
 50
0
  1
Ç`ÇR
  0
TEXT
  8
_0-9_
 62
    7
 10
236.99130313419931
 20
95.049922032152153
 40
1.5476160230612805
 41
1.0422794146408458
 50
0
  1
Treatment
  0
LINE
  8
_0-9_
  6
CONTINUOUS
 62
    4
 10
257.24940310658189
 20
90.934707807160549
 11
257.24940310658184
 21
96.970410207160569
  0
TEXT
  8
_0-9_
 62
    7
 10
239.44138277617054
 20
92.076897927791777
 40
1.8377939769387268
 41
1.1789474007825773
 50
0
  1
Black anodized
  0
TEXT
  8
_0-9_
 62
    7
 10
218.59002102772502
 20
86.206667022882499
 40
1.2250000000000014
 41
0.9999999999999992
 50
0
  1
---
  0
TEXT
  8
_0-9_
 62
    7
 10
213.71410239676214
 20
88.816313614102057
 40
1.5476160230612805
 41
1.0422794146408449
 50
0
  1
Surface
  0
TEXT
  8
_0-9_
 62
    7
 10
198.67429704210207
 20
88.884988524397301
 40
1.5476160230612805
 41
1.0183189683272653
 50
0
  1
Date
  0
TEXT
  8
_0-9_
 62
    7
 10
240.08716402162781
 20
81.862660878698392
 40
1.5476160230612805
 41
1.0183189683272631
 50
0
  1
ÇçÅimidiumÅj
  0
TEXT
  8
_0-9_
 62
    7
 10
254.14624936867165
 20
78.796545359655369
 40
1.7410679538774545
 41
1.0294117919759793
 50
0
  1
Drawing number
  0
TEXT
  8
_0-9_
 62
    7
 10
227.06077559584787
 20
92.036735149868235
 40
1.8377939769387268
 41
1.0251716528544128
 50
0
  1
A5052
  0
TEXT
  8
_0-9_
 62
    7
 10
258.67560110979912
 20
95.019306771368548
 40
1.5476160230612805
 41
1.0271739158779347
 50
0
  1
Thickness
  0
TEXT
  8
_0-9_
 62
    7
 10
210.57759166015526
 20
76.721342114068989
 40
1.4508900000000082
 41
1.1030302625713864
 50
0
  1
SmartDIYs Co.,Ltd.
  0
TEXT
  8
_0-9_
 62
    7
 10
266.01014648594969
 20
86.862081192127675
 40
1.934519999999992
 41
1.0069231051665142
 50
0
  1
Fabool Laser CO2
  0
TEXT
  8
_0-9_
 62
    7
 10
264.12457618259185
 20
92.064875274099876
 40
1.8377939769387268
 41
1.1789474007825773
 50
0
  1
2mm
  0
TEXT
  8
_0-9_
 62
    7
 10
200.25186079415454
 20
92.017044055292558
 40
1.4699999999999989
 41
1.0000000000000007
 50
0
  1
FLC_limit mount y1
  0
TEXT
  8
_0-9_
 62
    7
 10
258.37160282065594
 20
76.355979194052935
 40
1.4699999999999989
 41
1.0000000000000011
 50
0
  1
FLC_limit mount y1_2016.09.23
  0
TEXT
  8
_0-9_
 62
    7
 10
202.32950756446644
 20
86.401480684618889
 40
1.5476160230612805
 41
0.9658018369754795
 50
0
  1
23/Sep/2016
  0
LINE
  8
_0-8_
  6
CONTINUOUS
 62
    4
 10
160.87091626493353
 20
160.0563315460262
 11
179.12554244974513
 21
141.8017053612146
  0
LINE
  8
_0-8_
  6
CONTINUOUS
 62
    4
 10
160.87091626493353
 20
160.0563315460262
 11
163.46899247628684
 21
158.5563315460262
  0
LINE
  8
_0-8_
  6
CONTINUOUS
 62
    4
 10
160.87091626493353
 20
160.0563315460262
 11
162.37091626493353
 21
157.45825533467288
  0
TEXT
  8
_0-8_
 62
    7
 10
179.73045137358972
 20
142.25148348808932
 40
1.8377939769387268
 41
1.0251716528544128
 50
0
  1
2Å~M2
  0
LINE
  8
_0-8_
  6
CONTINUOUS
 62
    4
 10
179.12554244974513
 20
141.8017053612146
 11
185.74428547370778
 21
141.8017053612146
  0
LINE
  8
_0-1_ADD_LINE
  6
DASHED1
 62
    4
 10
231.85053778592086
 20
160.60534734474601
 11
241.36763743265777
 21
160.60534734474601
  0
LINE
  8
_0-1_ADD_LINE
  6
DASHED1
 62
    4
 10
231.85053778592086
 20
140.60534734474601
 11
241.36763743265777
 21
140.60534734474601
  0
LINE
  8
_0-1_ADD_LINE
  6
DASHED1
 62
    4
 10
236.78899655057904
 20
164.09704940824355
 11
236.78899655057904
 21
157.2777102912903
  0
LINE
  8
_0-1_ADD_LINE
  6
DASHED1
 62
    4
 10
236.78899655057904
 20
144.68816115229976
 11
236.78899655057904
 21
136.51994177045469
  0
CIRCLE
  8
_0-0_
  6
CONTINUOUS
 62
    7
 10
236.78899655057904
 20
160.60534734474601
 40
2.6000000000000001
  0
CIRCLE
  8
_0-0_
  6
CONTINUOUS
 62
    7
 10
236.78899655057904
 20
140.60534734474601
 40
2.6000000000000001
  0
LINE
  8
_0-1_ADD_LINE
  6
DASHED1
 62
    4
 10
149.83899615057902
 20
117.24810505539293
 11
149.83899615057902
 21
111.92730300426396
  0
LINE
  8
_0-1_ADD_LINE
  6
DASHED1
 62
    4
 10
159.33899615057902
 20
117.24810505539293
 11
159.33899615057902
 21
111.92730300426396
  0
LINE
  8
_0-0_
  6
DASHED1
 62
    7
 10
148.83899615057902
 20
115.9706685581979
 11
148.83899615057902
 21
113.9706685581979
  0
LINE
  8
_0-0_
  6
DASHED1
 62
    7
 10
150.83899615057902
 20
115.9706685581979
 11
150.83899615057902
 21
113.9706685581979
  0
LINE
  8
_0-0_
  6
DASHED1
 62
    7
 10
158.33899615057902
 20
115.9706685581979
 11
158.33899615057902
 21
113.9706685581979
  0
LINE
  8
_0-0_
  6
DASHED1
 62
    7
 10
160.33899615057902
 20
115.9706685581979
 11
160.33899615057902
 21
113.9706685581979
  0
LINE
  8
_0-0_
  6
DASHED1
 62
    4
 10
148.33899615057902
 20
115.9706685581979
 11
148.33899615057902
 21
113.9706685581979
  0
LINE
  8
_0-0_
  6
DASHED1
 62
    4
 10
151.33899615057902
 20
115.9706685581979
 11
151.33899615057902
 21
113.9706685581979
  0
LINE
  8
_0-0_
  6
DASHED1
 62
    4
 10
157.83899615057902
 20
115.9706685581979
 11
157.83899615057902
 21
113.9706685581979
  0
LINE
  8
_0-0_
  6
DASHED1
 62
    4
 10
160.83899615057902
 20
115.9706685581979
 11
160.83899615057902
 21
113.9706685581979
  0
LINE
  8
_0-0_
  6
CONTINUOUS
 62
    7
 10
244.78899655057904
 20
115.9706685581979
 11
244.78899655057904
 21
113.9706685581979
  0
LINE
  8
_0-0_
  6
DASHED1
 62
    7
 10
234.18899655057905
 20
115.9706685581979
 11
234.18899655057905
 21
113.9706685581979
  0
LINE
  8
_0-0_
  6
DASHED1
 62
    7
 10
239.38899655057904
 20
115.9706685581979
 11
239.38899655057904
 21
113.9706685581979
  0
LINE
  8
_0-0_
  6
CONTINUOUS
 62
    7
 10
144.78899655057904
 20
113.9706685581979
 11
244.78899655057904
 21
113.9706685581979
  0
LINE
  8
_0-0_
  6
CONTINUOUS
 62
    7
 10
144.78899655057904
 20
115.9706685581979
 11
244.78899655057904
 21
115.9706685581979
  0
LINE
  8
_0-0_
  6
CONTINUOUS
 62
    7
 10
144.78899655057904
 20
115.9706685581979
 11
144.78899655057904
 21
113.9706685581979
  0
LINE
  8
_0-1_ADD_LINE
  6
DASHED1
 62
    4
 10
236.78899655057904
 20
117.24810505539293
 11
236.78899655057904
 21
111.92730300426396
  0
LINE
  8
_0-8_
  6
CONTINUOUS
 62
    4
 10
135.81980815978608
 20
113.9706685581979
 11
142.03509228426796
 21
113.9706685581979
  0
POINT
  8
_0-8_
 62
    4
 10
135.81980815978608
 20
115.9706685581979
  0
LINE
  8
_0-8_
  6
CONTINUOUS
 62
    4
 10
135.81980815978608
 20
115.9706685581979
 11
142.03509228426796
 21
115.9706685581979
  0
LINE
  8
_0-8_
  6
CONTINUOUS
 62
    4
 10
135.81980815978608
 20
115.9706685581979
 11
135.81980815978608
 21
113.9706685581979
  0
POINT
  8
_0-8_
 62
    4
 10
135.81980815978608
 20
113.9706685581979
  0
TEXT
  8
_0-8_
 62
    7
 10
135.31980815978608
 20
114.3456685581979
 40
2.5
 41
1
 50
90
  1
2
  0
LINE
  8
_0-8_
  6
CONTINUOUS
 62
    4
 10
126.76396545083549
 20
168.10534734474601
 11
126.76396545083549
 21
153.10534734474601
  0
POINT
  8
_0-8_
 62
    4
 10
126.76396545083549
 20
168.10534734474601
  0
POINT
  8
_0-8_
 62
    4
 10
126.76396545083549
 20
153.10534734474601
  0
LINE
  8
_0-8_
  6
CONTINUOUS
 62
    4
 10
126.76396545083549
 20
168.10534734474601
 11
143.7967568772672
 21
168.10534734474601
  0
LINE
  8
_0-8_
  6
CONTINUOUS
 62
    4
 10
126.76396545083549
 20
153.10534734474601
 11
143.7967568772672
 21
153.10534734474601
  0
TEXT
  8
_0-8_
 62
    7
 10
126.26396545083549
 20
159.35534734474601
 40
2.5
 41
1
 50
90
  1
15
  0
LINE
  8
_0-8_
  6
CONTINUOUS
 62
    4
 10
144.78899655057904
 20
186.34070524459838
 11
244.78899655057904
 21
186.34070524459838
  0
POINT
  8
_0-8_
 62
    4
 10
144.78899655057904
 20
186.34070524459838
  0
POINT
  8
_0-8_
 62
    4
 10
244.78899655057904
 20
186.34070524459838
  0
LINE
  8
_0-8_
  6
CONTINUOUS
 62
    4
 10
144.78899655057904
 20
186.34070524459838
 11
144.78899655057904
 21
170.87633452396383
  0
LINE
  8
_0-8_
  6
CONTINUOUS
 62
    4
 10
244.78899655057904
 20
186.34070524459838
 11
244.78899655057904
 21
170.87633452396383
  0
TEXT
  8
_0-8_
 62
    7
 10
192.91399655057904
 20
186.84070524459838
 40
2.5
 41
1
 50
0
  1
100
  0
LINE
  8
_0-8_
  6
CONTINUOUS
 62
    4
 10
244.78899655057904
 20
177.07466553349227
 11
236.78899655057904
 21
177.07466553349227
  0
POINT
  8
_0-8_
 62
    4
 10
244.78899655057904
 20
177.07466553349227
  0
POINT
  8
_0-8_
 62
    4
 10
236.78899655057904
 20
177.07466553349227
  0
LINE
  8
_0-8_
  6
CONTINUOUS
 62
    4
 10
244.78899655057904
 20
177.07466553349227
 11
244.78899655057904
 21
170.87633452396383
  0
LINE
  8
_0-8_
  6
CONTINUOUS
 62
    4
 10
236.78899655057904
 20
177.07466553349227
 11
236.78899655057904
 21
170.87633452396383
  0
TEXT
  8
_0-8_
 62
    7
 10
240.16399655057904
 20
177.57466553349227
 40
2.5
 41
1
 50
0
  1
8
  0
LINE
  8
_0-8_
  6
CONTINUOUS
 62
    4
 10
144.78899655057904
 20
148.1672041868143
 11
149.83899615057902
 21
148.1672041868143
  0
POINT
  8
_0-8_
 62
    4
 10
144.78899655057904
 20
148.1672041868143
  0
POINT
  8
_0-8_
 62
    4
 10
149.83899615057902
 20
148.1672041868143
  0
LINE
  8
_0-8_
  6
CONTINUOUS
 62
    4
 10
144.78899655057904
 20
148.1672041868143
 11
144.78899655057904
 21
152.50741793008325
  0
LINE
  8
_0-8_
  6
CONTINUOUS
 62
    4
 10
149.83899615057902
 20
148.1672041868143
 11
149.83899615057902
 21
152.50741793008325
  0
TEXT
  8
_0-8_
 62
    7
 10
144.81399635057903
 20
144.86232444968905
 40
2.5
 41
1
 50
0
  1
5.05
  0
LINE
  8
_0-8_
  6
CONTINUOUS
 62
    4
 10
262.93081393937939
 20
168.10534734474601
 11
262.93081393937939
 21
133.10534734474601
  0
POINT
  8
_0-8_
 62
    4
 10
262.93081393937939
 20
168.10534734474601
  0
POINT
  8
_0-8_
 62
    4
 10
262.93081393937939
 20
133.10534734474601
  0
LINE
  8
_0-8_
  6
CONTINUOUS
 62
    4
 10
262.93081393937939
 20
168.10534734474601
 11
246.92948534369344
 21
168.10534734474601
  0
LINE
  8
_0-8_
  6
CONTINUOUS
 62
    4
 10
262.93081393937939
 20
133.10534734474601
 11
246.92948534369344
 21
133.10534734474601
  0
TEXT
  8
_0-8_
 62
    7
 10
262.43081393937939
 20
149.35534734474601
 40
2.5
 41
1
 50
90
  1
35
  0
LINE
  8
_0-8_
  6
CONTINUOUS
 62
    4
 10
255.85330321436447
 20
168.10534734474601
 11
255.85330321436447
 21
160.60534734474601
  0
POINT
  8
_0-8_
 62
    4
 10
255.85330321436447
 20
168.10534734474601
  0
POINT
  8
_0-8_
 62
    4
 10
255.85330321436447
 20
160.60534734474601
  0
LINE
  8
_0-8_
  6
CONTINUOUS
 62
    4
 10
255.85330321436447
 20
168.10534734474601
 11
246.92948534369344
 21
168.10534734474601
  0
LINE
  8
_0-8_
  6
CONTINUOUS
 62
    4
 10
255.85330321436447
 20
160.60534734474601
 11
246.92948534369344
 21
160.60534734474601
  0
TEXT
  8
_0-8_
 62
    7
 10
255.35330321436447
 20
162.48034734474601
 40
2.5
 41
1
 50
90
  1
7.5
  0
LINE
  8
_0-8_
  6
CONTINUOUS
 62
    4
 10
255.85330321436447
 20
160.60534734474601
 11
255.85330321436447
 21
140.60534734474601
  0
POINT
  8
_0-8_
 62
    4
 10
255.85330321436447
 20
140.60534734474601
  0
LINE
  8
_0-8_
  6
CONTINUOUS
 62
    4
 10
255.85330321436447
 20
140.60534734474601
 11
246.92948534369344
 21
140.60534734474601
  0
TEXT
  8
_0-8_
 62
    7
 10
255.35330321436447
 20
149.35534734474601
 40
2.5
 41
1
 50
90
  1
20
  0
LINE
  8
_0-8_
  6
CONTINUOUS
 62
    4
 10
238.82979482386037
 20
138.18625059249493
 11
256.69077931818617
 21
120.32526609816914
  0
LINE
  8
_0-8_
  6
CONTINUOUS
 62
    4
 10
238.82979482386037
 20
138.18625059249493
 11
241.42787103521368
 21
136.68625059249493
  0
LINE
  8
_0-8_
  6
CONTINUOUS
 62
    4
 10
238.82979482386037
 20
138.18625059249493
 11
240.32979482386037
 21
135.58817438114161
  0
TEXT
  8
_0-8_
 62
    7
 10
257.41599905181414
 20
120.76641635937189
 40
1.8377939769387268
 41
1.0251716528544128
 50
0
  1
2Å~É≥5.2
  0
LINE
  8
_0-8_
  6
CONTINUOUS
 62
    4
 10
256.69077931818617
 20
120.32526609816914
 11
265.92389694643845
 21
120.32526609816914
  0
LINE
  8
_0-8_
  6
CONTINUOUS
 62
    4
 10
144.78899655057904
 20
135.03212246626575
 11
226.78899655057904
 21
135.03212246626575
  0
POINT
  8
_0-8_
 62
    4
 10
144.78899655057904
 20
135.03212246626575
  0
POINT
  8
_0-8_
 62
    4
 10
226.78899655057904
 20
135.03212246626575
  0
LINE
  8
_0-8_
  6
CONTINUOUS
 62
    4
 10
144.78899655057904
 20
135.03212246626575
 11
144.78899655057904
 21
139.54016541849293
  0
LINE
  8
_0-8_
  6
CONTINUOUS
 62
    4
 10
226.78899655057904
 20
135.03212246626575
 11
226.78899655057904
 21
139.54016541849293
  0
TEXT
  8
_0-8_
 62
    7
 10
184.53899655057904
 20
135.53212246626575
 40
2.5
 41
1
 50
0
  1
82
  0
LINE
  8
_0-8_
  6
CONTINUOUS
 62
    4
 10
215.94303725972097
 20
153.10534734474601
 11
215.94303725972097
 21
133.10534734474601
  0
POINT
  8
_0-8_
 62
    4
 10
215.94303725972097
 20
153.10534734474601
  0
POINT
  8
_0-8_
 62
    4
 10
215.94303725972097
 20
133.10534734474601
  0
LINE
  8
_0-8_
  6
CONTINUOUS
 62
    4
 10
215.94303725972097
 20
153.10534734474601
 11
221.64073656909005
 21
153.10534734474601
  0
LINE
  8
_0-8_
  6
CONTINUOUS
 62
    4
 10
215.94303725972097
 20
133.10534734474601
 11
221.64073656909005
 21
133.10534734474601
  0
TEXT
  8
_0-8_
 62
    7
 10
215.44303725972097
 20
141.85534734474601
 40
2.5
 41
1
 50
90
  1
20
  0
ARC
  8
_0-0_
  6
CONTINUOUS
 62
    7
 10
241.78899655057904
 20
165.10534734474601
 40
3
 50
0
 51
90
  0
LINE
  8
_0-0_
  6
CONTINUOUS
 62
    7
 10
244.78899655057904
 20
136.10534734474601
 11
244.78899655057904
 21
165.10534734474601
  0
ARC
  8
_0-0_
  6
CONTINUOUS
 62
    7
 10
241.78899655057904
 20
136.10534734474601
 40
3
 50
270
 51
0
  0
LINE
  8
_0-0_
  6
CONTINUOUS
 62
    7
 10
229.78899655057904
 20
133.10534734474601
 11
241.78899655057904
 21
133.10534734474601
  0
ARC
  8
_0-0_
  6
CONTINUOUS
 62
    7
 10
229.78899655057904
 20
136.10534734474601
 40
3
 50
180
 51
270
  0
LINE
  8
_0-0_
  6
CONTINUOUS
 62
    7
 10
226.78899655057904
 20
150.10534734474601
 11
226.78899655057904
 21
136.10534734474601
  0
ARC
  8
_0-0_
  6
CONTINUOUS
 62
    7
 10
223.78899655057904
 20
150.10534734474601
 40
3
 50
0
 51
90
  0
LINE
  8
_0-0_
  6
CONTINUOUS
 62
    7
 10
147.78899655057904
 20
168.10534734474601
 11
241.78899655057904
 21
168.10534734474601
  0
ARC
  8
_0-0_
  6
CONTINUOUS
 62
    7
 10
147.78899655057904
 20
165.10534734474601
 40
3
 50
90
 51
180
  0
LINE
  8
_0-0_
  6
CONTINUOUS
 62
    7
 10
144.78899655057904
 20
156.10534734474601
 11
144.78899655057904
 21
165.10534734474601
  0
LINE
  8
_0-0_
  6
CONTINUOUS
 62
    7
 10
147.78899655057904
 20
153.10534734474601
 11
223.78899655057904
 21
153.10534734474601
  0
ARC
  8
_0-0_
  6
CONTINUOUS
 62
    7
 10
147.78899655057904
 20
156.10534734474601
 40
3
 50
180
 51
270
  0
LINE
  8
_0-8_
  6
CONTINUOUS
 62
    4
 10
258.54063418827548
 20
181.37206521382484
 11
267.77375181652781
 21
181.37206521382484
  0
LINE
  8
_0-8_
  6
CONTINUOUS
 62
    4
 10
244.58752688169375
 20
167.41895790724311
 11
258.54063418827548
 21
181.37206521382484
  0
LINE
  8
_0-8_
  6
CONTINUOUS
 62
    4
 10
244.58752688169375
 20
167.41895790724311
 11
247.18560309304706
 21
168.91895790724311
  0
LINE
  8
_0-8_
  6
CONTINUOUS
 62
    4
 10
244.58752688169375
 20
167.41895790724311
 11
246.08752688169375
 21
170.01703411859643
  0
TEXT
  8
_0-8_
 62
    7
 10
259.64228395041846
 20
181.81321547502759
 40
1.8377939769387268
 41
1.0251716528544128
 50
0
  1
6Å~R3
  0
LINE
  8
_0-8_
  6
CONTINUOUS
 62
    4
 10
149.83899615057902
 20
172.44069155658721
 11
159.33899615057902
 21
172.44069155658721
  0
POINT
  8
_0-8_
 62
    4
 10
149.83899615057902
 20
172.44069155658721
  0
POINT
  8
_0-8_
 62
    4
 10
159.33899615057902
 20
172.44069155658721
  0
TEXT
  8
_0-8_
 62
    7
 10
148.96399615057902
 20
172.94069155658721
 40
2.5
 41
1
 50
0
  1
9.5 Å}0.1
  0
CIRCLE
  8
_0-0_
  6
CONTINUOUS
 62
    7
 10
149.83899615057902
 20
160.60534734474601
 40
0.7500000000000001
  0
CIRCLE
  8
_0-0_
  6
CONTINUOUS
 62
    4
 10
149.83899615057902
 20
160.60534734474601
 40
1
  0
CIRCLE
  8
_0-0_
  6
CONTINUOUS
 62
    4
 10
159.33899615057902
 20
160.60534734474601
 40
1
  0
CIRCLE
  8
_0-0_
  6
CONTINUOUS
 62
    7
 10
159.33899615057902
 20
160.60534734474601
 40
0.7500000000000001
  0
LINE
  8
_0-1_ADD_LINE
  6
DASHED1
 62
    4
 10
149.83899615057902
 20
160.60534734474601
 11
152.31098241755882
 21
160.60534734474601
  0
LINE
  8
_0-1_ADD_LINE
  6
DASHED1
 62
    4
 10
149.83899615057902
 20
160.60534734474601
 11
149.83899615057902
 21
163.10534734474601
  0
LINE
  8
_0-1_ADD_LINE
  6
DASHED1
 62
    4
 10
149.83899615057902
 20
160.60534734474601
 11
147.338996550579
 21
160.60534734474601
  0
LINE
  8
_0-1_ADD_LINE
  6
DASHED1
 62
    4
 10
149.83899615057902
 20
160.60534734474601
 11
149.83899615057902
 21
157.53261673325318
  0
LINE
  8
_0-1_ADD_LINE
  6
DASHED1
 62
    4
 10
159.33899615057902
 20
157.53261673325318
 11
159.33899615057902
 21
163.10534734474601
  0
LINE
  8
_0-1_ADD_LINE
  6
DASHED1
 62
    4
 10
156.98262275057903
 20
160.60534734474601
 11
161.52702395057904
 21
160.60534734474601
  0
LINE
  8
_0-8_
  6
CONTINUOUS
 62
    4
 10
149.83899615057902
 20
167.13651482713627
 11
149.83899615057902
 21
164.2443693299476
  0
LINE
  8
_0-8_
  6
CONTINUOUS
 62
    4
 10
149.83899615057902
 20
172.44069155658721
 11
149.83899615057902
 21
168.54788182976435
  0
LINE
  8
_0-8_
  6
CONTINUOUS
 62
    4
 10
159.33899615057902
 20
167.13651482713627
 11
159.33899615057902
 21
164.2443693299476
  0
LINE
  8
_0-8_
  6
CONTINUOUS
 62
    4
 10
159.33899615057902
 20
172.44069155658721
 11
159.33899615057902
 21
168.54788182976435
  0
LINE
  8
_0-8_
  6
CONTINUOUS
 62
    4
 10
134.78164713638614
 20
168.10534734474601
 11
134.78164713638614
 21
160.60534734474601
  0
POINT
  8
_0-8_
 62
    4
 10
134.78164713638614
 20
168.10534734474601
  0
POINT
  8
_0-8_
 62
    4
 10
134.78164713638614
 20
160.60534734474601
  0
LINE
  8
_0-8_
  6
CONTINUOUS
 62
    4
 10
134.78164713638614
 20
168.10534734474601
 11
143.7967568772672
 21
168.10534734474601
  0
LINE
  8
_0-8_
  6
CONTINUOUS
 62
    4
 10
134.78164713638614
 20
160.60534734474601
 11
143.7967568772672
 21
160.60534734474601
  0
TEXT
  8
_0-8_
 62
    4
 10
134.28164713638614
 20
162.48034734474601
 40
2.5
 41
1
 50
90
  1
7.5
  0
LINE
  8
_0-3_
  6
CONTINUOUS
 62
    7
 10
144.78899615057907
 20
153.70534774474601
 11
144.78899615057907
 21
163.10534734474601
  0
ARC
  8
_0-3_
  6
CONTINUOUS
 62
    7
 10
145.58899615057902
 20
153.70534774474601
 40
0.8000000099999996
 50
180.00004000000007
 51
270.00001800000007
  0
LINE
  8
_0-3_
  6
CONTINUOUS
 62
    7
 10
157.33899615057905
 20
163.10534734474601
 11
151.83899615057902
 21
163.10534734474601
  0
LINE
  8
_0-3_
  6
DASHED1
 62
    4
 10
147.33899615057902
 20
160.60534734474601
 11
152.35345005057906
 21
160.60534734474601
  0
LINE
  8
_0-3_
  6
DASHED1
 62
    4
 10
149.83899615057902
 20
158.10534734474601
 11
149.83899615057902
 21
163.10534734474601
  0
LINE
  8
_0-3_
  6
DASHED1
 62
    4
 10
159.33899615057905
 20
158.10534734474601
 11
159.33899615057905
 21
163.10534734474601
  0
LINE
  8
_0-3_
  6
DASHED1
 62
    4
 10
156.98262235057905
 20
160.60534734474601
 11
161.52702355057906
 21
160.60534734474601
  0
LINE
  8
_0-3_
  6
CONTINUOUS
 62
    7
 10
146.57034915057903
 20
153.34433474474599
 11
146.62438815057902
 21
154.100878444746
  0
LINE
  8
_0-3_
  6
CONTINUOUS
 62
    7
 10
147.03028515057906
 20
154.112666844746
 11
147.18038915057906
 21
153.412175344746
  0
LINE
  8
_0-3_
  6
CONTINUOUS
 62
    7
 10
146.66516015057903
 20
153.290278144746
 11
146.71193115057906
 21
154.11321374474599
  0
LINE
  8
_0-3_
  6
CONTINUOUS
 62
    7
 10
146.96467815057906
 20
153.27325604474601
 11
147.01144915057904
 21
154.09619154474601
  0
LINE
  8
_0-3_
  6
CONTINUOUS
 62
    7
 10
146.71193615057905
 20
154.11321184474599
 11
147.01145215057903
 21
154.096189244746
  0
LINE
  8
_0-3_
  6
CONTINUOUS
 62
    3
 10
164.52589105057908
 20
144.667919344746
 11
164.63932295057904
 21
145.02197534474601
  0
LINE
  8
_0-3_
  6
CONTINUOUS
 62
    7
 10
146.66654015057907
 20
153.31449864474601
 11
146.96605715057905
 21
153.29747604474599
  0
LINE
  8
_0-3_
  6
CONTINUOUS
 62
    7
 10
146.69491015057906
 20
153.81369414474599
 11
146.99442615057905
 21
153.796671544746
  0
LINE
  8
_0-3_
  6
CONTINUOUS
 62
    7
 10
161.87709165057905
 20
151.34825294474601
 11
161.89411445057905
 21
151.64776964474601
  0
LINE
  8
_0-3_
  6
CONTINUOUS
 62
    7
 10
162.54189985057906
 20
148.00748434474602
 11
162.74617215057907
 21
151.601684244746
  0
LINE
  8
_0-3_
  6
CONTINUOUS
 62
    7
 10
166.13610005057907
 20
147.80321134474602
 11
166.34037235057906
 21
151.39741104474601
  0
LINE
  8
_0-3_
  6
CONTINUOUS
 62
    7
 10
147.40283515057905
 20
152.17087814474601
 11
162.72901605057905
 21
151.29983204474601
  0
LINE
  8
_0-3_
  6
CONTINUOUS
 62
    7
 10
147.41985715057905
 20
152.47039384474601
 11
166.34023735057906
 21
151.39507554474599
  0
LINE
  8
_0-3_
  6
CONTINUOUS
 62
    7
 10
154.28899595057902
 20
153.60534734474601
 11
163.58899615057905
 21
153.60534734474601
  0
LINE
  8
_0-3_
  6
CONTINUOUS
 62
    7
 10
145.58899615057902
 20
152.90534754474601
 11
153.58899615057902
 21
152.90534754474601
  0
LINE
  8
_0-3_
  6
CONTINUOUS
 62
    7
 10
154.28899645057902
 20
153.60534874474601
 11
153.58899565057902
 21
152.90534844474601
  0
ARC
  8
_0-3_
  6
CONTINUOUS
 62
    7
 10
151.83899615057902
 20
153.120692944746
 40
0.9000000399999994
 50
193.8436300000001
 51
346.156385
  0
CIRCLE
  8
_0-3_
  6
CONTINUOUS
 62
    7
 10
146.83899615057902
 20
153.70534774474601
 40
0.4499999900000001
  0
ARC
  8
_0-3_
  6
CONTINUOUS
 62
    7
 10
147.44822915057904
 20
152.969592744746
 40
0.5
 50
187.38231999999999
 51
266.747209
  0
ARC
  8
_0-3_
  6
CONTINUOUS
 62
    7
 10
147.44822915057904
 20
152.969592744746
 40
0.8000000099999996
 50
184.6061500000001
 51
266.74715400000002
  0
ARC
  8
_0-3_
  6
CONTINUOUS
 62
    7
 10
164.33899615057905
 20
147.90534634474599
 40
1.7999991999999989
 50
176.74723000000023
 51
356.74715699999996
  0
CIRCLE
  8
_0-3_
  6
CONTINUOUS
 62
    7
 10
164.33899615057905
 20
147.90534634474599
 40
1.5
  0
CIRCLE
  8
_0-3_
  6
CONTINUOUS
 62
    7
 10
164.33899615057905
 20
147.90534634474599
 40
1.2999992
  0
ARC
  8
_0-3_
  6
CONTINUOUS
 62
    7
 10
164.33899615057905
 20
147.90534634474599
 40
2.1999998000000001
 50
141.65044
 51
31.843870000000095
  0
ARC
  8
_0-3_
  6
CONTINUOUS
 62
    7
 10
164.33899615057905
 20
147.90534634474599
 40
2.3999996000000001
 50
135.33759000000001
 51
38.156710000000089
  0
ARC
  8
_0-3_
  6
CONTINUOUS
 62
    7
 10
163.58899615057905
 20
154.40534754474601
 40
0.8000000099999996
 50
270.00001800000007
 51
0
  0
LINE
  8
_0-3_
  6
DASHED1
 62
    3
 10
149.17524215057904
 20
151.696780844746
 11
161.08618885057905
 21
147.88078334474599
  0
LINE
  8
_0-3_
  6
DASHED1
 62
    3
 10
148.72724715057905
 20
151.52528824474601
 11
161.61933065057906
 21
147.39495734474602
  0
LINE
  8
_0-3_
  6
DASHED1
 62
    3
 10
161.09754575057906
 20
145.766296344746
 11
161.61933275057905
 21
147.39495934474601
  0
ARC
  8
_0-3_
  6
DASHED1
 62
    3
 10
162.32737845057906
 20
143.70535334474599
 40
2.3999996000000001
 50
120.82595000000008
 51
23.645170000000064
  0
LINE
  8
_0-3_
  6
DASHED1
 62
    4
 10
146.83899615057902
 20
152.70534774474601
 11
146.83899615057902
 21
154.70534774474601
  0
LINE
  8
_0-3_
  6
DASHED1
 62
    4
 10
145.83899615057902
 20
153.70534774474601
 11
147.83899615057902
 21
153.70534774474601
  0
LINE
  8
_0-3_
  6
DASHED1
 62
    4
 10
151.83899615057902
 20
151.27618184474599
 11
151.83899615057902
 21
153.82943024474599
  0
LINE
  8
_0-3_
  6
DASHED1
 62
    4
 10
146.53899715057906
 20
162.401461344746
 11
146.53899715057906
 21
168.29939524474599
  0
LINE
  8
_0-3_
  6
DASHED1
 62
    4
 10
155.33899715057902
 20
162.432340344746
 11
155.33899715057902
 21
168.29939524474599
  0
LINE
  8
_0-3_
  6
DASHED1
 62
    4
 10
162.63899725057905
 20
162.432340344746
 11
162.63899725057905
 21
168.29939524474599
  0
LINE
  8
_0-3_
  6
DASHED1
 62
    4
 10
161.33899615057905
 20
147.90534634474599
 11
167.33899615057905
 21
147.90534634474599
  0
LINE
  8
_0-3_
  6
DASHED1
 62
    4
 10
164.33899615057905
 20
144.90534634474599
 11
164.33899615057905
 21
150.90534654474601
  0
LINE
  8
_0-3_
  6
CONTINUOUS
 62
    7
 10
164.38899535057905
 20
154.40534754474601
 11
164.38899535057905
 21
163.10534734474601
  0
LINE
  8
_0-3_
  6
CONTINUOUS
 62
    7
 10
162.33899725057904
 20
163.50534694474601
 11
162.33899725057904
 21
163.41444139435694
  0
LINE
  8
_0-3_
  6
CONTINUOUS
 62
    7
 10
162.93899725057904
 20
163.50534694474601
 11
162.93899725057904
 21
163.41444139435694
  0
LINE
  8
_0-3_
  6
CONTINUOUS
 62
    7
 10
146.23899715057905
 20
167.10534734474601
 11
146.83899715057902
 21
167.10534734474601
  0
LINE
  8
_0-3_
  6
CONTINUOUS
 62
    7
 10
155.03899715057901
 20
167.10534734474601
 11
155.63899715057903
 21
167.10534734474601
  0
LINE
  8
_0-3_
  6
CONTINUOUS
 62
    7
 10
162.33899725057904
 20
167.10534734474601
 11
162.93899725057904
 21
167.10534734474601
  0
LINE
  8
_0-3_
  6
CONTINUOUS
 62
    7
 10
146.23899715057905
 20
163.10534734474601
 11
146.23899715057905
 21
167.10534734474601
  0
LINE
  8
_0-3_
  6
CONTINUOUS
 62
    7
 10
162.93899725057904
 20
163.10534734474601
 11
162.93899725057904
 21
167.10534734474601
  0
LINE
  8
_0-3_
  6
CONTINUOUS
 62
    7
 10
155.03899715057901
 20
163.10534734474601
 11
155.03899715057901
 21
167.10534734474601
  0
LINE
  8
_0-3_
  6
CONTINUOUS
 62
    7
 10
146.83899715057902
 20
163.10534734474601
 11
146.83899715057902
 21
167.10534734474601
  0
LINE
  8
_0-3_
  6
CONTINUOUS
 62
    7
 10
155.63899715057903
 20
163.10534734474601
 11
155.63899715057903
 21
167.10534734474601
  0
LINE
  8
_0-3_
  6
CONTINUOUS
 62
    7
 10
162.33899725057904
 20
163.10534734474601
 11
162.33899725057904
 21
167.10534734474601
  0
LINE
  8
_0-3_
  6
CONTINUOUS
 62
    7
 10
148.33899615057902
 20
163.60534734474601
 11
147.83899615057902
 21
163.10534734474601
  0
LINE
  8
_0-3_
  6
CONTINUOUS
 62
    7
 10
151.33899615057902
 20
163.60534734474601
 11
151.83899615057902
 21
163.10534734474601
  0
LINE
  8
_0-3_
  6
CONTINUOUS
 62
    7
 10
147.83899615057902
 20
163.10534734474601
 11
144.78899615057907
 21
163.10534734474601
  0
LINE
  8
_0-3_
  6
CONTINUOUS
 62
    7
 10
148.33899615057902
 20
163.60534734474601
 11
151.33899615057902
 21
163.60534734474601
  0
LINE
  8
_0-3_
  6
CONTINUOUS
 62
    7
 10
157.83899615057905
 20
163.60534734474601
 11
157.33899615057905
 21
163.10534734474601
  0
LINE
  8
_0-3_
  6
CONTINUOUS
 62
    7
 10
157.83899615057905
 20
163.60534734474601
 11
160.83899615057905
 21
163.60534734474601
  0
LINE
  8
_0-3_
  6
CONTINUOUS
 62
    7
 10
160.83899615057905
 20
163.60534734474601
 11
161.33899615057905
 21
163.10534734474601
  0
LINE
  8
_0-3_
  6
CONTINUOUS
 62
    7
 10
164.38899535057905
 20
163.10534734474601
 11
161.33899615057905
 21
163.10534734474601
  0
CIRCLE
  8
_0-3_
  6
CONTINUOUS
 62
    7
 10
159.33899615057905
 20
160.60534734474601
 40
1.2
  0
CIRCLE
  8
_0-3_
  6
CONTINUOUS
 62
    7
 10
149.83899615057902
 20
160.60534734474601
 40
1.2
  0
ENDSEC
  0
EOF
