  0
SECTION
  2
HEADER
  9
$ACADVER
  1
AC1009
  9
$INSBASE
 10
0
 20
0
 30
0
  9
$EXTMIN
 10
0
 20
0
  9
$EXTMAX
 10
420
 20
297
  9
$LIMMIN
 10
0
 20
0
  9
$LIMMAX
 10
420
 20
297
  9
$LTSCALE
 40
1
  0
ENDSEC
  0
SECTION
  2
TABLES
  0
TABLE
  2
LTYPE
 70
     9
  0
LTYPE
  2
CONTINUOUS
 70
    64
  3
実線
 72
    65
 73
     0
 40
0.0
  0
LTYPE
  2
DASHED1
 70
    64
  3
--  --  --  --  --  --  --  --  
 72
    65
 73
     2
 40
2.5
 49
1.25
 49
-1.25
  0
LTYPE
  2
DASHED2
 70
    64
  3
----    ----    ----    ----    
 72
    65
 73
     2
 40
5.0
 49
2.5
 49
-2.5
  0
LTYPE
  2
DASHED3
 70
    64
  3
------  ------  ------  ------  
 72
    65
 73
     2
 40
5.0
 49
3.75
 49
-1.25
  0
LTYPE
  2
CENTER1
 70
    64
  3
----- - ----- - ----- - ----- - 
 72
    65
 73
     4
 40
10.0
 49
6.25
 49
-1.25
 49
1.25
 49
-1.25
  0
LTYPE
  2
CENTER2
 70
    64
  3
----------  --  ----------  --  
 72
    65
 73
     4
 40
20.0
 49
12.5
 49
-2.5
 49
2.5
 49
-2.5
  0
LTYPE
  2
PHANTOM1
 70
    64
  3
--- - - --- - - --- - - --- - - 
 72
    65
 73
     6
 40
10.0
 49
3.25
 49
-1.25
 49
1.25
 49
-1.25
 49
1.25
 49
-1.25
  0
LTYPE
  2
PHANTOM2
 70
    64
  3
--------  -  -  --------  -  -  
 72
    65
 73
     6
 40
20.0
 49
10.0
 49
-2.5
 49
1.25
 49
-2.5
 49
1.25
 49
-2.5
  0
LTYPE
  2
DOT
 70
    64
  3
-   -   -   -   -   -   -   -   
 72
    65
 73
     2
 40
2.5
 49
0.625
 49
-1.875
  0
LTYPE
  2
DUMMY
 70
    64
  3
ダミー
 72
    65
 73
     0
 40
0.0
  0
LTYPE
  2
RAND1
 70
    64
  3
ランダム線1
 72
    65
 73
     4
 40
10.0
 49
1.0
 49
-2.0
 49
3.0
 49
-4.0
  0
LTYPE
  2
RAND2
 70
    64
  3
ランダム線2
 72
    65
 73
     4
 40
14.0
 49
2.0
 49
-3.0
 49
4.0
 49
-5.0
  0
LTYPE
  2
RAND3
 70
    64
  3
ランダム線3
 72
    65
 73
     4
 40
18.0
 49
3.0
 49
-4.0
 49
5.0
 49
-6.0
  0
LTYPE
  2
RAND4
 70
    64
  3
ランダム線4
 72
    65
 73
     4
 40
22.0
 49
4.0
 49
-5.0
 49
6.0
 49
-7.0
  0
LTYPE
  2
RAND5
 70
    64
  3
ランダム線5
 72
    65
 73
     4
 40
26.0
 49
5.0
 49
-6.0
 49
7.0
 49
-8.0
  0
LTYPE
  2
LONG1
 70
    64
  3
----------  --  ----------  --  
 72
    65
 73
     4
 40
40.0
 49
32.5
 49
-2.5
 49
2.5
 49
-2.5
  0
LTYPE
  2
LONG2
 70
    64
  3
--------  -  -  --------  -  -  
 72
    65
 73
     6
 40
40.0
 49
30.0
 49
-2.5
 49
1.25
 49
-2.5
 49
1.25
 49
-2.5
  0
LTYPE
  2
LONG3
 70
    64
  3
+++++++++++++++..+++++++++++++++
 72
    65
 73
     2
 40
40.0
 49
37.5
 49
-2.5
  0
LTYPE
  2
LONG4
 70
    64
  3
+++++++++++++++..+++++++++++++++
 72
    65
 73
     2
 40
80.0
 49
75.0
 49
-5.0
  0
LTYPE
  2
LONG5
 70
    64
  3
----------  --  ----------  --  
 72
    65
 73
     4
 40
60.0
 49
37.5
 49
-7.5
 49
7.5
 49
-7.5
  0
LTYPE
  2
dashed
 70
   64
  3
-------   -------------   ------
 72
   65
 73
    2
 40
7.5
 49
6
 49
-1.5
  0
LTYPE
  2
dashed_spaced
 70
   64
  3
----        --------        ----
 72
   65
 73
    2
 40
12
 49
6
 49
-6
  0
LTYPE
  2
long_dashed_dotted
 70
   64
  3
------------- --- --------------
 72
   65
 73
    4
 40
15.25
 49
12
 49
-1.5
 49
0.25
 49
-1.5
  0
LTYPE
  2
long_dashed_double-dotted
 70
   64
  3
----------- --- --- ------------
 72
   65
 73
    6
 40
17
 49
12
 49
-1.5
 49
0.25
 49
-1.5
 49
0.25
 49
-1.5
  0
LTYPE
  2
long_dashed_triplicate-dotted
 70
   64
  3
--------- --- --- --- ----------
 72
   65
 73
    8
 40
18.75
 49
12
 49
-1.5
 49
0.25
 49
-1.5
 49
0.25
 49
-1.5
 49
0.25
 49
-1.5
  0
LTYPE
  2
dotted
 70
   64
  3
   -       -       -       -    
 72
   65
 73
    2
 40
1.75
 49
0.25
 49
-1.5
  0
LTYPE
  2
chain
 70
   64
  3
-------------- -- --------------
 72
   65
 73
    4
 40
18.5
 49
12
 49
-1.5
 49
3.5
 49
-1.5
  0
LTYPE
  2
chain_double_dash
 70
   64
  3
------------ -- -- -------------
 72
   65
 73
    6
 40
23.5
 49
12
 49
-1.5
 49
3.5
 49
-1.5
 49
3.5
 49
-1.5
  0
LTYPE
  2
dashed_dotted
 70
   64
  3
-----------     -     ----------
 72
   65
 73
    4
 40
9.25
 49
6
 49
-1.5
 49
0.25
 49
-1.5
  0
LTYPE
  2
double-dashed_dotted
 70
   64
  3
------   -----------   -   -----
 72
   65
 73
    6
 40
16.75
 49
6
 49
-1.5
 49
6
 49
-1.5
 49
0.25
 49
-1.5
  0
LTYPE
  2
dashed_double-dotted
 70
   64
  3
---------    -    -    ---------
 72
   65
 73
    6
 40
11
 49
6
 49
-1.5
 49
0.25
 49
-1.5
 49
0.25
 49
-1.5
  0
LTYPE
  2
double-dashed_double-dotted
 70
   64
  3
-----   ---------   -   -   ----
 72
   65
 73
    8
 40
18.5
 49
6
 49
-1.5
 49
6
 49
-1.5
 49
0.25
 49
-1.5
 49
0.25
 49
-1.5
  0
LTYPE
  2
dashed_triplicate-dotted
 70
   64
  3
-------    -    -    -    ------
 72
   65
 73
    8
 40
12.75
 49
6
 49
-1.5
 49
0.25
 49
-1.5
 49
0.25
 49
-1.5
 49
0.25
 49
-1.5
  0
LTYPE
  2
double-dashed_triplicate-dotted
 70
   64
  3
-----  ---------  -  -  -  -----
 72
   65
 73
   10
 40
20.25
 49
6
 49
-1.5
 49
6
 49
-1.5
 49
0.25
 49
-1.5
 49
0.25
 49
-1.5
 49
0.25
 49
-1.5
  0
LTYPE
  2
undefined
 70
   64
  3
--------------------------------
 72
   65
 73
    0
 40
0
  0
LTYPE
  2
_
 70
   64
  3
                                
 72
   65
 73
    0
 40
0
  0
LTYPE
  2
__18
 70
   64
  3
                                
 72
   65
 73
    0
 40
0
  0
LTYPE
  2
__19
 70
   64
  3
                                
 72
   65
 73
    0
 40
0
  0
LTYPE
  2
__20
 70
   64
  3
                                
 72
   65
 73
    0
 40
0
  0
LTYPE
  2
__21
 70
   64
  3
                                
 72
   65
 73
    0
 40
0
  0
LTYPE
  2
__22
 70
   64
  3
                                
 72
   65
 73
    0
 40
0
  0
LTYPE
  2
__23
 70
   64
  3
                                
 72
   65
 73
    0
 40
0
  0
LTYPE
  2
__24
 70
   64
  3
                                
 72
   65
 73
    0
 40
0
  0
LTYPE
  2
__25
 70
   64
  3
                                
 72
   65
 73
    0
 40
0
  0
LTYPE
  2
__26
 70
   64
  3
                                
 72
   65
 73
    0
 40
0
  0
LTYPE
  2
__27
 70
   64
  3
                                
 72
   65
 73
    0
 40
0
  0
LTYPE
  2
__28
 70
   64
  3
                                
 72
   65
 73
    0
 40
0
  0
LTYPE
  2
__29
 70
   64
  3
                                
 72
   65
 73
    0
 40
0
  0
LTYPE
  2
__30
 70
   64
  3
                                
 72
   65
 73
    0
 40
0
  0
LTYPE
  2
__31
 70
   64
  3
                                
 72
   65
 73
    0
 40
0
  0
LTYPE
  2
__32
 70
   64
  3
                                
 72
   65
 73
    0
 40
0
  0
ENDTAB
  0
TABLE
  2
STYLE
  5
3
100
AcDbSymbolTable
 70
     1
  0
STYLE
  5
10
100
AcDbSymbolTableRecord
100
AcDbTextStyleTableRecord
  2
STANDARD
 70
     0
 40
0.0
 41
1.0
 50
0.0
 71
     0
 42
0.2
  3
txt
  4
bigfont.shx
  0
STYLE
  5
26
100
AcDbSymbolTableRecord
100
AcDbTextStyleTableRecord
  2
TATEGAKI
 70
    68
 40
0.0
 41
1.0
 50
0.0
 71
     0
 42
1.0
  3
txt
  4
bigfont.shx
  0
ENDTAB
  0
TABLE
  2
LAYER
 70
    5
  0
LAYER
  2
_0-0_
 70
   64
 62
    7
  6
CONTINUOUS
  0
LAYER
  2
_0-1_
 70
   64
 62
    7
  6
CONTINUOUS
  0
LAYER
  2
_0-2_
 70
   64
 62
    7
  6
CONTINUOUS
  0
LAYER
  2
_0-8_
 70
   64
 62
    7
  6
CONTINUOUS
  0
LAYER
  2
ADD_LINE
 70
   64
 62
    7
  6
CONTINUOUS
  0
ENDTAB
  0
ENDSEC
  0
SECTION
  2
BLOCKS
  0
ENDSEC
  0
SECTION
  2
ENTITIES
  0
TEXT
  8
_0-0_
 62
    7
 10
266.43816651486412
 20
46.415950833933948
 40
3.2000000476837158
 41
1.0422794146408489
 50
0
  1
Material
  0
TEXT
  8
_0-0_
 62
    7
 10
275.90308321811392
 20
38.666067420619129
 40
3.7999999523162842
 41
1.025171652854415
 50
0
  1
A5052
  0
LINE
  8
_0-0_
  6
CONTINUOUS
 62
    4
 10
219.90463709720899
 20
50.226076208727932
 11
420.45463709720889
 21
50.226076208727932
  0
LINE
  8
_0-0_
  6
CONTINUOUS
 62
    4
 10
280.2796370972091
 20
25.55107620872792
 11
219.90463709720899
 21
25.55107620872792
  0
LINE
  8
_0-0_
  6
CONTINUOUS
 62
    4
 10
420.45463709720889
 20
16.626076208727909
 11
299.704637097209
 21
16.626076208727909
  0
LINE
  8
_0-0_
  6
CONTINUOUS
 62
    4
 10
338.02963709720899
 20
27.126076208727909
 11
417.30463709720897
 21
27.126076208727909
  0
LINE
  8
_0-0_
  6
CONTINUOUS
 62
    4
 10
334.87963709720901
 20
5.0760762087278977
 11
334.87963709720913
 21
37.626076208727909
  0
LINE
  8
_0-0_
  6
CONTINUOUS
 62
    4
 10
219.90463709720899
 20
37.626076208727909
 11
420.45463709720912
 21
37.626076208727909
  0
LINE
  8
_0-0_
  6
CONTINUOUS
 62
    4
 10
265.05463709720897
 20
50.226076208727932
 11
265.05463709720897
 21
37.626076208727966
  0
LINE
  8
_0-0_
  6
CONTINUOUS
 62
    4
 10
396.30463709720885
 20
50.226076208727932
 11
396.30463709720885
 21
37.626076208727966
  0
LINE
  8
_0-0_
  6
CONTINUOUS
 62
    4
 10
372.15463709720922
 20
37.626076208727909
 11
372.15463709720922
 21
50.226076208727932
  0
LINE
  8
_0-0_
  6
CONTINUOUS
 62
    4
 10
330.67963709720908
 20
37.626076208727909
 11
330.67963709720897
 21
50.226076208727932
  0
LINE
  8
_0-0_
  6
CONTINUOUS
 62
    4
 10
313.32857606366781
 20
7.0975374442300563
 11
319.20857606366769
 21
6.0895374442300181
  0
LINE
  8
_0-0_
  6
CONTINUOUS
 62
    4
 10
319.20857606366769
 20
10.625537444230019
 11
319.20857606366769
 21
6.0895374442300181
  0
LINE
  8
_0-0_
  6
CONTINUOUS
 62
    4
 10
313.32857606366781
 20
9.6175374442300381
 11
319.20857606366769
 21
10.625537444230019
  0
LINE
  8
_0-0_
  6
CONTINUOUS
 62
    4
 10
313.32857606366781
 20
9.6175374442300381
 11
313.32857606366781
 21
7.0975374442300563
  0
CIRCLE
  8
_0-0_
  6
CONTINUOUS
 62
    4
 10
309.96857606366768
 20
8.3575374442300472
 40
1.26
  0
CIRCLE
  8
_0-0_
  6
CONTINUOUS
 62
    4
 10
309.96857606366768
 20
8.3575374442300472
 40
2.3100000000000005
  0
LINE
  8
_0-0_
  6
_
 62
    7
 10
320.10762518387816
 20
8.3575374442300472
 11
307.10790860625337
 21
8.3575374442300472
  0
LINE
  8
_0-0_
  6
_
 62
    7
 10
309.96857606366768
 20
5.7673841917505797
 11
309.96857606366768
 21
11.136805281690215
  0
LINE
  8
_0-0_
  6
CONTINUOUS
 62
    4
 10
332.77963709720899
 20
27.126076208727909
 11
301.80463709720897
 21
27.126076208727909
  0
LINE
  8
_0-0_
  6
CONTINUOUS
 62
    4
 10
280.27963709720899
 20
5.0760762087278977
 11
280.27963709720922
 21
37.626076208727909
  0
LINE
  8
_0-0_
  6
CONTINUOUS
 62
    4
 10
299.704637097209
 20
19.251076208727909
 11
280.2796370972091
 21
19.251076208727909
  0
LINE
  8
_0-0_
  6
CONTINUOUS
 62
    4
 10
280.2796370972091
 20
19.251076208727909
 11
219.90463709720899
 21
19.251076208727966
  0
LINE
  8
_0-0_
  6
CONTINUOUS
 62
    4
 10
219.90463709720899
 20
50.226076208727932
 11
219.90463709720899
 21
5.0760762087278977
  0
TEXT
  8
_0-0_
 62
    7
 10
388.38063707300955
 20
38.876080238001919
 40
3.7999999523162842
 41
1.178947400782578
 50
0
  1
1
  0
TEXT
  8
_0-0_
 62
    7
 10
221.1630929832435
 20
46.415950833933948
 40
3.2000000476837158
 41
1.0422794146408489
 50
0
  1
Model
  0
TEXT
  8
_0-0_
 62
    7
 10
332.17371399862424
 20
46.415950833933948
 40
3.2000000476837158
 41
1.027173915877938
 50
0
  1
Surface
  0
TEXT
  8
_0-0_
 62
    7
 10
373.88187404965004
 20
46.775015840607409
 40
3.2000000476837158
 41
1.0422794146408489
 50
0
  1
Quantity
  0
TEXT
  8
_0-0_
 62
    7
 10
300.70690982827483
 20
23.321077787058982
 40
3.2000000476837158
 41
1.0738636393269361
 50
0
  1
Grade
  0
TEXT
  8
_0-0_
 62
    7
 10
310.95993564141867
 20
18.209153043406616
 40
3.2000000476837158
 41
1.018318968327266
 50
0
  1
ｍ（Medium）
  0
TEXT
  8
_0-0_
 62
    7
 10
336.33377106219643
 20
12.372729050296016
 40
3.5999999046325679
 41
1.029411791975982
 50
0
  1
Drawing number
  0
TEXT
  8
_0-0_
 62
    7
 10
301.00609493443307
 20
13.136076985972579
 40
3.2000000476837158
 41
1.0422794146408489
 50
0
  1
Projection method
  0
TEXT
  8
_0-0_
 62
    7
 10
281.0216365564757
 20
15.666468679087757
 40
3.2000000476837158
 41
1.0738636393269361
 50
0
  1
Unit
  0
TEXT
  8
_0-0_
 62
    7
 10
286.93759164266362
 20
7.9969346395903926
 40
3.5999999046325679
 41
1.060606088702527
 50
0
  1
mm
  0
TEXT
  8
_0-0_
 62
    7
 10
281.01940982827489
 20
33.821077787058925
 40
3.2000000476837158
 41
1.0738636393269361
 50
0
  1
Scale
  0
TEXT
  8
_0-0_
 62
    7
 10
221.11756813456932
 20
33.821077787058925
 40
3.2000000476837158
 41
1.018318968327266
 50
0
  1
Date
  0
TEXT
  8
_0-0_
 62
    7
 10
245.25480102304377
 20
20.902585944286272
 40
3
 41
1.103030262571393
 50
0
  1
Author
  0
TEXT
  8
_0-0_
 62
    7
 10
235.52558307890149
 20
10.845028585895079
 40
3
 41
1.103030262571393
 50
0
  1
Hirotaka Shiojima
  0
LINE
  8
_0-0_
  6
CONTINUOUS
 62
    4
 10
250.09213709720899
 20
37.626076208727909
 11
250.09213709720899
 21
25.55107620872792
  0
TEXT
  8
_0-0_
 62
    7
 10
326.5003983443238
 20
6.5575375429564815
 40
3.5999999046325679
 41
1.060606088702527
 50
0
  1
A3
  0
TEXT
  8
_0-0_
 62
    7
 10
369.17300569060347
 20
17.535813577688145
 40
4.8000001907348633
 41
0.9871794479524999
 50
0
  1
Option
  0
TEXT
  8
_0-0_
 62
    7
 10
251.43397533765727
 20
33.821077787058925
 40
3.2000000476837158
 41
1.0422794146408489
 50
0
  1
Surface
  0
TEXT
  8
_0-0_
 62
    7
 10
254.74284370519882
 20
27.69760637271628
 40
2.5
 41
1
 50
0
  1
Protecting sheets
  0
TEXT
  8
_0-0_
 62
    7
 10
301.25437767670854
 20
33.821077787058925
 40
3.2000000476837158
 41
1.002948115975157
 50
0
  1
Machining tolerance
  0
TEXT
  8
_0-0_
 62
    7
 10
344.65849068318721
 20
6.3647908535759825
 40
4.8000001907348633
 41
0.9871794479524999
 50
0
  1
FLC_radiator mount_2016.09.07
  0
TEXT
  8
_0-0_
 62
    7
 10
225.33585837170929
 20
38.791688362527395
 40
3.7999999523162842
 41
1.0717703643477983
 50
0
  1
FLC_radiator mount
  0
TEXT
  8
_0-0_
 62
    7
 10
360.93767503059536
 20
28.381070601122985
 40
4
 41
1.0069231051665091
 50
0
  1
Fabool Laser CO2
  0
TEXT
  8
_0-0_
 62
    7
 10
335.87417823225076
 20
33.201072250979564
 40
3.5999999046325679
 41
1.014492780498069
 50
0
  1
Equipment
  0
TEXT
  8
_0-0_
 62
    7
 10
332.08593353659563
 20
38.929162017943781
 40
3.7999999523162842
 41
1.178947400782578
 50
0
  1
Black anodised
  0
TEXT
  8
_0-0_
 62
    7
 10
245.0344778337741
 20
6.9538785179431102
 40
3
 41
1.103030262571393
 50
0
  1
smartDIYs Co.,Ltd.
  0
TEXT
  8
_0-0_
 62
    7
 10
223.13830831896468
 20
27.101072179453979
 40
3.2000000476837158
 41
0.965801836975482
 50
0
  1
07/Sep/2016
  0
LINE
  8
_0-0_
  6
CONTINUOUS
 62
    3
 10
420.454637097209
 20
5.0760762087278977
 11
420.45463709720912
 21
294.87607620872791
  0
LINE
  8
_0-0_
  6
CONTINUOUS
 62
    3
 10
0.4546370972090016
 20
5.0760762087279545
 11
420.454637097209
 21
5.0760762087278977
  0
LINE
  8
_0-0_
  6
CONTINUOUS
 62
    3
 10
0.4546370972091153
 20
294.87607620872802
 11
0.4546370972090016
 21
5.0760762087279545
  0
LINE
  8
_0-0_
  6
CONTINUOUS
 62
    3
 10
420.45463709720912
 20
294.87607620872791
 11
0.4546370972091153
 21
294.87607620872802
  0
LINE
  8
_0-0_
  6
CONTINUOUS
 62
    4
 10
299.704637097209
 20
50.226076208727932
 11
299.704637097209
 21
5.0760762087277271
  0
TEXT
  8
_0-0_
 62
    7
 10
301.48175346924222
 20
46.415950833933948
 40
3.2000000476837158
 41
1.0422794146408489
 50
0
  1
Thickness
  0
TEXT
  8
_0-0_
 62
    7
 10
310.94667017249202
 20
38.666067420619129
 40
3.7999999523162842
 41
1.025171652854415
 50
0
  1
2mm
  0
LINE
  8
_0-1_
  6
CONTINUOUS
 62
    7
 10
206.47908420145666
 20
210.10026629092295
 11
324.97908420145666
 21
210.10026629092295
  0
LINE
  8
_0-1_
  6
CONTINUOUS
 62
    7
 10
171.85679589753593
 20
210.10026629092295
 11
206.47908420145666
 21
210.10026629092295
  0
LINE
  8
_0-1_
  6
CONTINUOUS
 62
    7
 10
206.47908420145666
 20
117.60026629092292
 11
324.97908420145666
 21
117.60026629092292
  0
CIRCLE
  8
_0-1_
  6
CONTINUOUS
 62
    7
 10
108.97908420145666
 20
216.10026629092295
 40
2
  0
CIRCLE
  8
_0-1_
  6
CONTINUOUS
 62
    7
 10
213.47908420145666
 20
216.10026629092295
 40
2
  0
CIRCLE
  8
_0-1_
  6
CONTINUOUS
 62
    7
 10
229.47908420145666
 20
216.10026629092295
 40
2
  0
CIRCLE
  8
_0-1_
  6
CONTINUOUS
 62
    7
 10
333.97908420145666
 20
216.10026629092295
 40
2
  0
CIRCLE
  8
_0-1_
  6
CONTINUOUS
 62
    7
 10
333.97908420145666
 20
111.60026629092292
 40
2
  0
CIRCLE
  8
_0-1_
  6
CONTINUOUS
 62
    7
 10
229.47908420145666
 20
111.60026629092292
 40
2
  0
CIRCLE
  8
_0-1_
  6
CONTINUOUS
 62
    7
 10
213.47908420145666
 20
111.60026629092292
 40
2
  0
CIRCLE
  8
_0-1_
  6
CONTINUOUS
 62
    7
 10
108.97908420145666
 20
111.60026629092292
 40
2
  0
LINE
  8
_0-2_
  6
DASHED1
 62
    4
 10
108.97908420145666
 20
211.24514443341749
 11
108.97908420145666
 21
219.63945157365342
  0
LINE
  8
_0-2_
  6
DASHED1
 62
    4
 10
333.97908420145666
 20
211.51461937025041
 11
333.97908420145666
 21
219.63945157365342
  0
LINE
  8
_0-2_
  6
DASHED1
 62
    4
 10
229.47908420145666
 20
219.63945157365342
 11
229.47908420145666
 21
207.20882073830813
  0
LINE
  8
_0-2_
  6
DASHED1
 62
    4
 10
213.47908420145666
 20
207.20882073830813
 11
213.47908420145666
 21
219.63945157365342
  0
LINE
  8
_0-2_
  6
DASHED1
 62
    4
 10
333.97908420145666
 20
106.62392527775802
 11
333.97908420145666
 21
116.40712605882001
  0
LINE
  8
_0-2_
  6
DASHED1
 62
    4
 10
229.47908420145666
 20
117.60026629092292
 11
229.47908420145666
 21
106.62392527775802
  0
LINE
  8
_0-2_
  6
DASHED1
 62
    4
 10
213.47908420145666
 20
106.62392527775802
 11
213.47908420145666
 21
116.40712605882001
  0
LINE
  8
_0-2_
  6
DASHED1
 62
    4
 10
108.97908420145666
 20
106.62392527775802
 11
108.97908420145666
 21
115.95663163527149
  0
LINE
  8
_0-2_
  6
DASHED1
 62
    4
 10
327.49030510011005
 20
111.60026629092292
 11
341.24199552329151
 21
111.60026629092292
  0
LINE
  8
_0-2_
  6
DASHED1
 62
    4
 10
206.28668068403076
 20
111.60026629092292
 11
236.6212919116368
 21
111.60026629092292
  0
LINE
  8
_0-2_
  6
DASHED1
 62
    4
 10
101.39633608368626
 20
111.60026629092292
 11
115.95694947293717
 21
111.60026629092292
  0
LINE
  8
_0-2_
  6
DASHED1
 62
    4
 10
327.49030510011005
 20
216.10026629092295
 11
341.24199552329151
 21
216.10026629092295
  0
LINE
  8
_0-2_
  6
DASHED1
 62
    4
 10
206.47908420145666
 20
216.10026629092295
 11
236.6212919116368
 21
216.10026629092295
  0
LINE
  8
_0-2_
  6
DASHED1
 62
    4
 10
101.39633608368626
 20
216.10026629092295
 11
115.95694947293717
 21
216.10026629092295
  0
LINE
  8
_0-2_
  6
DASHED1
 62
    4
 10
353.97908420145666
 20
230.71883939430549
 11
353.97908420145666
 21
203.56535081999752
  0
LINE
  8
_0-2_
  6
DASHED1
 62
    4
 10
353.97908420145666
 20
124.11625462109629
 11
353.97908420145666
 21
96.711344856285436
  0
LINE
  8
_0-2_
  6
DASHED1
 62
    4
 10
349.05325054605612
 20
217.60026629092295
 11
358.13715344227552
 21
217.60026629092295
  0
LINE
  8
_0-2_
  6
DASHED1
 62
    4
 10
349.05325054605612
 20
110.10026629092292
 11
358.13715344227552
 21
110.10026629092292
  0
LINE
  8
_0-2_
  6
DASHED1
 62
    4
 10
63.979084201456658
 20
231.18942202989027
 11
63.979084201456658
 21
202.46903153513679
  0
LINE
  8
_0-2_
  6
DASHED1
 62
    4
 10
63.979084201456658
 20
122.43721168085423
 11
63.979084201456658
 21
97.044183499517317
  0
LINE
  8
_0-2_
  6
DASHED1
 62
    4
 10
56.957821834064418
 20
217.60026629092295
 11
69.872082166810344
 21
217.60026629092295
  0
LINE
  8
_0-2_
  6
DASHED1
 62
    4
 10
56.957821834064418
 20
110.10026629092292
 11
69.872082166810344
 21
110.10026629092292
  0
LINE
  8
_0-1_
  6
CONTINUOUS
 62
    7
 10
111.4790842014566
 20
210.10026629092295
 11
171.85679589753593
 21
210.10026629092295
  0
ARC
  8
_0-1_
  6
CONTINUOUS
 62
    7
 10
111.4790842014566
 20
207.10026629092295
 40
3
 50
90
 51
180
  0
LINE
  8
_0-1_
  6
CONTINUOUS
 62
    7
 10
111.4790842014566
 20
117.60026629092292
 11
206.47908420145666
 21
117.60026629092292
  0
LINE
  8
_0-1_
  6
CONTINUOUS
 62
    7
 10
108.4790842014566
 20
120.60026629092292
 11
108.4790842014566
 21
207.10026629092295
  0
ARC
  8
_0-1_
  6
CONTINUOUS
 62
    7
 10
111.4790842014566
 20
120.60026629092292
 40
3
 50
180
 51
270
  0
LINE
  8
_0-1_
  6
CONTINUOUS
 62
    7
 10
332.4790842014566
 20
210.10026629092295
 11
324.97908420145666
 21
210.10026629092295
  0
ARC
  8
_0-1_
  6
CONTINUOUS
 62
    7
 10
332.4790842014566
 20
207.10026629092295
 40
3
 50
0
 51
90
  0
LINE
  8
_0-1_
  6
CONTINUOUS
 62
    7
 10
335.4790842014566
 20
120.60026629092292
 11
335.4790842014566
 21
207.10026629092295
  0
LINE
  8
_0-1_
  6
CONTINUOUS
 62
    7
 10
332.4790842014566
 20
117.60026629092292
 11
324.97908420145666
 21
117.60026629092292
  0
ARC
  8
_0-1_
  6
CONTINUOUS
 62
    7
 10
332.4790842014566
 20
120.60026629092292
 40
3
 50
270
 51
0
  0
ARC
  8
_0-1_
  6
CONTINUOUS
 62
    7
 10
348.47908420145666
 20
120.60026629092292
 40
3
 50
180
 51
270
  0
LINE
  8
_0-1_
  6
CONTINUOUS
 62
    7
 10
345.47908420145666
 20
207.10026629092295
 11
345.47908420145666
 21
120.60026629092292
  0
ARC
  8
_0-1_
  6
CONTINUOUS
 62
    7
 10
348.47908420145666
 20
207.10026629092295
 40
3
 50
90
 51
180
  0
ARC
  8
_0-1_
  6
CONTINUOUS
 62
    7
 10
95.479084201456601
 20
207.10026629092295
 40
3
 50
0
 51
90
  0
LINE
  8
_0-1_
  6
CONTINUOUS
 62
    7
 10
98.479084201456601
 20
120.60026629092292
 11
98.479084201456601
 21
207.10026629092295
  0
ARC
  8
_0-1_
  6
CONTINUOUS
 62
    7
 10
95.479084201456601
 20
120.60026629092292
 40
3
 50
270
 51
0
  0
ARC
  8
_0-1_
  6
CONTINUOUS
 62
    7
 10
59.979084201456658
 20
219.10026629092295
 40
6
 50
90
 51
180
  0
LINE
  8
_0-1_
  6
CONTINUOUS
 62
    7
 10
59.979084201456658
 20
210.10026629092295
 11
95.479084201456601
 21
210.10026629092295
  0
LINE
  8
_0-1_
  6
CONTINUOUS
 62
    7
 10
53.979084201456658
 20
216.10026629092295
 11
53.979084201456658
 21
219.10026629092295
  0
ARC
  8
_0-1_
  6
CONTINUOUS
 62
    7
 10
59.979084201456658
 20
216.10026629092295
 40
6
 50
180
 51
270
  0
LINE
  8
_0-1_
  6
CONTINUOUS
 62
    7
 10
59.979084201456658
 20
117.60026629092292
 11
95.479084201456601
 21
117.60026629092292
  0
ARC
  8
_0-1_
  6
CONTINUOUS
 62
    7
 10
59.979084201456658
 20
111.60026629092292
 40
6
 50
90
 51
180
  0
LINE
  8
_0-1_
  6
CONTINUOUS
 62
    7
 10
53.979084201456658
 20
108.60026629092292
 11
53.979084201456658
 21
111.60026629092292
  0
ARC
  8
_0-1_
  6
CONTINUOUS
 62
    7
 10
59.979084201456658
 20
108.60026629092292
 40
6
 50
180
 51
270
  0
LINE
  8
_0-1_
  6
CONTINUOUS
 62
    7
 10
357.97908420145666
 20
225.10026629092295
 11
59.979084201456658
 21
225.10026629092295
  0
ARC
  8
_0-1_
  6
CONTINUOUS
 62
    7
 10
357.97908420145666
 20
219.10026629092295
 40
6
 50
0
 51
90
  0
LINE
  8
_0-1_
  6
CONTINUOUS
 62
    7
 10
363.97908420145666
 20
216.10026629092295
 11
363.97908420145666
 21
219.10026629092295
  0
LINE
  8
_0-1_
  6
CONTINUOUS
 62
    7
 10
357.97908420145666
 20
210.10026629092295
 11
348.47908420145666
 21
210.10026629092295
  0
ARC
  8
_0-1_
  6
CONTINUOUS
 62
    7
 10
357.97908420145666
 20
216.10026629092295
 40
6
 50
270
 51
0
  0
LINE
  8
_0-1_
  6
CONTINUOUS
 62
    7
 10
357.97908420145666
 20
117.60026629092292
 11
348.47908420145666
 21
117.60026629092292
  0
ARC
  8
_0-1_
  6
CONTINUOUS
 62
    7
 10
357.97908420145666
 20
111.60026629092292
 40
6
 50
0
 51
90
  0
LINE
  8
_0-1_
  6
CONTINUOUS
 62
    7
 10
363.97908420145666
 20
108.60026629092292
 11
363.97908420145666
 21
111.60026629092292
  0
LINE
  8
_0-1_
  6
CONTINUOUS
 62
    7
 10
357.97908420145666
 20
102.60026629092292
 11
59.979084201456658
 21
102.60026629092292
  0
ARC
  8
_0-1_
  6
CONTINUOUS
 62
    7
 10
357.97908420145666
 20
108.60026629092292
 40
6
 50
270
 51
0
  0
LINE
  8
_0-8_
  6
CONTINUOUS
 62
    4
 10
53.979084201456658
 20
252.43875007890492
 11
363.97908420145666
 21
252.43875007890492
  0
POINT
  8
_0-8_
 62
    4
 10
53.979084201456658
 20
252.43875007890492
  0
POINT
  8
_0-8_
 62
    4
 10
363.97908420145666
 20
252.43875007890492
  0
LINE
  8
_0-8_
  6
CONTINUOUS
 62
    4
 10
53.979084201456658
 20
252.43875007890492
 11
53.979084201456658
 21
234.78122996494358
  0
LINE
  8
_0-8_
  6
CONTINUOUS
 62
    4
 10
363.97908420145666
 20
252.43875007890492
 11
363.97908420145666
 21
234.78122996494358
  0
TEXT
  8
_0-8_
 62
    4
 10
205.22908420145666
 20
252.93875007890492
 40
5
 41
1
 50
0
  1
310
  0
LINE
  8
_0-8_
  6
CONTINUOUS
 62
    4
 10
53.979084201456658
 20
241.49848318156592
 11
63.979084201456658
 21
241.49848318156592
  0
POINT
  8
_0-8_
 62
    4
 10
53.979084201456658
 20
241.49848318156592
  0
POINT
  8
_0-8_
 62
    4
 10
63.979084201456658
 20
241.49848318156592
  0
LINE
  8
_0-8_
  6
CONTINUOUS
 62
    4
 10
53.979084201456658
 20
241.49848318156592
 11
53.979084201456658
 21
234.78122996494358
  0
LINE
  8
_0-8_
  6
CONTINUOUS
 62
    4
 10
63.979084201456658
 20
241.49848318156592
 11
63.979084201456658
 21
234.78122996494358
  0
TEXT
  8
_0-8_
 62
    4
 10
56.479084201456658
 20
241.99848318156592
 40
5
 41
1
 50
0
  1
10
  0
LINE
  8
_0-8_
  6
CONTINUOUS
 62
    4
 10
363.97908420145666
 20
241.49848318156592
 11
353.97908420145666
 21
241.49848318156592
  0
POINT
  8
_0-8_
 62
    4
 10
363.97908420145666
 20
241.49848318156592
  0
POINT
  8
_0-8_
 62
    4
 10
353.97908420145666
 20
241.49848318156592
  0
LINE
  8
_0-8_
  6
CONTINUOUS
 62
    4
 10
363.97908420145666
 20
241.49848318156592
 11
363.97908420145666
 21
234.78122996494358
  0
LINE
  8
_0-8_
  6
CONTINUOUS
 62
    4
 10
353.97908420145666
 20
241.49848318156592
 11
353.97908420145666
 21
234.78122996494358
  0
TEXT
  8
_0-8_
 62
    4
 10
356.47908420145666
 20
241.99848318156592
 40
5
 41
1
 50
0
  1
10
  0
LINE
  8
_0-8_
  6
CONTINUOUS
 62
    4
 10
353.97908420145666
 20
241.49848318156592
 11
333.97908420145666
 21
241.49848318156592
  0
POINT
  8
_0-8_
 62
    4
 10
333.97908420145666
 20
241.49848318156592
  0
LINE
  8
_0-8_
  6
CONTINUOUS
 62
    4
 10
333.97908420145666
 20
241.49848318156592
 11
333.97908420145666
 21
234.78122996494358
  0
TEXT
  8
_0-8_
 62
    4
 10
341.47908420145666
 20
241.99848318156592
 40
5
 41
1
 50
0
  1
20
  0
LINE
  8
_0-8_
  6
CONTINUOUS
 62
    4
 10
333.97908420145666
 20
241.49848318156592
 11
229.47908420145666
 21
241.49848318156592
  0
POINT
  8
_0-8_
 62
    4
 10
229.47908420145666
 20
241.49848318156592
  0
LINE
  8
_0-8_
  6
CONTINUOUS
 62
    4
 10
229.47908420145666
 20
241.49848318156592
 11
229.47908420145666
 21
234.78122996494358
  0
TEXT
  8
_0-8_
 62
    4
 10
275.47908420145666
 20
241.99848318156592
 40
5
 41
1
 50
0
  1
104.5
  0
LINE
  8
_0-8_
  6
CONTINUOUS
 62
    4
 10
229.47908420145666
 20
241.49848318156592
 11
213.47908420145666
 21
241.49848318156592
  0
POINT
  8
_0-8_
 62
    4
 10
213.47908420145666
 20
241.49848318156592
  0
LINE
  8
_0-8_
  6
CONTINUOUS
 62
    4
 10
213.47908420145666
 20
241.49848318156592
 11
213.47908420145666
 21
234.78122996494358
  0
TEXT
  8
_0-8_
 62
    4
 10
218.97908420145666
 20
241.99848318156592
 40
5
 41
1
 50
0
  1
16
  0
LINE
  8
_0-8_
  6
CONTINUOUS
 62
    4
 10
213.47908420145666
 20
241.49848318156592
 11
108.97908420145666
 21
241.49848318156592
  0
POINT
  8
_0-8_
 62
    4
 10
108.97908420145666
 20
241.49848318156592
  0
LINE
  8
_0-8_
  6
CONTINUOUS
 62
    4
 10
108.97908420145666
 20
241.49848318156592
 11
108.97908420145666
 21
234.78122996494358
  0
TEXT
  8
_0-8_
 62
    4
 10
154.97908420145666
 20
241.99848318156592
 40
5
 41
1
 50
0
  1
104.5
  0
LINE
  8
_0-8_
  6
CONTINUOUS
 62
    4
 10
386.48467888768414
 20
225.10026629092295
 11
386.48467888768414
 21
210.10026629092295
  0
POINT
  8
_0-8_
 62
    4
 10
386.48467888768414
 20
225.10026629092295
  0
POINT
  8
_0-8_
 62
    4
 10
386.48467888768414
 20
210.10026629092295
  0
LINE
  8
_0-8_
  6
CONTINUOUS
 62
    4
 10
386.48467888768414
 20
225.10026629092295
 11
368.23585308445041
 21
225.10026629092295
  0
LINE
  8
_0-8_
  6
CONTINUOUS
 62
    4
 10
386.48467888768414
 20
210.10026629092295
 11
368.23585308445041
 21
210.10026629092295
  0
TEXT
  8
_0-8_
 62
    4
 10
385.98467888768414
 20
215.10026629092295
 40
5
 41
1
 50
90
  1
15
  0
LINE
  8
_0-8_
  6
CONTINUOUS
 62
    4
 10
386.48467888768414
 20
117.60026629092292
 11
386.48467888768414
 21
102.60026629092292
  0
POINT
  8
_0-8_
 62
    4
 10
386.48467888768414
 20
117.60026629092292
  0
POINT
  8
_0-8_
 62
    4
 10
386.48467888768414
 20
102.60026629092292
  0
LINE
  8
_0-8_
  6
CONTINUOUS
 62
    4
 10
386.48467888768414
 20
117.60026629092292
 11
368.23585308445041
 21
117.60026629092292
  0
LINE
  8
_0-8_
  6
CONTINUOUS
 62
    4
 10
386.48467888768414
 20
102.60026629092292
 11
368.23585308445041
 21
102.60026629092292
  0
TEXT
  8
_0-8_
 62
    4
 10
385.98467888768414
 20
107.60026629092292
 40
5
 41
1
 50
90
  1
15
  0
LINE
  8
_0-8_
  6
CONTINUOUS
 62
    4
 10
377.58281264220426
 20
225.10026629092295
 11
377.58281264220426
 21
217.60026629092295
  0
POINT
  8
_0-8_
 62
    4
 10
377.58281264220426
 20
225.10026629092295
  0
POINT
  8
_0-8_
 62
    4
 10
377.58281264220426
 20
217.60026629092295
  0
LINE
  8
_0-8_
  6
CONTINUOUS
 62
    4
 10
377.58281264220426
 20
225.10026629092295
 11
368.23585308445041
 21
225.10026629092295
  0
LINE
  8
_0-8_
  6
CONTINUOUS
 62
    4
 10
377.58281264220426
 20
217.60026629092295
 11
368.23585308445041
 21
217.60026629092295
  0
TEXT
  8
_0-8_
 62
    4
 10
377.28275992048799
 20
226.39351233088121
 40
5
 41
1
 50
90
  1
7.5
  0
LINE
  8
_0-8_
  6
CONTINUOUS
 62
    4
 10
318.35503423611516
 20
216.10026629092295
 11
318.35503423611516
 21
210.10026629092295
  0
POINT
  8
_0-8_
 62
    4
 10
318.35503423611516
 20
216.10026629092295
  0
POINT
  8
_0-8_
 62
    4
 10
318.35503423611516
 20
210.10026629092295
  0
LINE
  8
_0-8_
  6
CONTINUOUS
 62
    4
 10
318.35503423611516
 20
216.10026629092295
 11
327.27503055541479
 21
216.10026629092295
  0
LINE
  8
_0-8_
  6
CONTINUOUS
 62
    4
 10
318.35503423611516
 20
210.10026629092295
 11
327.27503055541479
 21
210.10026629092295
  0
TEXT
  8
_0-8_
 62
    4
 10
317.85503423611516
 20
211.85026629092295
 40
5
 41
1
 50
90
  1
6
  0
LINE
  8
_0-8_
  6
CONTINUOUS
 62
    4
 10
53.979084201456658
 20
175.70026019937137
 11
98.479084201456601
 21
175.70026019937137
  0
POINT
  8
_0-8_
 62
    4
 10
53.979084201456658
 20
175.70026019937137
  0
POINT
  8
_0-8_
 62
    4
 10
98.479084201456601
 20
175.70026019937137
  0
LINE
  8
_0-8_
  6
CONTINUOUS
 62
    4
 10
53.979084201456658
 20
175.70026019937137
 11
53.979084201456658
 21
195.62713592871685
  0
LINE
  8
_0-8_
  6
CONTINUOUS
 62
    4
 10
98.479084201456601
 20
175.70026019937137
 11
98.479084201456601
 21
195.62713592871685
  0
TEXT
  8
_0-8_
 62
    4
 10
71.229084201456629
 20
176.20026019937137
 40
5
 41
1
 50
0
  1
44.5
  0
LINE
  8
_0-8_
  6
CONTINUOUS
 62
    4
 10
345.47908420145666
 20
175.70026019937137
 11
363.97908420145666
 21
175.70026019937137
  0
POINT
  8
_0-8_
 62
    4
 10
345.47908420145666
 20
175.70026019937137
  0
POINT
  8
_0-8_
 62
    4
 10
363.97908420145666
 20
175.70026019937137
  0
LINE
  8
_0-8_
  6
CONTINUOUS
 62
    4
 10
345.47908420145666
 20
175.70026019937137
 11
345.47908420145666
 21
195.62713592871685
  0
LINE
  8
_0-8_
  6
CONTINUOUS
 62
    4
 10
363.97908420145666
 20
175.70026019937137
 11
363.97908420145666
 21
195.62713592871685
  0
TEXT
  8
_0-8_
 62
    4
 10
349.72908420145666
 20
176.20026019937137
 40
5
 41
1
 50
0
  1
18.5
  0
LINE
  8
_0-8_
  6
CONTINUOUS
 62
    4
 10
108.4790842014566
 20
132.69532579870278
 11
335.4790842014566
 21
132.69532579870278
  0
POINT
  8
_0-8_
 62
    4
 10
108.4790842014566
 20
132.69532579870278
  0
POINT
  8
_0-8_
 62
    4
 10
335.4790842014566
 20
132.69532579870278
  0
LINE
  8
_0-8_
  6
CONTINUOUS
 62
    4
 10
108.4790842014566
 20
132.69532579870278
 11
108.4790842014566
 21
139.46883677245194
  0
LINE
  8
_0-8_
  6
CONTINUOUS
 62
    4
 10
335.4790842014566
 20
132.69532579870278
 11
335.4790842014566
 21
139.46883677245194
  0
TEXT
  8
_0-8_
 62
    4
 10
218.2290842014566
 20
133.19532579870278
 40
5
 41
1
 50
0
  1
227
  0
LINE
  8
_0-8_
  6
CONTINUOUS
 62
    4
 10
276.40702222046275
 20
210.10026629092295
 11
276.40702222046275
 21
117.60026629092292
  0
POINT
  8
_0-8_
 62
    4
 10
276.40702222046275
 20
210.10026629092295
  0
POINT
  8
_0-8_
 62
    4
 10
276.40702222046275
 20
117.60026629092292
  0
LINE
  8
_0-8_
  6
CONTINUOUS
 62
    4
 10
276.40702222046275
 20
210.10026629092295
 11
266.6230619250473
 21
210.10026629092295
  0
LINE
  8
_0-8_
  6
CONTINUOUS
 62
    4
 10
276.40702222046275
 20
117.60026629092292
 11
266.6230619250473
 21
117.60026629092292
  0
TEXT
  8
_0-8_
 62
    4
 10
275.90702222046275
 20
158.85026629092295
 40
5
 41
1
 50
90
  1
92.5
  0
LINE
  8
_0-8_
  6
CONTINUOUS
 62
    4
 10
192.30984736308721
 20
216.10026629092295
 11
192.30984736308719
 21
111.60026629092292
  0
POINT
  8
_0-8_
 62
    4
 10
192.30984736308721
 20
216.10026629092295
  0
POINT
  8
_0-8_
 62
    4
 10
192.30984736308719
 20
111.60026629092292
  0
LINE
  8
_0-8_
  6
CONTINUOUS
 62
    4
 10
192.30984736308721
 20
216.10026629092295
 11
206.99346752386765
 21
216.10026629092295
  0
LINE
  8
_0-8_
  6
CONTINUOUS
 62
    4
 10
192.30984736308719
 20
111.60026629092292
 11
206.99346752386765
 21
111.60026629092292
  0
TEXT
  8
_0-8_
 62
    4
 10
191.80984736308721
 20
157.60026629092295
 40
5
 41
1
 50
90
  1
104.5
  0
LINE
  8
_0-8_
  6
CONTINUOUS
 62
    4
 10
28.925438907418851
 20
210.10026629092295
 11
28.925438907418851
 21
117.60026629092292
  0
POINT
  8
_0-8_
 62
    4
 10
28.925438907418851
 20
210.10026629092295
  0
POINT
  8
_0-8_
 62
    4
 10
28.925438907418851
 20
117.60026629092292
  0
LINE
  8
_0-8_
  6
CONTINUOUS
 62
    4
 10
28.925438907418851
 20
210.10026629092295
 11
48.736672457678225
 21
210.10026629092295
  0
LINE
  8
_0-8_
  6
CONTINUOUS
 62
    4
 10
28.925438907418851
 20
117.60026629092292
 11
48.736672457678225
 21
117.60026629092292
  0
TEXT
  8
_0-8_
 62
    4
 10
28.425438907418851
 20
158.85026629092295
 40
5
 41
1
 50
90
  1
92.5
  0
LINE
  8
_0-8_
  6
CONTINUOUS
 62
    4
 10
127.74022246098426
 20
216.10026629092295
 11
127.74022246098426
 21
210.10026629092295
  0
POINT
  8
_0-8_
 62
    4
 10
127.74022246098426
 20
216.10026629092295
  0
POINT
  8
_0-8_
 62
    4
 10
127.74022246098426
 20
210.10026629092295
  0
LINE
  8
_0-8_
  6
CONTINUOUS
 62
    4
 10
127.74022246098426
 20
216.10026629092295
 11
121.84705824665777
 21
216.10026629092295
  0
LINE
  8
_0-8_
  6
CONTINUOUS
 62
    4
 10
127.74022246098426
 20
210.10026629092295
 11
121.84705824665777
 21
210.10026629092295
  0
TEXT
  8
_0-8_
 62
    4
 10
127.24022246098426
 20
211.85026629092295
 40
5
 41
1
 50
90
  1
6
  0
LINE
  8
_0-8_
  6
CONTINUOUS
 62
    4
 10
127.74022246098426
 20
111.60026629092292
 11
127.74022246098426
 21
117.60026629092292
  0
POINT
  8
_0-8_
 62
    4
 10
127.74022246098426
 20
111.60026629092292
  0
POINT
  8
_0-8_
 62
    4
 10
127.74022246098426
 20
117.60026629092292
  0
LINE
  8
_0-8_
  6
CONTINUOUS
 62
    4
 10
127.74022246098426
 20
111.60026629092292
 11
121.84705824665777
 21
111.60026629092292
  0
LINE
  8
_0-8_
  6
CONTINUOUS
 62
    4
 10
127.74022246098426
 20
117.60026629092292
 11
121.84705824665777
 21
117.60026629092292
  0
TEXT
  8
_0-8_
 62
    4
 10
127.24022246098426
 20
113.35026629092292
 40
5
 41
1
 50
90
  1
6
  0
LINE
  8
_0-8_
  6
CONTINUOUS
 62
    4
 10
40.592824382459298
 20
117.60026629092292
 11
40.592824382459298
 21
102.60026629092292
  0
POINT
  8
_0-8_
 62
    4
 10
40.592824382459298
 20
117.60026629092292
  0
POINT
  8
_0-8_
 62
    4
 10
40.592824382459298
 20
102.60026629092292
  0
LINE
  8
_0-8_
  6
CONTINUOUS
 62
    4
 10
40.592824382459298
 20
117.60026629092292
 11
51.664829876042404
 21
117.60026629092292
  0
LINE
  8
_0-8_
  6
CONTINUOUS
 62
    4
 10
40.592824382459298
 20
102.60026629092292
 11
51.664829876042404
 21
102.60026629092292
  0
TEXT
  8
_0-8_
 62
    4
 10
40.092824382459298
 20
107.60026629092292
 40
5
 41
1
 50
90
  1
15
  0
LINE
  8
_0-8_
  6
CONTINUOUS
 62
    4
 10
46.345233517421178
 20
102.60026629092292
 11
46.345233517421178
 21
110.10026629092292
  0
POINT
  8
_0-8_
 62
    4
 10
46.345233517421178
 20
102.60026629092292
  0
POINT
  8
_0-8_
 62
    4
 10
46.345233517421178
 20
110.10026629092292
  0
LINE
  8
_0-8_
  6
CONTINUOUS
 62
    4
 10
46.345233517421178
 20
102.60026629092292
 11
51.664829876042404
 21
102.60026629092292
  0
LINE
  8
_0-8_
  6
CONTINUOUS
 62
    4
 10
46.345233517421178
 20
110.10026629092292
 11
51.664829876042404
 21
110.10026629092292
  0
TEXT
  8
_0-8_
 62
    4
 10
46.087021425476451
 20
93.918169178543707
 40
5
 41
1
 50
90
  1
7.5
  0
LINE
  8
_0-8_
  6
CONTINUOUS
 62
    4
 10
347.91869175633349
 20
120.15969642489381
 11
376.66252982109097
 21
148.90353448965126
  0
LINE
  8
_0-8_
  6
CONTINUOUS
 62
    4
 10
347.91869175633349
 20
120.15969642489381
 11
349.41869175633349
 21
122.75777263624713
  0
LINE
  8
_0-8_
  6
CONTINUOUS
 62
    4
 10
347.91869175633349
 20
120.15969642489381
 11
350.51676796768686
 21
121.65969642489381
  0
LINE
  8
_0-8_
  6
CONTINUOUS
 62
    4
 10
362.84337690534221
 20
227.1199399927894
 11
384.81583004138281
 21
249.09239312882997
  0
LINE
  8
_0-8_
  6
CONTINUOUS
 62
    4
 10
362.84337690534221
 20
227.1199399927894
 11
364.34337690534221
 21
229.71801620414271
  0
LINE
  8
_0-8_
  6
CONTINUOUS
 62
    4
 10
362.84337690534221
 20
227.1199399927894
 11
365.44145311669553
 21
228.6199399927894
  0
TEXT
  8
_0-8_
 62
    4
 10
386.88870297874507
 20
251.16526606619229
 40
5
 41
1
 50
0
  1
8×R6
  0
TEXT
  8
_0-8_
 62
    4
 10
378.32082817098086
 20
151.11459895617108
 40
5
 41
1
 50
0
  1
8×R3
  0
LINE
  8
_0-8_
  6
CONTINUOUS
 62
    4
 10
384.81583004138281
 20
249.09239312882997
 11
402.36615424438378
 21
249.09239312882997
  0
LINE
  8
_0-8_
  6
CONTINUOUS
 62
    4
 10
376.66252982109097
 20
148.90353448965126
 11
394.07466249493444
 21
148.90353448965126
  0
LINE
  8
_0-8_
  6
CONTINUOUS
 62
    4
 10
66.567733935237271
 20
107.63038297141014
 11
107.73327970310709
 21
66.464837203540327
  0
LINE
  8
_0-8_
  6
CONTINUOUS
 62
    4
 10
66.567733935237271
 20
107.63038297141014
 11
69.165810146590587
 21
106.13038297141014
  0
LINE
  8
_0-8_
  6
CONTINUOUS
 62
    4
 10
66.567733935237271
 20
107.63038297141014
 11
68.067733935237271
 21
105.03230676005683
  0
LINE
  8
_0-8_
  6
CONTINUOUS
 62
    4
 10
111.92418912446658
 20
109.86102830858536
 11
139.36788630304645
 21
82.417331130005479
  0
LINE
  8
_0-8_
  6
CONTINUOUS
 62
    4
 10
111.92418912446658
 20
109.86102830858536
 11
114.5222653358199
 21
108.36102830858536
  0
LINE
  8
_0-8_
  6
CONTINUOUS
 62
    4
 10
111.92418912446658
 20
109.86102830858536
 11
113.42418912446658
 21
107.26295209723204
  0
LINE
  8
_0-8_
  6
CONTINUOUS
 62
    4
 10
107.73327970310709
 20
66.464837203540327
 11
135.71773938766884
 21
66.464837203540327
  0
LINE
  8
_0-8_
  6
CONTINUOUS
 62
    4
 10
139.36788630304645
 20
82.417331130005479
 11
168.70425225256287
 21
82.417331130005479
  0
CIRCLE
  8
_0-1_
  6
CONTINUOUS
 62
    7
 10
63.979084201456658
 20
217.60026629092295
 40
2.75
  0
CIRCLE
  8
_0-1_
  6
CONTINUOUS
 62
    7
 10
353.97908420145666
 20
217.60026629092295
 40
2.75
  0
CIRCLE
  8
_0-1_
  6
CONTINUOUS
 62
    7
 10
353.97908420145666
 20
110.10026629092292
 40
2.75
  0
CIRCLE
  8
_0-1_
  6
CONTINUOUS
 62
    7
 10
63.979084201456658
 20
110.10026629092292
 40
2.75
  0
TEXT
  8
_0-8_
 62
    4
 10
109.79246250871086
 20
67.893594311798864
 40
5
 41
1
 50
0
  1
4×Φ5.5
  0
TEXT
  8
_0-8_
 62
    4
 10
142.68202075064741
 20
84.042958238977306
 40
5
 41
1
 50
0
  1
8×Φ4.0
  0
ENDSEC
  0
EOF
