  0
SECTION
  2
HEADER
  9
$ACADVER
  1
AC1009
  9
$INSBASE
 10
0
 20
0
 30
0
  9
$EXTMIN
 10
0
 20
0
  9
$EXTMAX
 10
420
 20
297
  9
$LIMMIN
 10
0
 20
0
  9
$LIMMAX
 10
420
 20
297
  9
$LTSCALE
 40
1
  0
ENDSEC
  0
SECTION
  2
TABLES
  0
TABLE
  2
LTYPE
 70
     9
  0
LTYPE
  2
CONTINUOUS
 70
    64
  3
é¿ê¸
 72
    65
 73
     0
 40
0.0
  0
LTYPE
  2
DASHED1
 70
    64
  3
--  --  --  --  --  --  --  --  
 72
    65
 73
     2
 40
2.5
 49
1.25
 49
-1.25
  0
LTYPE
  2
DASHED2
 70
    64
  3
----    ----    ----    ----    
 72
    65
 73
     2
 40
5.0
 49
2.5
 49
-2.5
  0
LTYPE
  2
DASHED3
 70
    64
  3
------  ------  ------  ------  
 72
    65
 73
     2
 40
5.0
 49
3.75
 49
-1.25
  0
LTYPE
  2
CENTER1
 70
    64
  3
----- - ----- - ----- - ----- - 
 72
    65
 73
     4
 40
10.0
 49
6.25
 49
-1.25
 49
1.25
 49
-1.25
  0
LTYPE
  2
CENTER2
 70
    64
  3
----------  --  ----------  --  
 72
    65
 73
     4
 40
20.0
 49
12.5
 49
-2.5
 49
2.5
 49
-2.5
  0
LTYPE
  2
PHANTOM1
 70
    64
  3
--- - - --- - - --- - - --- - - 
 72
    65
 73
     6
 40
10.0
 49
3.25
 49
-1.25
 49
1.25
 49
-1.25
 49
1.25
 49
-1.25
  0
LTYPE
  2
PHANTOM2
 70
    64
  3
--------  -  -  --------  -  -  
 72
    65
 73
     6
 40
20.0
 49
10.0
 49
-2.5
 49
1.25
 49
-2.5
 49
1.25
 49
-2.5
  0
LTYPE
  2
DOT
 70
    64
  3
-   -   -   -   -   -   -   -   
 72
    65
 73
     2
 40
2.5
 49
0.625
 49
-1.875
  0
LTYPE
  2
DUMMY
 70
    64
  3
É_É~Å[
 72
    65
 73
     0
 40
0.0
  0
LTYPE
  2
RAND1
 70
    64
  3
ÉâÉìÉ_ÉÄê¸1
 72
    65
 73
     4
 40
10.0
 49
1.0
 49
-2.0
 49
3.0
 49
-4.0
  0
LTYPE
  2
RAND2
 70
    64
  3
ÉâÉìÉ_ÉÄê¸2
 72
    65
 73
     4
 40
14.0
 49
2.0
 49
-3.0
 49
4.0
 49
-5.0
  0
LTYPE
  2
RAND3
 70
    64
  3
ÉâÉìÉ_ÉÄê¸3
 72
    65
 73
     4
 40
18.0
 49
3.0
 49
-4.0
 49
5.0
 49
-6.0
  0
LTYPE
  2
RAND4
 70
    64
  3
ÉâÉìÉ_ÉÄê¸4
 72
    65
 73
     4
 40
22.0
 49
4.0
 49
-5.0
 49
6.0
 49
-7.0
  0
LTYPE
  2
RAND5
 70
    64
  3
ÉâÉìÉ_ÉÄê¸5
 72
    65
 73
     4
 40
26.0
 49
5.0
 49
-6.0
 49
7.0
 49
-8.0
  0
LTYPE
  2
LONG1
 70
    64
  3
----------  --  ----------  --  
 72
    65
 73
     4
 40
40.0
 49
32.5
 49
-2.5
 49
2.5
 49
-2.5
  0
LTYPE
  2
LONG2
 70
    64
  3
--------  -  -  --------  -  -  
 72
    65
 73
     6
 40
40.0
 49
30.0
 49
-2.5
 49
1.25
 49
-2.5
 49
1.25
 49
-2.5
  0
LTYPE
  2
LONG3
 70
    64
  3
+++++++++++++++..+++++++++++++++
 72
    65
 73
     2
 40
40.0
 49
37.5
 49
-2.5
  0
LTYPE
  2
LONG4
 70
    64
  3
+++++++++++++++..+++++++++++++++
 72
    65
 73
     2
 40
80.0
 49
75.0
 49
-5.0
  0
LTYPE
  2
LONG5
 70
    64
  3
----------  --  ----------  --  
 72
    65
 73
     4
 40
60.0
 49
37.5
 49
-7.5
 49
7.5
 49
-7.5
  0
LTYPE
  2
dashed
 70
   64
  3
-------   -------------   ------
 72
   65
 73
    2
 40
7.5
 49
6
 49
-1.5
  0
LTYPE
  2
dashed_spaced
 70
   64
  3
----        --------        ----
 72
   65
 73
    2
 40
12
 49
6
 49
-6
  0
LTYPE
  2
long_dashed_dotted
 70
   64
  3
------------- --- --------------
 72
   65
 73
    4
 40
15.25
 49
12
 49
-1.5
 49
0.25
 49
-1.5
  0
LTYPE
  2
long_dashed_double-dotted
 70
   64
  3
----------- --- --- ------------
 72
   65
 73
    6
 40
17
 49
12
 49
-1.5
 49
0.25
 49
-1.5
 49
0.25
 49
-1.5
  0
LTYPE
  2
long_dashed_triplicate-dotted
 70
   64
  3
--------- --- --- --- ----------
 72
   65
 73
    8
 40
18.75
 49
12
 49
-1.5
 49
0.25
 49
-1.5
 49
0.25
 49
-1.5
 49
0.25
 49
-1.5
  0
LTYPE
  2
dotted
 70
   64
  3
   -       -       -       -    
 72
   65
 73
    2
 40
1.75
 49
0.25
 49
-1.5
  0
LTYPE
  2
chain
 70
   64
  3
-------------- -- --------------
 72
   65
 73
    4
 40
18.5
 49
12
 49
-1.5
 49
3.5
 49
-1.5
  0
LTYPE
  2
chain_double_dash
 70
   64
  3
------------ -- -- -------------
 72
   65
 73
    6
 40
23.5
 49
12
 49
-1.5
 49
3.5
 49
-1.5
 49
3.5
 49
-1.5
  0
LTYPE
  2
dashed_dotted
 70
   64
  3
-----------     -     ----------
 72
   65
 73
    4
 40
9.25
 49
6
 49
-1.5
 49
0.25
 49
-1.5
  0
LTYPE
  2
double-dashed_dotted
 70
   64
  3
------   -----------   -   -----
 72
   65
 73
    6
 40
16.75
 49
6
 49
-1.5
 49
6
 49
-1.5
 49
0.25
 49
-1.5
  0
LTYPE
  2
dashed_double-dotted
 70
   64
  3
---------    -    -    ---------
 72
   65
 73
    6
 40
11
 49
6
 49
-1.5
 49
0.25
 49
-1.5
 49
0.25
 49
-1.5
  0
LTYPE
  2
double-dashed_double-dotted
 70
   64
  3
-----   ---------   -   -   ----
 72
   65
 73
    8
 40
18.5
 49
6
 49
-1.5
 49
6
 49
-1.5
 49
0.25
 49
-1.5
 49
0.25
 49
-1.5
  0
LTYPE
  2
dashed_triplicate-dotted
 70
   64
  3
-------    -    -    -    ------
 72
   65
 73
    8
 40
12.75
 49
6
 49
-1.5
 49
0.25
 49
-1.5
 49
0.25
 49
-1.5
 49
0.25
 49
-1.5
  0
LTYPE
  2
double-dashed_triplicate-dotted
 70
   64
  3
-----  ---------  -  -  -  -----
 72
   65
 73
   10
 40
20.25
 49
6
 49
-1.5
 49
6
 49
-1.5
 49
0.25
 49
-1.5
 49
0.25
 49
-1.5
 49
0.25
 49
-1.5
  0
LTYPE
  2
undefined
 70
   64
  3
--------------------------------
 72
   65
 73
    0
 40
0
  0
LTYPE
  2
_
 70
   64
  3
                                
 72
   65
 73
    0
 40
0
  0
LTYPE
  2
__18
 70
   64
  3
                                
 72
   65
 73
    0
 40
0
  0
LTYPE
  2
__19
 70
   64
  3
                                
 72
   65
 73
    0
 40
0
  0
LTYPE
  2
__20
 70
   64
  3
                                
 72
   65
 73
    0
 40
0
  0
LTYPE
  2
__21
 70
   64
  3
                                
 72
   65
 73
    0
 40
0
  0
LTYPE
  2
__22
 70
   64
  3
                                
 72
   65
 73
    0
 40
0
  0
LTYPE
  2
__23
 70
   64
  3
                                
 72
   65
 73
    0
 40
0
  0
LTYPE
  2
__24
 70
   64
  3
                                
 72
   65
 73
    0
 40
0
  0
LTYPE
  2
__25
 70
   64
  3
                                
 72
   65
 73
    0
 40
0
  0
LTYPE
  2
__26
 70
   64
  3
                                
 72
   65
 73
    0
 40
0
  0
LTYPE
  2
__27
 70
   64
  3
                                
 72
   65
 73
    0
 40
0
  0
LTYPE
  2
__28
 70
   64
  3
                                
 72
   65
 73
    0
 40
0
  0
LTYPE
  2
__29
 70
   64
  3
                                
 72
   65
 73
    0
 40
0
  0
LTYPE
  2
__30
 70
   64
  3
                                
 72
   65
 73
    0
 40
0
  0
LTYPE
  2
__31
 70
   64
  3
                                
 72
   65
 73
    0
 40
0
  0
LTYPE
  2
__32
 70
   64
  3
                                
 72
   65
 73
    0
 40
0
  0
ENDTAB
  0
TABLE
  2
STYLE
  5
3
100
AcDbSymbolTable
 70
     1
  0
STYLE
  5
10
100
AcDbSymbolTableRecord
100
AcDbTextStyleTableRecord
  2
STANDARD
 70
     0
 40
0.0
 41
1.0
 50
0.0
 71
     0
 42
0.2
  3
txt
  4
bigfont.shx
  0
STYLE
  5
26
100
AcDbSymbolTableRecord
100
AcDbTextStyleTableRecord
  2
TATEGAKI
 70
    68
 40
0.0
 41
1.0
 50
0.0
 71
     0
 42
1.0
  3
txt
  4
bigfont.shx
  0
ENDTAB
  0
TABLE
  2
LAYER
 70
    6
  0
LAYER
  2
_0-0_
 70
   64
 62
    7
  6
CONTINUOUS
  0
LAYER
  2
_0-1_ADD_LINE
 70
   64
 62
    7
  6
CONTINUOUS
  0
LAYER
  2
_0-3_
 70
   64
 62
    7
  6
CONTINUOUS
  0
LAYER
  2
_0-8_
 70
   64
 62
    7
  6
CONTINUOUS
  0
LAYER
  2
_0-9_
 70
   64
 62
    7
  6
CONTINUOUS
  0
LAYER
  2
ADD_LINE
 70
   64
 62
    7
  6
CONTINUOUS
  0
ENDTAB
  0
ENDSEC
  0
SECTION
  2
BLOCKS
  0
ENDSEC
  0
SECTION
  2
ENTITIES
  0
LINE
  8
_0-9_
  6
CONTINUOUS
 62
    4
 10
227.00045636474101
 20
85.150493007160577
 11
198.07938236474092
 21
85.150493007160577
  0
LINE
  8
_0-9_
  6
CONTINUOUS
 62
    4
 10
294.14764556474097
 20
80.875203807160545
 11
236.30549756474096
 21
80.875203807160545
  0
LINE
  8
_0-9_
  6
CONTINUOUS
 62
    4
 10
254.66409236474095
 20
85.904955807160547
 11
292.63871996474103
 21
85.904955807160547
  0
LINE
  8
_0-9_
  6
CONTINUOUS
 62
    4
 10
253.15516676474095
 20
75.342476607160506
 11
253.15516676474101
 21
90.934707807160549
  0
LINE
  8
_0-9_
  6
CONTINUOUS
 62
    4
 10
198.07938236474092
 20
96.970410207160569
 11
294.14764556474097
 21
96.970410207160569
  0
LINE
  8
_0-9_
  6
CONTINUOUS
 62
    4
 10
198.07938236474092
 20
90.934707807160549
 11
294.14764556474108
 21
90.934707807160521
  0
LINE
  8
_0-9_
  6
CONTINUOUS
 62
    4
 10
219.70731596474093
 20
96.970410207160569
 11
219.70731596474093
 21
90.934707807160578
  0
LINE
  8
_0-9_
  6
CONTINUOUS
 62
    4
 10
236.30549756474096
 20
96.97041020716054
 11
236.30549756474096
 21
75.342476607160449
  0
LINE
  8
_0-9_
  6
CONTINUOUS
 62
    4
 10
282.57921596474091
 20
96.970410207160569
 11
282.57921596474091
 21
90.934707807160578
  0
LINE
  8
_0-9_
  6
CONTINUOUS
 62
    4
 10
271.01078636474108
 20
90.934707807160549
 11
271.01078636474108
 21
96.970410207160569
  0
LINE
  8
_0-9_
  6
CONTINUOUS
 62
    4
 10
252.14921636474094
 20
85.904955807160547
 11
237.31144796474092
 21
85.904955807160547
  0
LINE
  8
_0-9_
  6
CONTINUOUS
 62
    4
 10
227.0004563647409
 20
75.342476607160506
 11
227.00045636474107
 21
90.934707807160549
  0
LINE
  8
_0-9_
  6
CONTINUOUS
 62
    4
 10
236.30549756474096
 20
82.132641807160553
 11
227.00045636474101
 21
82.132641807160553
  0
LINE
  8
_0-9_
  6
CONTINUOUS
 62
    4
 10
227.00045636474101
 20
82.132641807160553
 11
198.07938236474092
 21
82.132641807160581
  0
LINE
  8
_0-9_
  6
CONTINUOUS
 62
    4
 10
198.07938236474092
 20
96.970410207160569
 11
198.07938236474092
 21
75.342476607160506
  0
LINE
  8
_0-9_
  6
CONTINUOUS
 62
    3
 10
294.14764556474097
 20
75.342476607160506
 11
294.14764556474108
 21
214.16363180716058
  0
LINE
  8
_0-9_
  6
CONTINUOUS
 62
    3
 10
92.957565564740833
 20
75.342476607160563
 11
294.14764556474097
 21
75.342476607160506
  0
LINE
  8
_0-9_
  6
CONTINUOUS
 62
    3
 10
92.957565564740833
 20
214.16363180716058
 11
92.957565564740833
 21
75.342476607160563
  0
LINE
  8
_0-9_
  6
CONTINUOUS
 62
    3
 10
294.14764556474108
 20
214.16363180716058
 11
92.957565564740833
 21
214.16363180716058
  0
LINE
  8
_0-9_
  6
CONTINUOUS
 62
    4
 10
212.53991936474091
 20
90.934707807160549
 11
212.53991936474091
 21
85.150493007160577
  0
TEXT
  8
_0-9_
 62
    7
 10
272.57097735428886
 20
95.221922787908909
 40
1.5476160230612805
 41
1.0422794146408463
 50
0
  1
Quantity
  0
TEXT
  8
_0-9_
 62
    7
 10
198.62001358516477
 20
95.049922032152153
 40
1.5476160230612805
 41
1.0422794146408467
 50
0
  1
Model
  0
TEXT
  8
_0-9_
 62
    7
 10
221.10286279614553
 20
95.049922032152153
 40
1.5476160230612805
 41
1.0422794146408458
 50
0
  1
Material
  0
TEXT
  8
_0-9_
 62
    7
 10
279.139381462453
 20
92.137336329702265
 40
1.8377939769387197
 41
1.1789474007825778
 50
0
  1
1
  0
TEXT
  8
_0-9_
 62
    7
 10
227.69670477128096
 20
89.185459080956463
 40
1.5476160230612805
 41
1.0738636393269338
 50
0
  1
Scale
  0
TEXT
  8
_0-9_
 62
    7
 10
236.74928833336875
 20
89.123825018062234
 40
1.5476160230612805
 41
1.0029481159751541
 50
0
  1
Machining tolerance
  0
TEXT
  8
_0-9_
 62
    7
 10
255.11659779295144
 20
88.846582611125115
 40
1.7410679538774545
 41
1.0144927804980652
 50
0
  1
Equipment
  0
TEXT
  8
_0-9_
 62
    7
 10
240.80686612242488
 20
86.935511722717166
 40
1.5476160230612805
 41
1.0010593247962936
 50
0
  1
JIS B 0405
  0
TEXT
  8
_0-9_
 62
    7
 10
236.73781514986172
 20
84.087176041922959
 40
1.5476160230612805
 41
1.0738636393269323
 50
0
  1
Grade
  0
TEXT
  8
_0-9_
 62
    7
 10
210.27263847087596
 20
82.816560260243278
 40
1.4508900000000011
 41
1.1030302625713944
 50
0
  1
Author
  0
TEXT
  8
_0-9_
 62
    7
 10
270.97397346319389
 20
82.265945102086761
 40
1.8377939769387268
 41
1.1789474007825784
 50
0
  1
Main
  0
TEXT
  8
_0-9_
 62
    7
 10
228.01615251485021
 20
80.182757394340854
 40
1.5476160230612663
 41
1.0738636393269418
 50
0
  1
Unit
  0
TEXT
  8
_0-9_
 62
    7
 10
203.85627889286411
 20
78.957887762364834
 40
1.4508900000000011
 41
1.1030302625713917
 50
0
  1
Hirotaka Shiojima
  0
TEXT
  8
_0-9_
 62
    7
 10
236.95722013857159
 20
78.935166563123914
 40
1.5476160230612734
 41
1.0422794146408507
 50
0
  1
Projection method
  0
TEXT
  8
_0-9_
 62
    7
 10
230.79651220110463
 20
77.313703080991473
 40
1.7410679538774474
 41
1.0606060887025277
 50
0
  1
mm
  0
TEXT
  8
_0-9_
 62
    7
 10
247.76967400911838
 20
76.232053095487203
 40
1.7410679538774474
 41
1.060606088702527
 50
0
  1
Ç`ÇR
  0
TEXT
  8
_0-9_
 62
    7
 10
236.99130313419931
 20
95.049922032152153
 40
1.5476160230612805
 41
1.0422794146408458
 50
0
  1
Treatment
  0
LINE
  8
_0-9_
  6
CONTINUOUS
 62
    4
 10
257.24940310658189
 20
90.934707807160549
 11
257.24940310658184
 21
96.970410207160569
  0
TEXT
  8
_0-9_
 62
    7
 10
239.44138277617054
 20
92.076897927791777
 40
1.8377939769387268
 41
1.1789474007825773
 50
0
  1
Black anodized
  0
TEXT
  8
_0-9_
 62
    7
 10
218.59002102772502
 20
86.206667022882499
 40
1.2250000000000014
 41
0.9999999999999992
 50
0
  1
---
  0
TEXT
  8
_0-9_
 62
    7
 10
213.71410239676214
 20
88.816313614102057
 40
1.5476160230612805
 41
1.0422794146408449
 50
0
  1
Surface
  0
TEXT
  8
_0-9_
 62
    7
 10
198.67429704210207
 20
88.884988524397301
 40
1.5476160230612805
 41
1.0183189683272653
 50
0
  1
Date
  0
TEXT
  8
_0-9_
 62
    7
 10
240.08716402162781
 20
81.862660878698392
 40
1.5476160230612805
 41
1.0183189683272631
 50
0
  1
ÇçÅimidiumÅj
  0
TEXT
  8
_0-9_
 62
    7
 10
254.14624936867165
 20
78.796545359655369
 40
1.7410679538774545
 41
1.0294117919759793
 50
0
  1
Drawing number
  0
TEXT
  8
_0-9_
 62
    7
 10
227.06077559584787
 20
92.036735149868235
 40
1.8377939769387268
 41
1.0251716528544128
 50
0
  1
A5052
  0
TEXT
  8
_0-9_
 62
    7
 10
258.67560110979912
 20
95.019306771368548
 40
1.5476160230612805
 41
1.0271739158779347
 50
0
  1
Thickness
  0
TEXT
  8
_0-9_
 62
    7
 10
258.37160282065594
 20
76.355979194052935
 40
1.4699999999999989
 41
1.0000000000000011
 50
0
  1
FLC_limit mount_2016.09.07
  0
TEXT
  8
_0-9_
 62
    7
 10
200.25186079415454
 20
92.017044055292558
 40
1.4699999999999989
 41
1.0000000000000007
 50
0
  1
FLC_limit mount
  0
TEXT
  8
_0-9_
 62
    7
 10
202.32950756446644
 20
86.401480684618889
 40
1.5476160230612805
 41
0.9658018369754795
 50
0
  1
07/Sep/2016
  0
TEXT
  8
_0-9_
 62
    7
 10
210.57759166015526
 20
76.721342114068989
 40
1.4508900000000082
 41
1.1030302625713864
 50
0
  1
SmartDIYs Co.,Ltd.
  0
TEXT
  8
_0-9_
 62
    7
 10
266.01014648594969
 20
86.862081192127675
 40
1.934519999999992
 41
1.0069231051665142
 50
0
  1
Fabool Laser CO2
  0
TEXT
  8
_0-9_
 62
    7
 10
264.12457618259185
 20
92.064875274099876
 40
1.8377939769387268
 41
1.1789474007825773
 50
0
  1
2mm
  0
LINE
  8
_0-1_ADD_LINE
  6
DASHED1
 62
    4
 10
187.58642882499288
 20
135.58604017271585
 11
187.58642882499288
 21
130.26523812158689
  0
LINE
  8
_0-8_
  6
CONTINUOUS
 62
    4
 10
172.33642882499288
 20
177.31499299647538
 11
212.33642882499288
 21
177.31499299647538
  0
POINT
  8
_0-8_
 62
    4
 10
172.33642882499288
 20
177.31499299647538
  0
POINT
  8
_0-8_
 62
    4
 10
212.33642882499288
 20
177.31499299647538
  0
LINE
  8
_0-8_
  6
CONTINUOUS
 62
    4
 10
172.33642882499288
 20
177.31499299647538
 11
172.33642882499288
 21
170.70927213136912
  0
LINE
  8
_0-8_
  6
CONTINUOUS
 62
    4
 10
212.33642882499288
 20
177.31499299647538
 11
212.33642882499288
 21
170.70927213136912
  0
TEXT
  8
_0-8_
 62
    7
 10
191.08642882499288
 20
177.81499299647538
 40
2.5
 41
1
 50
0
  1
40
  0
LINE
  8
_0-8_
  6
CONTINUOUS
 62
    4
 10
187.58642882499288
 20
172.94069155658721
 11
197.08642882499288
 21
172.94069155658721
  0
POINT
  8
_0-8_
 62
    4
 10
187.58642882499288
 20
172.94069155658721
  0
POINT
  8
_0-8_
 62
    4
 10
197.08642882499288
 20
172.94069155658721
  0
LINE
  8
_0-1_ADD_LINE
  6
DASHED1
 62
    4
 10
190.79374873056281
 20
132.80860367552083
 11
193.93630533379002
 21
132.80860367552083
  0
LINE
  8
_0-1_ADD_LINE
  6
DASHED1
 62
    4
 10
192.33642882499288
 20
134.80734315988815
 11
192.33642882499288
 21
130.88908618684835
  0
LINE
  8
_0-1_ADD_LINE
  6
DASHED1
 62
    4
 10
197.08642882499288
 20
135.58604017271585
 11
197.08642882499288
 21
130.26523812158689
  0
TEXT
  8
_0-8_
 62
    7
 10
186.71142882499288
 20
173.44069155658721
 40
2.5
 41
1
 50
0
  1
9.5 Å}0.1
  0
LINE
  8
_0-1_ADD_LINE
  6
DASHED1
 62
    4
 10
190.51113021295185
 20
159.60534734474601
 11
193.6874898139971
 21
159.60534734474601
  0
LINE
  8
_0-1_ADD_LINE
  6
DASHED1
 62
    4
 10
192.33642882499288
 20
173.44904676412955
 11
192.33642882499288
 21
154.58745420481591
  0
LINE
  8
_0-3_
  6
CONTINUOUS
 62
    7
 10
195.08642922499288
 20
158.60534734474601
 11
189.58642922499286
 21
158.60534734474601
  0
LINE
  8
_0-3_
  6
DASHED1
 62
    4
 10
185.08642922499286
 20
161.10534734474601
 11
190.10088312499289
 21
161.10534734474601
  0
LINE
  8
_0-3_
  6
DASHED1
 62
    4
 10
187.58642922499286
 20
163.60534734474601
 11
187.58642922499286
 21
158.60534734474601
  0
LINE
  8
_0-3_
  6
DASHED1
 62
    4
 10
197.08642922499288
 20
163.60534734474601
 11
197.08642922499288
 21
158.60534734474601
  0
LINE
  8
_0-3_
  6
DASHED1
 62
    4
 10
194.73005542499288
 20
161.10534734474601
 11
199.27445662499289
 21
161.10534734474601
  0
LINE
  8
_0-3_
  6
CONTINUOUS
 62
    7
 10
184.31778222499287
 20
168.36635994474602
 11
184.37182122499286
 21
167.60981624474601
  0
LINE
  8
_0-3_
  6
CONTINUOUS
 62
    7
 10
184.7777182249929
 20
167.59802784474601
 11
184.92782222499289
 21
168.29851934474601
  0
LINE
  8
_0-3_
  6
CONTINUOUS
 62
    7
 10
184.41259322499286
 20
168.42041654474602
 11
184.4593642249929
 21
167.59748094474602
  0
LINE
  8
_0-3_
  6
CONTINUOUS
 62
    7
 10
184.7121112249929
 20
168.43743864474601
 11
184.75888222499287
 21
167.61450314474601
  0
LINE
  8
_0-3_
  6
CONTINUOUS
 62
    7
 10
184.45936922499288
 20
167.59748284474603
 11
184.75888522499287
 21
167.61450544474602
  0
LINE
  8
_0-3_
  6
CONTINUOUS
 62
    3
 10
202.27332412499291
 20
177.04277534474602
 11
202.38675602499288
 21
176.688719344746
  0
LINE
  8
_0-3_
  6
CONTINUOUS
 62
    7
 10
184.4139732249929
 20
168.39619604474601
 11
184.71349022499288
 21
168.41321864474602
  0
LINE
  8
_0-3_
  6
CONTINUOUS
 62
    7
 10
184.4423432249929
 20
167.89700054474602
 11
184.74185922499288
 21
167.91402314474601
  0
LINE
  8
_0-3_
  6
CONTINUOUS
 62
    7
 10
199.62452472499288
 20
170.36244174474601
 11
199.64154752499289
 21
170.06292504474601
  0
LINE
  8
_0-3_
  6
CONTINUOUS
 62
    7
 10
200.28933292499289
 20
173.703210344746
 11
200.4936052249929
 21
170.10901044474602
  0
LINE
  8
_0-3_
  6
CONTINUOUS
 62
    7
 10
203.88353312499291
 20
173.907483344746
 11
204.08780542499289
 21
170.31328364474601
  0
LINE
  8
_0-3_
  6
CONTINUOUS
 62
    7
 10
185.15026822499289
 20
169.539816544746
 11
200.47644912499288
 21
170.410862644746
  0
LINE
  8
_0-3_
  6
CONTINUOUS
 62
    7
 10
185.16729022499288
 20
169.240300844746
 11
204.08767042499289
 21
170.31561914474602
  0
LINE
  8
_0-3_
  6
CONTINUOUS
 62
    7
 10
192.03642902499286
 20
168.10534734474601
 11
201.33642922499288
 21
168.10534734474601
  0
LINE
  8
_0-3_
  6
CONTINUOUS
 62
    7
 10
183.33642922499286
 20
168.80534714474601
 11
191.33642922499286
 21
168.80534714474601
  0
LINE
  8
_0-3_
  6
CONTINUOUS
 62
    7
 10
192.03642952499285
 20
168.10534594474601
 11
191.33642872499286
 21
168.805346244746
  0
ARC
  8
_0-3_
  6
CONTINUOUS
 62
    7
 10
189.58642922499286
 20
168.59000174474602
 40
0.9000000399999995
 50
13.843615
 51
166.1563699999999
  0
CIRCLE
  8
_0-3_
  6
CONTINUOUS
 62
    7
 10
184.58642922499286
 20
168.00534694474601
 40
0.4499999900000001
  0
ARC
  8
_0-3_
  6
CONTINUOUS
 62
    7
 10
185.19566222499287
 20
168.74110194474602
 40
0.5
 50
93.252791000000016
 51
172.61768000000001
  0
ARC
  8
_0-3_
  6
CONTINUOUS
 62
    7
 10
185.19566222499287
 20
168.74110194474602
 40
0.8000000099999996
 50
93.252845999999991
 51
175.3938499999999
  0
ARC
  8
_0-3_
  6
CONTINUOUS
 62
    7
 10
202.08642922499288
 20
173.80534834474602
 40
1.7999991999999989
 50
3.2528430000000004
 51
183.2527699999998
  0
CIRCLE
  8
_0-3_
  6
CONTINUOUS
 62
    7
 10
202.08642922499288
 20
173.80534834474602
 40
1.5
  0
CIRCLE
  8
_0-3_
  6
CONTINUOUS
 62
    7
 10
202.08642922499288
 20
173.80534834474602
 40
1.2999992
  0
ARC
  8
_0-3_
  6
CONTINUOUS
 62
    7
 10
202.08642922499288
 20
173.80534834474602
 40
2.1999998000000001
 50
328.15612999999991
 51
218.34956
  0
ARC
  8
_0-3_
  6
CONTINUOUS
 62
    7
 10
202.08642922499288
 20
173.80534834474602
 40
2.3999996000000001
 50
321.84328999999991
 51
224.66240999999999
  0
ARC
  8
_0-3_
  6
CONTINUOUS
 62
    7
 10
201.33642922499288
 20
167.30534714474601
 40
0.8000000099999996
 50
0
 51
89.99998199999996
  0
ARC
  8
_0-3_
  6
CONTINUOUS
 62
    7
 10
183.33642922499286
 20
168.00534694474601
 40
0.8000000099999996
 50
89.99998199999996
 51
179.99995999999993
  0
LINE
  8
_0-3_
  6
DASHED1
 62
    3
 10
186.92267522499287
 20
170.01391384474601
 11
198.83362192499288
 21
173.82991134474602
  0
LINE
  8
_0-3_
  6
DASHED1
 62
    3
 10
186.47468022499288
 20
170.18540644474601
 11
199.36676372499289
 21
174.315737344746
  0
LINE
  8
_0-3_
  6
DASHED1
 62
    3
 10
198.84497882499289
 20
175.94439834474602
 11
199.36676582499288
 21
174.315735344746
  0
ARC
  8
_0-3_
  6
DASHED1
 62
    3
 10
200.0748115249929
 20
178.00534134474603
 40
2.3999996000000001
 50
336.35482999999994
 51
239.17404999999991
  0
LINE
  8
_0-3_
  6
DASHED1
 62
    4
 10
184.58642922499286
 20
169.00534694474601
 11
184.58642922499286
 21
167.00534694474601
  0
LINE
  8
_0-3_
  6
DASHED1
 62
    4
 10
183.58642922499286
 20
168.00534694474601
 11
185.58642922499286
 21
168.00534694474601
  0
LINE
  8
_0-3_
  6
DASHED1
 62
    4
 10
189.58642922499286
 20
170.43451284474602
 11
189.58642922499286
 21
167.88126444474602
  0
LINE
  8
_0-3_
  6
DASHED1
 62
    4
 10
184.2864302249929
 20
159.30923334474602
 11
184.2864302249929
 21
153.41129944474602
  0
LINE
  8
_0-3_
  6
DASHED1
 62
    4
 10
193.08643022499285
 20
159.27835434474602
 11
193.08643022499285
 21
153.41129944474602
  0
LINE
  8
_0-3_
  6
DASHED1
 62
    4
 10
200.38643032499289
 20
159.27835434474602
 11
200.38643032499289
 21
153.41129944474602
  0
LINE
  8
_0-3_
  6
DASHED1
 62
    4
 10
199.08642922499288
 20
173.80534834474602
 11
205.08642922499288
 21
173.80534834474602
  0
LINE
  8
_0-3_
  6
DASHED1
 62
    4
 10
202.08642922499288
 20
176.80534834474602
 11
202.08642922499288
 21
170.80534814474601
  0
LINE
  8
_0-3_
  6
CONTINUOUS
 62
    7
 10
182.5364292249929
 20
168.00534694474601
 11
182.5364292249929
 21
158.60534734474601
  0
LINE
  8
_0-3_
  6
CONTINUOUS
 62
    7
 10
202.13642842499289
 20
167.30534714474601
 11
202.13642842499289
 21
158.60534734474601
  0
LINE
  8
_0-3_
  6
CONTINUOUS
 62
    7
 10
200.08643032499288
 20
158.20534774474601
 11
200.08643032499288
 21
158.29625329513507
  0
LINE
  8
_0-3_
  6
CONTINUOUS
 62
    7
 10
200.68643032499287
 20
158.20534774474601
 11
200.68643032499287
 21
158.29625329513507
  0
LINE
  8
_0-3_
  6
CONTINUOUS
 62
    7
 10
183.98643022499289
 20
154.60534734474601
 11
184.58643022499285
 21
154.60534734474601
  0
LINE
  8
_0-3_
  6
CONTINUOUS
 62
    7
 10
192.78643022499284
 20
154.60534734474601
 11
193.38643022499286
 21
154.60534734474601
  0
LINE
  8
_0-3_
  6
CONTINUOUS
 62
    7
 10
200.08643032499288
 20
154.60534734474601
 11
200.68643032499287
 21
154.60534734474601
  0
LINE
  8
_0-3_
  6
CONTINUOUS
 62
    7
 10
183.98643022499289
 20
158.60534734474601
 11
183.98643022499289
 21
154.60534734474601
  0
LINE
  8
_0-3_
  6
CONTINUOUS
 62
    7
 10
200.68643032499287
 20
158.60534734474601
 11
200.68643032499287
 21
154.60534734474601
  0
LINE
  8
_0-3_
  6
CONTINUOUS
 62
    7
 10
192.78643022499284
 20
158.60534734474601
 11
192.78643022499284
 21
154.60534734474601
  0
LINE
  8
_0-3_
  6
CONTINUOUS
 62
    7
 10
184.58643022499285
 20
158.60534734474601
 11
184.58643022499285
 21
154.60534734474601
  0
LINE
  8
_0-3_
  6
CONTINUOUS
 62
    7
 10
193.38643022499286
 20
158.60534734474601
 11
193.38643022499286
 21
154.60534734474601
  0
LINE
  8
_0-3_
  6
CONTINUOUS
 62
    7
 10
200.08643032499288
 20
158.60534734474601
 11
200.08643032499288
 21
154.60534734474601
  0
LINE
  8
_0-3_
  6
CONTINUOUS
 62
    7
 10
186.08642922499286
 20
158.10534734474601
 11
185.58642922499286
 21
158.60534734474601
  0
LINE
  8
_0-3_
  6
CONTINUOUS
 62
    7
 10
189.08642922499286
 20
158.10534734474601
 11
189.58642922499286
 21
158.60534734474601
  0
LINE
  8
_0-3_
  6
CONTINUOUS
 62
    7
 10
185.58642922499286
 20
158.60534734474601
 11
182.5364292249929
 21
158.60534734474601
  0
LINE
  8
_0-3_
  6
CONTINUOUS
 62
    7
 10
186.08642922499286
 20
158.10534734474601
 11
189.08642922499286
 21
158.10534734474601
  0
LINE
  8
_0-3_
  6
CONTINUOUS
 62
    7
 10
195.58642922499288
 20
158.10534734474601
 11
195.08642922499288
 21
158.60534734474601
  0
LINE
  8
_0-3_
  6
CONTINUOUS
 62
    7
 10
195.58642922499288
 20
158.10534734474601
 11
198.58642922499288
 21
158.10534734474601
  0
LINE
  8
_0-3_
  6
CONTINUOUS
 62
    7
 10
198.58642922499288
 20
158.10534734474601
 11
199.08642922499288
 21
158.60534734474601
  0
LINE
  8
_0-3_
  6
CONTINUOUS
 62
    7
 10
202.13642842499289
 20
158.60534734474601
 11
199.08642922499288
 21
158.60534734474601
  0
CIRCLE
  8
_0-3_
  6
CONTINUOUS
 62
    7
 10
197.08642922499288
 20
161.10534734474601
 40
1.2
  0
CIRCLE
  8
_0-3_
  6
CONTINUOUS
 62
    7
 10
187.58642922499286
 20
161.10534734474601
 40
1.2
  0
LINE
  8
_0-1_ADD_LINE
  6
DASHED1
 62
    4
 10
192.33642882499288
 20
169.58261324694436
 11
192.33642882499288
 21
153.55151996213138
  0
LINE
  8
_0-1_ADD_LINE
  6
DASHED1
 62
    4
 10
177.1367253156389
 20
148.10534734474601
 11
187.14295799975628
 21
148.10534734474601
  0
LINE
  8
_0-1_ADD_LINE
  6
DASHED1
 62
    4
 10
197.2458692605318
 20
148.10534734474601
 11
207.20376265632012
 21
148.10534734474601
  0
CIRCLE
  8
_0-0_
  6
CONTINUOUS
 62
    7
 10
182.33642882499288
 20
148.10534734474601
 40
2.6000000000000001
  0
CIRCLE
  8
_0-0_
  6
CONTINUOUS
 62
    7
 10
202.33642882499288
 20
148.10534734474601
 40
2.6000000000000001
  0
CIRCLE
  8
_0-0_
  6
CONTINUOUS
 62
    7
 10
187.58642882499288
 20
161.10534734474601
 40
0.7500000000000001
  0
CIRCLE
  8
_0-0_
  6
CONTINUOUS
 62
    4
 10
187.58642882499288
 20
161.10534734474601
 40
1
  0
CIRCLE
  8
_0-0_
  6
CONTINUOUS
 62
    4
 10
197.08642882499288
 20
161.10534734474601
 40
1
  0
CIRCLE
  8
_0-0_
  6
CONTINUOUS
 62
    7
 10
197.08642882499288
 20
161.10534734474601
 40
0.7500000000000001
  0
LINE
  8
_0-0_
  6
CONTINUOUS
 62
    7
 10
172.33642882499288
 20
134.30860367552083
 11
212.33642882499288
 21
134.30860367552083
  0
LINE
  8
_0-0_
  6
CONTINUOUS
 62
    7
 10
172.33642882499288
 20
132.30860367552083
 11
212.33642882499288
 21
132.30860367552083
  0
LINE
  8
_0-0_
  6
DASHED1
 62
    7
 10
186.58642882499288
 20
134.30860367552083
 11
186.58642882499288
 21
132.30860367552083
  0
LINE
  8
_0-0_
  6
DASHED1
 62
    7
 10
188.58642882499288
 20
134.30860367552083
 11
188.58642882499288
 21
132.30860367552083
  0
LINE
  8
_0-0_
  6
DASHED1
 62
    7
 10
196.08642882499288
 20
134.30860367552083
 11
196.08642882499288
 21
132.30860367552083
  0
LINE
  8
_0-0_
  6
DASHED1
 62
    7
 10
198.08642882499288
 20
134.30860367552083
 11
198.08642882499288
 21
132.30860367552083
  0
LINE
  8
_0-0_
  6
DASHED1
 62
    4
 10
186.08642882499288
 20
134.30860367552083
 11
186.08642882499288
 21
132.30860367552083
  0
LINE
  8
_0-0_
  6
DASHED1
 62
    4
 10
189.08642882499288
 20
134.30860367552083
 11
189.08642882499288
 21
132.30860367552083
  0
LINE
  8
_0-0_
  6
DASHED1
 62
    4
 10
195.58642882499288
 20
134.30860367552083
 11
195.58642882499288
 21
132.30860367552083
  0
LINE
  8
_0-0_
  6
DASHED1
 62
    4
 10
198.58642882499288
 20
134.30860367552083
 11
198.58642882499288
 21
132.30860367552083
  0
LINE
  8
_0-0_
  6
CONTINUOUS
 62
    7
 10
172.33642882499288
 20
134.30860367552083
 11
172.33642882499288
 21
132.30860367552083
  0
LINE
  8
_0-0_
  6
CONTINUOUS
 62
    7
 10
212.33642882499288
 20
134.30860367552083
 11
212.33642882499288
 21
132.30860367552083
  0
LINE
  8
_0-0_
  6
DASHED1
 62
    7
 10
179.73642882499288
 20
134.30860367552083
 11
179.73642882499288
 21
132.30860367552083
  0
LINE
  8
_0-0_
  6
DASHED1
 62
    7
 10
184.93642882499287
 20
134.30860367552083
 11
184.93642882499287
 21
132.30860367552083
  0
LINE
  8
_0-0_
  6
DASHED1
 62
    7
 10
199.73642882499288
 20
134.30860367552083
 11
199.73642882499288
 21
132.30860367552083
  0
LINE
  8
_0-0_
  6
DASHED1
 62
    7
 10
204.93642882499287
 20
134.30860367552083
 11
204.93642882499287
 21
132.30860367552083
  0
ARC
  8
_0-0_
  6
CONTINUOUS
 62
    7
 10
175.33642882499288
 20
165.10534734474601
 40
3
 50
90
 51
180
  0
LINE
  8
_0-0_
  6
CONTINUOUS
 62
    7
 10
209.33642882499288
 20
168.10534734474601
 11
175.33642882499288
 21
168.10534734474601
  0
ARC
  8
_0-0_
  6
CONTINUOUS
 62
    7
 10
209.33642882499288
 20
165.10534734474601
 40
3
 50
0
 51
90
  0
LINE
  8
_0-0_
  6
CONTINUOUS
 62
    7
 10
212.33642882499288
 20
143.10534734474601
 11
212.33642882499288
 21
165.10534734474601
  0
ARC
  8
_0-0_
  6
CONTINUOUS
 62
    7
 10
209.33642882499288
 20
143.10534734474601
 40
3
 50
270
 51
0
  0
LINE
  8
_0-0_
  6
CONTINUOUS
 62
    7
 10
175.33642882499288
 20
140.10534734474601
 11
209.33642882499288
 21
140.10534734474601
  0
LINE
  8
_0-0_
  6
CONTINUOUS
 62
    7
 10
172.33642882499288
 20
143.10534734474601
 11
172.33642882499288
 21
165.10534734474601
  0
ARC
  8
_0-0_
  6
CONTINUOUS
 62
    7
 10
175.33642882499288
 20
143.10534734474601
 40
3
 50
180
 51
270
  0
LINE
  8
_0-8_
  6
CONTINUOUS
 62
    4
 10
164.11598231214617
 20
134.30860367552083
 11
164.11598231214617
 21
132.30860367552083
  0
POINT
  8
_0-8_
 62
    4
 10
164.11598231214617
 20
134.30860367552083
  0
POINT
  8
_0-8_
 62
    4
 10
164.11598231214617
 20
132.30860367552083
  0
LINE
  8
_0-8_
  6
CONTINUOUS
 62
    4
 10
164.11598231214617
 20
134.30860367552083
 11
170.33126643662806
 21
134.30860367552083
  0
LINE
  8
_0-8_
  6
CONTINUOUS
 62
    4
 10
164.11598231214617
 20
132.30860367552083
 11
170.33126643662806
 21
132.30860367552083
  0
TEXT
  8
_0-8_
 62
    4
 10
163.61598231214617
 20
132.68360367552083
 40
2.5
 41
1
 50
90
  1
2
  0
LINE
  8
_0-8_
  6
CONTINUOUS
 62
    4
 10
157.57376629363603
 20
168.10534734474601
 11
157.57376629363603
 21
140.10534734474601
  0
POINT
  8
_0-8_
 62
    4
 10
157.57376629363603
 20
168.10534734474601
  0
POINT
  8
_0-8_
 62
    4
 10
157.57376629363603
 20
140.10534734474601
  0
LINE
  8
_0-8_
  6
CONTINUOUS
 62
    4
 10
157.57376629363603
 20
168.10534734474601
 11
169.88360534599917
 21
168.10534734474601
  0
LINE
  8
_0-8_
  6
CONTINUOUS
 62
    4
 10
157.57376629363603
 20
140.10534734474601
 11
169.88360534599917
 21
140.10534734474601
  0
TEXT
  8
_0-8_
 62
    4
 10
157.07376629363603
 20
152.85534734474601
 40
2.5
 41
1
 50
90
  1
28
  0
LINE
  8
_0-1_ADD_LINE
  6
DASHED1
 62
    4
 10
187.58642882499288
 20
161.10534734474601
 11
190.05841509197268
 21
161.10534734474601
  0
LINE
  8
_0-1_ADD_LINE
  6
DASHED1
 62
    4
 10
187.58642882499288
 20
161.10534734474601
 11
187.58642882499288
 21
163.60534734474601
  0
LINE
  8
_0-1_ADD_LINE
  6
DASHED1
 62
    4
 10
187.58642882499288
 20
161.10534734474601
 11
185.08642922499286
 21
161.10534734474601
  0
LINE
  8
_0-1_ADD_LINE
  6
DASHED1
 62
    4
 10
187.58642882499288
 20
161.10534734474601
 11
187.58642882499288
 21
158.03261673325318
  0
LINE
  8
_0-1_ADD_LINE
  6
DASHED1
 62
    4
 10
197.08642882499288
 20
158.03261673325318
 11
197.08642882499288
 21
163.60534734474601
  0
LINE
  8
_0-1_ADD_LINE
  6
DASHED1
 62
    4
 10
194.73005542499288
 20
161.10534734474601
 11
199.27445662499289
 21
161.10534734474601
  0
LINE
  8
_0-8_
  6
CONTINUOUS
 62
    4
 10
164.05430778342486
 20
168.10534734474601
 11
164.05430778342486
 21
161.10534734474601
  0
POINT
  8
_0-8_
 62
    4
 10
164.05430778342486
 20
168.10534734474601
  0
POINT
  8
_0-8_
 62
    4
 10
164.05430778342486
 20
161.10534734474601
  0
LINE
  8
_0-8_
  6
CONTINUOUS
 62
    4
 10
164.05430778342486
 20
168.10534734474601
 11
169.88360534599917
 21
168.10534734474601
  0
TEXT
  8
_0-8_
 62
    4
 10
163.55430778342486
 20
162.73034734474601
 40
2.5
 41
1
 50
90
  1
7.0
  0
LINE
  8
_0-8_
  6
CONTINUOUS
 62
    4
 10
187.58642882499288
 20
167.63651482713627
 11
187.58642882499288
 21
164.7443693299476
  0
LINE
  8
_0-8_
  6
CONTINUOUS
 62
    4
 10
187.58642882499288
 20
172.94069155658721
 11
187.58642882499288
 21
169.04788182976435
  0
LINE
  8
_0-8_
  6
CONTINUOUS
 62
    4
 10
197.08642882499288
 20
167.63651482713627
 11
197.08642882499288
 21
164.7443693299476
  0
LINE
  8
_0-8_
  6
CONTINUOUS
 62
    4
 10
197.08642882499288
 20
172.94069155658721
 11
197.08642882499288
 21
169.04788182976435
  0
LINE
  8
_0-1_ADD_LINE
  6
DASHED1
 62
    4
 10
182.33642882499288
 20
153.07467074871244
 11
182.33642882499288
 21
129.02779681137346
  0
LINE
  8
_0-1_ADD_LINE
  6
DASHED1
 62
    4
 10
202.33642882499288
 20
153.07467074871244
 11
202.33642882499288
 21
129.02779681137346
  0
LINE
  8
_0-8_
  6
CONTINUOUS
 62
    4
 10
182.33642882499288
 20
122.56708580596673
 11
202.33642882499288
 21
122.56708580596673
  0
POINT
  8
_0-8_
 62
    4
 10
182.33642882499288
 20
122.56708580596673
  0
POINT
  8
_0-8_
 62
    4
 10
202.33642882499288
 20
122.56708580596673
  0
LINE
  8
_0-8_
  6
CONTINUOUS
 62
    4
 10
182.33642882499288
 20
122.56708580596673
 11
182.33642882499288
 21
126.34116451209542
  0
LINE
  8
_0-8_
  6
CONTINUOUS
 62
    4
 10
202.33642882499288
 20
122.56708580596673
 11
202.33642882499288
 21
126.34116451209542
  0
TEXT
  8
_0-8_
 62
    4
 10
189.83642882499288
 20
123.06708580596673
 40
2.5
 41
1
 50
0
  1
20.0
  0
LINE
  8
_0-8_
  6
CONTINUOUS
 62
    4
 10
206.09627445466111
 20
145.47105405739219
 11
223.95725894898692
 21
127.61006956306639
  0
LINE
  8
_0-8_
  6
CONTINUOUS
 62
    4
 10
206.09627445466111
 20
145.47105405739219
 11
208.69435066601443
 21
143.97105405739219
  0
LINE
  8
_0-8_
  6
CONTINUOUS
 62
    4
 10
206.09627445466111
 20
145.47105405739219
 11
207.59627445466111
 21
142.87297784603888
  0
TEXT
  8
_0-8_
 62
    7
 10
224.68247868261489
 20
128.05121982426914
 40
1.8377939769387268
 41
1.0251716528544128
 50
0
  1
2Å~É≥5.2
  0
LINE
  8
_0-8_
  6
CONTINUOUS
 62
    4
 10
223.95725894898692
 20
127.61006956306639
 11
233.19037657723919
 21
127.61006956306639
  0
LINE
  8
_0-8_
  6
CONTINUOUS
 62
    4
 10
212.47632737718581
 20
167.41895790724311
 11
226.42943468376754
 21
181.37206521382484
  0
LINE
  8
_0-8_
  6
CONTINUOUS
 62
    4
 10
212.47632737718581
 20
167.41895790724311
 11
213.97632737718581
 21
170.01703411859643
  0
LINE
  8
_0-8_
  6
CONTINUOUS
 62
    4
 10
212.47632737718581
 20
167.41895790724311
 11
215.07440358853913
 21
168.91895790724311
  0
LINE
  8
_0-8_
  6
CONTINUOUS
 62
    4
 10
226.42943468376754
 20
181.37206521382484
 11
235.66255231201984
 21
181.37206521382484
  0
TEXT
  8
_0-8_
 62
    7
 10
227.53108444591049
 20
181.81321547502759
 40
1.8377939769387268
 41
1.0251716528544128
 50
0
  1
4Å~R3
  0
LINE
  8
_0-8_
  6
CONTINUOUS
 62
    4
 10
198.61834893934738
 20
160.0563315460262
 11
216.87297512415898
 21
141.8017053612146
  0
LINE
  8
_0-8_
  6
CONTINUOUS
 62
    4
 10
198.61834893934738
 20
160.0563315460262
 11
201.2164251507007
 21
158.5563315460262
  0
LINE
  8
_0-8_
  6
CONTINUOUS
 62
    4
 10
198.61834893934738
 20
160.0563315460262
 11
200.11834893934738
 21
157.45825533467288
  0
TEXT
  8
_0-8_
 62
    7
 10
217.47788404800357
 20
142.25148348808932
 40
1.8377939769387268
 41
1.0251716528544128
 50
0
  1
2Å~M2
  0
LINE
  8
_0-8_
  6
CONTINUOUS
 62
    4
 10
216.87297512415898
 20
141.8017053612146
 11
223.49171814812163
 21
141.8017053612146
  0
LINE
  8
_0-8_
  6
CONTINUOUS
 62
    4
 10
164.05430778342486
 20
161.10534734474601
 11
169.88360534599917
 21
161.10534734474601
  0
LINE
  8
_0-8_
  6
CONTINUOUS
 62
    4
 10
173.74821237152037
 20
161.10534734474601
 11
183.87580536701915
 21
161.10534734474601
  0
LINE
  8
_0-8_
  6
CONTINUOUS
 62
    4
 10
164.05430778342486
 20
161.10534734474601
 11
164.05430778342486
 21
148.10534734474601
  0
POINT
  8
_0-8_
 62
    4
 10
164.05430778342486
 20
161.10534734474601
  0
POINT
  8
_0-8_
 62
    4
 10
164.05430778342486
 20
148.10534734474601
  0
LINE
  8
_0-8_
  6
CONTINUOUS
 62
    4
 10
164.05430778342486
 20
161.10534734474601
 11
169.88360534599917
 21
161.10534734474601
  0
LINE
  8
_0-8_
  6
CONTINUOUS
 62
    4
 10
164.05430778342486
 20
148.10534734474601
 11
169.88360534599917
 21
148.10534734474601
  0
TEXT
  8
_0-8_
 62
    4
 10
163.55430778342486
 20
152.10534734474601
 40
2.5
 41
1
 50
90
  1
13.0
  0
ENDSEC
  0
EOF
